<?xml version="1.0" encoding="UTF-8" standalone="no"?>
<!DOCTYPE svg PUBLIC "-//W3C//DTD SVG 1.1//EN"
 "http://www.w3.org/Graphics/SVG/1.1/DTD/svg11.dtd">
<!-- Generated by graphviz version 2.40.1 (20161225.0304)
 -->
<!-- Title: Tree Pages: 1 -->
<svg width="210pt" height="165pt"
 viewBox="0.00 0.00 210.00 165.00" xmlns="http://www.w3.org/2000/svg" xmlns:xlink="http://www.w3.org/1999/xlink">
<g id="graph0" class="graph" transform="scale(1 1) rotate(0) translate(4 161)">
<title>Tree</title>
<polygon fill="#ffffff" stroke="transparent" points="-4,4 -4,-161 206,-161 206,4 -4,4"/>
<!-- 0 -->
<g id="node1" class="node">
<title>0</title>
<polygon fill="none" stroke="#000000" points="154.5,-157 47.5,-157 47.5,-89 154.5,-89 154.5,-157"/>
<text text-anchor="middle" x="101" y="-141.8" font-family="Times,serif" font-size="14.00" fill="#000000">lon &lt;= &#45;117.485</text>
<text text-anchor="middle" x="101" y="-126.8" font-family="Times,serif" font-size="14.00" fill="#000000">samples = 6</text>
<text text-anchor="middle" x="101" y="-111.8" font-family="Times,serif" font-size="14.00" fill="#000000">value = [3, 3]</text>
<text text-anchor="middle" x="101" y="-96.8" font-family="Times,serif" font-size="14.00" fill="#000000">class = blue</text>
</g>
<!-- 1 -->
<g id="node2" class="node">
<title>1</title>
<polygon fill="none" stroke="#000000" points="92,-53 0,-53 0,0 92,0 92,-53"/>
<text text-anchor="middle" x="46" y="-37.8" font-family="Times,serif" font-size="14.00" fill="#000000">samples = 1</text>
<text text-anchor="middle" x="46" y="-22.8" font-family="Times,serif" font-size="14.00" fill="#000000">value = [1, 0]</text>
<text text-anchor="middle" x="46" y="-7.8" font-family="Times,serif" font-size="14.00" fill="#000000">class = blue</text>
</g>
<!-- 0&#45;&gt;1 -->
<g id="edge1" class="edge">
<title>0&#45;&gt;1</title>
<path fill="none" stroke="#000000" d="M81.6091,-88.9777C76.651,-80.2786 71.3067,-70.9018 66.3042,-62.1247"/>
<polygon fill="#000000" stroke="#000000" points="69.2378,-60.2033 61.2452,-53.2485 63.1562,-63.6696 69.2378,-60.2033"/>
<text text-anchor="middle" x="54.6404" y="-73.6602" font-family="Times,serif" font-size="14.00" fill="#000000">True</text>
</g>
<!-- 2 -->
<g id="node3" class="node">
<title>2</title>
<polygon fill="none" stroke="#000000" points="202,-53 110,-53 110,0 202,0 202,-53"/>
<text text-anchor="middle" x="156" y="-37.8" font-family="Times,serif" font-size="14.00" fill="#000000">samples = 5</text>
<text text-anchor="middle" x="156" y="-22.8" font-family="Times,serif" font-size="14.00" fill="#000000">value = [2, 3]</text>
<text text-anchor="middle" x="156" y="-7.8" font-family="Times,serif" font-size="14.00" fill="#000000">class = red</text>
</g>
<!-- 0&#45;&gt;2 -->
<g id="edge2" class="edge">
<title>0&#45;&gt;2</title>
<path fill="none" stroke="#000000" d="M120.3909,-88.9777C125.349,-80.2786 130.6933,-70.9018 135.6958,-62.1247"/>
<polygon fill="#000000" stroke="#000000" points="138.8438,-63.6696 140.7548,-53.2485 132.7622,-60.2033 138.8438,-63.6696"/>
<text text-anchor="middle" x="147.3596" y="-73.6602" font-family="Times,serif" font-size="14.00" fill="#000000">False</text>
</g>
</g>
</svg>
