<?xml version="1.0" encoding="UTF-8" standalone="no"?>
<!DOCTYPE svg PUBLIC "-//W3C//DTD SVG 1.1//EN"
 "http://www.w3.org/Graphics/SVG/1.1/DTD/svg11.dtd">
<!-- Generated by graphviz version 2.44.1 (20200629.0846)
 -->
<!-- Title: Tree Pages: 1 -->
<svg width="457pt" height="414pt"
 viewBox="0.00 0.00 457.00 414.00" xmlns="http://www.w3.org/2000/svg" xmlns:xlink="http://www.w3.org/1999/xlink">
<g id="graph0" class="graph" transform="scale(1 1) rotate(0) translate(4 410)">
<title>Tree</title>
<polygon fill="white" stroke="transparent" points="-4,4 -4,-410 453,-410 453,4 -4,4"/>
<!-- 0 -->
<g id="node1" class="node">
<title>0</title>
<polygon fill="none" stroke="black" points="197.5,-406 90.5,-406 90.5,-368 197.5,-368 197.5,-406"/>
<text text-anchor="middle" x="144" y="-390.8" font-family="Times,serif" font-size="14.00">lon &lt;= &#45;102.165</text>
<text text-anchor="middle" x="144" y="-375.8" font-family="Times,serif" font-size="14.00">class = red</text>
</g>
<!-- 1 -->
<g id="node2" class="node">
<title>1</title>
<polygon fill="none" stroke="black" points="131,-331 49,-331 49,-295 131,-295 131,-331"/>
<text text-anchor="middle" x="90" y="-309.3" font-family="Times,serif" font-size="14.00">class = blue</text>
</g>
<!-- 0&#45;&gt;1 -->
<g id="edge1" class="edge">
<title>0&#45;&gt;1</title>
<path fill="none" stroke="black" d="M130.37,-367.83C123.96,-359.28 116.21,-348.94 109.21,-339.62"/>
<polygon fill="black" stroke="black" points="111.86,-337.32 103.06,-331.42 106.26,-341.52 111.86,-337.32"/>
<text text-anchor="middle" x="99.53" y="-352.47" font-family="Times,serif" font-size="14.00">True</text>
</g>
<!-- 2 -->
<g id="node3" class="node">
<title>2</title>
<polygon fill="none" stroke="black" points="249,-332 149,-332 149,-294 249,-294 249,-332"/>
<text text-anchor="middle" x="199" y="-316.8" font-family="Times,serif" font-size="14.00">lon &lt;= &#45;82.517</text>
<text text-anchor="middle" x="199" y="-301.8" font-family="Times,serif" font-size="14.00">class = red</text>
</g>
<!-- 0&#45;&gt;2 -->
<g id="edge2" class="edge">
<title>0&#45;&gt;2</title>
<path fill="none" stroke="black" d="M157.88,-367.83C164.21,-359.54 171.84,-349.56 178.79,-340.45"/>
<polygon fill="black" stroke="black" points="181.65,-342.48 184.93,-332.41 176.08,-338.24 181.65,-342.48"/>
<text text-anchor="middle" x="188.25" y="-353.49" font-family="Times,serif" font-size="14.00">False</text>
</g>
<!-- 3 -->
<g id="node4" class="node">
<title>3</title>
<polygon fill="none" stroke="black" points="188,-258 96,-258 96,-220 188,-220 188,-258"/>
<text text-anchor="middle" x="142" y="-242.8" font-family="Times,serif" font-size="14.00">lat &lt;= 41.113</text>
<text text-anchor="middle" x="142" y="-227.8" font-family="Times,serif" font-size="14.00">class = red</text>
</g>
<!-- 2&#45;&gt;3 -->
<g id="edge3" class="edge">
<title>2&#45;&gt;3</title>
<path fill="none" stroke="black" d="M184.62,-293.83C178.05,-285.54 170.15,-275.56 162.94,-266.45"/>
<polygon fill="black" stroke="black" points="165.53,-264.08 156.58,-258.41 160.04,-268.43 165.53,-264.08"/>
</g>
<!-- 10 -->
<g id="node11" class="node">
<title>10</title>
<polygon fill="none" stroke="black" points="306,-258 206,-258 206,-220 306,-220 306,-258"/>
<text text-anchor="middle" x="256" y="-242.8" font-family="Times,serif" font-size="14.00">lon &lt;= &#45;81.529</text>
<text text-anchor="middle" x="256" y="-227.8" font-family="Times,serif" font-size="14.00">class = blue</text>
</g>
<!-- 2&#45;&gt;10 -->
<g id="edge10" class="edge">
<title>2&#45;&gt;10</title>
<path fill="none" stroke="black" d="M213.38,-293.83C219.95,-285.54 227.85,-275.56 235.06,-266.45"/>
<polygon fill="black" stroke="black" points="237.96,-268.43 241.42,-258.41 232.47,-264.08 237.96,-268.43"/>
</g>
<!-- 4 -->
<g id="node5" class="node">
<title>4</title>
<polygon fill="none" stroke="black" points="76,-183 0,-183 0,-147 76,-147 76,-183"/>
<text text-anchor="middle" x="38" y="-161.3" font-family="Times,serif" font-size="14.00">class = red</text>
</g>
<!-- 3&#45;&gt;4 -->
<g id="edge4" class="edge">
<title>3&#45;&gt;4</title>
<path fill="none" stroke="black" d="M115.76,-219.83C102.3,-210.52 85.77,-199.07 71.41,-189.13"/>
<polygon fill="black" stroke="black" points="73.02,-185.99 62.8,-183.17 69.03,-191.74 73.02,-185.99"/>
</g>
<!-- 5 -->
<g id="node6" class="node">
<title>5</title>
<polygon fill="none" stroke="black" points="194,-184 94,-184 94,-146 194,-146 194,-184"/>
<text text-anchor="middle" x="144" y="-168.8" font-family="Times,serif" font-size="14.00">lon &lt;= &#45;91.035</text>
<text text-anchor="middle" x="144" y="-153.8" font-family="Times,serif" font-size="14.00">class = blue</text>
</g>
<!-- 3&#45;&gt;5 -->
<g id="edge5" class="edge">
<title>3&#45;&gt;5</title>
<path fill="none" stroke="black" d="M142.5,-219.83C142.72,-212.13 142.97,-202.97 143.21,-194.42"/>
<polygon fill="black" stroke="black" points="146.71,-194.51 143.49,-184.41 139.71,-194.31 146.71,-194.51"/>
</g>
<!-- 6 -->
<g id="node7" class="node">
<title>6</title>
<polygon fill="none" stroke="black" points="106,-109 24,-109 24,-73 106,-73 106,-109"/>
<text text-anchor="middle" x="65" y="-87.3" font-family="Times,serif" font-size="14.00">class = blue</text>
</g>
<!-- 5&#45;&gt;6 -->
<g id="edge6" class="edge">
<title>5&#45;&gt;6</title>
<path fill="none" stroke="black" d="M124.06,-145.83C114.13,-136.78 102,-125.72 91.31,-115.98"/>
<polygon fill="black" stroke="black" points="93.59,-113.32 83.84,-109.17 88.87,-118.49 93.59,-113.32"/>
</g>
<!-- 7 -->
<g id="node8" class="node">
<title>7</title>
<polygon fill="none" stroke="black" points="224,-110 124,-110 124,-72 224,-72 224,-110"/>
<text text-anchor="middle" x="174" y="-94.8" font-family="Times,serif" font-size="14.00">lon &lt;= &#45;84.774</text>
<text text-anchor="middle" x="174" y="-79.8" font-family="Times,serif" font-size="14.00">class = blue</text>
</g>
<!-- 5&#45;&gt;7 -->
<g id="edge7" class="edge">
<title>5&#45;&gt;7</title>
<path fill="none" stroke="black" d="M151.57,-145.83C154.85,-137.96 158.76,-128.57 162.39,-119.85"/>
<polygon fill="black" stroke="black" points="165.71,-120.99 166.33,-110.41 159.25,-118.3 165.71,-120.99"/>
</g>
<!-- 8 -->
<g id="node9" class="node">
<title>8</title>
<polygon fill="none" stroke="black" points="163,-36 87,-36 87,0 163,0 163,-36"/>
<text text-anchor="middle" x="125" y="-14.3" font-family="Times,serif" font-size="14.00">class = red</text>
</g>
<!-- 7&#45;&gt;8 -->
<g id="edge8" class="edge">
<title>7&#45;&gt;8</title>
<path fill="none" stroke="black" d="M161.38,-71.72C155.62,-63.37 148.71,-53.35 142.46,-44.3"/>
<polygon fill="black" stroke="black" points="145.3,-42.25 136.73,-36 139.53,-46.22 145.3,-42.25"/>
</g>
<!-- 9 -->
<g id="node10" class="node">
<title>9</title>
<polygon fill="none" stroke="black" points="263,-36 181,-36 181,0 263,0 263,-36"/>
<text text-anchor="middle" x="222" y="-14.3" font-family="Times,serif" font-size="14.00">class = blue</text>
</g>
<!-- 7&#45;&gt;9 -->
<g id="edge9" class="edge">
<title>7&#45;&gt;9</title>
<path fill="none" stroke="black" d="M186.36,-71.72C192,-63.37 198.78,-53.35 204.9,-44.3"/>
<polygon fill="black" stroke="black" points="207.8,-46.25 210.5,-36 202,-42.33 207.8,-46.25"/>
</g>
<!-- 11 -->
<g id="node12" class="node">
<title>11</title>
<polygon fill="none" stroke="black" points="296,-183 214,-183 214,-147 296,-147 296,-183"/>
<text text-anchor="middle" x="255" y="-161.3" font-family="Times,serif" font-size="14.00">class = blue</text>
</g>
<!-- 10&#45;&gt;11 -->
<g id="edge11" class="edge">
<title>10&#45;&gt;11</title>
<path fill="none" stroke="black" d="M255.75,-219.83C255.64,-211.89 255.51,-202.41 255.38,-193.63"/>
<polygon fill="black" stroke="black" points="258.88,-193.37 255.24,-183.42 251.88,-193.47 258.88,-193.37"/>
</g>
<!-- 12 -->
<g id="node13" class="node">
<title>12</title>
<polygon fill="none" stroke="black" points="406,-184 314,-184 314,-146 406,-146 406,-184"/>
<text text-anchor="middle" x="360" y="-168.8" font-family="Times,serif" font-size="14.00">lat &lt;= 37.015</text>
<text text-anchor="middle" x="360" y="-153.8" font-family="Times,serif" font-size="14.00">class = red</text>
</g>
<!-- 10&#45;&gt;12 -->
<g id="edge12" class="edge">
<title>10&#45;&gt;12</title>
<path fill="none" stroke="black" d="M282.24,-219.83C295.3,-210.79 311.25,-199.75 325.3,-190.02"/>
<polygon fill="black" stroke="black" points="327.54,-192.73 333.76,-184.16 323.55,-186.98 327.54,-192.73"/>
</g>
<!-- 13 -->
<g id="node14" class="node">
<title>13</title>
<polygon fill="none" stroke="black" points="349,-109 273,-109 273,-73 349,-73 349,-109"/>
<text text-anchor="middle" x="311" y="-87.3" font-family="Times,serif" font-size="14.00">class = red</text>
</g>
<!-- 12&#45;&gt;13 -->
<g id="edge13" class="edge">
<title>12&#45;&gt;13</title>
<path fill="none" stroke="black" d="M347.64,-145.83C341.88,-137.37 334.92,-127.15 328.63,-117.9"/>
<polygon fill="black" stroke="black" points="331.37,-115.72 322.85,-109.42 325.59,-119.65 331.37,-115.72"/>
</g>
<!-- 14 -->
<g id="node15" class="node">
<title>14</title>
<polygon fill="none" stroke="black" points="449,-109 367,-109 367,-73 449,-73 449,-109"/>
<text text-anchor="middle" x="408" y="-87.3" font-family="Times,serif" font-size="14.00">class = blue</text>
</g>
<!-- 12&#45;&gt;14 -->
<g id="edge14" class="edge">
<title>12&#45;&gt;14</title>
<path fill="none" stroke="black" d="M372.11,-145.83C377.75,-137.37 384.57,-127.15 390.73,-117.9"/>
<polygon fill="black" stroke="black" points="393.75,-119.68 396.39,-109.42 387.93,-115.8 393.75,-119.68"/>
</g>
</g>
</svg>
