<?xml version="1.0" encoding="UTF-8" standalone="no"?>
<!DOCTYPE svg PUBLIC "-//W3C//DTD SVG 1.1//EN"
 "http://www.w3.org/Graphics/SVG/1.1/DTD/svg11.dtd">
<!-- Generated by graphviz version 2.44.1 (20200629.0846)
 -->
<!-- Title: Tree Pages: 1 -->
<svg width="1125pt" height="932pt"
 viewBox="0.00 0.00 1124.50 932.00" xmlns="http://www.w3.org/2000/svg" xmlns:xlink="http://www.w3.org/1999/xlink">
<g id="graph0" class="graph" transform="scale(1 1) rotate(0) translate(4 928)">
<title>Tree</title>
<polygon fill="white" stroke="transparent" points="-4,4 -4,-928 1120.5,-928 1120.5,4 -4,4"/>
<!-- 0 -->
<g id="node1" class="node">
<title>0</title>
<polygon fill="none" stroke="black" points="386.5,-924 281.5,-924 281.5,-886 386.5,-886 386.5,-924"/>
<text text-anchor="middle" x="334" y="-908.8" font-family="Times,serif" font-size="14.00">latitude &lt;= 42.9</text>
<text text-anchor="middle" x="334" y="-893.8" font-family="Times,serif" font-size="14.00">class = Canada</text>
</g>
<!-- 1 -->
<g id="node2" class="node">
<title>1</title>
<polygon fill="none" stroke="black" points="325.5,-850 206.5,-850 206.5,-812 325.5,-812 325.5,-850"/>
<text text-anchor="middle" x="266" y="-834.8" font-family="Times,serif" font-size="14.00">latitude &lt;= 42.096</text>
<text text-anchor="middle" x="266" y="-819.8" font-family="Times,serif" font-size="14.00">class = USA</text>
</g>
<!-- 0&#45;&gt;1 -->
<g id="edge1" class="edge">
<title>0&#45;&gt;1</title>
<path fill="none" stroke="black" d="M316.84,-885.83C308.85,-877.37 299.2,-867.15 290.46,-857.9"/>
<polygon fill="black" stroke="black" points="292.8,-855.28 283.39,-850.41 287.71,-860.09 292.8,-855.28"/>
<text text-anchor="middle" x="282.68" y="-871.7" font-family="Times,serif" font-size="14.00">True</text>
</g>
<!-- 6 -->
<g id="node7" class="node">
<title>6</title>
<polygon fill="none" stroke="black" points="462.5,-850 343.5,-850 343.5,-812 462.5,-812 462.5,-850"/>
<text text-anchor="middle" x="403" y="-834.8" font-family="Times,serif" font-size="14.00">latitude &lt;= 55.958</text>
<text text-anchor="middle" x="403" y="-819.8" font-family="Times,serif" font-size="14.00">class = Canada</text>
</g>
<!-- 0&#45;&gt;6 -->
<g id="edge6" class="edge">
<title>0&#45;&gt;6</title>
<path fill="none" stroke="black" d="M351.41,-885.83C359.52,-877.37 369.32,-867.15 378.18,-857.9"/>
<polygon fill="black" stroke="black" points="380.96,-860.05 385.35,-850.41 375.91,-855.21 380.96,-860.05"/>
<text text-anchor="middle" x="385.89" y="-871.71" font-family="Times,serif" font-size="14.00">False</text>
</g>
<!-- 2 -->
<g id="node3" class="node">
<title>2</title>
<polygon fill="none" stroke="black" points="190,-775 104,-775 104,-739 190,-739 190,-775"/>
<text text-anchor="middle" x="147" y="-753.3" font-family="Times,serif" font-size="14.00">class = USA</text>
</g>
<!-- 1&#45;&gt;2 -->
<g id="edge2" class="edge">
<title>1&#45;&gt;2</title>
<path fill="none" stroke="black" d="M235.97,-811.83C220.29,-802.34 200.94,-790.64 184.31,-780.57"/>
<polygon fill="black" stroke="black" points="185.75,-777.35 175.38,-775.17 182.12,-783.34 185.75,-777.35"/>
</g>
<!-- 3 -->
<g id="node4" class="node">
<title>3</title>
<polygon fill="none" stroke="black" points="327.5,-776 208.5,-776 208.5,-738 327.5,-738 327.5,-776"/>
<text text-anchor="middle" x="268" y="-760.8" font-family="Times,serif" font-size="14.00">latitude &lt;= 42.324</text>
<text text-anchor="middle" x="268" y="-745.8" font-family="Times,serif" font-size="14.00">class = USA</text>
</g>
<!-- 1&#45;&gt;3 -->
<g id="edge3" class="edge">
<title>1&#45;&gt;3</title>
<path fill="none" stroke="black" d="M266.5,-811.83C266.72,-804.13 266.97,-794.97 267.21,-786.42"/>
<polygon fill="black" stroke="black" points="270.71,-786.51 267.49,-776.41 263.71,-786.31 270.71,-786.51"/>
</g>
<!-- 4 -->
<g id="node5" class="node">
<title>4</title>
<polygon fill="none" stroke="black" points="207.5,-701 108.5,-701 108.5,-665 207.5,-665 207.5,-701"/>
<text text-anchor="middle" x="158" y="-679.3" font-family="Times,serif" font-size="14.00">class = Canada</text>
</g>
<!-- 3&#45;&gt;4 -->
<g id="edge4" class="edge">
<title>3&#45;&gt;4</title>
<path fill="none" stroke="black" d="M240.24,-737.83C225.88,-728.43 208.2,-716.86 192.91,-706.85"/>
<polygon fill="black" stroke="black" points="194.52,-703.72 184.23,-701.17 190.68,-709.58 194.52,-703.72"/>
</g>
<!-- 5 -->
<g id="node6" class="node">
<title>5</title>
<polygon fill="none" stroke="black" points="312,-701 226,-701 226,-665 312,-665 312,-701"/>
<text text-anchor="middle" x="269" y="-679.3" font-family="Times,serif" font-size="14.00">class = USA</text>
</g>
<!-- 3&#45;&gt;5 -->
<g id="edge5" class="edge">
<title>3&#45;&gt;5</title>
<path fill="none" stroke="black" d="M268.25,-737.83C268.36,-729.89 268.49,-720.41 268.62,-711.63"/>
<polygon fill="black" stroke="black" points="272.12,-711.47 268.76,-701.42 265.12,-711.37 272.12,-711.47"/>
</g>
<!-- 7 -->
<g id="node8" class="node">
<title>7</title>
<polygon fill="none" stroke="black" points="454.5,-776 349.5,-776 349.5,-738 454.5,-738 454.5,-776"/>
<text text-anchor="middle" x="402" y="-760.8" font-family="Times,serif" font-size="14.00">latitude &lt;= 49.0</text>
<text text-anchor="middle" x="402" y="-745.8" font-family="Times,serif" font-size="14.00">class = Canada</text>
</g>
<!-- 6&#45;&gt;7 -->
<g id="edge7" class="edge">
<title>6&#45;&gt;7</title>
<path fill="none" stroke="black" d="M402.75,-811.83C402.64,-804.13 402.51,-794.97 402.39,-786.42"/>
<polygon fill="black" stroke="black" points="405.89,-786.36 402.26,-776.41 398.9,-786.46 405.89,-786.36"/>
</g>
<!-- 54 -->
<g id="node55" class="node">
<title>54</title>
<polygon fill="none" stroke="black" points="559,-775 473,-775 473,-739 559,-739 559,-775"/>
<text text-anchor="middle" x="516" y="-753.3" font-family="Times,serif" font-size="14.00">class = USA</text>
</g>
<!-- 6&#45;&gt;54 -->
<g id="edge54" class="edge">
<title>6&#45;&gt;54</title>
<path fill="none" stroke="black" d="M431.51,-811.83C446.41,-802.34 464.78,-790.64 480.58,-780.57"/>
<polygon fill="black" stroke="black" points="482.5,-783.5 489.05,-775.17 478.74,-777.59 482.5,-783.5"/>
</g>
<!-- 8 -->
<g id="node9" class="node">
<title>8</title>
<polygon fill="none" stroke="black" points="468,-702 334,-702 334,-664 468,-664 468,-702"/>
<text text-anchor="middle" x="401" y="-686.8" font-family="Times,serif" font-size="14.00">longitude &lt;= &#45;94.582</text>
<text text-anchor="middle" x="401" y="-671.8" font-family="Times,serif" font-size="14.00">class = Canada</text>
</g>
<!-- 7&#45;&gt;8 -->
<g id="edge8" class="edge">
<title>7&#45;&gt;8</title>
<path fill="none" stroke="black" d="M401.75,-737.83C401.64,-730.13 401.51,-720.97 401.39,-712.42"/>
<polygon fill="black" stroke="black" points="404.89,-712.36 401.26,-702.41 397.9,-712.46 404.89,-712.36"/>
</g>
<!-- 53 -->
<g id="node54" class="node">
<title>53</title>
<polygon fill="none" stroke="black" points="585.5,-701 486.5,-701 486.5,-665 585.5,-665 585.5,-701"/>
<text text-anchor="middle" x="536" y="-679.3" font-family="Times,serif" font-size="14.00">class = Canada</text>
</g>
<!-- 7&#45;&gt;53 -->
<g id="edge53" class="edge">
<title>7&#45;&gt;53</title>
<path fill="none" stroke="black" d="M435.81,-737.83C453.8,-728.17 476.06,-716.2 495.03,-706.01"/>
<polygon fill="black" stroke="black" points="496.89,-708.99 504.04,-701.17 493.58,-702.82 496.89,-708.99"/>
</g>
<!-- 9 -->
<g id="node10" class="node">
<title>9</title>
<polygon fill="none" stroke="black" points="394,-628 254,-628 254,-590 394,-590 394,-628"/>
<text text-anchor="middle" x="324" y="-612.8" font-family="Times,serif" font-size="14.00">longitude &lt;= &#45;123.222</text>
<text text-anchor="middle" x="324" y="-597.8" font-family="Times,serif" font-size="14.00">class = USA</text>
</g>
<!-- 8&#45;&gt;9 -->
<g id="edge9" class="edge">
<title>8&#45;&gt;9</title>
<path fill="none" stroke="black" d="M381.57,-663.83C372.27,-655.13 360.98,-644.58 350.87,-635.13"/>
<polygon fill="black" stroke="black" points="353.12,-632.44 343.42,-628.16 348.34,-637.55 353.12,-632.44"/>
</g>
<!-- 12 -->
<g id="node13" class="node">
<title>12</title>
<polygon fill="none" stroke="black" points="546,-628 412,-628 412,-590 546,-590 546,-628"/>
<text text-anchor="middle" x="479" y="-612.8" font-family="Times,serif" font-size="14.00">longitude &lt;= &#45;69.246</text>
<text text-anchor="middle" x="479" y="-597.8" font-family="Times,serif" font-size="14.00">class = Canada</text>
</g>
<!-- 8&#45;&gt;12 -->
<g id="edge12" class="edge">
<title>8&#45;&gt;12</title>
<path fill="none" stroke="black" d="M420.68,-663.83C430.11,-655.13 441.54,-644.58 451.78,-635.13"/>
<polygon fill="black" stroke="black" points="454.35,-637.52 459.32,-628.16 449.6,-632.37 454.35,-637.52"/>
</g>
<!-- 10 -->
<g id="node11" class="node">
<title>10</title>
<polygon fill="none" stroke="black" points="271.5,-553 172.5,-553 172.5,-517 271.5,-517 271.5,-553"/>
<text text-anchor="middle" x="222" y="-531.3" font-family="Times,serif" font-size="14.00">class = Canada</text>
</g>
<!-- 9&#45;&gt;10 -->
<g id="edge10" class="edge">
<title>9&#45;&gt;10</title>
<path fill="none" stroke="black" d="M298.26,-589.83C285.07,-580.52 268.85,-569.07 254.77,-559.13"/>
<polygon fill="black" stroke="black" points="256.51,-556.08 246.33,-553.17 252.48,-561.8 256.51,-556.08"/>
</g>
<!-- 11 -->
<g id="node12" class="node">
<title>11</title>
<polygon fill="none" stroke="black" points="376,-553 290,-553 290,-517 376,-517 376,-553"/>
<text text-anchor="middle" x="333" y="-531.3" font-family="Times,serif" font-size="14.00">class = USA</text>
</g>
<!-- 9&#45;&gt;11 -->
<g id="edge11" class="edge">
<title>9&#45;&gt;11</title>
<path fill="none" stroke="black" d="M326.27,-589.83C327.26,-581.89 328.45,-572.41 329.55,-563.63"/>
<polygon fill="black" stroke="black" points="333.06,-563.77 330.82,-553.42 326.11,-562.91 333.06,-563.77"/>
</g>
<!-- 13 -->
<g id="node14" class="node">
<title>13</title>
<polygon fill="none" stroke="black" points="530.5,-554 411.5,-554 411.5,-516 530.5,-516 530.5,-554"/>
<text text-anchor="middle" x="471" y="-538.8" font-family="Times,serif" font-size="14.00">latitude &lt;= 43.093</text>
<text text-anchor="middle" x="471" y="-523.8" font-family="Times,serif" font-size="14.00">class = Canada</text>
</g>
<!-- 12&#45;&gt;13 -->
<g id="edge13" class="edge">
<title>12&#45;&gt;13</title>
<path fill="none" stroke="black" d="M476.98,-589.83C476.13,-582.13 475.11,-572.97 474.16,-564.42"/>
<polygon fill="black" stroke="black" points="477.63,-563.97 473.05,-554.41 470.67,-564.74 477.63,-563.97"/>
</g>
<!-- 36 -->
<g id="node37" class="node">
<title>36</title>
<polygon fill="none" stroke="black" points="724,-554 590,-554 590,-516 724,-516 724,-554"/>
<text text-anchor="middle" x="657" y="-538.8" font-family="Times,serif" font-size="14.00">longitude &lt;= &#45;66.952</text>
<text text-anchor="middle" x="657" y="-523.8" font-family="Times,serif" font-size="14.00">class = Canada</text>
</g>
<!-- 12&#45;&gt;36 -->
<g id="edge36" class="edge">
<title>12&#45;&gt;36</title>
<path fill="none" stroke="black" d="M523.92,-589.83C547.93,-580.12 577.68,-568.08 602.96,-557.86"/>
<polygon fill="black" stroke="black" points="604.45,-561.03 612.41,-554.04 601.82,-554.54 604.45,-561.03"/>
</g>
<!-- 14 -->
<g id="node15" class="node">
<title>14</title>
<polygon fill="none" stroke="black" points="351.5,-480 232.5,-480 232.5,-442 351.5,-442 351.5,-480"/>
<text text-anchor="middle" x="292" y="-464.8" font-family="Times,serif" font-size="14.00">latitude &lt;= 43.014</text>
<text text-anchor="middle" x="292" y="-449.8" font-family="Times,serif" font-size="14.00">class = Canada</text>
</g>
<!-- 13&#45;&gt;14 -->
<g id="edge14" class="edge">
<title>13&#45;&gt;14</title>
<path fill="none" stroke="black" d="M425.83,-515.83C401.68,-506.12 371.76,-494.08 346.34,-483.86"/>
<polygon fill="black" stroke="black" points="347.43,-480.52 336.84,-480.04 344.82,-487.02 347.43,-480.52"/>
</g>
<!-- 19 -->
<g id="node20" class="node">
<title>19</title>
<polygon fill="none" stroke="black" points="530.5,-480 411.5,-480 411.5,-442 530.5,-442 530.5,-480"/>
<text text-anchor="middle" x="471" y="-464.8" font-family="Times,serif" font-size="14.00">latitude &lt;= 44.992</text>
<text text-anchor="middle" x="471" y="-449.8" font-family="Times,serif" font-size="14.00">class = Canada</text>
</g>
<!-- 13&#45;&gt;19 -->
<g id="edge19" class="edge">
<title>13&#45;&gt;19</title>
<path fill="none" stroke="black" d="M471,-515.83C471,-508.13 471,-498.97 471,-490.42"/>
<polygon fill="black" stroke="black" points="474.5,-490.41 471,-480.41 467.5,-490.41 474.5,-490.41"/>
</g>
<!-- 15 -->
<g id="node16" class="node">
<title>15</title>
<polygon fill="none" stroke="black" points="221,-406 87,-406 87,-368 221,-368 221,-406"/>
<text text-anchor="middle" x="154" y="-390.8" font-family="Times,serif" font-size="14.00">longitude &lt;= &#45;81.845</text>
<text text-anchor="middle" x="154" y="-375.8" font-family="Times,serif" font-size="14.00">class = Canada</text>
</g>
<!-- 14&#45;&gt;15 -->
<g id="edge15" class="edge">
<title>14&#45;&gt;15</title>
<path fill="none" stroke="black" d="M257.18,-441.83C239.2,-432.45 217.08,-420.91 197.94,-410.92"/>
<polygon fill="black" stroke="black" points="199.3,-407.69 188.81,-406.16 196.06,-413.89 199.3,-407.69"/>
</g>
<!-- 18 -->
<g id="node19" class="node">
<title>18</title>
<polygon fill="none" stroke="black" points="335,-405 249,-405 249,-369 335,-369 335,-405"/>
<text text-anchor="middle" x="292" y="-383.3" font-family="Times,serif" font-size="14.00">class = USA</text>
</g>
<!-- 14&#45;&gt;18 -->
<g id="edge18" class="edge">
<title>14&#45;&gt;18</title>
<path fill="none" stroke="black" d="M292,-441.83C292,-433.89 292,-424.41 292,-415.63"/>
<polygon fill="black" stroke="black" points="295.5,-415.42 292,-405.42 288.5,-415.42 295.5,-415.42"/>
</g>
<!-- 16 -->
<g id="node17" class="node">
<title>16</title>
<polygon fill="none" stroke="black" points="86,-331 0,-331 0,-295 86,-295 86,-331"/>
<text text-anchor="middle" x="43" y="-309.3" font-family="Times,serif" font-size="14.00">class = USA</text>
</g>
<!-- 15&#45;&gt;16 -->
<g id="edge16" class="edge">
<title>15&#45;&gt;16</title>
<path fill="none" stroke="black" d="M125.99,-367.83C111.49,-358.43 93.65,-346.86 78.23,-336.85"/>
<polygon fill="black" stroke="black" points="79.77,-333.68 69.47,-331.17 75.96,-339.55 79.77,-333.68"/>
</g>
<!-- 17 -->
<g id="node18" class="node">
<title>17</title>
<polygon fill="none" stroke="black" points="203.5,-331 104.5,-331 104.5,-295 203.5,-295 203.5,-331"/>
<text text-anchor="middle" x="154" y="-309.3" font-family="Times,serif" font-size="14.00">class = Canada</text>
</g>
<!-- 15&#45;&gt;17 -->
<g id="edge17" class="edge">
<title>15&#45;&gt;17</title>
<path fill="none" stroke="black" d="M154,-367.83C154,-359.89 154,-350.41 154,-341.63"/>
<polygon fill="black" stroke="black" points="157.5,-341.42 154,-331.42 150.5,-341.42 157.5,-341.42"/>
</g>
<!-- 20 -->
<g id="node21" class="node">
<title>20</title>
<polygon fill="none" stroke="black" points="473.5,-406 354.5,-406 354.5,-368 473.5,-368 473.5,-406"/>
<text text-anchor="middle" x="414" y="-390.8" font-family="Times,serif" font-size="14.00">latitude &lt;= 44.542</text>
<text text-anchor="middle" x="414" y="-375.8" font-family="Times,serif" font-size="14.00">class = Canada</text>
</g>
<!-- 19&#45;&gt;20 -->
<g id="edge20" class="edge">
<title>19&#45;&gt;20</title>
<path fill="none" stroke="black" d="M456.62,-441.83C450.05,-433.54 442.15,-423.56 434.94,-414.45"/>
<polygon fill="black" stroke="black" points="437.53,-412.08 428.58,-406.41 432.04,-416.43 437.53,-412.08"/>
</g>
<!-- 35 -->
<g id="node36" class="node">
<title>35</title>
<polygon fill="none" stroke="black" points="590.5,-405 491.5,-405 491.5,-369 590.5,-369 590.5,-405"/>
<text text-anchor="middle" x="541" y="-383.3" font-family="Times,serif" font-size="14.00">class = Canada</text>
</g>
<!-- 19&#45;&gt;35 -->
<g id="edge35" class="edge">
<title>19&#45;&gt;35</title>
<path fill="none" stroke="black" d="M488.66,-441.83C497.23,-433.02 507.65,-422.31 516.93,-412.76"/>
<polygon fill="black" stroke="black" points="519.6,-415.03 524.07,-405.42 514.59,-410.15 519.6,-415.03"/>
</g>
<!-- 21 -->
<g id="node22" class="node">
<title>21</title>
<polygon fill="none" stroke="black" points="356,-332 222,-332 222,-294 356,-294 356,-332"/>
<text text-anchor="middle" x="289" y="-316.8" font-family="Times,serif" font-size="14.00">longitude &lt;= &#45;79.076</text>
<text text-anchor="middle" x="289" y="-301.8" font-family="Times,serif" font-size="14.00">class = Canada</text>
</g>
<!-- 20&#45;&gt;21 -->
<g id="edge21" class="edge">
<title>20&#45;&gt;21</title>
<path fill="none" stroke="black" d="M382.46,-367.83C366.32,-358.54 346.5,-347.12 329.27,-337.2"/>
<polygon fill="black" stroke="black" points="330.94,-334.12 320.53,-332.16 327.45,-340.19 330.94,-334.12"/>
</g>
<!-- 30 -->
<g id="node31" class="node">
<title>30</title>
<polygon fill="none" stroke="black" points="493.5,-332 374.5,-332 374.5,-294 493.5,-294 493.5,-332"/>
<text text-anchor="middle" x="434" y="-316.8" font-family="Times,serif" font-size="14.00">latitude &lt;= 44.706</text>
<text text-anchor="middle" x="434" y="-301.8" font-family="Times,serif" font-size="14.00">class = USA</text>
</g>
<!-- 20&#45;&gt;30 -->
<g id="edge30" class="edge">
<title>20&#45;&gt;30</title>
<path fill="none" stroke="black" d="M419.05,-367.83C421.21,-360.05 423.79,-350.77 426.18,-342.13"/>
<polygon fill="black" stroke="black" points="429.58,-342.99 428.89,-332.41 422.84,-341.11 429.58,-342.99"/>
</g>
<!-- 22 -->
<g id="node23" class="node">
<title>22</title>
<polygon fill="none" stroke="black" points="211.5,-257 112.5,-257 112.5,-221 211.5,-221 211.5,-257"/>
<text text-anchor="middle" x="162" y="-235.3" font-family="Times,serif" font-size="14.00">class = Canada</text>
</g>
<!-- 21&#45;&gt;22 -->
<g id="edge22" class="edge">
<title>21&#45;&gt;22</title>
<path fill="none" stroke="black" d="M256.95,-293.83C240.06,-284.25 219.19,-272.42 201.32,-262.29"/>
<polygon fill="black" stroke="black" points="202.71,-259.06 192.29,-257.17 199.26,-265.15 202.71,-259.06"/>
</g>
<!-- 23 -->
<g id="node24" class="node">
<title>23</title>
<polygon fill="none" stroke="black" points="348.5,-258 229.5,-258 229.5,-220 348.5,-220 348.5,-258"/>
<text text-anchor="middle" x="289" y="-242.8" font-family="Times,serif" font-size="14.00">latitude &lt;= 44.168</text>
<text text-anchor="middle" x="289" y="-227.8" font-family="Times,serif" font-size="14.00">class = Canada</text>
</g>
<!-- 21&#45;&gt;23 -->
<g id="edge23" class="edge">
<title>21&#45;&gt;23</title>
<path fill="none" stroke="black" d="M289,-293.83C289,-286.13 289,-276.97 289,-268.42"/>
<polygon fill="black" stroke="black" points="292.5,-268.41 289,-258.41 285.5,-268.41 292.5,-268.41"/>
</g>
<!-- 24 -->
<g id="node25" class="node">
<title>24</title>
<polygon fill="none" stroke="black" points="234.5,-184 115.5,-184 115.5,-146 234.5,-146 234.5,-184"/>
<text text-anchor="middle" x="175" y="-168.8" font-family="Times,serif" font-size="14.00">latitude &lt;= 43.511</text>
<text text-anchor="middle" x="175" y="-153.8" font-family="Times,serif" font-size="14.00">class = USA</text>
</g>
<!-- 23&#45;&gt;24 -->
<g id="edge24" class="edge">
<title>23&#45;&gt;24</title>
<path fill="none" stroke="black" d="M260.23,-219.83C245.79,-210.71 228.1,-199.54 212.6,-189.74"/>
<polygon fill="black" stroke="black" points="214.08,-186.54 203.76,-184.16 210.34,-192.46 214.08,-186.54"/>
</g>
<!-- 29 -->
<g id="node30" class="node">
<title>29</title>
<polygon fill="none" stroke="black" points="351.5,-183 252.5,-183 252.5,-147 351.5,-147 351.5,-183"/>
<text text-anchor="middle" x="302" y="-161.3" font-family="Times,serif" font-size="14.00">class = Canada</text>
</g>
<!-- 23&#45;&gt;29 -->
<g id="edge29" class="edge">
<title>23&#45;&gt;29</title>
<path fill="none" stroke="black" d="M292.28,-219.83C293.73,-211.81 295.46,-202.2 297.06,-193.34"/>
<polygon fill="black" stroke="black" points="300.52,-193.88 298.86,-183.42 293.63,-192.64 300.52,-193.88"/>
</g>
<!-- 25 -->
<g id="node26" class="node">
<title>25</title>
<polygon fill="none" stroke="black" points="158,-109 72,-109 72,-73 158,-73 158,-109"/>
<text text-anchor="middle" x="115" y="-87.3" font-family="Times,serif" font-size="14.00">class = USA</text>
</g>
<!-- 24&#45;&gt;25 -->
<g id="edge25" class="edge">
<title>24&#45;&gt;25</title>
<path fill="none" stroke="black" d="M159.86,-145.83C152.66,-137.2 143.94,-126.73 136.11,-117.33"/>
<polygon fill="black" stroke="black" points="138.61,-114.86 129.51,-109.42 133.23,-119.34 138.61,-114.86"/>
</g>
<!-- 26 -->
<g id="node27" class="node">
<title>26</title>
<polygon fill="none" stroke="black" points="295.5,-110 176.5,-110 176.5,-72 295.5,-72 295.5,-110"/>
<text text-anchor="middle" x="236" y="-94.8" font-family="Times,serif" font-size="14.00">latitude &lt;= 43.988</text>
<text text-anchor="middle" x="236" y="-79.8" font-family="Times,serif" font-size="14.00">class = Canada</text>
</g>
<!-- 24&#45;&gt;26 -->
<g id="edge26" class="edge">
<title>24&#45;&gt;26</title>
<path fill="none" stroke="black" d="M190.39,-145.83C197.49,-137.45 206.05,-127.35 213.82,-118.17"/>
<polygon fill="black" stroke="black" points="216.61,-120.31 220.4,-110.41 211.27,-115.78 216.61,-120.31"/>
</g>
<!-- 27 -->
<g id="node28" class="node">
<title>27</title>
<polygon fill="none" stroke="black" points="229.5,-36 130.5,-36 130.5,0 229.5,0 229.5,-36"/>
<text text-anchor="middle" x="180" y="-14.3" font-family="Times,serif" font-size="14.00">class = Canada</text>
</g>
<!-- 26&#45;&gt;27 -->
<g id="edge27" class="edge">
<title>26&#45;&gt;27</title>
<path fill="none" stroke="black" d="M221.58,-71.72C214.93,-63.29 206.93,-53.15 199.73,-44.02"/>
<polygon fill="black" stroke="black" points="202.35,-41.69 193.41,-36 196.86,-46.02 202.35,-41.69"/>
</g>
<!-- 28 -->
<g id="node29" class="node">
<title>28</title>
<polygon fill="none" stroke="black" points="334,-36 248,-36 248,0 334,0 334,-36"/>
<text text-anchor="middle" x="291" y="-14.3" font-family="Times,serif" font-size="14.00">class = USA</text>
</g>
<!-- 26&#45;&gt;28 -->
<g id="edge28" class="edge">
<title>26&#45;&gt;28</title>
<path fill="none" stroke="black" d="M250.16,-71.72C256.69,-63.29 264.55,-53.15 271.62,-44.02"/>
<polygon fill="black" stroke="black" points="274.47,-46.05 277.83,-36 268.94,-41.77 274.47,-46.05"/>
</g>
<!-- 31 -->
<g id="node32" class="node">
<title>31</title>
<polygon fill="none" stroke="black" points="453,-257 367,-257 367,-221 453,-221 453,-257"/>
<text text-anchor="middle" x="410" y="-235.3" font-family="Times,serif" font-size="14.00">class = USA</text>
</g>
<!-- 30&#45;&gt;31 -->
<g id="edge31" class="edge">
<title>30&#45;&gt;31</title>
<path fill="none" stroke="black" d="M427.94,-293.83C425.24,-285.72 422,-275.99 419.02,-267.05"/>
<polygon fill="black" stroke="black" points="422.29,-265.8 415.81,-257.42 415.65,-268.01 422.29,-265.8"/>
</g>
<!-- 32 -->
<g id="node33" class="node">
<title>32</title>
<polygon fill="none" stroke="black" points="605,-258 471,-258 471,-220 605,-220 605,-258"/>
<text text-anchor="middle" x="538" y="-242.8" font-family="Times,serif" font-size="14.00">longitude &lt;= &#45;84.392</text>
<text text-anchor="middle" x="538" y="-227.8" font-family="Times,serif" font-size="14.00">class = Canada</text>
</g>
<!-- 30&#45;&gt;32 -->
<g id="edge32" class="edge">
<title>30&#45;&gt;32</title>
<path fill="none" stroke="black" d="M460.24,-293.83C473.3,-284.79 489.25,-273.75 503.3,-264.02"/>
<polygon fill="black" stroke="black" points="505.54,-266.73 511.76,-258.16 501.55,-260.98 505.54,-266.73"/>
</g>
<!-- 33 -->
<g id="node34" class="node">
<title>33</title>
<polygon fill="none" stroke="black" points="472,-183 386,-183 386,-147 472,-147 472,-183"/>
<text text-anchor="middle" x="429" y="-161.3" font-family="Times,serif" font-size="14.00">class = USA</text>
</g>
<!-- 32&#45;&gt;33 -->
<g id="edge33" class="edge">
<title>32&#45;&gt;33</title>
<path fill="none" stroke="black" d="M510.49,-219.83C496.26,-210.43 478.74,-198.86 463.59,-188.85"/>
<polygon fill="black" stroke="black" points="465.27,-185.76 455,-183.17 461.41,-191.6 465.27,-185.76"/>
</g>
<!-- 34 -->
<g id="node35" class="node">
<title>34</title>
<polygon fill="none" stroke="black" points="589.5,-183 490.5,-183 490.5,-147 589.5,-147 589.5,-183"/>
<text text-anchor="middle" x="540" y="-161.3" font-family="Times,serif" font-size="14.00">class = Canada</text>
</g>
<!-- 32&#45;&gt;34 -->
<g id="edge34" class="edge">
<title>32&#45;&gt;34</title>
<path fill="none" stroke="black" d="M538.5,-219.83C538.73,-211.89 538.99,-202.41 539.23,-193.63"/>
<polygon fill="black" stroke="black" points="542.74,-193.51 539.52,-183.42 535.74,-193.32 542.74,-193.51"/>
</g>
<!-- 37 -->
<g id="node38" class="node">
<title>37</title>
<polygon fill="none" stroke="black" points="716.5,-480 597.5,-480 597.5,-442 716.5,-442 716.5,-480"/>
<text text-anchor="middle" x="657" y="-464.8" font-family="Times,serif" font-size="14.00">latitude &lt;= 45.195</text>
<text text-anchor="middle" x="657" y="-449.8" font-family="Times,serif" font-size="14.00">class = USA</text>
</g>
<!-- 36&#45;&gt;37 -->
<g id="edge37" class="edge">
<title>36&#45;&gt;37</title>
<path fill="none" stroke="black" d="M657,-515.83C657,-508.13 657,-498.97 657,-490.42"/>
<polygon fill="black" stroke="black" points="660.5,-490.41 657,-480.41 653.5,-490.41 660.5,-490.41"/>
</g>
<!-- 52 -->
<g id="node53" class="node">
<title>52</title>
<polygon fill="none" stroke="black" points="833.5,-479 734.5,-479 734.5,-443 833.5,-443 833.5,-479"/>
<text text-anchor="middle" x="784" y="-457.3" font-family="Times,serif" font-size="14.00">class = Canada</text>
</g>
<!-- 36&#45;&gt;52 -->
<g id="edge52" class="edge">
<title>36&#45;&gt;52</title>
<path fill="none" stroke="black" d="M689.05,-515.83C705.94,-506.25 726.81,-494.42 744.68,-484.29"/>
<polygon fill="black" stroke="black" points="746.74,-487.15 753.71,-479.17 743.29,-481.06 746.74,-487.15"/>
</g>
<!-- 38 -->
<g id="node39" class="node">
<title>38</title>
<polygon fill="none" stroke="black" points="700,-405 614,-405 614,-369 700,-369 700,-405"/>
<text text-anchor="middle" x="657" y="-383.3" font-family="Times,serif" font-size="14.00">class = USA</text>
</g>
<!-- 37&#45;&gt;38 -->
<g id="edge38" class="edge">
<title>37&#45;&gt;38</title>
<path fill="none" stroke="black" d="M657,-441.83C657,-433.89 657,-424.41 657,-415.63"/>
<polygon fill="black" stroke="black" points="660.5,-415.42 657,-405.42 653.5,-415.42 660.5,-415.42"/>
</g>
<!-- 39 -->
<g id="node40" class="node">
<title>39</title>
<polygon fill="none" stroke="black" points="848.5,-406 721.5,-406 721.5,-368 848.5,-368 848.5,-406"/>
<text text-anchor="middle" x="785" y="-390.8" font-family="Times,serif" font-size="14.00">longitude &lt;= &#45;67.93</text>
<text text-anchor="middle" x="785" y="-375.8" font-family="Times,serif" font-size="14.00">class = Canada</text>
</g>
<!-- 37&#45;&gt;39 -->
<g id="edge39" class="edge">
<title>37&#45;&gt;39</title>
<path fill="none" stroke="black" d="M689.3,-441.83C705.82,-432.54 726.12,-421.12 743.76,-411.2"/>
<polygon fill="black" stroke="black" points="745.71,-414.12 752.71,-406.16 742.28,-408.01 745.71,-414.12"/>
</g>
<!-- 40 -->
<g id="node41" class="node">
<title>40</title>
<polygon fill="none" stroke="black" points="852,-332 718,-332 718,-294 852,-294 852,-332"/>
<text text-anchor="middle" x="785" y="-316.8" font-family="Times,serif" font-size="14.00">longitude &lt;= &#45;68.325</text>
<text text-anchor="middle" x="785" y="-301.8" font-family="Times,serif" font-size="14.00">class = USA</text>
</g>
<!-- 39&#45;&gt;40 -->
<g id="edge40" class="edge">
<title>39&#45;&gt;40</title>
<path fill="none" stroke="black" d="M785,-367.83C785,-360.13 785,-350.97 785,-342.42"/>
<polygon fill="black" stroke="black" points="788.5,-342.41 785,-332.41 781.5,-342.41 788.5,-342.41"/>
</g>
<!-- 47 -->
<g id="node48" class="node">
<title>47</title>
<polygon fill="none" stroke="black" points="991.5,-332 872.5,-332 872.5,-294 991.5,-294 991.5,-332"/>
<text text-anchor="middle" x="932" y="-316.8" font-family="Times,serif" font-size="14.00">latitude &lt;= 45.565</text>
<text text-anchor="middle" x="932" y="-301.8" font-family="Times,serif" font-size="14.00">class = Canada</text>
</g>
<!-- 39&#45;&gt;47 -->
<g id="edge47" class="edge">
<title>39&#45;&gt;47</title>
<path fill="none" stroke="black" d="M822.09,-367.83C841.49,-358.33 865.42,-346.61 885.99,-336.54"/>
<polygon fill="black" stroke="black" points="887.73,-339.58 895.17,-332.04 884.65,-333.29 887.73,-339.58"/>
</g>
<!-- 41 -->
<g id="node42" class="node">
<title>41</title>
<polygon fill="none" stroke="black" points="742.5,-258 623.5,-258 623.5,-220 742.5,-220 742.5,-258"/>
<text text-anchor="middle" x="683" y="-242.8" font-family="Times,serif" font-size="14.00">latitude &lt;= 47.256</text>
<text text-anchor="middle" x="683" y="-227.8" font-family="Times,serif" font-size="14.00">class = Canada</text>
</g>
<!-- 40&#45;&gt;41 -->
<g id="edge41" class="edge">
<title>40&#45;&gt;41</title>
<path fill="none" stroke="black" d="M759.26,-293.83C746.46,-284.79 730.81,-273.75 717.03,-264.02"/>
<polygon fill="black" stroke="black" points="718.92,-261.07 708.73,-258.16 714.88,-266.79 718.92,-261.07"/>
</g>
<!-- 46 -->
<g id="node47" class="node">
<title>46</title>
<polygon fill="none" stroke="black" points="847,-257 761,-257 761,-221 847,-221 847,-257"/>
<text text-anchor="middle" x="804" y="-235.3" font-family="Times,serif" font-size="14.00">class = USA</text>
</g>
<!-- 40&#45;&gt;46 -->
<g id="edge46" class="edge">
<title>40&#45;&gt;46</title>
<path fill="none" stroke="black" d="M789.79,-293.83C791.91,-285.81 794.45,-276.2 796.79,-267.34"/>
<polygon fill="black" stroke="black" points="800.24,-267.98 799.4,-257.42 793.47,-266.19 800.24,-267.98"/>
</g>
<!-- 42 -->
<g id="node43" class="node">
<title>42</title>
<polygon fill="none" stroke="black" points="713.5,-183 614.5,-183 614.5,-147 713.5,-147 713.5,-183"/>
<text text-anchor="middle" x="664" y="-161.3" font-family="Times,serif" font-size="14.00">class = Canada</text>
</g>
<!-- 41&#45;&gt;42 -->
<g id="edge42" class="edge">
<title>41&#45;&gt;42</title>
<path fill="none" stroke="black" d="M678.21,-219.83C676.09,-211.81 673.55,-202.2 671.21,-193.34"/>
<polygon fill="black" stroke="black" points="674.53,-192.19 668.6,-183.42 667.76,-193.98 674.53,-192.19"/>
</g>
<!-- 43 -->
<g id="node44" class="node">
<title>43</title>
<polygon fill="none" stroke="black" points="866,-184 732,-184 732,-146 866,-146 866,-184"/>
<text text-anchor="middle" x="799" y="-168.8" font-family="Times,serif" font-size="14.00">longitude &lt;= &#45;68.459</text>
<text text-anchor="middle" x="799" y="-153.8" font-family="Times,serif" font-size="14.00">class = USA</text>
</g>
<!-- 41&#45;&gt;43 -->
<g id="edge43" class="edge">
<title>41&#45;&gt;43</title>
<path fill="none" stroke="black" d="M712.27,-219.83C727.11,-210.62 745.3,-199.33 761.19,-189.47"/>
<polygon fill="black" stroke="black" points="763.09,-192.41 769.74,-184.16 759.4,-186.46 763.09,-192.41"/>
</g>
<!-- 44 -->
<g id="node45" class="node">
<title>44</title>
<polygon fill="none" stroke="black" points="786,-109 700,-109 700,-73 786,-73 786,-109"/>
<text text-anchor="middle" x="743" y="-87.3" font-family="Times,serif" font-size="14.00">class = USA</text>
</g>
<!-- 43&#45;&gt;44 -->
<g id="edge44" class="edge">
<title>43&#45;&gt;44</title>
<path fill="none" stroke="black" d="M784.87,-145.83C778.15,-137.2 770.01,-126.73 762.7,-117.33"/>
<polygon fill="black" stroke="black" points="765.45,-115.16 756.55,-109.42 759.92,-119.46 765.45,-115.16"/>
</g>
<!-- 45 -->
<g id="node46" class="node">
<title>45</title>
<polygon fill="none" stroke="black" points="903.5,-109 804.5,-109 804.5,-73 903.5,-73 903.5,-109"/>
<text text-anchor="middle" x="854" y="-87.3" font-family="Times,serif" font-size="14.00">class = Canada</text>
</g>
<!-- 43&#45;&gt;45 -->
<g id="edge45" class="edge">
<title>43&#45;&gt;45</title>
<path fill="none" stroke="black" d="M812.88,-145.83C819.41,-137.28 827.31,-126.94 834.43,-117.62"/>
<polygon fill="black" stroke="black" points="837.41,-119.49 840.69,-109.42 831.84,-115.24 837.41,-119.49"/>
</g>
<!-- 48 -->
<g id="node49" class="node">
<title>48</title>
<polygon fill="none" stroke="black" points="999,-258 865,-258 865,-220 999,-220 999,-258"/>
<text text-anchor="middle" x="932" y="-242.8" font-family="Times,serif" font-size="14.00">longitude &lt;= &#45;67.355</text>
<text text-anchor="middle" x="932" y="-227.8" font-family="Times,serif" font-size="14.00">class = Canada</text>
</g>
<!-- 47&#45;&gt;48 -->
<g id="edge48" class="edge">
<title>47&#45;&gt;48</title>
<path fill="none" stroke="black" d="M932,-293.83C932,-286.13 932,-276.97 932,-268.42"/>
<polygon fill="black" stroke="black" points="935.5,-268.41 932,-258.41 928.5,-268.41 935.5,-268.41"/>
</g>
<!-- 51 -->
<g id="node52" class="node">
<title>51</title>
<polygon fill="none" stroke="black" points="1116.5,-257 1017.5,-257 1017.5,-221 1116.5,-221 1116.5,-257"/>
<text text-anchor="middle" x="1067" y="-235.3" font-family="Times,serif" font-size="14.00">class = Canada</text>
</g>
<!-- 47&#45;&gt;51 -->
<g id="edge51" class="edge">
<title>47&#45;&gt;51</title>
<path fill="none" stroke="black" d="M966.07,-293.83C984.19,-284.17 1006.62,-272.2 1025.72,-262.01"/>
<polygon fill="black" stroke="black" points="1027.63,-264.97 1034.8,-257.17 1024.33,-258.79 1027.63,-264.97"/>
</g>
<!-- 49 -->
<g id="node50" class="node">
<title>49</title>
<polygon fill="none" stroke="black" points="973,-183 887,-183 887,-147 973,-147 973,-183"/>
<text text-anchor="middle" x="930" y="-161.3" font-family="Times,serif" font-size="14.00">class = USA</text>
</g>
<!-- 48&#45;&gt;49 -->
<g id="edge49" class="edge">
<title>48&#45;&gt;49</title>
<path fill="none" stroke="black" d="M931.5,-219.83C931.27,-211.89 931.01,-202.41 930.77,-193.63"/>
<polygon fill="black" stroke="black" points="934.26,-193.32 930.48,-183.42 927.26,-193.51 934.26,-193.32"/>
</g>
<!-- 50 -->
<g id="node51" class="node">
<title>50</title>
<polygon fill="none" stroke="black" points="1090.5,-183 991.5,-183 991.5,-147 1090.5,-147 1090.5,-183"/>
<text text-anchor="middle" x="1041" y="-161.3" font-family="Times,serif" font-size="14.00">class = Canada</text>
</g>
<!-- 48&#45;&gt;50 -->
<g id="edge50" class="edge">
<title>48&#45;&gt;50</title>
<path fill="none" stroke="black" d="M959.51,-219.83C973.74,-210.43 991.26,-198.86 1006.41,-188.85"/>
<polygon fill="black" stroke="black" points="1008.59,-191.6 1015,-183.17 1004.73,-185.76 1008.59,-191.6"/>
</g>
</g>
</svg>
