<?xml version="1.0" encoding="UTF-8" standalone="no"?>
<!DOCTYPE svg PUBLIC "-//W3C//DTD SVG 1.1//EN"
 "http://www.w3.org/Graphics/SVG/1.1/DTD/svg11.dtd">
<!-- Generated by graphviz version 2.44.1 (20200629.0846)
 -->
<!-- Title: Tree Pages: 1 -->
<svg width="184pt" height="118pt"
 viewBox="0.00 0.00 184.00 118.00" xmlns="http://www.w3.org/2000/svg" xmlns:xlink="http://www.w3.org/1999/xlink">
<g id="graph0" class="graph" transform="scale(1 1) rotate(0) translate(4 114)">
<title>Tree</title>
<polygon fill="white" stroke="transparent" points="-4,4 -4,-114 180,-114 180,4 -4,4"/>
<!-- 0 -->
<g id="node1" class="node">
<title>0</title>
<polygon fill="none" stroke="black" points="142.5,-110 35.5,-110 35.5,-72 142.5,-72 142.5,-110"/>
<text text-anchor="middle" x="89" y="-94.8" font-family="Times,serif" font-size="14.00">lon &lt;= &#45;102.165</text>
<text text-anchor="middle" x="89" y="-79.8" font-family="Times,serif" font-size="14.00">class = red</text>
</g>
<!-- 1 -->
<g id="node2" class="node">
<title>1</title>
<polygon fill="none" stroke="black" points="82,-36 0,-36 0,0 82,0 82,-36"/>
<text text-anchor="middle" x="41" y="-14.3" font-family="Times,serif" font-size="14.00">class = blue</text>
</g>
<!-- 0&#45;&gt;1 -->
<g id="edge1" class="edge">
<title>0&#45;&gt;1</title>
<path fill="none" stroke="black" d="M76.64,-71.72C71,-63.37 64.22,-53.35 58.1,-44.3"/>
<polygon fill="black" stroke="black" points="61,-42.33 52.5,-36 55.2,-46.25 61,-42.33"/>
<text text-anchor="middle" x="47.75" y="-56.85" font-family="Times,serif" font-size="14.00">True</text>
</g>
<!-- 2 -->
<g id="node3" class="node">
<title>2</title>
<polygon fill="none" stroke="black" points="176,-36 100,-36 100,0 176,0 176,-36"/>
<text text-anchor="middle" x="138" y="-14.3" font-family="Times,serif" font-size="14.00">class = red</text>
</g>
<!-- 0&#45;&gt;2 -->
<g id="edge2" class="edge">
<title>0&#45;&gt;2</title>
<path fill="none" stroke="black" d="M101.62,-71.72C107.38,-63.37 114.29,-53.35 120.54,-44.3"/>
<polygon fill="black" stroke="black" points="123.47,-46.22 126.27,-36 117.7,-42.25 123.47,-46.22"/>
<text text-anchor="middle" x="130.77" y="-56.89" font-family="Times,serif" font-size="14.00">False</text>
</g>
</g>
</svg>
