<?xml version="1.0" encoding="UTF-8" standalone="no"?>
<!DOCTYPE svg PUBLIC "-//W3C//DTD SVG 1.1//EN"
 "http://www.w3.org/Graphics/SVG/1.1/DTD/svg11.dtd">
<!-- Generated by graphviz version 2.40.1 (20161225.0304)
 -->
<!-- Title: Tree Pages: 1 -->
<svg width="324pt" height="373pt"
 viewBox="0.00 0.00 324.00 373.00" xmlns="http://www.w3.org/2000/svg" xmlns:xlink="http://www.w3.org/1999/xlink">
<g id="graph0" class="graph" transform="scale(1 1) rotate(0) translate(4 369)">
<title>Tree</title>
<polygon fill="#ffffff" stroke="transparent" points="-4,4 -4,-369 320,-369 320,4 -4,4"/>
<!-- 0 -->
<g id="node1" class="node">
<title>0</title>
<polygon fill="none" stroke="#000000" points="156.5,-365 49.5,-365 49.5,-297 156.5,-297 156.5,-365"/>
<text text-anchor="middle" x="103" y="-349.8" font-family="Times,serif" font-size="14.00" fill="#000000">lon &lt;= &#45;117.485</text>
<text text-anchor="middle" x="103" y="-334.8" font-family="Times,serif" font-size="14.00" fill="#000000">samples = 6</text>
<text text-anchor="middle" x="103" y="-319.8" font-family="Times,serif" font-size="14.00" fill="#000000">value = [3, 3]</text>
<text text-anchor="middle" x="103" y="-304.8" font-family="Times,serif" font-size="14.00" fill="#000000">class = blue</text>
</g>
<!-- 1 -->
<g id="node2" class="node">
<title>1</title>
<polygon fill="none" stroke="#000000" points="92,-253.5 0,-253.5 0,-200.5 92,-200.5 92,-253.5"/>
<text text-anchor="middle" x="46" y="-238.3" font-family="Times,serif" font-size="14.00" fill="#000000">samples = 1</text>
<text text-anchor="middle" x="46" y="-223.3" font-family="Times,serif" font-size="14.00" fill="#000000">value = [1, 0]</text>
<text text-anchor="middle" x="46" y="-208.3" font-family="Times,serif" font-size="14.00" fill="#000000">class = blue</text>
</g>
<!-- 0&#45;&gt;1 -->
<g id="edge1" class="edge">
<title>0&#45;&gt;1</title>
<path fill="none" stroke="#000000" d="M84.3361,-296.9465C78.2991,-285.9316 71.5909,-273.6922 65.4953,-262.5703"/>
<polygon fill="#000000" stroke="#000000" points="68.4227,-260.6292 60.5471,-253.5422 62.2842,-263.9936 68.4227,-260.6292"/>
<text text-anchor="middle" x="53.5414" y="-273.8405" font-family="Times,serif" font-size="14.00" fill="#000000">True</text>
</g>
<!-- 2 -->
<g id="node3" class="node">
<title>2</title>
<polygon fill="none" stroke="#000000" points="210,-261 110,-261 110,-193 210,-193 210,-261"/>
<text text-anchor="middle" x="160" y="-245.8" font-family="Times,serif" font-size="14.00" fill="#000000">lon &lt;= &#45;97.826</text>
<text text-anchor="middle" x="160" y="-230.8" font-family="Times,serif" font-size="14.00" fill="#000000">samples = 5</text>
<text text-anchor="middle" x="160" y="-215.8" font-family="Times,serif" font-size="14.00" fill="#000000">value = [2, 3]</text>
<text text-anchor="middle" x="160" y="-200.8" font-family="Times,serif" font-size="14.00" fill="#000000">class = red</text>
</g>
<!-- 0&#45;&gt;2 -->
<g id="edge2" class="edge">
<title>0&#45;&gt;2</title>
<path fill="none" stroke="#000000" d="M121.6639,-296.9465C126.388,-288.3271 131.5231,-278.9579 136.454,-269.9611"/>
<polygon fill="#000000" stroke="#000000" points="139.5571,-271.5815 141.2941,-261.13 133.4186,-268.2171 139.5571,-271.5815"/>
<text text-anchor="middle" x="148.2999" y="-281.4283" font-family="Times,serif" font-size="14.00" fill="#000000">False</text>
</g>
<!-- 3 -->
<g id="node4" class="node">
<title>3</title>
<polygon fill="none" stroke="#000000" points="151,-149.5 59,-149.5 59,-96.5 151,-96.5 151,-149.5"/>
<text text-anchor="middle" x="105" y="-134.3" font-family="Times,serif" font-size="14.00" fill="#000000">samples = 2</text>
<text text-anchor="middle" x="105" y="-119.3" font-family="Times,serif" font-size="14.00" fill="#000000">value = [0, 2]</text>
<text text-anchor="middle" x="105" y="-104.3" font-family="Times,serif" font-size="14.00" fill="#000000">class = red</text>
</g>
<!-- 2&#45;&gt;3 -->
<g id="edge3" class="edge">
<title>2&#45;&gt;3</title>
<path fill="none" stroke="#000000" d="M141.9909,-192.9465C136.1658,-181.9316 129.693,-169.6922 123.8112,-158.5703"/>
<polygon fill="#000000" stroke="#000000" points="126.8057,-156.7459 119.0367,-149.5422 120.6178,-160.0184 126.8057,-156.7459"/>
</g>
<!-- 4 -->
<g id="node5" class="node">
<title>4</title>
<polygon fill="none" stroke="#000000" points="261,-157 169,-157 169,-89 261,-89 261,-157"/>
<text text-anchor="middle" x="215" y="-141.8" font-family="Times,serif" font-size="14.00" fill="#000000">lat &lt;= 39.121</text>
<text text-anchor="middle" x="215" y="-126.8" font-family="Times,serif" font-size="14.00" fill="#000000">samples = 3</text>
<text text-anchor="middle" x="215" y="-111.8" font-family="Times,serif" font-size="14.00" fill="#000000">value = [2, 1]</text>
<text text-anchor="middle" x="215" y="-96.8" font-family="Times,serif" font-size="14.00" fill="#000000">class = blue</text>
</g>
<!-- 2&#45;&gt;4 -->
<g id="edge4" class="edge">
<title>2&#45;&gt;4</title>
<path fill="none" stroke="#000000" d="M178.0091,-192.9465C182.5199,-184.4169 187.4191,-175.153 192.1314,-166.2424"/>
<polygon fill="#000000" stroke="#000000" points="195.3694,-167.6062 196.9505,-157.13 189.1815,-164.3337 195.3694,-167.6062"/>
</g>
<!-- 5 -->
<g id="node6" class="node">
<title>5</title>
<polygon fill="none" stroke="#000000" points="206,-53 114,-53 114,0 206,0 206,-53"/>
<text text-anchor="middle" x="160" y="-37.8" font-family="Times,serif" font-size="14.00" fill="#000000">samples = 1</text>
<text text-anchor="middle" x="160" y="-22.8" font-family="Times,serif" font-size="14.00" fill="#000000">value = [0, 1]</text>
<text text-anchor="middle" x="160" y="-7.8" font-family="Times,serif" font-size="14.00" fill="#000000">class = red</text>
</g>
<!-- 4&#45;&gt;5 -->
<g id="edge5" class="edge">
<title>4&#45;&gt;5</title>
<path fill="none" stroke="#000000" d="M195.6091,-88.9777C190.651,-80.2786 185.3067,-70.9018 180.3042,-62.1247"/>
<polygon fill="#000000" stroke="#000000" points="183.2378,-60.2033 175.2452,-53.2485 177.1562,-63.6696 183.2378,-60.2033"/>
</g>
<!-- 6 -->
<g id="node7" class="node">
<title>6</title>
<polygon fill="none" stroke="#000000" points="316,-53 224,-53 224,0 316,0 316,-53"/>
<text text-anchor="middle" x="270" y="-37.8" font-family="Times,serif" font-size="14.00" fill="#000000">samples = 2</text>
<text text-anchor="middle" x="270" y="-22.8" font-family="Times,serif" font-size="14.00" fill="#000000">value = [2, 0]</text>
<text text-anchor="middle" x="270" y="-7.8" font-family="Times,serif" font-size="14.00" fill="#000000">class = blue</text>
</g>
<!-- 4&#45;&gt;6 -->
<g id="edge6" class="edge">
<title>4&#45;&gt;6</title>
<path fill="none" stroke="#000000" d="M234.3909,-88.9777C239.349,-80.2786 244.6933,-70.9018 249.6958,-62.1247"/>
<polygon fill="#000000" stroke="#000000" points="252.8438,-63.6696 254.7548,-53.2485 246.7622,-60.2033 252.8438,-63.6696"/>
</g>
</g>
</svg>
