<?xml version="1.0" encoding="UTF-8" standalone="no"?>
<!DOCTYPE svg PUBLIC "-//W3C//DTD SVG 1.1//EN"
 "http://www.w3.org/Graphics/SVG/1.1/DTD/svg11.dtd">
<!-- Generated by graphviz version 2.44.1 (20200629.0846)
 -->
<!-- Title: Tree Pages: 1 -->
<svg width="1154pt" height="340pt"
 viewBox="0.00 0.00 1154.00 340.00" xmlns="http://www.w3.org/2000/svg" xmlns:xlink="http://www.w3.org/1999/xlink">
<g id="graph0" class="graph" transform="scale(1 1) rotate(0) translate(4 336)">
<title>Tree</title>
<polygon fill="white" stroke="transparent" points="-4,4 -4,-336 1150,-336 1150,4 -4,4"/>
<!-- 0 -->
<g id="node1" class="node">
<title>0</title>
<polygon fill="none" stroke="black" points="421,-332 329,-332 329,-294 421,-294 421,-332"/>
<text text-anchor="middle" x="375" y="-316.8" font-family="Times,serif" font-size="14.00">lat &lt;= 37.682</text>
<text text-anchor="middle" x="375" y="-301.8" font-family="Times,serif" font-size="14.00">class = blue</text>
</g>
<!-- 1 -->
<g id="node2" class="node">
<title>1</title>
<polygon fill="none" stroke="black" points="341.5,-258 234.5,-258 234.5,-220 341.5,-220 341.5,-258"/>
<text text-anchor="middle" x="288" y="-242.8" font-family="Times,serif" font-size="14.00">lon &lt;= &#45;114.063</text>
<text text-anchor="middle" x="288" y="-227.8" font-family="Times,serif" font-size="14.00">class = red</text>
</g>
<!-- 0&#45;&gt;1 -->
<g id="edge1" class="edge">
<title>0&#45;&gt;1</title>
<path fill="none" stroke="black" d="M353.05,-293.83C342.33,-284.96 329.28,-274.16 317.69,-264.57"/>
<polygon fill="black" stroke="black" points="319.88,-261.84 309.95,-258.16 315.42,-267.23 319.88,-261.84"/>
<text text-anchor="middle" x="312.29" y="-279.35" font-family="Times,serif" font-size="14.00">True</text>
</g>
<!-- 10 -->
<g id="node11" class="node">
<title>10</title>
<polygon fill="none" stroke="black" points="617,-258 517,-258 517,-220 617,-220 617,-258"/>
<text text-anchor="middle" x="567" y="-242.8" font-family="Times,serif" font-size="14.00">lon &lt;= &#45;96.061</text>
<text text-anchor="middle" x="567" y="-227.8" font-family="Times,serif" font-size="14.00">class = blue</text>
</g>
<!-- 0&#45;&gt;10 -->
<g id="edge10" class="edge">
<title>0&#45;&gt;10</title>
<path fill="none" stroke="black" d="M421.48,-294.57C447.89,-284.67 481.18,-272.18 509.25,-261.66"/>
<polygon fill="black" stroke="black" points="510.81,-264.81 518.95,-258.02 508.35,-258.25 510.81,-264.81"/>
<text text-anchor="middle" x="508.6" y="-277.08" font-family="Times,serif" font-size="14.00">False</text>
</g>
<!-- 2 -->
<g id="node3" class="node">
<title>2</title>
<polygon fill="none" stroke="black" points="224,-183 142,-183 142,-147 224,-147 224,-183"/>
<text text-anchor="middle" x="183" y="-161.3" font-family="Times,serif" font-size="14.00">class = blue</text>
</g>
<!-- 1&#45;&gt;2 -->
<g id="edge2" class="edge">
<title>1&#45;&gt;2</title>
<path fill="none" stroke="black" d="M261.5,-219.83C247.79,-210.43 230.91,-198.86 216.33,-188.85"/>
<polygon fill="black" stroke="black" points="218.27,-185.94 208.04,-183.17 214.31,-191.71 218.27,-185.94"/>
</g>
<!-- 3 -->
<g id="node4" class="node">
<title>3</title>
<polygon fill="none" stroke="black" points="334,-184 242,-184 242,-146 334,-146 334,-184"/>
<text text-anchor="middle" x="288" y="-168.8" font-family="Times,serif" font-size="14.00">lat &lt;= 29.595</text>
<text text-anchor="middle" x="288" y="-153.8" font-family="Times,serif" font-size="14.00">class = red</text>
</g>
<!-- 1&#45;&gt;3 -->
<g id="edge3" class="edge">
<title>1&#45;&gt;3</title>
<path fill="none" stroke="black" d="M288,-219.83C288,-212.13 288,-202.97 288,-194.42"/>
<polygon fill="black" stroke="black" points="291.5,-194.41 288,-184.41 284.5,-194.41 291.5,-194.41"/>
</g>
<!-- 4 -->
<g id="node5" class="node">
<title>4</title>
<polygon fill="none" stroke="black" points="185,-110 85,-110 85,-72 185,-72 185,-110"/>
<text text-anchor="middle" x="135" y="-94.8" font-family="Times,serif" font-size="14.00">lon &lt;= &#45;90.074</text>
<text text-anchor="middle" x="135" y="-79.8" font-family="Times,serif" font-size="14.00">class = blue</text>
</g>
<!-- 3&#45;&gt;4 -->
<g id="edge4" class="edge">
<title>3&#45;&gt;4</title>
<path fill="none" stroke="black" d="M249.39,-145.83C229.11,-136.29 204.08,-124.51 182.6,-114.4"/>
<polygon fill="black" stroke="black" points="183.87,-111.13 173.33,-110.04 180.89,-117.46 183.87,-111.13"/>
</g>
<!-- 7 -->
<g id="node8" class="node">
<title>7</title>
<polygon fill="none" stroke="black" points="334,-110 242,-110 242,-72 334,-72 334,-110"/>
<text text-anchor="middle" x="288" y="-94.8" font-family="Times,serif" font-size="14.00">lat &lt;= 36.522</text>
<text text-anchor="middle" x="288" y="-79.8" font-family="Times,serif" font-size="14.00">class = red</text>
</g>
<!-- 3&#45;&gt;7 -->
<g id="edge7" class="edge">
<title>3&#45;&gt;7</title>
<path fill="none" stroke="black" d="M288,-145.83C288,-138.13 288,-128.97 288,-120.42"/>
<polygon fill="black" stroke="black" points="291.5,-120.41 288,-110.41 284.5,-120.41 291.5,-120.41"/>
</g>
<!-- 5 -->
<g id="node6" class="node">
<title>5</title>
<polygon fill="none" stroke="black" points="76,-36 0,-36 0,0 76,0 76,-36"/>
<text text-anchor="middle" x="38" y="-14.3" font-family="Times,serif" font-size="14.00">class = red</text>
</g>
<!-- 4&#45;&gt;5 -->
<g id="edge5" class="edge">
<title>4&#45;&gt;5</title>
<path fill="none" stroke="black" d="M110.27,-71.9C97.93,-62.87 82.86,-51.84 69.69,-42.19"/>
<polygon fill="black" stroke="black" points="71.48,-39.17 61.35,-36.09 67.35,-44.82 71.48,-39.17"/>
</g>
<!-- 6 -->
<g id="node7" class="node">
<title>6</title>
<polygon fill="none" stroke="black" points="176,-36 94,-36 94,0 176,0 176,-36"/>
<text text-anchor="middle" x="135" y="-14.3" font-family="Times,serif" font-size="14.00">class = blue</text>
</g>
<!-- 4&#45;&gt;6 -->
<g id="edge6" class="edge">
<title>4&#45;&gt;6</title>
<path fill="none" stroke="black" d="M135,-71.72C135,-63.97 135,-54.79 135,-46.27"/>
<polygon fill="black" stroke="black" points="138.5,-46 135,-36 131.5,-46 138.5,-46"/>
</g>
<!-- 8 -->
<g id="node9" class="node">
<title>8</title>
<polygon fill="none" stroke="black" points="270,-36 194,-36 194,0 270,0 270,-36"/>
<text text-anchor="middle" x="232" y="-14.3" font-family="Times,serif" font-size="14.00">class = red</text>
</g>
<!-- 7&#45;&gt;8 -->
<g id="edge8" class="edge">
<title>7&#45;&gt;8</title>
<path fill="none" stroke="black" d="M273.58,-71.72C266.93,-63.29 258.93,-53.15 251.73,-44.02"/>
<polygon fill="black" stroke="black" points="254.35,-41.69 245.41,-36 248.86,-46.02 254.35,-41.69"/>
</g>
<!-- 9 -->
<g id="node10" class="node">
<title>9</title>
<polygon fill="none" stroke="black" points="364,-36 288,-36 288,0 364,0 364,-36"/>
<text text-anchor="middle" x="326" y="-14.3" font-family="Times,serif" font-size="14.00">class = red</text>
</g>
<!-- 7&#45;&gt;9 -->
<g id="edge9" class="edge">
<title>7&#45;&gt;9</title>
<path fill="none" stroke="black" d="M297.79,-71.72C302.16,-63.54 307.39,-53.76 312.16,-44.86"/>
<polygon fill="black" stroke="black" points="315.27,-46.47 316.9,-36 309.09,-43.17 315.27,-46.47"/>
</g>
<!-- 11 -->
<g id="node12" class="node">
<title>11</title>
<polygon fill="none" stroke="black" points="620.5,-184 513.5,-184 513.5,-146 620.5,-146 620.5,-184"/>
<text text-anchor="middle" x="567" y="-168.8" font-family="Times,serif" font-size="14.00">lon &lt;= &#45;104.089</text>
<text text-anchor="middle" x="567" y="-153.8" font-family="Times,serif" font-size="14.00">class = red</text>
</g>
<!-- 10&#45;&gt;11 -->
<g id="edge11" class="edge">
<title>10&#45;&gt;11</title>
<path fill="none" stroke="black" d="M567,-219.83C567,-212.13 567,-202.97 567,-194.42"/>
<polygon fill="black" stroke="black" points="570.5,-194.41 567,-184.41 563.5,-194.41 570.5,-194.41"/>
</g>
<!-- 18 -->
<g id="node19" class="node">
<title>18</title>
<polygon fill="none" stroke="black" points="893,-184 801,-184 801,-146 893,-146 893,-184"/>
<text text-anchor="middle" x="847" y="-168.8" font-family="Times,serif" font-size="14.00">lat &lt;= 39.759</text>
<text text-anchor="middle" x="847" y="-153.8" font-family="Times,serif" font-size="14.00">class = blue</text>
</g>
<!-- 10&#45;&gt;18 -->
<g id="edge18" class="edge">
<title>10&#45;&gt;18</title>
<path fill="none" stroke="black" d="M617.06,-225.13C665.87,-212.58 739.98,-193.52 790.79,-180.45"/>
<polygon fill="black" stroke="black" points="791.82,-183.8 800.63,-177.92 790.07,-177.02 791.82,-183.8"/>
</g>
<!-- 12 -->
<g id="node13" class="node">
<title>12</title>
<polygon fill="none" stroke="black" points="556,-110 464,-110 464,-72 556,-72 556,-110"/>
<text text-anchor="middle" x="510" y="-94.8" font-family="Times,serif" font-size="14.00">lat &lt;= 41.895</text>
<text text-anchor="middle" x="510" y="-79.8" font-family="Times,serif" font-size="14.00">class = blue</text>
</g>
<!-- 11&#45;&gt;12 -->
<g id="edge12" class="edge">
<title>11&#45;&gt;12</title>
<path fill="none" stroke="black" d="M552.62,-145.83C546.05,-137.54 538.15,-127.56 530.94,-118.45"/>
<polygon fill="black" stroke="black" points="533.53,-116.08 524.58,-110.41 528.04,-120.43 533.53,-116.08"/>
</g>
<!-- 15 -->
<g id="node16" class="node">
<title>15</title>
<polygon fill="none" stroke="black" points="674,-110 574,-110 574,-72 674,-72 674,-110"/>
<text text-anchor="middle" x="624" y="-94.8" font-family="Times,serif" font-size="14.00">lon &lt;= &#45;96.557</text>
<text text-anchor="middle" x="624" y="-79.8" font-family="Times,serif" font-size="14.00">class = red</text>
</g>
<!-- 11&#45;&gt;15 -->
<g id="edge15" class="edge">
<title>11&#45;&gt;15</title>
<path fill="none" stroke="black" d="M581.38,-145.83C587.95,-137.54 595.85,-127.56 603.06,-118.45"/>
<polygon fill="black" stroke="black" points="605.96,-120.43 609.42,-110.41 600.47,-116.08 605.96,-120.43"/>
</g>
<!-- 13 -->
<g id="node14" class="node">
<title>13</title>
<polygon fill="none" stroke="black" points="464,-36 382,-36 382,0 464,0 464,-36"/>
<text text-anchor="middle" x="423" y="-14.3" font-family="Times,serif" font-size="14.00">class = blue</text>
</g>
<!-- 12&#45;&gt;13 -->
<g id="edge13" class="edge">
<title>12&#45;&gt;13</title>
<path fill="none" stroke="black" d="M487.6,-71.72C476.63,-62.77 463.31,-51.9 451.62,-42.36"/>
<polygon fill="black" stroke="black" points="453.8,-39.61 443.84,-36 449.37,-45.04 453.8,-39.61"/>
</g>
<!-- 14 -->
<g id="node15" class="node">
<title>14</title>
<polygon fill="none" stroke="black" points="558,-36 482,-36 482,0 558,0 558,-36"/>
<text text-anchor="middle" x="520" y="-14.3" font-family="Times,serif" font-size="14.00">class = red</text>
</g>
<!-- 12&#45;&gt;14 -->
<g id="edge14" class="edge">
<title>12&#45;&gt;14</title>
<path fill="none" stroke="black" d="M512.58,-71.72C513.68,-63.89 514.99,-54.59 516.2,-45.99"/>
<polygon fill="black" stroke="black" points="519.68,-46.39 517.61,-36 512.74,-45.42 519.68,-46.39"/>
</g>
<!-- 16 -->
<g id="node17" class="node">
<title>16</title>
<polygon fill="none" stroke="black" points="652,-36 576,-36 576,0 652,0 652,-36"/>
<text text-anchor="middle" x="614" y="-14.3" font-family="Times,serif" font-size="14.00">class = red</text>
</g>
<!-- 15&#45;&gt;16 -->
<g id="edge16" class="edge">
<title>15&#45;&gt;16</title>
<path fill="none" stroke="black" d="M621.42,-71.72C620.32,-63.89 619.01,-54.59 617.8,-45.99"/>
<polygon fill="black" stroke="black" points="621.26,-45.42 616.39,-36 614.32,-46.39 621.26,-45.42"/>
</g>
<!-- 17 -->
<g id="node18" class="node">
<title>17</title>
<polygon fill="none" stroke="black" points="752,-36 670,-36 670,0 752,0 752,-36"/>
<text text-anchor="middle" x="711" y="-14.3" font-family="Times,serif" font-size="14.00">class = blue</text>
</g>
<!-- 15&#45;&gt;17 -->
<g id="edge17" class="edge">
<title>15&#45;&gt;17</title>
<path fill="none" stroke="black" d="M646.4,-71.72C657.37,-62.77 670.69,-51.9 682.38,-42.36"/>
<polygon fill="black" stroke="black" points="684.63,-45.04 690.16,-36 680.2,-39.61 684.63,-45.04"/>
</g>
<!-- 19 -->
<g id="node20" class="node">
<title>19</title>
<polygon fill="none" stroke="black" points="897,-110 797,-110 797,-72 897,-72 897,-110"/>
<text text-anchor="middle" x="847" y="-94.8" font-family="Times,serif" font-size="14.00">lon &lt;= &#45;79.773</text>
<text text-anchor="middle" x="847" y="-79.8" font-family="Times,serif" font-size="14.00">class = blue</text>
</g>
<!-- 18&#45;&gt;19 -->
<g id="edge19" class="edge">
<title>18&#45;&gt;19</title>
<path fill="none" stroke="black" d="M847,-145.83C847,-138.13 847,-128.97 847,-120.42"/>
<polygon fill="black" stroke="black" points="850.5,-120.41 847,-110.41 843.5,-120.41 850.5,-120.41"/>
</g>
<!-- 22 -->
<g id="node23" class="node">
<title>22</title>
<polygon fill="none" stroke="black" points="1055,-110 955,-110 955,-72 1055,-72 1055,-110"/>
<text text-anchor="middle" x="1005" y="-94.8" font-family="Times,serif" font-size="14.00">lon &lt;= &#45;84.905</text>
<text text-anchor="middle" x="1005" y="-79.8" font-family="Times,serif" font-size="14.00">class = blue</text>
</g>
<!-- 18&#45;&gt;22 -->
<g id="edge22" class="edge">
<title>18&#45;&gt;22</title>
<path fill="none" stroke="black" d="M886.87,-145.83C907.91,-136.24 933.9,-124.4 956.14,-114.27"/>
<polygon fill="black" stroke="black" points="957.77,-117.37 965.42,-110.04 954.87,-111 957.77,-117.37"/>
</g>
<!-- 20 -->
<g id="node21" class="node">
<title>20</title>
<polygon fill="none" stroke="black" points="846,-36 770,-36 770,0 846,0 846,-36"/>
<text text-anchor="middle" x="808" y="-14.3" font-family="Times,serif" font-size="14.00">class = red</text>
</g>
<!-- 19&#45;&gt;20 -->
<g id="edge20" class="edge">
<title>19&#45;&gt;20</title>
<path fill="none" stroke="black" d="M836.96,-71.72C832.47,-63.54 827.1,-53.76 822.21,-44.86"/>
<polygon fill="black" stroke="black" points="825.22,-43.08 817.34,-36 819.09,-46.45 825.22,-43.08"/>
</g>
<!-- 21 -->
<g id="node22" class="node">
<title>21</title>
<polygon fill="none" stroke="black" points="946,-36 864,-36 864,0 946,0 946,-36"/>
<text text-anchor="middle" x="905" y="-14.3" font-family="Times,serif" font-size="14.00">class = blue</text>
</g>
<!-- 19&#45;&gt;21 -->
<g id="edge21" class="edge">
<title>19&#45;&gt;21</title>
<path fill="none" stroke="black" d="M861.94,-71.72C868.82,-63.29 877.11,-53.15 884.56,-44.02"/>
<polygon fill="black" stroke="black" points="887.49,-45.96 891.11,-36 882.07,-41.53 887.49,-45.96"/>
</g>
<!-- 23 -->
<g id="node24" class="node">
<title>23</title>
<polygon fill="none" stroke="black" points="1046,-36 964,-36 964,0 1046,0 1046,-36"/>
<text text-anchor="middle" x="1005" y="-14.3" font-family="Times,serif" font-size="14.00">class = blue</text>
</g>
<!-- 22&#45;&gt;23 -->
<g id="edge23" class="edge">
<title>22&#45;&gt;23</title>
<path fill="none" stroke="black" d="M1005,-71.72C1005,-63.97 1005,-54.79 1005,-46.27"/>
<polygon fill="black" stroke="black" points="1008.5,-46 1005,-36 1001.5,-46 1008.5,-46"/>
</g>
<!-- 24 -->
<g id="node25" class="node">
<title>24</title>
<polygon fill="none" stroke="black" points="1146,-36 1064,-36 1064,0 1146,0 1146,-36"/>
<text text-anchor="middle" x="1105" y="-14.3" font-family="Times,serif" font-size="14.00">class = blue</text>
</g>
<!-- 22&#45;&gt;24 -->
<g id="edge24" class="edge">
<title>22&#45;&gt;24</title>
<path fill="none" stroke="black" d="M1030.49,-71.9C1043.34,-62.78 1059.04,-51.63 1072.72,-41.92"/>
<polygon fill="black" stroke="black" points="1074.8,-44.73 1080.93,-36.09 1070.75,-39.02 1074.8,-44.73"/>
</g>
</g>
</svg>
