<?xml version="1.0" encoding="UTF-8" standalone="no"?>
<!DOCTYPE svg PUBLIC "-//W3C//DTD SVG 1.1//EN"
 "http://www.w3.org/Graphics/SVG/1.1/DTD/svg11.dtd">
<!-- Generated by graphviz version 2.44.1 (20200629.0846)
 -->
<!-- Title: Tree Pages: 1 -->
<svg width="1937pt" height="636pt"
 viewBox="0.00 0.00 1937.00 636.00" xmlns="http://www.w3.org/2000/svg" xmlns:xlink="http://www.w3.org/1999/xlink">
<g id="graph0" class="graph" transform="scale(1 1) rotate(0) translate(4 632)">
<title>Tree</title>
<polygon fill="white" stroke="transparent" points="-4,4 -4,-632 1933,-632 1933,4 -4,4"/>
<!-- 0 -->
<g id="node1" class="node">
<title>0</title>
<polygon fill="none" stroke="black" points="629,-628 537,-628 537,-590 629,-590 629,-628"/>
<text text-anchor="middle" x="583" y="-612.8" font-family="Times,serif" font-size="14.00">lat &lt;= 37.682</text>
<text text-anchor="middle" x="583" y="-597.8" font-family="Times,serif" font-size="14.00">class = blue</text>
</g>
<!-- 1 -->
<g id="node2" class="node">
<title>1</title>
<polygon fill="none" stroke="black" points="363.5,-554 256.5,-554 256.5,-516 363.5,-516 363.5,-554"/>
<text text-anchor="middle" x="310" y="-538.8" font-family="Times,serif" font-size="14.00">lon &lt;= &#45;114.063</text>
<text text-anchor="middle" x="310" y="-523.8" font-family="Times,serif" font-size="14.00">class = red</text>
</g>
<!-- 0&#45;&gt;1 -->
<g id="edge1" class="edge">
<title>0&#45;&gt;1</title>
<path fill="none" stroke="black" d="M537,-595.87C492.12,-584.03 423.5,-565.93 373.45,-552.73"/>
<polygon fill="black" stroke="black" points="374.26,-549.33 363.7,-550.16 372.47,-556.1 374.26,-549.33"/>
<text text-anchor="middle" x="376.28" y="-568.06" font-family="Times,serif" font-size="14.00">True</text>
</g>
<!-- 24 -->
<g id="node25" class="node">
<title>24</title>
<polygon fill="none" stroke="black" points="964,-554 864,-554 864,-516 964,-516 964,-554"/>
<text text-anchor="middle" x="914" y="-538.8" font-family="Times,serif" font-size="14.00">lon &lt;= &#45;96.061</text>
<text text-anchor="middle" x="914" y="-523.8" font-family="Times,serif" font-size="14.00">class = blue</text>
</g>
<!-- 0&#45;&gt;24 -->
<g id="edge24" class="edge">
<title>0&#45;&gt;24</title>
<path fill="none" stroke="black" d="M629.02,-597.99C687.62,-585.24 788.99,-563.19 853.71,-549.11"/>
<polygon fill="black" stroke="black" points="854.74,-552.47 863.77,-546.93 853.25,-545.63 854.74,-552.47"/>
<text text-anchor="middle" x="850.25" y="-564.26" font-family="Times,serif" font-size="14.00">False</text>
</g>
<!-- 2 -->
<g id="node3" class="node">
<title>2</title>
<polygon fill="none" stroke="black" points="246,-479 164,-479 164,-443 246,-443 246,-479"/>
<text text-anchor="middle" x="205" y="-457.3" font-family="Times,serif" font-size="14.00">class = blue</text>
</g>
<!-- 1&#45;&gt;2 -->
<g id="edge2" class="edge">
<title>1&#45;&gt;2</title>
<path fill="none" stroke="black" d="M283.5,-515.83C269.79,-506.43 252.91,-494.86 238.33,-484.85"/>
<polygon fill="black" stroke="black" points="240.27,-481.94 230.04,-479.17 236.31,-487.71 240.27,-481.94"/>
</g>
<!-- 3 -->
<g id="node4" class="node">
<title>3</title>
<polygon fill="none" stroke="black" points="356,-480 264,-480 264,-442 356,-442 356,-480"/>
<text text-anchor="middle" x="310" y="-464.8" font-family="Times,serif" font-size="14.00">lat &lt;= 29.595</text>
<text text-anchor="middle" x="310" y="-449.8" font-family="Times,serif" font-size="14.00">class = red</text>
</g>
<!-- 1&#45;&gt;3 -->
<g id="edge3" class="edge">
<title>1&#45;&gt;3</title>
<path fill="none" stroke="black" d="M310,-515.83C310,-508.13 310,-498.97 310,-490.42"/>
<polygon fill="black" stroke="black" points="313.5,-490.41 310,-480.41 306.5,-490.41 313.5,-490.41"/>
</g>
<!-- 4 -->
<g id="node5" class="node">
<title>4</title>
<polygon fill="none" stroke="black" points="185,-406 85,-406 85,-368 185,-368 185,-406"/>
<text text-anchor="middle" x="135" y="-390.8" font-family="Times,serif" font-size="14.00">lon &lt;= &#45;90.074</text>
<text text-anchor="middle" x="135" y="-375.8" font-family="Times,serif" font-size="14.00">class = blue</text>
</g>
<!-- 3&#45;&gt;4 -->
<g id="edge4" class="edge">
<title>3&#45;&gt;4</title>
<path fill="none" stroke="black" d="M265.84,-441.83C242.23,-432.12 212.98,-420.08 188.13,-409.86"/>
<polygon fill="black" stroke="black" points="189.42,-406.61 178.84,-406.04 186.76,-413.08 189.42,-406.61"/>
</g>
<!-- 7 -->
<g id="node8" class="node">
<title>7</title>
<polygon fill="none" stroke="black" points="356,-406 264,-406 264,-368 356,-368 356,-406"/>
<text text-anchor="middle" x="310" y="-390.8" font-family="Times,serif" font-size="14.00">lat &lt;= 36.522</text>
<text text-anchor="middle" x="310" y="-375.8" font-family="Times,serif" font-size="14.00">class = red</text>
</g>
<!-- 3&#45;&gt;7 -->
<g id="edge7" class="edge">
<title>3&#45;&gt;7</title>
<path fill="none" stroke="black" d="M310,-441.83C310,-434.13 310,-424.97 310,-416.42"/>
<polygon fill="black" stroke="black" points="313.5,-416.41 310,-406.41 306.5,-416.41 313.5,-416.41"/>
</g>
<!-- 5 -->
<g id="node6" class="node">
<title>5</title>
<polygon fill="none" stroke="black" points="76,-331 0,-331 0,-295 76,-295 76,-331"/>
<text text-anchor="middle" x="38" y="-309.3" font-family="Times,serif" font-size="14.00">class = red</text>
</g>
<!-- 4&#45;&gt;5 -->
<g id="edge5" class="edge">
<title>4&#45;&gt;5</title>
<path fill="none" stroke="black" d="M110.52,-367.83C97.97,-358.52 82.55,-347.07 69.16,-337.13"/>
<polygon fill="black" stroke="black" points="71.25,-334.32 61.13,-331.17 67.08,-339.94 71.25,-334.32"/>
</g>
<!-- 6 -->
<g id="node7" class="node">
<title>6</title>
<polygon fill="none" stroke="black" points="176,-331 94,-331 94,-295 176,-295 176,-331"/>
<text text-anchor="middle" x="135" y="-309.3" font-family="Times,serif" font-size="14.00">class = blue</text>
</g>
<!-- 4&#45;&gt;6 -->
<g id="edge6" class="edge">
<title>4&#45;&gt;6</title>
<path fill="none" stroke="black" d="M135,-367.83C135,-359.89 135,-350.41 135,-341.63"/>
<polygon fill="black" stroke="black" points="138.5,-341.42 135,-331.42 131.5,-341.42 138.5,-341.42"/>
</g>
<!-- 8 -->
<g id="node9" class="node">
<title>8</title>
<polygon fill="none" stroke="black" points="301.5,-332 194.5,-332 194.5,-294 301.5,-294 301.5,-332"/>
<text text-anchor="middle" x="248" y="-316.8" font-family="Times,serif" font-size="14.00">lon &lt;= &#45;102.257</text>
<text text-anchor="middle" x="248" y="-301.8" font-family="Times,serif" font-size="14.00">class = red</text>
</g>
<!-- 7&#45;&gt;8 -->
<g id="edge8" class="edge">
<title>7&#45;&gt;8</title>
<path fill="none" stroke="black" d="M294.35,-367.83C287.14,-359.45 278.44,-349.35 270.54,-340.17"/>
<polygon fill="black" stroke="black" points="273.03,-337.71 263.86,-332.41 267.73,-342.27 273.03,-337.71"/>
</g>
<!-- 15 -->
<g id="node16" class="node">
<title>15</title>
<polygon fill="none" stroke="black" points="420,-332 320,-332 320,-294 420,-294 420,-332"/>
<text text-anchor="middle" x="370" y="-316.8" font-family="Times,serif" font-size="14.00">lon &lt;= &#45;82.415</text>
<text text-anchor="middle" x="370" y="-301.8" font-family="Times,serif" font-size="14.00">class = red</text>
</g>
<!-- 7&#45;&gt;15 -->
<g id="edge15" class="edge">
<title>7&#45;&gt;15</title>
<path fill="none" stroke="black" d="M325.14,-367.83C332.12,-359.45 340.54,-349.35 348.19,-340.17"/>
<polygon fill="black" stroke="black" points="350.94,-342.34 354.66,-332.41 345.56,-337.85 350.94,-342.34"/>
</g>
<!-- 9 -->
<g id="node10" class="node">
<title>9</title>
<polygon fill="none" stroke="black" points="191.5,-258 84.5,-258 84.5,-220 191.5,-220 191.5,-258"/>
<text text-anchor="middle" x="138" y="-242.8" font-family="Times,serif" font-size="14.00">lon &lt;= &#45;107.589</text>
<text text-anchor="middle" x="138" y="-227.8" font-family="Times,serif" font-size="14.00">class = red</text>
</g>
<!-- 8&#45;&gt;9 -->
<g id="edge9" class="edge">
<title>8&#45;&gt;9</title>
<path fill="none" stroke="black" d="M220.24,-293.83C206.3,-284.71 189.24,-273.54 174.28,-263.74"/>
<polygon fill="black" stroke="black" points="176.03,-260.71 165.75,-258.16 172.2,-266.57 176.03,-260.71"/>
</g>
<!-- 14 -->
<g id="node15" class="node">
<title>14</title>
<polygon fill="none" stroke="black" points="286,-257 210,-257 210,-221 286,-221 286,-257"/>
<text text-anchor="middle" x="248" y="-235.3" font-family="Times,serif" font-size="14.00">class = red</text>
</g>
<!-- 8&#45;&gt;14 -->
<g id="edge14" class="edge">
<title>8&#45;&gt;14</title>
<path fill="none" stroke="black" d="M248,-293.83C248,-285.89 248,-276.41 248,-267.63"/>
<polygon fill="black" stroke="black" points="251.5,-267.42 248,-257.42 244.5,-267.42 251.5,-267.42"/>
</g>
<!-- 10 -->
<g id="node11" class="node">
<title>10</title>
<polygon fill="none" stroke="black" points="79,-183 3,-183 3,-147 79,-147 79,-183"/>
<text text-anchor="middle" x="41" y="-161.3" font-family="Times,serif" font-size="14.00">class = red</text>
</g>
<!-- 9&#45;&gt;10 -->
<g id="edge10" class="edge">
<title>9&#45;&gt;10</title>
<path fill="none" stroke="black" d="M113.52,-219.83C100.97,-210.52 85.55,-199.07 72.16,-189.13"/>
<polygon fill="black" stroke="black" points="74.25,-186.32 64.13,-183.17 70.08,-191.94 74.25,-186.32"/>
</g>
<!-- 11 -->
<g id="node12" class="node">
<title>11</title>
<polygon fill="none" stroke="black" points="189,-184 97,-184 97,-146 189,-146 189,-184"/>
<text text-anchor="middle" x="143" y="-168.8" font-family="Times,serif" font-size="14.00">lat &lt;= 31.788</text>
<text text-anchor="middle" x="143" y="-153.8" font-family="Times,serif" font-size="14.00">class = blue</text>
</g>
<!-- 9&#45;&gt;11 -->
<g id="edge11" class="edge">
<title>9&#45;&gt;11</title>
<path fill="none" stroke="black" d="M139.26,-219.83C139.8,-212.13 140.43,-202.97 141.03,-194.42"/>
<polygon fill="black" stroke="black" points="144.52,-194.63 141.72,-184.41 137.54,-194.15 144.52,-194.63"/>
</g>
<!-- 12 -->
<g id="node13" class="node">
<title>12</title>
<polygon fill="none" stroke="black" points="133,-109 57,-109 57,-73 133,-73 133,-109"/>
<text text-anchor="middle" x="95" y="-87.3" font-family="Times,serif" font-size="14.00">class = red</text>
</g>
<!-- 11&#45;&gt;12 -->
<g id="edge12" class="edge">
<title>11&#45;&gt;12</title>
<path fill="none" stroke="black" d="M130.89,-145.83C125.25,-137.37 118.43,-127.15 112.27,-117.9"/>
<polygon fill="black" stroke="black" points="115.07,-115.8 106.61,-109.42 109.25,-119.68 115.07,-115.8"/>
</g>
<!-- 13 -->
<g id="node14" class="node">
<title>13</title>
<polygon fill="none" stroke="black" points="233,-109 151,-109 151,-73 233,-73 233,-109"/>
<text text-anchor="middle" x="192" y="-87.3" font-family="Times,serif" font-size="14.00">class = blue</text>
</g>
<!-- 11&#45;&gt;13 -->
<g id="edge13" class="edge">
<title>11&#45;&gt;13</title>
<path fill="none" stroke="black" d="M155.36,-145.83C161.12,-137.37 168.08,-127.15 174.37,-117.9"/>
<polygon fill="black" stroke="black" points="177.41,-119.65 180.15,-109.42 171.63,-115.72 177.41,-119.65"/>
</g>
<!-- 16 -->
<g id="node17" class="node">
<title>16</title>
<polygon fill="none" stroke="black" points="396,-258 304,-258 304,-220 396,-220 396,-258"/>
<text text-anchor="middle" x="350" y="-242.8" font-family="Times,serif" font-size="14.00">lat &lt;= 36.633</text>
<text text-anchor="middle" x="350" y="-227.8" font-family="Times,serif" font-size="14.00">class = red</text>
</g>
<!-- 15&#45;&gt;16 -->
<g id="edge16" class="edge">
<title>15&#45;&gt;16</title>
<path fill="none" stroke="black" d="M364.95,-293.83C362.79,-286.05 360.21,-276.77 357.82,-268.13"/>
<polygon fill="black" stroke="black" points="361.16,-267.11 355.11,-258.41 354.42,-268.99 361.16,-267.11"/>
</g>
<!-- 19 -->
<g id="node20" class="node">
<title>19</title>
<polygon fill="none" stroke="black" points="514,-258 414,-258 414,-220 514,-220 514,-258"/>
<text text-anchor="middle" x="464" y="-242.8" font-family="Times,serif" font-size="14.00">lon &lt;= &#45;80.706</text>
<text text-anchor="middle" x="464" y="-227.8" font-family="Times,serif" font-size="14.00">class = blue</text>
</g>
<!-- 15&#45;&gt;19 -->
<g id="edge19" class="edge">
<title>15&#45;&gt;19</title>
<path fill="none" stroke="black" d="M393.72,-293.83C405.41,-284.88 419.67,-273.96 432.28,-264.3"/>
<polygon fill="black" stroke="black" points="434.48,-267.02 440.29,-258.16 430.22,-261.47 434.48,-267.02"/>
</g>
<!-- 17 -->
<g id="node18" class="node">
<title>17</title>
<polygon fill="none" stroke="black" points="294,-183 212,-183 212,-147 294,-147 294,-183"/>
<text text-anchor="middle" x="253" y="-161.3" font-family="Times,serif" font-size="14.00">class = blue</text>
</g>
<!-- 16&#45;&gt;17 -->
<g id="edge17" class="edge">
<title>16&#45;&gt;17</title>
<path fill="none" stroke="black" d="M325.52,-219.83C312.97,-210.52 297.55,-199.07 284.16,-189.13"/>
<polygon fill="black" stroke="black" points="286.25,-186.32 276.13,-183.17 282.08,-191.94 286.25,-186.32"/>
</g>
<!-- 18 -->
<g id="node19" class="node">
<title>18</title>
<polygon fill="none" stroke="black" points="388,-183 312,-183 312,-147 388,-147 388,-183"/>
<text text-anchor="middle" x="350" y="-161.3" font-family="Times,serif" font-size="14.00">class = red</text>
</g>
<!-- 16&#45;&gt;18 -->
<g id="edge18" class="edge">
<title>16&#45;&gt;18</title>
<path fill="none" stroke="black" d="M350,-219.83C350,-211.89 350,-202.41 350,-193.63"/>
<polygon fill="black" stroke="black" points="353.5,-193.42 350,-183.42 346.5,-193.42 353.5,-193.42"/>
</g>
<!-- 20 -->
<g id="node21" class="node">
<title>20</title>
<polygon fill="none" stroke="black" points="491.5,-184 406.5,-184 406.5,-146 491.5,-146 491.5,-184"/>
<text text-anchor="middle" x="449" y="-168.8" font-family="Times,serif" font-size="14.00">lat &lt;= 37.15</text>
<text text-anchor="middle" x="449" y="-153.8" font-family="Times,serif" font-size="14.00">class = blue</text>
</g>
<!-- 19&#45;&gt;20 -->
<g id="edge20" class="edge">
<title>19&#45;&gt;20</title>
<path fill="none" stroke="black" d="M460.21,-219.83C458.61,-212.13 456.7,-202.97 454.92,-194.42"/>
<polygon fill="black" stroke="black" points="458.3,-193.49 452.84,-184.41 451.45,-194.92 458.3,-193.49"/>
</g>
<!-- 23 -->
<g id="node24" class="node">
<title>23</title>
<polygon fill="none" stroke="black" points="592,-183 510,-183 510,-147 592,-147 592,-183"/>
<text text-anchor="middle" x="551" y="-161.3" font-family="Times,serif" font-size="14.00">class = blue</text>
</g>
<!-- 19&#45;&gt;23 -->
<g id="edge23" class="edge">
<title>19&#45;&gt;23</title>
<path fill="none" stroke="black" d="M485.95,-219.83C497,-210.69 510.52,-199.5 522.37,-189.7"/>
<polygon fill="black" stroke="black" points="524.78,-192.24 530.25,-183.17 520.32,-186.85 524.78,-192.24"/>
</g>
<!-- 21 -->
<g id="node22" class="node">
<title>21</title>
<polygon fill="none" stroke="black" points="442,-109 360,-109 360,-73 442,-73 442,-109"/>
<text text-anchor="middle" x="401" y="-87.3" font-family="Times,serif" font-size="14.00">class = blue</text>
</g>
<!-- 20&#45;&gt;21 -->
<g id="edge21" class="edge">
<title>20&#45;&gt;21</title>
<path fill="none" stroke="black" d="M436.89,-145.83C431.25,-137.37 424.43,-127.15 418.27,-117.9"/>
<polygon fill="black" stroke="black" points="421.07,-115.8 412.61,-109.42 415.25,-119.68 421.07,-115.8"/>
</g>
<!-- 22 -->
<g id="node23" class="node">
<title>22</title>
<polygon fill="none" stroke="black" points="536,-109 460,-109 460,-73 536,-73 536,-109"/>
<text text-anchor="middle" x="498" y="-87.3" font-family="Times,serif" font-size="14.00">class = red</text>
</g>
<!-- 20&#45;&gt;22 -->
<g id="edge22" class="edge">
<title>20&#45;&gt;22</title>
<path fill="none" stroke="black" d="M461.36,-145.83C467.12,-137.37 474.08,-127.15 480.37,-117.9"/>
<polygon fill="black" stroke="black" points="483.41,-119.65 486.15,-109.42 477.63,-115.72 483.41,-119.65"/>
</g>
<!-- 25 -->
<g id="node26" class="node">
<title>25</title>
<polygon fill="none" stroke="black" points="967.5,-480 860.5,-480 860.5,-442 967.5,-442 967.5,-480"/>
<text text-anchor="middle" x="914" y="-464.8" font-family="Times,serif" font-size="14.00">lon &lt;= &#45;104.089</text>
<text text-anchor="middle" x="914" y="-449.8" font-family="Times,serif" font-size="14.00">class = red</text>
</g>
<!-- 24&#45;&gt;25 -->
<g id="edge25" class="edge">
<title>24&#45;&gt;25</title>
<path fill="none" stroke="black" d="M914,-515.83C914,-508.13 914,-498.97 914,-490.42"/>
<polygon fill="black" stroke="black" points="917.5,-490.41 914,-480.41 910.5,-490.41 917.5,-490.41"/>
</g>
<!-- 42 -->
<g id="node43" class="node">
<title>42</title>
<polygon fill="none" stroke="black" points="1538,-480 1446,-480 1446,-442 1538,-442 1538,-480"/>
<text text-anchor="middle" x="1492" y="-464.8" font-family="Times,serif" font-size="14.00">lat &lt;= 39.759</text>
<text text-anchor="middle" x="1492" y="-449.8" font-family="Times,serif" font-size="14.00">class = blue</text>
</g>
<!-- 24&#45;&gt;42 -->
<g id="edge42" class="edge">
<title>24&#45;&gt;42</title>
<path fill="none" stroke="black" d="M964.03,-527.77C1071.34,-514.4 1322.99,-483.05 1435.69,-469.01"/>
<polygon fill="black" stroke="black" points="1436.34,-472.46 1445.83,-467.75 1435.47,-465.51 1436.34,-472.46"/>
</g>
<!-- 26 -->
<g id="node27" class="node">
<title>26</title>
<polygon fill="none" stroke="black" points="903,-406 811,-406 811,-368 903,-368 903,-406"/>
<text text-anchor="middle" x="857" y="-390.8" font-family="Times,serif" font-size="14.00">lat &lt;= 41.895</text>
<text text-anchor="middle" x="857" y="-375.8" font-family="Times,serif" font-size="14.00">class = blue</text>
</g>
<!-- 25&#45;&gt;26 -->
<g id="edge26" class="edge">
<title>25&#45;&gt;26</title>
<path fill="none" stroke="black" d="M899.62,-441.83C893.05,-433.54 885.15,-423.56 877.94,-414.45"/>
<polygon fill="black" stroke="black" points="880.53,-412.08 871.58,-406.41 875.04,-416.43 880.53,-412.08"/>
</g>
<!-- 37 -->
<g id="node38" class="node">
<title>37</title>
<polygon fill="none" stroke="black" points="1021,-406 921,-406 921,-368 1021,-368 1021,-406"/>
<text text-anchor="middle" x="971" y="-390.8" font-family="Times,serif" font-size="14.00">lon &lt;= &#45;96.557</text>
<text text-anchor="middle" x="971" y="-375.8" font-family="Times,serif" font-size="14.00">class = red</text>
</g>
<!-- 25&#45;&gt;37 -->
<g id="edge37" class="edge">
<title>25&#45;&gt;37</title>
<path fill="none" stroke="black" d="M928.38,-441.83C934.95,-433.54 942.85,-423.56 950.06,-414.45"/>
<polygon fill="black" stroke="black" points="952.96,-416.43 956.42,-406.41 947.47,-412.08 952.96,-416.43"/>
</g>
<!-- 27 -->
<g id="node28" class="node">
<title>27</title>
<polygon fill="none" stroke="black" points="797.5,-332 712.5,-332 712.5,-294 797.5,-294 797.5,-332"/>
<text text-anchor="middle" x="755" y="-316.8" font-family="Times,serif" font-size="14.00">lat &lt;= 38.44</text>
<text text-anchor="middle" x="755" y="-301.8" font-family="Times,serif" font-size="14.00">class = blue</text>
</g>
<!-- 26&#45;&gt;27 -->
<g id="edge27" class="edge">
<title>26&#45;&gt;27</title>
<path fill="none" stroke="black" d="M831.26,-367.83C818.46,-358.79 802.81,-347.75 789.03,-338.02"/>
<polygon fill="black" stroke="black" points="790.92,-335.07 780.73,-332.16 786.88,-340.79 790.92,-335.07"/>
</g>
<!-- 32 -->
<g id="node33" class="node">
<title>32</title>
<polygon fill="none" stroke="black" points="900.5,-332 815.5,-332 815.5,-294 900.5,-294 900.5,-332"/>
<text text-anchor="middle" x="858" y="-316.8" font-family="Times,serif" font-size="14.00">lat &lt;= 45.33</text>
<text text-anchor="middle" x="858" y="-301.8" font-family="Times,serif" font-size="14.00">class = red</text>
</g>
<!-- 26&#45;&gt;32 -->
<g id="edge32" class="edge">
<title>26&#45;&gt;32</title>
<path fill="none" stroke="black" d="M857.25,-367.83C857.36,-360.13 857.49,-350.97 857.61,-342.42"/>
<polygon fill="black" stroke="black" points="861.1,-342.46 857.74,-332.41 854.11,-342.36 861.1,-342.46"/>
</g>
<!-- 28 -->
<g id="node29" class="node">
<title>28</title>
<polygon fill="none" stroke="black" points="697,-258 605,-258 605,-220 697,-220 697,-258"/>
<text text-anchor="middle" x="651" y="-242.8" font-family="Times,serif" font-size="14.00">lat &lt;= 38.226</text>
<text text-anchor="middle" x="651" y="-227.8" font-family="Times,serif" font-size="14.00">class = blue</text>
</g>
<!-- 27&#45;&gt;28 -->
<g id="edge28" class="edge">
<title>27&#45;&gt;28</title>
<path fill="none" stroke="black" d="M728.76,-293.83C715.7,-284.79 699.75,-273.75 685.7,-264.02"/>
<polygon fill="black" stroke="black" points="687.45,-260.98 677.24,-258.16 683.46,-266.73 687.45,-260.98"/>
</g>
<!-- 31 -->
<g id="node32" class="node">
<title>31</title>
<polygon fill="none" stroke="black" points="797,-257 715,-257 715,-221 797,-221 797,-257"/>
<text text-anchor="middle" x="756" y="-235.3" font-family="Times,serif" font-size="14.00">class = blue</text>
</g>
<!-- 27&#45;&gt;31 -->
<g id="edge31" class="edge">
<title>27&#45;&gt;31</title>
<path fill="none" stroke="black" d="M755.25,-293.83C755.36,-285.89 755.49,-276.41 755.62,-267.63"/>
<polygon fill="black" stroke="black" points="759.12,-267.47 755.76,-257.42 752.12,-267.37 759.12,-267.47"/>
</g>
<!-- 29 -->
<g id="node30" class="node">
<title>29</title>
<polygon fill="none" stroke="black" points="692,-183 610,-183 610,-147 692,-147 692,-183"/>
<text text-anchor="middle" x="651" y="-161.3" font-family="Times,serif" font-size="14.00">class = blue</text>
</g>
<!-- 28&#45;&gt;29 -->
<g id="edge29" class="edge">
<title>28&#45;&gt;29</title>
<path fill="none" stroke="black" d="M651,-219.83C651,-211.89 651,-202.41 651,-193.63"/>
<polygon fill="black" stroke="black" points="654.5,-193.42 651,-183.42 647.5,-193.42 654.5,-193.42"/>
</g>
<!-- 30 -->
<g id="node31" class="node">
<title>30</title>
<polygon fill="none" stroke="black" points="786,-183 710,-183 710,-147 786,-147 786,-183"/>
<text text-anchor="middle" x="748" y="-161.3" font-family="Times,serif" font-size="14.00">class = red</text>
</g>
<!-- 28&#45;&gt;30 -->
<g id="edge30" class="edge">
<title>28&#45;&gt;30</title>
<path fill="none" stroke="black" d="M675.48,-219.83C688.03,-210.52 703.45,-199.07 716.84,-189.13"/>
<polygon fill="black" stroke="black" points="718.92,-191.94 724.87,-183.17 714.75,-186.32 718.92,-191.94"/>
</g>
<!-- 33 -->
<g id="node34" class="node">
<title>33</title>
<polygon fill="none" stroke="black" points="891,-257 815,-257 815,-221 891,-221 891,-257"/>
<text text-anchor="middle" x="853" y="-235.3" font-family="Times,serif" font-size="14.00">class = red</text>
</g>
<!-- 32&#45;&gt;33 -->
<g id="edge33" class="edge">
<title>32&#45;&gt;33</title>
<path fill="none" stroke="black" d="M856.74,-293.83C856.19,-285.89 855.53,-276.41 854.92,-267.63"/>
<polygon fill="black" stroke="black" points="858.39,-267.15 854.21,-257.42 851.41,-267.64 858.39,-267.15"/>
</g>
<!-- 34 -->
<g id="node35" class="node">
<title>34</title>
<polygon fill="none" stroke="black" points="1016.5,-258 909.5,-258 909.5,-220 1016.5,-220 1016.5,-258"/>
<text text-anchor="middle" x="963" y="-242.8" font-family="Times,serif" font-size="14.00">lon &lt;= &#45;133.954</text>
<text text-anchor="middle" x="963" y="-227.8" font-family="Times,serif" font-size="14.00">class = blue</text>
</g>
<!-- 32&#45;&gt;34 -->
<g id="edge34" class="edge">
<title>32&#45;&gt;34</title>
<path fill="none" stroke="black" d="M884.5,-293.83C897.68,-284.79 913.78,-273.75 927.97,-264.02"/>
<polygon fill="black" stroke="black" points="930.24,-266.7 936.51,-258.16 926.29,-260.93 930.24,-266.7"/>
</g>
<!-- 35 -->
<g id="node36" class="node">
<title>35</title>
<polygon fill="none" stroke="black" points="974,-183 898,-183 898,-147 974,-147 974,-183"/>
<text text-anchor="middle" x="936" y="-161.3" font-family="Times,serif" font-size="14.00">class = red</text>
</g>
<!-- 34&#45;&gt;35 -->
<g id="edge35" class="edge">
<title>34&#45;&gt;35</title>
<path fill="none" stroke="black" d="M956.19,-219.83C953.14,-211.72 949.5,-201.99 946.14,-193.05"/>
<polygon fill="black" stroke="black" points="949.32,-191.55 942.53,-183.42 942.77,-194.01 949.32,-191.55"/>
</g>
<!-- 36 -->
<g id="node37" class="node">
<title>36</title>
<polygon fill="none" stroke="black" points="1074,-183 992,-183 992,-147 1074,-147 1074,-183"/>
<text text-anchor="middle" x="1033" y="-161.3" font-family="Times,serif" font-size="14.00">class = blue</text>
</g>
<!-- 34&#45;&gt;36 -->
<g id="edge36" class="edge">
<title>34&#45;&gt;36</title>
<path fill="none" stroke="black" d="M980.66,-219.83C989.23,-211.02 999.65,-200.31 1008.93,-190.76"/>
<polygon fill="black" stroke="black" points="1011.6,-193.03 1016.07,-183.42 1006.59,-188.15 1011.6,-193.03"/>
</g>
<!-- 38 -->
<g id="node39" class="node">
<title>38</title>
<polygon fill="none" stroke="black" points="1009,-331 933,-331 933,-295 1009,-295 1009,-331"/>
<text text-anchor="middle" x="971" y="-309.3" font-family="Times,serif" font-size="14.00">class = red</text>
</g>
<!-- 37&#45;&gt;38 -->
<g id="edge38" class="edge">
<title>37&#45;&gt;38</title>
<path fill="none" stroke="black" d="M971,-367.83C971,-359.89 971,-350.41 971,-341.63"/>
<polygon fill="black" stroke="black" points="974.5,-341.42 971,-331.42 967.5,-341.42 974.5,-341.42"/>
</g>
<!-- 39 -->
<g id="node40" class="node">
<title>39</title>
<polygon fill="none" stroke="black" points="1119,-332 1027,-332 1027,-294 1119,-294 1119,-332"/>
<text text-anchor="middle" x="1073" y="-316.8" font-family="Times,serif" font-size="14.00">lat &lt;= 42.007</text>
<text text-anchor="middle" x="1073" y="-301.8" font-family="Times,serif" font-size="14.00">class = blue</text>
</g>
<!-- 37&#45;&gt;39 -->
<g id="edge39" class="edge">
<title>37&#45;&gt;39</title>
<path fill="none" stroke="black" d="M996.74,-367.83C1009.54,-358.79 1025.19,-347.75 1038.97,-338.02"/>
<polygon fill="black" stroke="black" points="1041.12,-340.79 1047.27,-332.16 1037.08,-335.07 1041.12,-340.79"/>
</g>
<!-- 40 -->
<g id="node41" class="node">
<title>40</title>
<polygon fill="none" stroke="black" points="1111,-257 1035,-257 1035,-221 1111,-221 1111,-257"/>
<text text-anchor="middle" x="1073" y="-235.3" font-family="Times,serif" font-size="14.00">class = red</text>
</g>
<!-- 39&#45;&gt;40 -->
<g id="edge40" class="edge">
<title>39&#45;&gt;40</title>
<path fill="none" stroke="black" d="M1073,-293.83C1073,-285.89 1073,-276.41 1073,-267.63"/>
<polygon fill="black" stroke="black" points="1076.5,-267.42 1073,-257.42 1069.5,-267.42 1076.5,-267.42"/>
</g>
<!-- 41 -->
<g id="node42" class="node">
<title>41</title>
<polygon fill="none" stroke="black" points="1211,-257 1129,-257 1129,-221 1211,-221 1211,-257"/>
<text text-anchor="middle" x="1170" y="-235.3" font-family="Times,serif" font-size="14.00">class = blue</text>
</g>
<!-- 39&#45;&gt;41 -->
<g id="edge41" class="edge">
<title>39&#45;&gt;41</title>
<path fill="none" stroke="black" d="M1097.48,-293.83C1110.03,-284.52 1125.45,-273.07 1138.84,-263.13"/>
<polygon fill="black" stroke="black" points="1140.92,-265.94 1146.87,-257.17 1136.75,-260.32 1140.92,-265.94"/>
</g>
<!-- 43 -->
<g id="node44" class="node">
<title>43</title>
<polygon fill="none" stroke="black" points="1542,-406 1442,-406 1442,-368 1542,-368 1542,-406"/>
<text text-anchor="middle" x="1492" y="-390.8" font-family="Times,serif" font-size="14.00">lon &lt;= &#45;79.773</text>
<text text-anchor="middle" x="1492" y="-375.8" font-family="Times,serif" font-size="14.00">class = blue</text>
</g>
<!-- 42&#45;&gt;43 -->
<g id="edge43" class="edge">
<title>42&#45;&gt;43</title>
<path fill="none" stroke="black" d="M1492,-441.83C1492,-434.13 1492,-424.97 1492,-416.42"/>
<polygon fill="black" stroke="black" points="1495.5,-416.41 1492,-406.41 1488.5,-416.41 1495.5,-416.41"/>
</g>
<!-- 62 -->
<g id="node63" class="node">
<title>62</title>
<polygon fill="none" stroke="black" points="1829,-406 1729,-406 1729,-368 1829,-368 1829,-406"/>
<text text-anchor="middle" x="1779" y="-390.8" font-family="Times,serif" font-size="14.00">lon &lt;= &#45;84.905</text>
<text text-anchor="middle" x="1779" y="-375.8" font-family="Times,serif" font-size="14.00">class = blue</text>
</g>
<!-- 42&#45;&gt;62 -->
<g id="edge62" class="edge">
<title>42&#45;&gt;62</title>
<path fill="none" stroke="black" d="M1538.11,-448.43C1587.19,-436.12 1665.04,-416.59 1718.89,-403.08"/>
<polygon fill="black" stroke="black" points="1719.81,-406.46 1728.66,-400.63 1718.11,-399.67 1719.81,-406.46"/>
</g>
<!-- 44 -->
<g id="node45" class="node">
<title>44</title>
<polygon fill="none" stroke="black" points="1474,-332 1374,-332 1374,-294 1474,-294 1474,-332"/>
<text text-anchor="middle" x="1424" y="-316.8" font-family="Times,serif" font-size="14.00">lon &lt;= &#45;87.643</text>
<text text-anchor="middle" x="1424" y="-301.8" font-family="Times,serif" font-size="14.00">class = red</text>
</g>
<!-- 43&#45;&gt;44 -->
<g id="edge44" class="edge">
<title>43&#45;&gt;44</title>
<path fill="none" stroke="black" d="M1474.84,-367.83C1466.85,-359.37 1457.2,-349.15 1448.46,-339.9"/>
<polygon fill="black" stroke="black" points="1450.8,-337.28 1441.39,-332.41 1445.71,-342.09 1450.8,-337.28"/>
</g>
<!-- 57 -->
<g id="node58" class="node">
<title>57</title>
<polygon fill="none" stroke="black" points="1611,-332 1511,-332 1511,-294 1611,-294 1611,-332"/>
<text text-anchor="middle" x="1561" y="-316.8" font-family="Times,serif" font-size="14.00">lon &lt;= &#45;78.395</text>
<text text-anchor="middle" x="1561" y="-301.8" font-family="Times,serif" font-size="14.00">class = blue</text>
</g>
<!-- 43&#45;&gt;57 -->
<g id="edge57" class="edge">
<title>43&#45;&gt;57</title>
<path fill="none" stroke="black" d="M1509.41,-367.83C1517.52,-359.37 1527.32,-349.15 1536.18,-339.9"/>
<polygon fill="black" stroke="black" points="1538.96,-342.05 1543.35,-332.41 1533.91,-337.21 1538.96,-342.05"/>
</g>
<!-- 45 -->
<g id="node46" class="node">
<title>45</title>
<polygon fill="none" stroke="black" points="1322.5,-258 1229.5,-258 1229.5,-220 1322.5,-220 1322.5,-258"/>
<text text-anchor="middle" x="1276" y="-242.8" font-family="Times,serif" font-size="14.00">lon &lt;= &#45;90.12</text>
<text text-anchor="middle" x="1276" y="-227.8" font-family="Times,serif" font-size="14.00">class = blue</text>
</g>
<!-- 44&#45;&gt;45 -->
<g id="edge45" class="edge">
<title>44&#45;&gt;45</title>
<path fill="none" stroke="black" d="M1386.65,-293.83C1367.12,-284.33 1343.04,-272.61 1322.33,-262.54"/>
<polygon fill="black" stroke="black" points="1323.6,-259.27 1313.08,-258.04 1320.54,-265.56 1323.6,-259.27"/>
</g>
<!-- 52 -->
<g id="node53" class="node">
<title>52</title>
<polygon fill="none" stroke="black" points="1470,-258 1378,-258 1378,-220 1470,-220 1470,-258"/>
<text text-anchor="middle" x="1424" y="-242.8" font-family="Times,serif" font-size="14.00">lat &lt;= 38.562</text>
<text text-anchor="middle" x="1424" y="-227.8" font-family="Times,serif" font-size="14.00">class = red</text>
</g>
<!-- 44&#45;&gt;52 -->
<g id="edge52" class="edge">
<title>44&#45;&gt;52</title>
<path fill="none" stroke="black" d="M1424,-293.83C1424,-286.13 1424,-276.97 1424,-268.42"/>
<polygon fill="black" stroke="black" points="1427.5,-268.41 1424,-258.41 1420.5,-268.41 1427.5,-268.41"/>
</g>
<!-- 46 -->
<g id="node47" class="node">
<title>46</title>
<polygon fill="none" stroke="black" points="1202,-184 1102,-184 1102,-146 1202,-146 1202,-184"/>
<text text-anchor="middle" x="1152" y="-168.8" font-family="Times,serif" font-size="14.00">lon &lt;= &#45;90.841</text>
<text text-anchor="middle" x="1152" y="-153.8" font-family="Times,serif" font-size="14.00">class = red</text>
</g>
<!-- 45&#45;&gt;46 -->
<g id="edge46" class="edge">
<title>45&#45;&gt;46</title>
<path fill="none" stroke="black" d="M1244.71,-219.83C1228.7,-210.54 1209.04,-199.12 1191.95,-189.2"/>
<polygon fill="black" stroke="black" points="1193.69,-186.16 1183.28,-184.16 1190.17,-192.21 1193.69,-186.16"/>
</g>
<!-- 51 -->
<g id="node52" class="node">
<title>51</title>
<polygon fill="none" stroke="black" points="1302,-183 1220,-183 1220,-147 1302,-147 1302,-183"/>
<text text-anchor="middle" x="1261" y="-161.3" font-family="Times,serif" font-size="14.00">class = blue</text>
</g>
<!-- 45&#45;&gt;51 -->
<g id="edge51" class="edge">
<title>45&#45;&gt;51</title>
<path fill="none" stroke="black" d="M1272.21,-219.83C1270.54,-211.81 1268.54,-202.2 1266.7,-193.34"/>
<polygon fill="black" stroke="black" points="1270.09,-192.49 1264.63,-183.42 1263.24,-193.92 1270.09,-192.49"/>
</g>
<!-- 47 -->
<g id="node48" class="node">
<title>47</title>
<polygon fill="none" stroke="black" points="1141,-109 1065,-109 1065,-73 1141,-73 1141,-109"/>
<text text-anchor="middle" x="1103" y="-87.3" font-family="Times,serif" font-size="14.00">class = red</text>
</g>
<!-- 46&#45;&gt;47 -->
<g id="edge47" class="edge">
<title>46&#45;&gt;47</title>
<path fill="none" stroke="black" d="M1139.64,-145.83C1133.88,-137.37 1126.92,-127.15 1120.63,-117.9"/>
<polygon fill="black" stroke="black" points="1123.37,-115.72 1114.85,-109.42 1117.59,-119.65 1123.37,-115.72"/>
</g>
<!-- 48 -->
<g id="node49" class="node">
<title>48</title>
<polygon fill="none" stroke="black" points="1244.5,-110 1159.5,-110 1159.5,-72 1244.5,-72 1244.5,-110"/>
<text text-anchor="middle" x="1202" y="-94.8" font-family="Times,serif" font-size="14.00">lat &lt;= 38.85</text>
<text text-anchor="middle" x="1202" y="-79.8" font-family="Times,serif" font-size="14.00">class = blue</text>
</g>
<!-- 46&#45;&gt;48 -->
<g id="edge48" class="edge">
<title>46&#45;&gt;48</title>
<path fill="none" stroke="black" d="M1164.62,-145.83C1170.32,-137.62 1177.17,-127.76 1183.44,-118.73"/>
<polygon fill="black" stroke="black" points="1186.38,-120.62 1189.21,-110.41 1180.63,-116.63 1186.38,-120.62"/>
</g>
<!-- 49 -->
<g id="node50" class="node">
<title>49</title>
<polygon fill="none" stroke="black" points="1192,-36 1116,-36 1116,0 1192,0 1192,-36"/>
<text text-anchor="middle" x="1154" y="-14.3" font-family="Times,serif" font-size="14.00">class = red</text>
</g>
<!-- 48&#45;&gt;49 -->
<g id="edge49" class="edge">
<title>48&#45;&gt;49</title>
<path fill="none" stroke="black" d="M1189.64,-71.72C1184,-63.37 1177.22,-53.35 1171.1,-44.3"/>
<polygon fill="black" stroke="black" points="1174,-42.33 1165.5,-36 1168.2,-46.25 1174,-42.33"/>
</g>
<!-- 50 -->
<g id="node51" class="node">
<title>50</title>
<polygon fill="none" stroke="black" points="1292,-36 1210,-36 1210,0 1292,0 1292,-36"/>
<text text-anchor="middle" x="1251" y="-14.3" font-family="Times,serif" font-size="14.00">class = blue</text>
</g>
<!-- 48&#45;&gt;50 -->
<g id="edge50" class="edge">
<title>48&#45;&gt;50</title>
<path fill="none" stroke="black" d="M1214.62,-71.72C1220.38,-63.37 1227.29,-53.35 1233.54,-44.3"/>
<polygon fill="black" stroke="black" points="1236.47,-46.22 1239.27,-36 1230.7,-42.25 1236.47,-46.22"/>
</g>
<!-- 53 -->
<g id="node54" class="node">
<title>53</title>
<polygon fill="none" stroke="black" points="1412,-184 1320,-184 1320,-146 1412,-146 1412,-184"/>
<text text-anchor="middle" x="1366" y="-168.8" font-family="Times,serif" font-size="14.00">lat &lt;= 38.324</text>
<text text-anchor="middle" x="1366" y="-153.8" font-family="Times,serif" font-size="14.00">class = red</text>
</g>
<!-- 52&#45;&gt;53 -->
<g id="edge53" class="edge">
<title>52&#45;&gt;53</title>
<path fill="none" stroke="black" d="M1409.36,-219.83C1402.68,-211.54 1394.64,-201.56 1387.31,-192.45"/>
<polygon fill="black" stroke="black" points="1389.83,-190.01 1380.83,-184.41 1384.38,-194.4 1389.83,-190.01"/>
</g>
<!-- 56 -->
<g id="node57" class="node">
<title>56</title>
<polygon fill="none" stroke="black" points="1506,-183 1430,-183 1430,-147 1506,-147 1506,-183"/>
<text text-anchor="middle" x="1468" y="-161.3" font-family="Times,serif" font-size="14.00">class = red</text>
</g>
<!-- 52&#45;&gt;56 -->
<g id="edge56" class="edge">
<title>52&#45;&gt;56</title>
<path fill="none" stroke="black" d="M1435.1,-219.83C1440.22,-211.46 1446.39,-201.36 1452,-192.19"/>
<polygon fill="black" stroke="black" points="1455.13,-193.78 1457.36,-183.42 1449.15,-190.13 1455.13,-193.78"/>
</g>
<!-- 54 -->
<g id="node55" class="node">
<title>54</title>
<polygon fill="none" stroke="black" points="1396,-109 1320,-109 1320,-73 1396,-73 1396,-109"/>
<text text-anchor="middle" x="1358" y="-87.3" font-family="Times,serif" font-size="14.00">class = red</text>
</g>
<!-- 53&#45;&gt;54 -->
<g id="edge54" class="edge">
<title>53&#45;&gt;54</title>
<path fill="none" stroke="black" d="M1363.98,-145.83C1363.1,-137.89 1362.05,-128.41 1361.07,-119.63"/>
<polygon fill="black" stroke="black" points="1364.52,-118.97 1359.94,-109.42 1357.56,-119.74 1364.52,-118.97"/>
</g>
<!-- 55 -->
<g id="node56" class="node">
<title>55</title>
<polygon fill="none" stroke="black" points="1496,-109 1414,-109 1414,-73 1496,-73 1496,-109"/>
<text text-anchor="middle" x="1455" y="-87.3" font-family="Times,serif" font-size="14.00">class = blue</text>
</g>
<!-- 53&#45;&gt;55 -->
<g id="edge55" class="edge">
<title>53&#45;&gt;55</title>
<path fill="none" stroke="black" d="M1388.46,-145.83C1399.76,-136.69 1413.59,-125.5 1425.71,-115.7"/>
<polygon fill="black" stroke="black" points="1428.2,-118.18 1433.77,-109.17 1423.8,-112.74 1428.2,-118.18"/>
</g>
<!-- 58 -->
<g id="node59" class="node">
<title>58</title>
<polygon fill="none" stroke="black" points="1611,-258 1511,-258 1511,-220 1611,-220 1611,-258"/>
<text text-anchor="middle" x="1561" y="-242.8" font-family="Times,serif" font-size="14.00">lon &lt;= &#45;78.878</text>
<text text-anchor="middle" x="1561" y="-227.8" font-family="Times,serif" font-size="14.00">class = blue</text>
</g>
<!-- 57&#45;&gt;58 -->
<g id="edge58" class="edge">
<title>57&#45;&gt;58</title>
<path fill="none" stroke="black" d="M1561,-293.83C1561,-286.13 1561,-276.97 1561,-268.42"/>
<polygon fill="black" stroke="black" points="1564.5,-268.41 1561,-258.41 1557.5,-268.41 1564.5,-268.41"/>
</g>
<!-- 61 -->
<g id="node62" class="node">
<title>61</title>
<polygon fill="none" stroke="black" points="1711,-257 1629,-257 1629,-221 1711,-221 1711,-257"/>
<text text-anchor="middle" x="1670" y="-235.3" font-family="Times,serif" font-size="14.00">class = blue</text>
</g>
<!-- 57&#45;&gt;61 -->
<g id="edge61" class="edge">
<title>57&#45;&gt;61</title>
<path fill="none" stroke="black" d="M1588.51,-293.83C1602.74,-284.43 1620.26,-272.86 1635.41,-262.85"/>
<polygon fill="black" stroke="black" points="1637.59,-265.6 1644,-257.17 1633.73,-259.76 1637.59,-265.6"/>
</g>
<!-- 59 -->
<g id="node60" class="node">
<title>59</title>
<polygon fill="none" stroke="black" points="1606,-183 1524,-183 1524,-147 1606,-147 1606,-183"/>
<text text-anchor="middle" x="1565" y="-161.3" font-family="Times,serif" font-size="14.00">class = blue</text>
</g>
<!-- 58&#45;&gt;59 -->
<g id="edge59" class="edge">
<title>58&#45;&gt;59</title>
<path fill="none" stroke="black" d="M1562.01,-219.83C1562.45,-211.89 1562.98,-202.41 1563.47,-193.63"/>
<polygon fill="black" stroke="black" points="1566.97,-193.6 1564.03,-183.42 1559.98,-193.21 1566.97,-193.6"/>
</g>
<!-- 60 -->
<g id="node61" class="node">
<title>60</title>
<polygon fill="none" stroke="black" points="1700,-183 1624,-183 1624,-147 1700,-147 1700,-183"/>
<text text-anchor="middle" x="1662" y="-161.3" font-family="Times,serif" font-size="14.00">class = red</text>
</g>
<!-- 58&#45;&gt;60 -->
<g id="edge60" class="edge">
<title>58&#45;&gt;60</title>
<path fill="none" stroke="black" d="M1586.49,-219.83C1599.55,-210.52 1615.61,-199.07 1629.55,-189.13"/>
<polygon fill="black" stroke="black" points="1631.8,-191.83 1637.91,-183.17 1627.74,-186.13 1631.8,-191.83"/>
</g>
<!-- 63 -->
<g id="node64" class="node">
<title>63</title>
<polygon fill="none" stroke="black" points="1825,-332 1733,-332 1733,-294 1825,-294 1825,-332"/>
<text text-anchor="middle" x="1779" y="-316.8" font-family="Times,serif" font-size="14.00">lat &lt;= 41.739</text>
<text text-anchor="middle" x="1779" y="-301.8" font-family="Times,serif" font-size="14.00">class = blue</text>
</g>
<!-- 62&#45;&gt;63 -->
<g id="edge63" class="edge">
<title>62&#45;&gt;63</title>
<path fill="none" stroke="black" d="M1779,-367.83C1779,-360.13 1779,-350.97 1779,-342.42"/>
<polygon fill="black" stroke="black" points="1782.5,-342.41 1779,-332.41 1775.5,-342.41 1782.5,-342.41"/>
</g>
<!-- 72 -->
<g id="node73" class="node">
<title>72</title>
<polygon fill="none" stroke="black" points="1925,-331 1843,-331 1843,-295 1925,-295 1925,-331"/>
<text text-anchor="middle" x="1884" y="-309.3" font-family="Times,serif" font-size="14.00">class = blue</text>
</g>
<!-- 62&#45;&gt;72 -->
<g id="edge72" class="edge">
<title>62&#45;&gt;72</title>
<path fill="none" stroke="black" d="M1805.5,-367.83C1819.21,-358.43 1836.09,-346.86 1850.67,-336.85"/>
<polygon fill="black" stroke="black" points="1852.69,-339.71 1858.96,-331.17 1848.73,-333.94 1852.69,-339.71"/>
</g>
<!-- 64 -->
<g id="node65" class="node">
<title>64</title>
<polygon fill="none" stroke="black" points="1829,-258 1729,-258 1729,-220 1829,-220 1829,-258"/>
<text text-anchor="middle" x="1779" y="-242.8" font-family="Times,serif" font-size="14.00">lon &lt;= &#45;87.697</text>
<text text-anchor="middle" x="1779" y="-227.8" font-family="Times,serif" font-size="14.00">class = blue</text>
</g>
<!-- 63&#45;&gt;64 -->
<g id="edge64" class="edge">
<title>63&#45;&gt;64</title>
<path fill="none" stroke="black" d="M1779,-293.83C1779,-286.13 1779,-276.97 1779,-268.42"/>
<polygon fill="black" stroke="black" points="1782.5,-268.41 1779,-258.41 1775.5,-268.41 1782.5,-268.41"/>
</g>
<!-- 71 -->
<g id="node72" class="node">
<title>71</title>
<polygon fill="none" stroke="black" points="1929,-257 1847,-257 1847,-221 1929,-221 1929,-257"/>
<text text-anchor="middle" x="1888" y="-235.3" font-family="Times,serif" font-size="14.00">class = blue</text>
</g>
<!-- 63&#45;&gt;71 -->
<g id="edge71" class="edge">
<title>63&#45;&gt;71</title>
<path fill="none" stroke="black" d="M1806.51,-293.83C1820.74,-284.43 1838.26,-272.86 1853.41,-262.85"/>
<polygon fill="black" stroke="black" points="1855.59,-265.6 1862,-257.17 1851.73,-259.76 1855.59,-265.6"/>
</g>
<!-- 65 -->
<g id="node66" class="node">
<title>65</title>
<polygon fill="none" stroke="black" points="1825,-184 1725,-184 1725,-146 1825,-146 1825,-184"/>
<text text-anchor="middle" x="1775" y="-168.8" font-family="Times,serif" font-size="14.00">lon &lt;= &#45;91.379</text>
<text text-anchor="middle" x="1775" y="-153.8" font-family="Times,serif" font-size="14.00">class = blue</text>
</g>
<!-- 64&#45;&gt;65 -->
<g id="edge65" class="edge">
<title>64&#45;&gt;65</title>
<path fill="none" stroke="black" d="M1777.99,-219.83C1777.56,-212.13 1777.05,-202.97 1776.58,-194.42"/>
<polygon fill="black" stroke="black" points="1780.07,-194.2 1776.02,-184.41 1773.08,-194.59 1780.07,-194.2"/>
</g>
<!-- 70 -->
<g id="node71" class="node">
<title>70</title>
<polygon fill="none" stroke="black" points="1919,-183 1843,-183 1843,-147 1919,-147 1919,-183"/>
<text text-anchor="middle" x="1881" y="-161.3" font-family="Times,serif" font-size="14.00">class = red</text>
</g>
<!-- 64&#45;&gt;70 -->
<g id="edge70" class="edge">
<title>64&#45;&gt;70</title>
<path fill="none" stroke="black" d="M1804.74,-219.83C1817.93,-210.52 1834.15,-199.07 1848.23,-189.13"/>
<polygon fill="black" stroke="black" points="1850.52,-191.8 1856.67,-183.17 1846.49,-186.08 1850.52,-191.8"/>
</g>
<!-- 66 -->
<g id="node67" class="node">
<title>66</title>
<polygon fill="none" stroke="black" points="1770,-110 1670,-110 1670,-72 1770,-72 1770,-110"/>
<text text-anchor="middle" x="1720" y="-94.8" font-family="Times,serif" font-size="14.00">lon &lt;= &#45;95.317</text>
<text text-anchor="middle" x="1720" y="-79.8" font-family="Times,serif" font-size="14.00">class = red</text>
</g>
<!-- 65&#45;&gt;66 -->
<g id="edge66" class="edge">
<title>65&#45;&gt;66</title>
<path fill="none" stroke="black" d="M1761.12,-145.83C1754.79,-137.54 1747.16,-127.56 1740.21,-118.45"/>
<polygon fill="black" stroke="black" points="1742.92,-116.24 1734.07,-110.41 1737.35,-120.48 1742.92,-116.24"/>
</g>
<!-- 69 -->
<g id="node70" class="node">
<title>69</title>
<polygon fill="none" stroke="black" points="1870,-109 1788,-109 1788,-73 1870,-73 1870,-109"/>
<text text-anchor="middle" x="1829" y="-87.3" font-family="Times,serif" font-size="14.00">class = blue</text>
</g>
<!-- 65&#45;&gt;69 -->
<g id="edge69" class="edge">
<title>65&#45;&gt;69</title>
<path fill="none" stroke="black" d="M1788.63,-145.83C1795.04,-137.28 1802.79,-126.94 1809.79,-117.62"/>
<polygon fill="black" stroke="black" points="1812.74,-119.52 1815.94,-109.42 1807.14,-115.32 1812.74,-119.52"/>
</g>
<!-- 67 -->
<g id="node68" class="node">
<title>67</title>
<polygon fill="none" stroke="black" points="1712,-36 1630,-36 1630,0 1712,0 1712,-36"/>
<text text-anchor="middle" x="1671" y="-14.3" font-family="Times,serif" font-size="14.00">class = blue</text>
</g>
<!-- 66&#45;&gt;67 -->
<g id="edge67" class="edge">
<title>66&#45;&gt;67</title>
<path fill="none" stroke="black" d="M1707.38,-71.72C1701.62,-63.37 1694.71,-53.35 1688.46,-44.3"/>
<polygon fill="black" stroke="black" points="1691.3,-42.25 1682.73,-36 1685.53,-46.22 1691.3,-42.25"/>
</g>
<!-- 68 -->
<g id="node69" class="node">
<title>68</title>
<polygon fill="none" stroke="black" points="1806,-36 1730,-36 1730,0 1806,0 1806,-36"/>
<text text-anchor="middle" x="1768" y="-14.3" font-family="Times,serif" font-size="14.00">class = red</text>
</g>
<!-- 66&#45;&gt;68 -->
<g id="edge68" class="edge">
<title>66&#45;&gt;68</title>
<path fill="none" stroke="black" d="M1732.36,-71.72C1738,-63.37 1744.78,-53.35 1750.9,-44.3"/>
<polygon fill="black" stroke="black" points="1753.8,-46.25 1756.5,-36 1748,-42.33 1753.8,-46.25"/>
</g>
</g>
</svg>
