<?xml version="1.0" encoding="UTF-8" standalone="no"?>
<!DOCTYPE svg PUBLIC "-//W3C//DTD SVG 1.1//EN"
 "http://www.w3.org/Graphics/SVG/1.1/DTD/svg11.dtd">
<!-- Generated by graphviz version 2.44.1 (20200629.0846)
 -->
<!-- Title: Tree Pages: 1 -->
<svg width="1183pt" height="932pt"
 viewBox="0.00 0.00 1182.50 932.00" xmlns="http://www.w3.org/2000/svg" xmlns:xlink="http://www.w3.org/1999/xlink">
<g id="graph0" class="graph" transform="scale(1 1) rotate(0) translate(4 928)">
<title>Tree</title>
<polygon fill="white" stroke="transparent" points="-4,4 -4,-928 1178.5,-928 1178.5,4 -4,4"/>
<!-- 0 -->
<g id="node1" class="node">
<title>0</title>
<polygon fill="none" stroke="black" points="285.5,-924 180.5,-924 180.5,-886 285.5,-886 285.5,-924"/>
<text text-anchor="middle" x="233" y="-908.8" font-family="Times,serif" font-size="14.00">latitude &lt;= 42.9</text>
<text text-anchor="middle" x="233" y="-893.8" font-family="Times,serif" font-size="14.00">class = Canada</text>
</g>
<!-- 1 -->
<g id="node2" class="node">
<title>1</title>
<polygon fill="none" stroke="black" points="218.5,-850 99.5,-850 99.5,-812 218.5,-812 218.5,-850"/>
<text text-anchor="middle" x="159" y="-834.8" font-family="Times,serif" font-size="14.00">latitude &lt;= 42.096</text>
<text text-anchor="middle" x="159" y="-819.8" font-family="Times,serif" font-size="14.00">class = USA</text>
</g>
<!-- 0&#45;&gt;1 -->
<g id="edge1" class="edge">
<title>0&#45;&gt;1</title>
<path fill="none" stroke="black" d="M214.33,-885.83C205.48,-877.22 194.75,-866.79 185.11,-857.4"/>
<polygon fill="black" stroke="black" points="187.28,-854.63 177.67,-850.16 182.39,-859.64 187.28,-854.63"/>
<text text-anchor="middle" x="178.01" y="-871.46" font-family="Times,serif" font-size="14.00">True</text>
</g>
<!-- 6 -->
<g id="node7" class="node">
<title>6</title>
<polygon fill="none" stroke="black" points="377,-850 237,-850 237,-812 377,-812 377,-850"/>
<text text-anchor="middle" x="307" y="-834.8" font-family="Times,serif" font-size="14.00">longitude &lt;= &#45;130.017</text>
<text text-anchor="middle" x="307" y="-819.8" font-family="Times,serif" font-size="14.00">class = Canada</text>
</g>
<!-- 0&#45;&gt;6 -->
<g id="edge6" class="edge">
<title>0&#45;&gt;6</title>
<path fill="none" stroke="black" d="M251.67,-885.83C260.52,-877.22 271.25,-866.79 280.89,-857.4"/>
<polygon fill="black" stroke="black" points="283.61,-859.64 288.33,-850.16 278.72,-854.63 283.61,-859.64"/>
<text text-anchor="middle" x="287.99" y="-871.46" font-family="Times,serif" font-size="14.00">False</text>
</g>
<!-- 2 -->
<g id="node3" class="node">
<title>2</title>
<polygon fill="none" stroke="black" points="86,-775 0,-775 0,-739 86,-739 86,-775"/>
<text text-anchor="middle" x="43" y="-753.3" font-family="Times,serif" font-size="14.00">class = USA</text>
</g>
<!-- 1&#45;&gt;2 -->
<g id="edge2" class="edge">
<title>1&#45;&gt;2</title>
<path fill="none" stroke="black" d="M129.73,-811.83C114.44,-802.34 95.58,-790.64 79.37,-780.57"/>
<polygon fill="black" stroke="black" points="81.01,-777.47 70.67,-775.17 77.32,-783.42 81.01,-777.47"/>
</g>
<!-- 3 -->
<g id="node4" class="node">
<title>3</title>
<polygon fill="none" stroke="black" points="223.5,-776 104.5,-776 104.5,-738 223.5,-738 223.5,-776"/>
<text text-anchor="middle" x="164" y="-760.8" font-family="Times,serif" font-size="14.00">latitude &lt;= 42.324</text>
<text text-anchor="middle" x="164" y="-745.8" font-family="Times,serif" font-size="14.00">class = USA</text>
</g>
<!-- 1&#45;&gt;3 -->
<g id="edge3" class="edge">
<title>1&#45;&gt;3</title>
<path fill="none" stroke="black" d="M160.26,-811.83C160.8,-804.13 161.43,-794.97 162.03,-786.42"/>
<polygon fill="black" stroke="black" points="165.52,-786.63 162.72,-776.41 158.54,-786.15 165.52,-786.63"/>
</g>
<!-- 4 -->
<g id="node5" class="node">
<title>4</title>
<polygon fill="none" stroke="black" points="206.5,-701 107.5,-701 107.5,-665 206.5,-665 206.5,-701"/>
<text text-anchor="middle" x="157" y="-679.3" font-family="Times,serif" font-size="14.00">class = Canada</text>
</g>
<!-- 3&#45;&gt;4 -->
<g id="edge4" class="edge">
<title>3&#45;&gt;4</title>
<path fill="none" stroke="black" d="M162.23,-737.83C161.46,-729.89 160.54,-720.41 159.69,-711.63"/>
<polygon fill="black" stroke="black" points="163.14,-711.03 158.69,-701.42 156.18,-711.71 163.14,-711.03"/>
</g>
<!-- 5 -->
<g id="node6" class="node">
<title>5</title>
<polygon fill="none" stroke="black" points="311,-701 225,-701 225,-665 311,-665 311,-701"/>
<text text-anchor="middle" x="268" y="-679.3" font-family="Times,serif" font-size="14.00">class = USA</text>
</g>
<!-- 3&#45;&gt;5 -->
<g id="edge5" class="edge">
<title>3&#45;&gt;5</title>
<path fill="none" stroke="black" d="M190.24,-737.83C203.7,-728.52 220.23,-717.07 234.59,-707.13"/>
<polygon fill="black" stroke="black" points="236.97,-709.74 243.2,-701.17 232.98,-703.99 236.97,-709.74"/>
</g>
<!-- 7 -->
<g id="node8" class="node">
<title>7</title>
<polygon fill="none" stroke="black" points="341,-775 255,-775 255,-739 341,-739 341,-775"/>
<text text-anchor="middle" x="298" y="-753.3" font-family="Times,serif" font-size="14.00">class = USA</text>
</g>
<!-- 6&#45;&gt;7 -->
<g id="edge7" class="edge">
<title>6&#45;&gt;7</title>
<path fill="none" stroke="black" d="M304.73,-811.83C303.74,-803.89 302.55,-794.41 301.45,-785.63"/>
<polygon fill="black" stroke="black" points="304.89,-784.91 300.18,-775.42 297.94,-785.77 304.89,-784.91"/>
</g>
<!-- 8 -->
<g id="node9" class="node">
<title>8</title>
<polygon fill="none" stroke="black" points="464.5,-776 359.5,-776 359.5,-738 464.5,-738 464.5,-776"/>
<text text-anchor="middle" x="412" y="-760.8" font-family="Times,serif" font-size="14.00">latitude &lt;= 49.0</text>
<text text-anchor="middle" x="412" y="-745.8" font-family="Times,serif" font-size="14.00">class = Canada</text>
</g>
<!-- 6&#45;&gt;8 -->
<g id="edge8" class="edge">
<title>6&#45;&gt;8</title>
<path fill="none" stroke="black" d="M333.5,-811.83C346.68,-802.79 362.78,-791.75 376.97,-782.02"/>
<polygon fill="black" stroke="black" points="379.24,-784.7 385.51,-776.16 375.29,-778.93 379.24,-784.7"/>
</g>
<!-- 9 -->
<g id="node10" class="node">
<title>9</title>
<polygon fill="none" stroke="black" points="474,-702 340,-702 340,-664 474,-664 474,-702"/>
<text text-anchor="middle" x="407" y="-686.8" font-family="Times,serif" font-size="14.00">longitude &lt;= &#45;94.582</text>
<text text-anchor="middle" x="407" y="-671.8" font-family="Times,serif" font-size="14.00">class = Canada</text>
</g>
<!-- 8&#45;&gt;9 -->
<g id="edge9" class="edge">
<title>8&#45;&gt;9</title>
<path fill="none" stroke="black" d="M410.74,-737.83C410.2,-730.13 409.57,-720.97 408.97,-712.42"/>
<polygon fill="black" stroke="black" points="412.46,-712.15 408.28,-702.41 405.48,-712.63 412.46,-712.15"/>
</g>
<!-- 56 -->
<g id="node57" class="node">
<title>56</title>
<polygon fill="none" stroke="black" points="591.5,-701 492.5,-701 492.5,-665 591.5,-665 591.5,-701"/>
<text text-anchor="middle" x="542" y="-679.3" font-family="Times,serif" font-size="14.00">class = Canada</text>
</g>
<!-- 8&#45;&gt;56 -->
<g id="edge56" class="edge">
<title>8&#45;&gt;56</title>
<path fill="none" stroke="black" d="M444.8,-737.83C462.18,-728.21 483.66,-716.31 502,-706.15"/>
<polygon fill="black" stroke="black" points="503.94,-709.08 511,-701.17 500.55,-702.95 503.94,-709.08"/>
</g>
<!-- 10 -->
<g id="node11" class="node">
<title>10</title>
<polygon fill="none" stroke="black" points="400,-628 260,-628 260,-590 400,-590 400,-628"/>
<text text-anchor="middle" x="330" y="-612.8" font-family="Times,serif" font-size="14.00">longitude &lt;= &#45;123.222</text>
<text text-anchor="middle" x="330" y="-597.8" font-family="Times,serif" font-size="14.00">class = USA</text>
</g>
<!-- 9&#45;&gt;10 -->
<g id="edge10" class="edge">
<title>9&#45;&gt;10</title>
<path fill="none" stroke="black" d="M387.57,-663.83C378.27,-655.13 366.98,-644.58 356.87,-635.13"/>
<polygon fill="black" stroke="black" points="359.12,-632.44 349.42,-628.16 354.34,-637.55 359.12,-632.44"/>
</g>
<!-- 13 -->
<g id="node14" class="node">
<title>13</title>
<polygon fill="none" stroke="black" points="552,-628 418,-628 418,-590 552,-590 552,-628"/>
<text text-anchor="middle" x="485" y="-612.8" font-family="Times,serif" font-size="14.00">longitude &lt;= &#45;69.246</text>
<text text-anchor="middle" x="485" y="-597.8" font-family="Times,serif" font-size="14.00">class = Canada</text>
</g>
<!-- 9&#45;&gt;13 -->
<g id="edge13" class="edge">
<title>9&#45;&gt;13</title>
<path fill="none" stroke="black" d="M426.68,-663.83C436.11,-655.13 447.54,-644.58 457.78,-635.13"/>
<polygon fill="black" stroke="black" points="460.35,-637.52 465.32,-628.16 455.6,-632.37 460.35,-637.52"/>
</g>
<!-- 11 -->
<g id="node12" class="node">
<title>11</title>
<polygon fill="none" stroke="black" points="277.5,-553 178.5,-553 178.5,-517 277.5,-517 277.5,-553"/>
<text text-anchor="middle" x="228" y="-531.3" font-family="Times,serif" font-size="14.00">class = Canada</text>
</g>
<!-- 10&#45;&gt;11 -->
<g id="edge11" class="edge">
<title>10&#45;&gt;11</title>
<path fill="none" stroke="black" d="M304.26,-589.83C291.07,-580.52 274.85,-569.07 260.77,-559.13"/>
<polygon fill="black" stroke="black" points="262.51,-556.08 252.33,-553.17 258.48,-561.8 262.51,-556.08"/>
</g>
<!-- 12 -->
<g id="node13" class="node">
<title>12</title>
<polygon fill="none" stroke="black" points="382,-553 296,-553 296,-517 382,-517 382,-553"/>
<text text-anchor="middle" x="339" y="-531.3" font-family="Times,serif" font-size="14.00">class = USA</text>
</g>
<!-- 10&#45;&gt;12 -->
<g id="edge12" class="edge">
<title>10&#45;&gt;12</title>
<path fill="none" stroke="black" d="M332.27,-589.83C333.26,-581.89 334.45,-572.41 335.55,-563.63"/>
<polygon fill="black" stroke="black" points="339.06,-563.77 336.82,-553.42 332.11,-562.91 339.06,-563.77"/>
</g>
<!-- 14 -->
<g id="node15" class="node">
<title>14</title>
<polygon fill="none" stroke="black" points="536.5,-554 417.5,-554 417.5,-516 536.5,-516 536.5,-554"/>
<text text-anchor="middle" x="477" y="-538.8" font-family="Times,serif" font-size="14.00">latitude &lt;= 43.093</text>
<text text-anchor="middle" x="477" y="-523.8" font-family="Times,serif" font-size="14.00">class = Canada</text>
</g>
<!-- 13&#45;&gt;14 -->
<g id="edge14" class="edge">
<title>13&#45;&gt;14</title>
<path fill="none" stroke="black" d="M482.98,-589.83C482.13,-582.13 481.11,-572.97 480.16,-564.42"/>
<polygon fill="black" stroke="black" points="483.63,-563.97 479.05,-554.41 476.67,-564.74 483.63,-563.97"/>
</g>
<!-- 37 -->
<g id="node38" class="node">
<title>37</title>
<polygon fill="none" stroke="black" points="856,-554 722,-554 722,-516 856,-516 856,-554"/>
<text text-anchor="middle" x="789" y="-538.8" font-family="Times,serif" font-size="14.00">longitude &lt;= &#45;66.952</text>
<text text-anchor="middle" x="789" y="-523.8" font-family="Times,serif" font-size="14.00">class = Canada</text>
</g>
<!-- 13&#45;&gt;37 -->
<g id="edge37" class="edge">
<title>13&#45;&gt;37</title>
<path fill="none" stroke="black" d="M552.09,-592.11C599.28,-580.93 662.56,-565.95 711.84,-554.27"/>
<polygon fill="black" stroke="black" points="712.89,-557.62 721.82,-551.91 711.28,-550.81 712.89,-557.62"/>
</g>
<!-- 15 -->
<g id="node16" class="node">
<title>15</title>
<polygon fill="none" stroke="black" points="272,-480 138,-480 138,-442 272,-442 272,-480"/>
<text text-anchor="middle" x="205" y="-464.8" font-family="Times,serif" font-size="14.00">longitude &lt;= &#45;81.845</text>
<text text-anchor="middle" x="205" y="-449.8" font-family="Times,serif" font-size="14.00">class = Canada</text>
</g>
<!-- 14&#45;&gt;15 -->
<g id="edge15" class="edge">
<title>14&#45;&gt;15</title>
<path fill="none" stroke="black" d="M417.31,-518.2C377.56,-507.68 324.94,-493.75 282.04,-482.39"/>
<polygon fill="black" stroke="black" points="282.76,-478.96 272.2,-479.79 280.97,-485.73 282.76,-478.96"/>
</g>
<!-- 20 -->
<g id="node21" class="node">
<title>20</title>
<polygon fill="none" stroke="black" points="536.5,-480 417.5,-480 417.5,-442 536.5,-442 536.5,-480"/>
<text text-anchor="middle" x="477" y="-464.8" font-family="Times,serif" font-size="14.00">latitude &lt;= 44.992</text>
<text text-anchor="middle" x="477" y="-449.8" font-family="Times,serif" font-size="14.00">class = Canada</text>
</g>
<!-- 14&#45;&gt;20 -->
<g id="edge20" class="edge">
<title>14&#45;&gt;20</title>
<path fill="none" stroke="black" d="M477,-515.83C477,-508.13 477,-498.97 477,-490.42"/>
<polygon fill="black" stroke="black" points="480.5,-490.41 477,-480.41 473.5,-490.41 480.5,-490.41"/>
</g>
<!-- 16 -->
<g id="node17" class="node">
<title>16</title>
<polygon fill="none" stroke="black" points="127,-405 41,-405 41,-369 127,-369 127,-405"/>
<text text-anchor="middle" x="84" y="-383.3" font-family="Times,serif" font-size="14.00">class = USA</text>
</g>
<!-- 15&#45;&gt;16 -->
<g id="edge16" class="edge">
<title>15&#45;&gt;16</title>
<path fill="none" stroke="black" d="M174.47,-441.83C158.37,-432.25 138.49,-420.42 121.46,-410.29"/>
<polygon fill="black" stroke="black" points="123.24,-407.28 112.86,-405.17 119.66,-413.29 123.24,-407.28"/>
</g>
<!-- 17 -->
<g id="node18" class="node">
<title>17</title>
<polygon fill="none" stroke="black" points="264.5,-406 145.5,-406 145.5,-368 264.5,-368 264.5,-406"/>
<text text-anchor="middle" x="205" y="-390.8" font-family="Times,serif" font-size="14.00">latitude &lt;= 43.039</text>
<text text-anchor="middle" x="205" y="-375.8" font-family="Times,serif" font-size="14.00">class = Canada</text>
</g>
<!-- 15&#45;&gt;17 -->
<g id="edge17" class="edge">
<title>15&#45;&gt;17</title>
<path fill="none" stroke="black" d="M205,-441.83C205,-434.13 205,-424.97 205,-416.42"/>
<polygon fill="black" stroke="black" points="208.5,-416.41 205,-406.41 201.5,-416.41 208.5,-416.41"/>
</g>
<!-- 18 -->
<g id="node19" class="node">
<title>18</title>
<polygon fill="none" stroke="black" points="143.5,-331 44.5,-331 44.5,-295 143.5,-295 143.5,-331"/>
<text text-anchor="middle" x="94" y="-309.3" font-family="Times,serif" font-size="14.00">class = Canada</text>
</g>
<!-- 17&#45;&gt;18 -->
<g id="edge18" class="edge">
<title>17&#45;&gt;18</title>
<path fill="none" stroke="black" d="M176.99,-367.83C162.49,-358.43 144.65,-346.86 129.23,-336.85"/>
<polygon fill="black" stroke="black" points="130.77,-333.68 120.47,-331.17 126.96,-339.55 130.77,-333.68"/>
</g>
<!-- 19 -->
<g id="node20" class="node">
<title>19</title>
<polygon fill="none" stroke="black" points="248,-331 162,-331 162,-295 248,-295 248,-331"/>
<text text-anchor="middle" x="205" y="-309.3" font-family="Times,serif" font-size="14.00">class = USA</text>
</g>
<!-- 17&#45;&gt;19 -->
<g id="edge19" class="edge">
<title>17&#45;&gt;19</title>
<path fill="none" stroke="black" d="M205,-367.83C205,-359.89 205,-350.41 205,-341.63"/>
<polygon fill="black" stroke="black" points="208.5,-341.42 205,-331.42 201.5,-341.42 208.5,-341.42"/>
</g>
<!-- 21 -->
<g id="node22" class="node">
<title>21</title>
<polygon fill="none" stroke="black" points="468.5,-406 349.5,-406 349.5,-368 468.5,-368 468.5,-406"/>
<text text-anchor="middle" x="409" y="-390.8" font-family="Times,serif" font-size="14.00">latitude &lt;= 44.542</text>
<text text-anchor="middle" x="409" y="-375.8" font-family="Times,serif" font-size="14.00">class = Canada</text>
</g>
<!-- 20&#45;&gt;21 -->
<g id="edge21" class="edge">
<title>20&#45;&gt;21</title>
<path fill="none" stroke="black" d="M459.84,-441.83C451.85,-433.37 442.2,-423.15 433.46,-413.9"/>
<polygon fill="black" stroke="black" points="435.8,-411.28 426.39,-406.41 430.71,-416.09 435.8,-411.28"/>
</g>
<!-- 36 -->
<g id="node37" class="node">
<title>36</title>
<polygon fill="none" stroke="black" points="585.5,-405 486.5,-405 486.5,-369 585.5,-369 585.5,-405"/>
<text text-anchor="middle" x="536" y="-383.3" font-family="Times,serif" font-size="14.00">class = Canada</text>
</g>
<!-- 20&#45;&gt;36 -->
<g id="edge36" class="edge">
<title>20&#45;&gt;36</title>
<path fill="none" stroke="black" d="M491.89,-441.83C498.96,-433.2 507.54,-422.73 515.24,-413.33"/>
<polygon fill="black" stroke="black" points="518.1,-415.37 521.73,-405.42 512.68,-410.93 518.1,-415.37"/>
</g>
<!-- 22 -->
<g id="node23" class="node">
<title>22</title>
<polygon fill="none" stroke="black" points="400,-332 266,-332 266,-294 400,-294 400,-332"/>
<text text-anchor="middle" x="333" y="-316.8" font-family="Times,serif" font-size="14.00">longitude &lt;= &#45;79.076</text>
<text text-anchor="middle" x="333" y="-301.8" font-family="Times,serif" font-size="14.00">class = Canada</text>
</g>
<!-- 21&#45;&gt;22 -->
<g id="edge22" class="edge">
<title>21&#45;&gt;22</title>
<path fill="none" stroke="black" d="M389.82,-367.83C380.64,-359.13 369.5,-348.58 359.52,-339.13"/>
<polygon fill="black" stroke="black" points="361.84,-336.5 352.17,-332.16 357.02,-341.58 361.84,-336.5"/>
</g>
<!-- 31 -->
<g id="node32" class="node">
<title>31</title>
<polygon fill="none" stroke="black" points="537.5,-332 418.5,-332 418.5,-294 537.5,-294 537.5,-332"/>
<text text-anchor="middle" x="478" y="-316.8" font-family="Times,serif" font-size="14.00">latitude &lt;= 44.706</text>
<text text-anchor="middle" x="478" y="-301.8" font-family="Times,serif" font-size="14.00">class = USA</text>
</g>
<!-- 21&#45;&gt;31 -->
<g id="edge31" class="edge">
<title>21&#45;&gt;31</title>
<path fill="none" stroke="black" d="M426.41,-367.83C434.52,-359.37 444.32,-349.15 453.18,-339.9"/>
<polygon fill="black" stroke="black" points="455.96,-342.05 460.35,-332.41 450.91,-337.21 455.96,-342.05"/>
</g>
<!-- 23 -->
<g id="node24" class="node">
<title>23</title>
<polygon fill="none" stroke="black" points="255.5,-257 156.5,-257 156.5,-221 255.5,-221 255.5,-257"/>
<text text-anchor="middle" x="206" y="-235.3" font-family="Times,serif" font-size="14.00">class = Canada</text>
</g>
<!-- 22&#45;&gt;23 -->
<g id="edge23" class="edge">
<title>22&#45;&gt;23</title>
<path fill="none" stroke="black" d="M300.95,-293.83C284.06,-284.25 263.19,-272.42 245.32,-262.29"/>
<polygon fill="black" stroke="black" points="246.71,-259.06 236.29,-257.17 243.26,-265.15 246.71,-259.06"/>
</g>
<!-- 24 -->
<g id="node25" class="node">
<title>24</title>
<polygon fill="none" stroke="black" points="392.5,-258 273.5,-258 273.5,-220 392.5,-220 392.5,-258"/>
<text text-anchor="middle" x="333" y="-242.8" font-family="Times,serif" font-size="14.00">latitude &lt;= 44.168</text>
<text text-anchor="middle" x="333" y="-227.8" font-family="Times,serif" font-size="14.00">class = Canada</text>
</g>
<!-- 22&#45;&gt;24 -->
<g id="edge24" class="edge">
<title>22&#45;&gt;24</title>
<path fill="none" stroke="black" d="M333,-293.83C333,-286.13 333,-276.97 333,-268.42"/>
<polygon fill="black" stroke="black" points="336.5,-268.41 333,-258.41 329.5,-268.41 336.5,-268.41"/>
</g>
<!-- 25 -->
<g id="node26" class="node">
<title>25</title>
<polygon fill="none" stroke="black" points="278.5,-184 151.5,-184 151.5,-146 278.5,-146 278.5,-184"/>
<text text-anchor="middle" x="215" y="-168.8" font-family="Times,serif" font-size="14.00">longitude &lt;= &#45;79.03</text>
<text text-anchor="middle" x="215" y="-153.8" font-family="Times,serif" font-size="14.00">class = USA</text>
</g>
<!-- 24&#45;&gt;25 -->
<g id="edge25" class="edge">
<title>24&#45;&gt;25</title>
<path fill="none" stroke="black" d="M303.22,-219.83C288.13,-210.62 269.62,-199.33 253.47,-189.47"/>
<polygon fill="black" stroke="black" points="255.13,-186.38 244.77,-184.16 251.48,-192.36 255.13,-186.38"/>
</g>
<!-- 30 -->
<g id="node31" class="node">
<title>30</title>
<polygon fill="none" stroke="black" points="395.5,-183 296.5,-183 296.5,-147 395.5,-147 395.5,-183"/>
<text text-anchor="middle" x="346" y="-161.3" font-family="Times,serif" font-size="14.00">class = Canada</text>
</g>
<!-- 24&#45;&gt;30 -->
<g id="edge30" class="edge">
<title>24&#45;&gt;30</title>
<path fill="none" stroke="black" d="M336.28,-219.83C337.73,-211.81 339.46,-202.2 341.06,-193.34"/>
<polygon fill="black" stroke="black" points="344.52,-193.88 342.86,-183.42 337.63,-192.64 344.52,-193.88"/>
</g>
<!-- 26 -->
<g id="node27" class="node">
<title>26</title>
<polygon fill="none" stroke="black" points="198,-109 112,-109 112,-73 198,-73 198,-109"/>
<text text-anchor="middle" x="155" y="-87.3" font-family="Times,serif" font-size="14.00">class = USA</text>
</g>
<!-- 25&#45;&gt;26 -->
<g id="edge26" class="edge">
<title>25&#45;&gt;26</title>
<path fill="none" stroke="black" d="M199.86,-145.83C192.66,-137.2 183.94,-126.73 176.11,-117.33"/>
<polygon fill="black" stroke="black" points="178.61,-114.86 169.51,-109.42 173.23,-119.34 178.61,-114.86"/>
</g>
<!-- 27 -->
<g id="node28" class="node">
<title>27</title>
<polygon fill="none" stroke="black" points="335.5,-110 216.5,-110 216.5,-72 335.5,-72 335.5,-110"/>
<text text-anchor="middle" x="276" y="-94.8" font-family="Times,serif" font-size="14.00">latitude &lt;= 43.988</text>
<text text-anchor="middle" x="276" y="-79.8" font-family="Times,serif" font-size="14.00">class = Canada</text>
</g>
<!-- 25&#45;&gt;27 -->
<g id="edge27" class="edge">
<title>25&#45;&gt;27</title>
<path fill="none" stroke="black" d="M230.39,-145.83C237.49,-137.45 246.05,-127.35 253.82,-118.17"/>
<polygon fill="black" stroke="black" points="256.61,-120.31 260.4,-110.41 251.27,-115.78 256.61,-120.31"/>
</g>
<!-- 28 -->
<g id="node29" class="node">
<title>28</title>
<polygon fill="none" stroke="black" points="269.5,-36 170.5,-36 170.5,0 269.5,0 269.5,-36"/>
<text text-anchor="middle" x="220" y="-14.3" font-family="Times,serif" font-size="14.00">class = Canada</text>
</g>
<!-- 27&#45;&gt;28 -->
<g id="edge28" class="edge">
<title>27&#45;&gt;28</title>
<path fill="none" stroke="black" d="M261.58,-71.72C254.93,-63.29 246.93,-53.15 239.73,-44.02"/>
<polygon fill="black" stroke="black" points="242.35,-41.69 233.41,-36 236.86,-46.02 242.35,-41.69"/>
</g>
<!-- 29 -->
<g id="node30" class="node">
<title>29</title>
<polygon fill="none" stroke="black" points="374,-36 288,-36 288,0 374,0 374,-36"/>
<text text-anchor="middle" x="331" y="-14.3" font-family="Times,serif" font-size="14.00">class = USA</text>
</g>
<!-- 27&#45;&gt;29 -->
<g id="edge29" class="edge">
<title>27&#45;&gt;29</title>
<path fill="none" stroke="black" d="M290.16,-71.72C296.69,-63.29 304.55,-53.15 311.62,-44.02"/>
<polygon fill="black" stroke="black" points="314.47,-46.05 317.83,-36 308.94,-41.77 314.47,-46.05"/>
</g>
<!-- 32 -->
<g id="node33" class="node">
<title>32</title>
<polygon fill="none" stroke="black" points="497,-257 411,-257 411,-221 497,-221 497,-257"/>
<text text-anchor="middle" x="454" y="-235.3" font-family="Times,serif" font-size="14.00">class = USA</text>
</g>
<!-- 31&#45;&gt;32 -->
<g id="edge32" class="edge">
<title>31&#45;&gt;32</title>
<path fill="none" stroke="black" d="M471.94,-293.83C469.24,-285.72 466,-275.99 463.02,-267.05"/>
<polygon fill="black" stroke="black" points="466.29,-265.8 459.81,-257.42 459.65,-268.01 466.29,-265.8"/>
</g>
<!-- 33 -->
<g id="node34" class="node">
<title>33</title>
<polygon fill="none" stroke="black" points="649,-258 515,-258 515,-220 649,-220 649,-258"/>
<text text-anchor="middle" x="582" y="-242.8" font-family="Times,serif" font-size="14.00">longitude &lt;= &#45;84.392</text>
<text text-anchor="middle" x="582" y="-227.8" font-family="Times,serif" font-size="14.00">class = Canada</text>
</g>
<!-- 31&#45;&gt;33 -->
<g id="edge33" class="edge">
<title>31&#45;&gt;33</title>
<path fill="none" stroke="black" d="M504.24,-293.83C517.3,-284.79 533.25,-273.75 547.3,-264.02"/>
<polygon fill="black" stroke="black" points="549.54,-266.73 555.76,-258.16 545.55,-260.98 549.54,-266.73"/>
</g>
<!-- 34 -->
<g id="node35" class="node">
<title>34</title>
<polygon fill="none" stroke="black" points="523,-183 437,-183 437,-147 523,-147 523,-183"/>
<text text-anchor="middle" x="480" y="-161.3" font-family="Times,serif" font-size="14.00">class = USA</text>
</g>
<!-- 33&#45;&gt;34 -->
<g id="edge34" class="edge">
<title>33&#45;&gt;34</title>
<path fill="none" stroke="black" d="M556.26,-219.83C543.07,-210.52 526.85,-199.07 512.77,-189.13"/>
<polygon fill="black" stroke="black" points="514.51,-186.08 504.33,-183.17 510.48,-191.8 514.51,-186.08"/>
</g>
<!-- 35 -->
<g id="node36" class="node">
<title>35</title>
<polygon fill="none" stroke="black" points="640.5,-183 541.5,-183 541.5,-147 640.5,-147 640.5,-183"/>
<text text-anchor="middle" x="591" y="-161.3" font-family="Times,serif" font-size="14.00">class = Canada</text>
</g>
<!-- 33&#45;&gt;35 -->
<g id="edge35" class="edge">
<title>33&#45;&gt;35</title>
<path fill="none" stroke="black" d="M584.27,-219.83C585.26,-211.89 586.45,-202.41 587.55,-193.63"/>
<polygon fill="black" stroke="black" points="591.06,-193.77 588.82,-183.42 584.11,-192.91 591.06,-193.77"/>
</g>
<!-- 38 -->
<g id="node39" class="node">
<title>38</title>
<polygon fill="none" stroke="black" points="856,-480 722,-480 722,-442 856,-442 856,-480"/>
<text text-anchor="middle" x="789" y="-464.8" font-family="Times,serif" font-size="14.00">longitude &lt;= &#45;67.279</text>
<text text-anchor="middle" x="789" y="-449.8" font-family="Times,serif" font-size="14.00">class = USA</text>
</g>
<!-- 37&#45;&gt;38 -->
<g id="edge38" class="edge">
<title>37&#45;&gt;38</title>
<path fill="none" stroke="black" d="M789,-515.83C789,-508.13 789,-498.97 789,-490.42"/>
<polygon fill="black" stroke="black" points="792.5,-490.41 789,-480.41 785.5,-490.41 792.5,-490.41"/>
</g>
<!-- 55 -->
<g id="node56" class="node">
<title>55</title>
<polygon fill="none" stroke="black" points="973.5,-479 874.5,-479 874.5,-443 973.5,-443 973.5,-479"/>
<text text-anchor="middle" x="924" y="-457.3" font-family="Times,serif" font-size="14.00">class = Canada</text>
</g>
<!-- 37&#45;&gt;55 -->
<g id="edge55" class="edge">
<title>37&#45;&gt;55</title>
<path fill="none" stroke="black" d="M823.07,-515.83C841.19,-506.17 863.62,-494.2 882.72,-484.01"/>
<polygon fill="black" stroke="black" points="884.63,-486.97 891.8,-479.17 881.33,-480.79 884.63,-486.97"/>
</g>
<!-- 39 -->
<g id="node40" class="node">
<title>39</title>
<polygon fill="none" stroke="black" points="852.5,-406 725.5,-406 725.5,-368 852.5,-368 852.5,-406"/>
<text text-anchor="middle" x="789" y="-390.8" font-family="Times,serif" font-size="14.00">longitude &lt;= &#45;67.93</text>
<text text-anchor="middle" x="789" y="-375.8" font-family="Times,serif" font-size="14.00">class = Canada</text>
</g>
<!-- 38&#45;&gt;39 -->
<g id="edge39" class="edge">
<title>38&#45;&gt;39</title>
<path fill="none" stroke="black" d="M789,-441.83C789,-434.13 789,-424.97 789,-416.42"/>
<polygon fill="black" stroke="black" points="792.5,-416.41 789,-406.41 785.5,-416.41 792.5,-416.41"/>
</g>
<!-- 54 -->
<g id="node55" class="node">
<title>54</title>
<polygon fill="none" stroke="black" points="957,-405 871,-405 871,-369 957,-369 957,-405"/>
<text text-anchor="middle" x="914" y="-383.3" font-family="Times,serif" font-size="14.00">class = USA</text>
</g>
<!-- 38&#45;&gt;54 -->
<g id="edge54" class="edge">
<title>38&#45;&gt;54</title>
<path fill="none" stroke="black" d="M820.54,-441.83C837.17,-432.25 857.71,-420.42 875.3,-410.29"/>
<polygon fill="black" stroke="black" points="877.27,-413.2 884.19,-405.17 873.78,-407.13 877.27,-413.2"/>
</g>
<!-- 40 -->
<g id="node41" class="node">
<title>40</title>
<polygon fill="none" stroke="black" points="856,-332 722,-332 722,-294 856,-294 856,-332"/>
<text text-anchor="middle" x="789" y="-316.8" font-family="Times,serif" font-size="14.00">longitude &lt;= &#45;68.325</text>
<text text-anchor="middle" x="789" y="-301.8" font-family="Times,serif" font-size="14.00">class = USA</text>
</g>
<!-- 39&#45;&gt;40 -->
<g id="edge40" class="edge">
<title>39&#45;&gt;40</title>
<path fill="none" stroke="black" d="M789,-367.83C789,-360.13 789,-350.97 789,-342.42"/>
<polygon fill="black" stroke="black" points="792.5,-342.41 789,-332.41 785.5,-342.41 792.5,-342.41"/>
</g>
<!-- 49 -->
<g id="node50" class="node">
<title>49</title>
<polygon fill="none" stroke="black" points="1049.5,-332 930.5,-332 930.5,-294 1049.5,-294 1049.5,-332"/>
<text text-anchor="middle" x="990" y="-316.8" font-family="Times,serif" font-size="14.00">latitude &lt;= 45.565</text>
<text text-anchor="middle" x="990" y="-301.8" font-family="Times,serif" font-size="14.00">class = Canada</text>
</g>
<!-- 39&#45;&gt;49 -->
<g id="edge49" class="edge">
<title>39&#45;&gt;49</title>
<path fill="none" stroke="black" d="M839.46,-367.92C866.94,-358.08 901.12,-345.84 929.96,-335.51"/>
<polygon fill="black" stroke="black" points="931.28,-338.75 939.52,-332.08 928.92,-332.16 931.28,-338.75"/>
</g>
<!-- 41 -->
<g id="node42" class="node">
<title>41</title>
<polygon fill="none" stroke="black" points="801,-258 667,-258 667,-220 801,-220 801,-258"/>
<text text-anchor="middle" x="734" y="-242.8" font-family="Times,serif" font-size="14.00">longitude &lt;= &#45;68.915</text>
<text text-anchor="middle" x="734" y="-227.8" font-family="Times,serif" font-size="14.00">class = Canada</text>
</g>
<!-- 40&#45;&gt;41 -->
<g id="edge41" class="edge">
<title>40&#45;&gt;41</title>
<path fill="none" stroke="black" d="M775.12,-293.83C768.79,-285.54 761.16,-275.56 754.21,-266.45"/>
<polygon fill="black" stroke="black" points="756.92,-264.24 748.07,-258.41 751.35,-268.48 756.92,-264.24"/>
</g>
<!-- 48 -->
<g id="node49" class="node">
<title>48</title>
<polygon fill="none" stroke="black" points="905,-257 819,-257 819,-221 905,-221 905,-257"/>
<text text-anchor="middle" x="862" y="-235.3" font-family="Times,serif" font-size="14.00">class = USA</text>
</g>
<!-- 40&#45;&gt;48 -->
<g id="edge48" class="edge">
<title>40&#45;&gt;48</title>
<path fill="none" stroke="black" d="M807.42,-293.83C816.51,-284.87 827.6,-273.93 837.4,-264.26"/>
<polygon fill="black" stroke="black" points="839.93,-266.69 844.59,-257.17 835.01,-261.7 839.93,-266.69"/>
</g>
<!-- 42 -->
<g id="node43" class="node">
<title>42</title>
<polygon fill="none" stroke="black" points="765,-183 679,-183 679,-147 765,-147 765,-183"/>
<text text-anchor="middle" x="722" y="-161.3" font-family="Times,serif" font-size="14.00">class = USA</text>
</g>
<!-- 41&#45;&gt;42 -->
<g id="edge42" class="edge">
<title>41&#45;&gt;42</title>
<path fill="none" stroke="black" d="M730.97,-219.83C729.63,-211.81 728.03,-202.2 726.56,-193.34"/>
<polygon fill="black" stroke="black" points="730,-192.71 724.9,-183.42 723.09,-193.86 730,-192.71"/>
</g>
<!-- 43 -->
<g id="node44" class="node">
<title>43</title>
<polygon fill="none" stroke="black" points="902.5,-184 783.5,-184 783.5,-146 902.5,-146 902.5,-184"/>
<text text-anchor="middle" x="843" y="-168.8" font-family="Times,serif" font-size="14.00">latitude &lt;= 47.256</text>
<text text-anchor="middle" x="843" y="-153.8" font-family="Times,serif" font-size="14.00">class = Canada</text>
</g>
<!-- 41&#45;&gt;43 -->
<g id="edge43" class="edge">
<title>41&#45;&gt;43</title>
<path fill="none" stroke="black" d="M761.51,-219.83C775.32,-210.71 792.23,-199.54 807.05,-189.74"/>
<polygon fill="black" stroke="black" points="809.09,-192.59 815.5,-184.16 805.23,-186.75 809.09,-192.59"/>
</g>
<!-- 44 -->
<g id="node45" class="node">
<title>44</title>
<polygon fill="none" stroke="black" points="828.5,-109 729.5,-109 729.5,-73 828.5,-73 828.5,-109"/>
<text text-anchor="middle" x="779" y="-87.3" font-family="Times,serif" font-size="14.00">class = Canada</text>
</g>
<!-- 43&#45;&gt;44 -->
<g id="edge44" class="edge">
<title>43&#45;&gt;44</title>
<path fill="none" stroke="black" d="M826.85,-145.83C819.1,-137.11 809.68,-126.52 801.26,-117.05"/>
<polygon fill="black" stroke="black" points="803.74,-114.57 794.48,-109.42 798.51,-119.22 803.74,-114.57"/>
</g>
<!-- 45 -->
<g id="node46" class="node">
<title>45</title>
<polygon fill="none" stroke="black" points="965.5,-110 846.5,-110 846.5,-72 965.5,-72 965.5,-110"/>
<text text-anchor="middle" x="906" y="-94.8" font-family="Times,serif" font-size="14.00">latitude &lt;= 47.312</text>
<text text-anchor="middle" x="906" y="-79.8" font-family="Times,serif" font-size="14.00">class = Canada</text>
</g>
<!-- 43&#45;&gt;45 -->
<g id="edge45" class="edge">
<title>43&#45;&gt;45</title>
<path fill="none" stroke="black" d="M858.9,-145.83C866.23,-137.45 875.07,-127.35 883.1,-118.17"/>
<polygon fill="black" stroke="black" points="885.94,-120.24 889.89,-110.41 880.67,-115.63 885.94,-120.24"/>
</g>
<!-- 46 -->
<g id="node47" class="node">
<title>46</title>
<polygon fill="none" stroke="black" points="893,-36 807,-36 807,0 893,0 893,-36"/>
<text text-anchor="middle" x="850" y="-14.3" font-family="Times,serif" font-size="14.00">class = USA</text>
</g>
<!-- 45&#45;&gt;46 -->
<g id="edge46" class="edge">
<title>45&#45;&gt;46</title>
<path fill="none" stroke="black" d="M891.58,-71.72C884.93,-63.29 876.93,-53.15 869.73,-44.02"/>
<polygon fill="black" stroke="black" points="872.35,-41.69 863.41,-36 866.86,-46.02 872.35,-41.69"/>
</g>
<!-- 47 -->
<g id="node48" class="node">
<title>47</title>
<polygon fill="none" stroke="black" points="1010.5,-36 911.5,-36 911.5,0 1010.5,0 1010.5,-36"/>
<text text-anchor="middle" x="961" y="-14.3" font-family="Times,serif" font-size="14.00">class = Canada</text>
</g>
<!-- 45&#45;&gt;47 -->
<g id="edge47" class="edge">
<title>45&#45;&gt;47</title>
<path fill="none" stroke="black" d="M920.16,-71.72C926.69,-63.29 934.55,-53.15 941.62,-44.02"/>
<polygon fill="black" stroke="black" points="944.47,-46.05 947.83,-36 938.94,-41.77 944.47,-46.05"/>
</g>
<!-- 50 -->
<g id="node51" class="node">
<title>50</title>
<polygon fill="none" stroke="black" points="1057,-258 923,-258 923,-220 1057,-220 1057,-258"/>
<text text-anchor="middle" x="990" y="-242.8" font-family="Times,serif" font-size="14.00">longitude &lt;= &#45;67.355</text>
<text text-anchor="middle" x="990" y="-227.8" font-family="Times,serif" font-size="14.00">class = Canada</text>
</g>
<!-- 49&#45;&gt;50 -->
<g id="edge50" class="edge">
<title>49&#45;&gt;50</title>
<path fill="none" stroke="black" d="M990,-293.83C990,-286.13 990,-276.97 990,-268.42"/>
<polygon fill="black" stroke="black" points="993.5,-268.41 990,-258.41 986.5,-268.41 993.5,-268.41"/>
</g>
<!-- 53 -->
<g id="node54" class="node">
<title>53</title>
<polygon fill="none" stroke="black" points="1174.5,-257 1075.5,-257 1075.5,-221 1174.5,-221 1174.5,-257"/>
<text text-anchor="middle" x="1125" y="-235.3" font-family="Times,serif" font-size="14.00">class = Canada</text>
</g>
<!-- 49&#45;&gt;53 -->
<g id="edge53" class="edge">
<title>49&#45;&gt;53</title>
<path fill="none" stroke="black" d="M1024.07,-293.83C1042.19,-284.17 1064.62,-272.2 1083.72,-262.01"/>
<polygon fill="black" stroke="black" points="1085.63,-264.97 1092.8,-257.17 1082.33,-258.79 1085.63,-264.97"/>
</g>
<!-- 51 -->
<g id="node52" class="node">
<title>51</title>
<polygon fill="none" stroke="black" points="1024,-183 938,-183 938,-147 1024,-147 1024,-183"/>
<text text-anchor="middle" x="981" y="-161.3" font-family="Times,serif" font-size="14.00">class = USA</text>
</g>
<!-- 50&#45;&gt;51 -->
<g id="edge51" class="edge">
<title>50&#45;&gt;51</title>
<path fill="none" stroke="black" d="M987.73,-219.83C986.74,-211.89 985.55,-202.41 984.45,-193.63"/>
<polygon fill="black" stroke="black" points="987.89,-192.91 983.18,-183.42 980.94,-193.77 987.89,-192.91"/>
</g>
<!-- 52 -->
<g id="node53" class="node">
<title>52</title>
<polygon fill="none" stroke="black" points="1141.5,-183 1042.5,-183 1042.5,-147 1141.5,-147 1141.5,-183"/>
<text text-anchor="middle" x="1092" y="-161.3" font-family="Times,serif" font-size="14.00">class = Canada</text>
</g>
<!-- 50&#45;&gt;52 -->
<g id="edge52" class="edge">
<title>50&#45;&gt;52</title>
<path fill="none" stroke="black" d="M1015.74,-219.83C1028.93,-210.52 1045.15,-199.07 1059.23,-189.13"/>
<polygon fill="black" stroke="black" points="1061.52,-191.8 1067.67,-183.17 1057.49,-186.08 1061.52,-191.8"/>
</g>
</g>
</svg>
