<?xml version="1.0" encoding="UTF-8" standalone="no"?>
<!DOCTYPE svg PUBLIC "-//W3C//DTD SVG 1.1//EN"
 "http://www.w3.org/Graphics/SVG/1.1/DTD/svg11.dtd">
<!-- Generated by graphviz version 2.44.1 (20200629.0846)
 -->
<!-- Title: Tree Pages: 1 -->
<svg width="451pt" height="414pt"
 viewBox="0.00 0.00 451.00 414.00" xmlns="http://www.w3.org/2000/svg" xmlns:xlink="http://www.w3.org/1999/xlink">
<g id="graph0" class="graph" transform="scale(1 1) rotate(0) translate(4 410)">
<title>Tree</title>
<polygon fill="white" stroke="transparent" points="-4,4 -4,-410 447,-410 447,4 -4,4"/>
<!-- 0 -->
<g id="node1" class="node">
<title>0</title>
<polygon fill="none" stroke="black" points="192.5,-406 85.5,-406 85.5,-368 192.5,-368 192.5,-406"/>
<text text-anchor="middle" x="139" y="-390.8" font-family="Times,serif" font-size="14.00">lon &lt;= &#45;102.165</text>
<text text-anchor="middle" x="139" y="-375.8" font-family="Times,serif" font-size="14.00">class = red</text>
</g>
<!-- 1 -->
<g id="node2" class="node">
<title>1</title>
<polygon fill="none" stroke="black" points="126,-331 44,-331 44,-295 126,-295 126,-331"/>
<text text-anchor="middle" x="85" y="-309.3" font-family="Times,serif" font-size="14.00">class = blue</text>
</g>
<!-- 0&#45;&gt;1 -->
<g id="edge1" class="edge">
<title>0&#45;&gt;1</title>
<path fill="none" stroke="black" d="M125.37,-367.83C118.96,-359.28 111.21,-348.94 104.21,-339.62"/>
<polygon fill="black" stroke="black" points="106.86,-337.32 98.06,-331.42 101.26,-341.52 106.86,-337.32"/>
<text text-anchor="middle" x="94.53" y="-352.47" font-family="Times,serif" font-size="14.00">True</text>
</g>
<!-- 2 -->
<g id="node3" class="node">
<title>2</title>
<polygon fill="none" stroke="black" points="244,-332 144,-332 144,-294 244,-294 244,-332"/>
<text text-anchor="middle" x="194" y="-316.8" font-family="Times,serif" font-size="14.00">lon &lt;= &#45;82.517</text>
<text text-anchor="middle" x="194" y="-301.8" font-family="Times,serif" font-size="14.00">class = red</text>
</g>
<!-- 0&#45;&gt;2 -->
<g id="edge2" class="edge">
<title>0&#45;&gt;2</title>
<path fill="none" stroke="black" d="M152.88,-367.83C159.21,-359.54 166.84,-349.56 173.79,-340.45"/>
<polygon fill="black" stroke="black" points="176.65,-342.48 179.93,-332.41 171.08,-338.24 176.65,-342.48"/>
<text text-anchor="middle" x="183.25" y="-353.49" font-family="Times,serif" font-size="14.00">False</text>
</g>
<!-- 3 -->
<g id="node4" class="node">
<title>3</title>
<polygon fill="none" stroke="black" points="183,-258 91,-258 91,-220 183,-220 183,-258"/>
<text text-anchor="middle" x="137" y="-242.8" font-family="Times,serif" font-size="14.00">lat &lt;= 41.113</text>
<text text-anchor="middle" x="137" y="-227.8" font-family="Times,serif" font-size="14.00">class = red</text>
</g>
<!-- 2&#45;&gt;3 -->
<g id="edge3" class="edge">
<title>2&#45;&gt;3</title>
<path fill="none" stroke="black" d="M179.62,-293.83C173.05,-285.54 165.15,-275.56 157.94,-266.45"/>
<polygon fill="black" stroke="black" points="160.53,-264.08 151.58,-258.41 155.04,-268.43 160.53,-264.08"/>
</g>
<!-- 10 -->
<g id="node11" class="node">
<title>10</title>
<polygon fill="none" stroke="black" points="301,-258 201,-258 201,-220 301,-220 301,-258"/>
<text text-anchor="middle" x="251" y="-242.8" font-family="Times,serif" font-size="14.00">lon &lt;= &#45;81.529</text>
<text text-anchor="middle" x="251" y="-227.8" font-family="Times,serif" font-size="14.00">class = blue</text>
</g>
<!-- 2&#45;&gt;10 -->
<g id="edge10" class="edge">
<title>2&#45;&gt;10</title>
<path fill="none" stroke="black" d="M208.38,-293.83C214.95,-285.54 222.85,-275.56 230.06,-266.45"/>
<polygon fill="black" stroke="black" points="232.96,-268.43 236.42,-258.41 227.47,-264.08 232.96,-268.43"/>
</g>
<!-- 4 -->
<g id="node5" class="node">
<title>4</title>
<polygon fill="none" stroke="black" points="76,-183 0,-183 0,-147 76,-147 76,-183"/>
<text text-anchor="middle" x="38" y="-161.3" font-family="Times,serif" font-size="14.00">class = red</text>
</g>
<!-- 3&#45;&gt;4 -->
<g id="edge4" class="edge">
<title>3&#45;&gt;4</title>
<path fill="none" stroke="black" d="M112.02,-219.83C99.21,-210.52 83.47,-199.07 69.81,-189.13"/>
<polygon fill="black" stroke="black" points="71.76,-186.22 61.61,-183.17 67.64,-191.88 71.76,-186.22"/>
</g>
<!-- 5 -->
<g id="node6" class="node">
<title>5</title>
<polygon fill="none" stroke="black" points="186,-184 94,-184 94,-146 186,-146 186,-184"/>
<text text-anchor="middle" x="140" y="-168.8" font-family="Times,serif" font-size="14.00">lat &lt;= 41.532</text>
<text text-anchor="middle" x="140" y="-153.8" font-family="Times,serif" font-size="14.00">class = blue</text>
</g>
<!-- 3&#45;&gt;5 -->
<g id="edge5" class="edge">
<title>3&#45;&gt;5</title>
<path fill="none" stroke="black" d="M137.76,-219.83C138.08,-212.13 138.46,-202.97 138.82,-194.42"/>
<polygon fill="black" stroke="black" points="142.31,-194.55 139.23,-184.41 135.32,-194.26 142.31,-194.55"/>
</g>
<!-- 6 -->
<g id="node7" class="node">
<title>6</title>
<polygon fill="none" stroke="black" points="102,-109 20,-109 20,-73 102,-73 102,-109"/>
<text text-anchor="middle" x="61" y="-87.3" font-family="Times,serif" font-size="14.00">class = blue</text>
</g>
<!-- 5&#45;&gt;6 -->
<g id="edge6" class="edge">
<title>5&#45;&gt;6</title>
<path fill="none" stroke="black" d="M120.06,-145.83C110.13,-136.78 98,-125.72 87.31,-115.98"/>
<polygon fill="black" stroke="black" points="89.59,-113.32 79.84,-109.17 84.87,-118.49 89.59,-113.32"/>
</g>
<!-- 7 -->
<g id="node8" class="node">
<title>7</title>
<polygon fill="none" stroke="black" points="220,-110 120,-110 120,-72 220,-72 220,-110"/>
<text text-anchor="middle" x="170" y="-94.8" font-family="Times,serif" font-size="14.00">lon &lt;= &#45;84.774</text>
<text text-anchor="middle" x="170" y="-79.8" font-family="Times,serif" font-size="14.00">class = blue</text>
</g>
<!-- 5&#45;&gt;7 -->
<g id="edge7" class="edge">
<title>5&#45;&gt;7</title>
<path fill="none" stroke="black" d="M147.57,-145.83C150.85,-137.96 154.76,-128.57 158.39,-119.85"/>
<polygon fill="black" stroke="black" points="161.71,-120.99 162.33,-110.41 155.25,-118.3 161.71,-120.99"/>
</g>
<!-- 8 -->
<g id="node9" class="node">
<title>8</title>
<polygon fill="none" stroke="black" points="159,-36 83,-36 83,0 159,0 159,-36"/>
<text text-anchor="middle" x="121" y="-14.3" font-family="Times,serif" font-size="14.00">class = red</text>
</g>
<!-- 7&#45;&gt;8 -->
<g id="edge8" class="edge">
<title>7&#45;&gt;8</title>
<path fill="none" stroke="black" d="M157.38,-71.72C151.62,-63.37 144.71,-53.35 138.46,-44.3"/>
<polygon fill="black" stroke="black" points="141.3,-42.25 132.73,-36 135.53,-46.22 141.3,-42.25"/>
</g>
<!-- 9 -->
<g id="node10" class="node">
<title>9</title>
<polygon fill="none" stroke="black" points="259,-36 177,-36 177,0 259,0 259,-36"/>
<text text-anchor="middle" x="218" y="-14.3" font-family="Times,serif" font-size="14.00">class = blue</text>
</g>
<!-- 7&#45;&gt;9 -->
<g id="edge9" class="edge">
<title>7&#45;&gt;9</title>
<path fill="none" stroke="black" d="M182.36,-71.72C188,-63.37 194.78,-53.35 200.9,-44.3"/>
<polygon fill="black" stroke="black" points="203.8,-46.25 206.5,-36 198,-42.33 203.8,-46.25"/>
</g>
<!-- 11 -->
<g id="node12" class="node">
<title>11</title>
<polygon fill="none" stroke="black" points="290,-183 208,-183 208,-147 290,-147 290,-183"/>
<text text-anchor="middle" x="249" y="-161.3" font-family="Times,serif" font-size="14.00">class = blue</text>
</g>
<!-- 10&#45;&gt;11 -->
<g id="edge11" class="edge">
<title>10&#45;&gt;11</title>
<path fill="none" stroke="black" d="M250.5,-219.83C250.27,-211.89 250.01,-202.41 249.77,-193.63"/>
<polygon fill="black" stroke="black" points="253.26,-193.32 249.48,-183.42 246.26,-193.51 253.26,-193.32"/>
</g>
<!-- 12 -->
<g id="node13" class="node">
<title>12</title>
<polygon fill="none" stroke="black" points="400,-184 308,-184 308,-146 400,-146 400,-184"/>
<text text-anchor="middle" x="354" y="-168.8" font-family="Times,serif" font-size="14.00">lat &lt;= 37.015</text>
<text text-anchor="middle" x="354" y="-153.8" font-family="Times,serif" font-size="14.00">class = red</text>
</g>
<!-- 10&#45;&gt;12 -->
<g id="edge12" class="edge">
<title>10&#45;&gt;12</title>
<path fill="none" stroke="black" d="M276.99,-219.83C289.92,-210.79 305.72,-199.75 319.64,-190.02"/>
<polygon fill="black" stroke="black" points="321.83,-192.76 328.02,-184.16 317.82,-187.02 321.83,-192.76"/>
</g>
<!-- 13 -->
<g id="node14" class="node">
<title>13</title>
<polygon fill="none" stroke="black" points="343,-109 267,-109 267,-73 343,-73 343,-109"/>
<text text-anchor="middle" x="305" y="-87.3" font-family="Times,serif" font-size="14.00">class = red</text>
</g>
<!-- 12&#45;&gt;13 -->
<g id="edge13" class="edge">
<title>12&#45;&gt;13</title>
<path fill="none" stroke="black" d="M341.64,-145.83C335.88,-137.37 328.92,-127.15 322.63,-117.9"/>
<polygon fill="black" stroke="black" points="325.37,-115.72 316.85,-109.42 319.59,-119.65 325.37,-115.72"/>
</g>
<!-- 14 -->
<g id="node15" class="node">
<title>14</title>
<polygon fill="none" stroke="black" points="443,-109 361,-109 361,-73 443,-73 443,-109"/>
<text text-anchor="middle" x="402" y="-87.3" font-family="Times,serif" font-size="14.00">class = blue</text>
</g>
<!-- 12&#45;&gt;14 -->
<g id="edge14" class="edge">
<title>12&#45;&gt;14</title>
<path fill="none" stroke="black" d="M366.11,-145.83C371.75,-137.37 378.57,-127.15 384.73,-117.9"/>
<polygon fill="black" stroke="black" points="387.75,-119.68 390.39,-109.42 381.93,-115.8 387.75,-119.68"/>
</g>
</g>
</svg>
