<?xml version="1.0" encoding="UTF-8" standalone="no"?>
<!DOCTYPE svg PUBLIC "-//W3C//DTD SVG 1.1//EN"
 "http://www.w3.org/Graphics/SVG/1.1/DTD/svg11.dtd">
<!-- Generated by graphviz version 2.44.1 (20200629.0846)
 -->
<!-- Title: Tree Pages: 1 -->
<svg width="1130pt" height="932pt"
 viewBox="0.00 0.00 1129.50 932.00" xmlns="http://www.w3.org/2000/svg" xmlns:xlink="http://www.w3.org/1999/xlink">
<g id="graph0" class="graph" transform="scale(1 1) rotate(0) translate(4 928)">
<title>Tree</title>
<polygon fill="white" stroke="transparent" points="-4,4 -4,-928 1125.5,-928 1125.5,4 -4,4"/>
<!-- 0 -->
<g id="node1" class="node">
<title>0</title>
<polygon fill="none" stroke="black" points="285.5,-924 180.5,-924 180.5,-886 285.5,-886 285.5,-924"/>
<text text-anchor="middle" x="233" y="-908.8" font-family="Times,serif" font-size="14.00">latitude &lt;= 42.9</text>
<text text-anchor="middle" x="233" y="-893.8" font-family="Times,serif" font-size="14.00">class = Canada</text>
</g>
<!-- 1 -->
<g id="node2" class="node">
<title>1</title>
<polygon fill="none" stroke="black" points="218.5,-850 99.5,-850 99.5,-812 218.5,-812 218.5,-850"/>
<text text-anchor="middle" x="159" y="-834.8" font-family="Times,serif" font-size="14.00">latitude &lt;= 42.096</text>
<text text-anchor="middle" x="159" y="-819.8" font-family="Times,serif" font-size="14.00">class = USA</text>
</g>
<!-- 0&#45;&gt;1 -->
<g id="edge1" class="edge">
<title>0&#45;&gt;1</title>
<path fill="none" stroke="black" d="M214.33,-885.83C205.48,-877.22 194.75,-866.79 185.11,-857.4"/>
<polygon fill="black" stroke="black" points="187.28,-854.63 177.67,-850.16 182.39,-859.64 187.28,-854.63"/>
<text text-anchor="middle" x="178.01" y="-871.46" font-family="Times,serif" font-size="14.00">True</text>
</g>
<!-- 6 -->
<g id="node7" class="node">
<title>6</title>
<polygon fill="none" stroke="black" points="377,-850 237,-850 237,-812 377,-812 377,-850"/>
<text text-anchor="middle" x="307" y="-834.8" font-family="Times,serif" font-size="14.00">longitude &lt;= &#45;130.017</text>
<text text-anchor="middle" x="307" y="-819.8" font-family="Times,serif" font-size="14.00">class = Canada</text>
</g>
<!-- 0&#45;&gt;6 -->
<g id="edge6" class="edge">
<title>0&#45;&gt;6</title>
<path fill="none" stroke="black" d="M251.67,-885.83C260.52,-877.22 271.25,-866.79 280.89,-857.4"/>
<polygon fill="black" stroke="black" points="283.61,-859.64 288.33,-850.16 278.72,-854.63 283.61,-859.64"/>
<text text-anchor="middle" x="287.99" y="-871.46" font-family="Times,serif" font-size="14.00">False</text>
</g>
<!-- 2 -->
<g id="node3" class="node">
<title>2</title>
<polygon fill="none" stroke="black" points="86,-775 0,-775 0,-739 86,-739 86,-775"/>
<text text-anchor="middle" x="43" y="-753.3" font-family="Times,serif" font-size="14.00">class = USA</text>
</g>
<!-- 1&#45;&gt;2 -->
<g id="edge2" class="edge">
<title>1&#45;&gt;2</title>
<path fill="none" stroke="black" d="M129.73,-811.83C114.44,-802.34 95.58,-790.64 79.37,-780.57"/>
<polygon fill="black" stroke="black" points="81.01,-777.47 70.67,-775.17 77.32,-783.42 81.01,-777.47"/>
</g>
<!-- 3 -->
<g id="node4" class="node">
<title>3</title>
<polygon fill="none" stroke="black" points="223.5,-776 104.5,-776 104.5,-738 223.5,-738 223.5,-776"/>
<text text-anchor="middle" x="164" y="-760.8" font-family="Times,serif" font-size="14.00">latitude &lt;= 42.324</text>
<text text-anchor="middle" x="164" y="-745.8" font-family="Times,serif" font-size="14.00">class = USA</text>
</g>
<!-- 1&#45;&gt;3 -->
<g id="edge3" class="edge">
<title>1&#45;&gt;3</title>
<path fill="none" stroke="black" d="M160.26,-811.83C160.8,-804.13 161.43,-794.97 162.03,-786.42"/>
<polygon fill="black" stroke="black" points="165.52,-786.63 162.72,-776.41 158.54,-786.15 165.52,-786.63"/>
</g>
<!-- 4 -->
<g id="node5" class="node">
<title>4</title>
<polygon fill="none" stroke="black" points="206.5,-701 107.5,-701 107.5,-665 206.5,-665 206.5,-701"/>
<text text-anchor="middle" x="157" y="-679.3" font-family="Times,serif" font-size="14.00">class = Canada</text>
</g>
<!-- 3&#45;&gt;4 -->
<g id="edge4" class="edge">
<title>3&#45;&gt;4</title>
<path fill="none" stroke="black" d="M162.23,-737.83C161.46,-729.89 160.54,-720.41 159.69,-711.63"/>
<polygon fill="black" stroke="black" points="163.14,-711.03 158.69,-701.42 156.18,-711.71 163.14,-711.03"/>
</g>
<!-- 5 -->
<g id="node6" class="node">
<title>5</title>
<polygon fill="none" stroke="black" points="311,-701 225,-701 225,-665 311,-665 311,-701"/>
<text text-anchor="middle" x="268" y="-679.3" font-family="Times,serif" font-size="14.00">class = USA</text>
</g>
<!-- 3&#45;&gt;5 -->
<g id="edge5" class="edge">
<title>3&#45;&gt;5</title>
<path fill="none" stroke="black" d="M190.24,-737.83C203.7,-728.52 220.23,-717.07 234.59,-707.13"/>
<polygon fill="black" stroke="black" points="236.97,-709.74 243.2,-701.17 232.98,-703.99 236.97,-709.74"/>
</g>
<!-- 7 -->
<g id="node8" class="node">
<title>7</title>
<polygon fill="none" stroke="black" points="341,-775 255,-775 255,-739 341,-739 341,-775"/>
<text text-anchor="middle" x="298" y="-753.3" font-family="Times,serif" font-size="14.00">class = USA</text>
</g>
<!-- 6&#45;&gt;7 -->
<g id="edge7" class="edge">
<title>6&#45;&gt;7</title>
<path fill="none" stroke="black" d="M304.73,-811.83C303.74,-803.89 302.55,-794.41 301.45,-785.63"/>
<polygon fill="black" stroke="black" points="304.89,-784.91 300.18,-775.42 297.94,-785.77 304.89,-784.91"/>
</g>
<!-- 8 -->
<g id="node9" class="node">
<title>8</title>
<polygon fill="none" stroke="black" points="464.5,-776 359.5,-776 359.5,-738 464.5,-738 464.5,-776"/>
<text text-anchor="middle" x="412" y="-760.8" font-family="Times,serif" font-size="14.00">latitude &lt;= 49.0</text>
<text text-anchor="middle" x="412" y="-745.8" font-family="Times,serif" font-size="14.00">class = Canada</text>
</g>
<!-- 6&#45;&gt;8 -->
<g id="edge8" class="edge">
<title>6&#45;&gt;8</title>
<path fill="none" stroke="black" d="M333.5,-811.83C346.68,-802.79 362.78,-791.75 376.97,-782.02"/>
<polygon fill="black" stroke="black" points="379.24,-784.7 385.51,-776.16 375.29,-778.93 379.24,-784.7"/>
</g>
<!-- 9 -->
<g id="node10" class="node">
<title>9</title>
<polygon fill="none" stroke="black" points="474,-702 340,-702 340,-664 474,-664 474,-702"/>
<text text-anchor="middle" x="407" y="-686.8" font-family="Times,serif" font-size="14.00">longitude &lt;= &#45;94.582</text>
<text text-anchor="middle" x="407" y="-671.8" font-family="Times,serif" font-size="14.00">class = Canada</text>
</g>
<!-- 8&#45;&gt;9 -->
<g id="edge9" class="edge">
<title>8&#45;&gt;9</title>
<path fill="none" stroke="black" d="M410.74,-737.83C410.2,-730.13 409.57,-720.97 408.97,-712.42"/>
<polygon fill="black" stroke="black" points="412.46,-712.15 408.28,-702.41 405.48,-712.63 412.46,-712.15"/>
</g>
<!-- 56 -->
<g id="node57" class="node">
<title>56</title>
<polygon fill="none" stroke="black" points="591.5,-701 492.5,-701 492.5,-665 591.5,-665 591.5,-701"/>
<text text-anchor="middle" x="542" y="-679.3" font-family="Times,serif" font-size="14.00">class = Canada</text>
</g>
<!-- 8&#45;&gt;56 -->
<g id="edge56" class="edge">
<title>8&#45;&gt;56</title>
<path fill="none" stroke="black" d="M444.8,-737.83C462.18,-728.21 483.66,-716.31 502,-706.15"/>
<polygon fill="black" stroke="black" points="503.94,-709.08 511,-701.17 500.55,-702.95 503.94,-709.08"/>
</g>
<!-- 10 -->
<g id="node11" class="node">
<title>10</title>
<polygon fill="none" stroke="black" points="400,-628 260,-628 260,-590 400,-590 400,-628"/>
<text text-anchor="middle" x="330" y="-612.8" font-family="Times,serif" font-size="14.00">longitude &lt;= &#45;123.222</text>
<text text-anchor="middle" x="330" y="-597.8" font-family="Times,serif" font-size="14.00">class = USA</text>
</g>
<!-- 9&#45;&gt;10 -->
<g id="edge10" class="edge">
<title>9&#45;&gt;10</title>
<path fill="none" stroke="black" d="M387.57,-663.83C378.27,-655.13 366.98,-644.58 356.87,-635.13"/>
<polygon fill="black" stroke="black" points="359.12,-632.44 349.42,-628.16 354.34,-637.55 359.12,-632.44"/>
</g>
<!-- 13 -->
<g id="node14" class="node">
<title>13</title>
<polygon fill="none" stroke="black" points="552,-628 418,-628 418,-590 552,-590 552,-628"/>
<text text-anchor="middle" x="485" y="-612.8" font-family="Times,serif" font-size="14.00">longitude &lt;= &#45;69.246</text>
<text text-anchor="middle" x="485" y="-597.8" font-family="Times,serif" font-size="14.00">class = Canada</text>
</g>
<!-- 9&#45;&gt;13 -->
<g id="edge13" class="edge">
<title>9&#45;&gt;13</title>
<path fill="none" stroke="black" d="M426.68,-663.83C436.11,-655.13 447.54,-644.58 457.78,-635.13"/>
<polygon fill="black" stroke="black" points="460.35,-637.52 465.32,-628.16 455.6,-632.37 460.35,-637.52"/>
</g>
<!-- 11 -->
<g id="node12" class="node">
<title>11</title>
<polygon fill="none" stroke="black" points="277.5,-553 178.5,-553 178.5,-517 277.5,-517 277.5,-553"/>
<text text-anchor="middle" x="228" y="-531.3" font-family="Times,serif" font-size="14.00">class = Canada</text>
</g>
<!-- 10&#45;&gt;11 -->
<g id="edge11" class="edge">
<title>10&#45;&gt;11</title>
<path fill="none" stroke="black" d="M304.26,-589.83C291.07,-580.52 274.85,-569.07 260.77,-559.13"/>
<polygon fill="black" stroke="black" points="262.51,-556.08 252.33,-553.17 258.48,-561.8 262.51,-556.08"/>
</g>
<!-- 12 -->
<g id="node13" class="node">
<title>12</title>
<polygon fill="none" stroke="black" points="382,-553 296,-553 296,-517 382,-517 382,-553"/>
<text text-anchor="middle" x="339" y="-531.3" font-family="Times,serif" font-size="14.00">class = USA</text>
</g>
<!-- 10&#45;&gt;12 -->
<g id="edge12" class="edge">
<title>10&#45;&gt;12</title>
<path fill="none" stroke="black" d="M332.27,-589.83C333.26,-581.89 334.45,-572.41 335.55,-563.63"/>
<polygon fill="black" stroke="black" points="339.06,-563.77 336.82,-553.42 332.11,-562.91 339.06,-563.77"/>
</g>
<!-- 14 -->
<g id="node15" class="node">
<title>14</title>
<polygon fill="none" stroke="black" points="536.5,-554 417.5,-554 417.5,-516 536.5,-516 536.5,-554"/>
<text text-anchor="middle" x="477" y="-538.8" font-family="Times,serif" font-size="14.00">latitude &lt;= 43.093</text>
<text text-anchor="middle" x="477" y="-523.8" font-family="Times,serif" font-size="14.00">class = Canada</text>
</g>
<!-- 13&#45;&gt;14 -->
<g id="edge14" class="edge">
<title>13&#45;&gt;14</title>
<path fill="none" stroke="black" d="M482.98,-589.83C482.13,-582.13 481.11,-572.97 480.16,-564.42"/>
<polygon fill="black" stroke="black" points="483.63,-563.97 479.05,-554.41 476.67,-564.74 483.63,-563.97"/>
</g>
<!-- 37 -->
<g id="node38" class="node">
<title>37</title>
<polygon fill="none" stroke="black" points="731,-554 597,-554 597,-516 731,-516 731,-554"/>
<text text-anchor="middle" x="664" y="-538.8" font-family="Times,serif" font-size="14.00">longitude &lt;= &#45;66.952</text>
<text text-anchor="middle" x="664" y="-523.8" font-family="Times,serif" font-size="14.00">class = Canada</text>
</g>
<!-- 13&#45;&gt;37 -->
<g id="edge37" class="edge">
<title>13&#45;&gt;37</title>
<path fill="none" stroke="black" d="M530.17,-589.83C554.32,-580.12 584.24,-568.08 609.66,-557.86"/>
<polygon fill="black" stroke="black" points="611.18,-561.02 619.16,-554.04 608.57,-554.52 611.18,-561.02"/>
</g>
<!-- 15 -->
<g id="node16" class="node">
<title>15</title>
<polygon fill="none" stroke="black" points="356.5,-480 237.5,-480 237.5,-442 356.5,-442 356.5,-480"/>
<text text-anchor="middle" x="297" y="-464.8" font-family="Times,serif" font-size="14.00">latitude &lt;= 43.014</text>
<text text-anchor="middle" x="297" y="-449.8" font-family="Times,serif" font-size="14.00">class = Canada</text>
</g>
<!-- 14&#45;&gt;15 -->
<g id="edge15" class="edge">
<title>14&#45;&gt;15</title>
<path fill="none" stroke="black" d="M431.58,-515.83C407.29,-506.12 377.21,-494.08 351.65,-483.86"/>
<polygon fill="black" stroke="black" points="352.68,-480.5 342.09,-480.04 350.08,-487 352.68,-480.5"/>
</g>
<!-- 20 -->
<g id="node21" class="node">
<title>20</title>
<polygon fill="none" stroke="black" points="536.5,-480 417.5,-480 417.5,-442 536.5,-442 536.5,-480"/>
<text text-anchor="middle" x="477" y="-464.8" font-family="Times,serif" font-size="14.00">latitude &lt;= 44.992</text>
<text text-anchor="middle" x="477" y="-449.8" font-family="Times,serif" font-size="14.00">class = Canada</text>
</g>
<!-- 14&#45;&gt;20 -->
<g id="edge20" class="edge">
<title>14&#45;&gt;20</title>
<path fill="none" stroke="black" d="M477,-515.83C477,-508.13 477,-498.97 477,-490.42"/>
<polygon fill="black" stroke="black" points="480.5,-490.41 477,-480.41 473.5,-490.41 480.5,-490.41"/>
</g>
<!-- 16 -->
<g id="node17" class="node">
<title>16</title>
<polygon fill="none" stroke="black" points="226,-406 92,-406 92,-368 226,-368 226,-406"/>
<text text-anchor="middle" x="159" y="-390.8" font-family="Times,serif" font-size="14.00">longitude &lt;= &#45;81.845</text>
<text text-anchor="middle" x="159" y="-375.8" font-family="Times,serif" font-size="14.00">class = Canada</text>
</g>
<!-- 15&#45;&gt;16 -->
<g id="edge16" class="edge">
<title>15&#45;&gt;16</title>
<path fill="none" stroke="black" d="M262.18,-441.83C244.2,-432.45 222.08,-420.91 202.94,-410.92"/>
<polygon fill="black" stroke="black" points="204.3,-407.69 193.81,-406.16 201.06,-413.89 204.3,-407.69"/>
</g>
<!-- 19 -->
<g id="node20" class="node">
<title>19</title>
<polygon fill="none" stroke="black" points="340,-405 254,-405 254,-369 340,-369 340,-405"/>
<text text-anchor="middle" x="297" y="-383.3" font-family="Times,serif" font-size="14.00">class = USA</text>
</g>
<!-- 15&#45;&gt;19 -->
<g id="edge19" class="edge">
<title>15&#45;&gt;19</title>
<path fill="none" stroke="black" d="M297,-441.83C297,-433.89 297,-424.41 297,-415.63"/>
<polygon fill="black" stroke="black" points="300.5,-415.42 297,-405.42 293.5,-415.42 300.5,-415.42"/>
</g>
<!-- 17 -->
<g id="node18" class="node">
<title>17</title>
<polygon fill="none" stroke="black" points="91,-331 5,-331 5,-295 91,-295 91,-331"/>
<text text-anchor="middle" x="48" y="-309.3" font-family="Times,serif" font-size="14.00">class = USA</text>
</g>
<!-- 16&#45;&gt;17 -->
<g id="edge17" class="edge">
<title>16&#45;&gt;17</title>
<path fill="none" stroke="black" d="M130.99,-367.83C116.49,-358.43 98.65,-346.86 83.23,-336.85"/>
<polygon fill="black" stroke="black" points="84.77,-333.68 74.47,-331.17 80.96,-339.55 84.77,-333.68"/>
</g>
<!-- 18 -->
<g id="node19" class="node">
<title>18</title>
<polygon fill="none" stroke="black" points="208.5,-331 109.5,-331 109.5,-295 208.5,-295 208.5,-331"/>
<text text-anchor="middle" x="159" y="-309.3" font-family="Times,serif" font-size="14.00">class = Canada</text>
</g>
<!-- 16&#45;&gt;18 -->
<g id="edge18" class="edge">
<title>16&#45;&gt;18</title>
<path fill="none" stroke="black" d="M159,-367.83C159,-359.89 159,-350.41 159,-341.63"/>
<polygon fill="black" stroke="black" points="162.5,-341.42 159,-331.42 155.5,-341.42 162.5,-341.42"/>
</g>
<!-- 21 -->
<g id="node22" class="node">
<title>21</title>
<polygon fill="none" stroke="black" points="482.5,-406 363.5,-406 363.5,-368 482.5,-368 482.5,-406"/>
<text text-anchor="middle" x="423" y="-390.8" font-family="Times,serif" font-size="14.00">latitude &lt;= 44.542</text>
<text text-anchor="middle" x="423" y="-375.8" font-family="Times,serif" font-size="14.00">class = Canada</text>
</g>
<!-- 20&#45;&gt;21 -->
<g id="edge21" class="edge">
<title>20&#45;&gt;21</title>
<path fill="none" stroke="black" d="M463.37,-441.83C457.15,-433.54 449.67,-423.56 442.84,-414.45"/>
<polygon fill="black" stroke="black" points="445.61,-412.31 436.81,-406.41 440.01,-416.51 445.61,-412.31"/>
</g>
<!-- 36 -->
<g id="node37" class="node">
<title>36</title>
<polygon fill="none" stroke="black" points="599.5,-405 500.5,-405 500.5,-369 599.5,-369 599.5,-405"/>
<text text-anchor="middle" x="550" y="-383.3" font-family="Times,serif" font-size="14.00">class = Canada</text>
</g>
<!-- 20&#45;&gt;36 -->
<g id="edge36" class="edge">
<title>20&#45;&gt;36</title>
<path fill="none" stroke="black" d="M495.42,-441.83C504.51,-432.87 515.6,-421.93 525.4,-412.26"/>
<polygon fill="black" stroke="black" points="527.93,-414.69 532.59,-405.17 523.01,-409.7 527.93,-414.69"/>
</g>
<!-- 22 -->
<g id="node23" class="node">
<title>22</title>
<polygon fill="none" stroke="black" points="361,-332 227,-332 227,-294 361,-294 361,-332"/>
<text text-anchor="middle" x="294" y="-316.8" font-family="Times,serif" font-size="14.00">longitude &lt;= &#45;79.076</text>
<text text-anchor="middle" x="294" y="-301.8" font-family="Times,serif" font-size="14.00">class = Canada</text>
</g>
<!-- 21&#45;&gt;22 -->
<g id="edge22" class="edge">
<title>21&#45;&gt;22</title>
<path fill="none" stroke="black" d="M390.45,-367.83C373.8,-358.54 353.34,-347.12 335.56,-337.2"/>
<polygon fill="black" stroke="black" points="336.98,-333.98 326.54,-332.16 333.57,-340.09 336.98,-333.98"/>
</g>
<!-- 31 -->
<g id="node32" class="node">
<title>31</title>
<polygon fill="none" stroke="black" points="498.5,-332 379.5,-332 379.5,-294 498.5,-294 498.5,-332"/>
<text text-anchor="middle" x="439" y="-316.8" font-family="Times,serif" font-size="14.00">latitude &lt;= 44.706</text>
<text text-anchor="middle" x="439" y="-301.8" font-family="Times,serif" font-size="14.00">class = USA</text>
</g>
<!-- 21&#45;&gt;31 -->
<g id="edge31" class="edge">
<title>21&#45;&gt;31</title>
<path fill="none" stroke="black" d="M427.04,-367.83C428.75,-360.13 430.78,-350.97 432.69,-342.42"/>
<polygon fill="black" stroke="black" points="436.16,-342.93 434.91,-332.41 429.32,-341.42 436.16,-342.93"/>
</g>
<!-- 23 -->
<g id="node24" class="node">
<title>23</title>
<polygon fill="none" stroke="black" points="216.5,-257 117.5,-257 117.5,-221 216.5,-221 216.5,-257"/>
<text text-anchor="middle" x="167" y="-235.3" font-family="Times,serif" font-size="14.00">class = Canada</text>
</g>
<!-- 22&#45;&gt;23 -->
<g id="edge23" class="edge">
<title>22&#45;&gt;23</title>
<path fill="none" stroke="black" d="M261.95,-293.83C245.06,-284.25 224.19,-272.42 206.32,-262.29"/>
<polygon fill="black" stroke="black" points="207.71,-259.06 197.29,-257.17 204.26,-265.15 207.71,-259.06"/>
</g>
<!-- 24 -->
<g id="node25" class="node">
<title>24</title>
<polygon fill="none" stroke="black" points="353.5,-258 234.5,-258 234.5,-220 353.5,-220 353.5,-258"/>
<text text-anchor="middle" x="294" y="-242.8" font-family="Times,serif" font-size="14.00">latitude &lt;= 44.168</text>
<text text-anchor="middle" x="294" y="-227.8" font-family="Times,serif" font-size="14.00">class = Canada</text>
</g>
<!-- 22&#45;&gt;24 -->
<g id="edge24" class="edge">
<title>22&#45;&gt;24</title>
<path fill="none" stroke="black" d="M294,-293.83C294,-286.13 294,-276.97 294,-268.42"/>
<polygon fill="black" stroke="black" points="297.5,-268.41 294,-258.41 290.5,-268.41 297.5,-268.41"/>
</g>
<!-- 25 -->
<g id="node26" class="node">
<title>25</title>
<polygon fill="none" stroke="black" points="233.5,-184 114.5,-184 114.5,-146 233.5,-146 233.5,-184"/>
<text text-anchor="middle" x="174" y="-168.8" font-family="Times,serif" font-size="14.00">latitude &lt;= 43.511</text>
<text text-anchor="middle" x="174" y="-153.8" font-family="Times,serif" font-size="14.00">class = USA</text>
</g>
<!-- 24&#45;&gt;25 -->
<g id="edge25" class="edge">
<title>24&#45;&gt;25</title>
<path fill="none" stroke="black" d="M263.72,-219.83C248.37,-210.62 229.55,-199.33 213.12,-189.47"/>
<polygon fill="black" stroke="black" points="214.65,-186.31 204.27,-184.16 211.05,-192.31 214.65,-186.31"/>
</g>
<!-- 30 -->
<g id="node31" class="node">
<title>30</title>
<polygon fill="none" stroke="black" points="350.5,-183 251.5,-183 251.5,-147 350.5,-147 350.5,-183"/>
<text text-anchor="middle" x="301" y="-161.3" font-family="Times,serif" font-size="14.00">class = Canada</text>
</g>
<!-- 24&#45;&gt;30 -->
<g id="edge30" class="edge">
<title>24&#45;&gt;30</title>
<path fill="none" stroke="black" d="M295.77,-219.83C296.54,-211.89 297.46,-202.41 298.31,-193.63"/>
<polygon fill="black" stroke="black" points="301.82,-193.71 299.31,-183.42 294.86,-193.03 301.82,-193.71"/>
</g>
<!-- 26 -->
<g id="node27" class="node">
<title>26</title>
<polygon fill="none" stroke="black" points="157,-109 71,-109 71,-73 157,-73 157,-109"/>
<text text-anchor="middle" x="114" y="-87.3" font-family="Times,serif" font-size="14.00">class = USA</text>
</g>
<!-- 25&#45;&gt;26 -->
<g id="edge26" class="edge">
<title>25&#45;&gt;26</title>
<path fill="none" stroke="black" d="M158.86,-145.83C151.66,-137.2 142.94,-126.73 135.11,-117.33"/>
<polygon fill="black" stroke="black" points="137.61,-114.86 128.51,-109.42 132.23,-119.34 137.61,-114.86"/>
</g>
<!-- 27 -->
<g id="node28" class="node">
<title>27</title>
<polygon fill="none" stroke="black" points="294.5,-110 175.5,-110 175.5,-72 294.5,-72 294.5,-110"/>
<text text-anchor="middle" x="235" y="-94.8" font-family="Times,serif" font-size="14.00">latitude &lt;= 43.988</text>
<text text-anchor="middle" x="235" y="-79.8" font-family="Times,serif" font-size="14.00">class = Canada</text>
</g>
<!-- 25&#45;&gt;27 -->
<g id="edge27" class="edge">
<title>25&#45;&gt;27</title>
<path fill="none" stroke="black" d="M189.39,-145.83C196.49,-137.45 205.05,-127.35 212.82,-118.17"/>
<polygon fill="black" stroke="black" points="215.61,-120.31 219.4,-110.41 210.27,-115.78 215.61,-120.31"/>
</g>
<!-- 28 -->
<g id="node29" class="node">
<title>28</title>
<polygon fill="none" stroke="black" points="228.5,-36 129.5,-36 129.5,0 228.5,0 228.5,-36"/>
<text text-anchor="middle" x="179" y="-14.3" font-family="Times,serif" font-size="14.00">class = Canada</text>
</g>
<!-- 27&#45;&gt;28 -->
<g id="edge28" class="edge">
<title>27&#45;&gt;28</title>
<path fill="none" stroke="black" d="M220.58,-71.72C213.93,-63.29 205.93,-53.15 198.73,-44.02"/>
<polygon fill="black" stroke="black" points="201.35,-41.69 192.41,-36 195.86,-46.02 201.35,-41.69"/>
</g>
<!-- 29 -->
<g id="node30" class="node">
<title>29</title>
<polygon fill="none" stroke="black" points="333,-36 247,-36 247,0 333,0 333,-36"/>
<text text-anchor="middle" x="290" y="-14.3" font-family="Times,serif" font-size="14.00">class = USA</text>
</g>
<!-- 27&#45;&gt;29 -->
<g id="edge29" class="edge">
<title>27&#45;&gt;29</title>
<path fill="none" stroke="black" d="M249.16,-71.72C255.69,-63.29 263.55,-53.15 270.62,-44.02"/>
<polygon fill="black" stroke="black" points="273.47,-46.05 276.83,-36 267.94,-41.77 273.47,-46.05"/>
</g>
<!-- 32 -->
<g id="node33" class="node">
<title>32</title>
<polygon fill="none" stroke="black" points="458,-257 372,-257 372,-221 458,-221 458,-257"/>
<text text-anchor="middle" x="415" y="-235.3" font-family="Times,serif" font-size="14.00">class = USA</text>
</g>
<!-- 31&#45;&gt;32 -->
<g id="edge32" class="edge">
<title>31&#45;&gt;32</title>
<path fill="none" stroke="black" d="M432.94,-293.83C430.24,-285.72 427,-275.99 424.02,-267.05"/>
<polygon fill="black" stroke="black" points="427.29,-265.8 420.81,-257.42 420.65,-268.01 427.29,-265.8"/>
</g>
<!-- 33 -->
<g id="node34" class="node">
<title>33</title>
<polygon fill="none" stroke="black" points="595.5,-258 476.5,-258 476.5,-220 595.5,-220 595.5,-258"/>
<text text-anchor="middle" x="536" y="-242.8" font-family="Times,serif" font-size="14.00">latitude &lt;= 44.848</text>
<text text-anchor="middle" x="536" y="-227.8" font-family="Times,serif" font-size="14.00">class = Canada</text>
</g>
<!-- 31&#45;&gt;33 -->
<g id="edge33" class="edge">
<title>31&#45;&gt;33</title>
<path fill="none" stroke="black" d="M463.48,-293.83C475.54,-284.88 490.25,-273.96 503.27,-264.3"/>
<polygon fill="black" stroke="black" points="505.59,-266.93 511.53,-258.16 501.41,-261.31 505.59,-266.93"/>
</g>
<!-- 34 -->
<g id="node35" class="node">
<title>34</title>
<polygon fill="none" stroke="black" points="483.5,-183 384.5,-183 384.5,-147 483.5,-147 483.5,-183"/>
<text text-anchor="middle" x="434" y="-161.3" font-family="Times,serif" font-size="14.00">class = Canada</text>
</g>
<!-- 33&#45;&gt;34 -->
<g id="edge34" class="edge">
<title>33&#45;&gt;34</title>
<path fill="none" stroke="black" d="M510.26,-219.83C497.07,-210.52 480.85,-199.07 466.77,-189.13"/>
<polygon fill="black" stroke="black" points="468.51,-186.08 458.33,-183.17 464.48,-191.8 468.51,-186.08"/>
</g>
<!-- 35 -->
<g id="node36" class="node">
<title>35</title>
<polygon fill="none" stroke="black" points="588,-183 502,-183 502,-147 588,-147 588,-183"/>
<text text-anchor="middle" x="545" y="-161.3" font-family="Times,serif" font-size="14.00">class = USA</text>
</g>
<!-- 33&#45;&gt;35 -->
<g id="edge35" class="edge">
<title>33&#45;&gt;35</title>
<path fill="none" stroke="black" d="M538.27,-219.83C539.26,-211.89 540.45,-202.41 541.55,-193.63"/>
<polygon fill="black" stroke="black" points="545.06,-193.77 542.82,-183.42 538.11,-192.91 545.06,-193.77"/>
</g>
<!-- 38 -->
<g id="node39" class="node">
<title>38</title>
<polygon fill="none" stroke="black" points="723.5,-480 604.5,-480 604.5,-442 723.5,-442 723.5,-480"/>
<text text-anchor="middle" x="664" y="-464.8" font-family="Times,serif" font-size="14.00">latitude &lt;= 45.195</text>
<text text-anchor="middle" x="664" y="-449.8" font-family="Times,serif" font-size="14.00">class = USA</text>
</g>
<!-- 37&#45;&gt;38 -->
<g id="edge38" class="edge">
<title>37&#45;&gt;38</title>
<path fill="none" stroke="black" d="M664,-515.83C664,-508.13 664,-498.97 664,-490.42"/>
<polygon fill="black" stroke="black" points="667.5,-490.41 664,-480.41 660.5,-490.41 667.5,-490.41"/>
</g>
<!-- 55 -->
<g id="node56" class="node">
<title>55</title>
<polygon fill="none" stroke="black" points="840.5,-479 741.5,-479 741.5,-443 840.5,-443 840.5,-479"/>
<text text-anchor="middle" x="791" y="-457.3" font-family="Times,serif" font-size="14.00">class = Canada</text>
</g>
<!-- 37&#45;&gt;55 -->
<g id="edge55" class="edge">
<title>37&#45;&gt;55</title>
<path fill="none" stroke="black" d="M696.05,-515.83C712.94,-506.25 733.81,-494.42 751.68,-484.29"/>
<polygon fill="black" stroke="black" points="753.74,-487.15 760.71,-479.17 750.29,-481.06 753.74,-487.15"/>
</g>
<!-- 39 -->
<g id="node40" class="node">
<title>39</title>
<polygon fill="none" stroke="black" points="707,-405 621,-405 621,-369 707,-369 707,-405"/>
<text text-anchor="middle" x="664" y="-383.3" font-family="Times,serif" font-size="14.00">class = USA</text>
</g>
<!-- 38&#45;&gt;39 -->
<g id="edge39" class="edge">
<title>38&#45;&gt;39</title>
<path fill="none" stroke="black" d="M664,-441.83C664,-433.89 664,-424.41 664,-415.63"/>
<polygon fill="black" stroke="black" points="667.5,-415.42 664,-405.42 660.5,-415.42 667.5,-415.42"/>
</g>
<!-- 40 -->
<g id="node41" class="node">
<title>40</title>
<polygon fill="none" stroke="black" points="853.5,-406 726.5,-406 726.5,-368 853.5,-368 853.5,-406"/>
<text text-anchor="middle" x="790" y="-390.8" font-family="Times,serif" font-size="14.00">longitude &lt;= &#45;67.93</text>
<text text-anchor="middle" x="790" y="-375.8" font-family="Times,serif" font-size="14.00">class = Canada</text>
</g>
<!-- 38&#45;&gt;40 -->
<g id="edge40" class="edge">
<title>38&#45;&gt;40</title>
<path fill="none" stroke="black" d="M695.8,-441.83C712.06,-432.54 732.04,-421.12 749.41,-411.2"/>
<polygon fill="black" stroke="black" points="751.27,-414.16 758.22,-406.16 747.8,-408.09 751.27,-414.16"/>
</g>
<!-- 41 -->
<g id="node42" class="node">
<title>41</title>
<polygon fill="none" stroke="black" points="857,-332 723,-332 723,-294 857,-294 857,-332"/>
<text text-anchor="middle" x="790" y="-316.8" font-family="Times,serif" font-size="14.00">longitude &lt;= &#45;68.325</text>
<text text-anchor="middle" x="790" y="-301.8" font-family="Times,serif" font-size="14.00">class = USA</text>
</g>
<!-- 40&#45;&gt;41 -->
<g id="edge41" class="edge">
<title>40&#45;&gt;41</title>
<path fill="none" stroke="black" d="M790,-367.83C790,-360.13 790,-350.97 790,-342.42"/>
<polygon fill="black" stroke="black" points="793.5,-342.41 790,-332.41 786.5,-342.41 793.5,-342.41"/>
</g>
<!-- 50 -->
<g id="node51" class="node">
<title>50</title>
<polygon fill="none" stroke="black" points="996.5,-332 877.5,-332 877.5,-294 996.5,-294 996.5,-332"/>
<text text-anchor="middle" x="937" y="-316.8" font-family="Times,serif" font-size="14.00">latitude &lt;= 45.565</text>
<text text-anchor="middle" x="937" y="-301.8" font-family="Times,serif" font-size="14.00">class = Canada</text>
</g>
<!-- 40&#45;&gt;50 -->
<g id="edge50" class="edge">
<title>40&#45;&gt;50</title>
<path fill="none" stroke="black" d="M827.09,-367.83C846.49,-358.33 870.42,-346.61 890.99,-336.54"/>
<polygon fill="black" stroke="black" points="892.73,-339.58 900.17,-332.04 889.65,-333.29 892.73,-339.58"/>
</g>
<!-- 42 -->
<g id="node43" class="node">
<title>42</title>
<polygon fill="none" stroke="black" points="748,-258 614,-258 614,-220 748,-220 748,-258"/>
<text text-anchor="middle" x="681" y="-242.8" font-family="Times,serif" font-size="14.00">longitude &lt;= &#45;68.915</text>
<text text-anchor="middle" x="681" y="-227.8" font-family="Times,serif" font-size="14.00">class = Canada</text>
</g>
<!-- 41&#45;&gt;42 -->
<g id="edge42" class="edge">
<title>41&#45;&gt;42</title>
<path fill="none" stroke="black" d="M762.49,-293.83C748.68,-284.71 731.77,-273.54 716.95,-263.74"/>
<polygon fill="black" stroke="black" points="718.77,-260.75 708.5,-258.16 714.91,-266.59 718.77,-260.75"/>
</g>
<!-- 49 -->
<g id="node50" class="node">
<title>49</title>
<polygon fill="none" stroke="black" points="852,-257 766,-257 766,-221 852,-221 852,-257"/>
<text text-anchor="middle" x="809" y="-235.3" font-family="Times,serif" font-size="14.00">class = USA</text>
</g>
<!-- 41&#45;&gt;49 -->
<g id="edge49" class="edge">
<title>41&#45;&gt;49</title>
<path fill="none" stroke="black" d="M794.79,-293.83C796.91,-285.81 799.45,-276.2 801.79,-267.34"/>
<polygon fill="black" stroke="black" points="805.24,-267.98 804.4,-257.42 798.47,-266.19 805.24,-267.98"/>
</g>
<!-- 43 -->
<g id="node44" class="node">
<title>43</title>
<polygon fill="none" stroke="black" points="712,-183 626,-183 626,-147 712,-147 712,-183"/>
<text text-anchor="middle" x="669" y="-161.3" font-family="Times,serif" font-size="14.00">class = USA</text>
</g>
<!-- 42&#45;&gt;43 -->
<g id="edge43" class="edge">
<title>42&#45;&gt;43</title>
<path fill="none" stroke="black" d="M677.97,-219.83C676.63,-211.81 675.03,-202.2 673.56,-193.34"/>
<polygon fill="black" stroke="black" points="677,-192.71 671.9,-183.42 670.09,-193.86 677,-192.71"/>
</g>
<!-- 44 -->
<g id="node45" class="node">
<title>44</title>
<polygon fill="none" stroke="black" points="849.5,-184 730.5,-184 730.5,-146 849.5,-146 849.5,-184"/>
<text text-anchor="middle" x="790" y="-168.8" font-family="Times,serif" font-size="14.00">latitude &lt;= 47.256</text>
<text text-anchor="middle" x="790" y="-153.8" font-family="Times,serif" font-size="14.00">class = Canada</text>
</g>
<!-- 42&#45;&gt;44 -->
<g id="edge44" class="edge">
<title>42&#45;&gt;44</title>
<path fill="none" stroke="black" d="M708.51,-219.83C722.32,-210.71 739.23,-199.54 754.05,-189.74"/>
<polygon fill="black" stroke="black" points="756.09,-192.59 762.5,-184.16 752.23,-186.75 756.09,-192.59"/>
</g>
<!-- 45 -->
<g id="node46" class="node">
<title>45</title>
<polygon fill="none" stroke="black" points="775.5,-109 676.5,-109 676.5,-73 775.5,-73 775.5,-109"/>
<text text-anchor="middle" x="726" y="-87.3" font-family="Times,serif" font-size="14.00">class = Canada</text>
</g>
<!-- 44&#45;&gt;45 -->
<g id="edge45" class="edge">
<title>44&#45;&gt;45</title>
<path fill="none" stroke="black" d="M773.85,-145.83C766.1,-137.11 756.68,-126.52 748.26,-117.05"/>
<polygon fill="black" stroke="black" points="750.74,-114.57 741.48,-109.42 745.51,-119.22 750.74,-114.57"/>
</g>
<!-- 46 -->
<g id="node47" class="node">
<title>46</title>
<polygon fill="none" stroke="black" points="912.5,-110 793.5,-110 793.5,-72 912.5,-72 912.5,-110"/>
<text text-anchor="middle" x="853" y="-94.8" font-family="Times,serif" font-size="14.00">latitude &lt;= 47.312</text>
<text text-anchor="middle" x="853" y="-79.8" font-family="Times,serif" font-size="14.00">class = Canada</text>
</g>
<!-- 44&#45;&gt;46 -->
<g id="edge46" class="edge">
<title>44&#45;&gt;46</title>
<path fill="none" stroke="black" d="M805.9,-145.83C813.23,-137.45 822.07,-127.35 830.1,-118.17"/>
<polygon fill="black" stroke="black" points="832.94,-120.24 836.89,-110.41 827.67,-115.63 832.94,-120.24"/>
</g>
<!-- 47 -->
<g id="node48" class="node">
<title>47</title>
<polygon fill="none" stroke="black" points="840,-36 754,-36 754,0 840,0 840,-36"/>
<text text-anchor="middle" x="797" y="-14.3" font-family="Times,serif" font-size="14.00">class = USA</text>
</g>
<!-- 46&#45;&gt;47 -->
<g id="edge47" class="edge">
<title>46&#45;&gt;47</title>
<path fill="none" stroke="black" d="M838.58,-71.72C831.93,-63.29 823.93,-53.15 816.73,-44.02"/>
<polygon fill="black" stroke="black" points="819.35,-41.69 810.41,-36 813.86,-46.02 819.35,-41.69"/>
</g>
<!-- 48 -->
<g id="node49" class="node">
<title>48</title>
<polygon fill="none" stroke="black" points="957.5,-36 858.5,-36 858.5,0 957.5,0 957.5,-36"/>
<text text-anchor="middle" x="908" y="-14.3" font-family="Times,serif" font-size="14.00">class = Canada</text>
</g>
<!-- 46&#45;&gt;48 -->
<g id="edge48" class="edge">
<title>46&#45;&gt;48</title>
<path fill="none" stroke="black" d="M867.16,-71.72C873.69,-63.29 881.55,-53.15 888.62,-44.02"/>
<polygon fill="black" stroke="black" points="891.47,-46.05 894.83,-36 885.94,-41.77 891.47,-46.05"/>
</g>
<!-- 51 -->
<g id="node52" class="node">
<title>51</title>
<polygon fill="none" stroke="black" points="1004,-258 870,-258 870,-220 1004,-220 1004,-258"/>
<text text-anchor="middle" x="937" y="-242.8" font-family="Times,serif" font-size="14.00">longitude &lt;= &#45;67.355</text>
<text text-anchor="middle" x="937" y="-227.8" font-family="Times,serif" font-size="14.00">class = Canada</text>
</g>
<!-- 50&#45;&gt;51 -->
<g id="edge51" class="edge">
<title>50&#45;&gt;51</title>
<path fill="none" stroke="black" d="M937,-293.83C937,-286.13 937,-276.97 937,-268.42"/>
<polygon fill="black" stroke="black" points="940.5,-268.41 937,-258.41 933.5,-268.41 940.5,-268.41"/>
</g>
<!-- 54 -->
<g id="node55" class="node">
<title>54</title>
<polygon fill="none" stroke="black" points="1121.5,-257 1022.5,-257 1022.5,-221 1121.5,-221 1121.5,-257"/>
<text text-anchor="middle" x="1072" y="-235.3" font-family="Times,serif" font-size="14.00">class = Canada</text>
</g>
<!-- 50&#45;&gt;54 -->
<g id="edge54" class="edge">
<title>50&#45;&gt;54</title>
<path fill="none" stroke="black" d="M971.07,-293.83C989.19,-284.17 1011.62,-272.2 1030.72,-262.01"/>
<polygon fill="black" stroke="black" points="1032.63,-264.97 1039.8,-257.17 1029.33,-258.79 1032.63,-264.97"/>
</g>
<!-- 52 -->
<g id="node53" class="node">
<title>52</title>
<polygon fill="none" stroke="black" points="971,-183 885,-183 885,-147 971,-147 971,-183"/>
<text text-anchor="middle" x="928" y="-161.3" font-family="Times,serif" font-size="14.00">class = USA</text>
</g>
<!-- 51&#45;&gt;52 -->
<g id="edge52" class="edge">
<title>51&#45;&gt;52</title>
<path fill="none" stroke="black" d="M934.73,-219.83C933.74,-211.89 932.55,-202.41 931.45,-193.63"/>
<polygon fill="black" stroke="black" points="934.89,-192.91 930.18,-183.42 927.94,-193.77 934.89,-192.91"/>
</g>
<!-- 53 -->
<g id="node54" class="node">
<title>53</title>
<polygon fill="none" stroke="black" points="1088.5,-183 989.5,-183 989.5,-147 1088.5,-147 1088.5,-183"/>
<text text-anchor="middle" x="1039" y="-161.3" font-family="Times,serif" font-size="14.00">class = Canada</text>
</g>
<!-- 51&#45;&gt;53 -->
<g id="edge53" class="edge">
<title>51&#45;&gt;53</title>
<path fill="none" stroke="black" d="M962.74,-219.83C975.93,-210.52 992.15,-199.07 1006.23,-189.13"/>
<polygon fill="black" stroke="black" points="1008.52,-191.8 1014.67,-183.17 1004.49,-186.08 1008.52,-191.8"/>
</g>
</g>
</svg>
