<?xml version="1.0" encoding="UTF-8" standalone="no"?>
<!DOCTYPE svg PUBLIC "-//W3C//DTD SVG 1.1//EN"
 "http://www.w3.org/Graphics/SVG/1.1/DTD/svg11.dtd">
<!-- Generated by graphviz version 2.44.1 (20200629.0846)
 -->
<!-- Title: Tree Pages: 1 -->
<svg width="1139pt" height="932pt"
 viewBox="0.00 0.00 1138.50 932.00" xmlns="http://www.w3.org/2000/svg" xmlns:xlink="http://www.w3.org/1999/xlink">
<g id="graph0" class="graph" transform="scale(1 1) rotate(0) translate(4 928)">
<title>Tree</title>
<polygon fill="white" stroke="transparent" points="-4,4 -4,-928 1134.5,-928 1134.5,4 -4,4"/>
<!-- 0 -->
<g id="node1" class="node">
<title>0</title>
<polygon fill="none" stroke="black" points="288.5,-924 183.5,-924 183.5,-886 288.5,-886 288.5,-924"/>
<text text-anchor="middle" x="236" y="-908.8" font-family="Times,serif" font-size="14.00">latitude &lt;= 42.9</text>
<text text-anchor="middle" x="236" y="-893.8" font-family="Times,serif" font-size="14.00">class = Canada</text>
</g>
<!-- 1 -->
<g id="node2" class="node">
<title>1</title>
<polygon fill="none" stroke="black" points="221.5,-850 102.5,-850 102.5,-812 221.5,-812 221.5,-850"/>
<text text-anchor="middle" x="162" y="-834.8" font-family="Times,serif" font-size="14.00">latitude &lt;= 42.096</text>
<text text-anchor="middle" x="162" y="-819.8" font-family="Times,serif" font-size="14.00">class = USA</text>
</g>
<!-- 0&#45;&gt;1 -->
<g id="edge1" class="edge">
<title>0&#45;&gt;1</title>
<path fill="none" stroke="black" d="M217.33,-885.83C208.48,-877.22 197.75,-866.79 188.11,-857.4"/>
<polygon fill="black" stroke="black" points="190.28,-854.63 180.67,-850.16 185.39,-859.64 190.28,-854.63"/>
<text text-anchor="middle" x="181.01" y="-871.46" font-family="Times,serif" font-size="14.00">True</text>
</g>
<!-- 6 -->
<g id="node7" class="node">
<title>6</title>
<polygon fill="none" stroke="black" points="380,-850 240,-850 240,-812 380,-812 380,-850"/>
<text text-anchor="middle" x="310" y="-834.8" font-family="Times,serif" font-size="14.00">longitude &lt;= &#45;130.017</text>
<text text-anchor="middle" x="310" y="-819.8" font-family="Times,serif" font-size="14.00">class = Canada</text>
</g>
<!-- 0&#45;&gt;6 -->
<g id="edge6" class="edge">
<title>0&#45;&gt;6</title>
<path fill="none" stroke="black" d="M254.67,-885.83C263.52,-877.22 274.25,-866.79 283.89,-857.4"/>
<polygon fill="black" stroke="black" points="286.61,-859.64 291.33,-850.16 281.72,-854.63 286.61,-859.64"/>
<text text-anchor="middle" x="290.99" y="-871.46" font-family="Times,serif" font-size="14.00">False</text>
</g>
<!-- 2 -->
<g id="node3" class="node">
<title>2</title>
<polygon fill="none" stroke="black" points="89,-775 3,-775 3,-739 89,-739 89,-775"/>
<text text-anchor="middle" x="46" y="-753.3" font-family="Times,serif" font-size="14.00">class = USA</text>
</g>
<!-- 1&#45;&gt;2 -->
<g id="edge2" class="edge">
<title>1&#45;&gt;2</title>
<path fill="none" stroke="black" d="M132.73,-811.83C117.44,-802.34 98.58,-790.64 82.37,-780.57"/>
<polygon fill="black" stroke="black" points="84.01,-777.47 73.67,-775.17 80.32,-783.42 84.01,-777.47"/>
</g>
<!-- 3 -->
<g id="node4" class="node">
<title>3</title>
<polygon fill="none" stroke="black" points="226.5,-776 107.5,-776 107.5,-738 226.5,-738 226.5,-776"/>
<text text-anchor="middle" x="167" y="-760.8" font-family="Times,serif" font-size="14.00">latitude &lt;= 42.324</text>
<text text-anchor="middle" x="167" y="-745.8" font-family="Times,serif" font-size="14.00">class = USA</text>
</g>
<!-- 1&#45;&gt;3 -->
<g id="edge3" class="edge">
<title>1&#45;&gt;3</title>
<path fill="none" stroke="black" d="M163.26,-811.83C163.8,-804.13 164.43,-794.97 165.03,-786.42"/>
<polygon fill="black" stroke="black" points="168.52,-786.63 165.72,-776.41 161.54,-786.15 168.52,-786.63"/>
</g>
<!-- 4 -->
<g id="node5" class="node">
<title>4</title>
<polygon fill="none" stroke="black" points="209.5,-701 110.5,-701 110.5,-665 209.5,-665 209.5,-701"/>
<text text-anchor="middle" x="160" y="-679.3" font-family="Times,serif" font-size="14.00">class = Canada</text>
</g>
<!-- 3&#45;&gt;4 -->
<g id="edge4" class="edge">
<title>3&#45;&gt;4</title>
<path fill="none" stroke="black" d="M165.23,-737.83C164.46,-729.89 163.54,-720.41 162.69,-711.63"/>
<polygon fill="black" stroke="black" points="166.14,-711.03 161.69,-701.42 159.18,-711.71 166.14,-711.03"/>
</g>
<!-- 5 -->
<g id="node6" class="node">
<title>5</title>
<polygon fill="none" stroke="black" points="314,-701 228,-701 228,-665 314,-665 314,-701"/>
<text text-anchor="middle" x="271" y="-679.3" font-family="Times,serif" font-size="14.00">class = USA</text>
</g>
<!-- 3&#45;&gt;5 -->
<g id="edge5" class="edge">
<title>3&#45;&gt;5</title>
<path fill="none" stroke="black" d="M193.24,-737.83C206.7,-728.52 223.23,-717.07 237.59,-707.13"/>
<polygon fill="black" stroke="black" points="239.97,-709.74 246.2,-701.17 235.98,-703.99 239.97,-709.74"/>
</g>
<!-- 7 -->
<g id="node8" class="node">
<title>7</title>
<polygon fill="none" stroke="black" points="344,-775 258,-775 258,-739 344,-739 344,-775"/>
<text text-anchor="middle" x="301" y="-753.3" font-family="Times,serif" font-size="14.00">class = USA</text>
</g>
<!-- 6&#45;&gt;7 -->
<g id="edge7" class="edge">
<title>6&#45;&gt;7</title>
<path fill="none" stroke="black" d="M307.73,-811.83C306.74,-803.89 305.55,-794.41 304.45,-785.63"/>
<polygon fill="black" stroke="black" points="307.89,-784.91 303.18,-775.42 300.94,-785.77 307.89,-784.91"/>
</g>
<!-- 8 -->
<g id="node9" class="node">
<title>8</title>
<polygon fill="none" stroke="black" points="467.5,-776 362.5,-776 362.5,-738 467.5,-738 467.5,-776"/>
<text text-anchor="middle" x="415" y="-760.8" font-family="Times,serif" font-size="14.00">latitude &lt;= 49.0</text>
<text text-anchor="middle" x="415" y="-745.8" font-family="Times,serif" font-size="14.00">class = Canada</text>
</g>
<!-- 6&#45;&gt;8 -->
<g id="edge8" class="edge">
<title>6&#45;&gt;8</title>
<path fill="none" stroke="black" d="M336.5,-811.83C349.68,-802.79 365.78,-791.75 379.97,-782.02"/>
<polygon fill="black" stroke="black" points="382.24,-784.7 388.51,-776.16 378.29,-778.93 382.24,-784.7"/>
</g>
<!-- 9 -->
<g id="node10" class="node">
<title>9</title>
<polygon fill="none" stroke="black" points="477,-702 343,-702 343,-664 477,-664 477,-702"/>
<text text-anchor="middle" x="410" y="-686.8" font-family="Times,serif" font-size="14.00">longitude &lt;= &#45;94.582</text>
<text text-anchor="middle" x="410" y="-671.8" font-family="Times,serif" font-size="14.00">class = Canada</text>
</g>
<!-- 8&#45;&gt;9 -->
<g id="edge9" class="edge">
<title>8&#45;&gt;9</title>
<path fill="none" stroke="black" d="M413.74,-737.83C413.2,-730.13 412.57,-720.97 411.97,-712.42"/>
<polygon fill="black" stroke="black" points="415.46,-712.15 411.28,-702.41 408.48,-712.63 415.46,-712.15"/>
</g>
<!-- 56 -->
<g id="node57" class="node">
<title>56</title>
<polygon fill="none" stroke="black" points="594.5,-701 495.5,-701 495.5,-665 594.5,-665 594.5,-701"/>
<text text-anchor="middle" x="545" y="-679.3" font-family="Times,serif" font-size="14.00">class = Canada</text>
</g>
<!-- 8&#45;&gt;56 -->
<g id="edge56" class="edge">
<title>8&#45;&gt;56</title>
<path fill="none" stroke="black" d="M447.8,-737.83C465.18,-728.21 486.66,-716.31 505,-706.15"/>
<polygon fill="black" stroke="black" points="506.94,-709.08 514,-701.17 503.55,-702.95 506.94,-709.08"/>
</g>
<!-- 10 -->
<g id="node11" class="node">
<title>10</title>
<polygon fill="none" stroke="black" points="403,-628 263,-628 263,-590 403,-590 403,-628"/>
<text text-anchor="middle" x="333" y="-612.8" font-family="Times,serif" font-size="14.00">longitude &lt;= &#45;123.222</text>
<text text-anchor="middle" x="333" y="-597.8" font-family="Times,serif" font-size="14.00">class = USA</text>
</g>
<!-- 9&#45;&gt;10 -->
<g id="edge10" class="edge">
<title>9&#45;&gt;10</title>
<path fill="none" stroke="black" d="M390.57,-663.83C381.27,-655.13 369.98,-644.58 359.87,-635.13"/>
<polygon fill="black" stroke="black" points="362.12,-632.44 352.42,-628.16 357.34,-637.55 362.12,-632.44"/>
</g>
<!-- 13 -->
<g id="node14" class="node">
<title>13</title>
<polygon fill="none" stroke="black" points="555,-628 421,-628 421,-590 555,-590 555,-628"/>
<text text-anchor="middle" x="488" y="-612.8" font-family="Times,serif" font-size="14.00">longitude &lt;= &#45;69.246</text>
<text text-anchor="middle" x="488" y="-597.8" font-family="Times,serif" font-size="14.00">class = Canada</text>
</g>
<!-- 9&#45;&gt;13 -->
<g id="edge13" class="edge">
<title>9&#45;&gt;13</title>
<path fill="none" stroke="black" d="M429.68,-663.83C439.11,-655.13 450.54,-644.58 460.78,-635.13"/>
<polygon fill="black" stroke="black" points="463.35,-637.52 468.32,-628.16 458.6,-632.37 463.35,-637.52"/>
</g>
<!-- 11 -->
<g id="node12" class="node">
<title>11</title>
<polygon fill="none" stroke="black" points="280.5,-553 181.5,-553 181.5,-517 280.5,-517 280.5,-553"/>
<text text-anchor="middle" x="231" y="-531.3" font-family="Times,serif" font-size="14.00">class = Canada</text>
</g>
<!-- 10&#45;&gt;11 -->
<g id="edge11" class="edge">
<title>10&#45;&gt;11</title>
<path fill="none" stroke="black" d="M307.26,-589.83C294.07,-580.52 277.85,-569.07 263.77,-559.13"/>
<polygon fill="black" stroke="black" points="265.51,-556.08 255.33,-553.17 261.48,-561.8 265.51,-556.08"/>
</g>
<!-- 12 -->
<g id="node13" class="node">
<title>12</title>
<polygon fill="none" stroke="black" points="385,-553 299,-553 299,-517 385,-517 385,-553"/>
<text text-anchor="middle" x="342" y="-531.3" font-family="Times,serif" font-size="14.00">class = USA</text>
</g>
<!-- 10&#45;&gt;12 -->
<g id="edge12" class="edge">
<title>10&#45;&gt;12</title>
<path fill="none" stroke="black" d="M335.27,-589.83C336.26,-581.89 337.45,-572.41 338.55,-563.63"/>
<polygon fill="black" stroke="black" points="342.06,-563.77 339.82,-553.42 335.11,-562.91 342.06,-563.77"/>
</g>
<!-- 14 -->
<g id="node15" class="node">
<title>14</title>
<polygon fill="none" stroke="black" points="539.5,-554 420.5,-554 420.5,-516 539.5,-516 539.5,-554"/>
<text text-anchor="middle" x="480" y="-538.8" font-family="Times,serif" font-size="14.00">latitude &lt;= 43.093</text>
<text text-anchor="middle" x="480" y="-523.8" font-family="Times,serif" font-size="14.00">class = Canada</text>
</g>
<!-- 13&#45;&gt;14 -->
<g id="edge14" class="edge">
<title>13&#45;&gt;14</title>
<path fill="none" stroke="black" d="M485.98,-589.83C485.13,-582.13 484.11,-572.97 483.16,-564.42"/>
<polygon fill="black" stroke="black" points="486.63,-563.97 482.05,-554.41 479.67,-564.74 486.63,-563.97"/>
</g>
<!-- 37 -->
<g id="node38" class="node">
<title>37</title>
<polygon fill="none" stroke="black" points="737,-554 603,-554 603,-516 737,-516 737,-554"/>
<text text-anchor="middle" x="670" y="-538.8" font-family="Times,serif" font-size="14.00">longitude &lt;= &#45;66.952</text>
<text text-anchor="middle" x="670" y="-523.8" font-family="Times,serif" font-size="14.00">class = Canada</text>
</g>
<!-- 13&#45;&gt;37 -->
<g id="edge37" class="edge">
<title>13&#45;&gt;37</title>
<path fill="none" stroke="black" d="M533.93,-589.83C558.59,-580.07 589.17,-567.98 615.09,-557.72"/>
<polygon fill="black" stroke="black" points="616.39,-560.97 624.4,-554.04 613.82,-554.46 616.39,-560.97"/>
</g>
<!-- 15 -->
<g id="node16" class="node">
<title>15</title>
<polygon fill="none" stroke="black" points="356.5,-480 237.5,-480 237.5,-442 356.5,-442 356.5,-480"/>
<text text-anchor="middle" x="297" y="-464.8" font-family="Times,serif" font-size="14.00">latitude &lt;= 43.014</text>
<text text-anchor="middle" x="297" y="-449.8" font-family="Times,serif" font-size="14.00">class = Canada</text>
</g>
<!-- 14&#45;&gt;15 -->
<g id="edge15" class="edge">
<title>14&#45;&gt;15</title>
<path fill="none" stroke="black" d="M433.82,-515.83C409.02,-506.07 378.28,-493.98 352.22,-483.72"/>
<polygon fill="black" stroke="black" points="353.43,-480.44 342.85,-480.04 350.87,-486.96 353.43,-480.44"/>
</g>
<!-- 20 -->
<g id="node21" class="node">
<title>20</title>
<polygon fill="none" stroke="black" points="539.5,-480 420.5,-480 420.5,-442 539.5,-442 539.5,-480"/>
<text text-anchor="middle" x="480" y="-464.8" font-family="Times,serif" font-size="14.00">latitude &lt;= 44.992</text>
<text text-anchor="middle" x="480" y="-449.8" font-family="Times,serif" font-size="14.00">class = Canada</text>
</g>
<!-- 14&#45;&gt;20 -->
<g id="edge20" class="edge">
<title>14&#45;&gt;20</title>
<path fill="none" stroke="black" d="M480,-515.83C480,-508.13 480,-498.97 480,-490.42"/>
<polygon fill="black" stroke="black" points="483.5,-490.41 480,-480.41 476.5,-490.41 483.5,-490.41"/>
</g>
<!-- 16 -->
<g id="node17" class="node">
<title>16</title>
<polygon fill="none" stroke="black" points="221,-406 87,-406 87,-368 221,-368 221,-406"/>
<text text-anchor="middle" x="154" y="-390.8" font-family="Times,serif" font-size="14.00">longitude &lt;= &#45;81.845</text>
<text text-anchor="middle" x="154" y="-375.8" font-family="Times,serif" font-size="14.00">class = Canada</text>
</g>
<!-- 15&#45;&gt;16 -->
<g id="edge16" class="edge">
<title>15&#45;&gt;16</title>
<path fill="none" stroke="black" d="M260.92,-441.83C242.2,-432.41 219.16,-420.81 199.26,-410.79"/>
<polygon fill="black" stroke="black" points="200.58,-407.53 190.07,-406.16 197.43,-413.79 200.58,-407.53"/>
</g>
<!-- 19 -->
<g id="node20" class="node">
<title>19</title>
<polygon fill="none" stroke="black" points="340,-405 254,-405 254,-369 340,-369 340,-405"/>
<text text-anchor="middle" x="297" y="-383.3" font-family="Times,serif" font-size="14.00">class = USA</text>
</g>
<!-- 15&#45;&gt;19 -->
<g id="edge19" class="edge">
<title>15&#45;&gt;19</title>
<path fill="none" stroke="black" d="M297,-441.83C297,-433.89 297,-424.41 297,-415.63"/>
<polygon fill="black" stroke="black" points="300.5,-415.42 297,-405.42 293.5,-415.42 300.5,-415.42"/>
</g>
<!-- 17 -->
<g id="node18" class="node">
<title>17</title>
<polygon fill="none" stroke="black" points="86,-331 0,-331 0,-295 86,-295 86,-331"/>
<text text-anchor="middle" x="43" y="-309.3" font-family="Times,serif" font-size="14.00">class = USA</text>
</g>
<!-- 16&#45;&gt;17 -->
<g id="edge17" class="edge">
<title>16&#45;&gt;17</title>
<path fill="none" stroke="black" d="M125.99,-367.83C111.49,-358.43 93.65,-346.86 78.23,-336.85"/>
<polygon fill="black" stroke="black" points="79.77,-333.68 69.47,-331.17 75.96,-339.55 79.77,-333.68"/>
</g>
<!-- 18 -->
<g id="node19" class="node">
<title>18</title>
<polygon fill="none" stroke="black" points="203.5,-331 104.5,-331 104.5,-295 203.5,-295 203.5,-331"/>
<text text-anchor="middle" x="154" y="-309.3" font-family="Times,serif" font-size="14.00">class = Canada</text>
</g>
<!-- 16&#45;&gt;18 -->
<g id="edge18" class="edge">
<title>16&#45;&gt;18</title>
<path fill="none" stroke="black" d="M154,-367.83C154,-359.89 154,-350.41 154,-341.63"/>
<polygon fill="black" stroke="black" points="157.5,-341.42 154,-331.42 150.5,-341.42 157.5,-341.42"/>
</g>
<!-- 21 -->
<g id="node22" class="node">
<title>21</title>
<polygon fill="none" stroke="black" points="485.5,-406 366.5,-406 366.5,-368 485.5,-368 485.5,-406"/>
<text text-anchor="middle" x="426" y="-390.8" font-family="Times,serif" font-size="14.00">latitude &lt;= 44.542</text>
<text text-anchor="middle" x="426" y="-375.8" font-family="Times,serif" font-size="14.00">class = Canada</text>
</g>
<!-- 20&#45;&gt;21 -->
<g id="edge21" class="edge">
<title>20&#45;&gt;21</title>
<path fill="none" stroke="black" d="M466.37,-441.83C460.15,-433.54 452.67,-423.56 445.84,-414.45"/>
<polygon fill="black" stroke="black" points="448.61,-412.31 439.81,-406.41 443.01,-416.51 448.61,-412.31"/>
</g>
<!-- 36 -->
<g id="node37" class="node">
<title>36</title>
<polygon fill="none" stroke="black" points="602.5,-405 503.5,-405 503.5,-369 602.5,-369 602.5,-405"/>
<text text-anchor="middle" x="553" y="-383.3" font-family="Times,serif" font-size="14.00">class = Canada</text>
</g>
<!-- 20&#45;&gt;36 -->
<g id="edge36" class="edge">
<title>20&#45;&gt;36</title>
<path fill="none" stroke="black" d="M498.42,-441.83C507.51,-432.87 518.6,-421.93 528.4,-412.26"/>
<polygon fill="black" stroke="black" points="530.93,-414.69 535.59,-405.17 526.01,-409.7 530.93,-414.69"/>
</g>
<!-- 22 -->
<g id="node23" class="node">
<title>22</title>
<polygon fill="none" stroke="black" points="356,-332 222,-332 222,-294 356,-294 356,-332"/>
<text text-anchor="middle" x="289" y="-316.8" font-family="Times,serif" font-size="14.00">longitude &lt;= &#45;79.076</text>
<text text-anchor="middle" x="289" y="-301.8" font-family="Times,serif" font-size="14.00">class = Canada</text>
</g>
<!-- 21&#45;&gt;22 -->
<g id="edge22" class="edge">
<title>21&#45;&gt;22</title>
<path fill="none" stroke="black" d="M391.43,-367.83C373.58,-358.45 351.62,-346.91 332.62,-336.92"/>
<polygon fill="black" stroke="black" points="334.04,-333.72 323.56,-332.16 330.78,-339.91 334.04,-333.72"/>
</g>
<!-- 31 -->
<g id="node32" class="node">
<title>31</title>
<polygon fill="none" stroke="black" points="493.5,-332 374.5,-332 374.5,-294 493.5,-294 493.5,-332"/>
<text text-anchor="middle" x="434" y="-316.8" font-family="Times,serif" font-size="14.00">latitude &lt;= 44.706</text>
<text text-anchor="middle" x="434" y="-301.8" font-family="Times,serif" font-size="14.00">class = USA</text>
</g>
<!-- 21&#45;&gt;31 -->
<g id="edge31" class="edge">
<title>21&#45;&gt;31</title>
<path fill="none" stroke="black" d="M428.02,-367.83C428.87,-360.13 429.89,-350.97 430.84,-342.42"/>
<polygon fill="black" stroke="black" points="434.33,-342.74 431.95,-332.41 427.37,-341.97 434.33,-342.74"/>
</g>
<!-- 23 -->
<g id="node24" class="node">
<title>23</title>
<polygon fill="none" stroke="black" points="211.5,-257 112.5,-257 112.5,-221 211.5,-221 211.5,-257"/>
<text text-anchor="middle" x="162" y="-235.3" font-family="Times,serif" font-size="14.00">class = Canada</text>
</g>
<!-- 22&#45;&gt;23 -->
<g id="edge23" class="edge">
<title>22&#45;&gt;23</title>
<path fill="none" stroke="black" d="M256.95,-293.83C240.06,-284.25 219.19,-272.42 201.32,-262.29"/>
<polygon fill="black" stroke="black" points="202.71,-259.06 192.29,-257.17 199.26,-265.15 202.71,-259.06"/>
</g>
<!-- 24 -->
<g id="node25" class="node">
<title>24</title>
<polygon fill="none" stroke="black" points="348.5,-258 229.5,-258 229.5,-220 348.5,-220 348.5,-258"/>
<text text-anchor="middle" x="289" y="-242.8" font-family="Times,serif" font-size="14.00">latitude &lt;= 44.168</text>
<text text-anchor="middle" x="289" y="-227.8" font-family="Times,serif" font-size="14.00">class = Canada</text>
</g>
<!-- 22&#45;&gt;24 -->
<g id="edge24" class="edge">
<title>22&#45;&gt;24</title>
<path fill="none" stroke="black" d="M289,-293.83C289,-286.13 289,-276.97 289,-268.42"/>
<polygon fill="black" stroke="black" points="292.5,-268.41 289,-258.41 285.5,-268.41 292.5,-268.41"/>
</g>
<!-- 25 -->
<g id="node26" class="node">
<title>25</title>
<polygon fill="none" stroke="black" points="234.5,-184 115.5,-184 115.5,-146 234.5,-146 234.5,-184"/>
<text text-anchor="middle" x="175" y="-168.8" font-family="Times,serif" font-size="14.00">latitude &lt;= 43.511</text>
<text text-anchor="middle" x="175" y="-153.8" font-family="Times,serif" font-size="14.00">class = USA</text>
</g>
<!-- 24&#45;&gt;25 -->
<g id="edge25" class="edge">
<title>24&#45;&gt;25</title>
<path fill="none" stroke="black" d="M260.23,-219.83C245.79,-210.71 228.1,-199.54 212.6,-189.74"/>
<polygon fill="black" stroke="black" points="214.08,-186.54 203.76,-184.16 210.34,-192.46 214.08,-186.54"/>
</g>
<!-- 30 -->
<g id="node31" class="node">
<title>30</title>
<polygon fill="none" stroke="black" points="351.5,-183 252.5,-183 252.5,-147 351.5,-147 351.5,-183"/>
<text text-anchor="middle" x="302" y="-161.3" font-family="Times,serif" font-size="14.00">class = Canada</text>
</g>
<!-- 24&#45;&gt;30 -->
<g id="edge30" class="edge">
<title>24&#45;&gt;30</title>
<path fill="none" stroke="black" d="M292.28,-219.83C293.73,-211.81 295.46,-202.2 297.06,-193.34"/>
<polygon fill="black" stroke="black" points="300.52,-193.88 298.86,-183.42 293.63,-192.64 300.52,-193.88"/>
</g>
<!-- 26 -->
<g id="node27" class="node">
<title>26</title>
<polygon fill="none" stroke="black" points="154,-109 68,-109 68,-73 154,-73 154,-109"/>
<text text-anchor="middle" x="111" y="-87.3" font-family="Times,serif" font-size="14.00">class = USA</text>
</g>
<!-- 25&#45;&gt;26 -->
<g id="edge26" class="edge">
<title>25&#45;&gt;26</title>
<path fill="none" stroke="black" d="M158.85,-145.83C151.1,-137.11 141.68,-126.52 133.26,-117.05"/>
<polygon fill="black" stroke="black" points="135.74,-114.57 126.48,-109.42 130.51,-119.22 135.74,-114.57"/>
</g>
<!-- 27 -->
<g id="node28" class="node">
<title>27</title>
<polygon fill="none" stroke="black" points="306,-110 172,-110 172,-72 306,-72 306,-110"/>
<text text-anchor="middle" x="239" y="-94.8" font-family="Times,serif" font-size="14.00">longitude &lt;= &#45;77.678</text>
<text text-anchor="middle" x="239" y="-79.8" font-family="Times,serif" font-size="14.00">class = Canada</text>
</g>
<!-- 25&#45;&gt;27 -->
<g id="edge27" class="edge">
<title>25&#45;&gt;27</title>
<path fill="none" stroke="black" d="M191.15,-145.83C198.67,-137.37 207.76,-127.15 215.98,-117.9"/>
<polygon fill="black" stroke="black" points="218.6,-120.21 222.63,-110.41 213.37,-115.56 218.6,-120.21"/>
</g>
<!-- 28 -->
<g id="node29" class="node">
<title>28</title>
<polygon fill="none" stroke="black" points="233.5,-36 134.5,-36 134.5,0 233.5,0 233.5,-36"/>
<text text-anchor="middle" x="184" y="-14.3" font-family="Times,serif" font-size="14.00">class = Canada</text>
</g>
<!-- 27&#45;&gt;28 -->
<g id="edge28" class="edge">
<title>27&#45;&gt;28</title>
<path fill="none" stroke="black" d="M224.84,-71.72C218.31,-63.29 210.45,-53.15 203.38,-44.02"/>
<polygon fill="black" stroke="black" points="206.06,-41.77 197.17,-36 200.53,-46.05 206.06,-41.77"/>
</g>
<!-- 29 -->
<g id="node30" class="node">
<title>29</title>
<polygon fill="none" stroke="black" points="338,-36 252,-36 252,0 338,0 338,-36"/>
<text text-anchor="middle" x="295" y="-14.3" font-family="Times,serif" font-size="14.00">class = USA</text>
</g>
<!-- 27&#45;&gt;29 -->
<g id="edge29" class="edge">
<title>27&#45;&gt;29</title>
<path fill="none" stroke="black" d="M253.42,-71.72C260.07,-63.29 268.07,-53.15 275.27,-44.02"/>
<polygon fill="black" stroke="black" points="278.14,-46.02 281.59,-36 272.65,-41.69 278.14,-46.02"/>
</g>
<!-- 32 -->
<g id="node33" class="node">
<title>32</title>
<polygon fill="none" stroke="black" points="453,-257 367,-257 367,-221 453,-221 453,-257"/>
<text text-anchor="middle" x="410" y="-235.3" font-family="Times,serif" font-size="14.00">class = USA</text>
</g>
<!-- 31&#45;&gt;32 -->
<g id="edge32" class="edge">
<title>31&#45;&gt;32</title>
<path fill="none" stroke="black" d="M427.94,-293.83C425.24,-285.72 422,-275.99 419.02,-267.05"/>
<polygon fill="black" stroke="black" points="422.29,-265.8 415.81,-257.42 415.65,-268.01 422.29,-265.8"/>
</g>
<!-- 33 -->
<g id="node34" class="node">
<title>33</title>
<polygon fill="none" stroke="black" points="605,-258 471,-258 471,-220 605,-220 605,-258"/>
<text text-anchor="middle" x="538" y="-242.8" font-family="Times,serif" font-size="14.00">longitude &lt;= &#45;84.392</text>
<text text-anchor="middle" x="538" y="-227.8" font-family="Times,serif" font-size="14.00">class = Canada</text>
</g>
<!-- 31&#45;&gt;33 -->
<g id="edge33" class="edge">
<title>31&#45;&gt;33</title>
<path fill="none" stroke="black" d="M460.24,-293.83C473.3,-284.79 489.25,-273.75 503.3,-264.02"/>
<polygon fill="black" stroke="black" points="505.54,-266.73 511.76,-258.16 501.55,-260.98 505.54,-266.73"/>
</g>
<!-- 34 -->
<g id="node35" class="node">
<title>34</title>
<polygon fill="none" stroke="black" points="479,-183 393,-183 393,-147 479,-147 479,-183"/>
<text text-anchor="middle" x="436" y="-161.3" font-family="Times,serif" font-size="14.00">class = USA</text>
</g>
<!-- 33&#45;&gt;34 -->
<g id="edge34" class="edge">
<title>33&#45;&gt;34</title>
<path fill="none" stroke="black" d="M512.26,-219.83C499.07,-210.52 482.85,-199.07 468.77,-189.13"/>
<polygon fill="black" stroke="black" points="470.51,-186.08 460.33,-183.17 466.48,-191.8 470.51,-186.08"/>
</g>
<!-- 35 -->
<g id="node36" class="node">
<title>35</title>
<polygon fill="none" stroke="black" points="596.5,-183 497.5,-183 497.5,-147 596.5,-147 596.5,-183"/>
<text text-anchor="middle" x="547" y="-161.3" font-family="Times,serif" font-size="14.00">class = Canada</text>
</g>
<!-- 33&#45;&gt;35 -->
<g id="edge35" class="edge">
<title>33&#45;&gt;35</title>
<path fill="none" stroke="black" d="M540.27,-219.83C541.26,-211.89 542.45,-202.41 543.55,-193.63"/>
<polygon fill="black" stroke="black" points="547.06,-193.77 544.82,-183.42 540.11,-192.91 547.06,-193.77"/>
</g>
<!-- 38 -->
<g id="node39" class="node">
<title>38</title>
<polygon fill="none" stroke="black" points="729.5,-480 610.5,-480 610.5,-442 729.5,-442 729.5,-480"/>
<text text-anchor="middle" x="670" y="-464.8" font-family="Times,serif" font-size="14.00">latitude &lt;= 45.195</text>
<text text-anchor="middle" x="670" y="-449.8" font-family="Times,serif" font-size="14.00">class = USA</text>
</g>
<!-- 37&#45;&gt;38 -->
<g id="edge38" class="edge">
<title>37&#45;&gt;38</title>
<path fill="none" stroke="black" d="M670,-515.83C670,-508.13 670,-498.97 670,-490.42"/>
<polygon fill="black" stroke="black" points="673.5,-490.41 670,-480.41 666.5,-490.41 673.5,-490.41"/>
</g>
<!-- 55 -->
<g id="node56" class="node">
<title>55</title>
<polygon fill="none" stroke="black" points="846.5,-479 747.5,-479 747.5,-443 846.5,-443 846.5,-479"/>
<text text-anchor="middle" x="797" y="-457.3" font-family="Times,serif" font-size="14.00">class = Canada</text>
</g>
<!-- 37&#45;&gt;55 -->
<g id="edge55" class="edge">
<title>37&#45;&gt;55</title>
<path fill="none" stroke="black" d="M702.05,-515.83C718.94,-506.25 739.81,-494.42 757.68,-484.29"/>
<polygon fill="black" stroke="black" points="759.74,-487.15 766.71,-479.17 756.29,-481.06 759.74,-487.15"/>
</g>
<!-- 39 -->
<g id="node40" class="node">
<title>39</title>
<polygon fill="none" stroke="black" points="713,-405 627,-405 627,-369 713,-369 713,-405"/>
<text text-anchor="middle" x="670" y="-383.3" font-family="Times,serif" font-size="14.00">class = USA</text>
</g>
<!-- 38&#45;&gt;39 -->
<g id="edge39" class="edge">
<title>38&#45;&gt;39</title>
<path fill="none" stroke="black" d="M670,-441.83C670,-433.89 670,-424.41 670,-415.63"/>
<polygon fill="black" stroke="black" points="673.5,-415.42 670,-405.42 666.5,-415.42 673.5,-415.42"/>
</g>
<!-- 40 -->
<g id="node41" class="node">
<title>40</title>
<polygon fill="none" stroke="black" points="861.5,-406 734.5,-406 734.5,-368 861.5,-368 861.5,-406"/>
<text text-anchor="middle" x="798" y="-390.8" font-family="Times,serif" font-size="14.00">longitude &lt;= &#45;67.93</text>
<text text-anchor="middle" x="798" y="-375.8" font-family="Times,serif" font-size="14.00">class = Canada</text>
</g>
<!-- 38&#45;&gt;40 -->
<g id="edge40" class="edge">
<title>38&#45;&gt;40</title>
<path fill="none" stroke="black" d="M702.3,-441.83C718.82,-432.54 739.12,-421.12 756.76,-411.2"/>
<polygon fill="black" stroke="black" points="758.71,-414.12 765.71,-406.16 755.28,-408.01 758.71,-414.12"/>
</g>
<!-- 41 -->
<g id="node42" class="node">
<title>41</title>
<polygon fill="none" stroke="black" points="865,-332 731,-332 731,-294 865,-294 865,-332"/>
<text text-anchor="middle" x="798" y="-316.8" font-family="Times,serif" font-size="14.00">longitude &lt;= &#45;68.325</text>
<text text-anchor="middle" x="798" y="-301.8" font-family="Times,serif" font-size="14.00">class = USA</text>
</g>
<!-- 40&#45;&gt;41 -->
<g id="edge41" class="edge">
<title>40&#45;&gt;41</title>
<path fill="none" stroke="black" d="M798,-367.83C798,-360.13 798,-350.97 798,-342.42"/>
<polygon fill="black" stroke="black" points="801.5,-342.41 798,-332.41 794.5,-342.41 801.5,-342.41"/>
</g>
<!-- 50 -->
<g id="node51" class="node">
<title>50</title>
<polygon fill="none" stroke="black" points="1005.5,-332 886.5,-332 886.5,-294 1005.5,-294 1005.5,-332"/>
<text text-anchor="middle" x="946" y="-316.8" font-family="Times,serif" font-size="14.00">latitude &lt;= 45.565</text>
<text text-anchor="middle" x="946" y="-301.8" font-family="Times,serif" font-size="14.00">class = Canada</text>
</g>
<!-- 40&#45;&gt;50 -->
<g id="edge50" class="edge">
<title>40&#45;&gt;50</title>
<path fill="none" stroke="black" d="M835.35,-367.83C854.88,-358.33 878.96,-346.61 899.67,-336.54"/>
<polygon fill="black" stroke="black" points="901.46,-339.56 908.92,-332.04 898.4,-333.27 901.46,-339.56"/>
</g>
<!-- 42 -->
<g id="node43" class="node">
<title>42</title>
<polygon fill="none" stroke="black" points="757,-258 623,-258 623,-220 757,-220 757,-258"/>
<text text-anchor="middle" x="690" y="-242.8" font-family="Times,serif" font-size="14.00">longitude &lt;= &#45;68.915</text>
<text text-anchor="middle" x="690" y="-227.8" font-family="Times,serif" font-size="14.00">class = Canada</text>
</g>
<!-- 41&#45;&gt;42 -->
<g id="edge42" class="edge">
<title>41&#45;&gt;42</title>
<path fill="none" stroke="black" d="M770.75,-293.83C757.06,-284.71 740.31,-273.54 725.62,-263.74"/>
<polygon fill="black" stroke="black" points="727.51,-260.8 717.24,-258.16 723.62,-266.62 727.51,-260.8"/>
</g>
<!-- 49 -->
<g id="node50" class="node">
<title>49</title>
<polygon fill="none" stroke="black" points="861,-257 775,-257 775,-221 861,-221 861,-257"/>
<text text-anchor="middle" x="818" y="-235.3" font-family="Times,serif" font-size="14.00">class = USA</text>
</g>
<!-- 41&#45;&gt;49 -->
<g id="edge49" class="edge">
<title>41&#45;&gt;49</title>
<path fill="none" stroke="black" d="M803.05,-293.83C805.28,-285.81 807.94,-276.2 810.41,-267.34"/>
<polygon fill="black" stroke="black" points="813.86,-267.99 813.16,-257.42 807.11,-266.12 813.86,-267.99"/>
</g>
<!-- 43 -->
<g id="node44" class="node">
<title>43</title>
<polygon fill="none" stroke="black" points="721,-183 635,-183 635,-147 721,-147 721,-183"/>
<text text-anchor="middle" x="678" y="-161.3" font-family="Times,serif" font-size="14.00">class = USA</text>
</g>
<!-- 42&#45;&gt;43 -->
<g id="edge43" class="edge">
<title>42&#45;&gt;43</title>
<path fill="none" stroke="black" d="M686.97,-219.83C685.63,-211.81 684.03,-202.2 682.56,-193.34"/>
<polygon fill="black" stroke="black" points="686,-192.71 680.9,-183.42 679.09,-193.86 686,-192.71"/>
</g>
<!-- 44 -->
<g id="node45" class="node">
<title>44</title>
<polygon fill="none" stroke="black" points="858.5,-184 739.5,-184 739.5,-146 858.5,-146 858.5,-184"/>
<text text-anchor="middle" x="799" y="-168.8" font-family="Times,serif" font-size="14.00">latitude &lt;= 47.256</text>
<text text-anchor="middle" x="799" y="-153.8" font-family="Times,serif" font-size="14.00">class = Canada</text>
</g>
<!-- 42&#45;&gt;44 -->
<g id="edge44" class="edge">
<title>42&#45;&gt;44</title>
<path fill="none" stroke="black" d="M717.51,-219.83C731.32,-210.71 748.23,-199.54 763.05,-189.74"/>
<polygon fill="black" stroke="black" points="765.09,-192.59 771.5,-184.16 761.23,-186.75 765.09,-192.59"/>
</g>
<!-- 45 -->
<g id="node46" class="node">
<title>45</title>
<polygon fill="none" stroke="black" points="784.5,-109 685.5,-109 685.5,-73 784.5,-73 784.5,-109"/>
<text text-anchor="middle" x="735" y="-87.3" font-family="Times,serif" font-size="14.00">class = Canada</text>
</g>
<!-- 44&#45;&gt;45 -->
<g id="edge45" class="edge">
<title>44&#45;&gt;45</title>
<path fill="none" stroke="black" d="M782.85,-145.83C775.1,-137.11 765.68,-126.52 757.26,-117.05"/>
<polygon fill="black" stroke="black" points="759.74,-114.57 750.48,-109.42 754.51,-119.22 759.74,-114.57"/>
</g>
<!-- 46 -->
<g id="node47" class="node">
<title>46</title>
<polygon fill="none" stroke="black" points="921.5,-110 802.5,-110 802.5,-72 921.5,-72 921.5,-110"/>
<text text-anchor="middle" x="862" y="-94.8" font-family="Times,serif" font-size="14.00">latitude &lt;= 47.312</text>
<text text-anchor="middle" x="862" y="-79.8" font-family="Times,serif" font-size="14.00">class = Canada</text>
</g>
<!-- 44&#45;&gt;46 -->
<g id="edge46" class="edge">
<title>44&#45;&gt;46</title>
<path fill="none" stroke="black" d="M814.9,-145.83C822.23,-137.45 831.07,-127.35 839.1,-118.17"/>
<polygon fill="black" stroke="black" points="841.94,-120.24 845.89,-110.41 836.67,-115.63 841.94,-120.24"/>
</g>
<!-- 47 -->
<g id="node48" class="node">
<title>47</title>
<polygon fill="none" stroke="black" points="849,-36 763,-36 763,0 849,0 849,-36"/>
<text text-anchor="middle" x="806" y="-14.3" font-family="Times,serif" font-size="14.00">class = USA</text>
</g>
<!-- 46&#45;&gt;47 -->
<g id="edge47" class="edge">
<title>46&#45;&gt;47</title>
<path fill="none" stroke="black" d="M847.58,-71.72C840.93,-63.29 832.93,-53.15 825.73,-44.02"/>
<polygon fill="black" stroke="black" points="828.35,-41.69 819.41,-36 822.86,-46.02 828.35,-41.69"/>
</g>
<!-- 48 -->
<g id="node49" class="node">
<title>48</title>
<polygon fill="none" stroke="black" points="966.5,-36 867.5,-36 867.5,0 966.5,0 966.5,-36"/>
<text text-anchor="middle" x="917" y="-14.3" font-family="Times,serif" font-size="14.00">class = Canada</text>
</g>
<!-- 46&#45;&gt;48 -->
<g id="edge48" class="edge">
<title>46&#45;&gt;48</title>
<path fill="none" stroke="black" d="M876.16,-71.72C882.69,-63.29 890.55,-53.15 897.62,-44.02"/>
<polygon fill="black" stroke="black" points="900.47,-46.05 903.83,-36 894.94,-41.77 900.47,-46.05"/>
</g>
<!-- 51 -->
<g id="node52" class="node">
<title>51</title>
<polygon fill="none" stroke="black" points="1013,-258 879,-258 879,-220 1013,-220 1013,-258"/>
<text text-anchor="middle" x="946" y="-242.8" font-family="Times,serif" font-size="14.00">longitude &lt;= &#45;67.355</text>
<text text-anchor="middle" x="946" y="-227.8" font-family="Times,serif" font-size="14.00">class = Canada</text>
</g>
<!-- 50&#45;&gt;51 -->
<g id="edge51" class="edge">
<title>50&#45;&gt;51</title>
<path fill="none" stroke="black" d="M946,-293.83C946,-286.13 946,-276.97 946,-268.42"/>
<polygon fill="black" stroke="black" points="949.5,-268.41 946,-258.41 942.5,-268.41 949.5,-268.41"/>
</g>
<!-- 54 -->
<g id="node55" class="node">
<title>54</title>
<polygon fill="none" stroke="black" points="1130.5,-257 1031.5,-257 1031.5,-221 1130.5,-221 1130.5,-257"/>
<text text-anchor="middle" x="1081" y="-235.3" font-family="Times,serif" font-size="14.00">class = Canada</text>
</g>
<!-- 50&#45;&gt;54 -->
<g id="edge54" class="edge">
<title>50&#45;&gt;54</title>
<path fill="none" stroke="black" d="M980.07,-293.83C998.19,-284.17 1020.62,-272.2 1039.72,-262.01"/>
<polygon fill="black" stroke="black" points="1041.63,-264.97 1048.8,-257.17 1038.33,-258.79 1041.63,-264.97"/>
</g>
<!-- 52 -->
<g id="node53" class="node">
<title>52</title>
<polygon fill="none" stroke="black" points="980,-183 894,-183 894,-147 980,-147 980,-183"/>
<text text-anchor="middle" x="937" y="-161.3" font-family="Times,serif" font-size="14.00">class = USA</text>
</g>
<!-- 51&#45;&gt;52 -->
<g id="edge52" class="edge">
<title>51&#45;&gt;52</title>
<path fill="none" stroke="black" d="M943.73,-219.83C942.74,-211.89 941.55,-202.41 940.45,-193.63"/>
<polygon fill="black" stroke="black" points="943.89,-192.91 939.18,-183.42 936.94,-193.77 943.89,-192.91"/>
</g>
<!-- 53 -->
<g id="node54" class="node">
<title>53</title>
<polygon fill="none" stroke="black" points="1097.5,-183 998.5,-183 998.5,-147 1097.5,-147 1097.5,-183"/>
<text text-anchor="middle" x="1048" y="-161.3" font-family="Times,serif" font-size="14.00">class = Canada</text>
</g>
<!-- 51&#45;&gt;53 -->
<g id="edge53" class="edge">
<title>51&#45;&gt;53</title>
<path fill="none" stroke="black" d="M971.74,-219.83C984.93,-210.52 1001.15,-199.07 1015.23,-189.13"/>
<polygon fill="black" stroke="black" points="1017.52,-191.8 1023.67,-183.17 1013.49,-186.08 1017.52,-191.8"/>
</g>
</g>
</svg>
