<?xml version="1.0" encoding="UTF-8" standalone="no"?>
<!DOCTYPE svg PUBLIC "-//W3C//DTD SVG 1.1//EN"
 "http://www.w3.org/Graphics/SVG/1.1/DTD/svg11.dtd">
<!-- Generated by graphviz version 2.44.1 (20200629.0846)
 -->
<!-- Title: Tree Pages: 1 -->
<svg width="1125pt" height="932pt"
 viewBox="0.00 0.00 1124.50 932.00" xmlns="http://www.w3.org/2000/svg" xmlns:xlink="http://www.w3.org/1999/xlink">
<g id="graph0" class="graph" transform="scale(1 1) rotate(0) translate(4 928)">
<title>Tree</title>
<polygon fill="white" stroke="transparent" points="-4,4 -4,-928 1120.5,-928 1120.5,4 -4,4"/>
<!-- 0 -->
<g id="node1" class="node">
<title>0</title>
<polygon fill="none" stroke="black" points="404.5,-924 299.5,-924 299.5,-886 404.5,-886 404.5,-924"/>
<text text-anchor="middle" x="352" y="-908.8" font-family="Times,serif" font-size="14.00">latitude &lt;= 42.9</text>
<text text-anchor="middle" x="352" y="-893.8" font-family="Times,serif" font-size="14.00">class = Canada</text>
</g>
<!-- 1 -->
<g id="node2" class="node">
<title>1</title>
<polygon fill="none" stroke="black" points="343.5,-850 224.5,-850 224.5,-812 343.5,-812 343.5,-850"/>
<text text-anchor="middle" x="284" y="-834.8" font-family="Times,serif" font-size="14.00">latitude &lt;= 42.096</text>
<text text-anchor="middle" x="284" y="-819.8" font-family="Times,serif" font-size="14.00">class = USA</text>
</g>
<!-- 0&#45;&gt;1 -->
<g id="edge1" class="edge">
<title>0&#45;&gt;1</title>
<path fill="none" stroke="black" d="M334.84,-885.83C326.85,-877.37 317.2,-867.15 308.46,-857.9"/>
<polygon fill="black" stroke="black" points="310.8,-855.28 301.39,-850.41 305.71,-860.09 310.8,-855.28"/>
<text text-anchor="middle" x="300.68" y="-871.7" font-family="Times,serif" font-size="14.00">True</text>
</g>
<!-- 6 -->
<g id="node7" class="node">
<title>6</title>
<polygon fill="none" stroke="black" points="480.5,-850 361.5,-850 361.5,-812 480.5,-812 480.5,-850"/>
<text text-anchor="middle" x="421" y="-834.8" font-family="Times,serif" font-size="14.00">latitude &lt;= 55.958</text>
<text text-anchor="middle" x="421" y="-819.8" font-family="Times,serif" font-size="14.00">class = Canada</text>
</g>
<!-- 0&#45;&gt;6 -->
<g id="edge6" class="edge">
<title>0&#45;&gt;6</title>
<path fill="none" stroke="black" d="M369.41,-885.83C377.52,-877.37 387.32,-867.15 396.18,-857.9"/>
<polygon fill="black" stroke="black" points="398.96,-860.05 403.35,-850.41 393.91,-855.21 398.96,-860.05"/>
<text text-anchor="middle" x="403.89" y="-871.71" font-family="Times,serif" font-size="14.00">False</text>
</g>
<!-- 2 -->
<g id="node3" class="node">
<title>2</title>
<polygon fill="none" stroke="black" points="208,-775 122,-775 122,-739 208,-739 208,-775"/>
<text text-anchor="middle" x="165" y="-753.3" font-family="Times,serif" font-size="14.00">class = USA</text>
</g>
<!-- 1&#45;&gt;2 -->
<g id="edge2" class="edge">
<title>1&#45;&gt;2</title>
<path fill="none" stroke="black" d="M253.97,-811.83C238.29,-802.34 218.94,-790.64 202.31,-780.57"/>
<polygon fill="black" stroke="black" points="203.75,-777.35 193.38,-775.17 200.12,-783.34 203.75,-777.35"/>
</g>
<!-- 3 -->
<g id="node4" class="node">
<title>3</title>
<polygon fill="none" stroke="black" points="345.5,-776 226.5,-776 226.5,-738 345.5,-738 345.5,-776"/>
<text text-anchor="middle" x="286" y="-760.8" font-family="Times,serif" font-size="14.00">latitude &lt;= 42.324</text>
<text text-anchor="middle" x="286" y="-745.8" font-family="Times,serif" font-size="14.00">class = USA</text>
</g>
<!-- 1&#45;&gt;3 -->
<g id="edge3" class="edge">
<title>1&#45;&gt;3</title>
<path fill="none" stroke="black" d="M284.5,-811.83C284.72,-804.13 284.97,-794.97 285.21,-786.42"/>
<polygon fill="black" stroke="black" points="288.71,-786.51 285.49,-776.41 281.71,-786.31 288.71,-786.51"/>
</g>
<!-- 4 -->
<g id="node5" class="node">
<title>4</title>
<polygon fill="none" stroke="black" points="225.5,-701 126.5,-701 126.5,-665 225.5,-665 225.5,-701"/>
<text text-anchor="middle" x="176" y="-679.3" font-family="Times,serif" font-size="14.00">class = Canada</text>
</g>
<!-- 3&#45;&gt;4 -->
<g id="edge4" class="edge">
<title>3&#45;&gt;4</title>
<path fill="none" stroke="black" d="M258.24,-737.83C243.88,-728.43 226.2,-716.86 210.91,-706.85"/>
<polygon fill="black" stroke="black" points="212.52,-703.72 202.23,-701.17 208.68,-709.58 212.52,-703.72"/>
</g>
<!-- 5 -->
<g id="node6" class="node">
<title>5</title>
<polygon fill="none" stroke="black" points="330,-701 244,-701 244,-665 330,-665 330,-701"/>
<text text-anchor="middle" x="287" y="-679.3" font-family="Times,serif" font-size="14.00">class = USA</text>
</g>
<!-- 3&#45;&gt;5 -->
<g id="edge5" class="edge">
<title>3&#45;&gt;5</title>
<path fill="none" stroke="black" d="M286.25,-737.83C286.36,-729.89 286.49,-720.41 286.62,-711.63"/>
<polygon fill="black" stroke="black" points="290.12,-711.47 286.76,-701.42 283.12,-711.37 290.12,-711.47"/>
</g>
<!-- 7 -->
<g id="node8" class="node">
<title>7</title>
<polygon fill="none" stroke="black" points="472.5,-776 367.5,-776 367.5,-738 472.5,-738 472.5,-776"/>
<text text-anchor="middle" x="420" y="-760.8" font-family="Times,serif" font-size="14.00">latitude &lt;= 49.0</text>
<text text-anchor="middle" x="420" y="-745.8" font-family="Times,serif" font-size="14.00">class = Canada</text>
</g>
<!-- 6&#45;&gt;7 -->
<g id="edge7" class="edge">
<title>6&#45;&gt;7</title>
<path fill="none" stroke="black" d="M420.75,-811.83C420.64,-804.13 420.51,-794.97 420.39,-786.42"/>
<polygon fill="black" stroke="black" points="423.89,-786.36 420.26,-776.41 416.9,-786.46 423.89,-786.36"/>
</g>
<!-- 56 -->
<g id="node57" class="node">
<title>56</title>
<polygon fill="none" stroke="black" points="577,-775 491,-775 491,-739 577,-739 577,-775"/>
<text text-anchor="middle" x="534" y="-753.3" font-family="Times,serif" font-size="14.00">class = USA</text>
</g>
<!-- 6&#45;&gt;56 -->
<g id="edge56" class="edge">
<title>6&#45;&gt;56</title>
<path fill="none" stroke="black" d="M449.51,-811.83C464.41,-802.34 482.78,-790.64 498.58,-780.57"/>
<polygon fill="black" stroke="black" points="500.5,-783.5 507.05,-775.17 496.74,-777.59 500.5,-783.5"/>
</g>
<!-- 8 -->
<g id="node9" class="node">
<title>8</title>
<polygon fill="none" stroke="black" points="486,-702 352,-702 352,-664 486,-664 486,-702"/>
<text text-anchor="middle" x="419" y="-686.8" font-family="Times,serif" font-size="14.00">longitude &lt;= &#45;94.582</text>
<text text-anchor="middle" x="419" y="-671.8" font-family="Times,serif" font-size="14.00">class = Canada</text>
</g>
<!-- 7&#45;&gt;8 -->
<g id="edge8" class="edge">
<title>7&#45;&gt;8</title>
<path fill="none" stroke="black" d="M419.75,-737.83C419.64,-730.13 419.51,-720.97 419.39,-712.42"/>
<polygon fill="black" stroke="black" points="422.89,-712.36 419.26,-702.41 415.9,-712.46 422.89,-712.36"/>
</g>
<!-- 55 -->
<g id="node56" class="node">
<title>55</title>
<polygon fill="none" stroke="black" points="603.5,-701 504.5,-701 504.5,-665 603.5,-665 603.5,-701"/>
<text text-anchor="middle" x="554" y="-679.3" font-family="Times,serif" font-size="14.00">class = Canada</text>
</g>
<!-- 7&#45;&gt;55 -->
<g id="edge55" class="edge">
<title>7&#45;&gt;55</title>
<path fill="none" stroke="black" d="M453.81,-737.83C471.8,-728.17 494.06,-716.2 513.03,-706.01"/>
<polygon fill="black" stroke="black" points="514.89,-708.99 522.04,-701.17 511.58,-702.82 514.89,-708.99"/>
</g>
<!-- 9 -->
<g id="node10" class="node">
<title>9</title>
<polygon fill="none" stroke="black" points="412,-628 272,-628 272,-590 412,-590 412,-628"/>
<text text-anchor="middle" x="342" y="-612.8" font-family="Times,serif" font-size="14.00">longitude &lt;= &#45;123.222</text>
<text text-anchor="middle" x="342" y="-597.8" font-family="Times,serif" font-size="14.00">class = USA</text>
</g>
<!-- 8&#45;&gt;9 -->
<g id="edge9" class="edge">
<title>8&#45;&gt;9</title>
<path fill="none" stroke="black" d="M399.57,-663.83C390.27,-655.13 378.98,-644.58 368.87,-635.13"/>
<polygon fill="black" stroke="black" points="371.12,-632.44 361.42,-628.16 366.34,-637.55 371.12,-632.44"/>
</g>
<!-- 12 -->
<g id="node13" class="node">
<title>12</title>
<polygon fill="none" stroke="black" points="564,-628 430,-628 430,-590 564,-590 564,-628"/>
<text text-anchor="middle" x="497" y="-612.8" font-family="Times,serif" font-size="14.00">longitude &lt;= &#45;69.246</text>
<text text-anchor="middle" x="497" y="-597.8" font-family="Times,serif" font-size="14.00">class = Canada</text>
</g>
<!-- 8&#45;&gt;12 -->
<g id="edge12" class="edge">
<title>8&#45;&gt;12</title>
<path fill="none" stroke="black" d="M438.68,-663.83C448.11,-655.13 459.54,-644.58 469.78,-635.13"/>
<polygon fill="black" stroke="black" points="472.35,-637.52 477.32,-628.16 467.6,-632.37 472.35,-637.52"/>
</g>
<!-- 10 -->
<g id="node11" class="node">
<title>10</title>
<polygon fill="none" stroke="black" points="289.5,-553 190.5,-553 190.5,-517 289.5,-517 289.5,-553"/>
<text text-anchor="middle" x="240" y="-531.3" font-family="Times,serif" font-size="14.00">class = Canada</text>
</g>
<!-- 9&#45;&gt;10 -->
<g id="edge10" class="edge">
<title>9&#45;&gt;10</title>
<path fill="none" stroke="black" d="M316.26,-589.83C303.07,-580.52 286.85,-569.07 272.77,-559.13"/>
<polygon fill="black" stroke="black" points="274.51,-556.08 264.33,-553.17 270.48,-561.8 274.51,-556.08"/>
</g>
<!-- 11 -->
<g id="node12" class="node">
<title>11</title>
<polygon fill="none" stroke="black" points="394,-553 308,-553 308,-517 394,-517 394,-553"/>
<text text-anchor="middle" x="351" y="-531.3" font-family="Times,serif" font-size="14.00">class = USA</text>
</g>
<!-- 9&#45;&gt;11 -->
<g id="edge11" class="edge">
<title>9&#45;&gt;11</title>
<path fill="none" stroke="black" d="M344.27,-589.83C345.26,-581.89 346.45,-572.41 347.55,-563.63"/>
<polygon fill="black" stroke="black" points="351.06,-563.77 348.82,-553.42 344.11,-562.91 351.06,-563.77"/>
</g>
<!-- 13 -->
<g id="node14" class="node">
<title>13</title>
<polygon fill="none" stroke="black" points="548.5,-554 429.5,-554 429.5,-516 548.5,-516 548.5,-554"/>
<text text-anchor="middle" x="489" y="-538.8" font-family="Times,serif" font-size="14.00">latitude &lt;= 43.093</text>
<text text-anchor="middle" x="489" y="-523.8" font-family="Times,serif" font-size="14.00">class = Canada</text>
</g>
<!-- 12&#45;&gt;13 -->
<g id="edge13" class="edge">
<title>12&#45;&gt;13</title>
<path fill="none" stroke="black" d="M494.98,-589.83C494.13,-582.13 493.11,-572.97 492.16,-564.42"/>
<polygon fill="black" stroke="black" points="495.63,-563.97 491.05,-554.41 488.67,-564.74 495.63,-563.97"/>
</g>
<!-- 36 -->
<g id="node37" class="node">
<title>36</title>
<polygon fill="none" stroke="black" points="753,-554 619,-554 619,-516 753,-516 753,-554"/>
<text text-anchor="middle" x="686" y="-538.8" font-family="Times,serif" font-size="14.00">longitude &lt;= &#45;66.952</text>
<text text-anchor="middle" x="686" y="-523.8" font-family="Times,serif" font-size="14.00">class = Canada</text>
</g>
<!-- 12&#45;&gt;36 -->
<g id="edge36" class="edge">
<title>12&#45;&gt;36</title>
<path fill="none" stroke="black" d="M544.69,-589.83C570.31,-580.07 602.06,-567.98 628.97,-557.72"/>
<polygon fill="black" stroke="black" points="630.55,-560.87 638.65,-554.04 628.06,-554.33 630.55,-560.87"/>
</g>
<!-- 14 -->
<g id="node15" class="node">
<title>14</title>
<polygon fill="none" stroke="black" points="348.5,-480 229.5,-480 229.5,-442 348.5,-442 348.5,-480"/>
<text text-anchor="middle" x="289" y="-464.8" font-family="Times,serif" font-size="14.00">latitude &lt;= 43.014</text>
<text text-anchor="middle" x="289" y="-449.8" font-family="Times,serif" font-size="14.00">class = Canada</text>
</g>
<!-- 13&#45;&gt;14 -->
<g id="edge14" class="edge">
<title>13&#45;&gt;14</title>
<path fill="none" stroke="black" d="M438.79,-515.92C411.45,-506.08 377.44,-493.84 348.74,-483.51"/>
<polygon fill="black" stroke="black" points="349.83,-480.18 339.23,-480.08 347.45,-486.76 349.83,-480.18"/>
</g>
<!-- 19 -->
<g id="node20" class="node">
<title>19</title>
<polygon fill="none" stroke="black" points="548.5,-480 429.5,-480 429.5,-442 548.5,-442 548.5,-480"/>
<text text-anchor="middle" x="489" y="-464.8" font-family="Times,serif" font-size="14.00">latitude &lt;= 44.992</text>
<text text-anchor="middle" x="489" y="-449.8" font-family="Times,serif" font-size="14.00">class = Canada</text>
</g>
<!-- 13&#45;&gt;19 -->
<g id="edge19" class="edge">
<title>13&#45;&gt;19</title>
<path fill="none" stroke="black" d="M489,-515.83C489,-508.13 489,-498.97 489,-490.42"/>
<polygon fill="black" stroke="black" points="492.5,-490.41 489,-480.41 485.5,-490.41 492.5,-490.41"/>
</g>
<!-- 15 -->
<g id="node16" class="node">
<title>15</title>
<polygon fill="none" stroke="black" points="221,-406 87,-406 87,-368 221,-368 221,-406"/>
<text text-anchor="middle" x="154" y="-390.8" font-family="Times,serif" font-size="14.00">longitude &lt;= &#45;81.845</text>
<text text-anchor="middle" x="154" y="-375.8" font-family="Times,serif" font-size="14.00">class = Canada</text>
</g>
<!-- 14&#45;&gt;15 -->
<g id="edge15" class="edge">
<title>14&#45;&gt;15</title>
<path fill="none" stroke="black" d="M254.93,-441.83C237.35,-432.45 215.71,-420.91 196.98,-410.92"/>
<polygon fill="black" stroke="black" points="198.53,-407.78 188.06,-406.16 195.23,-413.96 198.53,-407.78"/>
</g>
<!-- 18 -->
<g id="node19" class="node">
<title>18</title>
<polygon fill="none" stroke="black" points="332,-405 246,-405 246,-369 332,-369 332,-405"/>
<text text-anchor="middle" x="289" y="-383.3" font-family="Times,serif" font-size="14.00">class = USA</text>
</g>
<!-- 14&#45;&gt;18 -->
<g id="edge18" class="edge">
<title>14&#45;&gt;18</title>
<path fill="none" stroke="black" d="M289,-441.83C289,-433.89 289,-424.41 289,-415.63"/>
<polygon fill="black" stroke="black" points="292.5,-415.42 289,-405.42 285.5,-415.42 292.5,-415.42"/>
</g>
<!-- 16 -->
<g id="node17" class="node">
<title>16</title>
<polygon fill="none" stroke="black" points="86,-331 0,-331 0,-295 86,-295 86,-331"/>
<text text-anchor="middle" x="43" y="-309.3" font-family="Times,serif" font-size="14.00">class = USA</text>
</g>
<!-- 15&#45;&gt;16 -->
<g id="edge16" class="edge">
<title>15&#45;&gt;16</title>
<path fill="none" stroke="black" d="M125.99,-367.83C111.49,-358.43 93.65,-346.86 78.23,-336.85"/>
<polygon fill="black" stroke="black" points="79.77,-333.68 69.47,-331.17 75.96,-339.55 79.77,-333.68"/>
</g>
<!-- 17 -->
<g id="node18" class="node">
<title>17</title>
<polygon fill="none" stroke="black" points="203.5,-331 104.5,-331 104.5,-295 203.5,-295 203.5,-331"/>
<text text-anchor="middle" x="154" y="-309.3" font-family="Times,serif" font-size="14.00">class = Canada</text>
</g>
<!-- 15&#45;&gt;17 -->
<g id="edge17" class="edge">
<title>15&#45;&gt;17</title>
<path fill="none" stroke="black" d="M154,-367.83C154,-359.89 154,-350.41 154,-341.63"/>
<polygon fill="black" stroke="black" points="157.5,-341.42 154,-331.42 150.5,-341.42 157.5,-341.42"/>
</g>
<!-- 20 -->
<g id="node21" class="node">
<title>20</title>
<polygon fill="none" stroke="black" points="483.5,-406 364.5,-406 364.5,-368 483.5,-368 483.5,-406"/>
<text text-anchor="middle" x="424" y="-390.8" font-family="Times,serif" font-size="14.00">latitude &lt;= 44.542</text>
<text text-anchor="middle" x="424" y="-375.8" font-family="Times,serif" font-size="14.00">class = Canada</text>
</g>
<!-- 19&#45;&gt;20 -->
<g id="edge20" class="edge">
<title>19&#45;&gt;20</title>
<path fill="none" stroke="black" d="M472.6,-441.83C464.96,-433.37 455.73,-423.15 447.38,-413.9"/>
<polygon fill="black" stroke="black" points="449.92,-411.49 440.62,-406.41 444.73,-416.18 449.92,-411.49"/>
</g>
<!-- 35 -->
<g id="node36" class="node">
<title>35</title>
<polygon fill="none" stroke="black" points="600.5,-405 501.5,-405 501.5,-369 600.5,-369 600.5,-405"/>
<text text-anchor="middle" x="551" y="-383.3" font-family="Times,serif" font-size="14.00">class = Canada</text>
</g>
<!-- 19&#45;&gt;35 -->
<g id="edge35" class="edge">
<title>19&#45;&gt;35</title>
<path fill="none" stroke="black" d="M504.65,-441.83C512.16,-433.11 521.28,-422.52 529.43,-413.05"/>
<polygon fill="black" stroke="black" points="532.13,-415.28 536,-405.42 526.82,-410.71 532.13,-415.28"/>
</g>
<!-- 21 -->
<g id="node22" class="node">
<title>21</title>
<polygon fill="none" stroke="black" points="356,-332 222,-332 222,-294 356,-294 356,-332"/>
<text text-anchor="middle" x="289" y="-316.8" font-family="Times,serif" font-size="14.00">longitude &lt;= &#45;79.076</text>
<text text-anchor="middle" x="289" y="-301.8" font-family="Times,serif" font-size="14.00">class = Canada</text>
</g>
<!-- 20&#45;&gt;21 -->
<g id="edge21" class="edge">
<title>20&#45;&gt;21</title>
<path fill="none" stroke="black" d="M389.93,-367.83C372.35,-358.45 350.71,-346.91 331.98,-336.92"/>
<polygon fill="black" stroke="black" points="333.53,-333.78 323.06,-332.16 330.23,-339.96 333.53,-333.78"/>
</g>
<!-- 30 -->
<g id="node31" class="node">
<title>30</title>
<polygon fill="none" stroke="black" points="493.5,-332 374.5,-332 374.5,-294 493.5,-294 493.5,-332"/>
<text text-anchor="middle" x="434" y="-316.8" font-family="Times,serif" font-size="14.00">latitude &lt;= 44.706</text>
<text text-anchor="middle" x="434" y="-301.8" font-family="Times,serif" font-size="14.00">class = USA</text>
</g>
<!-- 20&#45;&gt;30 -->
<g id="edge30" class="edge">
<title>20&#45;&gt;30</title>
<path fill="none" stroke="black" d="M426.52,-367.83C427.59,-360.13 428.86,-350.97 430.05,-342.42"/>
<polygon fill="black" stroke="black" points="433.53,-342.8 431.44,-332.41 426.6,-341.84 433.53,-342.8"/>
</g>
<!-- 22 -->
<g id="node23" class="node">
<title>22</title>
<polygon fill="none" stroke="black" points="211.5,-257 112.5,-257 112.5,-221 211.5,-221 211.5,-257"/>
<text text-anchor="middle" x="162" y="-235.3" font-family="Times,serif" font-size="14.00">class = Canada</text>
</g>
<!-- 21&#45;&gt;22 -->
<g id="edge22" class="edge">
<title>21&#45;&gt;22</title>
<path fill="none" stroke="black" d="M256.95,-293.83C240.06,-284.25 219.19,-272.42 201.32,-262.29"/>
<polygon fill="black" stroke="black" points="202.71,-259.06 192.29,-257.17 199.26,-265.15 202.71,-259.06"/>
</g>
<!-- 23 -->
<g id="node24" class="node">
<title>23</title>
<polygon fill="none" stroke="black" points="348.5,-258 229.5,-258 229.5,-220 348.5,-220 348.5,-258"/>
<text text-anchor="middle" x="289" y="-242.8" font-family="Times,serif" font-size="14.00">latitude &lt;= 44.168</text>
<text text-anchor="middle" x="289" y="-227.8" font-family="Times,serif" font-size="14.00">class = Canada</text>
</g>
<!-- 21&#45;&gt;23 -->
<g id="edge23" class="edge">
<title>21&#45;&gt;23</title>
<path fill="none" stroke="black" d="M289,-293.83C289,-286.13 289,-276.97 289,-268.42"/>
<polygon fill="black" stroke="black" points="292.5,-268.41 289,-258.41 285.5,-268.41 292.5,-268.41"/>
</g>
<!-- 24 -->
<g id="node25" class="node">
<title>24</title>
<polygon fill="none" stroke="black" points="228.5,-184 101.5,-184 101.5,-146 228.5,-146 228.5,-184"/>
<text text-anchor="middle" x="165" y="-168.8" font-family="Times,serif" font-size="14.00">longitude &lt;= &#45;79.03</text>
<text text-anchor="middle" x="165" y="-153.8" font-family="Times,serif" font-size="14.00">class = USA</text>
</g>
<!-- 23&#45;&gt;24 -->
<g id="edge24" class="edge">
<title>23&#45;&gt;24</title>
<path fill="none" stroke="black" d="M257.71,-219.83C241.7,-210.54 222.04,-199.12 204.95,-189.2"/>
<polygon fill="black" stroke="black" points="206.69,-186.16 196.28,-184.16 203.17,-192.21 206.69,-186.16"/>
</g>
<!-- 29 -->
<g id="node30" class="node">
<title>29</title>
<polygon fill="none" stroke="black" points="345.5,-183 246.5,-183 246.5,-147 345.5,-147 345.5,-183"/>
<text text-anchor="middle" x="296" y="-161.3" font-family="Times,serif" font-size="14.00">class = Canada</text>
</g>
<!-- 23&#45;&gt;29 -->
<g id="edge29" class="edge">
<title>23&#45;&gt;29</title>
<path fill="none" stroke="black" d="M290.77,-219.83C291.54,-211.89 292.46,-202.41 293.31,-193.63"/>
<polygon fill="black" stroke="black" points="296.82,-193.71 294.31,-183.42 289.86,-193.03 296.82,-193.71"/>
</g>
<!-- 25 -->
<g id="node26" class="node">
<title>25</title>
<polygon fill="none" stroke="black" points="144,-109 58,-109 58,-73 144,-73 144,-109"/>
<text text-anchor="middle" x="101" y="-87.3" font-family="Times,serif" font-size="14.00">class = USA</text>
</g>
<!-- 24&#45;&gt;25 -->
<g id="edge25" class="edge">
<title>24&#45;&gt;25</title>
<path fill="none" stroke="black" d="M148.85,-145.83C141.1,-137.11 131.68,-126.52 123.26,-117.05"/>
<polygon fill="black" stroke="black" points="125.74,-114.57 116.48,-109.42 120.51,-119.22 125.74,-114.57"/>
</g>
<!-- 26 -->
<g id="node27" class="node">
<title>26</title>
<polygon fill="none" stroke="black" points="296,-110 162,-110 162,-72 296,-72 296,-110"/>
<text text-anchor="middle" x="229" y="-94.8" font-family="Times,serif" font-size="14.00">longitude &lt;= &#45;77.678</text>
<text text-anchor="middle" x="229" y="-79.8" font-family="Times,serif" font-size="14.00">class = Canada</text>
</g>
<!-- 24&#45;&gt;26 -->
<g id="edge26" class="edge">
<title>24&#45;&gt;26</title>
<path fill="none" stroke="black" d="M181.15,-145.83C188.67,-137.37 197.76,-127.15 205.98,-117.9"/>
<polygon fill="black" stroke="black" points="208.6,-120.21 212.63,-110.41 203.37,-115.56 208.6,-120.21"/>
</g>
<!-- 27 -->
<g id="node28" class="node">
<title>27</title>
<polygon fill="none" stroke="black" points="222.5,-36 123.5,-36 123.5,0 222.5,0 222.5,-36"/>
<text text-anchor="middle" x="173" y="-14.3" font-family="Times,serif" font-size="14.00">class = Canada</text>
</g>
<!-- 26&#45;&gt;27 -->
<g id="edge27" class="edge">
<title>26&#45;&gt;27</title>
<path fill="none" stroke="black" d="M214.58,-71.72C207.93,-63.29 199.93,-53.15 192.73,-44.02"/>
<polygon fill="black" stroke="black" points="195.35,-41.69 186.41,-36 189.86,-46.02 195.35,-41.69"/>
</g>
<!-- 28 -->
<g id="node29" class="node">
<title>28</title>
<polygon fill="none" stroke="black" points="327,-36 241,-36 241,0 327,0 327,-36"/>
<text text-anchor="middle" x="284" y="-14.3" font-family="Times,serif" font-size="14.00">class = USA</text>
</g>
<!-- 26&#45;&gt;28 -->
<g id="edge28" class="edge">
<title>26&#45;&gt;28</title>
<path fill="none" stroke="black" d="M243.16,-71.72C249.69,-63.29 257.55,-53.15 264.62,-44.02"/>
<polygon fill="black" stroke="black" points="267.47,-46.05 270.83,-36 261.94,-41.77 267.47,-46.05"/>
</g>
<!-- 31 -->
<g id="node32" class="node">
<title>31</title>
<polygon fill="none" stroke="black" points="453,-257 367,-257 367,-221 453,-221 453,-257"/>
<text text-anchor="middle" x="410" y="-235.3" font-family="Times,serif" font-size="14.00">class = USA</text>
</g>
<!-- 30&#45;&gt;31 -->
<g id="edge31" class="edge">
<title>30&#45;&gt;31</title>
<path fill="none" stroke="black" d="M427.94,-293.83C425.24,-285.72 422,-275.99 419.02,-267.05"/>
<polygon fill="black" stroke="black" points="422.29,-265.8 415.81,-257.42 415.65,-268.01 422.29,-265.8"/>
</g>
<!-- 32 -->
<g id="node33" class="node">
<title>32</title>
<polygon fill="none" stroke="black" points="590.5,-258 471.5,-258 471.5,-220 590.5,-220 590.5,-258"/>
<text text-anchor="middle" x="531" y="-242.8" font-family="Times,serif" font-size="14.00">latitude &lt;= 44.848</text>
<text text-anchor="middle" x="531" y="-227.8" font-family="Times,serif" font-size="14.00">class = Canada</text>
</g>
<!-- 30&#45;&gt;32 -->
<g id="edge32" class="edge">
<title>30&#45;&gt;32</title>
<path fill="none" stroke="black" d="M458.48,-293.83C470.54,-284.88 485.25,-273.96 498.27,-264.3"/>
<polygon fill="black" stroke="black" points="500.59,-266.93 506.53,-258.16 496.41,-261.31 500.59,-266.93"/>
</g>
<!-- 33 -->
<g id="node34" class="node">
<title>33</title>
<polygon fill="none" stroke="black" points="478.5,-183 379.5,-183 379.5,-147 478.5,-147 478.5,-183"/>
<text text-anchor="middle" x="429" y="-161.3" font-family="Times,serif" font-size="14.00">class = Canada</text>
</g>
<!-- 32&#45;&gt;33 -->
<g id="edge33" class="edge">
<title>32&#45;&gt;33</title>
<path fill="none" stroke="black" d="M505.26,-219.83C492.07,-210.52 475.85,-199.07 461.77,-189.13"/>
<polygon fill="black" stroke="black" points="463.51,-186.08 453.33,-183.17 459.48,-191.8 463.51,-186.08"/>
</g>
<!-- 34 -->
<g id="node35" class="node">
<title>34</title>
<polygon fill="none" stroke="black" points="583,-183 497,-183 497,-147 583,-147 583,-183"/>
<text text-anchor="middle" x="540" y="-161.3" font-family="Times,serif" font-size="14.00">class = USA</text>
</g>
<!-- 32&#45;&gt;34 -->
<g id="edge34" class="edge">
<title>32&#45;&gt;34</title>
<path fill="none" stroke="black" d="M533.27,-219.83C534.26,-211.89 535.45,-202.41 536.55,-193.63"/>
<polygon fill="black" stroke="black" points="540.06,-193.77 537.82,-183.42 533.11,-192.91 540.06,-193.77"/>
</g>
<!-- 37 -->
<g id="node38" class="node">
<title>37</title>
<polygon fill="none" stroke="black" points="753,-480 619,-480 619,-442 753,-442 753,-480"/>
<text text-anchor="middle" x="686" y="-464.8" font-family="Times,serif" font-size="14.00">longitude &lt;= &#45;67.279</text>
<text text-anchor="middle" x="686" y="-449.8" font-family="Times,serif" font-size="14.00">class = USA</text>
</g>
<!-- 36&#45;&gt;37 -->
<g id="edge37" class="edge">
<title>36&#45;&gt;37</title>
<path fill="none" stroke="black" d="M686,-515.83C686,-508.13 686,-498.97 686,-490.42"/>
<polygon fill="black" stroke="black" points="689.5,-490.41 686,-480.41 682.5,-490.41 689.5,-490.41"/>
</g>
<!-- 54 -->
<g id="node55" class="node">
<title>54</title>
<polygon fill="none" stroke="black" points="870.5,-479 771.5,-479 771.5,-443 870.5,-443 870.5,-479"/>
<text text-anchor="middle" x="821" y="-457.3" font-family="Times,serif" font-size="14.00">class = Canada</text>
</g>
<!-- 36&#45;&gt;54 -->
<g id="edge54" class="edge">
<title>36&#45;&gt;54</title>
<path fill="none" stroke="black" d="M720.07,-515.83C738.19,-506.17 760.62,-494.2 779.72,-484.01"/>
<polygon fill="black" stroke="black" points="781.63,-486.97 788.8,-479.17 778.33,-480.79 781.63,-486.97"/>
</g>
<!-- 38 -->
<g id="node39" class="node">
<title>38</title>
<polygon fill="none" stroke="black" points="749.5,-406 622.5,-406 622.5,-368 749.5,-368 749.5,-406"/>
<text text-anchor="middle" x="686" y="-390.8" font-family="Times,serif" font-size="14.00">longitude &lt;= &#45;67.93</text>
<text text-anchor="middle" x="686" y="-375.8" font-family="Times,serif" font-size="14.00">class = Canada</text>
</g>
<!-- 37&#45;&gt;38 -->
<g id="edge38" class="edge">
<title>37&#45;&gt;38</title>
<path fill="none" stroke="black" d="M686,-441.83C686,-434.13 686,-424.97 686,-416.42"/>
<polygon fill="black" stroke="black" points="689.5,-416.41 686,-406.41 682.5,-416.41 689.5,-416.41"/>
</g>
<!-- 53 -->
<g id="node54" class="node">
<title>53</title>
<polygon fill="none" stroke="black" points="854,-405 768,-405 768,-369 854,-369 854,-405"/>
<text text-anchor="middle" x="811" y="-383.3" font-family="Times,serif" font-size="14.00">class = USA</text>
</g>
<!-- 37&#45;&gt;53 -->
<g id="edge53" class="edge">
<title>37&#45;&gt;53</title>
<path fill="none" stroke="black" d="M717.54,-441.83C734.17,-432.25 754.71,-420.42 772.3,-410.29"/>
<polygon fill="black" stroke="black" points="774.27,-413.2 781.19,-405.17 770.78,-407.13 774.27,-413.2"/>
</g>
<!-- 39 -->
<g id="node40" class="node">
<title>39</title>
<polygon fill="none" stroke="black" points="753,-332 619,-332 619,-294 753,-294 753,-332"/>
<text text-anchor="middle" x="686" y="-316.8" font-family="Times,serif" font-size="14.00">longitude &lt;= &#45;68.325</text>
<text text-anchor="middle" x="686" y="-301.8" font-family="Times,serif" font-size="14.00">class = USA</text>
</g>
<!-- 38&#45;&gt;39 -->
<g id="edge39" class="edge">
<title>38&#45;&gt;39</title>
<path fill="none" stroke="black" d="M686,-367.83C686,-360.13 686,-350.97 686,-342.42"/>
<polygon fill="black" stroke="black" points="689.5,-342.41 686,-332.41 682.5,-342.41 689.5,-342.41"/>
</g>
<!-- 48 -->
<g id="node49" class="node">
<title>48</title>
<polygon fill="none" stroke="black" points="991.5,-332 872.5,-332 872.5,-294 991.5,-294 991.5,-332"/>
<text text-anchor="middle" x="932" y="-316.8" font-family="Times,serif" font-size="14.00">latitude &lt;= 45.565</text>
<text text-anchor="middle" x="932" y="-301.8" font-family="Times,serif" font-size="14.00">class = Canada</text>
</g>
<!-- 38&#45;&gt;48 -->
<g id="edge48" class="edge">
<title>38&#45;&gt;48</title>
<path fill="none" stroke="black" d="M747.76,-367.92C782.62,-357.72 826.3,-344.94 862.38,-334.38"/>
<polygon fill="black" stroke="black" points="863.73,-337.63 872.34,-331.46 861.76,-330.91 863.73,-337.63"/>
</g>
<!-- 40 -->
<g id="node41" class="node">
<title>40</title>
<polygon fill="none" stroke="black" points="743,-258 609,-258 609,-220 743,-220 743,-258"/>
<text text-anchor="middle" x="676" y="-242.8" font-family="Times,serif" font-size="14.00">longitude &lt;= &#45;68.915</text>
<text text-anchor="middle" x="676" y="-227.8" font-family="Times,serif" font-size="14.00">class = Canada</text>
</g>
<!-- 39&#45;&gt;40 -->
<g id="edge40" class="edge">
<title>39&#45;&gt;40</title>
<path fill="none" stroke="black" d="M683.48,-293.83C682.41,-286.13 681.14,-276.97 679.95,-268.42"/>
<polygon fill="black" stroke="black" points="683.4,-267.84 678.56,-258.41 676.47,-268.8 683.4,-267.84"/>
</g>
<!-- 47 -->
<g id="node48" class="node">
<title>47</title>
<polygon fill="none" stroke="black" points="847,-257 761,-257 761,-221 847,-221 847,-257"/>
<text text-anchor="middle" x="804" y="-235.3" font-family="Times,serif" font-size="14.00">class = USA</text>
</g>
<!-- 39&#45;&gt;47 -->
<g id="edge47" class="edge">
<title>39&#45;&gt;47</title>
<path fill="none" stroke="black" d="M715.78,-293.83C731.33,-284.34 750.51,-272.64 767.01,-262.57"/>
<polygon fill="black" stroke="black" points="769.14,-265.37 775.86,-257.17 765.5,-259.39 769.14,-265.37"/>
</g>
<!-- 41 -->
<g id="node42" class="node">
<title>41</title>
<polygon fill="none" stroke="black" points="707,-183 621,-183 621,-147 707,-147 707,-183"/>
<text text-anchor="middle" x="664" y="-161.3" font-family="Times,serif" font-size="14.00">class = USA</text>
</g>
<!-- 40&#45;&gt;41 -->
<g id="edge41" class="edge">
<title>40&#45;&gt;41</title>
<path fill="none" stroke="black" d="M672.97,-219.83C671.63,-211.81 670.03,-202.2 668.56,-193.34"/>
<polygon fill="black" stroke="black" points="672,-192.71 666.9,-183.42 665.09,-193.86 672,-192.71"/>
</g>
<!-- 42 -->
<g id="node43" class="node">
<title>42</title>
<polygon fill="none" stroke="black" points="844.5,-184 725.5,-184 725.5,-146 844.5,-146 844.5,-184"/>
<text text-anchor="middle" x="785" y="-168.8" font-family="Times,serif" font-size="14.00">latitude &lt;= 47.256</text>
<text text-anchor="middle" x="785" y="-153.8" font-family="Times,serif" font-size="14.00">class = Canada</text>
</g>
<!-- 40&#45;&gt;42 -->
<g id="edge42" class="edge">
<title>40&#45;&gt;42</title>
<path fill="none" stroke="black" d="M703.51,-219.83C717.32,-210.71 734.23,-199.54 749.05,-189.74"/>
<polygon fill="black" stroke="black" points="751.09,-192.59 757.5,-184.16 747.23,-186.75 751.09,-192.59"/>
</g>
<!-- 43 -->
<g id="node44" class="node">
<title>43</title>
<polygon fill="none" stroke="black" points="770.5,-109 671.5,-109 671.5,-73 770.5,-73 770.5,-109"/>
<text text-anchor="middle" x="721" y="-87.3" font-family="Times,serif" font-size="14.00">class = Canada</text>
</g>
<!-- 42&#45;&gt;43 -->
<g id="edge43" class="edge">
<title>42&#45;&gt;43</title>
<path fill="none" stroke="black" d="M768.85,-145.83C761.1,-137.11 751.68,-126.52 743.26,-117.05"/>
<polygon fill="black" stroke="black" points="745.74,-114.57 736.48,-109.42 740.51,-119.22 745.74,-114.57"/>
</g>
<!-- 44 -->
<g id="node45" class="node">
<title>44</title>
<polygon fill="none" stroke="black" points="907.5,-110 788.5,-110 788.5,-72 907.5,-72 907.5,-110"/>
<text text-anchor="middle" x="848" y="-94.8" font-family="Times,serif" font-size="14.00">latitude &lt;= 47.312</text>
<text text-anchor="middle" x="848" y="-79.8" font-family="Times,serif" font-size="14.00">class = Canada</text>
</g>
<!-- 42&#45;&gt;44 -->
<g id="edge44" class="edge">
<title>42&#45;&gt;44</title>
<path fill="none" stroke="black" d="M800.9,-145.83C808.23,-137.45 817.07,-127.35 825.1,-118.17"/>
<polygon fill="black" stroke="black" points="827.94,-120.24 831.89,-110.41 822.67,-115.63 827.94,-120.24"/>
</g>
<!-- 45 -->
<g id="node46" class="node">
<title>45</title>
<polygon fill="none" stroke="black" points="835,-36 749,-36 749,0 835,0 835,-36"/>
<text text-anchor="middle" x="792" y="-14.3" font-family="Times,serif" font-size="14.00">class = USA</text>
</g>
<!-- 44&#45;&gt;45 -->
<g id="edge45" class="edge">
<title>44&#45;&gt;45</title>
<path fill="none" stroke="black" d="M833.58,-71.72C826.93,-63.29 818.93,-53.15 811.73,-44.02"/>
<polygon fill="black" stroke="black" points="814.35,-41.69 805.41,-36 808.86,-46.02 814.35,-41.69"/>
</g>
<!-- 46 -->
<g id="node47" class="node">
<title>46</title>
<polygon fill="none" stroke="black" points="952.5,-36 853.5,-36 853.5,0 952.5,0 952.5,-36"/>
<text text-anchor="middle" x="903" y="-14.3" font-family="Times,serif" font-size="14.00">class = Canada</text>
</g>
<!-- 44&#45;&gt;46 -->
<g id="edge46" class="edge">
<title>44&#45;&gt;46</title>
<path fill="none" stroke="black" d="M862.16,-71.72C868.69,-63.29 876.55,-53.15 883.62,-44.02"/>
<polygon fill="black" stroke="black" points="886.47,-46.05 889.83,-36 880.94,-41.77 886.47,-46.05"/>
</g>
<!-- 49 -->
<g id="node50" class="node">
<title>49</title>
<polygon fill="none" stroke="black" points="999,-258 865,-258 865,-220 999,-220 999,-258"/>
<text text-anchor="middle" x="932" y="-242.8" font-family="Times,serif" font-size="14.00">longitude &lt;= &#45;67.355</text>
<text text-anchor="middle" x="932" y="-227.8" font-family="Times,serif" font-size="14.00">class = Canada</text>
</g>
<!-- 48&#45;&gt;49 -->
<g id="edge49" class="edge">
<title>48&#45;&gt;49</title>
<path fill="none" stroke="black" d="M932,-293.83C932,-286.13 932,-276.97 932,-268.42"/>
<polygon fill="black" stroke="black" points="935.5,-268.41 932,-258.41 928.5,-268.41 935.5,-268.41"/>
</g>
<!-- 52 -->
<g id="node53" class="node">
<title>52</title>
<polygon fill="none" stroke="black" points="1116.5,-257 1017.5,-257 1017.5,-221 1116.5,-221 1116.5,-257"/>
<text text-anchor="middle" x="1067" y="-235.3" font-family="Times,serif" font-size="14.00">class = Canada</text>
</g>
<!-- 48&#45;&gt;52 -->
<g id="edge52" class="edge">
<title>48&#45;&gt;52</title>
<path fill="none" stroke="black" d="M966.07,-293.83C984.19,-284.17 1006.62,-272.2 1025.72,-262.01"/>
<polygon fill="black" stroke="black" points="1027.63,-264.97 1034.8,-257.17 1024.33,-258.79 1027.63,-264.97"/>
</g>
<!-- 50 -->
<g id="node51" class="node">
<title>50</title>
<polygon fill="none" stroke="black" points="966,-183 880,-183 880,-147 966,-147 966,-183"/>
<text text-anchor="middle" x="923" y="-161.3" font-family="Times,serif" font-size="14.00">class = USA</text>
</g>
<!-- 49&#45;&gt;50 -->
<g id="edge50" class="edge">
<title>49&#45;&gt;50</title>
<path fill="none" stroke="black" d="M929.73,-219.83C928.74,-211.89 927.55,-202.41 926.45,-193.63"/>
<polygon fill="black" stroke="black" points="929.89,-192.91 925.18,-183.42 922.94,-193.77 929.89,-192.91"/>
</g>
<!-- 51 -->
<g id="node52" class="node">
<title>51</title>
<polygon fill="none" stroke="black" points="1083.5,-183 984.5,-183 984.5,-147 1083.5,-147 1083.5,-183"/>
<text text-anchor="middle" x="1034" y="-161.3" font-family="Times,serif" font-size="14.00">class = Canada</text>
</g>
<!-- 49&#45;&gt;51 -->
<g id="edge51" class="edge">
<title>49&#45;&gt;51</title>
<path fill="none" stroke="black" d="M957.74,-219.83C970.93,-210.52 987.15,-199.07 1001.23,-189.13"/>
<polygon fill="black" stroke="black" points="1003.52,-191.8 1009.67,-183.17 999.49,-186.08 1003.52,-191.8"/>
</g>
</g>
</svg>
