<?xml version="1.0" encoding="UTF-8" standalone="no"?>
<!DOCTYPE svg PUBLIC "-//W3C//DTD SVG 1.1//EN"
 "http://www.w3.org/Graphics/SVG/1.1/DTD/svg11.dtd">
<!-- Generated by graphviz version 2.44.1 (20200629.0846)
 -->
<!-- Title: Tree Pages: 1 -->
<svg width="1120pt" height="932pt"
 viewBox="0.00 0.00 1119.50 932.00" xmlns="http://www.w3.org/2000/svg" xmlns:xlink="http://www.w3.org/1999/xlink">
<g id="graph0" class="graph" transform="scale(1 1) rotate(0) translate(4 928)">
<title>Tree</title>
<polygon fill="white" stroke="transparent" points="-4,4 -4,-928 1115.5,-928 1115.5,4 -4,4"/>
<!-- 0 -->
<g id="node1" class="node">
<title>0</title>
<polygon fill="none" stroke="black" points="285.5,-924 180.5,-924 180.5,-886 285.5,-886 285.5,-924"/>
<text text-anchor="middle" x="233" y="-908.8" font-family="Times,serif" font-size="14.00">latitude &lt;= 42.9</text>
<text text-anchor="middle" x="233" y="-893.8" font-family="Times,serif" font-size="14.00">class = Canada</text>
</g>
<!-- 1 -->
<g id="node2" class="node">
<title>1</title>
<polygon fill="none" stroke="black" points="218.5,-850 99.5,-850 99.5,-812 218.5,-812 218.5,-850"/>
<text text-anchor="middle" x="159" y="-834.8" font-family="Times,serif" font-size="14.00">latitude &lt;= 42.096</text>
<text text-anchor="middle" x="159" y="-819.8" font-family="Times,serif" font-size="14.00">class = USA</text>
</g>
<!-- 0&#45;&gt;1 -->
<g id="edge1" class="edge">
<title>0&#45;&gt;1</title>
<path fill="none" stroke="black" d="M214.33,-885.83C205.48,-877.22 194.75,-866.79 185.11,-857.4"/>
<polygon fill="black" stroke="black" points="187.28,-854.63 177.67,-850.16 182.39,-859.64 187.28,-854.63"/>
<text text-anchor="middle" x="178.01" y="-871.46" font-family="Times,serif" font-size="14.00">True</text>
</g>
<!-- 6 -->
<g id="node7" class="node">
<title>6</title>
<polygon fill="none" stroke="black" points="377,-850 237,-850 237,-812 377,-812 377,-850"/>
<text text-anchor="middle" x="307" y="-834.8" font-family="Times,serif" font-size="14.00">longitude &lt;= &#45;130.017</text>
<text text-anchor="middle" x="307" y="-819.8" font-family="Times,serif" font-size="14.00">class = Canada</text>
</g>
<!-- 0&#45;&gt;6 -->
<g id="edge6" class="edge">
<title>0&#45;&gt;6</title>
<path fill="none" stroke="black" d="M251.67,-885.83C260.52,-877.22 271.25,-866.79 280.89,-857.4"/>
<polygon fill="black" stroke="black" points="283.61,-859.64 288.33,-850.16 278.72,-854.63 283.61,-859.64"/>
<text text-anchor="middle" x="287.99" y="-871.46" font-family="Times,serif" font-size="14.00">False</text>
</g>
<!-- 2 -->
<g id="node3" class="node">
<title>2</title>
<polygon fill="none" stroke="black" points="86,-775 0,-775 0,-739 86,-739 86,-775"/>
<text text-anchor="middle" x="43" y="-753.3" font-family="Times,serif" font-size="14.00">class = USA</text>
</g>
<!-- 1&#45;&gt;2 -->
<g id="edge2" class="edge">
<title>1&#45;&gt;2</title>
<path fill="none" stroke="black" d="M129.73,-811.83C114.44,-802.34 95.58,-790.64 79.37,-780.57"/>
<polygon fill="black" stroke="black" points="81.01,-777.47 70.67,-775.17 77.32,-783.42 81.01,-777.47"/>
</g>
<!-- 3 -->
<g id="node4" class="node">
<title>3</title>
<polygon fill="none" stroke="black" points="223.5,-776 104.5,-776 104.5,-738 223.5,-738 223.5,-776"/>
<text text-anchor="middle" x="164" y="-760.8" font-family="Times,serif" font-size="14.00">latitude &lt;= 42.324</text>
<text text-anchor="middle" x="164" y="-745.8" font-family="Times,serif" font-size="14.00">class = USA</text>
</g>
<!-- 1&#45;&gt;3 -->
<g id="edge3" class="edge">
<title>1&#45;&gt;3</title>
<path fill="none" stroke="black" d="M160.26,-811.83C160.8,-804.13 161.43,-794.97 162.03,-786.42"/>
<polygon fill="black" stroke="black" points="165.52,-786.63 162.72,-776.41 158.54,-786.15 165.52,-786.63"/>
</g>
<!-- 4 -->
<g id="node5" class="node">
<title>4</title>
<polygon fill="none" stroke="black" points="206.5,-701 107.5,-701 107.5,-665 206.5,-665 206.5,-701"/>
<text text-anchor="middle" x="157" y="-679.3" font-family="Times,serif" font-size="14.00">class = Canada</text>
</g>
<!-- 3&#45;&gt;4 -->
<g id="edge4" class="edge">
<title>3&#45;&gt;4</title>
<path fill="none" stroke="black" d="M162.23,-737.83C161.46,-729.89 160.54,-720.41 159.69,-711.63"/>
<polygon fill="black" stroke="black" points="163.14,-711.03 158.69,-701.42 156.18,-711.71 163.14,-711.03"/>
</g>
<!-- 5 -->
<g id="node6" class="node">
<title>5</title>
<polygon fill="none" stroke="black" points="311,-701 225,-701 225,-665 311,-665 311,-701"/>
<text text-anchor="middle" x="268" y="-679.3" font-family="Times,serif" font-size="14.00">class = USA</text>
</g>
<!-- 3&#45;&gt;5 -->
<g id="edge5" class="edge">
<title>3&#45;&gt;5</title>
<path fill="none" stroke="black" d="M190.24,-737.83C203.7,-728.52 220.23,-717.07 234.59,-707.13"/>
<polygon fill="black" stroke="black" points="236.97,-709.74 243.2,-701.17 232.98,-703.99 236.97,-709.74"/>
</g>
<!-- 7 -->
<g id="node8" class="node">
<title>7</title>
<polygon fill="none" stroke="black" points="341,-775 255,-775 255,-739 341,-739 341,-775"/>
<text text-anchor="middle" x="298" y="-753.3" font-family="Times,serif" font-size="14.00">class = USA</text>
</g>
<!-- 6&#45;&gt;7 -->
<g id="edge7" class="edge">
<title>6&#45;&gt;7</title>
<path fill="none" stroke="black" d="M304.73,-811.83C303.74,-803.89 302.55,-794.41 301.45,-785.63"/>
<polygon fill="black" stroke="black" points="304.89,-784.91 300.18,-775.42 297.94,-785.77 304.89,-784.91"/>
</g>
<!-- 8 -->
<g id="node9" class="node">
<title>8</title>
<polygon fill="none" stroke="black" points="464.5,-776 359.5,-776 359.5,-738 464.5,-738 464.5,-776"/>
<text text-anchor="middle" x="412" y="-760.8" font-family="Times,serif" font-size="14.00">latitude &lt;= 49.0</text>
<text text-anchor="middle" x="412" y="-745.8" font-family="Times,serif" font-size="14.00">class = Canada</text>
</g>
<!-- 6&#45;&gt;8 -->
<g id="edge8" class="edge">
<title>6&#45;&gt;8</title>
<path fill="none" stroke="black" d="M333.5,-811.83C346.68,-802.79 362.78,-791.75 376.97,-782.02"/>
<polygon fill="black" stroke="black" points="379.24,-784.7 385.51,-776.16 375.29,-778.93 379.24,-784.7"/>
</g>
<!-- 9 -->
<g id="node10" class="node">
<title>9</title>
<polygon fill="none" stroke="black" points="474,-702 340,-702 340,-664 474,-664 474,-702"/>
<text text-anchor="middle" x="407" y="-686.8" font-family="Times,serif" font-size="14.00">longitude &lt;= &#45;94.582</text>
<text text-anchor="middle" x="407" y="-671.8" font-family="Times,serif" font-size="14.00">class = Canada</text>
</g>
<!-- 8&#45;&gt;9 -->
<g id="edge9" class="edge">
<title>8&#45;&gt;9</title>
<path fill="none" stroke="black" d="M410.74,-737.83C410.2,-730.13 409.57,-720.97 408.97,-712.42"/>
<polygon fill="black" stroke="black" points="412.46,-712.15 408.28,-702.41 405.48,-712.63 412.46,-712.15"/>
</g>
<!-- 54 -->
<g id="node55" class="node">
<title>54</title>
<polygon fill="none" stroke="black" points="591.5,-701 492.5,-701 492.5,-665 591.5,-665 591.5,-701"/>
<text text-anchor="middle" x="542" y="-679.3" font-family="Times,serif" font-size="14.00">class = Canada</text>
</g>
<!-- 8&#45;&gt;54 -->
<g id="edge54" class="edge">
<title>8&#45;&gt;54</title>
<path fill="none" stroke="black" d="M444.8,-737.83C462.18,-728.21 483.66,-716.31 502,-706.15"/>
<polygon fill="black" stroke="black" points="503.94,-709.08 511,-701.17 500.55,-702.95 503.94,-709.08"/>
</g>
<!-- 10 -->
<g id="node11" class="node">
<title>10</title>
<polygon fill="none" stroke="black" points="400,-628 260,-628 260,-590 400,-590 400,-628"/>
<text text-anchor="middle" x="330" y="-612.8" font-family="Times,serif" font-size="14.00">longitude &lt;= &#45;123.222</text>
<text text-anchor="middle" x="330" y="-597.8" font-family="Times,serif" font-size="14.00">class = USA</text>
</g>
<!-- 9&#45;&gt;10 -->
<g id="edge10" class="edge">
<title>9&#45;&gt;10</title>
<path fill="none" stroke="black" d="M387.57,-663.83C378.27,-655.13 366.98,-644.58 356.87,-635.13"/>
<polygon fill="black" stroke="black" points="359.12,-632.44 349.42,-628.16 354.34,-637.55 359.12,-632.44"/>
</g>
<!-- 13 -->
<g id="node14" class="node">
<title>13</title>
<polygon fill="none" stroke="black" points="552,-628 418,-628 418,-590 552,-590 552,-628"/>
<text text-anchor="middle" x="485" y="-612.8" font-family="Times,serif" font-size="14.00">longitude &lt;= &#45;69.246</text>
<text text-anchor="middle" x="485" y="-597.8" font-family="Times,serif" font-size="14.00">class = Canada</text>
</g>
<!-- 9&#45;&gt;13 -->
<g id="edge13" class="edge">
<title>9&#45;&gt;13</title>
<path fill="none" stroke="black" d="M426.68,-663.83C436.11,-655.13 447.54,-644.58 457.78,-635.13"/>
<polygon fill="black" stroke="black" points="460.35,-637.52 465.32,-628.16 455.6,-632.37 460.35,-637.52"/>
</g>
<!-- 11 -->
<g id="node12" class="node">
<title>11</title>
<polygon fill="none" stroke="black" points="277.5,-553 178.5,-553 178.5,-517 277.5,-517 277.5,-553"/>
<text text-anchor="middle" x="228" y="-531.3" font-family="Times,serif" font-size="14.00">class = Canada</text>
</g>
<!-- 10&#45;&gt;11 -->
<g id="edge11" class="edge">
<title>10&#45;&gt;11</title>
<path fill="none" stroke="black" d="M304.26,-589.83C291.07,-580.52 274.85,-569.07 260.77,-559.13"/>
<polygon fill="black" stroke="black" points="262.51,-556.08 252.33,-553.17 258.48,-561.8 262.51,-556.08"/>
</g>
<!-- 12 -->
<g id="node13" class="node">
<title>12</title>
<polygon fill="none" stroke="black" points="382,-553 296,-553 296,-517 382,-517 382,-553"/>
<text text-anchor="middle" x="339" y="-531.3" font-family="Times,serif" font-size="14.00">class = USA</text>
</g>
<!-- 10&#45;&gt;12 -->
<g id="edge12" class="edge">
<title>10&#45;&gt;12</title>
<path fill="none" stroke="black" d="M332.27,-589.83C333.26,-581.89 334.45,-572.41 335.55,-563.63"/>
<polygon fill="black" stroke="black" points="339.06,-563.77 336.82,-553.42 332.11,-562.91 339.06,-563.77"/>
</g>
<!-- 14 -->
<g id="node15" class="node">
<title>14</title>
<polygon fill="none" stroke="black" points="536.5,-554 417.5,-554 417.5,-516 536.5,-516 536.5,-554"/>
<text text-anchor="middle" x="477" y="-538.8" font-family="Times,serif" font-size="14.00">latitude &lt;= 43.093</text>
<text text-anchor="middle" x="477" y="-523.8" font-family="Times,serif" font-size="14.00">class = Canada</text>
</g>
<!-- 13&#45;&gt;14 -->
<g id="edge14" class="edge">
<title>13&#45;&gt;14</title>
<path fill="none" stroke="black" d="M482.98,-589.83C482.13,-582.13 481.11,-572.97 480.16,-564.42"/>
<polygon fill="black" stroke="black" points="483.63,-563.97 479.05,-554.41 476.67,-564.74 483.63,-563.97"/>
</g>
<!-- 37 -->
<g id="node38" class="node">
<title>37</title>
<polygon fill="none" stroke="black" points="729,-554 595,-554 595,-516 729,-516 729,-554"/>
<text text-anchor="middle" x="662" y="-538.8" font-family="Times,serif" font-size="14.00">longitude &lt;= &#45;66.952</text>
<text text-anchor="middle" x="662" y="-523.8" font-family="Times,serif" font-size="14.00">class = Canada</text>
</g>
<!-- 13&#45;&gt;37 -->
<g id="edge37" class="edge">
<title>13&#45;&gt;37</title>
<path fill="none" stroke="black" d="M529.66,-589.83C553.55,-580.12 583.13,-568.08 608.26,-557.86"/>
<polygon fill="black" stroke="black" points="609.71,-561.05 617.66,-554.04 607.07,-554.56 609.71,-561.05"/>
</g>
<!-- 15 -->
<g id="node16" class="node">
<title>15</title>
<polygon fill="none" stroke="black" points="358.5,-480 239.5,-480 239.5,-442 358.5,-442 358.5,-480"/>
<text text-anchor="middle" x="299" y="-464.8" font-family="Times,serif" font-size="14.00">latitude &lt;= 43.014</text>
<text text-anchor="middle" x="299" y="-449.8" font-family="Times,serif" font-size="14.00">class = Canada</text>
</g>
<!-- 14&#45;&gt;15 -->
<g id="edge15" class="edge">
<title>14&#45;&gt;15</title>
<path fill="none" stroke="black" d="M432.08,-515.83C408.07,-506.12 378.32,-494.08 353.04,-483.86"/>
<polygon fill="black" stroke="black" points="354.18,-480.54 343.59,-480.04 351.55,-487.03 354.18,-480.54"/>
</g>
<!-- 20 -->
<g id="node21" class="node">
<title>20</title>
<polygon fill="none" stroke="black" points="536.5,-480 417.5,-480 417.5,-442 536.5,-442 536.5,-480"/>
<text text-anchor="middle" x="477" y="-464.8" font-family="Times,serif" font-size="14.00">latitude &lt;= 44.992</text>
<text text-anchor="middle" x="477" y="-449.8" font-family="Times,serif" font-size="14.00">class = Canada</text>
</g>
<!-- 14&#45;&gt;20 -->
<g id="edge20" class="edge">
<title>14&#45;&gt;20</title>
<path fill="none" stroke="black" d="M477,-515.83C477,-508.13 477,-498.97 477,-490.42"/>
<polygon fill="black" stroke="black" points="480.5,-490.41 477,-480.41 473.5,-490.41 480.5,-490.41"/>
</g>
<!-- 16 -->
<g id="node17" class="node">
<title>16</title>
<polygon fill="none" stroke="black" points="231,-406 97,-406 97,-368 231,-368 231,-406"/>
<text text-anchor="middle" x="164" y="-390.8" font-family="Times,serif" font-size="14.00">longitude &lt;= &#45;81.845</text>
<text text-anchor="middle" x="164" y="-375.8" font-family="Times,serif" font-size="14.00">class = Canada</text>
</g>
<!-- 15&#45;&gt;16 -->
<g id="edge16" class="edge">
<title>15&#45;&gt;16</title>
<path fill="none" stroke="black" d="M264.93,-441.83C247.35,-432.45 225.71,-420.91 206.98,-410.92"/>
<polygon fill="black" stroke="black" points="208.53,-407.78 198.06,-406.16 205.23,-413.96 208.53,-407.78"/>
</g>
<!-- 19 -->
<g id="node20" class="node">
<title>19</title>
<polygon fill="none" stroke="black" points="342,-405 256,-405 256,-369 342,-369 342,-405"/>
<text text-anchor="middle" x="299" y="-383.3" font-family="Times,serif" font-size="14.00">class = USA</text>
</g>
<!-- 15&#45;&gt;19 -->
<g id="edge19" class="edge">
<title>15&#45;&gt;19</title>
<path fill="none" stroke="black" d="M299,-441.83C299,-433.89 299,-424.41 299,-415.63"/>
<polygon fill="black" stroke="black" points="302.5,-415.42 299,-405.42 295.5,-415.42 302.5,-415.42"/>
</g>
<!-- 17 -->
<g id="node18" class="node">
<title>17</title>
<polygon fill="none" stroke="black" points="96,-331 10,-331 10,-295 96,-295 96,-331"/>
<text text-anchor="middle" x="53" y="-309.3" font-family="Times,serif" font-size="14.00">class = USA</text>
</g>
<!-- 16&#45;&gt;17 -->
<g id="edge17" class="edge">
<title>16&#45;&gt;17</title>
<path fill="none" stroke="black" d="M135.99,-367.83C121.49,-358.43 103.65,-346.86 88.23,-336.85"/>
<polygon fill="black" stroke="black" points="89.77,-333.68 79.47,-331.17 85.96,-339.55 89.77,-333.68"/>
</g>
<!-- 18 -->
<g id="node19" class="node">
<title>18</title>
<polygon fill="none" stroke="black" points="213.5,-331 114.5,-331 114.5,-295 213.5,-295 213.5,-331"/>
<text text-anchor="middle" x="164" y="-309.3" font-family="Times,serif" font-size="14.00">class = Canada</text>
</g>
<!-- 16&#45;&gt;18 -->
<g id="edge18" class="edge">
<title>16&#45;&gt;18</title>
<path fill="none" stroke="black" d="M164,-367.83C164,-359.89 164,-350.41 164,-341.63"/>
<polygon fill="black" stroke="black" points="167.5,-341.42 164,-331.42 160.5,-341.42 167.5,-341.42"/>
</g>
<!-- 21 -->
<g id="node22" class="node">
<title>21</title>
<polygon fill="none" stroke="black" points="480.5,-406 361.5,-406 361.5,-368 480.5,-368 480.5,-406"/>
<text text-anchor="middle" x="421" y="-390.8" font-family="Times,serif" font-size="14.00">latitude &lt;= 44.542</text>
<text text-anchor="middle" x="421" y="-375.8" font-family="Times,serif" font-size="14.00">class = Canada</text>
</g>
<!-- 20&#45;&gt;21 -->
<g id="edge21" class="edge">
<title>20&#45;&gt;21</title>
<path fill="none" stroke="black" d="M462.87,-441.83C456.42,-433.54 448.66,-423.56 441.57,-414.45"/>
<polygon fill="black" stroke="black" points="444.22,-412.16 435.32,-406.41 438.7,-416.46 444.22,-412.16"/>
</g>
<!-- 36 -->
<g id="node37" class="node">
<title>36</title>
<polygon fill="none" stroke="black" points="597.5,-405 498.5,-405 498.5,-369 597.5,-369 597.5,-405"/>
<text text-anchor="middle" x="548" y="-383.3" font-family="Times,serif" font-size="14.00">class = Canada</text>
</g>
<!-- 20&#45;&gt;36 -->
<g id="edge36" class="edge">
<title>20&#45;&gt;36</title>
<path fill="none" stroke="black" d="M494.92,-441.83C503.6,-433.02 514.17,-422.31 523.58,-412.76"/>
<polygon fill="black" stroke="black" points="526.29,-415 530.82,-405.42 521.31,-410.08 526.29,-415"/>
</g>
<!-- 22 -->
<g id="node23" class="node">
<title>22</title>
<polygon fill="none" stroke="black" points="366,-332 232,-332 232,-294 366,-294 366,-332"/>
<text text-anchor="middle" x="299" y="-316.8" font-family="Times,serif" font-size="14.00">longitude &lt;= &#45;79.076</text>
<text text-anchor="middle" x="299" y="-301.8" font-family="Times,serif" font-size="14.00">class = Canada</text>
</g>
<!-- 21&#45;&gt;22 -->
<g id="edge22" class="edge">
<title>21&#45;&gt;22</title>
<path fill="none" stroke="black" d="M390.21,-367.83C374.61,-358.62 355.48,-347.33 338.77,-337.47"/>
<polygon fill="black" stroke="black" points="340.17,-334.23 329.78,-332.16 336.61,-340.26 340.17,-334.23"/>
</g>
<!-- 31 -->
<g id="node32" class="node">
<title>31</title>
<polygon fill="none" stroke="black" points="518,-332 384,-332 384,-294 518,-294 518,-332"/>
<text text-anchor="middle" x="451" y="-316.8" font-family="Times,serif" font-size="14.00">longitude &lt;= &#45;84.392</text>
<text text-anchor="middle" x="451" y="-301.8" font-family="Times,serif" font-size="14.00">class = USA</text>
</g>
<!-- 21&#45;&gt;31 -->
<g id="edge31" class="edge">
<title>21&#45;&gt;31</title>
<path fill="none" stroke="black" d="M428.57,-367.83C431.85,-359.96 435.76,-350.57 439.39,-341.85"/>
<polygon fill="black" stroke="black" points="442.71,-342.99 443.33,-332.41 436.25,-340.3 442.71,-342.99"/>
</g>
<!-- 23 -->
<g id="node24" class="node">
<title>23</title>
<polygon fill="none" stroke="black" points="221.5,-257 122.5,-257 122.5,-221 221.5,-221 221.5,-257"/>
<text text-anchor="middle" x="172" y="-235.3" font-family="Times,serif" font-size="14.00">class = Canada</text>
</g>
<!-- 22&#45;&gt;23 -->
<g id="edge23" class="edge">
<title>22&#45;&gt;23</title>
<path fill="none" stroke="black" d="M266.95,-293.83C250.06,-284.25 229.19,-272.42 211.32,-262.29"/>
<polygon fill="black" stroke="black" points="212.71,-259.06 202.29,-257.17 209.26,-265.15 212.71,-259.06"/>
</g>
<!-- 24 -->
<g id="node25" class="node">
<title>24</title>
<polygon fill="none" stroke="black" points="358.5,-258 239.5,-258 239.5,-220 358.5,-220 358.5,-258"/>
<text text-anchor="middle" x="299" y="-242.8" font-family="Times,serif" font-size="14.00">latitude &lt;= 44.168</text>
<text text-anchor="middle" x="299" y="-227.8" font-family="Times,serif" font-size="14.00">class = Canada</text>
</g>
<!-- 22&#45;&gt;24 -->
<g id="edge24" class="edge">
<title>22&#45;&gt;24</title>
<path fill="none" stroke="black" d="M299,-293.83C299,-286.13 299,-276.97 299,-268.42"/>
<polygon fill="black" stroke="black" points="302.5,-268.41 299,-258.41 295.5,-268.41 302.5,-268.41"/>
</g>
<!-- 25 -->
<g id="node26" class="node">
<title>25</title>
<polygon fill="none" stroke="black" points="241.5,-184 114.5,-184 114.5,-146 241.5,-146 241.5,-184"/>
<text text-anchor="middle" x="178" y="-168.8" font-family="Times,serif" font-size="14.00">longitude &lt;= &#45;79.03</text>
<text text-anchor="middle" x="178" y="-153.8" font-family="Times,serif" font-size="14.00">class = USA</text>
</g>
<!-- 24&#45;&gt;25 -->
<g id="edge25" class="edge">
<title>24&#45;&gt;25</title>
<path fill="none" stroke="black" d="M268.47,-219.83C252.99,-210.62 234.01,-199.33 217.44,-189.47"/>
<polygon fill="black" stroke="black" points="218.91,-186.27 208.52,-184.16 215.33,-192.28 218.91,-186.27"/>
</g>
<!-- 30 -->
<g id="node31" class="node">
<title>30</title>
<polygon fill="none" stroke="black" points="358.5,-183 259.5,-183 259.5,-147 358.5,-147 358.5,-183"/>
<text text-anchor="middle" x="309" y="-161.3" font-family="Times,serif" font-size="14.00">class = Canada</text>
</g>
<!-- 24&#45;&gt;30 -->
<g id="edge30" class="edge">
<title>24&#45;&gt;30</title>
<path fill="none" stroke="black" d="M301.52,-219.83C302.64,-211.81 303.97,-202.2 305.2,-193.34"/>
<polygon fill="black" stroke="black" points="308.67,-193.8 306.58,-183.42 301.74,-192.84 308.67,-193.8"/>
</g>
<!-- 26 -->
<g id="node27" class="node">
<title>26</title>
<polygon fill="none" stroke="black" points="157,-109 71,-109 71,-73 157,-73 157,-109"/>
<text text-anchor="middle" x="114" y="-87.3" font-family="Times,serif" font-size="14.00">class = USA</text>
</g>
<!-- 25&#45;&gt;26 -->
<g id="edge26" class="edge">
<title>25&#45;&gt;26</title>
<path fill="none" stroke="black" d="M161.85,-145.83C154.1,-137.11 144.68,-126.52 136.26,-117.05"/>
<polygon fill="black" stroke="black" points="138.74,-114.57 129.48,-109.42 133.51,-119.22 138.74,-114.57"/>
</g>
<!-- 27 -->
<g id="node28" class="node">
<title>27</title>
<polygon fill="none" stroke="black" points="309,-110 175,-110 175,-72 309,-72 309,-110"/>
<text text-anchor="middle" x="242" y="-94.8" font-family="Times,serif" font-size="14.00">longitude &lt;= &#45;77.678</text>
<text text-anchor="middle" x="242" y="-79.8" font-family="Times,serif" font-size="14.00">class = Canada</text>
</g>
<!-- 25&#45;&gt;27 -->
<g id="edge27" class="edge">
<title>25&#45;&gt;27</title>
<path fill="none" stroke="black" d="M194.15,-145.83C201.67,-137.37 210.76,-127.15 218.98,-117.9"/>
<polygon fill="black" stroke="black" points="221.6,-120.21 225.63,-110.41 216.37,-115.56 221.6,-120.21"/>
</g>
<!-- 28 -->
<g id="node29" class="node">
<title>28</title>
<polygon fill="none" stroke="black" points="235.5,-36 136.5,-36 136.5,0 235.5,0 235.5,-36"/>
<text text-anchor="middle" x="186" y="-14.3" font-family="Times,serif" font-size="14.00">class = Canada</text>
</g>
<!-- 27&#45;&gt;28 -->
<g id="edge28" class="edge">
<title>27&#45;&gt;28</title>
<path fill="none" stroke="black" d="M227.58,-71.72C220.93,-63.29 212.93,-53.15 205.73,-44.02"/>
<polygon fill="black" stroke="black" points="208.35,-41.69 199.41,-36 202.86,-46.02 208.35,-41.69"/>
</g>
<!-- 29 -->
<g id="node30" class="node">
<title>29</title>
<polygon fill="none" stroke="black" points="340,-36 254,-36 254,0 340,0 340,-36"/>
<text text-anchor="middle" x="297" y="-14.3" font-family="Times,serif" font-size="14.00">class = USA</text>
</g>
<!-- 27&#45;&gt;29 -->
<g id="edge29" class="edge">
<title>27&#45;&gt;29</title>
<path fill="none" stroke="black" d="M256.16,-71.72C262.69,-63.29 270.55,-53.15 277.62,-44.02"/>
<polygon fill="black" stroke="black" points="280.47,-46.05 283.83,-36 274.94,-41.77 280.47,-46.05"/>
</g>
<!-- 32 -->
<g id="node33" class="node">
<title>32</title>
<polygon fill="none" stroke="black" points="463,-257 377,-257 377,-221 463,-221 463,-257"/>
<text text-anchor="middle" x="420" y="-235.3" font-family="Times,serif" font-size="14.00">class = USA</text>
</g>
<!-- 31&#45;&gt;32 -->
<g id="edge32" class="edge">
<title>31&#45;&gt;32</title>
<path fill="none" stroke="black" d="M443.18,-293.83C439.65,-285.63 435.41,-275.78 431.52,-266.76"/>
<polygon fill="black" stroke="black" points="434.67,-265.22 427.5,-257.42 428.24,-267.99 434.67,-265.22"/>
</g>
<!-- 33 -->
<g id="node34" class="node">
<title>33</title>
<polygon fill="none" stroke="black" points="615,-258 481,-258 481,-220 615,-220 615,-258"/>
<text text-anchor="middle" x="548" y="-242.8" font-family="Times,serif" font-size="14.00">longitude &lt;= &#45;75.503</text>
<text text-anchor="middle" x="548" y="-227.8" font-family="Times,serif" font-size="14.00">class = Canada</text>
</g>
<!-- 31&#45;&gt;33 -->
<g id="edge33" class="edge">
<title>31&#45;&gt;33</title>
<path fill="none" stroke="black" d="M475.48,-293.83C487.54,-284.88 502.25,-273.96 515.27,-264.3"/>
<polygon fill="black" stroke="black" points="517.59,-266.93 523.53,-258.16 513.41,-261.31 517.59,-266.93"/>
</g>
<!-- 34 -->
<g id="node35" class="node">
<title>34</title>
<polygon fill="none" stroke="black" points="487.5,-183 388.5,-183 388.5,-147 487.5,-147 487.5,-183"/>
<text text-anchor="middle" x="438" y="-161.3" font-family="Times,serif" font-size="14.00">class = Canada</text>
</g>
<!-- 33&#45;&gt;34 -->
<g id="edge34" class="edge">
<title>33&#45;&gt;34</title>
<path fill="none" stroke="black" d="M520.24,-219.83C505.88,-210.43 488.2,-198.86 472.91,-188.85"/>
<polygon fill="black" stroke="black" points="474.52,-185.72 464.23,-183.17 470.68,-191.58 474.52,-185.72"/>
</g>
<!-- 35 -->
<g id="node36" class="node">
<title>35</title>
<polygon fill="none" stroke="black" points="592,-183 506,-183 506,-147 592,-147 592,-183"/>
<text text-anchor="middle" x="549" y="-161.3" font-family="Times,serif" font-size="14.00">class = USA</text>
</g>
<!-- 33&#45;&gt;35 -->
<g id="edge35" class="edge">
<title>33&#45;&gt;35</title>
<path fill="none" stroke="black" d="M548.25,-219.83C548.36,-211.89 548.49,-202.41 548.62,-193.63"/>
<polygon fill="black" stroke="black" points="552.12,-193.47 548.76,-183.42 545.12,-193.37 552.12,-193.47"/>
</g>
<!-- 38 -->
<g id="node39" class="node">
<title>38</title>
<polygon fill="none" stroke="black" points="721.5,-480 602.5,-480 602.5,-442 721.5,-442 721.5,-480"/>
<text text-anchor="middle" x="662" y="-464.8" font-family="Times,serif" font-size="14.00">latitude &lt;= 45.195</text>
<text text-anchor="middle" x="662" y="-449.8" font-family="Times,serif" font-size="14.00">class = USA</text>
</g>
<!-- 37&#45;&gt;38 -->
<g id="edge38" class="edge">
<title>37&#45;&gt;38</title>
<path fill="none" stroke="black" d="M662,-515.83C662,-508.13 662,-498.97 662,-490.42"/>
<polygon fill="black" stroke="black" points="665.5,-490.41 662,-480.41 658.5,-490.41 665.5,-490.41"/>
</g>
<!-- 53 -->
<g id="node54" class="node">
<title>53</title>
<polygon fill="none" stroke="black" points="838.5,-479 739.5,-479 739.5,-443 838.5,-443 838.5,-479"/>
<text text-anchor="middle" x="789" y="-457.3" font-family="Times,serif" font-size="14.00">class = Canada</text>
</g>
<!-- 37&#45;&gt;53 -->
<g id="edge53" class="edge">
<title>37&#45;&gt;53</title>
<path fill="none" stroke="black" d="M694.05,-515.83C710.94,-506.25 731.81,-494.42 749.68,-484.29"/>
<polygon fill="black" stroke="black" points="751.74,-487.15 758.71,-479.17 748.29,-481.06 751.74,-487.15"/>
</g>
<!-- 39 -->
<g id="node40" class="node">
<title>39</title>
<polygon fill="none" stroke="black" points="705,-405 619,-405 619,-369 705,-369 705,-405"/>
<text text-anchor="middle" x="662" y="-383.3" font-family="Times,serif" font-size="14.00">class = USA</text>
</g>
<!-- 38&#45;&gt;39 -->
<g id="edge39" class="edge">
<title>38&#45;&gt;39</title>
<path fill="none" stroke="black" d="M662,-441.83C662,-433.89 662,-424.41 662,-415.63"/>
<polygon fill="black" stroke="black" points="665.5,-415.42 662,-405.42 658.5,-415.42 665.5,-415.42"/>
</g>
<!-- 40 -->
<g id="node41" class="node">
<title>40</title>
<polygon fill="none" stroke="black" points="852.5,-406 725.5,-406 725.5,-368 852.5,-368 852.5,-406"/>
<text text-anchor="middle" x="789" y="-390.8" font-family="Times,serif" font-size="14.00">longitude &lt;= &#45;67.93</text>
<text text-anchor="middle" x="789" y="-375.8" font-family="Times,serif" font-size="14.00">class = Canada</text>
</g>
<!-- 38&#45;&gt;40 -->
<g id="edge40" class="edge">
<title>38&#45;&gt;40</title>
<path fill="none" stroke="black" d="M694.05,-441.83C710.44,-432.54 730.58,-421.12 748.08,-411.2"/>
<polygon fill="black" stroke="black" points="749.99,-414.14 756.96,-406.16 746.54,-408.05 749.99,-414.14"/>
</g>
<!-- 41 -->
<g id="node42" class="node">
<title>41</title>
<polygon fill="none" stroke="black" points="856,-332 722,-332 722,-294 856,-294 856,-332"/>
<text text-anchor="middle" x="789" y="-316.8" font-family="Times,serif" font-size="14.00">longitude &lt;= &#45;68.325</text>
<text text-anchor="middle" x="789" y="-301.8" font-family="Times,serif" font-size="14.00">class = USA</text>
</g>
<!-- 40&#45;&gt;41 -->
<g id="edge41" class="edge">
<title>40&#45;&gt;41</title>
<path fill="none" stroke="black" d="M789,-367.83C789,-360.13 789,-350.97 789,-342.42"/>
<polygon fill="black" stroke="black" points="792.5,-342.41 789,-332.41 785.5,-342.41 792.5,-342.41"/>
</g>
<!-- 48 -->
<g id="node49" class="node">
<title>48</title>
<polygon fill="none" stroke="black" points="994.5,-332 875.5,-332 875.5,-294 994.5,-294 994.5,-332"/>
<text text-anchor="middle" x="935" y="-316.8" font-family="Times,serif" font-size="14.00">latitude &lt;= 45.565</text>
<text text-anchor="middle" x="935" y="-301.8" font-family="Times,serif" font-size="14.00">class = Canada</text>
</g>
<!-- 40&#45;&gt;48 -->
<g id="edge48" class="edge">
<title>40&#45;&gt;48</title>
<path fill="none" stroke="black" d="M825.84,-367.83C845.11,-358.33 868.87,-346.61 889.3,-336.54"/>
<polygon fill="black" stroke="black" points="891,-339.6 898.42,-332.04 887.91,-333.32 891,-339.6"/>
</g>
<!-- 42 -->
<g id="node43" class="node">
<title>42</title>
<polygon fill="none" stroke="black" points="752.5,-258 633.5,-258 633.5,-220 752.5,-220 752.5,-258"/>
<text text-anchor="middle" x="693" y="-242.8" font-family="Times,serif" font-size="14.00">latitude &lt;= 47.256</text>
<text text-anchor="middle" x="693" y="-227.8" font-family="Times,serif" font-size="14.00">class = Canada</text>
</g>
<!-- 41&#45;&gt;42 -->
<g id="edge42" class="edge">
<title>41&#45;&gt;42</title>
<path fill="none" stroke="black" d="M764.78,-293.83C752.84,-284.88 738.27,-273.96 725.39,-264.3"/>
<polygon fill="black" stroke="black" points="727.32,-261.36 717.22,-258.16 723.12,-266.96 727.32,-261.36"/>
</g>
<!-- 47 -->
<g id="node48" class="node">
<title>47</title>
<polygon fill="none" stroke="black" points="857,-257 771,-257 771,-221 857,-221 857,-257"/>
<text text-anchor="middle" x="814" y="-235.3" font-family="Times,serif" font-size="14.00">class = USA</text>
</g>
<!-- 41&#45;&gt;47 -->
<g id="edge47" class="edge">
<title>41&#45;&gt;47</title>
<path fill="none" stroke="black" d="M795.31,-293.83C798.13,-285.72 801.5,-275.99 804.61,-267.05"/>
<polygon fill="black" stroke="black" points="807.98,-268.01 807.95,-257.42 801.37,-265.72 807.98,-268.01"/>
</g>
<!-- 43 -->
<g id="node44" class="node">
<title>43</title>
<polygon fill="none" stroke="black" points="712.5,-183 613.5,-183 613.5,-147 712.5,-147 712.5,-183"/>
<text text-anchor="middle" x="663" y="-161.3" font-family="Times,serif" font-size="14.00">class = Canada</text>
</g>
<!-- 42&#45;&gt;43 -->
<g id="edge43" class="edge">
<title>42&#45;&gt;43</title>
<path fill="none" stroke="black" d="M685.43,-219.83C682.01,-211.63 677.91,-201.78 674.15,-192.76"/>
<polygon fill="black" stroke="black" points="677.33,-191.3 670.26,-183.42 670.87,-193.99 677.33,-191.3"/>
</g>
<!-- 44 -->
<g id="node45" class="node">
<title>44</title>
<polygon fill="none" stroke="black" points="865,-184 731,-184 731,-146 865,-146 865,-184"/>
<text text-anchor="middle" x="798" y="-168.8" font-family="Times,serif" font-size="14.00">longitude &lt;= &#45;68.459</text>
<text text-anchor="middle" x="798" y="-153.8" font-family="Times,serif" font-size="14.00">class = USA</text>
</g>
<!-- 42&#45;&gt;44 -->
<g id="edge44" class="edge">
<title>42&#45;&gt;44</title>
<path fill="none" stroke="black" d="M719.5,-219.83C732.68,-210.79 748.78,-199.75 762.97,-190.02"/>
<polygon fill="black" stroke="black" points="765.24,-192.7 771.51,-184.16 761.29,-186.93 765.24,-192.7"/>
</g>
<!-- 45 -->
<g id="node46" class="node">
<title>45</title>
<polygon fill="none" stroke="black" points="785,-109 699,-109 699,-73 785,-73 785,-109"/>
<text text-anchor="middle" x="742" y="-87.3" font-family="Times,serif" font-size="14.00">class = USA</text>
</g>
<!-- 44&#45;&gt;45 -->
<g id="edge45" class="edge">
<title>44&#45;&gt;45</title>
<path fill="none" stroke="black" d="M783.87,-145.83C777.15,-137.2 769.01,-126.73 761.7,-117.33"/>
<polygon fill="black" stroke="black" points="764.45,-115.16 755.55,-109.42 758.92,-119.46 764.45,-115.16"/>
</g>
<!-- 46 -->
<g id="node47" class="node">
<title>46</title>
<polygon fill="none" stroke="black" points="902.5,-109 803.5,-109 803.5,-73 902.5,-73 902.5,-109"/>
<text text-anchor="middle" x="853" y="-87.3" font-family="Times,serif" font-size="14.00">class = Canada</text>
</g>
<!-- 44&#45;&gt;46 -->
<g id="edge46" class="edge">
<title>44&#45;&gt;46</title>
<path fill="none" stroke="black" d="M811.88,-145.83C818.41,-137.28 826.31,-126.94 833.43,-117.62"/>
<polygon fill="black" stroke="black" points="836.41,-119.49 839.69,-109.42 830.84,-115.24 836.41,-119.49"/>
</g>
<!-- 49 -->
<g id="node50" class="node">
<title>49</title>
<polygon fill="none" stroke="black" points="994.5,-258 875.5,-258 875.5,-220 994.5,-220 994.5,-258"/>
<text text-anchor="middle" x="935" y="-242.8" font-family="Times,serif" font-size="14.00">latitude &lt;= 45.382</text>
<text text-anchor="middle" x="935" y="-227.8" font-family="Times,serif" font-size="14.00">class = Canada</text>
</g>
<!-- 48&#45;&gt;49 -->
<g id="edge49" class="edge">
<title>48&#45;&gt;49</title>
<path fill="none" stroke="black" d="M935,-293.83C935,-286.13 935,-276.97 935,-268.42"/>
<polygon fill="black" stroke="black" points="938.5,-268.41 935,-258.41 931.5,-268.41 938.5,-268.41"/>
</g>
<!-- 52 -->
<g id="node53" class="node">
<title>52</title>
<polygon fill="none" stroke="black" points="1111.5,-257 1012.5,-257 1012.5,-221 1111.5,-221 1111.5,-257"/>
<text text-anchor="middle" x="1062" y="-235.3" font-family="Times,serif" font-size="14.00">class = Canada</text>
</g>
<!-- 48&#45;&gt;52 -->
<g id="edge52" class="edge">
<title>48&#45;&gt;52</title>
<path fill="none" stroke="black" d="M967.05,-293.83C983.94,-284.25 1004.81,-272.42 1022.68,-262.29"/>
<polygon fill="black" stroke="black" points="1024.74,-265.15 1031.71,-257.17 1021.29,-259.06 1024.74,-265.15"/>
</g>
<!-- 50 -->
<g id="node51" class="node">
<title>50</title>
<polygon fill="none" stroke="black" points="983.5,-183 884.5,-183 884.5,-147 983.5,-147 983.5,-183"/>
<text text-anchor="middle" x="934" y="-161.3" font-family="Times,serif" font-size="14.00">class = Canada</text>
</g>
<!-- 49&#45;&gt;50 -->
<g id="edge50" class="edge">
<title>49&#45;&gt;50</title>
<path fill="none" stroke="black" d="M934.75,-219.83C934.64,-211.89 934.51,-202.41 934.38,-193.63"/>
<polygon fill="black" stroke="black" points="937.88,-193.37 934.24,-183.42 930.88,-193.47 937.88,-193.37"/>
</g>
<!-- 51 -->
<g id="node52" class="node">
<title>51</title>
<polygon fill="none" stroke="black" points="1088,-183 1002,-183 1002,-147 1088,-147 1088,-183"/>
<text text-anchor="middle" x="1045" y="-161.3" font-family="Times,serif" font-size="14.00">class = USA</text>
</g>
<!-- 49&#45;&gt;51 -->
<g id="edge51" class="edge">
<title>49&#45;&gt;51</title>
<path fill="none" stroke="black" d="M962.76,-219.83C977.12,-210.43 994.8,-198.86 1010.09,-188.85"/>
<polygon fill="black" stroke="black" points="1012.32,-191.58 1018.77,-183.17 1008.48,-185.72 1012.32,-191.58"/>
</g>
</g>
</svg>
