<?xml version="1.0" encoding="UTF-8" standalone="no"?>
<!DOCTYPE svg PUBLIC "-//W3C//DTD SVG 1.1//EN"
 "http://www.w3.org/Graphics/SVG/1.1/DTD/svg11.dtd">
<!-- Generated by graphviz version 2.44.1 (20200629.0846)
 -->
<!-- Title: Tree Pages: 1 -->
<svg width="1892pt" height="636pt"
 viewBox="0.00 0.00 1892.00 636.00" xmlns="http://www.w3.org/2000/svg" xmlns:xlink="http://www.w3.org/1999/xlink">
<g id="graph0" class="graph" transform="scale(1 1) rotate(0) translate(4 632)">
<title>Tree</title>
<polygon fill="white" stroke="transparent" points="-4,4 -4,-632 1888,-632 1888,4 -4,4"/>
<!-- 0 -->
<g id="node1" class="node">
<title>0</title>
<polygon fill="none" stroke="black" points="601,-628 509,-628 509,-590 601,-590 601,-628"/>
<text text-anchor="middle" x="555" y="-612.8" font-family="Times,serif" font-size="14.00">lat &lt;= 37.682</text>
<text text-anchor="middle" x="555" y="-597.8" font-family="Times,serif" font-size="14.00">class = blue</text>
</g>
<!-- 1 -->
<g id="node2" class="node">
<title>1</title>
<polygon fill="none" stroke="black" points="363.5,-554 256.5,-554 256.5,-516 363.5,-516 363.5,-554"/>
<text text-anchor="middle" x="310" y="-538.8" font-family="Times,serif" font-size="14.00">lon &lt;= &#45;114.063</text>
<text text-anchor="middle" x="310" y="-523.8" font-family="Times,serif" font-size="14.00">class = red</text>
</g>
<!-- 0&#45;&gt;1 -->
<g id="edge1" class="edge">
<title>0&#45;&gt;1</title>
<path fill="none" stroke="black" d="M508.92,-594.46C470.6,-583.2 415.66,-567.05 373.23,-554.58"/>
<polygon fill="black" stroke="black" points="374.13,-551.2 363.55,-551.74 372.16,-557.92 374.13,-551.2"/>
<text text-anchor="middle" x="375.53" y="-569.98" font-family="Times,serif" font-size="14.00">True</text>
</g>
<!-- 24 -->
<g id="node25" class="node">
<title>24</title>
<polygon fill="none" stroke="black" points="910,-554 810,-554 810,-516 910,-516 910,-554"/>
<text text-anchor="middle" x="860" y="-538.8" font-family="Times,serif" font-size="14.00">lon &lt;= &#45;96.061</text>
<text text-anchor="middle" x="860" y="-523.8" font-family="Times,serif" font-size="14.00">class = blue</text>
</g>
<!-- 0&#45;&gt;24 -->
<g id="edge24" class="edge">
<title>0&#45;&gt;24</title>
<path fill="none" stroke="black" d="M601.32,-597.06C654.49,-584.51 741.84,-563.89 800.13,-550.13"/>
<polygon fill="black" stroke="black" points="801.01,-553.52 809.94,-547.82 799.4,-546.71 801.01,-553.52"/>
<text text-anchor="middle" x="796.8" y="-565.38" font-family="Times,serif" font-size="14.00">False</text>
</g>
<!-- 2 -->
<g id="node3" class="node">
<title>2</title>
<polygon fill="none" stroke="black" points="246,-479 164,-479 164,-443 246,-443 246,-479"/>
<text text-anchor="middle" x="205" y="-457.3" font-family="Times,serif" font-size="14.00">class = blue</text>
</g>
<!-- 1&#45;&gt;2 -->
<g id="edge2" class="edge">
<title>1&#45;&gt;2</title>
<path fill="none" stroke="black" d="M283.5,-515.83C269.79,-506.43 252.91,-494.86 238.33,-484.85"/>
<polygon fill="black" stroke="black" points="240.27,-481.94 230.04,-479.17 236.31,-487.71 240.27,-481.94"/>
</g>
<!-- 3 -->
<g id="node4" class="node">
<title>3</title>
<polygon fill="none" stroke="black" points="356,-480 264,-480 264,-442 356,-442 356,-480"/>
<text text-anchor="middle" x="310" y="-464.8" font-family="Times,serif" font-size="14.00">lat &lt;= 29.595</text>
<text text-anchor="middle" x="310" y="-449.8" font-family="Times,serif" font-size="14.00">class = red</text>
</g>
<!-- 1&#45;&gt;3 -->
<g id="edge3" class="edge">
<title>1&#45;&gt;3</title>
<path fill="none" stroke="black" d="M310,-515.83C310,-508.13 310,-498.97 310,-490.42"/>
<polygon fill="black" stroke="black" points="313.5,-490.41 310,-480.41 306.5,-490.41 313.5,-490.41"/>
</g>
<!-- 4 -->
<g id="node5" class="node">
<title>4</title>
<polygon fill="none" stroke="black" points="185,-406 85,-406 85,-368 185,-368 185,-406"/>
<text text-anchor="middle" x="135" y="-390.8" font-family="Times,serif" font-size="14.00">lon &lt;= &#45;90.074</text>
<text text-anchor="middle" x="135" y="-375.8" font-family="Times,serif" font-size="14.00">class = blue</text>
</g>
<!-- 3&#45;&gt;4 -->
<g id="edge4" class="edge">
<title>3&#45;&gt;4</title>
<path fill="none" stroke="black" d="M265.84,-441.83C242.23,-432.12 212.98,-420.08 188.13,-409.86"/>
<polygon fill="black" stroke="black" points="189.42,-406.61 178.84,-406.04 186.76,-413.08 189.42,-406.61"/>
</g>
<!-- 7 -->
<g id="node8" class="node">
<title>7</title>
<polygon fill="none" stroke="black" points="356,-406 264,-406 264,-368 356,-368 356,-406"/>
<text text-anchor="middle" x="310" y="-390.8" font-family="Times,serif" font-size="14.00">lat &lt;= 36.522</text>
<text text-anchor="middle" x="310" y="-375.8" font-family="Times,serif" font-size="14.00">class = red</text>
</g>
<!-- 3&#45;&gt;7 -->
<g id="edge7" class="edge">
<title>3&#45;&gt;7</title>
<path fill="none" stroke="black" d="M310,-441.83C310,-434.13 310,-424.97 310,-416.42"/>
<polygon fill="black" stroke="black" points="313.5,-416.41 310,-406.41 306.5,-416.41 313.5,-416.41"/>
</g>
<!-- 5 -->
<g id="node6" class="node">
<title>5</title>
<polygon fill="none" stroke="black" points="76,-331 0,-331 0,-295 76,-295 76,-331"/>
<text text-anchor="middle" x="38" y="-309.3" font-family="Times,serif" font-size="14.00">class = red</text>
</g>
<!-- 4&#45;&gt;5 -->
<g id="edge5" class="edge">
<title>4&#45;&gt;5</title>
<path fill="none" stroke="black" d="M110.52,-367.83C97.97,-358.52 82.55,-347.07 69.16,-337.13"/>
<polygon fill="black" stroke="black" points="71.25,-334.32 61.13,-331.17 67.08,-339.94 71.25,-334.32"/>
</g>
<!-- 6 -->
<g id="node7" class="node">
<title>6</title>
<polygon fill="none" stroke="black" points="176,-331 94,-331 94,-295 176,-295 176,-331"/>
<text text-anchor="middle" x="135" y="-309.3" font-family="Times,serif" font-size="14.00">class = blue</text>
</g>
<!-- 4&#45;&gt;6 -->
<g id="edge6" class="edge">
<title>4&#45;&gt;6</title>
<path fill="none" stroke="black" d="M135,-367.83C135,-359.89 135,-350.41 135,-341.63"/>
<polygon fill="black" stroke="black" points="138.5,-341.42 135,-331.42 131.5,-341.42 138.5,-341.42"/>
</g>
<!-- 8 -->
<g id="node9" class="node">
<title>8</title>
<polygon fill="none" stroke="black" points="301.5,-332 194.5,-332 194.5,-294 301.5,-294 301.5,-332"/>
<text text-anchor="middle" x="248" y="-316.8" font-family="Times,serif" font-size="14.00">lon &lt;= &#45;102.257</text>
<text text-anchor="middle" x="248" y="-301.8" font-family="Times,serif" font-size="14.00">class = red</text>
</g>
<!-- 7&#45;&gt;8 -->
<g id="edge8" class="edge">
<title>7&#45;&gt;8</title>
<path fill="none" stroke="black" d="M294.35,-367.83C287.14,-359.45 278.44,-349.35 270.54,-340.17"/>
<polygon fill="black" stroke="black" points="273.03,-337.71 263.86,-332.41 267.73,-342.27 273.03,-337.71"/>
</g>
<!-- 15 -->
<g id="node16" class="node">
<title>15</title>
<polygon fill="none" stroke="black" points="420,-332 320,-332 320,-294 420,-294 420,-332"/>
<text text-anchor="middle" x="370" y="-316.8" font-family="Times,serif" font-size="14.00">lon &lt;= &#45;82.415</text>
<text text-anchor="middle" x="370" y="-301.8" font-family="Times,serif" font-size="14.00">class = red</text>
</g>
<!-- 7&#45;&gt;15 -->
<g id="edge15" class="edge">
<title>7&#45;&gt;15</title>
<path fill="none" stroke="black" d="M325.14,-367.83C332.12,-359.45 340.54,-349.35 348.19,-340.17"/>
<polygon fill="black" stroke="black" points="350.94,-342.34 354.66,-332.41 345.56,-337.85 350.94,-342.34"/>
</g>
<!-- 9 -->
<g id="node10" class="node">
<title>9</title>
<polygon fill="none" stroke="black" points="191.5,-258 84.5,-258 84.5,-220 191.5,-220 191.5,-258"/>
<text text-anchor="middle" x="138" y="-242.8" font-family="Times,serif" font-size="14.00">lon &lt;= &#45;107.589</text>
<text text-anchor="middle" x="138" y="-227.8" font-family="Times,serif" font-size="14.00">class = red</text>
</g>
<!-- 8&#45;&gt;9 -->
<g id="edge9" class="edge">
<title>8&#45;&gt;9</title>
<path fill="none" stroke="black" d="M220.24,-293.83C206.3,-284.71 189.24,-273.54 174.28,-263.74"/>
<polygon fill="black" stroke="black" points="176.03,-260.71 165.75,-258.16 172.2,-266.57 176.03,-260.71"/>
</g>
<!-- 14 -->
<g id="node15" class="node">
<title>14</title>
<polygon fill="none" stroke="black" points="286,-257 210,-257 210,-221 286,-221 286,-257"/>
<text text-anchor="middle" x="248" y="-235.3" font-family="Times,serif" font-size="14.00">class = red</text>
</g>
<!-- 8&#45;&gt;14 -->
<g id="edge14" class="edge">
<title>8&#45;&gt;14</title>
<path fill="none" stroke="black" d="M248,-293.83C248,-285.89 248,-276.41 248,-267.63"/>
<polygon fill="black" stroke="black" points="251.5,-267.42 248,-257.42 244.5,-267.42 251.5,-267.42"/>
</g>
<!-- 10 -->
<g id="node11" class="node">
<title>10</title>
<polygon fill="none" stroke="black" points="86,-183 10,-183 10,-147 86,-147 86,-183"/>
<text text-anchor="middle" x="48" y="-161.3" font-family="Times,serif" font-size="14.00">class = red</text>
</g>
<!-- 9&#45;&gt;10 -->
<g id="edge10" class="edge">
<title>9&#45;&gt;10</title>
<path fill="none" stroke="black" d="M115.29,-219.83C103.87,-210.69 89.88,-199.5 77.62,-189.7"/>
<polygon fill="black" stroke="black" points="79.46,-186.69 69.46,-183.17 75.09,-192.15 79.46,-186.69"/>
</g>
<!-- 11 -->
<g id="node12" class="node">
<title>11</title>
<polygon fill="none" stroke="black" points="196,-184 104,-184 104,-146 196,-146 196,-184"/>
<text text-anchor="middle" x="150" y="-168.8" font-family="Times,serif" font-size="14.00">lat &lt;= 31.788</text>
<text text-anchor="middle" x="150" y="-153.8" font-family="Times,serif" font-size="14.00">class = blue</text>
</g>
<!-- 9&#45;&gt;11 -->
<g id="edge11" class="edge">
<title>9&#45;&gt;11</title>
<path fill="none" stroke="black" d="M141.03,-219.83C142.31,-212.13 143.84,-202.97 145.26,-194.42"/>
<polygon fill="black" stroke="black" points="148.74,-194.85 146.93,-184.41 141.83,-193.7 148.74,-194.85"/>
</g>
<!-- 12 -->
<g id="node13" class="node">
<title>12</title>
<polygon fill="none" stroke="black" points="140,-109 64,-109 64,-73 140,-73 140,-109"/>
<text text-anchor="middle" x="102" y="-87.3" font-family="Times,serif" font-size="14.00">class = red</text>
</g>
<!-- 11&#45;&gt;12 -->
<g id="edge12" class="edge">
<title>11&#45;&gt;12</title>
<path fill="none" stroke="black" d="M137.89,-145.83C132.25,-137.37 125.43,-127.15 119.27,-117.9"/>
<polygon fill="black" stroke="black" points="122.07,-115.8 113.61,-109.42 116.25,-119.68 122.07,-115.8"/>
</g>
<!-- 13 -->
<g id="node14" class="node">
<title>13</title>
<polygon fill="none" stroke="black" points="240,-109 158,-109 158,-73 240,-73 240,-109"/>
<text text-anchor="middle" x="199" y="-87.3" font-family="Times,serif" font-size="14.00">class = blue</text>
</g>
<!-- 11&#45;&gt;13 -->
<g id="edge13" class="edge">
<title>11&#45;&gt;13</title>
<path fill="none" stroke="black" d="M162.36,-145.83C168.12,-137.37 175.08,-127.15 181.37,-117.9"/>
<polygon fill="black" stroke="black" points="184.41,-119.65 187.15,-109.42 178.63,-115.72 184.41,-119.65"/>
</g>
<!-- 16 -->
<g id="node17" class="node">
<title>16</title>
<polygon fill="none" stroke="black" points="411.5,-258 304.5,-258 304.5,-220 411.5,-220 411.5,-258"/>
<text text-anchor="middle" x="358" y="-242.8" font-family="Times,serif" font-size="14.00">lon &lt;= &#45;100.922</text>
<text text-anchor="middle" x="358" y="-227.8" font-family="Times,serif" font-size="14.00">class = red</text>
</g>
<!-- 15&#45;&gt;16 -->
<g id="edge16" class="edge">
<title>15&#45;&gt;16</title>
<path fill="none" stroke="black" d="M366.97,-293.83C365.69,-286.13 364.16,-276.97 362.74,-268.42"/>
<polygon fill="black" stroke="black" points="366.17,-267.7 361.07,-258.41 359.26,-268.85 366.17,-267.7"/>
</g>
<!-- 19 -->
<g id="node20" class="node">
<title>19</title>
<polygon fill="none" stroke="black" points="530,-258 430,-258 430,-220 530,-220 530,-258"/>
<text text-anchor="middle" x="480" y="-242.8" font-family="Times,serif" font-size="14.00">lon &lt;= &#45;80.706</text>
<text text-anchor="middle" x="480" y="-227.8" font-family="Times,serif" font-size="14.00">class = blue</text>
</g>
<!-- 15&#45;&gt;19 -->
<g id="edge19" class="edge">
<title>15&#45;&gt;19</title>
<path fill="none" stroke="black" d="M397.76,-293.83C411.7,-284.71 428.76,-273.54 443.72,-263.74"/>
<polygon fill="black" stroke="black" points="445.8,-266.57 452.25,-258.16 441.97,-260.71 445.8,-266.57"/>
</g>
<!-- 17 -->
<g id="node18" class="node">
<title>17</title>
<polygon fill="none" stroke="black" points="305,-183 223,-183 223,-147 305,-147 305,-183"/>
<text text-anchor="middle" x="264" y="-161.3" font-family="Times,serif" font-size="14.00">class = blue</text>
</g>
<!-- 16&#45;&gt;17 -->
<g id="edge17" class="edge">
<title>16&#45;&gt;17</title>
<path fill="none" stroke="black" d="M334.28,-219.83C322.23,-210.6 307.46,-199.29 294.57,-189.41"/>
<polygon fill="black" stroke="black" points="296.49,-186.47 286.42,-183.17 292.23,-192.03 296.49,-186.47"/>
</g>
<!-- 18 -->
<g id="node19" class="node">
<title>18</title>
<polygon fill="none" stroke="black" points="399,-183 323,-183 323,-147 399,-147 399,-183"/>
<text text-anchor="middle" x="361" y="-161.3" font-family="Times,serif" font-size="14.00">class = red</text>
</g>
<!-- 16&#45;&gt;18 -->
<g id="edge18" class="edge">
<title>16&#45;&gt;18</title>
<path fill="none" stroke="black" d="M358.76,-219.83C359.09,-211.89 359.48,-202.41 359.85,-193.63"/>
<polygon fill="black" stroke="black" points="363.35,-193.55 360.27,-183.42 356.36,-193.26 363.35,-193.55"/>
</g>
<!-- 20 -->
<g id="node21" class="node">
<title>20</title>
<polygon fill="none" stroke="black" points="525,-184 425,-184 425,-146 525,-146 525,-184"/>
<text text-anchor="middle" x="475" y="-168.8" font-family="Times,serif" font-size="14.00">lon &lt;= &#45;81.939</text>
<text text-anchor="middle" x="475" y="-153.8" font-family="Times,serif" font-size="14.00">class = blue</text>
</g>
<!-- 19&#45;&gt;20 -->
<g id="edge20" class="edge">
<title>19&#45;&gt;20</title>
<path fill="none" stroke="black" d="M478.74,-219.83C478.2,-212.13 477.57,-202.97 476.97,-194.42"/>
<polygon fill="black" stroke="black" points="480.46,-194.15 476.28,-184.41 473.48,-194.63 480.46,-194.15"/>
</g>
<!-- 23 -->
<g id="node24" class="node">
<title>23</title>
<polygon fill="none" stroke="black" points="625,-183 543,-183 543,-147 625,-147 625,-183"/>
<text text-anchor="middle" x="584" y="-161.3" font-family="Times,serif" font-size="14.00">class = blue</text>
</g>
<!-- 19&#45;&gt;23 -->
<g id="edge23" class="edge">
<title>19&#45;&gt;23</title>
<path fill="none" stroke="black" d="M506.24,-219.83C519.7,-210.52 536.23,-199.07 550.59,-189.13"/>
<polygon fill="black" stroke="black" points="552.97,-191.74 559.2,-183.17 548.98,-185.99 552.97,-191.74"/>
</g>
<!-- 21 -->
<g id="node22" class="node">
<title>21</title>
<polygon fill="none" stroke="black" points="468,-109 386,-109 386,-73 468,-73 468,-109"/>
<text text-anchor="middle" x="427" y="-87.3" font-family="Times,serif" font-size="14.00">class = blue</text>
</g>
<!-- 20&#45;&gt;21 -->
<g id="edge21" class="edge">
<title>20&#45;&gt;21</title>
<path fill="none" stroke="black" d="M462.89,-145.83C457.25,-137.37 450.43,-127.15 444.27,-117.9"/>
<polygon fill="black" stroke="black" points="447.07,-115.8 438.61,-109.42 441.25,-119.68 447.07,-115.8"/>
</g>
<!-- 22 -->
<g id="node23" class="node">
<title>22</title>
<polygon fill="none" stroke="black" points="562,-109 486,-109 486,-73 562,-73 562,-109"/>
<text text-anchor="middle" x="524" y="-87.3" font-family="Times,serif" font-size="14.00">class = red</text>
</g>
<!-- 20&#45;&gt;22 -->
<g id="edge22" class="edge">
<title>20&#45;&gt;22</title>
<path fill="none" stroke="black" d="M487.36,-145.83C493.12,-137.37 500.08,-127.15 506.37,-117.9"/>
<polygon fill="black" stroke="black" points="509.41,-119.65 512.15,-109.42 503.63,-115.72 509.41,-119.65"/>
</g>
<!-- 25 -->
<g id="node26" class="node">
<title>25</title>
<polygon fill="none" stroke="black" points="913.5,-480 806.5,-480 806.5,-442 913.5,-442 913.5,-480"/>
<text text-anchor="middle" x="860" y="-464.8" font-family="Times,serif" font-size="14.00">lon &lt;= &#45;104.089</text>
<text text-anchor="middle" x="860" y="-449.8" font-family="Times,serif" font-size="14.00">class = red</text>
</g>
<!-- 24&#45;&gt;25 -->
<g id="edge25" class="edge">
<title>24&#45;&gt;25</title>
<path fill="none" stroke="black" d="M860,-515.83C860,-508.13 860,-498.97 860,-490.42"/>
<polygon fill="black" stroke="black" points="863.5,-490.41 860,-480.41 856.5,-490.41 863.5,-490.41"/>
</g>
<!-- 42 -->
<g id="node43" class="node">
<title>42</title>
<polygon fill="none" stroke="black" points="1482,-480 1390,-480 1390,-442 1482,-442 1482,-480"/>
<text text-anchor="middle" x="1436" y="-464.8" font-family="Times,serif" font-size="14.00">lat &lt;= 39.759</text>
<text text-anchor="middle" x="1436" y="-449.8" font-family="Times,serif" font-size="14.00">class = blue</text>
</g>
<!-- 24&#45;&gt;42 -->
<g id="edge42" class="edge">
<title>24&#45;&gt;42</title>
<path fill="none" stroke="black" d="M910.11,-527.74C1017.07,-514.37 1267.13,-483.11 1379.53,-469.06"/>
<polygon fill="black" stroke="black" points="1380.15,-472.51 1389.64,-467.79 1379.29,-465.56 1380.15,-472.51"/>
</g>
<!-- 26 -->
<g id="node27" class="node">
<title>26</title>
<polygon fill="none" stroke="black" points="849,-406 757,-406 757,-368 849,-368 849,-406"/>
<text text-anchor="middle" x="803" y="-390.8" font-family="Times,serif" font-size="14.00">lat &lt;= 41.895</text>
<text text-anchor="middle" x="803" y="-375.8" font-family="Times,serif" font-size="14.00">class = blue</text>
</g>
<!-- 25&#45;&gt;26 -->
<g id="edge26" class="edge">
<title>25&#45;&gt;26</title>
<path fill="none" stroke="black" d="M845.62,-441.83C839.05,-433.54 831.15,-423.56 823.94,-414.45"/>
<polygon fill="black" stroke="black" points="826.53,-412.08 817.58,-406.41 821.04,-416.43 826.53,-412.08"/>
</g>
<!-- 37 -->
<g id="node38" class="node">
<title>37</title>
<polygon fill="none" stroke="black" points="967,-406 867,-406 867,-368 967,-368 967,-406"/>
<text text-anchor="middle" x="917" y="-390.8" font-family="Times,serif" font-size="14.00">lon &lt;= &#45;96.557</text>
<text text-anchor="middle" x="917" y="-375.8" font-family="Times,serif" font-size="14.00">class = red</text>
</g>
<!-- 25&#45;&gt;37 -->
<g id="edge37" class="edge">
<title>25&#45;&gt;37</title>
<path fill="none" stroke="black" d="M874.38,-441.83C880.95,-433.54 888.85,-423.56 896.06,-414.45"/>
<polygon fill="black" stroke="black" points="898.96,-416.43 902.42,-406.41 893.47,-412.08 898.96,-416.43"/>
</g>
<!-- 27 -->
<g id="node28" class="node">
<title>27</title>
<polygon fill="none" stroke="black" points="743.5,-332 636.5,-332 636.5,-294 743.5,-294 743.5,-332"/>
<text text-anchor="middle" x="690" y="-316.8" font-family="Times,serif" font-size="14.00">lon &lt;= &#45;113.872</text>
<text text-anchor="middle" x="690" y="-301.8" font-family="Times,serif" font-size="14.00">class = blue</text>
</g>
<!-- 26&#45;&gt;27 -->
<g id="edge27" class="edge">
<title>26&#45;&gt;27</title>
<path fill="none" stroke="black" d="M774.49,-367.83C760.17,-358.71 742.64,-347.54 727.27,-337.74"/>
<polygon fill="black" stroke="black" points="728.82,-334.58 718.51,-332.16 725.06,-340.49 728.82,-334.58"/>
</g>
<!-- 32 -->
<g id="node33" class="node">
<title>32</title>
<polygon fill="none" stroke="black" points="846.5,-332 761.5,-332 761.5,-294 846.5,-294 846.5,-332"/>
<text text-anchor="middle" x="804" y="-316.8" font-family="Times,serif" font-size="14.00">lat &lt;= 45.33</text>
<text text-anchor="middle" x="804" y="-301.8" font-family="Times,serif" font-size="14.00">class = red</text>
</g>
<!-- 26&#45;&gt;32 -->
<g id="edge32" class="edge">
<title>26&#45;&gt;32</title>
<path fill="none" stroke="black" d="M803.25,-367.83C803.36,-360.13 803.49,-350.97 803.61,-342.42"/>
<polygon fill="black" stroke="black" points="807.1,-342.46 803.74,-332.41 800.11,-342.36 807.1,-342.46"/>
</g>
<!-- 28 -->
<g id="node29" class="node">
<title>28</title>
<polygon fill="none" stroke="black" points="630,-257 548,-257 548,-221 630,-221 630,-257"/>
<text text-anchor="middle" x="589" y="-235.3" font-family="Times,serif" font-size="14.00">class = blue</text>
</g>
<!-- 27&#45;&gt;28 -->
<g id="edge28" class="edge">
<title>27&#45;&gt;28</title>
<path fill="none" stroke="black" d="M664.51,-293.83C651.45,-284.52 635.39,-273.07 621.45,-263.13"/>
<polygon fill="black" stroke="black" points="623.26,-260.13 613.09,-257.17 619.2,-265.83 623.26,-260.13"/>
</g>
<!-- 29 -->
<g id="node30" class="node">
<title>29</title>
<polygon fill="none" stroke="black" points="740,-258 648,-258 648,-220 740,-220 740,-258"/>
<text text-anchor="middle" x="694" y="-242.8" font-family="Times,serif" font-size="14.00">lat &lt;= 38.917</text>
<text text-anchor="middle" x="694" y="-227.8" font-family="Times,serif" font-size="14.00">class = blue</text>
</g>
<!-- 27&#45;&gt;29 -->
<g id="edge29" class="edge">
<title>27&#45;&gt;29</title>
<path fill="none" stroke="black" d="M691.01,-293.83C691.44,-286.13 691.95,-276.97 692.42,-268.42"/>
<polygon fill="black" stroke="black" points="695.92,-268.59 692.98,-258.41 688.93,-268.2 695.92,-268.59"/>
</g>
<!-- 30 -->
<g id="node31" class="node">
<title>30</title>
<polygon fill="none" stroke="black" points="727,-183 651,-183 651,-147 727,-147 727,-183"/>
<text text-anchor="middle" x="689" y="-161.3" font-family="Times,serif" font-size="14.00">class = red</text>
</g>
<!-- 29&#45;&gt;30 -->
<g id="edge30" class="edge">
<title>29&#45;&gt;30</title>
<path fill="none" stroke="black" d="M692.74,-219.83C692.19,-211.89 691.53,-202.41 690.92,-193.63"/>
<polygon fill="black" stroke="black" points="694.39,-193.15 690.21,-183.42 687.41,-193.64 694.39,-193.15"/>
</g>
<!-- 31 -->
<g id="node32" class="node">
<title>31</title>
<polygon fill="none" stroke="black" points="827,-183 745,-183 745,-147 827,-147 827,-183"/>
<text text-anchor="middle" x="786" y="-161.3" font-family="Times,serif" font-size="14.00">class = blue</text>
</g>
<!-- 29&#45;&gt;31 -->
<g id="edge31" class="edge">
<title>29&#45;&gt;31</title>
<path fill="none" stroke="black" d="M717.22,-219.83C729.01,-210.6 743.47,-199.29 756.08,-189.41"/>
<polygon fill="black" stroke="black" points="758.34,-192.09 764.06,-183.17 754.03,-186.58 758.34,-192.09"/>
</g>
<!-- 33 -->
<g id="node34" class="node">
<title>33</title>
<polygon fill="none" stroke="black" points="834,-257 758,-257 758,-221 834,-221 834,-257"/>
<text text-anchor="middle" x="796" y="-235.3" font-family="Times,serif" font-size="14.00">class = red</text>
</g>
<!-- 32&#45;&gt;33 -->
<g id="edge33" class="edge">
<title>32&#45;&gt;33</title>
<path fill="none" stroke="black" d="M801.98,-293.83C801.1,-285.89 800.05,-276.41 799.07,-267.63"/>
<polygon fill="black" stroke="black" points="802.52,-266.97 797.94,-257.42 795.56,-267.74 802.52,-266.97"/>
</g>
<!-- 34 -->
<g id="node35" class="node">
<title>34</title>
<polygon fill="none" stroke="black" points="959.5,-258 852.5,-258 852.5,-220 959.5,-220 959.5,-258"/>
<text text-anchor="middle" x="906" y="-242.8" font-family="Times,serif" font-size="14.00">lon &lt;= &#45;133.954</text>
<text text-anchor="middle" x="906" y="-227.8" font-family="Times,serif" font-size="14.00">class = blue</text>
</g>
<!-- 32&#45;&gt;34 -->
<g id="edge34" class="edge">
<title>32&#45;&gt;34</title>
<path fill="none" stroke="black" d="M829.74,-293.83C842.54,-284.79 858.19,-273.75 871.97,-264.02"/>
<polygon fill="black" stroke="black" points="874.12,-266.79 880.27,-258.16 870.08,-261.07 874.12,-266.79"/>
</g>
<!-- 35 -->
<g id="node36" class="node">
<title>35</title>
<polygon fill="none" stroke="black" points="933,-183 857,-183 857,-147 933,-147 933,-183"/>
<text text-anchor="middle" x="895" y="-161.3" font-family="Times,serif" font-size="14.00">class = red</text>
</g>
<!-- 34&#45;&gt;35 -->
<g id="edge35" class="edge">
<title>34&#45;&gt;35</title>
<path fill="none" stroke="black" d="M903.22,-219.83C902,-211.81 900.53,-202.2 899.18,-193.34"/>
<polygon fill="black" stroke="black" points="902.63,-192.77 897.66,-183.42 895.71,-193.83 902.63,-192.77"/>
</g>
<!-- 36 -->
<g id="node37" class="node">
<title>36</title>
<polygon fill="none" stroke="black" points="1033,-183 951,-183 951,-147 1033,-147 1033,-183"/>
<text text-anchor="middle" x="992" y="-161.3" font-family="Times,serif" font-size="14.00">class = blue</text>
</g>
<!-- 34&#45;&gt;36 -->
<g id="edge36" class="edge">
<title>34&#45;&gt;36</title>
<path fill="none" stroke="black" d="M927.7,-219.83C938.62,-210.69 951.98,-199.5 963.7,-189.7"/>
<polygon fill="black" stroke="black" points="966.07,-192.27 971.49,-183.17 961.58,-186.91 966.07,-192.27"/>
</g>
<!-- 38 -->
<g id="node39" class="node">
<title>38</title>
<polygon fill="none" stroke="black" points="953,-331 877,-331 877,-295 953,-295 953,-331"/>
<text text-anchor="middle" x="915" y="-309.3" font-family="Times,serif" font-size="14.00">class = red</text>
</g>
<!-- 37&#45;&gt;38 -->
<g id="edge38" class="edge">
<title>37&#45;&gt;38</title>
<path fill="none" stroke="black" d="M916.5,-367.83C916.27,-359.89 916.01,-350.41 915.77,-341.63"/>
<polygon fill="black" stroke="black" points="919.26,-341.32 915.48,-331.42 912.26,-341.51 919.26,-341.32"/>
</g>
<!-- 39 -->
<g id="node40" class="node">
<title>39</title>
<polygon fill="none" stroke="black" points="1063,-332 971,-332 971,-294 1063,-294 1063,-332"/>
<text text-anchor="middle" x="1017" y="-316.8" font-family="Times,serif" font-size="14.00">lat &lt;= 42.007</text>
<text text-anchor="middle" x="1017" y="-301.8" font-family="Times,serif" font-size="14.00">class = blue</text>
</g>
<!-- 37&#45;&gt;39 -->
<g id="edge39" class="edge">
<title>37&#45;&gt;39</title>
<path fill="none" stroke="black" d="M942.23,-367.83C954.79,-358.79 970.13,-347.75 983.64,-338.02"/>
<polygon fill="black" stroke="black" points="985.7,-340.85 991.77,-332.16 981.61,-335.17 985.7,-340.85"/>
</g>
<!-- 40 -->
<g id="node41" class="node">
<title>40</title>
<polygon fill="none" stroke="black" points="1054,-257 978,-257 978,-221 1054,-221 1054,-257"/>
<text text-anchor="middle" x="1016" y="-235.3" font-family="Times,serif" font-size="14.00">class = red</text>
</g>
<!-- 39&#45;&gt;40 -->
<g id="edge40" class="edge">
<title>39&#45;&gt;40</title>
<path fill="none" stroke="black" d="M1016.75,-293.83C1016.64,-285.89 1016.51,-276.41 1016.38,-267.63"/>
<polygon fill="black" stroke="black" points="1019.88,-267.37 1016.24,-257.42 1012.88,-267.47 1019.88,-267.37"/>
</g>
<!-- 41 -->
<g id="node42" class="node">
<title>41</title>
<polygon fill="none" stroke="black" points="1154,-257 1072,-257 1072,-221 1154,-221 1154,-257"/>
<text text-anchor="middle" x="1113" y="-235.3" font-family="Times,serif" font-size="14.00">class = blue</text>
</g>
<!-- 39&#45;&gt;41 -->
<g id="edge41" class="edge">
<title>39&#45;&gt;41</title>
<path fill="none" stroke="black" d="M1041.22,-293.83C1053.53,-284.6 1068.62,-273.29 1081.78,-263.41"/>
<polygon fill="black" stroke="black" points="1084.2,-265.97 1090.1,-257.17 1080,-260.37 1084.2,-265.97"/>
</g>
<!-- 43 -->
<g id="node44" class="node">
<title>43</title>
<polygon fill="none" stroke="black" points="1486,-406 1386,-406 1386,-368 1486,-368 1486,-406"/>
<text text-anchor="middle" x="1436" y="-390.8" font-family="Times,serif" font-size="14.00">lon &lt;= &#45;79.773</text>
<text text-anchor="middle" x="1436" y="-375.8" font-family="Times,serif" font-size="14.00">class = blue</text>
</g>
<!-- 42&#45;&gt;43 -->
<g id="edge43" class="edge">
<title>42&#45;&gt;43</title>
<path fill="none" stroke="black" d="M1436,-441.83C1436,-434.13 1436,-424.97 1436,-416.42"/>
<polygon fill="black" stroke="black" points="1439.5,-416.41 1436,-406.41 1432.5,-416.41 1439.5,-416.41"/>
</g>
<!-- 62 -->
<g id="node63" class="node">
<title>62</title>
<polygon fill="none" stroke="black" points="1784,-406 1684,-406 1684,-368 1784,-368 1784,-406"/>
<text text-anchor="middle" x="1734" y="-390.8" font-family="Times,serif" font-size="14.00">lon &lt;= &#45;84.905</text>
<text text-anchor="middle" x="1734" y="-375.8" font-family="Times,serif" font-size="14.00">class = blue</text>
</g>
<!-- 42&#45;&gt;62 -->
<g id="edge62" class="edge">
<title>42&#45;&gt;62</title>
<path fill="none" stroke="black" d="M1482.24,-448.83C1533.82,-436.36 1617.45,-416.16 1674.03,-402.49"/>
<polygon fill="black" stroke="black" points="1675.02,-405.85 1683.92,-400.1 1673.38,-399.05 1675.02,-405.85"/>
</g>
<!-- 44 -->
<g id="node45" class="node">
<title>44</title>
<polygon fill="none" stroke="black" points="1410,-332 1310,-332 1310,-294 1410,-294 1410,-332"/>
<text text-anchor="middle" x="1360" y="-316.8" font-family="Times,serif" font-size="14.00">lon &lt;= &#45;87.643</text>
<text text-anchor="middle" x="1360" y="-301.8" font-family="Times,serif" font-size="14.00">class = red</text>
</g>
<!-- 43&#45;&gt;44 -->
<g id="edge44" class="edge">
<title>43&#45;&gt;44</title>
<path fill="none" stroke="black" d="M1416.82,-367.83C1407.64,-359.13 1396.5,-348.58 1386.52,-339.13"/>
<polygon fill="black" stroke="black" points="1388.84,-336.5 1379.17,-332.16 1384.02,-341.58 1388.84,-336.5"/>
</g>
<!-- 57 -->
<g id="node58" class="node">
<title>57</title>
<polygon fill="none" stroke="black" points="1566,-332 1466,-332 1466,-294 1566,-294 1566,-332"/>
<text text-anchor="middle" x="1516" y="-316.8" font-family="Times,serif" font-size="14.00">lon &lt;= &#45;78.395</text>
<text text-anchor="middle" x="1516" y="-301.8" font-family="Times,serif" font-size="14.00">class = blue</text>
</g>
<!-- 43&#45;&gt;57 -->
<g id="edge57" class="edge">
<title>43&#45;&gt;57</title>
<path fill="none" stroke="black" d="M1456.19,-367.83C1465.85,-359.13 1477.58,-348.58 1488.08,-339.13"/>
<polygon fill="black" stroke="black" points="1490.73,-341.45 1495.82,-332.16 1486.04,-336.25 1490.73,-341.45"/>
</g>
<!-- 45 -->
<g id="node46" class="node">
<title>45</title>
<polygon fill="none" stroke="black" points="1265.5,-258 1172.5,-258 1172.5,-220 1265.5,-220 1265.5,-258"/>
<text text-anchor="middle" x="1219" y="-242.8" font-family="Times,serif" font-size="14.00">lon &lt;= &#45;90.12</text>
<text text-anchor="middle" x="1219" y="-227.8" font-family="Times,serif" font-size="14.00">class = blue</text>
</g>
<!-- 44&#45;&gt;45 -->
<g id="edge45" class="edge">
<title>44&#45;&gt;45</title>
<path fill="none" stroke="black" d="M1324.42,-293.83C1305.97,-284.41 1283.25,-272.81 1263.63,-262.79"/>
<polygon fill="black" stroke="black" points="1265.07,-259.59 1254.57,-258.16 1261.88,-265.83 1265.07,-259.59"/>
</g>
<!-- 52 -->
<g id="node53" class="node">
<title>52</title>
<polygon fill="none" stroke="black" points="1406,-258 1314,-258 1314,-220 1406,-220 1406,-258"/>
<text text-anchor="middle" x="1360" y="-242.8" font-family="Times,serif" font-size="14.00">lat &lt;= 38.562</text>
<text text-anchor="middle" x="1360" y="-227.8" font-family="Times,serif" font-size="14.00">class = red</text>
</g>
<!-- 44&#45;&gt;52 -->
<g id="edge52" class="edge">
<title>44&#45;&gt;52</title>
<path fill="none" stroke="black" d="M1360,-293.83C1360,-286.13 1360,-276.97 1360,-268.42"/>
<polygon fill="black" stroke="black" points="1363.5,-268.41 1360,-258.41 1356.5,-268.41 1363.5,-268.41"/>
</g>
<!-- 46 -->
<g id="node47" class="node">
<title>46</title>
<polygon fill="none" stroke="black" points="1157,-184 1057,-184 1057,-146 1157,-146 1157,-184"/>
<text text-anchor="middle" x="1107" y="-168.8" font-family="Times,serif" font-size="14.00">lon &lt;= &#45;90.841</text>
<text text-anchor="middle" x="1107" y="-153.8" font-family="Times,serif" font-size="14.00">class = red</text>
</g>
<!-- 45&#45;&gt;46 -->
<g id="edge46" class="edge">
<title>45&#45;&gt;46</title>
<path fill="none" stroke="black" d="M1190.74,-219.83C1176.54,-210.71 1159.17,-199.54 1143.94,-189.74"/>
<polygon fill="black" stroke="black" points="1145.56,-186.63 1135.25,-184.16 1141.77,-192.51 1145.56,-186.63"/>
</g>
<!-- 51 -->
<g id="node52" class="node">
<title>51</title>
<polygon fill="none" stroke="black" points="1257,-183 1175,-183 1175,-147 1257,-147 1257,-183"/>
<text text-anchor="middle" x="1216" y="-161.3" font-family="Times,serif" font-size="14.00">class = blue</text>
</g>
<!-- 45&#45;&gt;51 -->
<g id="edge51" class="edge">
<title>45&#45;&gt;51</title>
<path fill="none" stroke="black" d="M1218.24,-219.83C1217.91,-211.89 1217.52,-202.41 1217.15,-193.63"/>
<polygon fill="black" stroke="black" points="1220.64,-193.26 1216.73,-183.42 1213.65,-193.55 1220.64,-193.26"/>
</g>
<!-- 47 -->
<g id="node48" class="node">
<title>47</title>
<polygon fill="none" stroke="black" points="1092,-109 1016,-109 1016,-73 1092,-73 1092,-109"/>
<text text-anchor="middle" x="1054" y="-87.3" font-family="Times,serif" font-size="14.00">class = red</text>
</g>
<!-- 46&#45;&gt;47 -->
<g id="edge47" class="edge">
<title>46&#45;&gt;47</title>
<path fill="none" stroke="black" d="M1093.63,-145.83C1087.33,-137.28 1079.72,-126.94 1072.86,-117.62"/>
<polygon fill="black" stroke="black" points="1075.57,-115.4 1066.82,-109.42 1069.93,-119.55 1075.57,-115.4"/>
</g>
<!-- 48 -->
<g id="node49" class="node">
<title>48</title>
<polygon fill="none" stroke="black" points="1210,-110 1110,-110 1110,-72 1210,-72 1210,-110"/>
<text text-anchor="middle" x="1160" y="-94.8" font-family="Times,serif" font-size="14.00">lon &lt;= &#45;90.327</text>
<text text-anchor="middle" x="1160" y="-79.8" font-family="Times,serif" font-size="14.00">class = blue</text>
</g>
<!-- 46&#45;&gt;48 -->
<g id="edge48" class="edge">
<title>46&#45;&gt;48</title>
<path fill="none" stroke="black" d="M1120.37,-145.83C1126.42,-137.62 1133.68,-127.76 1140.32,-118.73"/>
<polygon fill="black" stroke="black" points="1143.34,-120.54 1146.45,-110.41 1137.7,-116.39 1143.34,-120.54"/>
</g>
<!-- 49 -->
<g id="node50" class="node">
<title>49</title>
<polygon fill="none" stroke="black" points="1153,-36 1071,-36 1071,0 1153,0 1153,-36"/>
<text text-anchor="middle" x="1112" y="-14.3" font-family="Times,serif" font-size="14.00">class = blue</text>
</g>
<!-- 48&#45;&gt;49 -->
<g id="edge49" class="edge">
<title>48&#45;&gt;49</title>
<path fill="none" stroke="black" d="M1147.64,-71.72C1142,-63.37 1135.22,-53.35 1129.1,-44.3"/>
<polygon fill="black" stroke="black" points="1132,-42.33 1123.5,-36 1126.2,-46.25 1132,-42.33"/>
</g>
<!-- 50 -->
<g id="node51" class="node">
<title>50</title>
<polygon fill="none" stroke="black" points="1247,-36 1171,-36 1171,0 1247,0 1247,-36"/>
<text text-anchor="middle" x="1209" y="-14.3" font-family="Times,serif" font-size="14.00">class = red</text>
</g>
<!-- 48&#45;&gt;50 -->
<g id="edge50" class="edge">
<title>48&#45;&gt;50</title>
<path fill="none" stroke="black" d="M1172.62,-71.72C1178.38,-63.37 1185.29,-53.35 1191.54,-44.3"/>
<polygon fill="black" stroke="black" points="1194.47,-46.22 1197.27,-36 1188.7,-42.25 1194.47,-46.22"/>
</g>
<!-- 53 -->
<g id="node54" class="node">
<title>53</title>
<polygon fill="none" stroke="black" points="1367,-184 1275,-184 1275,-146 1367,-146 1367,-184"/>
<text text-anchor="middle" x="1321" y="-168.8" font-family="Times,serif" font-size="14.00">lat &lt;= 38.324</text>
<text text-anchor="middle" x="1321" y="-153.8" font-family="Times,serif" font-size="14.00">class = red</text>
</g>
<!-- 52&#45;&gt;53 -->
<g id="edge53" class="edge">
<title>52&#45;&gt;53</title>
<path fill="none" stroke="black" d="M1350.16,-219.83C1345.8,-211.79 1340.59,-202.17 1335.78,-193.29"/>
<polygon fill="black" stroke="black" points="1338.81,-191.54 1330.97,-184.41 1332.66,-194.87 1338.81,-191.54"/>
</g>
<!-- 56 -->
<g id="node57" class="node">
<title>56</title>
<polygon fill="none" stroke="black" points="1461,-183 1385,-183 1385,-147 1461,-147 1461,-183"/>
<text text-anchor="middle" x="1423" y="-161.3" font-family="Times,serif" font-size="14.00">class = red</text>
</g>
<!-- 52&#45;&gt;56 -->
<g id="edge56" class="edge">
<title>52&#45;&gt;56</title>
<path fill="none" stroke="black" d="M1375.9,-219.83C1383.53,-211.11 1392.8,-200.52 1401.08,-191.05"/>
<polygon fill="black" stroke="black" points="1403.81,-193.25 1407.76,-183.42 1398.54,-188.64 1403.81,-193.25"/>
</g>
<!-- 54 -->
<g id="node55" class="node">
<title>54</title>
<polygon fill="none" stroke="black" points="1358,-109 1282,-109 1282,-73 1358,-73 1358,-109"/>
<text text-anchor="middle" x="1320" y="-87.3" font-family="Times,serif" font-size="14.00">class = red</text>
</g>
<!-- 53&#45;&gt;54 -->
<g id="edge54" class="edge">
<title>53&#45;&gt;54</title>
<path fill="none" stroke="black" d="M1320.75,-145.83C1320.64,-137.89 1320.51,-128.41 1320.38,-119.63"/>
<polygon fill="black" stroke="black" points="1323.88,-119.37 1320.24,-109.42 1316.88,-119.47 1323.88,-119.37"/>
</g>
<!-- 55 -->
<g id="node56" class="node">
<title>55</title>
<polygon fill="none" stroke="black" points="1458,-109 1376,-109 1376,-73 1458,-73 1458,-109"/>
<text text-anchor="middle" x="1417" y="-87.3" font-family="Times,serif" font-size="14.00">class = blue</text>
</g>
<!-- 53&#45;&gt;55 -->
<g id="edge55" class="edge">
<title>53&#45;&gt;55</title>
<path fill="none" stroke="black" d="M1345.22,-145.83C1357.53,-136.6 1372.62,-125.29 1385.78,-115.41"/>
<polygon fill="black" stroke="black" points="1388.2,-117.97 1394.1,-109.17 1384,-112.37 1388.2,-117.97"/>
</g>
<!-- 58 -->
<g id="node59" class="node">
<title>58</title>
<polygon fill="none" stroke="black" points="1566,-258 1466,-258 1466,-220 1566,-220 1566,-258"/>
<text text-anchor="middle" x="1516" y="-242.8" font-family="Times,serif" font-size="14.00">lon &lt;= &#45;78.878</text>
<text text-anchor="middle" x="1516" y="-227.8" font-family="Times,serif" font-size="14.00">class = blue</text>
</g>
<!-- 57&#45;&gt;58 -->
<g id="edge58" class="edge">
<title>57&#45;&gt;58</title>
<path fill="none" stroke="black" d="M1516,-293.83C1516,-286.13 1516,-276.97 1516,-268.42"/>
<polygon fill="black" stroke="black" points="1519.5,-268.41 1516,-258.41 1512.5,-268.41 1519.5,-268.41"/>
</g>
<!-- 61 -->
<g id="node62" class="node">
<title>61</title>
<polygon fill="none" stroke="black" points="1666,-257 1584,-257 1584,-221 1666,-221 1666,-257"/>
<text text-anchor="middle" x="1625" y="-235.3" font-family="Times,serif" font-size="14.00">class = blue</text>
</g>
<!-- 57&#45;&gt;61 -->
<g id="edge61" class="edge">
<title>57&#45;&gt;61</title>
<path fill="none" stroke="black" d="M1543.51,-293.83C1557.74,-284.43 1575.26,-272.86 1590.41,-262.85"/>
<polygon fill="black" stroke="black" points="1592.59,-265.6 1599,-257.17 1588.73,-259.76 1592.59,-265.6"/>
</g>
<!-- 59 -->
<g id="node60" class="node">
<title>59</title>
<polygon fill="none" stroke="black" points="1561,-183 1479,-183 1479,-147 1561,-147 1561,-183"/>
<text text-anchor="middle" x="1520" y="-161.3" font-family="Times,serif" font-size="14.00">class = blue</text>
</g>
<!-- 58&#45;&gt;59 -->
<g id="edge59" class="edge">
<title>58&#45;&gt;59</title>
<path fill="none" stroke="black" d="M1517.01,-219.83C1517.45,-211.89 1517.98,-202.41 1518.47,-193.63"/>
<polygon fill="black" stroke="black" points="1521.97,-193.6 1519.03,-183.42 1514.98,-193.21 1521.97,-193.6"/>
</g>
<!-- 60 -->
<g id="node61" class="node">
<title>60</title>
<polygon fill="none" stroke="black" points="1655,-183 1579,-183 1579,-147 1655,-147 1655,-183"/>
<text text-anchor="middle" x="1617" y="-161.3" font-family="Times,serif" font-size="14.00">class = red</text>
</g>
<!-- 58&#45;&gt;60 -->
<g id="edge60" class="edge">
<title>58&#45;&gt;60</title>
<path fill="none" stroke="black" d="M1541.49,-219.83C1554.55,-210.52 1570.61,-199.07 1584.55,-189.13"/>
<polygon fill="black" stroke="black" points="1586.8,-191.83 1592.91,-183.17 1582.74,-186.13 1586.8,-191.83"/>
</g>
<!-- 63 -->
<g id="node64" class="node">
<title>63</title>
<polygon fill="none" stroke="black" points="1780,-332 1688,-332 1688,-294 1780,-294 1780,-332"/>
<text text-anchor="middle" x="1734" y="-316.8" font-family="Times,serif" font-size="14.00">lat &lt;= 41.739</text>
<text text-anchor="middle" x="1734" y="-301.8" font-family="Times,serif" font-size="14.00">class = blue</text>
</g>
<!-- 62&#45;&gt;63 -->
<g id="edge63" class="edge">
<title>62&#45;&gt;63</title>
<path fill="none" stroke="black" d="M1734,-367.83C1734,-360.13 1734,-350.97 1734,-342.42"/>
<polygon fill="black" stroke="black" points="1737.5,-342.41 1734,-332.41 1730.5,-342.41 1737.5,-342.41"/>
</g>
<!-- 72 -->
<g id="node73" class="node">
<title>72</title>
<polygon fill="none" stroke="black" points="1880,-331 1798,-331 1798,-295 1880,-295 1880,-331"/>
<text text-anchor="middle" x="1839" y="-309.3" font-family="Times,serif" font-size="14.00">class = blue</text>
</g>
<!-- 62&#45;&gt;72 -->
<g id="edge72" class="edge">
<title>62&#45;&gt;72</title>
<path fill="none" stroke="black" d="M1760.5,-367.83C1774.21,-358.43 1791.09,-346.86 1805.67,-336.85"/>
<polygon fill="black" stroke="black" points="1807.69,-339.71 1813.96,-331.17 1803.73,-333.94 1807.69,-339.71"/>
</g>
<!-- 64 -->
<g id="node65" class="node">
<title>64</title>
<polygon fill="none" stroke="black" points="1784,-258 1684,-258 1684,-220 1784,-220 1784,-258"/>
<text text-anchor="middle" x="1734" y="-242.8" font-family="Times,serif" font-size="14.00">lon &lt;= &#45;87.697</text>
<text text-anchor="middle" x="1734" y="-227.8" font-family="Times,serif" font-size="14.00">class = blue</text>
</g>
<!-- 63&#45;&gt;64 -->
<g id="edge64" class="edge">
<title>63&#45;&gt;64</title>
<path fill="none" stroke="black" d="M1734,-293.83C1734,-286.13 1734,-276.97 1734,-268.42"/>
<polygon fill="black" stroke="black" points="1737.5,-268.41 1734,-258.41 1730.5,-268.41 1737.5,-268.41"/>
</g>
<!-- 71 -->
<g id="node72" class="node">
<title>71</title>
<polygon fill="none" stroke="black" points="1884,-257 1802,-257 1802,-221 1884,-221 1884,-257"/>
<text text-anchor="middle" x="1843" y="-235.3" font-family="Times,serif" font-size="14.00">class = blue</text>
</g>
<!-- 63&#45;&gt;71 -->
<g id="edge71" class="edge">
<title>63&#45;&gt;71</title>
<path fill="none" stroke="black" d="M1761.51,-293.83C1775.74,-284.43 1793.26,-272.86 1808.41,-262.85"/>
<polygon fill="black" stroke="black" points="1810.59,-265.6 1817,-257.17 1806.73,-259.76 1810.59,-265.6"/>
</g>
<!-- 65 -->
<g id="node66" class="node">
<title>65</title>
<polygon fill="none" stroke="black" points="1780,-184 1680,-184 1680,-146 1780,-146 1780,-184"/>
<text text-anchor="middle" x="1730" y="-168.8" font-family="Times,serif" font-size="14.00">lon &lt;= &#45;91.379</text>
<text text-anchor="middle" x="1730" y="-153.8" font-family="Times,serif" font-size="14.00">class = blue</text>
</g>
<!-- 64&#45;&gt;65 -->
<g id="edge65" class="edge">
<title>64&#45;&gt;65</title>
<path fill="none" stroke="black" d="M1732.99,-219.83C1732.56,-212.13 1732.05,-202.97 1731.58,-194.42"/>
<polygon fill="black" stroke="black" points="1735.07,-194.2 1731.02,-184.41 1728.08,-194.59 1735.07,-194.2"/>
</g>
<!-- 70 -->
<g id="node71" class="node">
<title>70</title>
<polygon fill="none" stroke="black" points="1874,-183 1798,-183 1798,-147 1874,-147 1874,-183"/>
<text text-anchor="middle" x="1836" y="-161.3" font-family="Times,serif" font-size="14.00">class = red</text>
</g>
<!-- 64&#45;&gt;70 -->
<g id="edge70" class="edge">
<title>64&#45;&gt;70</title>
<path fill="none" stroke="black" d="M1759.74,-219.83C1772.93,-210.52 1789.15,-199.07 1803.23,-189.13"/>
<polygon fill="black" stroke="black" points="1805.52,-191.8 1811.67,-183.17 1801.49,-186.08 1805.52,-191.8"/>
</g>
<!-- 66 -->
<g id="node67" class="node">
<title>66</title>
<polygon fill="none" stroke="black" points="1723,-110 1631,-110 1631,-72 1723,-72 1723,-110"/>
<text text-anchor="middle" x="1677" y="-94.8" font-family="Times,serif" font-size="14.00">lat &lt;= 40.775</text>
<text text-anchor="middle" x="1677" y="-79.8" font-family="Times,serif" font-size="14.00">class = red</text>
</g>
<!-- 65&#45;&gt;66 -->
<g id="edge66" class="edge">
<title>65&#45;&gt;66</title>
<path fill="none" stroke="black" d="M1716.63,-145.83C1710.58,-137.62 1703.32,-127.76 1696.68,-118.73"/>
<polygon fill="black" stroke="black" points="1699.3,-116.39 1690.55,-110.41 1693.66,-120.54 1699.3,-116.39"/>
</g>
<!-- 69 -->
<g id="node70" class="node">
<title>69</title>
<polygon fill="none" stroke="black" points="1823,-109 1741,-109 1741,-73 1823,-73 1823,-109"/>
<text text-anchor="middle" x="1782" y="-87.3" font-family="Times,serif" font-size="14.00">class = blue</text>
</g>
<!-- 65&#45;&gt;69 -->
<g id="edge69" class="edge">
<title>65&#45;&gt;69</title>
<path fill="none" stroke="black" d="M1743.12,-145.83C1749.3,-137.28 1756.76,-126.94 1763.5,-117.62"/>
<polygon fill="black" stroke="black" points="1766.4,-119.57 1769.42,-109.42 1760.73,-115.48 1766.4,-119.57"/>
</g>
<!-- 67 -->
<g id="node68" class="node">
<title>67</title>
<polygon fill="none" stroke="black" points="1666,-36 1590,-36 1590,0 1666,0 1666,-36"/>
<text text-anchor="middle" x="1628" y="-14.3" font-family="Times,serif" font-size="14.00">class = red</text>
</g>
<!-- 66&#45;&gt;67 -->
<g id="edge67" class="edge">
<title>66&#45;&gt;67</title>
<path fill="none" stroke="black" d="M1664.38,-71.72C1658.62,-63.37 1651.71,-53.35 1645.46,-44.3"/>
<polygon fill="black" stroke="black" points="1648.3,-42.25 1639.73,-36 1642.53,-46.22 1648.3,-42.25"/>
</g>
<!-- 68 -->
<g id="node69" class="node">
<title>68</title>
<polygon fill="none" stroke="black" points="1766,-36 1684,-36 1684,0 1766,0 1766,-36"/>
<text text-anchor="middle" x="1725" y="-14.3" font-family="Times,serif" font-size="14.00">class = blue</text>
</g>
<!-- 66&#45;&gt;68 -->
<g id="edge68" class="edge">
<title>66&#45;&gt;68</title>
<path fill="none" stroke="black" d="M1689.36,-71.72C1695,-63.37 1701.78,-53.35 1707.9,-44.3"/>
<polygon fill="black" stroke="black" points="1710.8,-46.25 1713.5,-36 1705,-42.33 1710.8,-46.25"/>
</g>
</g>
</svg>
