<?xml version="1.0" encoding="UTF-8" standalone="no"?>
<!DOCTYPE svg PUBLIC "-//W3C//DTD SVG 1.1//EN"
 "http://www.w3.org/Graphics/SVG/1.1/DTD/svg11.dtd">
<!-- Generated by graphviz version 2.44.1 (20200629.0846)
 -->
<!-- Title: Tree Pages: 1 -->
<svg width="539pt" height="414pt"
 viewBox="0.00 0.00 538.50 414.00" xmlns="http://www.w3.org/2000/svg" xmlns:xlink="http://www.w3.org/1999/xlink">
<g id="graph0" class="graph" transform="scale(1 1) rotate(0) translate(4 410)">
<title>Tree</title>
<polygon fill="white" stroke="transparent" points="-4,4 -4,-410 534.5,-410 534.5,4 -4,4"/>
<!-- 0 -->
<g id="node1" class="node">
<title>0</title>
<polygon fill="none" stroke="black" points="282.5,-406 177.5,-406 177.5,-368 282.5,-368 282.5,-406"/>
<text text-anchor="middle" x="230" y="-390.8" font-family="Times,serif" font-size="14.00">latitude &lt;= 42.9</text>
<text text-anchor="middle" x="230" y="-375.8" font-family="Times,serif" font-size="14.00">class = Canada</text>
</g>
<!-- 1 -->
<g id="node2" class="node">
<title>1</title>
<polygon fill="none" stroke="black" points="221.5,-332 102.5,-332 102.5,-294 221.5,-294 221.5,-332"/>
<text text-anchor="middle" x="162" y="-316.8" font-family="Times,serif" font-size="14.00">latitude &lt;= 42.096</text>
<text text-anchor="middle" x="162" y="-301.8" font-family="Times,serif" font-size="14.00">class = USA</text>
</g>
<!-- 0&#45;&gt;1 -->
<g id="edge1" class="edge">
<title>0&#45;&gt;1</title>
<path fill="none" stroke="black" d="M212.84,-367.83C204.85,-359.37 195.2,-349.15 186.46,-339.9"/>
<polygon fill="black" stroke="black" points="188.8,-337.28 179.39,-332.41 183.71,-342.09 188.8,-337.28"/>
<text text-anchor="middle" x="178.68" y="-353.7" font-family="Times,serif" font-size="14.00">True</text>
</g>
<!-- 6 -->
<g id="node7" class="node">
<title>6</title>
<polygon fill="none" stroke="black" points="358.5,-332 239.5,-332 239.5,-294 358.5,-294 358.5,-332"/>
<text text-anchor="middle" x="299" y="-316.8" font-family="Times,serif" font-size="14.00">latitude &lt;= 55.958</text>
<text text-anchor="middle" x="299" y="-301.8" font-family="Times,serif" font-size="14.00">class = Canada</text>
</g>
<!-- 0&#45;&gt;6 -->
<g id="edge6" class="edge">
<title>0&#45;&gt;6</title>
<path fill="none" stroke="black" d="M247.41,-367.83C255.52,-359.37 265.32,-349.15 274.18,-339.9"/>
<polygon fill="black" stroke="black" points="276.96,-342.05 281.35,-332.41 271.91,-337.21 276.96,-342.05"/>
<text text-anchor="middle" x="281.89" y="-353.71" font-family="Times,serif" font-size="14.00">False</text>
</g>
<!-- 2 -->
<g id="node3" class="node">
<title>2</title>
<polygon fill="none" stroke="black" points="86,-257 0,-257 0,-221 86,-221 86,-257"/>
<text text-anchor="middle" x="43" y="-235.3" font-family="Times,serif" font-size="14.00">class = USA</text>
</g>
<!-- 1&#45;&gt;2 -->
<g id="edge2" class="edge">
<title>1&#45;&gt;2</title>
<path fill="none" stroke="black" d="M131.97,-293.83C116.29,-284.34 96.94,-272.64 80.31,-262.57"/>
<polygon fill="black" stroke="black" points="81.75,-259.35 71.38,-257.17 78.12,-265.34 81.75,-259.35"/>
</g>
<!-- 3 -->
<g id="node4" class="node">
<title>3</title>
<polygon fill="none" stroke="black" points="223.5,-258 104.5,-258 104.5,-220 223.5,-220 223.5,-258"/>
<text text-anchor="middle" x="164" y="-242.8" font-family="Times,serif" font-size="14.00">latitude &lt;= 42.324</text>
<text text-anchor="middle" x="164" y="-227.8" font-family="Times,serif" font-size="14.00">class = USA</text>
</g>
<!-- 1&#45;&gt;3 -->
<g id="edge3" class="edge">
<title>1&#45;&gt;3</title>
<path fill="none" stroke="black" d="M162.5,-293.83C162.72,-286.13 162.97,-276.97 163.21,-268.42"/>
<polygon fill="black" stroke="black" points="166.71,-268.51 163.49,-258.41 159.71,-268.31 166.71,-268.51"/>
</g>
<!-- 4 -->
<g id="node5" class="node">
<title>4</title>
<polygon fill="none" stroke="black" points="103.5,-183 4.5,-183 4.5,-147 103.5,-147 103.5,-183"/>
<text text-anchor="middle" x="54" y="-161.3" font-family="Times,serif" font-size="14.00">class = Canada</text>
</g>
<!-- 3&#45;&gt;4 -->
<g id="edge4" class="edge">
<title>3&#45;&gt;4</title>
<path fill="none" stroke="black" d="M136.24,-219.83C121.88,-210.43 104.2,-198.86 88.91,-188.85"/>
<polygon fill="black" stroke="black" points="90.52,-185.72 80.23,-183.17 86.68,-191.58 90.52,-185.72"/>
</g>
<!-- 5 -->
<g id="node6" class="node">
<title>5</title>
<polygon fill="none" stroke="black" points="208,-183 122,-183 122,-147 208,-147 208,-183"/>
<text text-anchor="middle" x="165" y="-161.3" font-family="Times,serif" font-size="14.00">class = USA</text>
</g>
<!-- 3&#45;&gt;5 -->
<g id="edge5" class="edge">
<title>3&#45;&gt;5</title>
<path fill="none" stroke="black" d="M164.25,-219.83C164.36,-211.89 164.49,-202.41 164.62,-193.63"/>
<polygon fill="black" stroke="black" points="168.12,-193.47 164.76,-183.42 161.12,-193.37 168.12,-193.47"/>
</g>
<!-- 7 -->
<g id="node8" class="node">
<title>7</title>
<polygon fill="none" stroke="black" points="350.5,-258 245.5,-258 245.5,-220 350.5,-220 350.5,-258"/>
<text text-anchor="middle" x="298" y="-242.8" font-family="Times,serif" font-size="14.00">latitude &lt;= 49.0</text>
<text text-anchor="middle" x="298" y="-227.8" font-family="Times,serif" font-size="14.00">class = Canada</text>
</g>
<!-- 6&#45;&gt;7 -->
<g id="edge7" class="edge">
<title>6&#45;&gt;7</title>
<path fill="none" stroke="black" d="M298.75,-293.83C298.64,-286.13 298.51,-276.97 298.39,-268.42"/>
<polygon fill="black" stroke="black" points="301.89,-268.36 298.26,-258.41 294.9,-268.46 301.89,-268.36"/>
</g>
<!-- 16 -->
<g id="node17" class="node">
<title>16</title>
<polygon fill="none" stroke="black" points="455,-257 369,-257 369,-221 455,-221 455,-257"/>
<text text-anchor="middle" x="412" y="-235.3" font-family="Times,serif" font-size="14.00">class = USA</text>
</g>
<!-- 6&#45;&gt;16 -->
<g id="edge16" class="edge">
<title>6&#45;&gt;16</title>
<path fill="none" stroke="black" d="M327.51,-293.83C342.41,-284.34 360.78,-272.64 376.58,-262.57"/>
<polygon fill="black" stroke="black" points="378.5,-265.5 385.05,-257.17 374.74,-259.59 378.5,-265.5"/>
</g>
<!-- 8 -->
<g id="node9" class="node">
<title>8</title>
<polygon fill="none" stroke="black" points="364,-184 230,-184 230,-146 364,-146 364,-184"/>
<text text-anchor="middle" x="297" y="-168.8" font-family="Times,serif" font-size="14.00">longitude &lt;= &#45;94.582</text>
<text text-anchor="middle" x="297" y="-153.8" font-family="Times,serif" font-size="14.00">class = Canada</text>
</g>
<!-- 7&#45;&gt;8 -->
<g id="edge8" class="edge">
<title>7&#45;&gt;8</title>
<path fill="none" stroke="black" d="M297.75,-219.83C297.64,-212.13 297.51,-202.97 297.39,-194.42"/>
<polygon fill="black" stroke="black" points="300.89,-194.36 297.26,-184.41 293.9,-194.46 300.89,-194.36"/>
</g>
<!-- 15 -->
<g id="node16" class="node">
<title>15</title>
<polygon fill="none" stroke="black" points="481.5,-183 382.5,-183 382.5,-147 481.5,-147 481.5,-183"/>
<text text-anchor="middle" x="432" y="-161.3" font-family="Times,serif" font-size="14.00">class = Canada</text>
</g>
<!-- 7&#45;&gt;15 -->
<g id="edge15" class="edge">
<title>7&#45;&gt;15</title>
<path fill="none" stroke="black" d="M331.81,-219.83C349.8,-210.17 372.06,-198.2 391.03,-188.01"/>
<polygon fill="black" stroke="black" points="392.89,-190.99 400.04,-183.17 389.58,-184.82 392.89,-190.99"/>
</g>
<!-- 9 -->
<g id="node10" class="node">
<title>9</title>
<polygon fill="none" stroke="black" points="290,-110 150,-110 150,-72 290,-72 290,-110"/>
<text text-anchor="middle" x="220" y="-94.8" font-family="Times,serif" font-size="14.00">longitude &lt;= &#45;123.222</text>
<text text-anchor="middle" x="220" y="-79.8" font-family="Times,serif" font-size="14.00">class = USA</text>
</g>
<!-- 8&#45;&gt;9 -->
<g id="edge9" class="edge">
<title>8&#45;&gt;9</title>
<path fill="none" stroke="black" d="M277.57,-145.83C268.27,-137.13 256.98,-126.58 246.87,-117.13"/>
<polygon fill="black" stroke="black" points="249.12,-114.44 239.42,-110.16 244.34,-119.55 249.12,-114.44"/>
</g>
<!-- 12 -->
<g id="node13" class="node">
<title>12</title>
<polygon fill="none" stroke="black" points="442,-110 308,-110 308,-72 442,-72 442,-110"/>
<text text-anchor="middle" x="375" y="-94.8" font-family="Times,serif" font-size="14.00">longitude &lt;= &#45;69.246</text>
<text text-anchor="middle" x="375" y="-79.8" font-family="Times,serif" font-size="14.00">class = Canada</text>
</g>
<!-- 8&#45;&gt;12 -->
<g id="edge12" class="edge">
<title>8&#45;&gt;12</title>
<path fill="none" stroke="black" d="M316.68,-145.83C326.11,-137.13 337.54,-126.58 347.78,-117.13"/>
<polygon fill="black" stroke="black" points="350.35,-119.52 355.32,-110.16 345.6,-114.37 350.35,-119.52"/>
</g>
<!-- 10 -->
<g id="node11" class="node">
<title>10</title>
<polygon fill="none" stroke="black" points="169.5,-36 70.5,-36 70.5,0 169.5,0 169.5,-36"/>
<text text-anchor="middle" x="120" y="-14.3" font-family="Times,serif" font-size="14.00">class = Canada</text>
</g>
<!-- 9&#45;&gt;10 -->
<g id="edge10" class="edge">
<title>9&#45;&gt;10</title>
<path fill="none" stroke="black" d="M194.51,-71.9C181.66,-62.78 165.96,-51.63 152.28,-41.92"/>
<polygon fill="black" stroke="black" points="154.25,-39.02 144.07,-36.09 150.2,-44.73 154.25,-39.02"/>
</g>
<!-- 11 -->
<g id="node12" class="node">
<title>11</title>
<polygon fill="none" stroke="black" points="274,-36 188,-36 188,0 274,0 274,-36"/>
<text text-anchor="middle" x="231" y="-14.3" font-family="Times,serif" font-size="14.00">class = USA</text>
</g>
<!-- 9&#45;&gt;11 -->
<g id="edge11" class="edge">
<title>9&#45;&gt;11</title>
<path fill="none" stroke="black" d="M222.83,-71.72C224.05,-63.89 225.49,-54.59 226.82,-45.99"/>
<polygon fill="black" stroke="black" points="230.29,-46.42 228.37,-36 223.38,-45.35 230.29,-46.42"/>
</g>
<!-- 13 -->
<g id="node14" class="node">
<title>13</title>
<polygon fill="none" stroke="black" points="413.5,-36 314.5,-36 314.5,0 413.5,0 413.5,-36"/>
<text text-anchor="middle" x="364" y="-14.3" font-family="Times,serif" font-size="14.00">class = Canada</text>
</g>
<!-- 12&#45;&gt;13 -->
<g id="edge13" class="edge">
<title>12&#45;&gt;13</title>
<path fill="none" stroke="black" d="M372.17,-71.72C370.95,-63.89 369.51,-54.59 368.18,-45.99"/>
<polygon fill="black" stroke="black" points="371.62,-45.35 366.63,-36 364.71,-46.42 371.62,-45.35"/>
</g>
<!-- 14 -->
<g id="node15" class="node">
<title>14</title>
<polygon fill="none" stroke="black" points="530.5,-36 431.5,-36 431.5,0 530.5,0 530.5,-36"/>
<text text-anchor="middle" x="481" y="-14.3" font-family="Times,serif" font-size="14.00">class = Canada</text>
</g>
<!-- 12&#45;&gt;14 -->
<g id="edge14" class="edge">
<title>12&#45;&gt;14</title>
<path fill="none" stroke="black" d="M402.02,-71.9C415.64,-62.78 432.29,-51.63 446.78,-41.92"/>
<polygon fill="black" stroke="black" points="449.13,-44.56 455.49,-36.09 445.23,-38.75 449.13,-44.56"/>
</g>
</g>
</svg>
