<?xml version="1.0" encoding="UTF-8" standalone="no"?>
<!DOCTYPE svg PUBLIC "-//W3C//DTD SVG 1.1//EN"
 "http://www.w3.org/Graphics/SVG/1.1/DTD/svg11.dtd">
<!-- Generated by graphviz version 2.44.1 (20200629.0846)
 -->
<!-- Title: Tree Pages: 1 -->
<svg width="1888pt" height="636pt"
 viewBox="0.00 0.00 1888.00 636.00" xmlns="http://www.w3.org/2000/svg" xmlns:xlink="http://www.w3.org/1999/xlink">
<g id="graph0" class="graph" transform="scale(1 1) rotate(0) translate(4 632)">
<title>Tree</title>
<polygon fill="white" stroke="transparent" points="-4,4 -4,-632 1884,-632 1884,4 -4,4"/>
<!-- 0 -->
<g id="node1" class="node">
<title>0</title>
<polygon fill="none" stroke="black" points="601,-628 509,-628 509,-590 601,-590 601,-628"/>
<text text-anchor="middle" x="555" y="-612.8" font-family="Times,serif" font-size="14.00">lat &lt;= 37.682</text>
<text text-anchor="middle" x="555" y="-597.8" font-family="Times,serif" font-size="14.00">class = blue</text>
</g>
<!-- 1 -->
<g id="node2" class="node">
<title>1</title>
<polygon fill="none" stroke="black" points="363.5,-554 256.5,-554 256.5,-516 363.5,-516 363.5,-554"/>
<text text-anchor="middle" x="310" y="-538.8" font-family="Times,serif" font-size="14.00">lon &lt;= &#45;114.063</text>
<text text-anchor="middle" x="310" y="-523.8" font-family="Times,serif" font-size="14.00">class = red</text>
</g>
<!-- 0&#45;&gt;1 -->
<g id="edge1" class="edge">
<title>0&#45;&gt;1</title>
<path fill="none" stroke="black" d="M508.92,-594.46C470.6,-583.2 415.66,-567.05 373.23,-554.58"/>
<polygon fill="black" stroke="black" points="374.13,-551.2 363.55,-551.74 372.16,-557.92 374.13,-551.2"/>
<text text-anchor="middle" x="375.53" y="-569.98" font-family="Times,serif" font-size="14.00">True</text>
</g>
<!-- 24 -->
<g id="node25" class="node">
<title>24</title>
<polygon fill="none" stroke="black" points="907,-554 807,-554 807,-516 907,-516 907,-554"/>
<text text-anchor="middle" x="857" y="-538.8" font-family="Times,serif" font-size="14.00">lon &lt;= &#45;96.061</text>
<text text-anchor="middle" x="857" y="-523.8" font-family="Times,serif" font-size="14.00">class = blue</text>
</g>
<!-- 0&#45;&gt;24 -->
<g id="edge24" class="edge">
<title>0&#45;&gt;24</title>
<path fill="none" stroke="black" d="M601.2,-596.99C653.57,-584.5 739.14,-564.1 796.72,-550.37"/>
<polygon fill="black" stroke="black" points="797.87,-553.7 806.78,-547.97 796.24,-546.89 797.87,-553.7"/>
<text text-anchor="middle" x="793.69" y="-565.57" font-family="Times,serif" font-size="14.00">False</text>
</g>
<!-- 2 -->
<g id="node3" class="node">
<title>2</title>
<polygon fill="none" stroke="black" points="246,-479 164,-479 164,-443 246,-443 246,-479"/>
<text text-anchor="middle" x="205" y="-457.3" font-family="Times,serif" font-size="14.00">class = blue</text>
</g>
<!-- 1&#45;&gt;2 -->
<g id="edge2" class="edge">
<title>1&#45;&gt;2</title>
<path fill="none" stroke="black" d="M283.5,-515.83C269.79,-506.43 252.91,-494.86 238.33,-484.85"/>
<polygon fill="black" stroke="black" points="240.27,-481.94 230.04,-479.17 236.31,-487.71 240.27,-481.94"/>
</g>
<!-- 3 -->
<g id="node4" class="node">
<title>3</title>
<polygon fill="none" stroke="black" points="356,-480 264,-480 264,-442 356,-442 356,-480"/>
<text text-anchor="middle" x="310" y="-464.8" font-family="Times,serif" font-size="14.00">lat &lt;= 29.595</text>
<text text-anchor="middle" x="310" y="-449.8" font-family="Times,serif" font-size="14.00">class = red</text>
</g>
<!-- 1&#45;&gt;3 -->
<g id="edge3" class="edge">
<title>1&#45;&gt;3</title>
<path fill="none" stroke="black" d="M310,-515.83C310,-508.13 310,-498.97 310,-490.42"/>
<polygon fill="black" stroke="black" points="313.5,-490.41 310,-480.41 306.5,-490.41 313.5,-490.41"/>
</g>
<!-- 4 -->
<g id="node5" class="node">
<title>4</title>
<polygon fill="none" stroke="black" points="185,-406 85,-406 85,-368 185,-368 185,-406"/>
<text text-anchor="middle" x="135" y="-390.8" font-family="Times,serif" font-size="14.00">lon &lt;= &#45;90.074</text>
<text text-anchor="middle" x="135" y="-375.8" font-family="Times,serif" font-size="14.00">class = blue</text>
</g>
<!-- 3&#45;&gt;4 -->
<g id="edge4" class="edge">
<title>3&#45;&gt;4</title>
<path fill="none" stroke="black" d="M265.84,-441.83C242.23,-432.12 212.98,-420.08 188.13,-409.86"/>
<polygon fill="black" stroke="black" points="189.42,-406.61 178.84,-406.04 186.76,-413.08 189.42,-406.61"/>
</g>
<!-- 7 -->
<g id="node8" class="node">
<title>7</title>
<polygon fill="none" stroke="black" points="356,-406 264,-406 264,-368 356,-368 356,-406"/>
<text text-anchor="middle" x="310" y="-390.8" font-family="Times,serif" font-size="14.00">lat &lt;= 36.522</text>
<text text-anchor="middle" x="310" y="-375.8" font-family="Times,serif" font-size="14.00">class = red</text>
</g>
<!-- 3&#45;&gt;7 -->
<g id="edge7" class="edge">
<title>3&#45;&gt;7</title>
<path fill="none" stroke="black" d="M310,-441.83C310,-434.13 310,-424.97 310,-416.42"/>
<polygon fill="black" stroke="black" points="313.5,-416.41 310,-406.41 306.5,-416.41 313.5,-416.41"/>
</g>
<!-- 5 -->
<g id="node6" class="node">
<title>5</title>
<polygon fill="none" stroke="black" points="76,-331 0,-331 0,-295 76,-295 76,-331"/>
<text text-anchor="middle" x="38" y="-309.3" font-family="Times,serif" font-size="14.00">class = red</text>
</g>
<!-- 4&#45;&gt;5 -->
<g id="edge5" class="edge">
<title>4&#45;&gt;5</title>
<path fill="none" stroke="black" d="M110.52,-367.83C97.97,-358.52 82.55,-347.07 69.16,-337.13"/>
<polygon fill="black" stroke="black" points="71.25,-334.32 61.13,-331.17 67.08,-339.94 71.25,-334.32"/>
</g>
<!-- 6 -->
<g id="node7" class="node">
<title>6</title>
<polygon fill="none" stroke="black" points="176,-331 94,-331 94,-295 176,-295 176,-331"/>
<text text-anchor="middle" x="135" y="-309.3" font-family="Times,serif" font-size="14.00">class = blue</text>
</g>
<!-- 4&#45;&gt;6 -->
<g id="edge6" class="edge">
<title>4&#45;&gt;6</title>
<path fill="none" stroke="black" d="M135,-367.83C135,-359.89 135,-350.41 135,-341.63"/>
<polygon fill="black" stroke="black" points="138.5,-341.42 135,-331.42 131.5,-341.42 138.5,-341.42"/>
</g>
<!-- 8 -->
<g id="node9" class="node">
<title>8</title>
<polygon fill="none" stroke="black" points="301.5,-332 194.5,-332 194.5,-294 301.5,-294 301.5,-332"/>
<text text-anchor="middle" x="248" y="-316.8" font-family="Times,serif" font-size="14.00">lon &lt;= &#45;102.257</text>
<text text-anchor="middle" x="248" y="-301.8" font-family="Times,serif" font-size="14.00">class = red</text>
</g>
<!-- 7&#45;&gt;8 -->
<g id="edge8" class="edge">
<title>7&#45;&gt;8</title>
<path fill="none" stroke="black" d="M294.35,-367.83C287.14,-359.45 278.44,-349.35 270.54,-340.17"/>
<polygon fill="black" stroke="black" points="273.03,-337.71 263.86,-332.41 267.73,-342.27 273.03,-337.71"/>
</g>
<!-- 15 -->
<g id="node16" class="node">
<title>15</title>
<polygon fill="none" stroke="black" points="420,-332 320,-332 320,-294 420,-294 420,-332"/>
<text text-anchor="middle" x="370" y="-316.8" font-family="Times,serif" font-size="14.00">lon &lt;= &#45;82.415</text>
<text text-anchor="middle" x="370" y="-301.8" font-family="Times,serif" font-size="14.00">class = red</text>
</g>
<!-- 7&#45;&gt;15 -->
<g id="edge15" class="edge">
<title>7&#45;&gt;15</title>
<path fill="none" stroke="black" d="M325.14,-367.83C332.12,-359.45 340.54,-349.35 348.19,-340.17"/>
<polygon fill="black" stroke="black" points="350.94,-342.34 354.66,-332.41 345.56,-337.85 350.94,-342.34"/>
</g>
<!-- 9 -->
<g id="node10" class="node">
<title>9</title>
<polygon fill="none" stroke="black" points="191.5,-258 84.5,-258 84.5,-220 191.5,-220 191.5,-258"/>
<text text-anchor="middle" x="138" y="-242.8" font-family="Times,serif" font-size="14.00">lon &lt;= &#45;107.589</text>
<text text-anchor="middle" x="138" y="-227.8" font-family="Times,serif" font-size="14.00">class = red</text>
</g>
<!-- 8&#45;&gt;9 -->
<g id="edge9" class="edge">
<title>8&#45;&gt;9</title>
<path fill="none" stroke="black" d="M220.24,-293.83C206.3,-284.71 189.24,-273.54 174.28,-263.74"/>
<polygon fill="black" stroke="black" points="176.03,-260.71 165.75,-258.16 172.2,-266.57 176.03,-260.71"/>
</g>
<!-- 14 -->
<g id="node15" class="node">
<title>14</title>
<polygon fill="none" stroke="black" points="286,-257 210,-257 210,-221 286,-221 286,-257"/>
<text text-anchor="middle" x="248" y="-235.3" font-family="Times,serif" font-size="14.00">class = red</text>
</g>
<!-- 8&#45;&gt;14 -->
<g id="edge14" class="edge">
<title>8&#45;&gt;14</title>
<path fill="none" stroke="black" d="M248,-293.83C248,-285.89 248,-276.41 248,-267.63"/>
<polygon fill="black" stroke="black" points="251.5,-267.42 248,-257.42 244.5,-267.42 251.5,-267.42"/>
</g>
<!-- 10 -->
<g id="node11" class="node">
<title>10</title>
<polygon fill="none" stroke="black" points="81,-183 5,-183 5,-147 81,-147 81,-183"/>
<text text-anchor="middle" x="43" y="-161.3" font-family="Times,serif" font-size="14.00">class = red</text>
</g>
<!-- 9&#45;&gt;10 -->
<g id="edge10" class="edge">
<title>9&#45;&gt;10</title>
<path fill="none" stroke="black" d="M114.03,-219.83C101.85,-210.6 86.92,-199.29 73.89,-189.41"/>
<polygon fill="black" stroke="black" points="75.74,-186.42 65.66,-183.17 71.51,-192 75.74,-186.42"/>
</g>
<!-- 11 -->
<g id="node12" class="node">
<title>11</title>
<polygon fill="none" stroke="black" points="191,-184 99,-184 99,-146 191,-146 191,-184"/>
<text text-anchor="middle" x="145" y="-168.8" font-family="Times,serif" font-size="14.00">lat &lt;= 31.788</text>
<text text-anchor="middle" x="145" y="-153.8" font-family="Times,serif" font-size="14.00">class = blue</text>
</g>
<!-- 9&#45;&gt;11 -->
<g id="edge11" class="edge">
<title>9&#45;&gt;11</title>
<path fill="none" stroke="black" d="M139.77,-219.83C140.52,-212.13 141.41,-202.97 142.24,-194.42"/>
<polygon fill="black" stroke="black" points="145.73,-194.71 143.21,-184.41 138.76,-194.03 145.73,-194.71"/>
</g>
<!-- 12 -->
<g id="node13" class="node">
<title>12</title>
<polygon fill="none" stroke="black" points="135,-109 59,-109 59,-73 135,-73 135,-109"/>
<text text-anchor="middle" x="97" y="-87.3" font-family="Times,serif" font-size="14.00">class = red</text>
</g>
<!-- 11&#45;&gt;12 -->
<g id="edge12" class="edge">
<title>11&#45;&gt;12</title>
<path fill="none" stroke="black" d="M132.89,-145.83C127.25,-137.37 120.43,-127.15 114.27,-117.9"/>
<polygon fill="black" stroke="black" points="117.07,-115.8 108.61,-109.42 111.25,-119.68 117.07,-115.8"/>
</g>
<!-- 13 -->
<g id="node14" class="node">
<title>13</title>
<polygon fill="none" stroke="black" points="235,-109 153,-109 153,-73 235,-73 235,-109"/>
<text text-anchor="middle" x="194" y="-87.3" font-family="Times,serif" font-size="14.00">class = blue</text>
</g>
<!-- 11&#45;&gt;13 -->
<g id="edge13" class="edge">
<title>11&#45;&gt;13</title>
<path fill="none" stroke="black" d="M157.36,-145.83C163.12,-137.37 170.08,-127.15 176.37,-117.9"/>
<polygon fill="black" stroke="black" points="179.41,-119.65 182.15,-109.42 173.63,-115.72 179.41,-119.65"/>
</g>
<!-- 16 -->
<g id="node17" class="node">
<title>16</title>
<polygon fill="none" stroke="black" points="396,-258 304,-258 304,-220 396,-220 396,-258"/>
<text text-anchor="middle" x="350" y="-242.8" font-family="Times,serif" font-size="14.00">lat &lt;= 36.633</text>
<text text-anchor="middle" x="350" y="-227.8" font-family="Times,serif" font-size="14.00">class = red</text>
</g>
<!-- 15&#45;&gt;16 -->
<g id="edge16" class="edge">
<title>15&#45;&gt;16</title>
<path fill="none" stroke="black" d="M364.95,-293.83C362.79,-286.05 360.21,-276.77 357.82,-268.13"/>
<polygon fill="black" stroke="black" points="361.16,-267.11 355.11,-258.41 354.42,-268.99 361.16,-267.11"/>
</g>
<!-- 19 -->
<g id="node20" class="node">
<title>19</title>
<polygon fill="none" stroke="black" points="514,-258 414,-258 414,-220 514,-220 514,-258"/>
<text text-anchor="middle" x="464" y="-242.8" font-family="Times,serif" font-size="14.00">lon &lt;= &#45;80.706</text>
<text text-anchor="middle" x="464" y="-227.8" font-family="Times,serif" font-size="14.00">class = blue</text>
</g>
<!-- 15&#45;&gt;19 -->
<g id="edge19" class="edge">
<title>15&#45;&gt;19</title>
<path fill="none" stroke="black" d="M393.72,-293.83C405.41,-284.88 419.67,-273.96 432.28,-264.3"/>
<polygon fill="black" stroke="black" points="434.48,-267.02 440.29,-258.16 430.22,-261.47 434.48,-267.02"/>
</g>
<!-- 17 -->
<g id="node18" class="node">
<title>17</title>
<polygon fill="none" stroke="black" points="296,-183 214,-183 214,-147 296,-147 296,-183"/>
<text text-anchor="middle" x="255" y="-161.3" font-family="Times,serif" font-size="14.00">class = blue</text>
</g>
<!-- 16&#45;&gt;17 -->
<g id="edge17" class="edge">
<title>16&#45;&gt;17</title>
<path fill="none" stroke="black" d="M326.03,-219.83C313.85,-210.6 298.92,-199.29 285.89,-189.41"/>
<polygon fill="black" stroke="black" points="287.74,-186.42 277.66,-183.17 283.51,-192 287.74,-186.42"/>
</g>
<!-- 18 -->
<g id="node19" class="node">
<title>18</title>
<polygon fill="none" stroke="black" points="390,-183 314,-183 314,-147 390,-147 390,-183"/>
<text text-anchor="middle" x="352" y="-161.3" font-family="Times,serif" font-size="14.00">class = red</text>
</g>
<!-- 16&#45;&gt;18 -->
<g id="edge18" class="edge">
<title>16&#45;&gt;18</title>
<path fill="none" stroke="black" d="M350.5,-219.83C350.73,-211.89 350.99,-202.41 351.23,-193.63"/>
<polygon fill="black" stroke="black" points="354.74,-193.51 351.52,-183.42 347.74,-193.32 354.74,-193.51"/>
</g>
<!-- 20 -->
<g id="node21" class="node">
<title>20</title>
<polygon fill="none" stroke="black" points="512,-184 412,-184 412,-146 512,-146 512,-184"/>
<text text-anchor="middle" x="462" y="-168.8" font-family="Times,serif" font-size="14.00">lon &lt;= &#45;81.939</text>
<text text-anchor="middle" x="462" y="-153.8" font-family="Times,serif" font-size="14.00">class = blue</text>
</g>
<!-- 19&#45;&gt;20 -->
<g id="edge20" class="edge">
<title>19&#45;&gt;20</title>
<path fill="none" stroke="black" d="M463.5,-219.83C463.28,-212.13 463.03,-202.97 462.79,-194.42"/>
<polygon fill="black" stroke="black" points="466.29,-194.31 462.51,-184.41 459.29,-194.51 466.29,-194.31"/>
</g>
<!-- 23 -->
<g id="node24" class="node">
<title>23</title>
<polygon fill="none" stroke="black" points="612,-183 530,-183 530,-147 612,-147 612,-183"/>
<text text-anchor="middle" x="571" y="-161.3" font-family="Times,serif" font-size="14.00">class = blue</text>
</g>
<!-- 19&#45;&gt;23 -->
<g id="edge23" class="edge">
<title>19&#45;&gt;23</title>
<path fill="none" stroke="black" d="M491,-219.83C504.97,-210.43 522.17,-198.86 537.04,-188.85"/>
<polygon fill="black" stroke="black" points="539.14,-191.66 545.48,-183.17 535.23,-185.85 539.14,-191.66"/>
</g>
<!-- 21 -->
<g id="node22" class="node">
<title>21</title>
<polygon fill="none" stroke="black" points="455,-109 373,-109 373,-73 455,-73 455,-109"/>
<text text-anchor="middle" x="414" y="-87.3" font-family="Times,serif" font-size="14.00">class = blue</text>
</g>
<!-- 20&#45;&gt;21 -->
<g id="edge21" class="edge">
<title>20&#45;&gt;21</title>
<path fill="none" stroke="black" d="M449.89,-145.83C444.25,-137.37 437.43,-127.15 431.27,-117.9"/>
<polygon fill="black" stroke="black" points="434.07,-115.8 425.61,-109.42 428.25,-119.68 434.07,-115.8"/>
</g>
<!-- 22 -->
<g id="node23" class="node">
<title>22</title>
<polygon fill="none" stroke="black" points="549,-109 473,-109 473,-73 549,-73 549,-109"/>
<text text-anchor="middle" x="511" y="-87.3" font-family="Times,serif" font-size="14.00">class = red</text>
</g>
<!-- 20&#45;&gt;22 -->
<g id="edge22" class="edge">
<title>20&#45;&gt;22</title>
<path fill="none" stroke="black" d="M474.36,-145.83C480.12,-137.37 487.08,-127.15 493.37,-117.9"/>
<polygon fill="black" stroke="black" points="496.41,-119.65 499.15,-109.42 490.63,-115.72 496.41,-119.65"/>
</g>
<!-- 25 -->
<g id="node26" class="node">
<title>25</title>
<polygon fill="none" stroke="black" points="910.5,-480 803.5,-480 803.5,-442 910.5,-442 910.5,-480"/>
<text text-anchor="middle" x="857" y="-464.8" font-family="Times,serif" font-size="14.00">lon &lt;= &#45;104.089</text>
<text text-anchor="middle" x="857" y="-449.8" font-family="Times,serif" font-size="14.00">class = red</text>
</g>
<!-- 24&#45;&gt;25 -->
<g id="edge25" class="edge">
<title>24&#45;&gt;25</title>
<path fill="none" stroke="black" d="M857,-515.83C857,-508.13 857,-498.97 857,-490.42"/>
<polygon fill="black" stroke="black" points="860.5,-490.41 857,-480.41 853.5,-490.41 860.5,-490.41"/>
</g>
<!-- 42 -->
<g id="node43" class="node">
<title>42</title>
<polygon fill="none" stroke="black" points="1479,-480 1387,-480 1387,-442 1479,-442 1479,-480"/>
<text text-anchor="middle" x="1433" y="-464.8" font-family="Times,serif" font-size="14.00">lat &lt;= 39.759</text>
<text text-anchor="middle" x="1433" y="-449.8" font-family="Times,serif" font-size="14.00">class = blue</text>
</g>
<!-- 24&#45;&gt;42 -->
<g id="edge42" class="edge">
<title>24&#45;&gt;42</title>
<path fill="none" stroke="black" d="M907.11,-527.74C1014.07,-514.37 1264.13,-483.11 1376.53,-469.06"/>
<polygon fill="black" stroke="black" points="1377.15,-472.51 1386.64,-467.79 1376.29,-465.56 1377.15,-472.51"/>
</g>
<!-- 26 -->
<g id="node27" class="node">
<title>26</title>
<polygon fill="none" stroke="black" points="846,-406 754,-406 754,-368 846,-368 846,-406"/>
<text text-anchor="middle" x="800" y="-390.8" font-family="Times,serif" font-size="14.00">lat &lt;= 41.895</text>
<text text-anchor="middle" x="800" y="-375.8" font-family="Times,serif" font-size="14.00">class = blue</text>
</g>
<!-- 25&#45;&gt;26 -->
<g id="edge26" class="edge">
<title>25&#45;&gt;26</title>
<path fill="none" stroke="black" d="M842.62,-441.83C836.05,-433.54 828.15,-423.56 820.94,-414.45"/>
<polygon fill="black" stroke="black" points="823.53,-412.08 814.58,-406.41 818.04,-416.43 823.53,-412.08"/>
</g>
<!-- 37 -->
<g id="node38" class="node">
<title>37</title>
<polygon fill="none" stroke="black" points="964,-406 864,-406 864,-368 964,-368 964,-406"/>
<text text-anchor="middle" x="914" y="-390.8" font-family="Times,serif" font-size="14.00">lon &lt;= &#45;96.557</text>
<text text-anchor="middle" x="914" y="-375.8" font-family="Times,serif" font-size="14.00">class = red</text>
</g>
<!-- 25&#45;&gt;37 -->
<g id="edge37" class="edge">
<title>25&#45;&gt;37</title>
<path fill="none" stroke="black" d="M871.38,-441.83C877.95,-433.54 885.85,-423.56 893.06,-414.45"/>
<polygon fill="black" stroke="black" points="895.96,-416.43 899.42,-406.41 890.47,-412.08 895.96,-416.43"/>
</g>
<!-- 27 -->
<g id="node28" class="node">
<title>27</title>
<polygon fill="none" stroke="black" points="739.5,-332 632.5,-332 632.5,-294 739.5,-294 739.5,-332"/>
<text text-anchor="middle" x="686" y="-316.8" font-family="Times,serif" font-size="14.00">lon &lt;= &#45;113.872</text>
<text text-anchor="middle" x="686" y="-301.8" font-family="Times,serif" font-size="14.00">class = blue</text>
</g>
<!-- 26&#45;&gt;27 -->
<g id="edge27" class="edge">
<title>26&#45;&gt;27</title>
<path fill="none" stroke="black" d="M771.23,-367.83C756.79,-358.71 739.1,-347.54 723.6,-337.74"/>
<polygon fill="black" stroke="black" points="725.08,-334.54 714.76,-332.16 721.34,-340.46 725.08,-334.54"/>
</g>
<!-- 32 -->
<g id="node33" class="node">
<title>32</title>
<polygon fill="none" stroke="black" points="842.5,-332 757.5,-332 757.5,-294 842.5,-294 842.5,-332"/>
<text text-anchor="middle" x="800" y="-316.8" font-family="Times,serif" font-size="14.00">lat &lt;= 45.33</text>
<text text-anchor="middle" x="800" y="-301.8" font-family="Times,serif" font-size="14.00">class = red</text>
</g>
<!-- 26&#45;&gt;32 -->
<g id="edge32" class="edge">
<title>26&#45;&gt;32</title>
<path fill="none" stroke="black" d="M800,-367.83C800,-360.13 800,-350.97 800,-342.42"/>
<polygon fill="black" stroke="black" points="803.5,-342.41 800,-332.41 796.5,-342.41 803.5,-342.41"/>
</g>
<!-- 28 -->
<g id="node29" class="node">
<title>28</title>
<polygon fill="none" stroke="black" points="614,-257 532,-257 532,-221 614,-221 614,-257"/>
<text text-anchor="middle" x="573" y="-235.3" font-family="Times,serif" font-size="14.00">class = blue</text>
</g>
<!-- 27&#45;&gt;28 -->
<g id="edge28" class="edge">
<title>27&#45;&gt;28</title>
<path fill="none" stroke="black" d="M657.49,-293.83C642.59,-284.34 624.22,-272.64 608.42,-262.57"/>
<polygon fill="black" stroke="black" points="610.26,-259.59 599.95,-257.17 606.5,-265.5 610.26,-259.59"/>
</g>
<!-- 29 -->
<g id="node30" class="node">
<title>29</title>
<polygon fill="none" stroke="black" points="739.5,-258 632.5,-258 632.5,-220 739.5,-220 739.5,-258"/>
<text text-anchor="middle" x="686" y="-242.8" font-family="Times,serif" font-size="14.00">lon &lt;= &#45;107.957</text>
<text text-anchor="middle" x="686" y="-227.8" font-family="Times,serif" font-size="14.00">class = blue</text>
</g>
<!-- 27&#45;&gt;29 -->
<g id="edge29" class="edge">
<title>27&#45;&gt;29</title>
<path fill="none" stroke="black" d="M686,-293.83C686,-286.13 686,-276.97 686,-268.42"/>
<polygon fill="black" stroke="black" points="689.5,-268.41 686,-258.41 682.5,-268.41 689.5,-268.41"/>
</g>
<!-- 30 -->
<g id="node31" class="node">
<title>30</title>
<polygon fill="none" stroke="black" points="716,-183 640,-183 640,-147 716,-147 716,-183"/>
<text text-anchor="middle" x="678" y="-161.3" font-family="Times,serif" font-size="14.00">class = red</text>
</g>
<!-- 29&#45;&gt;30 -->
<g id="edge30" class="edge">
<title>29&#45;&gt;30</title>
<path fill="none" stroke="black" d="M683.98,-219.83C683.1,-211.89 682.05,-202.41 681.07,-193.63"/>
<polygon fill="black" stroke="black" points="684.52,-192.97 679.94,-183.42 677.56,-193.74 684.52,-192.97"/>
</g>
<!-- 31 -->
<g id="node32" class="node">
<title>31</title>
<polygon fill="none" stroke="black" points="816,-183 734,-183 734,-147 816,-147 816,-183"/>
<text text-anchor="middle" x="775" y="-161.3" font-family="Times,serif" font-size="14.00">class = blue</text>
</g>
<!-- 29&#45;&gt;31 -->
<g id="edge31" class="edge">
<title>29&#45;&gt;31</title>
<path fill="none" stroke="black" d="M708.46,-219.83C719.76,-210.69 733.59,-199.5 745.71,-189.7"/>
<polygon fill="black" stroke="black" points="748.2,-192.18 753.77,-183.17 743.8,-186.74 748.2,-192.18"/>
</g>
<!-- 33 -->
<g id="node34" class="node">
<title>33</title>
<polygon fill="none" stroke="black" points="834,-257 758,-257 758,-221 834,-221 834,-257"/>
<text text-anchor="middle" x="796" y="-235.3" font-family="Times,serif" font-size="14.00">class = red</text>
</g>
<!-- 32&#45;&gt;33 -->
<g id="edge33" class="edge">
<title>32&#45;&gt;33</title>
<path fill="none" stroke="black" d="M798.99,-293.83C798.55,-285.89 798.02,-276.41 797.53,-267.63"/>
<polygon fill="black" stroke="black" points="801.02,-267.21 796.97,-257.42 794.03,-267.6 801.02,-267.21"/>
</g>
<!-- 34 -->
<g id="node35" class="node">
<title>34</title>
<polygon fill="none" stroke="black" points="959.5,-258 852.5,-258 852.5,-220 959.5,-220 959.5,-258"/>
<text text-anchor="middle" x="906" y="-242.8" font-family="Times,serif" font-size="14.00">lon &lt;= &#45;133.954</text>
<text text-anchor="middle" x="906" y="-227.8" font-family="Times,serif" font-size="14.00">class = blue</text>
</g>
<!-- 32&#45;&gt;34 -->
<g id="edge34" class="edge">
<title>32&#45;&gt;34</title>
<path fill="none" stroke="black" d="M826.75,-293.83C840.06,-284.79 856.32,-273.75 870.64,-264.02"/>
<polygon fill="black" stroke="black" points="872.95,-266.68 879.26,-258.16 869.02,-260.89 872.95,-266.68"/>
</g>
<!-- 35 -->
<g id="node36" class="node">
<title>35</title>
<polygon fill="none" stroke="black" points="927,-183 851,-183 851,-147 927,-147 927,-183"/>
<text text-anchor="middle" x="889" y="-161.3" font-family="Times,serif" font-size="14.00">class = red</text>
</g>
<!-- 34&#45;&gt;35 -->
<g id="edge35" class="edge">
<title>34&#45;&gt;35</title>
<path fill="none" stroke="black" d="M901.71,-219.83C899.82,-211.81 897.55,-202.2 895.46,-193.34"/>
<polygon fill="black" stroke="black" points="898.82,-192.35 893.11,-183.42 892,-193.95 898.82,-192.35"/>
</g>
<!-- 36 -->
<g id="node37" class="node">
<title>36</title>
<polygon fill="none" stroke="black" points="1027,-183 945,-183 945,-147 1027,-147 1027,-183"/>
<text text-anchor="middle" x="986" y="-161.3" font-family="Times,serif" font-size="14.00">class = blue</text>
</g>
<!-- 34&#45;&gt;36 -->
<g id="edge36" class="edge">
<title>34&#45;&gt;36</title>
<path fill="none" stroke="black" d="M926.19,-219.83C936.24,-210.78 948.54,-199.72 959.36,-189.98"/>
<polygon fill="black" stroke="black" points="961.83,-192.46 966.92,-183.17 957.15,-187.26 961.83,-192.46"/>
</g>
<!-- 38 -->
<g id="node39" class="node">
<title>38</title>
<polygon fill="none" stroke="black" points="952,-331 876,-331 876,-295 952,-295 952,-331"/>
<text text-anchor="middle" x="914" y="-309.3" font-family="Times,serif" font-size="14.00">class = red</text>
</g>
<!-- 37&#45;&gt;38 -->
<g id="edge38" class="edge">
<title>37&#45;&gt;38</title>
<path fill="none" stroke="black" d="M914,-367.83C914,-359.89 914,-350.41 914,-341.63"/>
<polygon fill="black" stroke="black" points="917.5,-341.42 914,-331.42 910.5,-341.42 917.5,-341.42"/>
</g>
<!-- 39 -->
<g id="node40" class="node">
<title>39</title>
<polygon fill="none" stroke="black" points="1062,-332 970,-332 970,-294 1062,-294 1062,-332"/>
<text text-anchor="middle" x="1016" y="-316.8" font-family="Times,serif" font-size="14.00">lat &lt;= 42.007</text>
<text text-anchor="middle" x="1016" y="-301.8" font-family="Times,serif" font-size="14.00">class = blue</text>
</g>
<!-- 37&#45;&gt;39 -->
<g id="edge39" class="edge">
<title>37&#45;&gt;39</title>
<path fill="none" stroke="black" d="M939.74,-367.83C952.54,-358.79 968.19,-347.75 981.97,-338.02"/>
<polygon fill="black" stroke="black" points="984.12,-340.79 990.27,-332.16 980.08,-335.07 984.12,-340.79"/>
</g>
<!-- 40 -->
<g id="node41" class="node">
<title>40</title>
<polygon fill="none" stroke="black" points="1054,-257 978,-257 978,-221 1054,-221 1054,-257"/>
<text text-anchor="middle" x="1016" y="-235.3" font-family="Times,serif" font-size="14.00">class = red</text>
</g>
<!-- 39&#45;&gt;40 -->
<g id="edge40" class="edge">
<title>39&#45;&gt;40</title>
<path fill="none" stroke="black" d="M1016,-293.83C1016,-285.89 1016,-276.41 1016,-267.63"/>
<polygon fill="black" stroke="black" points="1019.5,-267.42 1016,-257.42 1012.5,-267.42 1019.5,-267.42"/>
</g>
<!-- 41 -->
<g id="node42" class="node">
<title>41</title>
<polygon fill="none" stroke="black" points="1154,-257 1072,-257 1072,-221 1154,-221 1154,-257"/>
<text text-anchor="middle" x="1113" y="-235.3" font-family="Times,serif" font-size="14.00">class = blue</text>
</g>
<!-- 39&#45;&gt;41 -->
<g id="edge41" class="edge">
<title>39&#45;&gt;41</title>
<path fill="none" stroke="black" d="M1040.48,-293.83C1053.03,-284.52 1068.45,-273.07 1081.84,-263.13"/>
<polygon fill="black" stroke="black" points="1083.92,-265.94 1089.87,-257.17 1079.75,-260.32 1083.92,-265.94"/>
</g>
<!-- 43 -->
<g id="node44" class="node">
<title>43</title>
<polygon fill="none" stroke="black" points="1483,-406 1383,-406 1383,-368 1483,-368 1483,-406"/>
<text text-anchor="middle" x="1433" y="-390.8" font-family="Times,serif" font-size="14.00">lon &lt;= &#45;79.773</text>
<text text-anchor="middle" x="1433" y="-375.8" font-family="Times,serif" font-size="14.00">class = blue</text>
</g>
<!-- 42&#45;&gt;43 -->
<g id="edge43" class="edge">
<title>42&#45;&gt;43</title>
<path fill="none" stroke="black" d="M1433,-441.83C1433,-434.13 1433,-424.97 1433,-416.42"/>
<polygon fill="black" stroke="black" points="1436.5,-416.41 1433,-406.41 1429.5,-416.41 1436.5,-416.41"/>
</g>
<!-- 62 -->
<g id="node63" class="node">
<title>62</title>
<polygon fill="none" stroke="black" points="1780,-406 1680,-406 1680,-368 1780,-368 1780,-406"/>
<text text-anchor="middle" x="1730" y="-390.8" font-family="Times,serif" font-size="14.00">lon &lt;= &#45;84.905</text>
<text text-anchor="middle" x="1730" y="-375.8" font-family="Times,serif" font-size="14.00">class = blue</text>
</g>
<!-- 42&#45;&gt;62 -->
<g id="edge62" class="edge">
<title>42&#45;&gt;62</title>
<path fill="none" stroke="black" d="M1479.08,-448.83C1530.42,-436.38 1613.6,-416.22 1669.98,-402.55"/>
<polygon fill="black" stroke="black" points="1670.94,-405.92 1679.84,-400.16 1669.29,-399.12 1670.94,-405.92"/>
</g>
<!-- 44 -->
<g id="node45" class="node">
<title>44</title>
<polygon fill="none" stroke="black" points="1409,-332 1309,-332 1309,-294 1409,-294 1409,-332"/>
<text text-anchor="middle" x="1359" y="-316.8" font-family="Times,serif" font-size="14.00">lon &lt;= &#45;87.643</text>
<text text-anchor="middle" x="1359" y="-301.8" font-family="Times,serif" font-size="14.00">class = red</text>
</g>
<!-- 43&#45;&gt;44 -->
<g id="edge44" class="edge">
<title>43&#45;&gt;44</title>
<path fill="none" stroke="black" d="M1414.33,-367.83C1405.48,-359.22 1394.75,-348.79 1385.11,-339.4"/>
<polygon fill="black" stroke="black" points="1387.28,-336.63 1377.67,-332.16 1382.39,-341.64 1387.28,-336.63"/>
</g>
<!-- 57 -->
<g id="node58" class="node">
<title>57</title>
<polygon fill="none" stroke="black" points="1562,-332 1462,-332 1462,-294 1562,-294 1562,-332"/>
<text text-anchor="middle" x="1512" y="-316.8" font-family="Times,serif" font-size="14.00">lon &lt;= &#45;78.395</text>
<text text-anchor="middle" x="1512" y="-301.8" font-family="Times,serif" font-size="14.00">class = blue</text>
</g>
<!-- 43&#45;&gt;57 -->
<g id="edge57" class="edge">
<title>43&#45;&gt;57</title>
<path fill="none" stroke="black" d="M1452.94,-367.83C1462.48,-359.13 1474.06,-348.58 1484.43,-339.13"/>
<polygon fill="black" stroke="black" points="1487.04,-341.49 1492.07,-332.16 1482.32,-336.31 1487.04,-341.49"/>
</g>
<!-- 45 -->
<g id="node46" class="node">
<title>45</title>
<polygon fill="none" stroke="black" points="1265.5,-258 1172.5,-258 1172.5,-220 1265.5,-220 1265.5,-258"/>
<text text-anchor="middle" x="1219" y="-242.8" font-family="Times,serif" font-size="14.00">lon &lt;= &#45;90.12</text>
<text text-anchor="middle" x="1219" y="-227.8" font-family="Times,serif" font-size="14.00">class = blue</text>
</g>
<!-- 44&#45;&gt;45 -->
<g id="edge45" class="edge">
<title>44&#45;&gt;45</title>
<path fill="none" stroke="black" d="M1323.67,-293.83C1305.35,-284.41 1282.79,-272.81 1263.31,-262.79"/>
<polygon fill="black" stroke="black" points="1264.81,-259.62 1254.32,-258.16 1261.61,-265.85 1264.81,-259.62"/>
</g>
<!-- 52 -->
<g id="node53" class="node">
<title>52</title>
<polygon fill="none" stroke="black" points="1405,-258 1313,-258 1313,-220 1405,-220 1405,-258"/>
<text text-anchor="middle" x="1359" y="-242.8" font-family="Times,serif" font-size="14.00">lat &lt;= 38.562</text>
<text text-anchor="middle" x="1359" y="-227.8" font-family="Times,serif" font-size="14.00">class = red</text>
</g>
<!-- 44&#45;&gt;52 -->
<g id="edge52" class="edge">
<title>44&#45;&gt;52</title>
<path fill="none" stroke="black" d="M1359,-293.83C1359,-286.13 1359,-276.97 1359,-268.42"/>
<polygon fill="black" stroke="black" points="1362.5,-268.41 1359,-258.41 1355.5,-268.41 1362.5,-268.41"/>
</g>
<!-- 46 -->
<g id="node47" class="node">
<title>46</title>
<polygon fill="none" stroke="black" points="1153,-184 1053,-184 1053,-146 1153,-146 1153,-184"/>
<text text-anchor="middle" x="1103" y="-168.8" font-family="Times,serif" font-size="14.00">lon &lt;= &#45;90.841</text>
<text text-anchor="middle" x="1103" y="-153.8" font-family="Times,serif" font-size="14.00">class = red</text>
</g>
<!-- 45&#45;&gt;46 -->
<g id="edge46" class="edge">
<title>45&#45;&gt;46</title>
<path fill="none" stroke="black" d="M1189.73,-219.83C1174.89,-210.62 1156.7,-199.33 1140.81,-189.47"/>
<polygon fill="black" stroke="black" points="1142.6,-186.46 1132.26,-184.16 1138.91,-192.41 1142.6,-186.46"/>
</g>
<!-- 51 -->
<g id="node52" class="node">
<title>51</title>
<polygon fill="none" stroke="black" points="1253,-183 1171,-183 1171,-147 1253,-147 1253,-183"/>
<text text-anchor="middle" x="1212" y="-161.3" font-family="Times,serif" font-size="14.00">class = blue</text>
</g>
<!-- 45&#45;&gt;51 -->
<g id="edge51" class="edge">
<title>45&#45;&gt;51</title>
<path fill="none" stroke="black" d="M1217.23,-219.83C1216.46,-211.89 1215.54,-202.41 1214.69,-193.63"/>
<polygon fill="black" stroke="black" points="1218.14,-193.03 1213.69,-183.42 1211.18,-193.71 1218.14,-193.03"/>
</g>
<!-- 47 -->
<g id="node48" class="node">
<title>47</title>
<polygon fill="none" stroke="black" points="1092,-109 1016,-109 1016,-73 1092,-73 1092,-109"/>
<text text-anchor="middle" x="1054" y="-87.3" font-family="Times,serif" font-size="14.00">class = red</text>
</g>
<!-- 46&#45;&gt;47 -->
<g id="edge47" class="edge">
<title>46&#45;&gt;47</title>
<path fill="none" stroke="black" d="M1090.64,-145.83C1084.88,-137.37 1077.92,-127.15 1071.63,-117.9"/>
<polygon fill="black" stroke="black" points="1074.37,-115.72 1065.85,-109.42 1068.59,-119.65 1074.37,-115.72"/>
</g>
<!-- 48 -->
<g id="node49" class="node">
<title>48</title>
<polygon fill="none" stroke="black" points="1195.5,-110 1110.5,-110 1110.5,-72 1195.5,-72 1195.5,-110"/>
<text text-anchor="middle" x="1153" y="-94.8" font-family="Times,serif" font-size="14.00">lat &lt;= 38.85</text>
<text text-anchor="middle" x="1153" y="-79.8" font-family="Times,serif" font-size="14.00">class = blue</text>
</g>
<!-- 46&#45;&gt;48 -->
<g id="edge48" class="edge">
<title>46&#45;&gt;48</title>
<path fill="none" stroke="black" d="M1115.62,-145.83C1121.32,-137.62 1128.17,-127.76 1134.44,-118.73"/>
<polygon fill="black" stroke="black" points="1137.38,-120.62 1140.21,-110.41 1131.63,-116.63 1137.38,-120.62"/>
</g>
<!-- 49 -->
<g id="node50" class="node">
<title>49</title>
<polygon fill="none" stroke="black" points="1143,-36 1067,-36 1067,0 1143,0 1143,-36"/>
<text text-anchor="middle" x="1105" y="-14.3" font-family="Times,serif" font-size="14.00">class = red</text>
</g>
<!-- 48&#45;&gt;49 -->
<g id="edge49" class="edge">
<title>48&#45;&gt;49</title>
<path fill="none" stroke="black" d="M1140.64,-71.72C1135,-63.37 1128.22,-53.35 1122.1,-44.3"/>
<polygon fill="black" stroke="black" points="1125,-42.33 1116.5,-36 1119.2,-46.25 1125,-42.33"/>
</g>
<!-- 50 -->
<g id="node51" class="node">
<title>50</title>
<polygon fill="none" stroke="black" points="1243,-36 1161,-36 1161,0 1243,0 1243,-36"/>
<text text-anchor="middle" x="1202" y="-14.3" font-family="Times,serif" font-size="14.00">class = blue</text>
</g>
<!-- 48&#45;&gt;50 -->
<g id="edge50" class="edge">
<title>48&#45;&gt;50</title>
<path fill="none" stroke="black" d="M1165.62,-71.72C1171.38,-63.37 1178.29,-53.35 1184.54,-44.3"/>
<polygon fill="black" stroke="black" points="1187.47,-46.22 1190.27,-36 1181.7,-42.25 1187.47,-46.22"/>
</g>
<!-- 53 -->
<g id="node54" class="node">
<title>53</title>
<polygon fill="none" stroke="black" points="1363,-184 1271,-184 1271,-146 1363,-146 1363,-184"/>
<text text-anchor="middle" x="1317" y="-168.8" font-family="Times,serif" font-size="14.00">lat &lt;= 38.324</text>
<text text-anchor="middle" x="1317" y="-153.8" font-family="Times,serif" font-size="14.00">class = red</text>
</g>
<!-- 52&#45;&gt;53 -->
<g id="edge53" class="edge">
<title>52&#45;&gt;53</title>
<path fill="none" stroke="black" d="M1348.4,-219.83C1343.71,-211.79 1338.1,-202.17 1332.92,-193.29"/>
<polygon fill="black" stroke="black" points="1335.8,-191.29 1327.74,-184.41 1329.76,-194.81 1335.8,-191.29"/>
</g>
<!-- 56 -->
<g id="node57" class="node">
<title>56</title>
<polygon fill="none" stroke="black" points="1457,-183 1381,-183 1381,-147 1457,-147 1457,-183"/>
<text text-anchor="middle" x="1419" y="-161.3" font-family="Times,serif" font-size="14.00">class = red</text>
</g>
<!-- 52&#45;&gt;56 -->
<g id="edge56" class="edge">
<title>52&#45;&gt;56</title>
<path fill="none" stroke="black" d="M1374.14,-219.83C1381.34,-211.2 1390.06,-200.73 1397.89,-191.33"/>
<polygon fill="black" stroke="black" points="1400.77,-193.34 1404.49,-183.42 1395.39,-188.86 1400.77,-193.34"/>
</g>
<!-- 54 -->
<g id="node55" class="node">
<title>54</title>
<polygon fill="none" stroke="black" points="1347,-109 1271,-109 1271,-73 1347,-73 1347,-109"/>
<text text-anchor="middle" x="1309" y="-87.3" font-family="Times,serif" font-size="14.00">class = red</text>
</g>
<!-- 53&#45;&gt;54 -->
<g id="edge54" class="edge">
<title>53&#45;&gt;54</title>
<path fill="none" stroke="black" d="M1314.98,-145.83C1314.1,-137.89 1313.05,-128.41 1312.07,-119.63"/>
<polygon fill="black" stroke="black" points="1315.52,-118.97 1310.94,-109.42 1308.56,-119.74 1315.52,-118.97"/>
</g>
<!-- 55 -->
<g id="node56" class="node">
<title>55</title>
<polygon fill="none" stroke="black" points="1447,-109 1365,-109 1365,-73 1447,-73 1447,-109"/>
<text text-anchor="middle" x="1406" y="-87.3" font-family="Times,serif" font-size="14.00">class = blue</text>
</g>
<!-- 53&#45;&gt;55 -->
<g id="edge55" class="edge">
<title>53&#45;&gt;55</title>
<path fill="none" stroke="black" d="M1339.46,-145.83C1350.76,-136.69 1364.59,-125.5 1376.71,-115.7"/>
<polygon fill="black" stroke="black" points="1379.2,-118.18 1384.77,-109.17 1374.8,-112.74 1379.2,-118.18"/>
</g>
<!-- 58 -->
<g id="node59" class="node">
<title>58</title>
<polygon fill="none" stroke="black" points="1562,-258 1462,-258 1462,-220 1562,-220 1562,-258"/>
<text text-anchor="middle" x="1512" y="-242.8" font-family="Times,serif" font-size="14.00">lon &lt;= &#45;78.878</text>
<text text-anchor="middle" x="1512" y="-227.8" font-family="Times,serif" font-size="14.00">class = blue</text>
</g>
<!-- 57&#45;&gt;58 -->
<g id="edge58" class="edge">
<title>57&#45;&gt;58</title>
<path fill="none" stroke="black" d="M1512,-293.83C1512,-286.13 1512,-276.97 1512,-268.42"/>
<polygon fill="black" stroke="black" points="1515.5,-268.41 1512,-258.41 1508.5,-268.41 1515.5,-268.41"/>
</g>
<!-- 61 -->
<g id="node62" class="node">
<title>61</title>
<polygon fill="none" stroke="black" points="1662,-257 1580,-257 1580,-221 1662,-221 1662,-257"/>
<text text-anchor="middle" x="1621" y="-235.3" font-family="Times,serif" font-size="14.00">class = blue</text>
</g>
<!-- 57&#45;&gt;61 -->
<g id="edge61" class="edge">
<title>57&#45;&gt;61</title>
<path fill="none" stroke="black" d="M1539.51,-293.83C1553.74,-284.43 1571.26,-272.86 1586.41,-262.85"/>
<polygon fill="black" stroke="black" points="1588.59,-265.6 1595,-257.17 1584.73,-259.76 1588.59,-265.6"/>
</g>
<!-- 59 -->
<g id="node60" class="node">
<title>59</title>
<polygon fill="none" stroke="black" points="1557,-183 1475,-183 1475,-147 1557,-147 1557,-183"/>
<text text-anchor="middle" x="1516" y="-161.3" font-family="Times,serif" font-size="14.00">class = blue</text>
</g>
<!-- 58&#45;&gt;59 -->
<g id="edge59" class="edge">
<title>58&#45;&gt;59</title>
<path fill="none" stroke="black" d="M1513.01,-219.83C1513.45,-211.89 1513.98,-202.41 1514.47,-193.63"/>
<polygon fill="black" stroke="black" points="1517.97,-193.6 1515.03,-183.42 1510.98,-193.21 1517.97,-193.6"/>
</g>
<!-- 60 -->
<g id="node61" class="node">
<title>60</title>
<polygon fill="none" stroke="black" points="1651,-183 1575,-183 1575,-147 1651,-147 1651,-183"/>
<text text-anchor="middle" x="1613" y="-161.3" font-family="Times,serif" font-size="14.00">class = red</text>
</g>
<!-- 58&#45;&gt;60 -->
<g id="edge60" class="edge">
<title>58&#45;&gt;60</title>
<path fill="none" stroke="black" d="M1537.49,-219.83C1550.55,-210.52 1566.61,-199.07 1580.55,-189.13"/>
<polygon fill="black" stroke="black" points="1582.8,-191.83 1588.91,-183.17 1578.74,-186.13 1582.8,-191.83"/>
</g>
<!-- 63 -->
<g id="node64" class="node">
<title>63</title>
<polygon fill="none" stroke="black" points="1776,-332 1684,-332 1684,-294 1776,-294 1776,-332"/>
<text text-anchor="middle" x="1730" y="-316.8" font-family="Times,serif" font-size="14.00">lat &lt;= 41.739</text>
<text text-anchor="middle" x="1730" y="-301.8" font-family="Times,serif" font-size="14.00">class = blue</text>
</g>
<!-- 62&#45;&gt;63 -->
<g id="edge63" class="edge">
<title>62&#45;&gt;63</title>
<path fill="none" stroke="black" d="M1730,-367.83C1730,-360.13 1730,-350.97 1730,-342.42"/>
<polygon fill="black" stroke="black" points="1733.5,-342.41 1730,-332.41 1726.5,-342.41 1733.5,-342.41"/>
</g>
<!-- 72 -->
<g id="node73" class="node">
<title>72</title>
<polygon fill="none" stroke="black" points="1876,-331 1794,-331 1794,-295 1876,-295 1876,-331"/>
<text text-anchor="middle" x="1835" y="-309.3" font-family="Times,serif" font-size="14.00">class = blue</text>
</g>
<!-- 62&#45;&gt;72 -->
<g id="edge72" class="edge">
<title>62&#45;&gt;72</title>
<path fill="none" stroke="black" d="M1756.5,-367.83C1770.21,-358.43 1787.09,-346.86 1801.67,-336.85"/>
<polygon fill="black" stroke="black" points="1803.69,-339.71 1809.96,-331.17 1799.73,-333.94 1803.69,-339.71"/>
</g>
<!-- 64 -->
<g id="node65" class="node">
<title>64</title>
<polygon fill="none" stroke="black" points="1780,-258 1680,-258 1680,-220 1780,-220 1780,-258"/>
<text text-anchor="middle" x="1730" y="-242.8" font-family="Times,serif" font-size="14.00">lon &lt;= &#45;87.697</text>
<text text-anchor="middle" x="1730" y="-227.8" font-family="Times,serif" font-size="14.00">class = blue</text>
</g>
<!-- 63&#45;&gt;64 -->
<g id="edge64" class="edge">
<title>63&#45;&gt;64</title>
<path fill="none" stroke="black" d="M1730,-293.83C1730,-286.13 1730,-276.97 1730,-268.42"/>
<polygon fill="black" stroke="black" points="1733.5,-268.41 1730,-258.41 1726.5,-268.41 1733.5,-268.41"/>
</g>
<!-- 71 -->
<g id="node72" class="node">
<title>71</title>
<polygon fill="none" stroke="black" points="1880,-257 1798,-257 1798,-221 1880,-221 1880,-257"/>
<text text-anchor="middle" x="1839" y="-235.3" font-family="Times,serif" font-size="14.00">class = blue</text>
</g>
<!-- 63&#45;&gt;71 -->
<g id="edge71" class="edge">
<title>63&#45;&gt;71</title>
<path fill="none" stroke="black" d="M1757.51,-293.83C1771.74,-284.43 1789.26,-272.86 1804.41,-262.85"/>
<polygon fill="black" stroke="black" points="1806.59,-265.6 1813,-257.17 1802.73,-259.76 1806.59,-265.6"/>
</g>
<!-- 65 -->
<g id="node66" class="node">
<title>65</title>
<polygon fill="none" stroke="black" points="1776,-184 1676,-184 1676,-146 1776,-146 1776,-184"/>
<text text-anchor="middle" x="1726" y="-168.8" font-family="Times,serif" font-size="14.00">lon &lt;= &#45;91.379</text>
<text text-anchor="middle" x="1726" y="-153.8" font-family="Times,serif" font-size="14.00">class = blue</text>
</g>
<!-- 64&#45;&gt;65 -->
<g id="edge65" class="edge">
<title>64&#45;&gt;65</title>
<path fill="none" stroke="black" d="M1728.99,-219.83C1728.56,-212.13 1728.05,-202.97 1727.58,-194.42"/>
<polygon fill="black" stroke="black" points="1731.07,-194.2 1727.02,-184.41 1724.08,-194.59 1731.07,-194.2"/>
</g>
<!-- 70 -->
<g id="node71" class="node">
<title>70</title>
<polygon fill="none" stroke="black" points="1870,-183 1794,-183 1794,-147 1870,-147 1870,-183"/>
<text text-anchor="middle" x="1832" y="-161.3" font-family="Times,serif" font-size="14.00">class = red</text>
</g>
<!-- 64&#45;&gt;70 -->
<g id="edge70" class="edge">
<title>64&#45;&gt;70</title>
<path fill="none" stroke="black" d="M1755.74,-219.83C1768.93,-210.52 1785.15,-199.07 1799.23,-189.13"/>
<polygon fill="black" stroke="black" points="1801.52,-191.8 1807.67,-183.17 1797.49,-186.08 1801.52,-191.8"/>
</g>
<!-- 66 -->
<g id="node67" class="node">
<title>66</title>
<polygon fill="none" stroke="black" points="1719,-110 1627,-110 1627,-72 1719,-72 1719,-110"/>
<text text-anchor="middle" x="1673" y="-94.8" font-family="Times,serif" font-size="14.00">lat &lt;= 40.775</text>
<text text-anchor="middle" x="1673" y="-79.8" font-family="Times,serif" font-size="14.00">class = red</text>
</g>
<!-- 65&#45;&gt;66 -->
<g id="edge66" class="edge">
<title>65&#45;&gt;66</title>
<path fill="none" stroke="black" d="M1712.63,-145.83C1706.58,-137.62 1699.32,-127.76 1692.68,-118.73"/>
<polygon fill="black" stroke="black" points="1695.3,-116.39 1686.55,-110.41 1689.66,-120.54 1695.3,-116.39"/>
</g>
<!-- 69 -->
<g id="node70" class="node">
<title>69</title>
<polygon fill="none" stroke="black" points="1819,-109 1737,-109 1737,-73 1819,-73 1819,-109"/>
<text text-anchor="middle" x="1778" y="-87.3" font-family="Times,serif" font-size="14.00">class = blue</text>
</g>
<!-- 65&#45;&gt;69 -->
<g id="edge69" class="edge">
<title>65&#45;&gt;69</title>
<path fill="none" stroke="black" d="M1739.12,-145.83C1745.3,-137.28 1752.76,-126.94 1759.5,-117.62"/>
<polygon fill="black" stroke="black" points="1762.4,-119.57 1765.42,-109.42 1756.73,-115.48 1762.4,-119.57"/>
</g>
<!-- 67 -->
<g id="node68" class="node">
<title>67</title>
<polygon fill="none" stroke="black" points="1662,-36 1586,-36 1586,0 1662,0 1662,-36"/>
<text text-anchor="middle" x="1624" y="-14.3" font-family="Times,serif" font-size="14.00">class = red</text>
</g>
<!-- 66&#45;&gt;67 -->
<g id="edge67" class="edge">
<title>66&#45;&gt;67</title>
<path fill="none" stroke="black" d="M1660.38,-71.72C1654.62,-63.37 1647.71,-53.35 1641.46,-44.3"/>
<polygon fill="black" stroke="black" points="1644.3,-42.25 1635.73,-36 1638.53,-46.22 1644.3,-42.25"/>
</g>
<!-- 68 -->
<g id="node69" class="node">
<title>68</title>
<polygon fill="none" stroke="black" points="1762,-36 1680,-36 1680,0 1762,0 1762,-36"/>
<text text-anchor="middle" x="1721" y="-14.3" font-family="Times,serif" font-size="14.00">class = blue</text>
</g>
<!-- 66&#45;&gt;68 -->
<g id="edge68" class="edge">
<title>66&#45;&gt;68</title>
<path fill="none" stroke="black" d="M1685.36,-71.72C1691,-63.37 1697.78,-53.35 1703.9,-44.3"/>
<polygon fill="black" stroke="black" points="1706.8,-46.25 1709.5,-36 1701,-42.33 1706.8,-46.25"/>
</g>
</g>
</svg>
