<?xml version="1.0" encoding="UTF-8" standalone="no"?>
<!DOCTYPE svg PUBLIC "-//W3C//DTD SVG 1.1//EN"
 "http://www.w3.org/Graphics/SVG/1.1/DTD/svg11.dtd">
<!-- Generated by graphviz version 2.44.1 (20200629.0846)
 -->
<!-- Title: Tree Pages: 1 -->
<svg width="1142pt" height="932pt"
 viewBox="0.00 0.00 1141.50 932.00" xmlns="http://www.w3.org/2000/svg" xmlns:xlink="http://www.w3.org/1999/xlink">
<g id="graph0" class="graph" transform="scale(1 1) rotate(0) translate(4 928)">
<title>Tree</title>
<polygon fill="white" stroke="transparent" points="-4,4 -4,-928 1137.5,-928 1137.5,4 -4,4"/>
<!-- 0 -->
<g id="node1" class="node">
<title>0</title>
<polygon fill="none" stroke="black" points="351.5,-924 246.5,-924 246.5,-886 351.5,-886 351.5,-924"/>
<text text-anchor="middle" x="299" y="-908.8" font-family="Times,serif" font-size="14.00">latitude &lt;= 42.9</text>
<text text-anchor="middle" x="299" y="-893.8" font-family="Times,serif" font-size="14.00">class = Canada</text>
</g>
<!-- 1 -->
<g id="node2" class="node">
<title>1</title>
<polygon fill="none" stroke="black" points="290.5,-850 171.5,-850 171.5,-812 290.5,-812 290.5,-850"/>
<text text-anchor="middle" x="231" y="-834.8" font-family="Times,serif" font-size="14.00">latitude &lt;= 42.096</text>
<text text-anchor="middle" x="231" y="-819.8" font-family="Times,serif" font-size="14.00">class = USA</text>
</g>
<!-- 0&#45;&gt;1 -->
<g id="edge1" class="edge">
<title>0&#45;&gt;1</title>
<path fill="none" stroke="black" d="M281.84,-885.83C273.85,-877.37 264.2,-867.15 255.46,-857.9"/>
<polygon fill="black" stroke="black" points="257.8,-855.28 248.39,-850.41 252.71,-860.09 257.8,-855.28"/>
<text text-anchor="middle" x="247.68" y="-871.7" font-family="Times,serif" font-size="14.00">True</text>
</g>
<!-- 6 -->
<g id="node7" class="node">
<title>6</title>
<polygon fill="none" stroke="black" points="427.5,-850 308.5,-850 308.5,-812 427.5,-812 427.5,-850"/>
<text text-anchor="middle" x="368" y="-834.8" font-family="Times,serif" font-size="14.00">latitude &lt;= 55.958</text>
<text text-anchor="middle" x="368" y="-819.8" font-family="Times,serif" font-size="14.00">class = Canada</text>
</g>
<!-- 0&#45;&gt;6 -->
<g id="edge6" class="edge">
<title>0&#45;&gt;6</title>
<path fill="none" stroke="black" d="M316.41,-885.83C324.52,-877.37 334.32,-867.15 343.18,-857.9"/>
<polygon fill="black" stroke="black" points="345.96,-860.05 350.35,-850.41 340.91,-855.21 345.96,-860.05"/>
<text text-anchor="middle" x="350.89" y="-871.71" font-family="Times,serif" font-size="14.00">False</text>
</g>
<!-- 2 -->
<g id="node3" class="node">
<title>2</title>
<polygon fill="none" stroke="black" points="155,-775 69,-775 69,-739 155,-739 155,-775"/>
<text text-anchor="middle" x="112" y="-753.3" font-family="Times,serif" font-size="14.00">class = USA</text>
</g>
<!-- 1&#45;&gt;2 -->
<g id="edge2" class="edge">
<title>1&#45;&gt;2</title>
<path fill="none" stroke="black" d="M200.97,-811.83C185.29,-802.34 165.94,-790.64 149.31,-780.57"/>
<polygon fill="black" stroke="black" points="150.75,-777.35 140.38,-775.17 147.12,-783.34 150.75,-777.35"/>
</g>
<!-- 3 -->
<g id="node4" class="node">
<title>3</title>
<polygon fill="none" stroke="black" points="292.5,-776 173.5,-776 173.5,-738 292.5,-738 292.5,-776"/>
<text text-anchor="middle" x="233" y="-760.8" font-family="Times,serif" font-size="14.00">latitude &lt;= 42.324</text>
<text text-anchor="middle" x="233" y="-745.8" font-family="Times,serif" font-size="14.00">class = USA</text>
</g>
<!-- 1&#45;&gt;3 -->
<g id="edge3" class="edge">
<title>1&#45;&gt;3</title>
<path fill="none" stroke="black" d="M231.5,-811.83C231.72,-804.13 231.97,-794.97 232.21,-786.42"/>
<polygon fill="black" stroke="black" points="235.71,-786.51 232.49,-776.41 228.71,-786.31 235.71,-786.51"/>
</g>
<!-- 4 -->
<g id="node5" class="node">
<title>4</title>
<polygon fill="none" stroke="black" points="172.5,-701 73.5,-701 73.5,-665 172.5,-665 172.5,-701"/>
<text text-anchor="middle" x="123" y="-679.3" font-family="Times,serif" font-size="14.00">class = Canada</text>
</g>
<!-- 3&#45;&gt;4 -->
<g id="edge4" class="edge">
<title>3&#45;&gt;4</title>
<path fill="none" stroke="black" d="M205.24,-737.83C190.88,-728.43 173.2,-716.86 157.91,-706.85"/>
<polygon fill="black" stroke="black" points="159.52,-703.72 149.23,-701.17 155.68,-709.58 159.52,-703.72"/>
</g>
<!-- 5 -->
<g id="node6" class="node">
<title>5</title>
<polygon fill="none" stroke="black" points="277,-701 191,-701 191,-665 277,-665 277,-701"/>
<text text-anchor="middle" x="234" y="-679.3" font-family="Times,serif" font-size="14.00">class = USA</text>
</g>
<!-- 3&#45;&gt;5 -->
<g id="edge5" class="edge">
<title>3&#45;&gt;5</title>
<path fill="none" stroke="black" d="M233.25,-737.83C233.36,-729.89 233.49,-720.41 233.62,-711.63"/>
<polygon fill="black" stroke="black" points="237.12,-711.47 233.76,-701.42 230.12,-711.37 237.12,-711.47"/>
</g>
<!-- 7 -->
<g id="node8" class="node">
<title>7</title>
<polygon fill="none" stroke="black" points="419.5,-776 314.5,-776 314.5,-738 419.5,-738 419.5,-776"/>
<text text-anchor="middle" x="367" y="-760.8" font-family="Times,serif" font-size="14.00">latitude &lt;= 49.0</text>
<text text-anchor="middle" x="367" y="-745.8" font-family="Times,serif" font-size="14.00">class = Canada</text>
</g>
<!-- 6&#45;&gt;7 -->
<g id="edge7" class="edge">
<title>6&#45;&gt;7</title>
<path fill="none" stroke="black" d="M367.75,-811.83C367.64,-804.13 367.51,-794.97 367.39,-786.42"/>
<polygon fill="black" stroke="black" points="370.89,-786.36 367.26,-776.41 363.9,-786.46 370.89,-786.36"/>
</g>
<!-- 56 -->
<g id="node57" class="node">
<title>56</title>
<polygon fill="none" stroke="black" points="524,-775 438,-775 438,-739 524,-739 524,-775"/>
<text text-anchor="middle" x="481" y="-753.3" font-family="Times,serif" font-size="14.00">class = USA</text>
</g>
<!-- 6&#45;&gt;56 -->
<g id="edge56" class="edge">
<title>6&#45;&gt;56</title>
<path fill="none" stroke="black" d="M396.51,-811.83C411.41,-802.34 429.78,-790.64 445.58,-780.57"/>
<polygon fill="black" stroke="black" points="447.5,-783.5 454.05,-775.17 443.74,-777.59 447.5,-783.5"/>
</g>
<!-- 8 -->
<g id="node9" class="node">
<title>8</title>
<polygon fill="none" stroke="black" points="433,-702 299,-702 299,-664 433,-664 433,-702"/>
<text text-anchor="middle" x="366" y="-686.8" font-family="Times,serif" font-size="14.00">longitude &lt;= &#45;94.582</text>
<text text-anchor="middle" x="366" y="-671.8" font-family="Times,serif" font-size="14.00">class = Canada</text>
</g>
<!-- 7&#45;&gt;8 -->
<g id="edge8" class="edge">
<title>7&#45;&gt;8</title>
<path fill="none" stroke="black" d="M366.75,-737.83C366.64,-730.13 366.51,-720.97 366.39,-712.42"/>
<polygon fill="black" stroke="black" points="369.89,-712.36 366.26,-702.41 362.9,-712.46 369.89,-712.36"/>
</g>
<!-- 55 -->
<g id="node56" class="node">
<title>55</title>
<polygon fill="none" stroke="black" points="550.5,-701 451.5,-701 451.5,-665 550.5,-665 550.5,-701"/>
<text text-anchor="middle" x="501" y="-679.3" font-family="Times,serif" font-size="14.00">class = Canada</text>
</g>
<!-- 7&#45;&gt;55 -->
<g id="edge55" class="edge">
<title>7&#45;&gt;55</title>
<path fill="none" stroke="black" d="M400.81,-737.83C418.8,-728.17 441.06,-716.2 460.03,-706.01"/>
<polygon fill="black" stroke="black" points="461.89,-708.99 469.04,-701.17 458.58,-702.82 461.89,-708.99"/>
</g>
<!-- 9 -->
<g id="node10" class="node">
<title>9</title>
<polygon fill="none" stroke="black" points="359,-628 219,-628 219,-590 359,-590 359,-628"/>
<text text-anchor="middle" x="289" y="-612.8" font-family="Times,serif" font-size="14.00">longitude &lt;= &#45;123.222</text>
<text text-anchor="middle" x="289" y="-597.8" font-family="Times,serif" font-size="14.00">class = USA</text>
</g>
<!-- 8&#45;&gt;9 -->
<g id="edge9" class="edge">
<title>8&#45;&gt;9</title>
<path fill="none" stroke="black" d="M346.57,-663.83C337.27,-655.13 325.98,-644.58 315.87,-635.13"/>
<polygon fill="black" stroke="black" points="318.12,-632.44 308.42,-628.16 313.34,-637.55 318.12,-632.44"/>
</g>
<!-- 12 -->
<g id="node13" class="node">
<title>12</title>
<polygon fill="none" stroke="black" points="511,-628 377,-628 377,-590 511,-590 511,-628"/>
<text text-anchor="middle" x="444" y="-612.8" font-family="Times,serif" font-size="14.00">longitude &lt;= &#45;69.246</text>
<text text-anchor="middle" x="444" y="-597.8" font-family="Times,serif" font-size="14.00">class = Canada</text>
</g>
<!-- 8&#45;&gt;12 -->
<g id="edge12" class="edge">
<title>8&#45;&gt;12</title>
<path fill="none" stroke="black" d="M385.68,-663.83C395.11,-655.13 406.54,-644.58 416.78,-635.13"/>
<polygon fill="black" stroke="black" points="419.35,-637.52 424.32,-628.16 414.6,-632.37 419.35,-637.52"/>
</g>
<!-- 10 -->
<g id="node11" class="node">
<title>10</title>
<polygon fill="none" stroke="black" points="236.5,-553 137.5,-553 137.5,-517 236.5,-517 236.5,-553"/>
<text text-anchor="middle" x="187" y="-531.3" font-family="Times,serif" font-size="14.00">class = Canada</text>
</g>
<!-- 9&#45;&gt;10 -->
<g id="edge10" class="edge">
<title>9&#45;&gt;10</title>
<path fill="none" stroke="black" d="M263.26,-589.83C250.07,-580.52 233.85,-569.07 219.77,-559.13"/>
<polygon fill="black" stroke="black" points="221.51,-556.08 211.33,-553.17 217.48,-561.8 221.51,-556.08"/>
</g>
<!-- 11 -->
<g id="node12" class="node">
<title>11</title>
<polygon fill="none" stroke="black" points="341,-553 255,-553 255,-517 341,-517 341,-553"/>
<text text-anchor="middle" x="298" y="-531.3" font-family="Times,serif" font-size="14.00">class = USA</text>
</g>
<!-- 9&#45;&gt;11 -->
<g id="edge11" class="edge">
<title>9&#45;&gt;11</title>
<path fill="none" stroke="black" d="M291.27,-589.83C292.26,-581.89 293.45,-572.41 294.55,-563.63"/>
<polygon fill="black" stroke="black" points="298.06,-563.77 295.82,-553.42 291.11,-562.91 298.06,-563.77"/>
</g>
<!-- 13 -->
<g id="node14" class="node">
<title>13</title>
<polygon fill="none" stroke="black" points="495.5,-554 376.5,-554 376.5,-516 495.5,-516 495.5,-554"/>
<text text-anchor="middle" x="436" y="-538.8" font-family="Times,serif" font-size="14.00">latitude &lt;= 43.093</text>
<text text-anchor="middle" x="436" y="-523.8" font-family="Times,serif" font-size="14.00">class = Canada</text>
</g>
<!-- 12&#45;&gt;13 -->
<g id="edge13" class="edge">
<title>12&#45;&gt;13</title>
<path fill="none" stroke="black" d="M441.98,-589.83C441.13,-582.13 440.11,-572.97 439.16,-564.42"/>
<polygon fill="black" stroke="black" points="442.63,-563.97 438.05,-554.41 435.67,-564.74 442.63,-563.97"/>
</g>
<!-- 36 -->
<g id="node37" class="node">
<title>36</title>
<polygon fill="none" stroke="black" points="815,-554 681,-554 681,-516 815,-516 815,-554"/>
<text text-anchor="middle" x="748" y="-538.8" font-family="Times,serif" font-size="14.00">longitude &lt;= &#45;66.952</text>
<text text-anchor="middle" x="748" y="-523.8" font-family="Times,serif" font-size="14.00">class = Canada</text>
</g>
<!-- 12&#45;&gt;36 -->
<g id="edge36" class="edge">
<title>12&#45;&gt;36</title>
<path fill="none" stroke="black" d="M511.09,-592.11C558.28,-580.93 621.56,-565.95 670.84,-554.27"/>
<polygon fill="black" stroke="black" points="671.89,-557.62 680.82,-551.91 670.28,-550.81 671.89,-557.62"/>
</g>
<!-- 14 -->
<g id="node15" class="node">
<title>14</title>
<polygon fill="none" stroke="black" points="231,-480 97,-480 97,-442 231,-442 231,-480"/>
<text text-anchor="middle" x="164" y="-464.8" font-family="Times,serif" font-size="14.00">longitude &lt;= &#45;81.845</text>
<text text-anchor="middle" x="164" y="-449.8" font-family="Times,serif" font-size="14.00">class = Canada</text>
</g>
<!-- 13&#45;&gt;14 -->
<g id="edge14" class="edge">
<title>13&#45;&gt;14</title>
<path fill="none" stroke="black" d="M376.31,-518.2C336.56,-507.68 283.94,-493.75 241.04,-482.39"/>
<polygon fill="black" stroke="black" points="241.76,-478.96 231.2,-479.79 239.97,-485.73 241.76,-478.96"/>
</g>
<!-- 19 -->
<g id="node20" class="node">
<title>19</title>
<polygon fill="none" stroke="black" points="495.5,-480 376.5,-480 376.5,-442 495.5,-442 495.5,-480"/>
<text text-anchor="middle" x="436" y="-464.8" font-family="Times,serif" font-size="14.00">latitude &lt;= 44.992</text>
<text text-anchor="middle" x="436" y="-449.8" font-family="Times,serif" font-size="14.00">class = Canada</text>
</g>
<!-- 13&#45;&gt;19 -->
<g id="edge19" class="edge">
<title>13&#45;&gt;19</title>
<path fill="none" stroke="black" d="M436,-515.83C436,-508.13 436,-498.97 436,-490.42"/>
<polygon fill="black" stroke="black" points="439.5,-490.41 436,-480.41 432.5,-490.41 439.5,-490.41"/>
</g>
<!-- 15 -->
<g id="node16" class="node">
<title>15</title>
<polygon fill="none" stroke="black" points="86,-405 0,-405 0,-369 86,-369 86,-405"/>
<text text-anchor="middle" x="43" y="-383.3" font-family="Times,serif" font-size="14.00">class = USA</text>
</g>
<!-- 14&#45;&gt;15 -->
<g id="edge15" class="edge">
<title>14&#45;&gt;15</title>
<path fill="none" stroke="black" d="M133.47,-441.83C117.37,-432.25 97.49,-420.42 80.46,-410.29"/>
<polygon fill="black" stroke="black" points="82.24,-407.28 71.86,-405.17 78.66,-413.29 82.24,-407.28"/>
</g>
<!-- 16 -->
<g id="node17" class="node">
<title>16</title>
<polygon fill="none" stroke="black" points="223.5,-406 104.5,-406 104.5,-368 223.5,-368 223.5,-406"/>
<text text-anchor="middle" x="164" y="-390.8" font-family="Times,serif" font-size="14.00">latitude &lt;= 43.039</text>
<text text-anchor="middle" x="164" y="-375.8" font-family="Times,serif" font-size="14.00">class = Canada</text>
</g>
<!-- 14&#45;&gt;16 -->
<g id="edge16" class="edge">
<title>14&#45;&gt;16</title>
<path fill="none" stroke="black" d="M164,-441.83C164,-434.13 164,-424.97 164,-416.42"/>
<polygon fill="black" stroke="black" points="167.5,-416.41 164,-406.41 160.5,-416.41 167.5,-416.41"/>
</g>
<!-- 17 -->
<g id="node18" class="node">
<title>17</title>
<polygon fill="none" stroke="black" points="102.5,-331 3.5,-331 3.5,-295 102.5,-295 102.5,-331"/>
<text text-anchor="middle" x="53" y="-309.3" font-family="Times,serif" font-size="14.00">class = Canada</text>
</g>
<!-- 16&#45;&gt;17 -->
<g id="edge17" class="edge">
<title>16&#45;&gt;17</title>
<path fill="none" stroke="black" d="M135.99,-367.83C121.49,-358.43 103.65,-346.86 88.23,-336.85"/>
<polygon fill="black" stroke="black" points="89.77,-333.68 79.47,-331.17 85.96,-339.55 89.77,-333.68"/>
</g>
<!-- 18 -->
<g id="node19" class="node">
<title>18</title>
<polygon fill="none" stroke="black" points="207,-331 121,-331 121,-295 207,-295 207,-331"/>
<text text-anchor="middle" x="164" y="-309.3" font-family="Times,serif" font-size="14.00">class = USA</text>
</g>
<!-- 16&#45;&gt;18 -->
<g id="edge18" class="edge">
<title>16&#45;&gt;18</title>
<path fill="none" stroke="black" d="M164,-367.83C164,-359.89 164,-350.41 164,-341.63"/>
<polygon fill="black" stroke="black" points="167.5,-341.42 164,-331.42 160.5,-341.42 167.5,-341.42"/>
</g>
<!-- 20 -->
<g id="node21" class="node">
<title>20</title>
<polygon fill="none" stroke="black" points="427.5,-406 308.5,-406 308.5,-368 427.5,-368 427.5,-406"/>
<text text-anchor="middle" x="368" y="-390.8" font-family="Times,serif" font-size="14.00">latitude &lt;= 44.542</text>
<text text-anchor="middle" x="368" y="-375.8" font-family="Times,serif" font-size="14.00">class = Canada</text>
</g>
<!-- 19&#45;&gt;20 -->
<g id="edge20" class="edge">
<title>19&#45;&gt;20</title>
<path fill="none" stroke="black" d="M418.84,-441.83C410.85,-433.37 401.2,-423.15 392.46,-413.9"/>
<polygon fill="black" stroke="black" points="394.8,-411.28 385.39,-406.41 389.71,-416.09 394.8,-411.28"/>
</g>
<!-- 35 -->
<g id="node36" class="node">
<title>35</title>
<polygon fill="none" stroke="black" points="544.5,-405 445.5,-405 445.5,-369 544.5,-369 544.5,-405"/>
<text text-anchor="middle" x="495" y="-383.3" font-family="Times,serif" font-size="14.00">class = Canada</text>
</g>
<!-- 19&#45;&gt;35 -->
<g id="edge35" class="edge">
<title>19&#45;&gt;35</title>
<path fill="none" stroke="black" d="M450.89,-441.83C457.96,-433.2 466.54,-422.73 474.24,-413.33"/>
<polygon fill="black" stroke="black" points="477.1,-415.37 480.73,-405.42 471.68,-410.93 477.1,-415.37"/>
</g>
<!-- 21 -->
<g id="node22" class="node">
<title>21</title>
<polygon fill="none" stroke="black" points="359,-332 225,-332 225,-294 359,-294 359,-332"/>
<text text-anchor="middle" x="292" y="-316.8" font-family="Times,serif" font-size="14.00">longitude &lt;= &#45;79.076</text>
<text text-anchor="middle" x="292" y="-301.8" font-family="Times,serif" font-size="14.00">class = Canada</text>
</g>
<!-- 20&#45;&gt;21 -->
<g id="edge21" class="edge">
<title>20&#45;&gt;21</title>
<path fill="none" stroke="black" d="M348.82,-367.83C339.64,-359.13 328.5,-348.58 318.52,-339.13"/>
<polygon fill="black" stroke="black" points="320.84,-336.5 311.17,-332.16 316.02,-341.58 320.84,-336.5"/>
</g>
<!-- 30 -->
<g id="node31" class="node">
<title>30</title>
<polygon fill="none" stroke="black" points="496.5,-332 377.5,-332 377.5,-294 496.5,-294 496.5,-332"/>
<text text-anchor="middle" x="437" y="-316.8" font-family="Times,serif" font-size="14.00">latitude &lt;= 44.706</text>
<text text-anchor="middle" x="437" y="-301.8" font-family="Times,serif" font-size="14.00">class = USA</text>
</g>
<!-- 20&#45;&gt;30 -->
<g id="edge30" class="edge">
<title>20&#45;&gt;30</title>
<path fill="none" stroke="black" d="M385.41,-367.83C393.52,-359.37 403.32,-349.15 412.18,-339.9"/>
<polygon fill="black" stroke="black" points="414.96,-342.05 419.35,-332.41 409.91,-337.21 414.96,-342.05"/>
</g>
<!-- 22 -->
<g id="node23" class="node">
<title>22</title>
<polygon fill="none" stroke="black" points="214.5,-257 115.5,-257 115.5,-221 214.5,-221 214.5,-257"/>
<text text-anchor="middle" x="165" y="-235.3" font-family="Times,serif" font-size="14.00">class = Canada</text>
</g>
<!-- 21&#45;&gt;22 -->
<g id="edge22" class="edge">
<title>21&#45;&gt;22</title>
<path fill="none" stroke="black" d="M259.95,-293.83C243.06,-284.25 222.19,-272.42 204.32,-262.29"/>
<polygon fill="black" stroke="black" points="205.71,-259.06 195.29,-257.17 202.26,-265.15 205.71,-259.06"/>
</g>
<!-- 23 -->
<g id="node24" class="node">
<title>23</title>
<polygon fill="none" stroke="black" points="351.5,-258 232.5,-258 232.5,-220 351.5,-220 351.5,-258"/>
<text text-anchor="middle" x="292" y="-242.8" font-family="Times,serif" font-size="14.00">latitude &lt;= 44.168</text>
<text text-anchor="middle" x="292" y="-227.8" font-family="Times,serif" font-size="14.00">class = Canada</text>
</g>
<!-- 21&#45;&gt;23 -->
<g id="edge23" class="edge">
<title>21&#45;&gt;23</title>
<path fill="none" stroke="black" d="M292,-293.83C292,-286.13 292,-276.97 292,-268.42"/>
<polygon fill="black" stroke="black" points="295.5,-268.41 292,-258.41 288.5,-268.41 295.5,-268.41"/>
</g>
<!-- 24 -->
<g id="node25" class="node">
<title>24</title>
<polygon fill="none" stroke="black" points="237.5,-184 118.5,-184 118.5,-146 237.5,-146 237.5,-184"/>
<text text-anchor="middle" x="178" y="-168.8" font-family="Times,serif" font-size="14.00">latitude &lt;= 43.511</text>
<text text-anchor="middle" x="178" y="-153.8" font-family="Times,serif" font-size="14.00">class = USA</text>
</g>
<!-- 23&#45;&gt;24 -->
<g id="edge24" class="edge">
<title>23&#45;&gt;24</title>
<path fill="none" stroke="black" d="M263.23,-219.83C248.79,-210.71 231.1,-199.54 215.6,-189.74"/>
<polygon fill="black" stroke="black" points="217.08,-186.54 206.76,-184.16 213.34,-192.46 217.08,-186.54"/>
</g>
<!-- 29 -->
<g id="node30" class="node">
<title>29</title>
<polygon fill="none" stroke="black" points="354.5,-183 255.5,-183 255.5,-147 354.5,-147 354.5,-183"/>
<text text-anchor="middle" x="305" y="-161.3" font-family="Times,serif" font-size="14.00">class = Canada</text>
</g>
<!-- 23&#45;&gt;29 -->
<g id="edge29" class="edge">
<title>23&#45;&gt;29</title>
<path fill="none" stroke="black" d="M295.28,-219.83C296.73,-211.81 298.46,-202.2 300.06,-193.34"/>
<polygon fill="black" stroke="black" points="303.52,-193.88 301.86,-183.42 296.63,-192.64 303.52,-193.88"/>
</g>
<!-- 25 -->
<g id="node26" class="node">
<title>25</title>
<polygon fill="none" stroke="black" points="161,-109 75,-109 75,-73 161,-73 161,-109"/>
<text text-anchor="middle" x="118" y="-87.3" font-family="Times,serif" font-size="14.00">class = USA</text>
</g>
<!-- 24&#45;&gt;25 -->
<g id="edge25" class="edge">
<title>24&#45;&gt;25</title>
<path fill="none" stroke="black" d="M162.86,-145.83C155.66,-137.2 146.94,-126.73 139.11,-117.33"/>
<polygon fill="black" stroke="black" points="141.61,-114.86 132.51,-109.42 136.23,-119.34 141.61,-114.86"/>
</g>
<!-- 26 -->
<g id="node27" class="node">
<title>26</title>
<polygon fill="none" stroke="black" points="298.5,-110 179.5,-110 179.5,-72 298.5,-72 298.5,-110"/>
<text text-anchor="middle" x="239" y="-94.8" font-family="Times,serif" font-size="14.00">latitude &lt;= 43.988</text>
<text text-anchor="middle" x="239" y="-79.8" font-family="Times,serif" font-size="14.00">class = Canada</text>
</g>
<!-- 24&#45;&gt;26 -->
<g id="edge26" class="edge">
<title>24&#45;&gt;26</title>
<path fill="none" stroke="black" d="M193.39,-145.83C200.49,-137.45 209.05,-127.35 216.82,-118.17"/>
<polygon fill="black" stroke="black" points="219.61,-120.31 223.4,-110.41 214.27,-115.78 219.61,-120.31"/>
</g>
<!-- 27 -->
<g id="node28" class="node">
<title>27</title>
<polygon fill="none" stroke="black" points="232.5,-36 133.5,-36 133.5,0 232.5,0 232.5,-36"/>
<text text-anchor="middle" x="183" y="-14.3" font-family="Times,serif" font-size="14.00">class = Canada</text>
</g>
<!-- 26&#45;&gt;27 -->
<g id="edge27" class="edge">
<title>26&#45;&gt;27</title>
<path fill="none" stroke="black" d="M224.58,-71.72C217.93,-63.29 209.93,-53.15 202.73,-44.02"/>
<polygon fill="black" stroke="black" points="205.35,-41.69 196.41,-36 199.86,-46.02 205.35,-41.69"/>
</g>
<!-- 28 -->
<g id="node29" class="node">
<title>28</title>
<polygon fill="none" stroke="black" points="337,-36 251,-36 251,0 337,0 337,-36"/>
<text text-anchor="middle" x="294" y="-14.3" font-family="Times,serif" font-size="14.00">class = USA</text>
</g>
<!-- 26&#45;&gt;28 -->
<g id="edge28" class="edge">
<title>26&#45;&gt;28</title>
<path fill="none" stroke="black" d="M253.16,-71.72C259.69,-63.29 267.55,-53.15 274.62,-44.02"/>
<polygon fill="black" stroke="black" points="277.47,-46.05 280.83,-36 271.94,-41.77 277.47,-46.05"/>
</g>
<!-- 31 -->
<g id="node32" class="node">
<title>31</title>
<polygon fill="none" stroke="black" points="456,-257 370,-257 370,-221 456,-221 456,-257"/>
<text text-anchor="middle" x="413" y="-235.3" font-family="Times,serif" font-size="14.00">class = USA</text>
</g>
<!-- 30&#45;&gt;31 -->
<g id="edge31" class="edge">
<title>30&#45;&gt;31</title>
<path fill="none" stroke="black" d="M430.94,-293.83C428.24,-285.72 425,-275.99 422.02,-267.05"/>
<polygon fill="black" stroke="black" points="425.29,-265.8 418.81,-257.42 418.65,-268.01 425.29,-265.8"/>
</g>
<!-- 32 -->
<g id="node33" class="node">
<title>32</title>
<polygon fill="none" stroke="black" points="608,-258 474,-258 474,-220 608,-220 608,-258"/>
<text text-anchor="middle" x="541" y="-242.8" font-family="Times,serif" font-size="14.00">longitude &lt;= &#45;84.392</text>
<text text-anchor="middle" x="541" y="-227.8" font-family="Times,serif" font-size="14.00">class = Canada</text>
</g>
<!-- 30&#45;&gt;32 -->
<g id="edge32" class="edge">
<title>30&#45;&gt;32</title>
<path fill="none" stroke="black" d="M463.24,-293.83C476.3,-284.79 492.25,-273.75 506.3,-264.02"/>
<polygon fill="black" stroke="black" points="508.54,-266.73 514.76,-258.16 504.55,-260.98 508.54,-266.73"/>
</g>
<!-- 33 -->
<g id="node34" class="node">
<title>33</title>
<polygon fill="none" stroke="black" points="482,-183 396,-183 396,-147 482,-147 482,-183"/>
<text text-anchor="middle" x="439" y="-161.3" font-family="Times,serif" font-size="14.00">class = USA</text>
</g>
<!-- 32&#45;&gt;33 -->
<g id="edge33" class="edge">
<title>32&#45;&gt;33</title>
<path fill="none" stroke="black" d="M515.26,-219.83C502.07,-210.52 485.85,-199.07 471.77,-189.13"/>
<polygon fill="black" stroke="black" points="473.51,-186.08 463.33,-183.17 469.48,-191.8 473.51,-186.08"/>
</g>
<!-- 34 -->
<g id="node35" class="node">
<title>34</title>
<polygon fill="none" stroke="black" points="599.5,-183 500.5,-183 500.5,-147 599.5,-147 599.5,-183"/>
<text text-anchor="middle" x="550" y="-161.3" font-family="Times,serif" font-size="14.00">class = Canada</text>
</g>
<!-- 32&#45;&gt;34 -->
<g id="edge34" class="edge">
<title>32&#45;&gt;34</title>
<path fill="none" stroke="black" d="M543.27,-219.83C544.26,-211.89 545.45,-202.41 546.55,-193.63"/>
<polygon fill="black" stroke="black" points="550.06,-193.77 547.82,-183.42 543.11,-192.91 550.06,-193.77"/>
</g>
<!-- 37 -->
<g id="node38" class="node">
<title>37</title>
<polygon fill="none" stroke="black" points="815,-480 681,-480 681,-442 815,-442 815,-480"/>
<text text-anchor="middle" x="748" y="-464.8" font-family="Times,serif" font-size="14.00">longitude &lt;= &#45;67.279</text>
<text text-anchor="middle" x="748" y="-449.8" font-family="Times,serif" font-size="14.00">class = USA</text>
</g>
<!-- 36&#45;&gt;37 -->
<g id="edge37" class="edge">
<title>36&#45;&gt;37</title>
<path fill="none" stroke="black" d="M748,-515.83C748,-508.13 748,-498.97 748,-490.42"/>
<polygon fill="black" stroke="black" points="751.5,-490.41 748,-480.41 744.5,-490.41 751.5,-490.41"/>
</g>
<!-- 54 -->
<g id="node55" class="node">
<title>54</title>
<polygon fill="none" stroke="black" points="932.5,-479 833.5,-479 833.5,-443 932.5,-443 932.5,-479"/>
<text text-anchor="middle" x="883" y="-457.3" font-family="Times,serif" font-size="14.00">class = Canada</text>
</g>
<!-- 36&#45;&gt;54 -->
<g id="edge54" class="edge">
<title>36&#45;&gt;54</title>
<path fill="none" stroke="black" d="M782.07,-515.83C800.19,-506.17 822.62,-494.2 841.72,-484.01"/>
<polygon fill="black" stroke="black" points="843.63,-486.97 850.8,-479.17 840.33,-480.79 843.63,-486.97"/>
</g>
<!-- 38 -->
<g id="node39" class="node">
<title>38</title>
<polygon fill="none" stroke="black" points="811.5,-406 684.5,-406 684.5,-368 811.5,-368 811.5,-406"/>
<text text-anchor="middle" x="748" y="-390.8" font-family="Times,serif" font-size="14.00">longitude &lt;= &#45;67.93</text>
<text text-anchor="middle" x="748" y="-375.8" font-family="Times,serif" font-size="14.00">class = Canada</text>
</g>
<!-- 37&#45;&gt;38 -->
<g id="edge38" class="edge">
<title>37&#45;&gt;38</title>
<path fill="none" stroke="black" d="M748,-441.83C748,-434.13 748,-424.97 748,-416.42"/>
<polygon fill="black" stroke="black" points="751.5,-416.41 748,-406.41 744.5,-416.41 751.5,-416.41"/>
</g>
<!-- 53 -->
<g id="node54" class="node">
<title>53</title>
<polygon fill="none" stroke="black" points="916,-405 830,-405 830,-369 916,-369 916,-405"/>
<text text-anchor="middle" x="873" y="-383.3" font-family="Times,serif" font-size="14.00">class = USA</text>
</g>
<!-- 37&#45;&gt;53 -->
<g id="edge53" class="edge">
<title>37&#45;&gt;53</title>
<path fill="none" stroke="black" d="M779.54,-441.83C796.17,-432.25 816.71,-420.42 834.3,-410.29"/>
<polygon fill="black" stroke="black" points="836.27,-413.2 843.19,-405.17 832.78,-407.13 836.27,-413.2"/>
</g>
<!-- 39 -->
<g id="node40" class="node">
<title>39</title>
<polygon fill="none" stroke="black" points="815,-332 681,-332 681,-294 815,-294 815,-332"/>
<text text-anchor="middle" x="748" y="-316.8" font-family="Times,serif" font-size="14.00">longitude &lt;= &#45;68.325</text>
<text text-anchor="middle" x="748" y="-301.8" font-family="Times,serif" font-size="14.00">class = USA</text>
</g>
<!-- 38&#45;&gt;39 -->
<g id="edge39" class="edge">
<title>38&#45;&gt;39</title>
<path fill="none" stroke="black" d="M748,-367.83C748,-360.13 748,-350.97 748,-342.42"/>
<polygon fill="black" stroke="black" points="751.5,-342.41 748,-332.41 744.5,-342.41 751.5,-342.41"/>
</g>
<!-- 48 -->
<g id="node49" class="node">
<title>48</title>
<polygon fill="none" stroke="black" points="1008.5,-332 889.5,-332 889.5,-294 1008.5,-294 1008.5,-332"/>
<text text-anchor="middle" x="949" y="-316.8" font-family="Times,serif" font-size="14.00">latitude &lt;= 45.565</text>
<text text-anchor="middle" x="949" y="-301.8" font-family="Times,serif" font-size="14.00">class = Canada</text>
</g>
<!-- 38&#45;&gt;48 -->
<g id="edge48" class="edge">
<title>38&#45;&gt;48</title>
<path fill="none" stroke="black" d="M798.46,-367.92C825.94,-358.08 860.12,-345.84 888.96,-335.51"/>
<polygon fill="black" stroke="black" points="890.28,-338.75 898.52,-332.08 887.92,-332.16 890.28,-338.75"/>
</g>
<!-- 40 -->
<g id="node41" class="node">
<title>40</title>
<polygon fill="none" stroke="black" points="760,-258 626,-258 626,-220 760,-220 760,-258"/>
<text text-anchor="middle" x="693" y="-242.8" font-family="Times,serif" font-size="14.00">longitude &lt;= &#45;68.915</text>
<text text-anchor="middle" x="693" y="-227.8" font-family="Times,serif" font-size="14.00">class = Canada</text>
</g>
<!-- 39&#45;&gt;40 -->
<g id="edge40" class="edge">
<title>39&#45;&gt;40</title>
<path fill="none" stroke="black" d="M734.12,-293.83C727.79,-285.54 720.16,-275.56 713.21,-266.45"/>
<polygon fill="black" stroke="black" points="715.92,-264.24 707.07,-258.41 710.35,-268.48 715.92,-264.24"/>
</g>
<!-- 47 -->
<g id="node48" class="node">
<title>47</title>
<polygon fill="none" stroke="black" points="864,-257 778,-257 778,-221 864,-221 864,-257"/>
<text text-anchor="middle" x="821" y="-235.3" font-family="Times,serif" font-size="14.00">class = USA</text>
</g>
<!-- 39&#45;&gt;47 -->
<g id="edge47" class="edge">
<title>39&#45;&gt;47</title>
<path fill="none" stroke="black" d="M766.42,-293.83C775.51,-284.87 786.6,-273.93 796.4,-264.26"/>
<polygon fill="black" stroke="black" points="798.93,-266.69 803.59,-257.17 794.01,-261.7 798.93,-266.69"/>
</g>
<!-- 41 -->
<g id="node42" class="node">
<title>41</title>
<polygon fill="none" stroke="black" points="724,-183 638,-183 638,-147 724,-147 724,-183"/>
<text text-anchor="middle" x="681" y="-161.3" font-family="Times,serif" font-size="14.00">class = USA</text>
</g>
<!-- 40&#45;&gt;41 -->
<g id="edge41" class="edge">
<title>40&#45;&gt;41</title>
<path fill="none" stroke="black" d="M689.97,-219.83C688.63,-211.81 687.03,-202.2 685.56,-193.34"/>
<polygon fill="black" stroke="black" points="689,-192.71 683.9,-183.42 682.09,-193.86 689,-192.71"/>
</g>
<!-- 42 -->
<g id="node43" class="node">
<title>42</title>
<polygon fill="none" stroke="black" points="861.5,-184 742.5,-184 742.5,-146 861.5,-146 861.5,-184"/>
<text text-anchor="middle" x="802" y="-168.8" font-family="Times,serif" font-size="14.00">latitude &lt;= 47.256</text>
<text text-anchor="middle" x="802" y="-153.8" font-family="Times,serif" font-size="14.00">class = Canada</text>
</g>
<!-- 40&#45;&gt;42 -->
<g id="edge42" class="edge">
<title>40&#45;&gt;42</title>
<path fill="none" stroke="black" d="M720.51,-219.83C734.32,-210.71 751.23,-199.54 766.05,-189.74"/>
<polygon fill="black" stroke="black" points="768.09,-192.59 774.5,-184.16 764.23,-186.75 768.09,-192.59"/>
</g>
<!-- 43 -->
<g id="node44" class="node">
<title>43</title>
<polygon fill="none" stroke="black" points="783.5,-109 684.5,-109 684.5,-73 783.5,-73 783.5,-109"/>
<text text-anchor="middle" x="734" y="-87.3" font-family="Times,serif" font-size="14.00">class = Canada</text>
</g>
<!-- 42&#45;&gt;43 -->
<g id="edge43" class="edge">
<title>42&#45;&gt;43</title>
<path fill="none" stroke="black" d="M784.84,-145.83C776.52,-137.02 766.4,-126.31 757.39,-116.76"/>
<polygon fill="black" stroke="black" points="759.86,-114.28 750.45,-109.42 754.77,-119.09 759.86,-114.28"/>
</g>
<!-- 44 -->
<g id="node45" class="node">
<title>44</title>
<polygon fill="none" stroke="black" points="936,-110 802,-110 802,-72 936,-72 936,-110"/>
<text text-anchor="middle" x="869" y="-94.8" font-family="Times,serif" font-size="14.00">longitude &lt;= &#45;68.459</text>
<text text-anchor="middle" x="869" y="-79.8" font-family="Times,serif" font-size="14.00">class = Canada</text>
</g>
<!-- 42&#45;&gt;44 -->
<g id="edge44" class="edge">
<title>42&#45;&gt;44</title>
<path fill="none" stroke="black" d="M818.91,-145.83C826.78,-137.37 836.29,-127.15 844.9,-117.9"/>
<polygon fill="black" stroke="black" points="847.62,-120.12 851.87,-110.41 842.49,-115.35 847.62,-120.12"/>
</g>
<!-- 45 -->
<g id="node46" class="node">
<title>45</title>
<polygon fill="none" stroke="black" points="856,-36 770,-36 770,0 856,0 856,-36"/>
<text text-anchor="middle" x="813" y="-14.3" font-family="Times,serif" font-size="14.00">class = USA</text>
</g>
<!-- 44&#45;&gt;45 -->
<g id="edge45" class="edge">
<title>44&#45;&gt;45</title>
<path fill="none" stroke="black" d="M854.58,-71.72C847.93,-63.29 839.93,-53.15 832.73,-44.02"/>
<polygon fill="black" stroke="black" points="835.35,-41.69 826.41,-36 829.86,-46.02 835.35,-41.69"/>
</g>
<!-- 46 -->
<g id="node47" class="node">
<title>46</title>
<polygon fill="none" stroke="black" points="973.5,-36 874.5,-36 874.5,0 973.5,0 973.5,-36"/>
<text text-anchor="middle" x="924" y="-14.3" font-family="Times,serif" font-size="14.00">class = Canada</text>
</g>
<!-- 44&#45;&gt;46 -->
<g id="edge46" class="edge">
<title>44&#45;&gt;46</title>
<path fill="none" stroke="black" d="M883.16,-71.72C889.69,-63.29 897.55,-53.15 904.62,-44.02"/>
<polygon fill="black" stroke="black" points="907.47,-46.05 910.83,-36 901.94,-41.77 907.47,-46.05"/>
</g>
<!-- 49 -->
<g id="node50" class="node">
<title>49</title>
<polygon fill="none" stroke="black" points="1016,-258 882,-258 882,-220 1016,-220 1016,-258"/>
<text text-anchor="middle" x="949" y="-242.8" font-family="Times,serif" font-size="14.00">longitude &lt;= &#45;67.355</text>
<text text-anchor="middle" x="949" y="-227.8" font-family="Times,serif" font-size="14.00">class = Canada</text>
</g>
<!-- 48&#45;&gt;49 -->
<g id="edge49" class="edge">
<title>48&#45;&gt;49</title>
<path fill="none" stroke="black" d="M949,-293.83C949,-286.13 949,-276.97 949,-268.42"/>
<polygon fill="black" stroke="black" points="952.5,-268.41 949,-258.41 945.5,-268.41 952.5,-268.41"/>
</g>
<!-- 52 -->
<g id="node53" class="node">
<title>52</title>
<polygon fill="none" stroke="black" points="1133.5,-257 1034.5,-257 1034.5,-221 1133.5,-221 1133.5,-257"/>
<text text-anchor="middle" x="1084" y="-235.3" font-family="Times,serif" font-size="14.00">class = Canada</text>
</g>
<!-- 48&#45;&gt;52 -->
<g id="edge52" class="edge">
<title>48&#45;&gt;52</title>
<path fill="none" stroke="black" d="M983.07,-293.83C1001.19,-284.17 1023.62,-272.2 1042.72,-262.01"/>
<polygon fill="black" stroke="black" points="1044.63,-264.97 1051.8,-257.17 1041.33,-258.79 1044.63,-264.97"/>
</g>
<!-- 50 -->
<g id="node51" class="node">
<title>50</title>
<polygon fill="none" stroke="black" points="983,-183 897,-183 897,-147 983,-147 983,-183"/>
<text text-anchor="middle" x="940" y="-161.3" font-family="Times,serif" font-size="14.00">class = USA</text>
</g>
<!-- 49&#45;&gt;50 -->
<g id="edge50" class="edge">
<title>49&#45;&gt;50</title>
<path fill="none" stroke="black" d="M946.73,-219.83C945.74,-211.89 944.55,-202.41 943.45,-193.63"/>
<polygon fill="black" stroke="black" points="946.89,-192.91 942.18,-183.42 939.94,-193.77 946.89,-192.91"/>
</g>
<!-- 51 -->
<g id="node52" class="node">
<title>51</title>
<polygon fill="none" stroke="black" points="1100.5,-183 1001.5,-183 1001.5,-147 1100.5,-147 1100.5,-183"/>
<text text-anchor="middle" x="1051" y="-161.3" font-family="Times,serif" font-size="14.00">class = Canada</text>
</g>
<!-- 49&#45;&gt;51 -->
<g id="edge51" class="edge">
<title>49&#45;&gt;51</title>
<path fill="none" stroke="black" d="M974.74,-219.83C987.93,-210.52 1004.15,-199.07 1018.23,-189.13"/>
<polygon fill="black" stroke="black" points="1020.52,-191.8 1026.67,-183.17 1016.49,-186.08 1020.52,-191.8"/>
</g>
</g>
</svg>
