<?xml version="1.0" encoding="UTF-8" standalone="no"?>
<!DOCTYPE svg PUBLIC "-//W3C//DTD SVG 1.1//EN"
 "http://www.w3.org/Graphics/SVG/1.1/DTD/svg11.dtd">
<!-- Generated by graphviz version 2.44.1 (20200629.0846)
 -->
<!-- Title: Tree Pages: 1 -->
<svg width="1891pt" height="636pt"
 viewBox="0.00 0.00 1891.00 636.00" xmlns="http://www.w3.org/2000/svg" xmlns:xlink="http://www.w3.org/1999/xlink">
<g id="graph0" class="graph" transform="scale(1 1) rotate(0) translate(4 632)">
<title>Tree</title>
<polygon fill="white" stroke="transparent" points="-4,4 -4,-632 1887,-632 1887,4 -4,4"/>
<!-- 0 -->
<g id="node1" class="node">
<title>0</title>
<polygon fill="none" stroke="black" points="601,-628 509,-628 509,-590 601,-590 601,-628"/>
<text text-anchor="middle" x="555" y="-612.8" font-family="Times,serif" font-size="14.00">lat &lt;= 37.682</text>
<text text-anchor="middle" x="555" y="-597.8" font-family="Times,serif" font-size="14.00">class = blue</text>
</g>
<!-- 1 -->
<g id="node2" class="node">
<title>1</title>
<polygon fill="none" stroke="black" points="363.5,-554 256.5,-554 256.5,-516 363.5,-516 363.5,-554"/>
<text text-anchor="middle" x="310" y="-538.8" font-family="Times,serif" font-size="14.00">lon &lt;= &#45;114.063</text>
<text text-anchor="middle" x="310" y="-523.8" font-family="Times,serif" font-size="14.00">class = red</text>
</g>
<!-- 0&#45;&gt;1 -->
<g id="edge1" class="edge">
<title>0&#45;&gt;1</title>
<path fill="none" stroke="black" d="M508.92,-594.46C470.6,-583.2 415.66,-567.05 373.23,-554.58"/>
<polygon fill="black" stroke="black" points="374.13,-551.2 363.55,-551.74 372.16,-557.92 374.13,-551.2"/>
<text text-anchor="middle" x="375.53" y="-569.98" font-family="Times,serif" font-size="14.00">True</text>
</g>
<!-- 24 -->
<g id="node25" class="node">
<title>24</title>
<polygon fill="none" stroke="black" points="915,-554 815,-554 815,-516 915,-516 915,-554"/>
<text text-anchor="middle" x="865" y="-538.8" font-family="Times,serif" font-size="14.00">lon &lt;= &#45;96.061</text>
<text text-anchor="middle" x="865" y="-523.8" font-family="Times,serif" font-size="14.00">class = blue</text>
</g>
<!-- 0&#45;&gt;24 -->
<g id="edge24" class="edge">
<title>0&#45;&gt;24</title>
<path fill="none" stroke="black" d="M601.08,-597.3C655.21,-584.73 745.17,-563.83 804.78,-549.99"/>
<polygon fill="black" stroke="black" points="805.86,-553.33 814.81,-547.66 804.28,-546.51 805.86,-553.33"/>
<text text-anchor="middle" x="801.59" y="-565.18" font-family="Times,serif" font-size="14.00">False</text>
</g>
<!-- 2 -->
<g id="node3" class="node">
<title>2</title>
<polygon fill="none" stroke="black" points="246,-479 164,-479 164,-443 246,-443 246,-479"/>
<text text-anchor="middle" x="205" y="-457.3" font-family="Times,serif" font-size="14.00">class = blue</text>
</g>
<!-- 1&#45;&gt;2 -->
<g id="edge2" class="edge">
<title>1&#45;&gt;2</title>
<path fill="none" stroke="black" d="M283.5,-515.83C269.79,-506.43 252.91,-494.86 238.33,-484.85"/>
<polygon fill="black" stroke="black" points="240.27,-481.94 230.04,-479.17 236.31,-487.71 240.27,-481.94"/>
</g>
<!-- 3 -->
<g id="node4" class="node">
<title>3</title>
<polygon fill="none" stroke="black" points="356,-480 264,-480 264,-442 356,-442 356,-480"/>
<text text-anchor="middle" x="310" y="-464.8" font-family="Times,serif" font-size="14.00">lat &lt;= 29.595</text>
<text text-anchor="middle" x="310" y="-449.8" font-family="Times,serif" font-size="14.00">class = red</text>
</g>
<!-- 1&#45;&gt;3 -->
<g id="edge3" class="edge">
<title>1&#45;&gt;3</title>
<path fill="none" stroke="black" d="M310,-515.83C310,-508.13 310,-498.97 310,-490.42"/>
<polygon fill="black" stroke="black" points="313.5,-490.41 310,-480.41 306.5,-490.41 313.5,-490.41"/>
</g>
<!-- 4 -->
<g id="node5" class="node">
<title>4</title>
<polygon fill="none" stroke="black" points="185,-406 85,-406 85,-368 185,-368 185,-406"/>
<text text-anchor="middle" x="135" y="-390.8" font-family="Times,serif" font-size="14.00">lon &lt;= &#45;90.074</text>
<text text-anchor="middle" x="135" y="-375.8" font-family="Times,serif" font-size="14.00">class = blue</text>
</g>
<!-- 3&#45;&gt;4 -->
<g id="edge4" class="edge">
<title>3&#45;&gt;4</title>
<path fill="none" stroke="black" d="M265.84,-441.83C242.23,-432.12 212.98,-420.08 188.13,-409.86"/>
<polygon fill="black" stroke="black" points="189.42,-406.61 178.84,-406.04 186.76,-413.08 189.42,-406.61"/>
</g>
<!-- 7 -->
<g id="node8" class="node">
<title>7</title>
<polygon fill="none" stroke="black" points="356,-406 264,-406 264,-368 356,-368 356,-406"/>
<text text-anchor="middle" x="310" y="-390.8" font-family="Times,serif" font-size="14.00">lat &lt;= 36.522</text>
<text text-anchor="middle" x="310" y="-375.8" font-family="Times,serif" font-size="14.00">class = red</text>
</g>
<!-- 3&#45;&gt;7 -->
<g id="edge7" class="edge">
<title>3&#45;&gt;7</title>
<path fill="none" stroke="black" d="M310,-441.83C310,-434.13 310,-424.97 310,-416.42"/>
<polygon fill="black" stroke="black" points="313.5,-416.41 310,-406.41 306.5,-416.41 313.5,-416.41"/>
</g>
<!-- 5 -->
<g id="node6" class="node">
<title>5</title>
<polygon fill="none" stroke="black" points="76,-331 0,-331 0,-295 76,-295 76,-331"/>
<text text-anchor="middle" x="38" y="-309.3" font-family="Times,serif" font-size="14.00">class = red</text>
</g>
<!-- 4&#45;&gt;5 -->
<g id="edge5" class="edge">
<title>4&#45;&gt;5</title>
<path fill="none" stroke="black" d="M110.52,-367.83C97.97,-358.52 82.55,-347.07 69.16,-337.13"/>
<polygon fill="black" stroke="black" points="71.25,-334.32 61.13,-331.17 67.08,-339.94 71.25,-334.32"/>
</g>
<!-- 6 -->
<g id="node7" class="node">
<title>6</title>
<polygon fill="none" stroke="black" points="176,-331 94,-331 94,-295 176,-295 176,-331"/>
<text text-anchor="middle" x="135" y="-309.3" font-family="Times,serif" font-size="14.00">class = blue</text>
</g>
<!-- 4&#45;&gt;6 -->
<g id="edge6" class="edge">
<title>4&#45;&gt;6</title>
<path fill="none" stroke="black" d="M135,-367.83C135,-359.89 135,-350.41 135,-341.63"/>
<polygon fill="black" stroke="black" points="138.5,-341.42 135,-331.42 131.5,-341.42 138.5,-341.42"/>
</g>
<!-- 8 -->
<g id="node9" class="node">
<title>8</title>
<polygon fill="none" stroke="black" points="301.5,-332 194.5,-332 194.5,-294 301.5,-294 301.5,-332"/>
<text text-anchor="middle" x="248" y="-316.8" font-family="Times,serif" font-size="14.00">lon &lt;= &#45;102.257</text>
<text text-anchor="middle" x="248" y="-301.8" font-family="Times,serif" font-size="14.00">class = red</text>
</g>
<!-- 7&#45;&gt;8 -->
<g id="edge8" class="edge">
<title>7&#45;&gt;8</title>
<path fill="none" stroke="black" d="M294.35,-367.83C287.14,-359.45 278.44,-349.35 270.54,-340.17"/>
<polygon fill="black" stroke="black" points="273.03,-337.71 263.86,-332.41 267.73,-342.27 273.03,-337.71"/>
</g>
<!-- 15 -->
<g id="node16" class="node">
<title>15</title>
<polygon fill="none" stroke="black" points="420,-332 320,-332 320,-294 420,-294 420,-332"/>
<text text-anchor="middle" x="370" y="-316.8" font-family="Times,serif" font-size="14.00">lon &lt;= &#45;82.415</text>
<text text-anchor="middle" x="370" y="-301.8" font-family="Times,serif" font-size="14.00">class = red</text>
</g>
<!-- 7&#45;&gt;15 -->
<g id="edge15" class="edge">
<title>7&#45;&gt;15</title>
<path fill="none" stroke="black" d="M325.14,-367.83C332.12,-359.45 340.54,-349.35 348.19,-340.17"/>
<polygon fill="black" stroke="black" points="350.94,-342.34 354.66,-332.41 345.56,-337.85 350.94,-342.34"/>
</g>
<!-- 9 -->
<g id="node10" class="node">
<title>9</title>
<polygon fill="none" stroke="black" points="191.5,-258 84.5,-258 84.5,-220 191.5,-220 191.5,-258"/>
<text text-anchor="middle" x="138" y="-242.8" font-family="Times,serif" font-size="14.00">lon &lt;= &#45;107.589</text>
<text text-anchor="middle" x="138" y="-227.8" font-family="Times,serif" font-size="14.00">class = red</text>
</g>
<!-- 8&#45;&gt;9 -->
<g id="edge9" class="edge">
<title>8&#45;&gt;9</title>
<path fill="none" stroke="black" d="M220.24,-293.83C206.3,-284.71 189.24,-273.54 174.28,-263.74"/>
<polygon fill="black" stroke="black" points="176.03,-260.71 165.75,-258.16 172.2,-266.57 176.03,-260.71"/>
</g>
<!-- 14 -->
<g id="node15" class="node">
<title>14</title>
<polygon fill="none" stroke="black" points="286,-257 210,-257 210,-221 286,-221 286,-257"/>
<text text-anchor="middle" x="248" y="-235.3" font-family="Times,serif" font-size="14.00">class = red</text>
</g>
<!-- 8&#45;&gt;14 -->
<g id="edge14" class="edge">
<title>8&#45;&gt;14</title>
<path fill="none" stroke="black" d="M248,-293.83C248,-285.89 248,-276.41 248,-267.63"/>
<polygon fill="black" stroke="black" points="251.5,-267.42 248,-257.42 244.5,-267.42 251.5,-267.42"/>
</g>
<!-- 10 -->
<g id="node11" class="node">
<title>10</title>
<polygon fill="none" stroke="black" points="86,-183 10,-183 10,-147 86,-147 86,-183"/>
<text text-anchor="middle" x="48" y="-161.3" font-family="Times,serif" font-size="14.00">class = red</text>
</g>
<!-- 9&#45;&gt;10 -->
<g id="edge10" class="edge">
<title>9&#45;&gt;10</title>
<path fill="none" stroke="black" d="M115.29,-219.83C103.87,-210.69 89.88,-199.5 77.62,-189.7"/>
<polygon fill="black" stroke="black" points="79.46,-186.69 69.46,-183.17 75.09,-192.15 79.46,-186.69"/>
</g>
<!-- 11 -->
<g id="node12" class="node">
<title>11</title>
<polygon fill="none" stroke="black" points="196,-184 104,-184 104,-146 196,-146 196,-184"/>
<text text-anchor="middle" x="150" y="-168.8" font-family="Times,serif" font-size="14.00">lat &lt;= 31.788</text>
<text text-anchor="middle" x="150" y="-153.8" font-family="Times,serif" font-size="14.00">class = blue</text>
</g>
<!-- 9&#45;&gt;11 -->
<g id="edge11" class="edge">
<title>9&#45;&gt;11</title>
<path fill="none" stroke="black" d="M141.03,-219.83C142.31,-212.13 143.84,-202.97 145.26,-194.42"/>
<polygon fill="black" stroke="black" points="148.74,-194.85 146.93,-184.41 141.83,-193.7 148.74,-194.85"/>
</g>
<!-- 12 -->
<g id="node13" class="node">
<title>12</title>
<polygon fill="none" stroke="black" points="140,-109 64,-109 64,-73 140,-73 140,-109"/>
<text text-anchor="middle" x="102" y="-87.3" font-family="Times,serif" font-size="14.00">class = red</text>
</g>
<!-- 11&#45;&gt;12 -->
<g id="edge12" class="edge">
<title>11&#45;&gt;12</title>
<path fill="none" stroke="black" d="M137.89,-145.83C132.25,-137.37 125.43,-127.15 119.27,-117.9"/>
<polygon fill="black" stroke="black" points="122.07,-115.8 113.61,-109.42 116.25,-119.68 122.07,-115.8"/>
</g>
<!-- 13 -->
<g id="node14" class="node">
<title>13</title>
<polygon fill="none" stroke="black" points="240,-109 158,-109 158,-73 240,-73 240,-109"/>
<text text-anchor="middle" x="199" y="-87.3" font-family="Times,serif" font-size="14.00">class = blue</text>
</g>
<!-- 11&#45;&gt;13 -->
<g id="edge13" class="edge">
<title>11&#45;&gt;13</title>
<path fill="none" stroke="black" d="M162.36,-145.83C168.12,-137.37 175.08,-127.15 181.37,-117.9"/>
<polygon fill="black" stroke="black" points="184.41,-119.65 187.15,-109.42 178.63,-115.72 184.41,-119.65"/>
</g>
<!-- 16 -->
<g id="node17" class="node">
<title>16</title>
<polygon fill="none" stroke="black" points="411.5,-258 304.5,-258 304.5,-220 411.5,-220 411.5,-258"/>
<text text-anchor="middle" x="358" y="-242.8" font-family="Times,serif" font-size="14.00">lon &lt;= &#45;100.922</text>
<text text-anchor="middle" x="358" y="-227.8" font-family="Times,serif" font-size="14.00">class = red</text>
</g>
<!-- 15&#45;&gt;16 -->
<g id="edge16" class="edge">
<title>15&#45;&gt;16</title>
<path fill="none" stroke="black" d="M366.97,-293.83C365.69,-286.13 364.16,-276.97 362.74,-268.42"/>
<polygon fill="black" stroke="black" points="366.17,-267.7 361.07,-258.41 359.26,-268.85 366.17,-267.7"/>
</g>
<!-- 19 -->
<g id="node20" class="node">
<title>19</title>
<polygon fill="none" stroke="black" points="530,-258 430,-258 430,-220 530,-220 530,-258"/>
<text text-anchor="middle" x="480" y="-242.8" font-family="Times,serif" font-size="14.00">lon &lt;= &#45;80.706</text>
<text text-anchor="middle" x="480" y="-227.8" font-family="Times,serif" font-size="14.00">class = blue</text>
</g>
<!-- 15&#45;&gt;19 -->
<g id="edge19" class="edge">
<title>15&#45;&gt;19</title>
<path fill="none" stroke="black" d="M397.76,-293.83C411.7,-284.71 428.76,-273.54 443.72,-263.74"/>
<polygon fill="black" stroke="black" points="445.8,-266.57 452.25,-258.16 441.97,-260.71 445.8,-266.57"/>
</g>
<!-- 17 -->
<g id="node18" class="node">
<title>17</title>
<polygon fill="none" stroke="black" points="305,-183 223,-183 223,-147 305,-147 305,-183"/>
<text text-anchor="middle" x="264" y="-161.3" font-family="Times,serif" font-size="14.00">class = blue</text>
</g>
<!-- 16&#45;&gt;17 -->
<g id="edge17" class="edge">
<title>16&#45;&gt;17</title>
<path fill="none" stroke="black" d="M334.28,-219.83C322.23,-210.6 307.46,-199.29 294.57,-189.41"/>
<polygon fill="black" stroke="black" points="296.49,-186.47 286.42,-183.17 292.23,-192.03 296.49,-186.47"/>
</g>
<!-- 18 -->
<g id="node19" class="node">
<title>18</title>
<polygon fill="none" stroke="black" points="399,-183 323,-183 323,-147 399,-147 399,-183"/>
<text text-anchor="middle" x="361" y="-161.3" font-family="Times,serif" font-size="14.00">class = red</text>
</g>
<!-- 16&#45;&gt;18 -->
<g id="edge18" class="edge">
<title>16&#45;&gt;18</title>
<path fill="none" stroke="black" d="M358.76,-219.83C359.09,-211.89 359.48,-202.41 359.85,-193.63"/>
<polygon fill="black" stroke="black" points="363.35,-193.55 360.27,-183.42 356.36,-193.26 363.35,-193.55"/>
</g>
<!-- 20 -->
<g id="node21" class="node">
<title>20</title>
<polygon fill="none" stroke="black" points="513.5,-184 428.5,-184 428.5,-146 513.5,-146 513.5,-184"/>
<text text-anchor="middle" x="471" y="-168.8" font-family="Times,serif" font-size="14.00">lat &lt;= 37.15</text>
<text text-anchor="middle" x="471" y="-153.8" font-family="Times,serif" font-size="14.00">class = blue</text>
</g>
<!-- 19&#45;&gt;20 -->
<g id="edge20" class="edge">
<title>19&#45;&gt;20</title>
<path fill="none" stroke="black" d="M477.73,-219.83C476.77,-212.13 475.62,-202.97 474.55,-194.42"/>
<polygon fill="black" stroke="black" points="478.02,-193.9 473.3,-184.41 471.07,-194.77 478.02,-193.9"/>
</g>
<!-- 23 -->
<g id="node24" class="node">
<title>23</title>
<polygon fill="none" stroke="black" points="614,-183 532,-183 532,-147 614,-147 614,-183"/>
<text text-anchor="middle" x="573" y="-161.3" font-family="Times,serif" font-size="14.00">class = blue</text>
</g>
<!-- 19&#45;&gt;23 -->
<g id="edge23" class="edge">
<title>19&#45;&gt;23</title>
<path fill="none" stroke="black" d="M503.47,-219.83C515.39,-210.6 530,-199.29 542.76,-189.41"/>
<polygon fill="black" stroke="black" points="545.06,-192.06 550.82,-183.17 540.77,-186.53 545.06,-192.06"/>
</g>
<!-- 21 -->
<g id="node22" class="node">
<title>21</title>
<polygon fill="none" stroke="black" points="464,-109 382,-109 382,-73 464,-73 464,-109"/>
<text text-anchor="middle" x="423" y="-87.3" font-family="Times,serif" font-size="14.00">class = blue</text>
</g>
<!-- 20&#45;&gt;21 -->
<g id="edge21" class="edge">
<title>20&#45;&gt;21</title>
<path fill="none" stroke="black" d="M458.89,-145.83C453.25,-137.37 446.43,-127.15 440.27,-117.9"/>
<polygon fill="black" stroke="black" points="443.07,-115.8 434.61,-109.42 437.25,-119.68 443.07,-115.8"/>
</g>
<!-- 22 -->
<g id="node23" class="node">
<title>22</title>
<polygon fill="none" stroke="black" points="558,-109 482,-109 482,-73 558,-73 558,-109"/>
<text text-anchor="middle" x="520" y="-87.3" font-family="Times,serif" font-size="14.00">class = red</text>
</g>
<!-- 20&#45;&gt;22 -->
<g id="edge22" class="edge">
<title>20&#45;&gt;22</title>
<path fill="none" stroke="black" d="M483.36,-145.83C489.12,-137.37 496.08,-127.15 502.37,-117.9"/>
<polygon fill="black" stroke="black" points="505.41,-119.65 508.15,-109.42 499.63,-115.72 505.41,-119.65"/>
</g>
<!-- 25 -->
<g id="node26" class="node">
<title>25</title>
<polygon fill="none" stroke="black" points="918.5,-480 811.5,-480 811.5,-442 918.5,-442 918.5,-480"/>
<text text-anchor="middle" x="865" y="-464.8" font-family="Times,serif" font-size="14.00">lon &lt;= &#45;104.089</text>
<text text-anchor="middle" x="865" y="-449.8" font-family="Times,serif" font-size="14.00">class = red</text>
</g>
<!-- 24&#45;&gt;25 -->
<g id="edge25" class="edge">
<title>24&#45;&gt;25</title>
<path fill="none" stroke="black" d="M865,-515.83C865,-508.13 865,-498.97 865,-490.42"/>
<polygon fill="black" stroke="black" points="868.5,-490.41 865,-480.41 861.5,-490.41 868.5,-490.41"/>
</g>
<!-- 42 -->
<g id="node43" class="node">
<title>42</title>
<polygon fill="none" stroke="black" points="1481,-480 1389,-480 1389,-442 1481,-442 1481,-480"/>
<text text-anchor="middle" x="1435" y="-464.8" font-family="Times,serif" font-size="14.00">lat &lt;= 39.759</text>
<text text-anchor="middle" x="1435" y="-449.8" font-family="Times,serif" font-size="14.00">class = blue</text>
</g>
<!-- 24&#45;&gt;42 -->
<g id="edge42" class="edge">
<title>24&#45;&gt;42</title>
<path fill="none" stroke="black" d="M915.08,-527.67C1021.12,-514.28 1267.64,-483.14 1378.82,-469.1"/>
<polygon fill="black" stroke="black" points="1379.35,-472.56 1388.83,-467.83 1378.47,-465.61 1379.35,-472.56"/>
</g>
<!-- 26 -->
<g id="node27" class="node">
<title>26</title>
<polygon fill="none" stroke="black" points="854,-406 762,-406 762,-368 854,-368 854,-406"/>
<text text-anchor="middle" x="808" y="-390.8" font-family="Times,serif" font-size="14.00">lat &lt;= 41.895</text>
<text text-anchor="middle" x="808" y="-375.8" font-family="Times,serif" font-size="14.00">class = blue</text>
</g>
<!-- 25&#45;&gt;26 -->
<g id="edge26" class="edge">
<title>25&#45;&gt;26</title>
<path fill="none" stroke="black" d="M850.62,-441.83C844.05,-433.54 836.15,-423.56 828.94,-414.45"/>
<polygon fill="black" stroke="black" points="831.53,-412.08 822.58,-406.41 826.04,-416.43 831.53,-412.08"/>
</g>
<!-- 37 -->
<g id="node38" class="node">
<title>37</title>
<polygon fill="none" stroke="black" points="972,-406 872,-406 872,-368 972,-368 972,-406"/>
<text text-anchor="middle" x="922" y="-390.8" font-family="Times,serif" font-size="14.00">lon &lt;= &#45;96.557</text>
<text text-anchor="middle" x="922" y="-375.8" font-family="Times,serif" font-size="14.00">class = red</text>
</g>
<!-- 25&#45;&gt;37 -->
<g id="edge37" class="edge">
<title>25&#45;&gt;37</title>
<path fill="none" stroke="black" d="M879.38,-441.83C885.95,-433.54 893.85,-423.56 901.06,-414.45"/>
<polygon fill="black" stroke="black" points="903.96,-416.43 907.42,-406.41 898.47,-412.08 903.96,-416.43"/>
</g>
<!-- 27 -->
<g id="node28" class="node">
<title>27</title>
<polygon fill="none" stroke="black" points="754.5,-332 647.5,-332 647.5,-294 754.5,-294 754.5,-332"/>
<text text-anchor="middle" x="701" y="-316.8" font-family="Times,serif" font-size="14.00">lon &lt;= &#45;113.872</text>
<text text-anchor="middle" x="701" y="-301.8" font-family="Times,serif" font-size="14.00">class = blue</text>
</g>
<!-- 26&#45;&gt;27 -->
<g id="edge27" class="edge">
<title>26&#45;&gt;27</title>
<path fill="none" stroke="black" d="M781,-367.83C767.57,-358.79 751.15,-347.75 736.7,-338.02"/>
<polygon fill="black" stroke="black" points="738.24,-334.84 727.99,-332.16 734.33,-340.65 738.24,-334.84"/>
</g>
<!-- 32 -->
<g id="node33" class="node">
<title>32</title>
<polygon fill="none" stroke="black" points="857.5,-332 772.5,-332 772.5,-294 857.5,-294 857.5,-332"/>
<text text-anchor="middle" x="815" y="-316.8" font-family="Times,serif" font-size="14.00">lat &lt;= 45.33</text>
<text text-anchor="middle" x="815" y="-301.8" font-family="Times,serif" font-size="14.00">class = red</text>
</g>
<!-- 26&#45;&gt;32 -->
<g id="edge32" class="edge">
<title>26&#45;&gt;32</title>
<path fill="none" stroke="black" d="M809.77,-367.83C810.52,-360.13 811.41,-350.97 812.24,-342.42"/>
<polygon fill="black" stroke="black" points="815.73,-342.71 813.21,-332.41 808.76,-342.03 815.73,-342.71"/>
</g>
<!-- 28 -->
<g id="node29" class="node">
<title>28</title>
<polygon fill="none" stroke="black" points="630,-257 548,-257 548,-221 630,-221 630,-257"/>
<text text-anchor="middle" x="589" y="-235.3" font-family="Times,serif" font-size="14.00">class = blue</text>
</g>
<!-- 27&#45;&gt;28 -->
<g id="edge28" class="edge">
<title>27&#45;&gt;28</title>
<path fill="none" stroke="black" d="M672.74,-293.83C658.11,-284.43 640.11,-272.86 624.55,-262.85"/>
<polygon fill="black" stroke="black" points="626.02,-259.63 615.71,-257.17 622.23,-265.52 626.02,-259.63"/>
</g>
<!-- 29 -->
<g id="node30" class="node">
<title>29</title>
<polygon fill="none" stroke="black" points="755.5,-258 648.5,-258 648.5,-220 755.5,-220 755.5,-258"/>
<text text-anchor="middle" x="702" y="-242.8" font-family="Times,serif" font-size="14.00">lon &lt;= &#45;107.957</text>
<text text-anchor="middle" x="702" y="-227.8" font-family="Times,serif" font-size="14.00">class = blue</text>
</g>
<!-- 27&#45;&gt;29 -->
<g id="edge29" class="edge">
<title>27&#45;&gt;29</title>
<path fill="none" stroke="black" d="M701.25,-293.83C701.36,-286.13 701.49,-276.97 701.61,-268.42"/>
<polygon fill="black" stroke="black" points="705.1,-268.46 701.74,-258.41 698.11,-268.36 705.1,-268.46"/>
</g>
<!-- 30 -->
<g id="node31" class="node">
<title>30</title>
<polygon fill="none" stroke="black" points="725,-183 649,-183 649,-147 725,-147 725,-183"/>
<text text-anchor="middle" x="687" y="-161.3" font-family="Times,serif" font-size="14.00">class = red</text>
</g>
<!-- 29&#45;&gt;30 -->
<g id="edge30" class="edge">
<title>29&#45;&gt;30</title>
<path fill="none" stroke="black" d="M698.21,-219.83C696.54,-211.81 694.54,-202.2 692.7,-193.34"/>
<polygon fill="black" stroke="black" points="696.09,-192.49 690.63,-183.42 689.24,-193.92 696.09,-192.49"/>
</g>
<!-- 31 -->
<g id="node32" class="node">
<title>31</title>
<polygon fill="none" stroke="black" points="825,-183 743,-183 743,-147 825,-147 825,-183"/>
<text text-anchor="middle" x="784" y="-161.3" font-family="Times,serif" font-size="14.00">class = blue</text>
</g>
<!-- 29&#45;&gt;31 -->
<g id="edge31" class="edge">
<title>29&#45;&gt;31</title>
<path fill="none" stroke="black" d="M722.69,-219.83C733,-210.78 745.6,-199.72 756.69,-189.98"/>
<polygon fill="black" stroke="black" points="759.24,-192.4 764.44,-183.17 754.62,-187.14 759.24,-192.4"/>
</g>
<!-- 33 -->
<g id="node34" class="node">
<title>33</title>
<polygon fill="none" stroke="black" points="850,-257 774,-257 774,-221 850,-221 850,-257"/>
<text text-anchor="middle" x="812" y="-235.3" font-family="Times,serif" font-size="14.00">class = red</text>
</g>
<!-- 32&#45;&gt;33 -->
<g id="edge33" class="edge">
<title>32&#45;&gt;33</title>
<path fill="none" stroke="black" d="M814.24,-293.83C813.91,-285.89 813.52,-276.41 813.15,-267.63"/>
<polygon fill="black" stroke="black" points="816.64,-267.26 812.73,-257.42 809.65,-267.55 816.64,-267.26"/>
</g>
<!-- 34 -->
<g id="node35" class="node">
<title>34</title>
<polygon fill="none" stroke="black" points="960,-258 868,-258 868,-220 960,-220 960,-258"/>
<text text-anchor="middle" x="914" y="-242.8" font-family="Times,serif" font-size="14.00">lat &lt;= 50.907</text>
<text text-anchor="middle" x="914" y="-227.8" font-family="Times,serif" font-size="14.00">class = blue</text>
</g>
<!-- 32&#45;&gt;34 -->
<g id="edge34" class="edge">
<title>32&#45;&gt;34</title>
<path fill="none" stroke="black" d="M839.98,-293.83C852.29,-284.88 867.31,-273.96 880.59,-264.3"/>
<polygon fill="black" stroke="black" points="883,-266.88 889.03,-258.16 878.88,-261.21 883,-266.88"/>
</g>
<!-- 35 -->
<g id="node36" class="node">
<title>35</title>
<polygon fill="none" stroke="black" points="938,-183 856,-183 856,-147 938,-147 938,-183"/>
<text text-anchor="middle" x="897" y="-161.3" font-family="Times,serif" font-size="14.00">class = blue</text>
</g>
<!-- 34&#45;&gt;35 -->
<g id="edge35" class="edge">
<title>34&#45;&gt;35</title>
<path fill="none" stroke="black" d="M909.71,-219.83C907.82,-211.81 905.55,-202.2 903.46,-193.34"/>
<polygon fill="black" stroke="black" points="906.82,-192.35 901.11,-183.42 900,-193.95 906.82,-192.35"/>
</g>
<!-- 36 -->
<g id="node37" class="node">
<title>36</title>
<polygon fill="none" stroke="black" points="1032,-183 956,-183 956,-147 1032,-147 1032,-183"/>
<text text-anchor="middle" x="994" y="-161.3" font-family="Times,serif" font-size="14.00">class = red</text>
</g>
<!-- 34&#45;&gt;36 -->
<g id="edge36" class="edge">
<title>34&#45;&gt;36</title>
<path fill="none" stroke="black" d="M934.19,-219.83C944.24,-210.78 956.54,-199.72 967.36,-189.98"/>
<polygon fill="black" stroke="black" points="969.83,-192.46 974.92,-183.17 965.15,-187.26 969.83,-192.46"/>
</g>
<!-- 38 -->
<g id="node39" class="node">
<title>38</title>
<polygon fill="none" stroke="black" points="953,-331 877,-331 877,-295 953,-295 953,-331"/>
<text text-anchor="middle" x="915" y="-309.3" font-family="Times,serif" font-size="14.00">class = red</text>
</g>
<!-- 37&#45;&gt;38 -->
<g id="edge38" class="edge">
<title>37&#45;&gt;38</title>
<path fill="none" stroke="black" d="M920.23,-367.83C919.46,-359.89 918.54,-350.41 917.69,-341.63"/>
<polygon fill="black" stroke="black" points="921.14,-341.03 916.69,-331.42 914.18,-341.71 921.14,-341.03"/>
</g>
<!-- 39 -->
<g id="node40" class="node">
<title>39</title>
<polygon fill="none" stroke="black" points="1063,-332 971,-332 971,-294 1063,-294 1063,-332"/>
<text text-anchor="middle" x="1017" y="-316.8" font-family="Times,serif" font-size="14.00">lat &lt;= 42.007</text>
<text text-anchor="middle" x="1017" y="-301.8" font-family="Times,serif" font-size="14.00">class = blue</text>
</g>
<!-- 37&#45;&gt;39 -->
<g id="edge39" class="edge">
<title>37&#45;&gt;39</title>
<path fill="none" stroke="black" d="M945.97,-367.83C957.79,-358.88 972.2,-347.96 984.94,-338.3"/>
<polygon fill="black" stroke="black" points="987.18,-340.99 993.04,-332.16 982.95,-335.41 987.18,-340.99"/>
</g>
<!-- 40 -->
<g id="node41" class="node">
<title>40</title>
<polygon fill="none" stroke="black" points="1054,-257 978,-257 978,-221 1054,-221 1054,-257"/>
<text text-anchor="middle" x="1016" y="-235.3" font-family="Times,serif" font-size="14.00">class = red</text>
</g>
<!-- 39&#45;&gt;40 -->
<g id="edge40" class="edge">
<title>39&#45;&gt;40</title>
<path fill="none" stroke="black" d="M1016.75,-293.83C1016.64,-285.89 1016.51,-276.41 1016.38,-267.63"/>
<polygon fill="black" stroke="black" points="1019.88,-267.37 1016.24,-257.42 1012.88,-267.47 1019.88,-267.37"/>
</g>
<!-- 41 -->
<g id="node42" class="node">
<title>41</title>
<polygon fill="none" stroke="black" points="1154,-257 1072,-257 1072,-221 1154,-221 1154,-257"/>
<text text-anchor="middle" x="1113" y="-235.3" font-family="Times,serif" font-size="14.00">class = blue</text>
</g>
<!-- 39&#45;&gt;41 -->
<g id="edge41" class="edge">
<title>39&#45;&gt;41</title>
<path fill="none" stroke="black" d="M1041.22,-293.83C1053.53,-284.6 1068.62,-273.29 1081.78,-263.41"/>
<polygon fill="black" stroke="black" points="1084.2,-265.97 1090.1,-257.17 1080,-260.37 1084.2,-265.97"/>
</g>
<!-- 43 -->
<g id="node44" class="node">
<title>43</title>
<polygon fill="none" stroke="black" points="1485,-406 1385,-406 1385,-368 1485,-368 1485,-406"/>
<text text-anchor="middle" x="1435" y="-390.8" font-family="Times,serif" font-size="14.00">lon &lt;= &#45;79.773</text>
<text text-anchor="middle" x="1435" y="-375.8" font-family="Times,serif" font-size="14.00">class = blue</text>
</g>
<!-- 42&#45;&gt;43 -->
<g id="edge43" class="edge">
<title>42&#45;&gt;43</title>
<path fill="none" stroke="black" d="M1435,-441.83C1435,-434.13 1435,-424.97 1435,-416.42"/>
<polygon fill="black" stroke="black" points="1438.5,-416.41 1435,-406.41 1431.5,-416.41 1438.5,-416.41"/>
</g>
<!-- 62 -->
<g id="node63" class="node">
<title>62</title>
<polygon fill="none" stroke="black" points="1783,-406 1683,-406 1683,-368 1783,-368 1783,-406"/>
<text text-anchor="middle" x="1733" y="-390.8" font-family="Times,serif" font-size="14.00">lon &lt;= &#45;84.905</text>
<text text-anchor="middle" x="1733" y="-375.8" font-family="Times,serif" font-size="14.00">class = blue</text>
</g>
<!-- 42&#45;&gt;62 -->
<g id="edge62" class="edge">
<title>42&#45;&gt;62</title>
<path fill="none" stroke="black" d="M1481.24,-448.83C1532.82,-436.36 1616.45,-416.16 1673.03,-402.49"/>
<polygon fill="black" stroke="black" points="1674.02,-405.85 1682.92,-400.1 1672.38,-399.05 1674.02,-405.85"/>
</g>
<!-- 44 -->
<g id="node45" class="node">
<title>44</title>
<polygon fill="none" stroke="black" points="1410,-332 1310,-332 1310,-294 1410,-294 1410,-332"/>
<text text-anchor="middle" x="1360" y="-316.8" font-family="Times,serif" font-size="14.00">lon &lt;= &#45;87.643</text>
<text text-anchor="middle" x="1360" y="-301.8" font-family="Times,serif" font-size="14.00">class = red</text>
</g>
<!-- 43&#45;&gt;44 -->
<g id="edge44" class="edge">
<title>43&#45;&gt;44</title>
<path fill="none" stroke="black" d="M1416.07,-367.83C1407.01,-359.13 1396.02,-348.58 1386.17,-339.13"/>
<polygon fill="black" stroke="black" points="1388.56,-336.56 1378.92,-332.16 1383.71,-341.61 1388.56,-336.56"/>
</g>
<!-- 57 -->
<g id="node58" class="node">
<title>57</title>
<polygon fill="none" stroke="black" points="1565,-332 1465,-332 1465,-294 1565,-294 1565,-332"/>
<text text-anchor="middle" x="1515" y="-316.8" font-family="Times,serif" font-size="14.00">lon &lt;= &#45;78.395</text>
<text text-anchor="middle" x="1515" y="-301.8" font-family="Times,serif" font-size="14.00">class = blue</text>
</g>
<!-- 43&#45;&gt;57 -->
<g id="edge57" class="edge">
<title>43&#45;&gt;57</title>
<path fill="none" stroke="black" d="M1455.19,-367.83C1464.85,-359.13 1476.58,-348.58 1487.08,-339.13"/>
<polygon fill="black" stroke="black" points="1489.73,-341.45 1494.82,-332.16 1485.04,-336.25 1489.73,-341.45"/>
</g>
<!-- 45 -->
<g id="node46" class="node">
<title>45</title>
<polygon fill="none" stroke="black" points="1265.5,-258 1172.5,-258 1172.5,-220 1265.5,-220 1265.5,-258"/>
<text text-anchor="middle" x="1219" y="-242.8" font-family="Times,serif" font-size="14.00">lon &lt;= &#45;90.12</text>
<text text-anchor="middle" x="1219" y="-227.8" font-family="Times,serif" font-size="14.00">class = blue</text>
</g>
<!-- 44&#45;&gt;45 -->
<g id="edge45" class="edge">
<title>44&#45;&gt;45</title>
<path fill="none" stroke="black" d="M1324.42,-293.83C1305.97,-284.41 1283.25,-272.81 1263.63,-262.79"/>
<polygon fill="black" stroke="black" points="1265.07,-259.59 1254.57,-258.16 1261.88,-265.83 1265.07,-259.59"/>
</g>
<!-- 52 -->
<g id="node53" class="node">
<title>52</title>
<polygon fill="none" stroke="black" points="1406,-258 1314,-258 1314,-220 1406,-220 1406,-258"/>
<text text-anchor="middle" x="1360" y="-242.8" font-family="Times,serif" font-size="14.00">lat &lt;= 38.562</text>
<text text-anchor="middle" x="1360" y="-227.8" font-family="Times,serif" font-size="14.00">class = red</text>
</g>
<!-- 44&#45;&gt;52 -->
<g id="edge52" class="edge">
<title>44&#45;&gt;52</title>
<path fill="none" stroke="black" d="M1360,-293.83C1360,-286.13 1360,-276.97 1360,-268.42"/>
<polygon fill="black" stroke="black" points="1363.5,-268.41 1360,-258.41 1356.5,-268.41 1363.5,-268.41"/>
</g>
<!-- 46 -->
<g id="node47" class="node">
<title>46</title>
<polygon fill="none" stroke="black" points="1156,-184 1056,-184 1056,-146 1156,-146 1156,-184"/>
<text text-anchor="middle" x="1106" y="-168.8" font-family="Times,serif" font-size="14.00">lon &lt;= &#45;90.841</text>
<text text-anchor="middle" x="1106" y="-153.8" font-family="Times,serif" font-size="14.00">class = red</text>
</g>
<!-- 45&#45;&gt;46 -->
<g id="edge46" class="edge">
<title>45&#45;&gt;46</title>
<path fill="none" stroke="black" d="M1190.49,-219.83C1176.17,-210.71 1158.64,-199.54 1143.27,-189.74"/>
<polygon fill="black" stroke="black" points="1144.82,-186.58 1134.51,-184.16 1141.06,-192.49 1144.82,-186.58"/>
</g>
<!-- 51 -->
<g id="node52" class="node">
<title>51</title>
<polygon fill="none" stroke="black" points="1256,-183 1174,-183 1174,-147 1256,-147 1256,-183"/>
<text text-anchor="middle" x="1215" y="-161.3" font-family="Times,serif" font-size="14.00">class = blue</text>
</g>
<!-- 45&#45;&gt;51 -->
<g id="edge51" class="edge">
<title>45&#45;&gt;51</title>
<path fill="none" stroke="black" d="M1217.99,-219.83C1217.55,-211.89 1217.02,-202.41 1216.53,-193.63"/>
<polygon fill="black" stroke="black" points="1220.02,-193.21 1215.97,-183.42 1213.03,-193.6 1220.02,-193.21"/>
</g>
<!-- 47 -->
<g id="node48" class="node">
<title>47</title>
<polygon fill="none" stroke="black" points="1091,-109 1015,-109 1015,-73 1091,-73 1091,-109"/>
<text text-anchor="middle" x="1053" y="-87.3" font-family="Times,serif" font-size="14.00">class = red</text>
</g>
<!-- 46&#45;&gt;47 -->
<g id="edge47" class="edge">
<title>46&#45;&gt;47</title>
<path fill="none" stroke="black" d="M1092.63,-145.83C1086.33,-137.28 1078.72,-126.94 1071.86,-117.62"/>
<polygon fill="black" stroke="black" points="1074.57,-115.4 1065.82,-109.42 1068.93,-119.55 1074.57,-115.4"/>
</g>
<!-- 48 -->
<g id="node49" class="node">
<title>48</title>
<polygon fill="none" stroke="black" points="1209,-110 1109,-110 1109,-72 1209,-72 1209,-110"/>
<text text-anchor="middle" x="1159" y="-94.8" font-family="Times,serif" font-size="14.00">lon &lt;= &#45;90.327</text>
<text text-anchor="middle" x="1159" y="-79.8" font-family="Times,serif" font-size="14.00">class = blue</text>
</g>
<!-- 46&#45;&gt;48 -->
<g id="edge48" class="edge">
<title>46&#45;&gt;48</title>
<path fill="none" stroke="black" d="M1119.37,-145.83C1125.42,-137.62 1132.68,-127.76 1139.32,-118.73"/>
<polygon fill="black" stroke="black" points="1142.34,-120.54 1145.45,-110.41 1136.7,-116.39 1142.34,-120.54"/>
</g>
<!-- 49 -->
<g id="node50" class="node">
<title>49</title>
<polygon fill="none" stroke="black" points="1152,-36 1070,-36 1070,0 1152,0 1152,-36"/>
<text text-anchor="middle" x="1111" y="-14.3" font-family="Times,serif" font-size="14.00">class = blue</text>
</g>
<!-- 48&#45;&gt;49 -->
<g id="edge49" class="edge">
<title>48&#45;&gt;49</title>
<path fill="none" stroke="black" d="M1146.64,-71.72C1141,-63.37 1134.22,-53.35 1128.1,-44.3"/>
<polygon fill="black" stroke="black" points="1131,-42.33 1122.5,-36 1125.2,-46.25 1131,-42.33"/>
</g>
<!-- 50 -->
<g id="node51" class="node">
<title>50</title>
<polygon fill="none" stroke="black" points="1246,-36 1170,-36 1170,0 1246,0 1246,-36"/>
<text text-anchor="middle" x="1208" y="-14.3" font-family="Times,serif" font-size="14.00">class = red</text>
</g>
<!-- 48&#45;&gt;50 -->
<g id="edge50" class="edge">
<title>48&#45;&gt;50</title>
<path fill="none" stroke="black" d="M1171.62,-71.72C1177.38,-63.37 1184.29,-53.35 1190.54,-44.3"/>
<polygon fill="black" stroke="black" points="1193.47,-46.22 1196.27,-36 1187.7,-42.25 1193.47,-46.22"/>
</g>
<!-- 53 -->
<g id="node54" class="node">
<title>53</title>
<polygon fill="none" stroke="black" points="1366,-184 1274,-184 1274,-146 1366,-146 1366,-184"/>
<text text-anchor="middle" x="1320" y="-168.8" font-family="Times,serif" font-size="14.00">lat &lt;= 38.324</text>
<text text-anchor="middle" x="1320" y="-153.8" font-family="Times,serif" font-size="14.00">class = red</text>
</g>
<!-- 52&#45;&gt;53 -->
<g id="edge53" class="edge">
<title>52&#45;&gt;53</title>
<path fill="none" stroke="black" d="M1349.91,-219.83C1345.44,-211.79 1340.09,-202.17 1335.16,-193.29"/>
<polygon fill="black" stroke="black" points="1338.15,-191.46 1330.23,-184.41 1332.03,-194.85 1338.15,-191.46"/>
</g>
<!-- 56 -->
<g id="node57" class="node">
<title>56</title>
<polygon fill="none" stroke="black" points="1460,-183 1384,-183 1384,-147 1460,-147 1460,-183"/>
<text text-anchor="middle" x="1422" y="-161.3" font-family="Times,serif" font-size="14.00">class = red</text>
</g>
<!-- 52&#45;&gt;56 -->
<g id="edge56" class="edge">
<title>52&#45;&gt;56</title>
<path fill="none" stroke="black" d="M1375.65,-219.83C1383.16,-211.11 1392.28,-200.52 1400.43,-191.05"/>
<polygon fill="black" stroke="black" points="1403.13,-193.28 1407,-183.42 1397.82,-188.71 1403.13,-193.28"/>
</g>
<!-- 54 -->
<g id="node55" class="node">
<title>54</title>
<polygon fill="none" stroke="black" points="1357,-109 1281,-109 1281,-73 1357,-73 1357,-109"/>
<text text-anchor="middle" x="1319" y="-87.3" font-family="Times,serif" font-size="14.00">class = red</text>
</g>
<!-- 53&#45;&gt;54 -->
<g id="edge54" class="edge">
<title>53&#45;&gt;54</title>
<path fill="none" stroke="black" d="M1319.75,-145.83C1319.64,-137.89 1319.51,-128.41 1319.38,-119.63"/>
<polygon fill="black" stroke="black" points="1322.88,-119.37 1319.24,-109.42 1315.88,-119.47 1322.88,-119.37"/>
</g>
<!-- 55 -->
<g id="node56" class="node">
<title>55</title>
<polygon fill="none" stroke="black" points="1457,-109 1375,-109 1375,-73 1457,-73 1457,-109"/>
<text text-anchor="middle" x="1416" y="-87.3" font-family="Times,serif" font-size="14.00">class = blue</text>
</g>
<!-- 53&#45;&gt;55 -->
<g id="edge55" class="edge">
<title>53&#45;&gt;55</title>
<path fill="none" stroke="black" d="M1344.22,-145.83C1356.53,-136.6 1371.62,-125.29 1384.78,-115.41"/>
<polygon fill="black" stroke="black" points="1387.2,-117.97 1393.1,-109.17 1383,-112.37 1387.2,-117.97"/>
</g>
<!-- 58 -->
<g id="node59" class="node">
<title>58</title>
<polygon fill="none" stroke="black" points="1565,-258 1465,-258 1465,-220 1565,-220 1565,-258"/>
<text text-anchor="middle" x="1515" y="-242.8" font-family="Times,serif" font-size="14.00">lon &lt;= &#45;78.878</text>
<text text-anchor="middle" x="1515" y="-227.8" font-family="Times,serif" font-size="14.00">class = blue</text>
</g>
<!-- 57&#45;&gt;58 -->
<g id="edge58" class="edge">
<title>57&#45;&gt;58</title>
<path fill="none" stroke="black" d="M1515,-293.83C1515,-286.13 1515,-276.97 1515,-268.42"/>
<polygon fill="black" stroke="black" points="1518.5,-268.41 1515,-258.41 1511.5,-268.41 1518.5,-268.41"/>
</g>
<!-- 61 -->
<g id="node62" class="node">
<title>61</title>
<polygon fill="none" stroke="black" points="1665,-257 1583,-257 1583,-221 1665,-221 1665,-257"/>
<text text-anchor="middle" x="1624" y="-235.3" font-family="Times,serif" font-size="14.00">class = blue</text>
</g>
<!-- 57&#45;&gt;61 -->
<g id="edge61" class="edge">
<title>57&#45;&gt;61</title>
<path fill="none" stroke="black" d="M1542.51,-293.83C1556.74,-284.43 1574.26,-272.86 1589.41,-262.85"/>
<polygon fill="black" stroke="black" points="1591.59,-265.6 1598,-257.17 1587.73,-259.76 1591.59,-265.6"/>
</g>
<!-- 59 -->
<g id="node60" class="node">
<title>59</title>
<polygon fill="none" stroke="black" points="1560,-183 1478,-183 1478,-147 1560,-147 1560,-183"/>
<text text-anchor="middle" x="1519" y="-161.3" font-family="Times,serif" font-size="14.00">class = blue</text>
</g>
<!-- 58&#45;&gt;59 -->
<g id="edge59" class="edge">
<title>58&#45;&gt;59</title>
<path fill="none" stroke="black" d="M1516.01,-219.83C1516.45,-211.89 1516.98,-202.41 1517.47,-193.63"/>
<polygon fill="black" stroke="black" points="1520.97,-193.6 1518.03,-183.42 1513.98,-193.21 1520.97,-193.6"/>
</g>
<!-- 60 -->
<g id="node61" class="node">
<title>60</title>
<polygon fill="none" stroke="black" points="1654,-183 1578,-183 1578,-147 1654,-147 1654,-183"/>
<text text-anchor="middle" x="1616" y="-161.3" font-family="Times,serif" font-size="14.00">class = red</text>
</g>
<!-- 58&#45;&gt;60 -->
<g id="edge60" class="edge">
<title>58&#45;&gt;60</title>
<path fill="none" stroke="black" d="M1540.49,-219.83C1553.55,-210.52 1569.61,-199.07 1583.55,-189.13"/>
<polygon fill="black" stroke="black" points="1585.8,-191.83 1591.91,-183.17 1581.74,-186.13 1585.8,-191.83"/>
</g>
<!-- 63 -->
<g id="node64" class="node">
<title>63</title>
<polygon fill="none" stroke="black" points="1779,-332 1687,-332 1687,-294 1779,-294 1779,-332"/>
<text text-anchor="middle" x="1733" y="-316.8" font-family="Times,serif" font-size="14.00">lat &lt;= 41.739</text>
<text text-anchor="middle" x="1733" y="-301.8" font-family="Times,serif" font-size="14.00">class = blue</text>
</g>
<!-- 62&#45;&gt;63 -->
<g id="edge63" class="edge">
<title>62&#45;&gt;63</title>
<path fill="none" stroke="black" d="M1733,-367.83C1733,-360.13 1733,-350.97 1733,-342.42"/>
<polygon fill="black" stroke="black" points="1736.5,-342.41 1733,-332.41 1729.5,-342.41 1736.5,-342.41"/>
</g>
<!-- 72 -->
<g id="node73" class="node">
<title>72</title>
<polygon fill="none" stroke="black" points="1879,-331 1797,-331 1797,-295 1879,-295 1879,-331"/>
<text text-anchor="middle" x="1838" y="-309.3" font-family="Times,serif" font-size="14.00">class = blue</text>
</g>
<!-- 62&#45;&gt;72 -->
<g id="edge72" class="edge">
<title>62&#45;&gt;72</title>
<path fill="none" stroke="black" d="M1759.5,-367.83C1773.21,-358.43 1790.09,-346.86 1804.67,-336.85"/>
<polygon fill="black" stroke="black" points="1806.69,-339.71 1812.96,-331.17 1802.73,-333.94 1806.69,-339.71"/>
</g>
<!-- 64 -->
<g id="node65" class="node">
<title>64</title>
<polygon fill="none" stroke="black" points="1783,-258 1683,-258 1683,-220 1783,-220 1783,-258"/>
<text text-anchor="middle" x="1733" y="-242.8" font-family="Times,serif" font-size="14.00">lon &lt;= &#45;87.697</text>
<text text-anchor="middle" x="1733" y="-227.8" font-family="Times,serif" font-size="14.00">class = blue</text>
</g>
<!-- 63&#45;&gt;64 -->
<g id="edge64" class="edge">
<title>63&#45;&gt;64</title>
<path fill="none" stroke="black" d="M1733,-293.83C1733,-286.13 1733,-276.97 1733,-268.42"/>
<polygon fill="black" stroke="black" points="1736.5,-268.41 1733,-258.41 1729.5,-268.41 1736.5,-268.41"/>
</g>
<!-- 71 -->
<g id="node72" class="node">
<title>71</title>
<polygon fill="none" stroke="black" points="1883,-257 1801,-257 1801,-221 1883,-221 1883,-257"/>
<text text-anchor="middle" x="1842" y="-235.3" font-family="Times,serif" font-size="14.00">class = blue</text>
</g>
<!-- 63&#45;&gt;71 -->
<g id="edge71" class="edge">
<title>63&#45;&gt;71</title>
<path fill="none" stroke="black" d="M1760.51,-293.83C1774.74,-284.43 1792.26,-272.86 1807.41,-262.85"/>
<polygon fill="black" stroke="black" points="1809.59,-265.6 1816,-257.17 1805.73,-259.76 1809.59,-265.6"/>
</g>
<!-- 65 -->
<g id="node66" class="node">
<title>65</title>
<polygon fill="none" stroke="black" points="1779,-184 1679,-184 1679,-146 1779,-146 1779,-184"/>
<text text-anchor="middle" x="1729" y="-168.8" font-family="Times,serif" font-size="14.00">lon &lt;= &#45;91.379</text>
<text text-anchor="middle" x="1729" y="-153.8" font-family="Times,serif" font-size="14.00">class = blue</text>
</g>
<!-- 64&#45;&gt;65 -->
<g id="edge65" class="edge">
<title>64&#45;&gt;65</title>
<path fill="none" stroke="black" d="M1731.99,-219.83C1731.56,-212.13 1731.05,-202.97 1730.58,-194.42"/>
<polygon fill="black" stroke="black" points="1734.07,-194.2 1730.02,-184.41 1727.08,-194.59 1734.07,-194.2"/>
</g>
<!-- 70 -->
<g id="node71" class="node">
<title>70</title>
<polygon fill="none" stroke="black" points="1873,-183 1797,-183 1797,-147 1873,-147 1873,-183"/>
<text text-anchor="middle" x="1835" y="-161.3" font-family="Times,serif" font-size="14.00">class = red</text>
</g>
<!-- 64&#45;&gt;70 -->
<g id="edge70" class="edge">
<title>64&#45;&gt;70</title>
<path fill="none" stroke="black" d="M1758.74,-219.83C1771.93,-210.52 1788.15,-199.07 1802.23,-189.13"/>
<polygon fill="black" stroke="black" points="1804.52,-191.8 1810.67,-183.17 1800.49,-186.08 1804.52,-191.8"/>
</g>
<!-- 66 -->
<g id="node67" class="node">
<title>66</title>
<polygon fill="none" stroke="black" points="1722,-110 1630,-110 1630,-72 1722,-72 1722,-110"/>
<text text-anchor="middle" x="1676" y="-94.8" font-family="Times,serif" font-size="14.00">lat &lt;= 40.775</text>
<text text-anchor="middle" x="1676" y="-79.8" font-family="Times,serif" font-size="14.00">class = red</text>
</g>
<!-- 65&#45;&gt;66 -->
<g id="edge66" class="edge">
<title>65&#45;&gt;66</title>
<path fill="none" stroke="black" d="M1715.63,-145.83C1709.58,-137.62 1702.32,-127.76 1695.68,-118.73"/>
<polygon fill="black" stroke="black" points="1698.3,-116.39 1689.55,-110.41 1692.66,-120.54 1698.3,-116.39"/>
</g>
<!-- 69 -->
<g id="node70" class="node">
<title>69</title>
<polygon fill="none" stroke="black" points="1822,-109 1740,-109 1740,-73 1822,-73 1822,-109"/>
<text text-anchor="middle" x="1781" y="-87.3" font-family="Times,serif" font-size="14.00">class = blue</text>
</g>
<!-- 65&#45;&gt;69 -->
<g id="edge69" class="edge">
<title>65&#45;&gt;69</title>
<path fill="none" stroke="black" d="M1742.12,-145.83C1748.3,-137.28 1755.76,-126.94 1762.5,-117.62"/>
<polygon fill="black" stroke="black" points="1765.4,-119.57 1768.42,-109.42 1759.73,-115.48 1765.4,-119.57"/>
</g>
<!-- 67 -->
<g id="node68" class="node">
<title>67</title>
<polygon fill="none" stroke="black" points="1665,-36 1589,-36 1589,0 1665,0 1665,-36"/>
<text text-anchor="middle" x="1627" y="-14.3" font-family="Times,serif" font-size="14.00">class = red</text>
</g>
<!-- 66&#45;&gt;67 -->
<g id="edge67" class="edge">
<title>66&#45;&gt;67</title>
<path fill="none" stroke="black" d="M1663.38,-71.72C1657.62,-63.37 1650.71,-53.35 1644.46,-44.3"/>
<polygon fill="black" stroke="black" points="1647.3,-42.25 1638.73,-36 1641.53,-46.22 1647.3,-42.25"/>
</g>
<!-- 68 -->
<g id="node69" class="node">
<title>68</title>
<polygon fill="none" stroke="black" points="1765,-36 1683,-36 1683,0 1765,0 1765,-36"/>
<text text-anchor="middle" x="1724" y="-14.3" font-family="Times,serif" font-size="14.00">class = blue</text>
</g>
<!-- 66&#45;&gt;68 -->
<g id="edge68" class="edge">
<title>66&#45;&gt;68</title>
<path fill="none" stroke="black" d="M1688.36,-71.72C1694,-63.37 1700.78,-53.35 1706.9,-44.3"/>
<polygon fill="black" stroke="black" points="1709.8,-46.25 1712.5,-36 1704,-42.33 1709.8,-46.25"/>
</g>
</g>
</svg>
