<?xml version="1.0" encoding="UTF-8" standalone="no"?>
<!DOCTYPE svg PUBLIC "-//W3C//DTD SVG 1.1//EN"
 "http://www.w3.org/Graphics/SVG/1.1/DTD/svg11.dtd">
<!-- Generated by graphviz version 2.44.1 (20200629.0846)
 -->
<!-- Title: Tree Pages: 1 -->
<svg width="1876pt" height="636pt"
 viewBox="0.00 0.00 1876.00 636.00" xmlns="http://www.w3.org/2000/svg" xmlns:xlink="http://www.w3.org/1999/xlink">
<g id="graph0" class="graph" transform="scale(1 1) rotate(0) translate(4 632)">
<title>Tree</title>
<polygon fill="white" stroke="transparent" points="-4,4 -4,-632 1872,-632 1872,4 -4,4"/>
<!-- 0 -->
<g id="node1" class="node">
<title>0</title>
<polygon fill="none" stroke="black" points="593,-628 501,-628 501,-590 593,-590 593,-628"/>
<text text-anchor="middle" x="547" y="-612.8" font-family="Times,serif" font-size="14.00">lat &lt;= 37.682</text>
<text text-anchor="middle" x="547" y="-597.8" font-family="Times,serif" font-size="14.00">class = blue</text>
</g>
<!-- 1 -->
<g id="node2" class="node">
<title>1</title>
<polygon fill="none" stroke="black" points="363.5,-554 256.5,-554 256.5,-516 363.5,-516 363.5,-554"/>
<text text-anchor="middle" x="310" y="-538.8" font-family="Times,serif" font-size="14.00">lon &lt;= &#45;114.063</text>
<text text-anchor="middle" x="310" y="-523.8" font-family="Times,serif" font-size="14.00">class = red</text>
</g>
<!-- 0&#45;&gt;1 -->
<g id="edge1" class="edge">
<title>0&#45;&gt;1</title>
<path fill="none" stroke="black" d="M500.74,-593.95C464.4,-582.91 413.41,-567.41 373.29,-555.23"/>
<polygon fill="black" stroke="black" points="374.18,-551.84 363.6,-552.28 372.15,-558.54 374.18,-551.84"/>
<text text-anchor="middle" x="375.37" y="-570.64" font-family="Times,serif" font-size="14.00">True</text>
</g>
<!-- 24 -->
<g id="node25" class="node">
<title>24</title>
<polygon fill="none" stroke="black" points="899,-554 799,-554 799,-516 899,-516 899,-554"/>
<text text-anchor="middle" x="849" y="-538.8" font-family="Times,serif" font-size="14.00">lon &lt;= &#45;96.061</text>
<text text-anchor="middle" x="849" y="-523.8" font-family="Times,serif" font-size="14.00">class = blue</text>
</g>
<!-- 0&#45;&gt;24 -->
<g id="edge24" class="edge">
<title>0&#45;&gt;24</title>
<path fill="none" stroke="black" d="M593.2,-596.99C645.57,-584.5 731.14,-564.1 788.72,-550.37"/>
<polygon fill="black" stroke="black" points="789.87,-553.7 798.78,-547.97 788.24,-546.89 789.87,-553.7"/>
<text text-anchor="middle" x="785.69" y="-565.57" font-family="Times,serif" font-size="14.00">False</text>
</g>
<!-- 2 -->
<g id="node3" class="node">
<title>2</title>
<polygon fill="none" stroke="black" points="246,-479 164,-479 164,-443 246,-443 246,-479"/>
<text text-anchor="middle" x="205" y="-457.3" font-family="Times,serif" font-size="14.00">class = blue</text>
</g>
<!-- 1&#45;&gt;2 -->
<g id="edge2" class="edge">
<title>1&#45;&gt;2</title>
<path fill="none" stroke="black" d="M283.5,-515.83C269.79,-506.43 252.91,-494.86 238.33,-484.85"/>
<polygon fill="black" stroke="black" points="240.27,-481.94 230.04,-479.17 236.31,-487.71 240.27,-481.94"/>
</g>
<!-- 3 -->
<g id="node4" class="node">
<title>3</title>
<polygon fill="none" stroke="black" points="356,-480 264,-480 264,-442 356,-442 356,-480"/>
<text text-anchor="middle" x="310" y="-464.8" font-family="Times,serif" font-size="14.00">lat &lt;= 29.595</text>
<text text-anchor="middle" x="310" y="-449.8" font-family="Times,serif" font-size="14.00">class = red</text>
</g>
<!-- 1&#45;&gt;3 -->
<g id="edge3" class="edge">
<title>1&#45;&gt;3</title>
<path fill="none" stroke="black" d="M310,-515.83C310,-508.13 310,-498.97 310,-490.42"/>
<polygon fill="black" stroke="black" points="313.5,-490.41 310,-480.41 306.5,-490.41 313.5,-490.41"/>
</g>
<!-- 4 -->
<g id="node5" class="node">
<title>4</title>
<polygon fill="none" stroke="black" points="185,-406 85,-406 85,-368 185,-368 185,-406"/>
<text text-anchor="middle" x="135" y="-390.8" font-family="Times,serif" font-size="14.00">lon &lt;= &#45;90.074</text>
<text text-anchor="middle" x="135" y="-375.8" font-family="Times,serif" font-size="14.00">class = blue</text>
</g>
<!-- 3&#45;&gt;4 -->
<g id="edge4" class="edge">
<title>3&#45;&gt;4</title>
<path fill="none" stroke="black" d="M265.84,-441.83C242.23,-432.12 212.98,-420.08 188.13,-409.86"/>
<polygon fill="black" stroke="black" points="189.42,-406.61 178.84,-406.04 186.76,-413.08 189.42,-406.61"/>
</g>
<!-- 7 -->
<g id="node8" class="node">
<title>7</title>
<polygon fill="none" stroke="black" points="356,-406 264,-406 264,-368 356,-368 356,-406"/>
<text text-anchor="middle" x="310" y="-390.8" font-family="Times,serif" font-size="14.00">lat &lt;= 36.522</text>
<text text-anchor="middle" x="310" y="-375.8" font-family="Times,serif" font-size="14.00">class = red</text>
</g>
<!-- 3&#45;&gt;7 -->
<g id="edge7" class="edge">
<title>3&#45;&gt;7</title>
<path fill="none" stroke="black" d="M310,-441.83C310,-434.13 310,-424.97 310,-416.42"/>
<polygon fill="black" stroke="black" points="313.5,-416.41 310,-406.41 306.5,-416.41 313.5,-416.41"/>
</g>
<!-- 5 -->
<g id="node6" class="node">
<title>5</title>
<polygon fill="none" stroke="black" points="76,-331 0,-331 0,-295 76,-295 76,-331"/>
<text text-anchor="middle" x="38" y="-309.3" font-family="Times,serif" font-size="14.00">class = red</text>
</g>
<!-- 4&#45;&gt;5 -->
<g id="edge5" class="edge">
<title>4&#45;&gt;5</title>
<path fill="none" stroke="black" d="M110.52,-367.83C97.97,-358.52 82.55,-347.07 69.16,-337.13"/>
<polygon fill="black" stroke="black" points="71.25,-334.32 61.13,-331.17 67.08,-339.94 71.25,-334.32"/>
</g>
<!-- 6 -->
<g id="node7" class="node">
<title>6</title>
<polygon fill="none" stroke="black" points="176,-331 94,-331 94,-295 176,-295 176,-331"/>
<text text-anchor="middle" x="135" y="-309.3" font-family="Times,serif" font-size="14.00">class = blue</text>
</g>
<!-- 4&#45;&gt;6 -->
<g id="edge6" class="edge">
<title>4&#45;&gt;6</title>
<path fill="none" stroke="black" d="M135,-367.83C135,-359.89 135,-350.41 135,-341.63"/>
<polygon fill="black" stroke="black" points="138.5,-341.42 135,-331.42 131.5,-341.42 138.5,-341.42"/>
</g>
<!-- 8 -->
<g id="node9" class="node">
<title>8</title>
<polygon fill="none" stroke="black" points="301.5,-332 194.5,-332 194.5,-294 301.5,-294 301.5,-332"/>
<text text-anchor="middle" x="248" y="-316.8" font-family="Times,serif" font-size="14.00">lon &lt;= &#45;102.257</text>
<text text-anchor="middle" x="248" y="-301.8" font-family="Times,serif" font-size="14.00">class = red</text>
</g>
<!-- 7&#45;&gt;8 -->
<g id="edge8" class="edge">
<title>7&#45;&gt;8</title>
<path fill="none" stroke="black" d="M294.35,-367.83C287.14,-359.45 278.44,-349.35 270.54,-340.17"/>
<polygon fill="black" stroke="black" points="273.03,-337.71 263.86,-332.41 267.73,-342.27 273.03,-337.71"/>
</g>
<!-- 15 -->
<g id="node16" class="node">
<title>15</title>
<polygon fill="none" stroke="black" points="420,-332 320,-332 320,-294 420,-294 420,-332"/>
<text text-anchor="middle" x="370" y="-316.8" font-family="Times,serif" font-size="14.00">lon &lt;= &#45;82.415</text>
<text text-anchor="middle" x="370" y="-301.8" font-family="Times,serif" font-size="14.00">class = red</text>
</g>
<!-- 7&#45;&gt;15 -->
<g id="edge15" class="edge">
<title>7&#45;&gt;15</title>
<path fill="none" stroke="black" d="M325.14,-367.83C332.12,-359.45 340.54,-349.35 348.19,-340.17"/>
<polygon fill="black" stroke="black" points="350.94,-342.34 354.66,-332.41 345.56,-337.85 350.94,-342.34"/>
</g>
<!-- 9 -->
<g id="node10" class="node">
<title>9</title>
<polygon fill="none" stroke="black" points="191.5,-258 84.5,-258 84.5,-220 191.5,-220 191.5,-258"/>
<text text-anchor="middle" x="138" y="-242.8" font-family="Times,serif" font-size="14.00">lon &lt;= &#45;107.589</text>
<text text-anchor="middle" x="138" y="-227.8" font-family="Times,serif" font-size="14.00">class = red</text>
</g>
<!-- 8&#45;&gt;9 -->
<g id="edge9" class="edge">
<title>8&#45;&gt;9</title>
<path fill="none" stroke="black" d="M220.24,-293.83C206.3,-284.71 189.24,-273.54 174.28,-263.74"/>
<polygon fill="black" stroke="black" points="176.03,-260.71 165.75,-258.16 172.2,-266.57 176.03,-260.71"/>
</g>
<!-- 14 -->
<g id="node15" class="node">
<title>14</title>
<polygon fill="none" stroke="black" points="286,-257 210,-257 210,-221 286,-221 286,-257"/>
<text text-anchor="middle" x="248" y="-235.3" font-family="Times,serif" font-size="14.00">class = red</text>
</g>
<!-- 8&#45;&gt;14 -->
<g id="edge14" class="edge">
<title>8&#45;&gt;14</title>
<path fill="none" stroke="black" d="M248,-293.83C248,-285.89 248,-276.41 248,-267.63"/>
<polygon fill="black" stroke="black" points="251.5,-267.42 248,-257.42 244.5,-267.42 251.5,-267.42"/>
</g>
<!-- 10 -->
<g id="node11" class="node">
<title>10</title>
<polygon fill="none" stroke="black" points="81,-183 5,-183 5,-147 81,-147 81,-183"/>
<text text-anchor="middle" x="43" y="-161.3" font-family="Times,serif" font-size="14.00">class = red</text>
</g>
<!-- 9&#45;&gt;10 -->
<g id="edge10" class="edge">
<title>9&#45;&gt;10</title>
<path fill="none" stroke="black" d="M114.03,-219.83C101.85,-210.6 86.92,-199.29 73.89,-189.41"/>
<polygon fill="black" stroke="black" points="75.74,-186.42 65.66,-183.17 71.51,-192 75.74,-186.42"/>
</g>
<!-- 11 -->
<g id="node12" class="node">
<title>11</title>
<polygon fill="none" stroke="black" points="191,-184 99,-184 99,-146 191,-146 191,-184"/>
<text text-anchor="middle" x="145" y="-168.8" font-family="Times,serif" font-size="14.00">lat &lt;= 31.788</text>
<text text-anchor="middle" x="145" y="-153.8" font-family="Times,serif" font-size="14.00">class = blue</text>
</g>
<!-- 9&#45;&gt;11 -->
<g id="edge11" class="edge">
<title>9&#45;&gt;11</title>
<path fill="none" stroke="black" d="M139.77,-219.83C140.52,-212.13 141.41,-202.97 142.24,-194.42"/>
<polygon fill="black" stroke="black" points="145.73,-194.71 143.21,-184.41 138.76,-194.03 145.73,-194.71"/>
</g>
<!-- 12 -->
<g id="node13" class="node">
<title>12</title>
<polygon fill="none" stroke="black" points="135,-109 59,-109 59,-73 135,-73 135,-109"/>
<text text-anchor="middle" x="97" y="-87.3" font-family="Times,serif" font-size="14.00">class = red</text>
</g>
<!-- 11&#45;&gt;12 -->
<g id="edge12" class="edge">
<title>11&#45;&gt;12</title>
<path fill="none" stroke="black" d="M132.89,-145.83C127.25,-137.37 120.43,-127.15 114.27,-117.9"/>
<polygon fill="black" stroke="black" points="117.07,-115.8 108.61,-109.42 111.25,-119.68 117.07,-115.8"/>
</g>
<!-- 13 -->
<g id="node14" class="node">
<title>13</title>
<polygon fill="none" stroke="black" points="235,-109 153,-109 153,-73 235,-73 235,-109"/>
<text text-anchor="middle" x="194" y="-87.3" font-family="Times,serif" font-size="14.00">class = blue</text>
</g>
<!-- 11&#45;&gt;13 -->
<g id="edge13" class="edge">
<title>11&#45;&gt;13</title>
<path fill="none" stroke="black" d="M157.36,-145.83C163.12,-137.37 170.08,-127.15 176.37,-117.9"/>
<polygon fill="black" stroke="black" points="179.41,-119.65 182.15,-109.42 173.63,-115.72 179.41,-119.65"/>
</g>
<!-- 16 -->
<g id="node17" class="node">
<title>16</title>
<polygon fill="none" stroke="black" points="396,-258 304,-258 304,-220 396,-220 396,-258"/>
<text text-anchor="middle" x="350" y="-242.8" font-family="Times,serif" font-size="14.00">lat &lt;= 36.633</text>
<text text-anchor="middle" x="350" y="-227.8" font-family="Times,serif" font-size="14.00">class = red</text>
</g>
<!-- 15&#45;&gt;16 -->
<g id="edge16" class="edge">
<title>15&#45;&gt;16</title>
<path fill="none" stroke="black" d="M364.95,-293.83C362.79,-286.05 360.21,-276.77 357.82,-268.13"/>
<polygon fill="black" stroke="black" points="361.16,-267.11 355.11,-258.41 354.42,-268.99 361.16,-267.11"/>
</g>
<!-- 19 -->
<g id="node20" class="node">
<title>19</title>
<polygon fill="none" stroke="black" points="514,-258 414,-258 414,-220 514,-220 514,-258"/>
<text text-anchor="middle" x="464" y="-242.8" font-family="Times,serif" font-size="14.00">lon &lt;= &#45;80.706</text>
<text text-anchor="middle" x="464" y="-227.8" font-family="Times,serif" font-size="14.00">class = blue</text>
</g>
<!-- 15&#45;&gt;19 -->
<g id="edge19" class="edge">
<title>15&#45;&gt;19</title>
<path fill="none" stroke="black" d="M393.72,-293.83C405.41,-284.88 419.67,-273.96 432.28,-264.3"/>
<polygon fill="black" stroke="black" points="434.48,-267.02 440.29,-258.16 430.22,-261.47 434.48,-267.02"/>
</g>
<!-- 17 -->
<g id="node18" class="node">
<title>17</title>
<polygon fill="none" stroke="black" points="296,-183 214,-183 214,-147 296,-147 296,-183"/>
<text text-anchor="middle" x="255" y="-161.3" font-family="Times,serif" font-size="14.00">class = blue</text>
</g>
<!-- 16&#45;&gt;17 -->
<g id="edge17" class="edge">
<title>16&#45;&gt;17</title>
<path fill="none" stroke="black" d="M326.03,-219.83C313.85,-210.6 298.92,-199.29 285.89,-189.41"/>
<polygon fill="black" stroke="black" points="287.74,-186.42 277.66,-183.17 283.51,-192 287.74,-186.42"/>
</g>
<!-- 18 -->
<g id="node19" class="node">
<title>18</title>
<polygon fill="none" stroke="black" points="390,-183 314,-183 314,-147 390,-147 390,-183"/>
<text text-anchor="middle" x="352" y="-161.3" font-family="Times,serif" font-size="14.00">class = red</text>
</g>
<!-- 16&#45;&gt;18 -->
<g id="edge18" class="edge">
<title>16&#45;&gt;18</title>
<path fill="none" stroke="black" d="M350.5,-219.83C350.73,-211.89 350.99,-202.41 351.23,-193.63"/>
<polygon fill="black" stroke="black" points="354.74,-193.51 351.52,-183.42 347.74,-193.32 354.74,-193.51"/>
</g>
<!-- 20 -->
<g id="node21" class="node">
<title>20</title>
<polygon fill="none" stroke="black" points="512,-184 412,-184 412,-146 512,-146 512,-184"/>
<text text-anchor="middle" x="462" y="-168.8" font-family="Times,serif" font-size="14.00">lon &lt;= &#45;81.939</text>
<text text-anchor="middle" x="462" y="-153.8" font-family="Times,serif" font-size="14.00">class = blue</text>
</g>
<!-- 19&#45;&gt;20 -->
<g id="edge20" class="edge">
<title>19&#45;&gt;20</title>
<path fill="none" stroke="black" d="M463.5,-219.83C463.28,-212.13 463.03,-202.97 462.79,-194.42"/>
<polygon fill="black" stroke="black" points="466.29,-194.31 462.51,-184.41 459.29,-194.51 466.29,-194.31"/>
</g>
<!-- 23 -->
<g id="node24" class="node">
<title>23</title>
<polygon fill="none" stroke="black" points="612,-183 530,-183 530,-147 612,-147 612,-183"/>
<text text-anchor="middle" x="571" y="-161.3" font-family="Times,serif" font-size="14.00">class = blue</text>
</g>
<!-- 19&#45;&gt;23 -->
<g id="edge23" class="edge">
<title>19&#45;&gt;23</title>
<path fill="none" stroke="black" d="M491,-219.83C504.97,-210.43 522.17,-198.86 537.04,-188.85"/>
<polygon fill="black" stroke="black" points="539.14,-191.66 545.48,-183.17 535.23,-185.85 539.14,-191.66"/>
</g>
<!-- 21 -->
<g id="node22" class="node">
<title>21</title>
<polygon fill="none" stroke="black" points="455,-109 373,-109 373,-73 455,-73 455,-109"/>
<text text-anchor="middle" x="414" y="-87.3" font-family="Times,serif" font-size="14.00">class = blue</text>
</g>
<!-- 20&#45;&gt;21 -->
<g id="edge21" class="edge">
<title>20&#45;&gt;21</title>
<path fill="none" stroke="black" d="M449.89,-145.83C444.25,-137.37 437.43,-127.15 431.27,-117.9"/>
<polygon fill="black" stroke="black" points="434.07,-115.8 425.61,-109.42 428.25,-119.68 434.07,-115.8"/>
</g>
<!-- 22 -->
<g id="node23" class="node">
<title>22</title>
<polygon fill="none" stroke="black" points="549,-109 473,-109 473,-73 549,-73 549,-109"/>
<text text-anchor="middle" x="511" y="-87.3" font-family="Times,serif" font-size="14.00">class = red</text>
</g>
<!-- 20&#45;&gt;22 -->
<g id="edge22" class="edge">
<title>20&#45;&gt;22</title>
<path fill="none" stroke="black" d="M474.36,-145.83C480.12,-137.37 487.08,-127.15 493.37,-117.9"/>
<polygon fill="black" stroke="black" points="496.41,-119.65 499.15,-109.42 490.63,-115.72 496.41,-119.65"/>
</g>
<!-- 25 -->
<g id="node26" class="node">
<title>25</title>
<polygon fill="none" stroke="black" points="902.5,-480 795.5,-480 795.5,-442 902.5,-442 902.5,-480"/>
<text text-anchor="middle" x="849" y="-464.8" font-family="Times,serif" font-size="14.00">lon &lt;= &#45;104.089</text>
<text text-anchor="middle" x="849" y="-449.8" font-family="Times,serif" font-size="14.00">class = red</text>
</g>
<!-- 24&#45;&gt;25 -->
<g id="edge25" class="edge">
<title>24&#45;&gt;25</title>
<path fill="none" stroke="black" d="M849,-515.83C849,-508.13 849,-498.97 849,-490.42"/>
<polygon fill="black" stroke="black" points="852.5,-490.41 849,-480.41 845.5,-490.41 852.5,-490.41"/>
</g>
<!-- 42 -->
<g id="node43" class="node">
<title>42</title>
<polygon fill="none" stroke="black" points="1466,-480 1374,-480 1374,-442 1466,-442 1466,-480"/>
<text text-anchor="middle" x="1420" y="-464.8" font-family="Times,serif" font-size="14.00">lat &lt;= 39.759</text>
<text text-anchor="middle" x="1420" y="-449.8" font-family="Times,serif" font-size="14.00">class = blue</text>
</g>
<!-- 24&#45;&gt;42 -->
<g id="edge42" class="edge">
<title>24&#45;&gt;42</title>
<path fill="none" stroke="black" d="M899.17,-527.67C1005.39,-514.28 1252.34,-483.14 1363.73,-469.1"/>
<polygon fill="black" stroke="black" points="1364.27,-472.56 1373.75,-467.83 1363.39,-465.61 1364.27,-472.56"/>
</g>
<!-- 26 -->
<g id="node27" class="node">
<title>26</title>
<polygon fill="none" stroke="black" points="838,-406 746,-406 746,-368 838,-368 838,-406"/>
<text text-anchor="middle" x="792" y="-390.8" font-family="Times,serif" font-size="14.00">lat &lt;= 41.895</text>
<text text-anchor="middle" x="792" y="-375.8" font-family="Times,serif" font-size="14.00">class = blue</text>
</g>
<!-- 25&#45;&gt;26 -->
<g id="edge26" class="edge">
<title>25&#45;&gt;26</title>
<path fill="none" stroke="black" d="M834.62,-441.83C828.05,-433.54 820.15,-423.56 812.94,-414.45"/>
<polygon fill="black" stroke="black" points="815.53,-412.08 806.58,-406.41 810.04,-416.43 815.53,-412.08"/>
</g>
<!-- 37 -->
<g id="node38" class="node">
<title>37</title>
<polygon fill="none" stroke="black" points="956,-406 856,-406 856,-368 956,-368 956,-406"/>
<text text-anchor="middle" x="906" y="-390.8" font-family="Times,serif" font-size="14.00">lon &lt;= &#45;96.557</text>
<text text-anchor="middle" x="906" y="-375.8" font-family="Times,serif" font-size="14.00">class = red</text>
</g>
<!-- 25&#45;&gt;37 -->
<g id="edge37" class="edge">
<title>25&#45;&gt;37</title>
<path fill="none" stroke="black" d="M863.38,-441.83C869.95,-433.54 877.85,-423.56 885.06,-414.45"/>
<polygon fill="black" stroke="black" points="887.96,-416.43 891.42,-406.41 882.47,-412.08 887.96,-416.43"/>
</g>
<!-- 27 -->
<g id="node28" class="node">
<title>27</title>
<polygon fill="none" stroke="black" points="738.5,-332 631.5,-332 631.5,-294 738.5,-294 738.5,-332"/>
<text text-anchor="middle" x="685" y="-316.8" font-family="Times,serif" font-size="14.00">lon &lt;= &#45;113.872</text>
<text text-anchor="middle" x="685" y="-301.8" font-family="Times,serif" font-size="14.00">class = blue</text>
</g>
<!-- 26&#45;&gt;27 -->
<g id="edge27" class="edge">
<title>26&#45;&gt;27</title>
<path fill="none" stroke="black" d="M765,-367.83C751.57,-358.79 735.15,-347.75 720.7,-338.02"/>
<polygon fill="black" stroke="black" points="722.24,-334.84 711.99,-332.16 718.33,-340.65 722.24,-334.84"/>
</g>
<!-- 32 -->
<g id="node33" class="node">
<title>32</title>
<polygon fill="none" stroke="black" points="841.5,-332 756.5,-332 756.5,-294 841.5,-294 841.5,-332"/>
<text text-anchor="middle" x="799" y="-316.8" font-family="Times,serif" font-size="14.00">lat &lt;= 45.33</text>
<text text-anchor="middle" x="799" y="-301.8" font-family="Times,serif" font-size="14.00">class = red</text>
</g>
<!-- 26&#45;&gt;32 -->
<g id="edge32" class="edge">
<title>26&#45;&gt;32</title>
<path fill="none" stroke="black" d="M793.77,-367.83C794.52,-360.13 795.41,-350.97 796.24,-342.42"/>
<polygon fill="black" stroke="black" points="799.73,-342.71 797.21,-332.41 792.76,-342.03 799.73,-342.71"/>
</g>
<!-- 28 -->
<g id="node29" class="node">
<title>28</title>
<polygon fill="none" stroke="black" points="614,-257 532,-257 532,-221 614,-221 614,-257"/>
<text text-anchor="middle" x="573" y="-235.3" font-family="Times,serif" font-size="14.00">class = blue</text>
</g>
<!-- 27&#45;&gt;28 -->
<g id="edge28" class="edge">
<title>27&#45;&gt;28</title>
<path fill="none" stroke="black" d="M656.74,-293.83C642.11,-284.43 624.11,-272.86 608.55,-262.85"/>
<polygon fill="black" stroke="black" points="610.02,-259.63 599.71,-257.17 606.23,-265.52 610.02,-259.63"/>
</g>
<!-- 29 -->
<g id="node30" class="node">
<title>29</title>
<polygon fill="none" stroke="black" points="739.5,-258 632.5,-258 632.5,-220 739.5,-220 739.5,-258"/>
<text text-anchor="middle" x="686" y="-242.8" font-family="Times,serif" font-size="14.00">lon &lt;= &#45;107.957</text>
<text text-anchor="middle" x="686" y="-227.8" font-family="Times,serif" font-size="14.00">class = blue</text>
</g>
<!-- 27&#45;&gt;29 -->
<g id="edge29" class="edge">
<title>27&#45;&gt;29</title>
<path fill="none" stroke="black" d="M685.25,-293.83C685.36,-286.13 685.49,-276.97 685.61,-268.42"/>
<polygon fill="black" stroke="black" points="689.1,-268.46 685.74,-258.41 682.11,-268.36 689.1,-268.46"/>
</g>
<!-- 30 -->
<g id="node31" class="node">
<title>30</title>
<polygon fill="none" stroke="black" points="716,-183 640,-183 640,-147 716,-147 716,-183"/>
<text text-anchor="middle" x="678" y="-161.3" font-family="Times,serif" font-size="14.00">class = red</text>
</g>
<!-- 29&#45;&gt;30 -->
<g id="edge30" class="edge">
<title>29&#45;&gt;30</title>
<path fill="none" stroke="black" d="M683.98,-219.83C683.1,-211.89 682.05,-202.41 681.07,-193.63"/>
<polygon fill="black" stroke="black" points="684.52,-192.97 679.94,-183.42 677.56,-193.74 684.52,-192.97"/>
</g>
<!-- 31 -->
<g id="node32" class="node">
<title>31</title>
<polygon fill="none" stroke="black" points="816,-183 734,-183 734,-147 816,-147 816,-183"/>
<text text-anchor="middle" x="775" y="-161.3" font-family="Times,serif" font-size="14.00">class = blue</text>
</g>
<!-- 29&#45;&gt;31 -->
<g id="edge31" class="edge">
<title>29&#45;&gt;31</title>
<path fill="none" stroke="black" d="M708.46,-219.83C719.76,-210.69 733.59,-199.5 745.71,-189.7"/>
<polygon fill="black" stroke="black" points="748.2,-192.18 753.77,-183.17 743.8,-186.74 748.2,-192.18"/>
</g>
<!-- 33 -->
<g id="node34" class="node">
<title>33</title>
<polygon fill="none" stroke="black" points="834,-257 758,-257 758,-221 834,-221 834,-257"/>
<text text-anchor="middle" x="796" y="-235.3" font-family="Times,serif" font-size="14.00">class = red</text>
</g>
<!-- 32&#45;&gt;33 -->
<g id="edge33" class="edge">
<title>32&#45;&gt;33</title>
<path fill="none" stroke="black" d="M798.24,-293.83C797.91,-285.89 797.52,-276.41 797.15,-267.63"/>
<polygon fill="black" stroke="black" points="800.64,-267.26 796.73,-257.42 793.65,-267.55 800.64,-267.26"/>
</g>
<!-- 34 -->
<g id="node35" class="node">
<title>34</title>
<polygon fill="none" stroke="black" points="944,-258 852,-258 852,-220 944,-220 944,-258"/>
<text text-anchor="middle" x="898" y="-242.8" font-family="Times,serif" font-size="14.00">lat &lt;= 50.907</text>
<text text-anchor="middle" x="898" y="-227.8" font-family="Times,serif" font-size="14.00">class = blue</text>
</g>
<!-- 32&#45;&gt;34 -->
<g id="edge34" class="edge">
<title>32&#45;&gt;34</title>
<path fill="none" stroke="black" d="M823.98,-293.83C836.29,-284.88 851.31,-273.96 864.59,-264.3"/>
<polygon fill="black" stroke="black" points="867,-266.88 873.03,-258.16 862.88,-261.21 867,-266.88"/>
</g>
<!-- 35 -->
<g id="node36" class="node">
<title>35</title>
<polygon fill="none" stroke="black" points="925,-183 843,-183 843,-147 925,-147 925,-183"/>
<text text-anchor="middle" x="884" y="-161.3" font-family="Times,serif" font-size="14.00">class = blue</text>
</g>
<!-- 34&#45;&gt;35 -->
<g id="edge35" class="edge">
<title>34&#45;&gt;35</title>
<path fill="none" stroke="black" d="M894.47,-219.83C892.91,-211.81 891.04,-202.2 889.32,-193.34"/>
<polygon fill="black" stroke="black" points="892.73,-192.57 887.39,-183.42 885.86,-193.9 892.73,-192.57"/>
</g>
<!-- 36 -->
<g id="node37" class="node">
<title>36</title>
<polygon fill="none" stroke="black" points="1019,-183 943,-183 943,-147 1019,-147 1019,-183"/>
<text text-anchor="middle" x="981" y="-161.3" font-family="Times,serif" font-size="14.00">class = red</text>
</g>
<!-- 34&#45;&gt;36 -->
<g id="edge36" class="edge">
<title>34&#45;&gt;36</title>
<path fill="none" stroke="black" d="M918.94,-219.83C929.38,-210.78 942.13,-199.72 953.36,-189.98"/>
<polygon fill="black" stroke="black" points="955.94,-192.37 961.21,-183.17 951.36,-187.08 955.94,-192.37"/>
</g>
<!-- 38 -->
<g id="node39" class="node">
<title>38</title>
<polygon fill="none" stroke="black" points="937,-331 861,-331 861,-295 937,-295 937,-331"/>
<text text-anchor="middle" x="899" y="-309.3" font-family="Times,serif" font-size="14.00">class = red</text>
</g>
<!-- 37&#45;&gt;38 -->
<g id="edge38" class="edge">
<title>37&#45;&gt;38</title>
<path fill="none" stroke="black" d="M904.23,-367.83C903.46,-359.89 902.54,-350.41 901.69,-341.63"/>
<polygon fill="black" stroke="black" points="905.14,-341.03 900.69,-331.42 898.18,-341.71 905.14,-341.03"/>
</g>
<!-- 39 -->
<g id="node40" class="node">
<title>39</title>
<polygon fill="none" stroke="black" points="1047,-332 955,-332 955,-294 1047,-294 1047,-332"/>
<text text-anchor="middle" x="1001" y="-316.8" font-family="Times,serif" font-size="14.00">lat &lt;= 42.007</text>
<text text-anchor="middle" x="1001" y="-301.8" font-family="Times,serif" font-size="14.00">class = blue</text>
</g>
<!-- 37&#45;&gt;39 -->
<g id="edge39" class="edge">
<title>37&#45;&gt;39</title>
<path fill="none" stroke="black" d="M929.97,-367.83C941.79,-358.88 956.2,-347.96 968.94,-338.3"/>
<polygon fill="black" stroke="black" points="971.18,-340.99 977.04,-332.16 966.95,-335.41 971.18,-340.99"/>
</g>
<!-- 40 -->
<g id="node41" class="node">
<title>40</title>
<polygon fill="none" stroke="black" points="1038,-257 962,-257 962,-221 1038,-221 1038,-257"/>
<text text-anchor="middle" x="1000" y="-235.3" font-family="Times,serif" font-size="14.00">class = red</text>
</g>
<!-- 39&#45;&gt;40 -->
<g id="edge40" class="edge">
<title>39&#45;&gt;40</title>
<path fill="none" stroke="black" d="M1000.75,-293.83C1000.64,-285.89 1000.51,-276.41 1000.38,-267.63"/>
<polygon fill="black" stroke="black" points="1003.88,-267.37 1000.24,-257.42 996.88,-267.47 1003.88,-267.37"/>
</g>
<!-- 41 -->
<g id="node42" class="node">
<title>41</title>
<polygon fill="none" stroke="black" points="1138,-257 1056,-257 1056,-221 1138,-221 1138,-257"/>
<text text-anchor="middle" x="1097" y="-235.3" font-family="Times,serif" font-size="14.00">class = blue</text>
</g>
<!-- 39&#45;&gt;41 -->
<g id="edge41" class="edge">
<title>39&#45;&gt;41</title>
<path fill="none" stroke="black" d="M1025.22,-293.83C1037.53,-284.6 1052.62,-273.29 1065.78,-263.41"/>
<polygon fill="black" stroke="black" points="1068.2,-265.97 1074.1,-257.17 1064,-260.37 1068.2,-265.97"/>
</g>
<!-- 43 -->
<g id="node44" class="node">
<title>43</title>
<polygon fill="none" stroke="black" points="1470,-406 1370,-406 1370,-368 1470,-368 1470,-406"/>
<text text-anchor="middle" x="1420" y="-390.8" font-family="Times,serif" font-size="14.00">lon &lt;= &#45;79.773</text>
<text text-anchor="middle" x="1420" y="-375.8" font-family="Times,serif" font-size="14.00">class = blue</text>
</g>
<!-- 42&#45;&gt;43 -->
<g id="edge43" class="edge">
<title>42&#45;&gt;43</title>
<path fill="none" stroke="black" d="M1420,-441.83C1420,-434.13 1420,-424.97 1420,-416.42"/>
<polygon fill="black" stroke="black" points="1423.5,-416.41 1420,-406.41 1416.5,-416.41 1423.5,-416.41"/>
</g>
<!-- 62 -->
<g id="node63" class="node">
<title>62</title>
<polygon fill="none" stroke="black" points="1768,-406 1668,-406 1668,-368 1768,-368 1768,-406"/>
<text text-anchor="middle" x="1718" y="-390.8" font-family="Times,serif" font-size="14.00">lon &lt;= &#45;84.905</text>
<text text-anchor="middle" x="1718" y="-375.8" font-family="Times,serif" font-size="14.00">class = blue</text>
</g>
<!-- 42&#45;&gt;62 -->
<g id="edge62" class="edge">
<title>42&#45;&gt;62</title>
<path fill="none" stroke="black" d="M1466.24,-448.83C1517.82,-436.36 1601.45,-416.16 1658.03,-402.49"/>
<polygon fill="black" stroke="black" points="1659.02,-405.85 1667.92,-400.1 1657.38,-399.05 1659.02,-405.85"/>
</g>
<!-- 44 -->
<g id="node45" class="node">
<title>44</title>
<polygon fill="none" stroke="black" points="1395,-332 1295,-332 1295,-294 1395,-294 1395,-332"/>
<text text-anchor="middle" x="1345" y="-316.8" font-family="Times,serif" font-size="14.00">lon &lt;= &#45;87.643</text>
<text text-anchor="middle" x="1345" y="-301.8" font-family="Times,serif" font-size="14.00">class = red</text>
</g>
<!-- 43&#45;&gt;44 -->
<g id="edge44" class="edge">
<title>43&#45;&gt;44</title>
<path fill="none" stroke="black" d="M1401.07,-367.83C1392.01,-359.13 1381.02,-348.58 1371.17,-339.13"/>
<polygon fill="black" stroke="black" points="1373.56,-336.56 1363.92,-332.16 1368.71,-341.61 1373.56,-336.56"/>
</g>
<!-- 57 -->
<g id="node58" class="node">
<title>57</title>
<polygon fill="none" stroke="black" points="1550,-332 1450,-332 1450,-294 1550,-294 1550,-332"/>
<text text-anchor="middle" x="1500" y="-316.8" font-family="Times,serif" font-size="14.00">lon &lt;= &#45;78.395</text>
<text text-anchor="middle" x="1500" y="-301.8" font-family="Times,serif" font-size="14.00">class = blue</text>
</g>
<!-- 43&#45;&gt;57 -->
<g id="edge57" class="edge">
<title>43&#45;&gt;57</title>
<path fill="none" stroke="black" d="M1440.19,-367.83C1449.85,-359.13 1461.58,-348.58 1472.08,-339.13"/>
<polygon fill="black" stroke="black" points="1474.73,-341.45 1479.82,-332.16 1470.04,-336.25 1474.73,-341.45"/>
</g>
<!-- 45 -->
<g id="node46" class="node">
<title>45</title>
<polygon fill="none" stroke="black" points="1249.5,-258 1156.5,-258 1156.5,-220 1249.5,-220 1249.5,-258"/>
<text text-anchor="middle" x="1203" y="-242.8" font-family="Times,serif" font-size="14.00">lon &lt;= &#45;90.12</text>
<text text-anchor="middle" x="1203" y="-227.8" font-family="Times,serif" font-size="14.00">class = blue</text>
</g>
<!-- 44&#45;&gt;45 -->
<g id="edge45" class="edge">
<title>44&#45;&gt;45</title>
<path fill="none" stroke="black" d="M1309.17,-293.83C1290.58,-284.41 1267.7,-272.81 1247.94,-262.79"/>
<polygon fill="black" stroke="black" points="1249.32,-259.56 1238.82,-258.16 1246.16,-265.81 1249.32,-259.56"/>
</g>
<!-- 52 -->
<g id="node53" class="node">
<title>52</title>
<polygon fill="none" stroke="black" points="1391,-258 1299,-258 1299,-220 1391,-220 1391,-258"/>
<text text-anchor="middle" x="1345" y="-242.8" font-family="Times,serif" font-size="14.00">lat &lt;= 38.562</text>
<text text-anchor="middle" x="1345" y="-227.8" font-family="Times,serif" font-size="14.00">class = red</text>
</g>
<!-- 44&#45;&gt;52 -->
<g id="edge52" class="edge">
<title>44&#45;&gt;52</title>
<path fill="none" stroke="black" d="M1345,-293.83C1345,-286.13 1345,-276.97 1345,-268.42"/>
<polygon fill="black" stroke="black" points="1348.5,-268.41 1345,-258.41 1341.5,-268.41 1348.5,-268.41"/>
</g>
<!-- 46 -->
<g id="node47" class="node">
<title>46</title>
<polygon fill="none" stroke="black" points="1141,-184 1041,-184 1041,-146 1141,-146 1141,-184"/>
<text text-anchor="middle" x="1091" y="-168.8" font-family="Times,serif" font-size="14.00">lon &lt;= &#45;90.841</text>
<text text-anchor="middle" x="1091" y="-153.8" font-family="Times,serif" font-size="14.00">class = red</text>
</g>
<!-- 45&#45;&gt;46 -->
<g id="edge46" class="edge">
<title>45&#45;&gt;46</title>
<path fill="none" stroke="black" d="M1174.74,-219.83C1160.54,-210.71 1143.17,-199.54 1127.94,-189.74"/>
<polygon fill="black" stroke="black" points="1129.56,-186.63 1119.25,-184.16 1125.77,-192.51 1129.56,-186.63"/>
</g>
<!-- 51 -->
<g id="node52" class="node">
<title>51</title>
<polygon fill="none" stroke="black" points="1241,-183 1159,-183 1159,-147 1241,-147 1241,-183"/>
<text text-anchor="middle" x="1200" y="-161.3" font-family="Times,serif" font-size="14.00">class = blue</text>
</g>
<!-- 45&#45;&gt;51 -->
<g id="edge51" class="edge">
<title>45&#45;&gt;51</title>
<path fill="none" stroke="black" d="M1202.24,-219.83C1201.91,-211.89 1201.52,-202.41 1201.15,-193.63"/>
<polygon fill="black" stroke="black" points="1204.64,-193.26 1200.73,-183.42 1197.65,-193.55 1204.64,-193.26"/>
</g>
<!-- 47 -->
<g id="node48" class="node">
<title>47</title>
<polygon fill="none" stroke="black" points="1080,-109 1004,-109 1004,-73 1080,-73 1080,-109"/>
<text text-anchor="middle" x="1042" y="-87.3" font-family="Times,serif" font-size="14.00">class = red</text>
</g>
<!-- 46&#45;&gt;47 -->
<g id="edge47" class="edge">
<title>46&#45;&gt;47</title>
<path fill="none" stroke="black" d="M1078.64,-145.83C1072.88,-137.37 1065.92,-127.15 1059.63,-117.9"/>
<polygon fill="black" stroke="black" points="1062.37,-115.72 1053.85,-109.42 1056.59,-119.65 1062.37,-115.72"/>
</g>
<!-- 48 -->
<g id="node49" class="node">
<title>48</title>
<polygon fill="none" stroke="black" points="1183.5,-110 1098.5,-110 1098.5,-72 1183.5,-72 1183.5,-110"/>
<text text-anchor="middle" x="1141" y="-94.8" font-family="Times,serif" font-size="14.00">lat &lt;= 38.85</text>
<text text-anchor="middle" x="1141" y="-79.8" font-family="Times,serif" font-size="14.00">class = blue</text>
</g>
<!-- 46&#45;&gt;48 -->
<g id="edge48" class="edge">
<title>46&#45;&gt;48</title>
<path fill="none" stroke="black" d="M1103.62,-145.83C1109.32,-137.62 1116.17,-127.76 1122.44,-118.73"/>
<polygon fill="black" stroke="black" points="1125.38,-120.62 1128.21,-110.41 1119.63,-116.63 1125.38,-120.62"/>
</g>
<!-- 49 -->
<g id="node50" class="node">
<title>49</title>
<polygon fill="none" stroke="black" points="1131,-36 1055,-36 1055,0 1131,0 1131,-36"/>
<text text-anchor="middle" x="1093" y="-14.3" font-family="Times,serif" font-size="14.00">class = red</text>
</g>
<!-- 48&#45;&gt;49 -->
<g id="edge49" class="edge">
<title>48&#45;&gt;49</title>
<path fill="none" stroke="black" d="M1128.64,-71.72C1123,-63.37 1116.22,-53.35 1110.1,-44.3"/>
<polygon fill="black" stroke="black" points="1113,-42.33 1104.5,-36 1107.2,-46.25 1113,-42.33"/>
</g>
<!-- 50 -->
<g id="node51" class="node">
<title>50</title>
<polygon fill="none" stroke="black" points="1231,-36 1149,-36 1149,0 1231,0 1231,-36"/>
<text text-anchor="middle" x="1190" y="-14.3" font-family="Times,serif" font-size="14.00">class = blue</text>
</g>
<!-- 48&#45;&gt;50 -->
<g id="edge50" class="edge">
<title>48&#45;&gt;50</title>
<path fill="none" stroke="black" d="M1153.62,-71.72C1159.38,-63.37 1166.29,-53.35 1172.54,-44.3"/>
<polygon fill="black" stroke="black" points="1175.47,-46.22 1178.27,-36 1169.7,-42.25 1175.47,-46.22"/>
</g>
<!-- 53 -->
<g id="node54" class="node">
<title>53</title>
<polygon fill="none" stroke="black" points="1351,-184 1259,-184 1259,-146 1351,-146 1351,-184"/>
<text text-anchor="middle" x="1305" y="-168.8" font-family="Times,serif" font-size="14.00">lat &lt;= 38.324</text>
<text text-anchor="middle" x="1305" y="-153.8" font-family="Times,serif" font-size="14.00">class = red</text>
</g>
<!-- 52&#45;&gt;53 -->
<g id="edge53" class="edge">
<title>52&#45;&gt;53</title>
<path fill="none" stroke="black" d="M1334.91,-219.83C1330.44,-211.79 1325.09,-202.17 1320.16,-193.29"/>
<polygon fill="black" stroke="black" points="1323.15,-191.46 1315.23,-184.41 1317.03,-194.85 1323.15,-191.46"/>
</g>
<!-- 56 -->
<g id="node57" class="node">
<title>56</title>
<polygon fill="none" stroke="black" points="1445,-183 1369,-183 1369,-147 1445,-147 1445,-183"/>
<text text-anchor="middle" x="1407" y="-161.3" font-family="Times,serif" font-size="14.00">class = red</text>
</g>
<!-- 52&#45;&gt;56 -->
<g id="edge56" class="edge">
<title>52&#45;&gt;56</title>
<path fill="none" stroke="black" d="M1360.65,-219.83C1368.16,-211.11 1377.28,-200.52 1385.43,-191.05"/>
<polygon fill="black" stroke="black" points="1388.13,-193.28 1392,-183.42 1382.82,-188.71 1388.13,-193.28"/>
</g>
<!-- 54 -->
<g id="node55" class="node">
<title>54</title>
<polygon fill="none" stroke="black" points="1335,-109 1259,-109 1259,-73 1335,-73 1335,-109"/>
<text text-anchor="middle" x="1297" y="-87.3" font-family="Times,serif" font-size="14.00">class = red</text>
</g>
<!-- 53&#45;&gt;54 -->
<g id="edge54" class="edge">
<title>53&#45;&gt;54</title>
<path fill="none" stroke="black" d="M1302.98,-145.83C1302.1,-137.89 1301.05,-128.41 1300.07,-119.63"/>
<polygon fill="black" stroke="black" points="1303.52,-118.97 1298.94,-109.42 1296.56,-119.74 1303.52,-118.97"/>
</g>
<!-- 55 -->
<g id="node56" class="node">
<title>55</title>
<polygon fill="none" stroke="black" points="1435,-109 1353,-109 1353,-73 1435,-73 1435,-109"/>
<text text-anchor="middle" x="1394" y="-87.3" font-family="Times,serif" font-size="14.00">class = blue</text>
</g>
<!-- 53&#45;&gt;55 -->
<g id="edge55" class="edge">
<title>53&#45;&gt;55</title>
<path fill="none" stroke="black" d="M1327.46,-145.83C1338.76,-136.69 1352.59,-125.5 1364.71,-115.7"/>
<polygon fill="black" stroke="black" points="1367.2,-118.18 1372.77,-109.17 1362.8,-112.74 1367.2,-118.18"/>
</g>
<!-- 58 -->
<g id="node59" class="node">
<title>58</title>
<polygon fill="none" stroke="black" points="1550,-258 1450,-258 1450,-220 1550,-220 1550,-258"/>
<text text-anchor="middle" x="1500" y="-242.8" font-family="Times,serif" font-size="14.00">lon &lt;= &#45;78.878</text>
<text text-anchor="middle" x="1500" y="-227.8" font-family="Times,serif" font-size="14.00">class = blue</text>
</g>
<!-- 57&#45;&gt;58 -->
<g id="edge58" class="edge">
<title>57&#45;&gt;58</title>
<path fill="none" stroke="black" d="M1500,-293.83C1500,-286.13 1500,-276.97 1500,-268.42"/>
<polygon fill="black" stroke="black" points="1503.5,-268.41 1500,-258.41 1496.5,-268.41 1503.5,-268.41"/>
</g>
<!-- 61 -->
<g id="node62" class="node">
<title>61</title>
<polygon fill="none" stroke="black" points="1650,-257 1568,-257 1568,-221 1650,-221 1650,-257"/>
<text text-anchor="middle" x="1609" y="-235.3" font-family="Times,serif" font-size="14.00">class = blue</text>
</g>
<!-- 57&#45;&gt;61 -->
<g id="edge61" class="edge">
<title>57&#45;&gt;61</title>
<path fill="none" stroke="black" d="M1527.51,-293.83C1541.74,-284.43 1559.26,-272.86 1574.41,-262.85"/>
<polygon fill="black" stroke="black" points="1576.59,-265.6 1583,-257.17 1572.73,-259.76 1576.59,-265.6"/>
</g>
<!-- 59 -->
<g id="node60" class="node">
<title>59</title>
<polygon fill="none" stroke="black" points="1545,-183 1463,-183 1463,-147 1545,-147 1545,-183"/>
<text text-anchor="middle" x="1504" y="-161.3" font-family="Times,serif" font-size="14.00">class = blue</text>
</g>
<!-- 58&#45;&gt;59 -->
<g id="edge59" class="edge">
<title>58&#45;&gt;59</title>
<path fill="none" stroke="black" d="M1501.01,-219.83C1501.45,-211.89 1501.98,-202.41 1502.47,-193.63"/>
<polygon fill="black" stroke="black" points="1505.97,-193.6 1503.03,-183.42 1498.98,-193.21 1505.97,-193.6"/>
</g>
<!-- 60 -->
<g id="node61" class="node">
<title>60</title>
<polygon fill="none" stroke="black" points="1639,-183 1563,-183 1563,-147 1639,-147 1639,-183"/>
<text text-anchor="middle" x="1601" y="-161.3" font-family="Times,serif" font-size="14.00">class = red</text>
</g>
<!-- 58&#45;&gt;60 -->
<g id="edge60" class="edge">
<title>58&#45;&gt;60</title>
<path fill="none" stroke="black" d="M1525.49,-219.83C1538.55,-210.52 1554.61,-199.07 1568.55,-189.13"/>
<polygon fill="black" stroke="black" points="1570.8,-191.83 1576.91,-183.17 1566.74,-186.13 1570.8,-191.83"/>
</g>
<!-- 63 -->
<g id="node64" class="node">
<title>63</title>
<polygon fill="none" stroke="black" points="1764,-332 1672,-332 1672,-294 1764,-294 1764,-332"/>
<text text-anchor="middle" x="1718" y="-316.8" font-family="Times,serif" font-size="14.00">lat &lt;= 41.739</text>
<text text-anchor="middle" x="1718" y="-301.8" font-family="Times,serif" font-size="14.00">class = blue</text>
</g>
<!-- 62&#45;&gt;63 -->
<g id="edge63" class="edge">
<title>62&#45;&gt;63</title>
<path fill="none" stroke="black" d="M1718,-367.83C1718,-360.13 1718,-350.97 1718,-342.42"/>
<polygon fill="black" stroke="black" points="1721.5,-342.41 1718,-332.41 1714.5,-342.41 1721.5,-342.41"/>
</g>
<!-- 72 -->
<g id="node73" class="node">
<title>72</title>
<polygon fill="none" stroke="black" points="1864,-331 1782,-331 1782,-295 1864,-295 1864,-331"/>
<text text-anchor="middle" x="1823" y="-309.3" font-family="Times,serif" font-size="14.00">class = blue</text>
</g>
<!-- 62&#45;&gt;72 -->
<g id="edge72" class="edge">
<title>62&#45;&gt;72</title>
<path fill="none" stroke="black" d="M1744.5,-367.83C1758.21,-358.43 1775.09,-346.86 1789.67,-336.85"/>
<polygon fill="black" stroke="black" points="1791.69,-339.71 1797.96,-331.17 1787.73,-333.94 1791.69,-339.71"/>
</g>
<!-- 64 -->
<g id="node65" class="node">
<title>64</title>
<polygon fill="none" stroke="black" points="1768,-258 1668,-258 1668,-220 1768,-220 1768,-258"/>
<text text-anchor="middle" x="1718" y="-242.8" font-family="Times,serif" font-size="14.00">lon &lt;= &#45;87.697</text>
<text text-anchor="middle" x="1718" y="-227.8" font-family="Times,serif" font-size="14.00">class = blue</text>
</g>
<!-- 63&#45;&gt;64 -->
<g id="edge64" class="edge">
<title>63&#45;&gt;64</title>
<path fill="none" stroke="black" d="M1718,-293.83C1718,-286.13 1718,-276.97 1718,-268.42"/>
<polygon fill="black" stroke="black" points="1721.5,-268.41 1718,-258.41 1714.5,-268.41 1721.5,-268.41"/>
</g>
<!-- 71 -->
<g id="node72" class="node">
<title>71</title>
<polygon fill="none" stroke="black" points="1868,-257 1786,-257 1786,-221 1868,-221 1868,-257"/>
<text text-anchor="middle" x="1827" y="-235.3" font-family="Times,serif" font-size="14.00">class = blue</text>
</g>
<!-- 63&#45;&gt;71 -->
<g id="edge71" class="edge">
<title>63&#45;&gt;71</title>
<path fill="none" stroke="black" d="M1745.51,-293.83C1759.74,-284.43 1777.26,-272.86 1792.41,-262.85"/>
<polygon fill="black" stroke="black" points="1794.59,-265.6 1801,-257.17 1790.73,-259.76 1794.59,-265.6"/>
</g>
<!-- 65 -->
<g id="node66" class="node">
<title>65</title>
<polygon fill="none" stroke="black" points="1764,-184 1664,-184 1664,-146 1764,-146 1764,-184"/>
<text text-anchor="middle" x="1714" y="-168.8" font-family="Times,serif" font-size="14.00">lon &lt;= &#45;91.379</text>
<text text-anchor="middle" x="1714" y="-153.8" font-family="Times,serif" font-size="14.00">class = blue</text>
</g>
<!-- 64&#45;&gt;65 -->
<g id="edge65" class="edge">
<title>64&#45;&gt;65</title>
<path fill="none" stroke="black" d="M1716.99,-219.83C1716.56,-212.13 1716.05,-202.97 1715.58,-194.42"/>
<polygon fill="black" stroke="black" points="1719.07,-194.2 1715.02,-184.41 1712.08,-194.59 1719.07,-194.2"/>
</g>
<!-- 70 -->
<g id="node71" class="node">
<title>70</title>
<polygon fill="none" stroke="black" points="1858,-183 1782,-183 1782,-147 1858,-147 1858,-183"/>
<text text-anchor="middle" x="1820" y="-161.3" font-family="Times,serif" font-size="14.00">class = red</text>
</g>
<!-- 64&#45;&gt;70 -->
<g id="edge70" class="edge">
<title>64&#45;&gt;70</title>
<path fill="none" stroke="black" d="M1743.74,-219.83C1756.93,-210.52 1773.15,-199.07 1787.23,-189.13"/>
<polygon fill="black" stroke="black" points="1789.52,-191.8 1795.67,-183.17 1785.49,-186.08 1789.52,-191.8"/>
</g>
<!-- 66 -->
<g id="node67" class="node">
<title>66</title>
<polygon fill="none" stroke="black" points="1709,-110 1609,-110 1609,-72 1709,-72 1709,-110"/>
<text text-anchor="middle" x="1659" y="-94.8" font-family="Times,serif" font-size="14.00">lon &lt;= &#45;95.317</text>
<text text-anchor="middle" x="1659" y="-79.8" font-family="Times,serif" font-size="14.00">class = red</text>
</g>
<!-- 65&#45;&gt;66 -->
<g id="edge66" class="edge">
<title>65&#45;&gt;66</title>
<path fill="none" stroke="black" d="M1700.12,-145.83C1693.79,-137.54 1686.16,-127.56 1679.21,-118.45"/>
<polygon fill="black" stroke="black" points="1681.92,-116.24 1673.07,-110.41 1676.35,-120.48 1681.92,-116.24"/>
</g>
<!-- 69 -->
<g id="node70" class="node">
<title>69</title>
<polygon fill="none" stroke="black" points="1809,-109 1727,-109 1727,-73 1809,-73 1809,-109"/>
<text text-anchor="middle" x="1768" y="-87.3" font-family="Times,serif" font-size="14.00">class = blue</text>
</g>
<!-- 65&#45;&gt;69 -->
<g id="edge69" class="edge">
<title>65&#45;&gt;69</title>
<path fill="none" stroke="black" d="M1727.63,-145.83C1734.04,-137.28 1741.79,-126.94 1748.79,-117.62"/>
<polygon fill="black" stroke="black" points="1751.74,-119.52 1754.94,-109.42 1746.14,-115.32 1751.74,-119.52"/>
</g>
<!-- 67 -->
<g id="node68" class="node">
<title>67</title>
<polygon fill="none" stroke="black" points="1651,-36 1569,-36 1569,0 1651,0 1651,-36"/>
<text text-anchor="middle" x="1610" y="-14.3" font-family="Times,serif" font-size="14.00">class = blue</text>
</g>
<!-- 66&#45;&gt;67 -->
<g id="edge67" class="edge">
<title>66&#45;&gt;67</title>
<path fill="none" stroke="black" d="M1646.38,-71.72C1640.62,-63.37 1633.71,-53.35 1627.46,-44.3"/>
<polygon fill="black" stroke="black" points="1630.3,-42.25 1621.73,-36 1624.53,-46.22 1630.3,-42.25"/>
</g>
<!-- 68 -->
<g id="node69" class="node">
<title>68</title>
<polygon fill="none" stroke="black" points="1745,-36 1669,-36 1669,0 1745,0 1745,-36"/>
<text text-anchor="middle" x="1707" y="-14.3" font-family="Times,serif" font-size="14.00">class = red</text>
</g>
<!-- 66&#45;&gt;68 -->
<g id="edge68" class="edge">
<title>66&#45;&gt;68</title>
<path fill="none" stroke="black" d="M1671.36,-71.72C1677,-63.37 1683.78,-53.35 1689.9,-44.3"/>
<polygon fill="black" stroke="black" points="1692.8,-46.25 1695.5,-36 1687,-42.33 1692.8,-46.25"/>
</g>
</g>
</svg>
