<?xml version="1.0" encoding="UTF-8" standalone="no"?>
<!DOCTYPE svg PUBLIC "-//W3C//DTD SVG 1.1//EN"
 "http://www.w3.org/Graphics/SVG/1.1/DTD/svg11.dtd">
<!-- Generated by graphviz version 2.44.1 (20200629.0846)
 -->
<!-- Title: Tree Pages: 1 -->
<svg width="1125pt" height="932pt"
 viewBox="0.00 0.00 1124.50 932.00" xmlns="http://www.w3.org/2000/svg" xmlns:xlink="http://www.w3.org/1999/xlink">
<g id="graph0" class="graph" transform="scale(1 1) rotate(0) translate(4 928)">
<title>Tree</title>
<polygon fill="white" stroke="transparent" points="-4,4 -4,-928 1120.5,-928 1120.5,4 -4,4"/>
<!-- 0 -->
<g id="node1" class="node">
<title>0</title>
<polygon fill="none" stroke="black" points="356.5,-924 251.5,-924 251.5,-886 356.5,-886 356.5,-924"/>
<text text-anchor="middle" x="304" y="-908.8" font-family="Times,serif" font-size="14.00">latitude &lt;= 42.9</text>
<text text-anchor="middle" x="304" y="-893.8" font-family="Times,serif" font-size="14.00">class = Canada</text>
</g>
<!-- 1 -->
<g id="node2" class="node">
<title>1</title>
<polygon fill="none" stroke="black" points="295.5,-850 176.5,-850 176.5,-812 295.5,-812 295.5,-850"/>
<text text-anchor="middle" x="236" y="-834.8" font-family="Times,serif" font-size="14.00">latitude &lt;= 42.096</text>
<text text-anchor="middle" x="236" y="-819.8" font-family="Times,serif" font-size="14.00">class = USA</text>
</g>
<!-- 0&#45;&gt;1 -->
<g id="edge1" class="edge">
<title>0&#45;&gt;1</title>
<path fill="none" stroke="black" d="M286.84,-885.83C278.85,-877.37 269.2,-867.15 260.46,-857.9"/>
<polygon fill="black" stroke="black" points="262.8,-855.28 253.39,-850.41 257.71,-860.09 262.8,-855.28"/>
<text text-anchor="middle" x="252.68" y="-871.7" font-family="Times,serif" font-size="14.00">True</text>
</g>
<!-- 6 -->
<g id="node7" class="node">
<title>6</title>
<polygon fill="none" stroke="black" points="432.5,-850 313.5,-850 313.5,-812 432.5,-812 432.5,-850"/>
<text text-anchor="middle" x="373" y="-834.8" font-family="Times,serif" font-size="14.00">latitude &lt;= 55.958</text>
<text text-anchor="middle" x="373" y="-819.8" font-family="Times,serif" font-size="14.00">class = Canada</text>
</g>
<!-- 0&#45;&gt;6 -->
<g id="edge6" class="edge">
<title>0&#45;&gt;6</title>
<path fill="none" stroke="black" d="M321.41,-885.83C329.52,-877.37 339.32,-867.15 348.18,-857.9"/>
<polygon fill="black" stroke="black" points="350.96,-860.05 355.35,-850.41 345.91,-855.21 350.96,-860.05"/>
<text text-anchor="middle" x="355.89" y="-871.71" font-family="Times,serif" font-size="14.00">False</text>
</g>
<!-- 2 -->
<g id="node3" class="node">
<title>2</title>
<polygon fill="none" stroke="black" points="160,-775 74,-775 74,-739 160,-739 160,-775"/>
<text text-anchor="middle" x="117" y="-753.3" font-family="Times,serif" font-size="14.00">class = USA</text>
</g>
<!-- 1&#45;&gt;2 -->
<g id="edge2" class="edge">
<title>1&#45;&gt;2</title>
<path fill="none" stroke="black" d="M205.97,-811.83C190.29,-802.34 170.94,-790.64 154.31,-780.57"/>
<polygon fill="black" stroke="black" points="155.75,-777.35 145.38,-775.17 152.12,-783.34 155.75,-777.35"/>
</g>
<!-- 3 -->
<g id="node4" class="node">
<title>3</title>
<polygon fill="none" stroke="black" points="297.5,-776 178.5,-776 178.5,-738 297.5,-738 297.5,-776"/>
<text text-anchor="middle" x="238" y="-760.8" font-family="Times,serif" font-size="14.00">latitude &lt;= 42.324</text>
<text text-anchor="middle" x="238" y="-745.8" font-family="Times,serif" font-size="14.00">class = USA</text>
</g>
<!-- 1&#45;&gt;3 -->
<g id="edge3" class="edge">
<title>1&#45;&gt;3</title>
<path fill="none" stroke="black" d="M236.5,-811.83C236.72,-804.13 236.97,-794.97 237.21,-786.42"/>
<polygon fill="black" stroke="black" points="240.71,-786.51 237.49,-776.41 233.71,-786.31 240.71,-786.51"/>
</g>
<!-- 4 -->
<g id="node5" class="node">
<title>4</title>
<polygon fill="none" stroke="black" points="177.5,-701 78.5,-701 78.5,-665 177.5,-665 177.5,-701"/>
<text text-anchor="middle" x="128" y="-679.3" font-family="Times,serif" font-size="14.00">class = Canada</text>
</g>
<!-- 3&#45;&gt;4 -->
<g id="edge4" class="edge">
<title>3&#45;&gt;4</title>
<path fill="none" stroke="black" d="M210.24,-737.83C195.88,-728.43 178.2,-716.86 162.91,-706.85"/>
<polygon fill="black" stroke="black" points="164.52,-703.72 154.23,-701.17 160.68,-709.58 164.52,-703.72"/>
</g>
<!-- 5 -->
<g id="node6" class="node">
<title>5</title>
<polygon fill="none" stroke="black" points="282,-701 196,-701 196,-665 282,-665 282,-701"/>
<text text-anchor="middle" x="239" y="-679.3" font-family="Times,serif" font-size="14.00">class = USA</text>
</g>
<!-- 3&#45;&gt;5 -->
<g id="edge5" class="edge">
<title>3&#45;&gt;5</title>
<path fill="none" stroke="black" d="M238.25,-737.83C238.36,-729.89 238.49,-720.41 238.62,-711.63"/>
<polygon fill="black" stroke="black" points="242.12,-711.47 238.76,-701.42 235.12,-711.37 242.12,-711.47"/>
</g>
<!-- 7 -->
<g id="node8" class="node">
<title>7</title>
<polygon fill="none" stroke="black" points="424.5,-776 319.5,-776 319.5,-738 424.5,-738 424.5,-776"/>
<text text-anchor="middle" x="372" y="-760.8" font-family="Times,serif" font-size="14.00">latitude &lt;= 49.0</text>
<text text-anchor="middle" x="372" y="-745.8" font-family="Times,serif" font-size="14.00">class = Canada</text>
</g>
<!-- 6&#45;&gt;7 -->
<g id="edge7" class="edge">
<title>6&#45;&gt;7</title>
<path fill="none" stroke="black" d="M372.75,-811.83C372.64,-804.13 372.51,-794.97 372.39,-786.42"/>
<polygon fill="black" stroke="black" points="375.89,-786.36 372.26,-776.41 368.9,-786.46 375.89,-786.36"/>
</g>
<!-- 54 -->
<g id="node55" class="node">
<title>54</title>
<polygon fill="none" stroke="black" points="529,-775 443,-775 443,-739 529,-739 529,-775"/>
<text text-anchor="middle" x="486" y="-753.3" font-family="Times,serif" font-size="14.00">class = USA</text>
</g>
<!-- 6&#45;&gt;54 -->
<g id="edge54" class="edge">
<title>6&#45;&gt;54</title>
<path fill="none" stroke="black" d="M401.51,-811.83C416.41,-802.34 434.78,-790.64 450.58,-780.57"/>
<polygon fill="black" stroke="black" points="452.5,-783.5 459.05,-775.17 448.74,-777.59 452.5,-783.5"/>
</g>
<!-- 8 -->
<g id="node9" class="node">
<title>8</title>
<polygon fill="none" stroke="black" points="438,-702 304,-702 304,-664 438,-664 438,-702"/>
<text text-anchor="middle" x="371" y="-686.8" font-family="Times,serif" font-size="14.00">longitude &lt;= &#45;94.582</text>
<text text-anchor="middle" x="371" y="-671.8" font-family="Times,serif" font-size="14.00">class = Canada</text>
</g>
<!-- 7&#45;&gt;8 -->
<g id="edge8" class="edge">
<title>7&#45;&gt;8</title>
<path fill="none" stroke="black" d="M371.75,-737.83C371.64,-730.13 371.51,-720.97 371.39,-712.42"/>
<polygon fill="black" stroke="black" points="374.89,-712.36 371.26,-702.41 367.9,-712.46 374.89,-712.36"/>
</g>
<!-- 53 -->
<g id="node54" class="node">
<title>53</title>
<polygon fill="none" stroke="black" points="555.5,-701 456.5,-701 456.5,-665 555.5,-665 555.5,-701"/>
<text text-anchor="middle" x="506" y="-679.3" font-family="Times,serif" font-size="14.00">class = Canada</text>
</g>
<!-- 7&#45;&gt;53 -->
<g id="edge53" class="edge">
<title>7&#45;&gt;53</title>
<path fill="none" stroke="black" d="M405.81,-737.83C423.8,-728.17 446.06,-716.2 465.03,-706.01"/>
<polygon fill="black" stroke="black" points="466.89,-708.99 474.04,-701.17 463.58,-702.82 466.89,-708.99"/>
</g>
<!-- 9 -->
<g id="node10" class="node">
<title>9</title>
<polygon fill="none" stroke="black" points="364,-628 224,-628 224,-590 364,-590 364,-628"/>
<text text-anchor="middle" x="294" y="-612.8" font-family="Times,serif" font-size="14.00">longitude &lt;= &#45;123.222</text>
<text text-anchor="middle" x="294" y="-597.8" font-family="Times,serif" font-size="14.00">class = USA</text>
</g>
<!-- 8&#45;&gt;9 -->
<g id="edge9" class="edge">
<title>8&#45;&gt;9</title>
<path fill="none" stroke="black" d="M351.57,-663.83C342.27,-655.13 330.98,-644.58 320.87,-635.13"/>
<polygon fill="black" stroke="black" points="323.12,-632.44 313.42,-628.16 318.34,-637.55 323.12,-632.44"/>
</g>
<!-- 12 -->
<g id="node13" class="node">
<title>12</title>
<polygon fill="none" stroke="black" points="516,-628 382,-628 382,-590 516,-590 516,-628"/>
<text text-anchor="middle" x="449" y="-612.8" font-family="Times,serif" font-size="14.00">longitude &lt;= &#45;69.246</text>
<text text-anchor="middle" x="449" y="-597.8" font-family="Times,serif" font-size="14.00">class = Canada</text>
</g>
<!-- 8&#45;&gt;12 -->
<g id="edge12" class="edge">
<title>8&#45;&gt;12</title>
<path fill="none" stroke="black" d="M390.68,-663.83C400.11,-655.13 411.54,-644.58 421.78,-635.13"/>
<polygon fill="black" stroke="black" points="424.35,-637.52 429.32,-628.16 419.6,-632.37 424.35,-637.52"/>
</g>
<!-- 10 -->
<g id="node11" class="node">
<title>10</title>
<polygon fill="none" stroke="black" points="241.5,-553 142.5,-553 142.5,-517 241.5,-517 241.5,-553"/>
<text text-anchor="middle" x="192" y="-531.3" font-family="Times,serif" font-size="14.00">class = Canada</text>
</g>
<!-- 9&#45;&gt;10 -->
<g id="edge10" class="edge">
<title>9&#45;&gt;10</title>
<path fill="none" stroke="black" d="M268.26,-589.83C255.07,-580.52 238.85,-569.07 224.77,-559.13"/>
<polygon fill="black" stroke="black" points="226.51,-556.08 216.33,-553.17 222.48,-561.8 226.51,-556.08"/>
</g>
<!-- 11 -->
<g id="node12" class="node">
<title>11</title>
<polygon fill="none" stroke="black" points="346,-553 260,-553 260,-517 346,-517 346,-553"/>
<text text-anchor="middle" x="303" y="-531.3" font-family="Times,serif" font-size="14.00">class = USA</text>
</g>
<!-- 9&#45;&gt;11 -->
<g id="edge11" class="edge">
<title>9&#45;&gt;11</title>
<path fill="none" stroke="black" d="M296.27,-589.83C297.26,-581.89 298.45,-572.41 299.55,-563.63"/>
<polygon fill="black" stroke="black" points="303.06,-563.77 300.82,-553.42 296.11,-562.91 303.06,-563.77"/>
</g>
<!-- 13 -->
<g id="node14" class="node">
<title>13</title>
<polygon fill="none" stroke="black" points="500.5,-554 381.5,-554 381.5,-516 500.5,-516 500.5,-554"/>
<text text-anchor="middle" x="441" y="-538.8" font-family="Times,serif" font-size="14.00">latitude &lt;= 43.093</text>
<text text-anchor="middle" x="441" y="-523.8" font-family="Times,serif" font-size="14.00">class = Canada</text>
</g>
<!-- 12&#45;&gt;13 -->
<g id="edge13" class="edge">
<title>12&#45;&gt;13</title>
<path fill="none" stroke="black" d="M446.98,-589.83C446.13,-582.13 445.11,-572.97 444.16,-564.42"/>
<polygon fill="black" stroke="black" points="447.63,-563.97 443.05,-554.41 440.67,-564.74 447.63,-563.97"/>
</g>
<!-- 36 -->
<g id="node37" class="node">
<title>36</title>
<polygon fill="none" stroke="black" points="758,-554 624,-554 624,-516 758,-516 758,-554"/>
<text text-anchor="middle" x="691" y="-538.8" font-family="Times,serif" font-size="14.00">longitude &lt;= &#45;66.952</text>
<text text-anchor="middle" x="691" y="-523.8" font-family="Times,serif" font-size="14.00">class = Canada</text>
</g>
<!-- 12&#45;&gt;36 -->
<g id="edge36" class="edge">
<title>12&#45;&gt;36</title>
<path fill="none" stroke="black" d="M509.75,-589.92C543.41,-579.91 585.42,-567.41 620.52,-556.97"/>
<polygon fill="black" stroke="black" points="621.63,-560.29 630.22,-554.08 619.64,-553.58 621.63,-560.29"/>
</g>
<!-- 14 -->
<g id="node15" class="node">
<title>14</title>
<polygon fill="none" stroke="black" points="360.5,-480 241.5,-480 241.5,-442 360.5,-442 360.5,-480"/>
<text text-anchor="middle" x="301" y="-464.8" font-family="Times,serif" font-size="14.00">latitude &lt;= 43.014</text>
<text text-anchor="middle" x="301" y="-449.8" font-family="Times,serif" font-size="14.00">class = Canada</text>
</g>
<!-- 13&#45;&gt;14 -->
<g id="edge14" class="edge">
<title>13&#45;&gt;14</title>
<path fill="none" stroke="black" d="M405.67,-515.83C387.35,-506.41 364.79,-494.81 345.31,-484.79"/>
<polygon fill="black" stroke="black" points="346.81,-481.62 336.32,-480.16 343.61,-487.85 346.81,-481.62"/>
</g>
<!-- 19 -->
<g id="node20" class="node">
<title>19</title>
<polygon fill="none" stroke="black" points="500.5,-480 381.5,-480 381.5,-442 500.5,-442 500.5,-480"/>
<text text-anchor="middle" x="441" y="-464.8" font-family="Times,serif" font-size="14.00">latitude &lt;= 44.992</text>
<text text-anchor="middle" x="441" y="-449.8" font-family="Times,serif" font-size="14.00">class = Canada</text>
</g>
<!-- 13&#45;&gt;19 -->
<g id="edge19" class="edge">
<title>13&#45;&gt;19</title>
<path fill="none" stroke="black" d="M441,-515.83C441,-508.13 441,-498.97 441,-490.42"/>
<polygon fill="black" stroke="black" points="444.5,-490.41 441,-480.41 437.5,-490.41 444.5,-490.41"/>
</g>
<!-- 15 -->
<g id="node16" class="node">
<title>15</title>
<polygon fill="none" stroke="black" points="221,-406 87,-406 87,-368 221,-368 221,-406"/>
<text text-anchor="middle" x="154" y="-390.8" font-family="Times,serif" font-size="14.00">longitude &lt;= &#45;81.845</text>
<text text-anchor="middle" x="154" y="-375.8" font-family="Times,serif" font-size="14.00">class = Canada</text>
</g>
<!-- 14&#45;&gt;15 -->
<g id="edge15" class="edge">
<title>14&#45;&gt;15</title>
<path fill="none" stroke="black" d="M263.91,-441.83C244.51,-432.33 220.58,-420.61 200.01,-410.54"/>
<polygon fill="black" stroke="black" points="201.35,-407.29 190.83,-406.04 198.27,-413.58 201.35,-407.29"/>
</g>
<!-- 18 -->
<g id="node19" class="node">
<title>18</title>
<polygon fill="none" stroke="black" points="344,-405 258,-405 258,-369 344,-369 344,-405"/>
<text text-anchor="middle" x="301" y="-383.3" font-family="Times,serif" font-size="14.00">class = USA</text>
</g>
<!-- 14&#45;&gt;18 -->
<g id="edge18" class="edge">
<title>14&#45;&gt;18</title>
<path fill="none" stroke="black" d="M301,-441.83C301,-433.89 301,-424.41 301,-415.63"/>
<polygon fill="black" stroke="black" points="304.5,-415.42 301,-405.42 297.5,-415.42 304.5,-415.42"/>
</g>
<!-- 16 -->
<g id="node17" class="node">
<title>16</title>
<polygon fill="none" stroke="black" points="86,-331 0,-331 0,-295 86,-295 86,-331"/>
<text text-anchor="middle" x="43" y="-309.3" font-family="Times,serif" font-size="14.00">class = USA</text>
</g>
<!-- 15&#45;&gt;16 -->
<g id="edge16" class="edge">
<title>15&#45;&gt;16</title>
<path fill="none" stroke="black" d="M125.99,-367.83C111.49,-358.43 93.65,-346.86 78.23,-336.85"/>
<polygon fill="black" stroke="black" points="79.77,-333.68 69.47,-331.17 75.96,-339.55 79.77,-333.68"/>
</g>
<!-- 17 -->
<g id="node18" class="node">
<title>17</title>
<polygon fill="none" stroke="black" points="203.5,-331 104.5,-331 104.5,-295 203.5,-295 203.5,-331"/>
<text text-anchor="middle" x="154" y="-309.3" font-family="Times,serif" font-size="14.00">class = Canada</text>
</g>
<!-- 15&#45;&gt;17 -->
<g id="edge17" class="edge">
<title>15&#45;&gt;17</title>
<path fill="none" stroke="black" d="M154,-367.83C154,-359.89 154,-350.41 154,-341.63"/>
<polygon fill="black" stroke="black" points="157.5,-341.42 154,-331.42 150.5,-341.42 157.5,-341.42"/>
</g>
<!-- 20 -->
<g id="node21" class="node">
<title>20</title>
<polygon fill="none" stroke="black" points="491.5,-406 372.5,-406 372.5,-368 491.5,-368 491.5,-406"/>
<text text-anchor="middle" x="432" y="-390.8" font-family="Times,serif" font-size="14.00">latitude &lt;= 44.542</text>
<text text-anchor="middle" x="432" y="-375.8" font-family="Times,serif" font-size="14.00">class = Canada</text>
</g>
<!-- 19&#45;&gt;20 -->
<g id="edge20" class="edge">
<title>19&#45;&gt;20</title>
<path fill="none" stroke="black" d="M438.73,-441.83C437.77,-434.13 436.62,-424.97 435.55,-416.42"/>
<polygon fill="black" stroke="black" points="439.02,-415.9 434.3,-406.41 432.07,-416.77 439.02,-415.9"/>
</g>
<!-- 35 -->
<g id="node36" class="node">
<title>35</title>
<polygon fill="none" stroke="black" points="608.5,-405 509.5,-405 509.5,-369 608.5,-369 608.5,-405"/>
<text text-anchor="middle" x="559" y="-383.3" font-family="Times,serif" font-size="14.00">class = Canada</text>
</g>
<!-- 19&#45;&gt;35 -->
<g id="edge35" class="edge">
<title>19&#45;&gt;35</title>
<path fill="none" stroke="black" d="M470.78,-441.83C486.33,-432.34 505.51,-420.64 522.01,-410.57"/>
<polygon fill="black" stroke="black" points="524.14,-413.37 530.86,-405.17 520.5,-407.39 524.14,-413.37"/>
</g>
<!-- 21 -->
<g id="node22" class="node">
<title>21</title>
<polygon fill="none" stroke="black" points="356,-332 222,-332 222,-294 356,-294 356,-332"/>
<text text-anchor="middle" x="289" y="-316.8" font-family="Times,serif" font-size="14.00">longitude &lt;= &#45;79.076</text>
<text text-anchor="middle" x="289" y="-301.8" font-family="Times,serif" font-size="14.00">class = Canada</text>
</g>
<!-- 20&#45;&gt;21 -->
<g id="edge21" class="edge">
<title>20&#45;&gt;21</title>
<path fill="none" stroke="black" d="M395.92,-367.83C377.2,-358.41 354.16,-346.81 334.26,-336.79"/>
<polygon fill="black" stroke="black" points="335.58,-333.53 325.07,-332.16 332.43,-339.79 335.58,-333.53"/>
</g>
<!-- 30 -->
<g id="node31" class="node">
<title>30</title>
<polygon fill="none" stroke="black" points="508,-332 374,-332 374,-294 508,-294 508,-332"/>
<text text-anchor="middle" x="441" y="-316.8" font-family="Times,serif" font-size="14.00">longitude &lt;= &#45;84.392</text>
<text text-anchor="middle" x="441" y="-301.8" font-family="Times,serif" font-size="14.00">class = USA</text>
</g>
<!-- 20&#45;&gt;30 -->
<g id="edge30" class="edge">
<title>20&#45;&gt;30</title>
<path fill="none" stroke="black" d="M434.27,-367.83C435.23,-360.13 436.38,-350.97 437.45,-342.42"/>
<polygon fill="black" stroke="black" points="440.93,-342.77 438.7,-332.41 433.98,-341.9 440.93,-342.77"/>
</g>
<!-- 22 -->
<g id="node23" class="node">
<title>22</title>
<polygon fill="none" stroke="black" points="211.5,-257 112.5,-257 112.5,-221 211.5,-221 211.5,-257"/>
<text text-anchor="middle" x="162" y="-235.3" font-family="Times,serif" font-size="14.00">class = Canada</text>
</g>
<!-- 21&#45;&gt;22 -->
<g id="edge22" class="edge">
<title>21&#45;&gt;22</title>
<path fill="none" stroke="black" d="M256.95,-293.83C240.06,-284.25 219.19,-272.42 201.32,-262.29"/>
<polygon fill="black" stroke="black" points="202.71,-259.06 192.29,-257.17 199.26,-265.15 202.71,-259.06"/>
</g>
<!-- 23 -->
<g id="node24" class="node">
<title>23</title>
<polygon fill="none" stroke="black" points="348.5,-258 229.5,-258 229.5,-220 348.5,-220 348.5,-258"/>
<text text-anchor="middle" x="289" y="-242.8" font-family="Times,serif" font-size="14.00">latitude &lt;= 44.168</text>
<text text-anchor="middle" x="289" y="-227.8" font-family="Times,serif" font-size="14.00">class = Canada</text>
</g>
<!-- 21&#45;&gt;23 -->
<g id="edge23" class="edge">
<title>21&#45;&gt;23</title>
<path fill="none" stroke="black" d="M289,-293.83C289,-286.13 289,-276.97 289,-268.42"/>
<polygon fill="black" stroke="black" points="292.5,-268.41 289,-258.41 285.5,-268.41 292.5,-268.41"/>
</g>
<!-- 24 -->
<g id="node25" class="node">
<title>24</title>
<polygon fill="none" stroke="black" points="231.5,-184 112.5,-184 112.5,-146 231.5,-146 231.5,-184"/>
<text text-anchor="middle" x="172" y="-168.8" font-family="Times,serif" font-size="14.00">latitude &lt;= 43.511</text>
<text text-anchor="middle" x="172" y="-153.8" font-family="Times,serif" font-size="14.00">class = USA</text>
</g>
<!-- 23&#45;&gt;24 -->
<g id="edge24" class="edge">
<title>23&#45;&gt;24</title>
<path fill="none" stroke="black" d="M259.48,-219.83C244.51,-210.62 226.16,-199.33 210.14,-189.47"/>
<polygon fill="black" stroke="black" points="211.87,-186.42 201.51,-184.16 208.2,-192.38 211.87,-186.42"/>
</g>
<!-- 29 -->
<g id="node30" class="node">
<title>29</title>
<polygon fill="none" stroke="black" points="348.5,-183 249.5,-183 249.5,-147 348.5,-147 348.5,-183"/>
<text text-anchor="middle" x="299" y="-161.3" font-family="Times,serif" font-size="14.00">class = Canada</text>
</g>
<!-- 23&#45;&gt;29 -->
<g id="edge29" class="edge">
<title>23&#45;&gt;29</title>
<path fill="none" stroke="black" d="M291.52,-219.83C292.64,-211.81 293.97,-202.2 295.2,-193.34"/>
<polygon fill="black" stroke="black" points="298.67,-193.8 296.58,-183.42 291.74,-192.84 298.67,-193.8"/>
</g>
<!-- 25 -->
<g id="node26" class="node">
<title>25</title>
<polygon fill="none" stroke="black" points="151,-109 65,-109 65,-73 151,-73 151,-109"/>
<text text-anchor="middle" x="108" y="-87.3" font-family="Times,serif" font-size="14.00">class = USA</text>
</g>
<!-- 24&#45;&gt;25 -->
<g id="edge25" class="edge">
<title>24&#45;&gt;25</title>
<path fill="none" stroke="black" d="M155.85,-145.83C148.1,-137.11 138.68,-126.52 130.26,-117.05"/>
<polygon fill="black" stroke="black" points="132.74,-114.57 123.48,-109.42 127.51,-119.22 132.74,-114.57"/>
</g>
<!-- 26 -->
<g id="node27" class="node">
<title>26</title>
<polygon fill="none" stroke="black" points="303,-110 169,-110 169,-72 303,-72 303,-110"/>
<text text-anchor="middle" x="236" y="-94.8" font-family="Times,serif" font-size="14.00">longitude &lt;= &#45;77.678</text>
<text text-anchor="middle" x="236" y="-79.8" font-family="Times,serif" font-size="14.00">class = Canada</text>
</g>
<!-- 24&#45;&gt;26 -->
<g id="edge26" class="edge">
<title>24&#45;&gt;26</title>
<path fill="none" stroke="black" d="M188.15,-145.83C195.67,-137.37 204.76,-127.15 212.98,-117.9"/>
<polygon fill="black" stroke="black" points="215.6,-120.21 219.63,-110.41 210.37,-115.56 215.6,-120.21"/>
</g>
<!-- 27 -->
<g id="node28" class="node">
<title>27</title>
<polygon fill="none" stroke="black" points="229.5,-36 130.5,-36 130.5,0 229.5,0 229.5,-36"/>
<text text-anchor="middle" x="180" y="-14.3" font-family="Times,serif" font-size="14.00">class = Canada</text>
</g>
<!-- 26&#45;&gt;27 -->
<g id="edge27" class="edge">
<title>26&#45;&gt;27</title>
<path fill="none" stroke="black" d="M221.58,-71.72C214.93,-63.29 206.93,-53.15 199.73,-44.02"/>
<polygon fill="black" stroke="black" points="202.35,-41.69 193.41,-36 196.86,-46.02 202.35,-41.69"/>
</g>
<!-- 28 -->
<g id="node29" class="node">
<title>28</title>
<polygon fill="none" stroke="black" points="334,-36 248,-36 248,0 334,0 334,-36"/>
<text text-anchor="middle" x="291" y="-14.3" font-family="Times,serif" font-size="14.00">class = USA</text>
</g>
<!-- 26&#45;&gt;28 -->
<g id="edge28" class="edge">
<title>26&#45;&gt;28</title>
<path fill="none" stroke="black" d="M250.16,-71.72C256.69,-63.29 264.55,-53.15 271.62,-44.02"/>
<polygon fill="black" stroke="black" points="274.47,-46.05 277.83,-36 268.94,-41.77 274.47,-46.05"/>
</g>
<!-- 31 -->
<g id="node32" class="node">
<title>31</title>
<polygon fill="none" stroke="black" points="453,-257 367,-257 367,-221 453,-221 453,-257"/>
<text text-anchor="middle" x="410" y="-235.3" font-family="Times,serif" font-size="14.00">class = USA</text>
</g>
<!-- 30&#45;&gt;31 -->
<g id="edge31" class="edge">
<title>30&#45;&gt;31</title>
<path fill="none" stroke="black" d="M433.18,-293.83C429.65,-285.63 425.41,-275.78 421.52,-266.76"/>
<polygon fill="black" stroke="black" points="424.67,-265.22 417.5,-257.42 418.24,-267.99 424.67,-265.22"/>
</g>
<!-- 32 -->
<g id="node33" class="node">
<title>32</title>
<polygon fill="none" stroke="black" points="605,-258 471,-258 471,-220 605,-220 605,-258"/>
<text text-anchor="middle" x="538" y="-242.8" font-family="Times,serif" font-size="14.00">longitude &lt;= &#45;75.503</text>
<text text-anchor="middle" x="538" y="-227.8" font-family="Times,serif" font-size="14.00">class = Canada</text>
</g>
<!-- 30&#45;&gt;32 -->
<g id="edge32" class="edge">
<title>30&#45;&gt;32</title>
<path fill="none" stroke="black" d="M465.48,-293.83C477.54,-284.88 492.25,-273.96 505.27,-264.3"/>
<polygon fill="black" stroke="black" points="507.59,-266.93 513.53,-258.16 503.41,-261.31 507.59,-266.93"/>
</g>
<!-- 33 -->
<g id="node34" class="node">
<title>33</title>
<polygon fill="none" stroke="black" points="478.5,-183 379.5,-183 379.5,-147 478.5,-147 478.5,-183"/>
<text text-anchor="middle" x="429" y="-161.3" font-family="Times,serif" font-size="14.00">class = Canada</text>
</g>
<!-- 32&#45;&gt;33 -->
<g id="edge33" class="edge">
<title>32&#45;&gt;33</title>
<path fill="none" stroke="black" d="M510.49,-219.83C496.26,-210.43 478.74,-198.86 463.59,-188.85"/>
<polygon fill="black" stroke="black" points="465.27,-185.76 455,-183.17 461.41,-191.6 465.27,-185.76"/>
</g>
<!-- 34 -->
<g id="node35" class="node">
<title>34</title>
<polygon fill="none" stroke="black" points="583,-183 497,-183 497,-147 583,-147 583,-183"/>
<text text-anchor="middle" x="540" y="-161.3" font-family="Times,serif" font-size="14.00">class = USA</text>
</g>
<!-- 32&#45;&gt;34 -->
<g id="edge34" class="edge">
<title>32&#45;&gt;34</title>
<path fill="none" stroke="black" d="M538.5,-219.83C538.73,-211.89 538.99,-202.41 539.23,-193.63"/>
<polygon fill="black" stroke="black" points="542.74,-193.51 539.52,-183.42 535.74,-193.32 542.74,-193.51"/>
</g>
<!-- 37 -->
<g id="node38" class="node">
<title>37</title>
<polygon fill="none" stroke="black" points="758,-480 624,-480 624,-442 758,-442 758,-480"/>
<text text-anchor="middle" x="691" y="-464.8" font-family="Times,serif" font-size="14.00">longitude &lt;= &#45;67.279</text>
<text text-anchor="middle" x="691" y="-449.8" font-family="Times,serif" font-size="14.00">class = USA</text>
</g>
<!-- 36&#45;&gt;37 -->
<g id="edge37" class="edge">
<title>36&#45;&gt;37</title>
<path fill="none" stroke="black" d="M691,-515.83C691,-508.13 691,-498.97 691,-490.42"/>
<polygon fill="black" stroke="black" points="694.5,-490.41 691,-480.41 687.5,-490.41 694.5,-490.41"/>
</g>
<!-- 52 -->
<g id="node53" class="node">
<title>52</title>
<polygon fill="none" stroke="black" points="875.5,-479 776.5,-479 776.5,-443 875.5,-443 875.5,-479"/>
<text text-anchor="middle" x="826" y="-457.3" font-family="Times,serif" font-size="14.00">class = Canada</text>
</g>
<!-- 36&#45;&gt;52 -->
<g id="edge52" class="edge">
<title>36&#45;&gt;52</title>
<path fill="none" stroke="black" d="M725.07,-515.83C743.19,-506.17 765.62,-494.2 784.72,-484.01"/>
<polygon fill="black" stroke="black" points="786.63,-486.97 793.8,-479.17 783.33,-480.79 786.63,-486.97"/>
</g>
<!-- 38 -->
<g id="node39" class="node">
<title>38</title>
<polygon fill="none" stroke="black" points="754.5,-406 627.5,-406 627.5,-368 754.5,-368 754.5,-406"/>
<text text-anchor="middle" x="691" y="-390.8" font-family="Times,serif" font-size="14.00">longitude &lt;= &#45;67.93</text>
<text text-anchor="middle" x="691" y="-375.8" font-family="Times,serif" font-size="14.00">class = Canada</text>
</g>
<!-- 37&#45;&gt;38 -->
<g id="edge38" class="edge">
<title>37&#45;&gt;38</title>
<path fill="none" stroke="black" d="M691,-441.83C691,-434.13 691,-424.97 691,-416.42"/>
<polygon fill="black" stroke="black" points="694.5,-416.41 691,-406.41 687.5,-416.41 694.5,-416.41"/>
</g>
<!-- 51 -->
<g id="node52" class="node">
<title>51</title>
<polygon fill="none" stroke="black" points="859,-405 773,-405 773,-369 859,-369 859,-405"/>
<text text-anchor="middle" x="816" y="-383.3" font-family="Times,serif" font-size="14.00">class = USA</text>
</g>
<!-- 37&#45;&gt;51 -->
<g id="edge51" class="edge">
<title>37&#45;&gt;51</title>
<path fill="none" stroke="black" d="M722.54,-441.83C739.17,-432.25 759.71,-420.42 777.3,-410.29"/>
<polygon fill="black" stroke="black" points="779.27,-413.2 786.19,-405.17 775.78,-407.13 779.27,-413.2"/>
</g>
<!-- 39 -->
<g id="node40" class="node">
<title>39</title>
<polygon fill="none" stroke="black" points="758,-332 624,-332 624,-294 758,-294 758,-332"/>
<text text-anchor="middle" x="691" y="-316.8" font-family="Times,serif" font-size="14.00">longitude &lt;= &#45;68.325</text>
<text text-anchor="middle" x="691" y="-301.8" font-family="Times,serif" font-size="14.00">class = USA</text>
</g>
<!-- 38&#45;&gt;39 -->
<g id="edge39" class="edge">
<title>38&#45;&gt;39</title>
<path fill="none" stroke="black" d="M691,-367.83C691,-360.13 691,-350.97 691,-342.42"/>
<polygon fill="black" stroke="black" points="694.5,-342.41 691,-332.41 687.5,-342.41 694.5,-342.41"/>
</g>
<!-- 46 -->
<g id="node47" class="node">
<title>46</title>
<polygon fill="none" stroke="black" points="991.5,-332 872.5,-332 872.5,-294 991.5,-294 991.5,-332"/>
<text text-anchor="middle" x="932" y="-316.8" font-family="Times,serif" font-size="14.00">latitude &lt;= 45.565</text>
<text text-anchor="middle" x="932" y="-301.8" font-family="Times,serif" font-size="14.00">class = Canada</text>
</g>
<!-- 38&#45;&gt;46 -->
<g id="edge46" class="edge">
<title>38&#45;&gt;46</title>
<path fill="none" stroke="black" d="M751.5,-367.92C785.28,-357.83 827.49,-345.22 862.6,-334.73"/>
<polygon fill="black" stroke="black" points="863.73,-338.05 872.31,-331.83 861.72,-331.34 863.73,-338.05"/>
</g>
<!-- 40 -->
<g id="node41" class="node">
<title>40</title>
<polygon fill="none" stroke="black" points="742.5,-258 623.5,-258 623.5,-220 742.5,-220 742.5,-258"/>
<text text-anchor="middle" x="683" y="-242.8" font-family="Times,serif" font-size="14.00">latitude &lt;= 47.256</text>
<text text-anchor="middle" x="683" y="-227.8" font-family="Times,serif" font-size="14.00">class = Canada</text>
</g>
<!-- 39&#45;&gt;40 -->
<g id="edge40" class="edge">
<title>39&#45;&gt;40</title>
<path fill="none" stroke="black" d="M688.98,-293.83C688.13,-286.13 687.11,-276.97 686.16,-268.42"/>
<polygon fill="black" stroke="black" points="689.63,-267.97 685.05,-258.41 682.67,-268.74 689.63,-267.97"/>
</g>
<!-- 45 -->
<g id="node46" class="node">
<title>45</title>
<polygon fill="none" stroke="black" points="847,-257 761,-257 761,-221 847,-221 847,-257"/>
<text text-anchor="middle" x="804" y="-235.3" font-family="Times,serif" font-size="14.00">class = USA</text>
</g>
<!-- 39&#45;&gt;45 -->
<g id="edge45" class="edge">
<title>39&#45;&gt;45</title>
<path fill="none" stroke="black" d="M719.51,-293.83C734.41,-284.34 752.78,-272.64 768.58,-262.57"/>
<polygon fill="black" stroke="black" points="770.5,-265.5 777.05,-257.17 766.74,-259.59 770.5,-265.5"/>
</g>
<!-- 41 -->
<g id="node42" class="node">
<title>41</title>
<polygon fill="none" stroke="black" points="710.5,-183 611.5,-183 611.5,-147 710.5,-147 710.5,-183"/>
<text text-anchor="middle" x="661" y="-161.3" font-family="Times,serif" font-size="14.00">class = Canada</text>
</g>
<!-- 40&#45;&gt;41 -->
<g id="edge41" class="edge">
<title>40&#45;&gt;41</title>
<path fill="none" stroke="black" d="M677.45,-219.83C674.97,-211.72 672,-201.99 669.27,-193.05"/>
<polygon fill="black" stroke="black" points="672.59,-191.96 666.32,-183.42 665.9,-194 672.59,-191.96"/>
</g>
<!-- 42 -->
<g id="node43" class="node">
<title>42</title>
<polygon fill="none" stroke="black" points="863,-184 729,-184 729,-146 863,-146 863,-184"/>
<text text-anchor="middle" x="796" y="-168.8" font-family="Times,serif" font-size="14.00">longitude &lt;= &#45;68.459</text>
<text text-anchor="middle" x="796" y="-153.8" font-family="Times,serif" font-size="14.00">class = USA</text>
</g>
<!-- 40&#45;&gt;42 -->
<g id="edge42" class="edge">
<title>40&#45;&gt;42</title>
<path fill="none" stroke="black" d="M711.51,-219.83C725.83,-210.71 743.36,-199.54 758.73,-189.74"/>
<polygon fill="black" stroke="black" points="760.94,-192.49 767.49,-184.16 757.18,-186.58 760.94,-192.49"/>
</g>
<!-- 43 -->
<g id="node44" class="node">
<title>43</title>
<polygon fill="none" stroke="black" points="783,-109 697,-109 697,-73 783,-73 783,-109"/>
<text text-anchor="middle" x="740" y="-87.3" font-family="Times,serif" font-size="14.00">class = USA</text>
</g>
<!-- 42&#45;&gt;43 -->
<g id="edge43" class="edge">
<title>42&#45;&gt;43</title>
<path fill="none" stroke="black" d="M781.87,-145.83C775.15,-137.2 767.01,-126.73 759.7,-117.33"/>
<polygon fill="black" stroke="black" points="762.45,-115.16 753.55,-109.42 756.92,-119.46 762.45,-115.16"/>
</g>
<!-- 44 -->
<g id="node45" class="node">
<title>44</title>
<polygon fill="none" stroke="black" points="900.5,-109 801.5,-109 801.5,-73 900.5,-73 900.5,-109"/>
<text text-anchor="middle" x="851" y="-87.3" font-family="Times,serif" font-size="14.00">class = Canada</text>
</g>
<!-- 42&#45;&gt;44 -->
<g id="edge44" class="edge">
<title>42&#45;&gt;44</title>
<path fill="none" stroke="black" d="M809.88,-145.83C816.41,-137.28 824.31,-126.94 831.43,-117.62"/>
<polygon fill="black" stroke="black" points="834.41,-119.49 837.69,-109.42 828.84,-115.24 834.41,-119.49"/>
</g>
<!-- 47 -->
<g id="node48" class="node">
<title>47</title>
<polygon fill="none" stroke="black" points="999,-258 865,-258 865,-220 999,-220 999,-258"/>
<text text-anchor="middle" x="932" y="-242.8" font-family="Times,serif" font-size="14.00">longitude &lt;= &#45;67.355</text>
<text text-anchor="middle" x="932" y="-227.8" font-family="Times,serif" font-size="14.00">class = Canada</text>
</g>
<!-- 46&#45;&gt;47 -->
<g id="edge47" class="edge">
<title>46&#45;&gt;47</title>
<path fill="none" stroke="black" d="M932,-293.83C932,-286.13 932,-276.97 932,-268.42"/>
<polygon fill="black" stroke="black" points="935.5,-268.41 932,-258.41 928.5,-268.41 935.5,-268.41"/>
</g>
<!-- 50 -->
<g id="node51" class="node">
<title>50</title>
<polygon fill="none" stroke="black" points="1116.5,-257 1017.5,-257 1017.5,-221 1116.5,-221 1116.5,-257"/>
<text text-anchor="middle" x="1067" y="-235.3" font-family="Times,serif" font-size="14.00">class = Canada</text>
</g>
<!-- 46&#45;&gt;50 -->
<g id="edge50" class="edge">
<title>46&#45;&gt;50</title>
<path fill="none" stroke="black" d="M966.07,-293.83C984.19,-284.17 1006.62,-272.2 1025.72,-262.01"/>
<polygon fill="black" stroke="black" points="1027.63,-264.97 1034.8,-257.17 1024.33,-258.79 1027.63,-264.97"/>
</g>
<!-- 48 -->
<g id="node49" class="node">
<title>48</title>
<polygon fill="none" stroke="black" points="972,-183 886,-183 886,-147 972,-147 972,-183"/>
<text text-anchor="middle" x="929" y="-161.3" font-family="Times,serif" font-size="14.00">class = USA</text>
</g>
<!-- 47&#45;&gt;48 -->
<g id="edge48" class="edge">
<title>47&#45;&gt;48</title>
<path fill="none" stroke="black" d="M931.24,-219.83C930.91,-211.89 930.52,-202.41 930.15,-193.63"/>
<polygon fill="black" stroke="black" points="933.64,-193.26 929.73,-183.42 926.65,-193.55 933.64,-193.26"/>
</g>
<!-- 49 -->
<g id="node50" class="node">
<title>49</title>
<polygon fill="none" stroke="black" points="1089.5,-183 990.5,-183 990.5,-147 1089.5,-147 1089.5,-183"/>
<text text-anchor="middle" x="1040" y="-161.3" font-family="Times,serif" font-size="14.00">class = Canada</text>
</g>
<!-- 47&#45;&gt;49 -->
<g id="edge49" class="edge">
<title>47&#45;&gt;49</title>
<path fill="none" stroke="black" d="M959.25,-219.83C973.36,-210.43 990.72,-198.86 1005.72,-188.85"/>
<polygon fill="black" stroke="black" points="1007.86,-191.63 1014.24,-183.17 1003.98,-185.81 1007.86,-191.63"/>
</g>
</g>
</svg>
