<?xml version="1.0" encoding="UTF-8" standalone="no"?>
<!DOCTYPE svg PUBLIC "-//W3C//DTD SVG 1.1//EN"
 "http://www.w3.org/Graphics/SVG/1.1/DTD/svg11.dtd">
<!-- Generated by graphviz version 2.44.1 (20200629.0846)
 -->
<!-- Title: Tree Pages: 1 -->
<svg width="1161pt" height="932pt"
 viewBox="0.00 0.00 1160.50 932.00" xmlns="http://www.w3.org/2000/svg" xmlns:xlink="http://www.w3.org/1999/xlink">
<g id="graph0" class="graph" transform="scale(1 1) rotate(0) translate(4 928)">
<title>Tree</title>
<polygon fill="white" stroke="transparent" points="-4,4 -4,-928 1156.5,-928 1156.5,4 -4,4"/>
<!-- 0 -->
<g id="node1" class="node">
<title>0</title>
<polygon fill="none" stroke="black" points="285.5,-924 180.5,-924 180.5,-886 285.5,-886 285.5,-924"/>
<text text-anchor="middle" x="233" y="-908.8" font-family="Times,serif" font-size="14.00">latitude &lt;= 42.9</text>
<text text-anchor="middle" x="233" y="-893.8" font-family="Times,serif" font-size="14.00">class = Canada</text>
</g>
<!-- 1 -->
<g id="node2" class="node">
<title>1</title>
<polygon fill="none" stroke="black" points="218.5,-850 99.5,-850 99.5,-812 218.5,-812 218.5,-850"/>
<text text-anchor="middle" x="159" y="-834.8" font-family="Times,serif" font-size="14.00">latitude &lt;= 42.096</text>
<text text-anchor="middle" x="159" y="-819.8" font-family="Times,serif" font-size="14.00">class = USA</text>
</g>
<!-- 0&#45;&gt;1 -->
<g id="edge1" class="edge">
<title>0&#45;&gt;1</title>
<path fill="none" stroke="black" d="M214.33,-885.83C205.48,-877.22 194.75,-866.79 185.11,-857.4"/>
<polygon fill="black" stroke="black" points="187.28,-854.63 177.67,-850.16 182.39,-859.64 187.28,-854.63"/>
<text text-anchor="middle" x="178.01" y="-871.46" font-family="Times,serif" font-size="14.00">True</text>
</g>
<!-- 6 -->
<g id="node7" class="node">
<title>6</title>
<polygon fill="none" stroke="black" points="377,-850 237,-850 237,-812 377,-812 377,-850"/>
<text text-anchor="middle" x="307" y="-834.8" font-family="Times,serif" font-size="14.00">longitude &lt;= &#45;130.017</text>
<text text-anchor="middle" x="307" y="-819.8" font-family="Times,serif" font-size="14.00">class = Canada</text>
</g>
<!-- 0&#45;&gt;6 -->
<g id="edge6" class="edge">
<title>0&#45;&gt;6</title>
<path fill="none" stroke="black" d="M251.67,-885.83C260.52,-877.22 271.25,-866.79 280.89,-857.4"/>
<polygon fill="black" stroke="black" points="283.61,-859.64 288.33,-850.16 278.72,-854.63 283.61,-859.64"/>
<text text-anchor="middle" x="287.99" y="-871.46" font-family="Times,serif" font-size="14.00">False</text>
</g>
<!-- 2 -->
<g id="node3" class="node">
<title>2</title>
<polygon fill="none" stroke="black" points="86,-775 0,-775 0,-739 86,-739 86,-775"/>
<text text-anchor="middle" x="43" y="-753.3" font-family="Times,serif" font-size="14.00">class = USA</text>
</g>
<!-- 1&#45;&gt;2 -->
<g id="edge2" class="edge">
<title>1&#45;&gt;2</title>
<path fill="none" stroke="black" d="M129.73,-811.83C114.44,-802.34 95.58,-790.64 79.37,-780.57"/>
<polygon fill="black" stroke="black" points="81.01,-777.47 70.67,-775.17 77.32,-783.42 81.01,-777.47"/>
</g>
<!-- 3 -->
<g id="node4" class="node">
<title>3</title>
<polygon fill="none" stroke="black" points="223.5,-776 104.5,-776 104.5,-738 223.5,-738 223.5,-776"/>
<text text-anchor="middle" x="164" y="-760.8" font-family="Times,serif" font-size="14.00">latitude &lt;= 42.324</text>
<text text-anchor="middle" x="164" y="-745.8" font-family="Times,serif" font-size="14.00">class = USA</text>
</g>
<!-- 1&#45;&gt;3 -->
<g id="edge3" class="edge">
<title>1&#45;&gt;3</title>
<path fill="none" stroke="black" d="M160.26,-811.83C160.8,-804.13 161.43,-794.97 162.03,-786.42"/>
<polygon fill="black" stroke="black" points="165.52,-786.63 162.72,-776.41 158.54,-786.15 165.52,-786.63"/>
</g>
<!-- 4 -->
<g id="node5" class="node">
<title>4</title>
<polygon fill="none" stroke="black" points="206.5,-701 107.5,-701 107.5,-665 206.5,-665 206.5,-701"/>
<text text-anchor="middle" x="157" y="-679.3" font-family="Times,serif" font-size="14.00">class = Canada</text>
</g>
<!-- 3&#45;&gt;4 -->
<g id="edge4" class="edge">
<title>3&#45;&gt;4</title>
<path fill="none" stroke="black" d="M162.23,-737.83C161.46,-729.89 160.54,-720.41 159.69,-711.63"/>
<polygon fill="black" stroke="black" points="163.14,-711.03 158.69,-701.42 156.18,-711.71 163.14,-711.03"/>
</g>
<!-- 5 -->
<g id="node6" class="node">
<title>5</title>
<polygon fill="none" stroke="black" points="311,-701 225,-701 225,-665 311,-665 311,-701"/>
<text text-anchor="middle" x="268" y="-679.3" font-family="Times,serif" font-size="14.00">class = USA</text>
</g>
<!-- 3&#45;&gt;5 -->
<g id="edge5" class="edge">
<title>3&#45;&gt;5</title>
<path fill="none" stroke="black" d="M190.24,-737.83C203.7,-728.52 220.23,-717.07 234.59,-707.13"/>
<polygon fill="black" stroke="black" points="236.97,-709.74 243.2,-701.17 232.98,-703.99 236.97,-709.74"/>
</g>
<!-- 7 -->
<g id="node8" class="node">
<title>7</title>
<polygon fill="none" stroke="black" points="341,-775 255,-775 255,-739 341,-739 341,-775"/>
<text text-anchor="middle" x="298" y="-753.3" font-family="Times,serif" font-size="14.00">class = USA</text>
</g>
<!-- 6&#45;&gt;7 -->
<g id="edge7" class="edge">
<title>6&#45;&gt;7</title>
<path fill="none" stroke="black" d="M304.73,-811.83C303.74,-803.89 302.55,-794.41 301.45,-785.63"/>
<polygon fill="black" stroke="black" points="304.89,-784.91 300.18,-775.42 297.94,-785.77 304.89,-784.91"/>
</g>
<!-- 8 -->
<g id="node9" class="node">
<title>8</title>
<polygon fill="none" stroke="black" points="464.5,-776 359.5,-776 359.5,-738 464.5,-738 464.5,-776"/>
<text text-anchor="middle" x="412" y="-760.8" font-family="Times,serif" font-size="14.00">latitude &lt;= 49.0</text>
<text text-anchor="middle" x="412" y="-745.8" font-family="Times,serif" font-size="14.00">class = Canada</text>
</g>
<!-- 6&#45;&gt;8 -->
<g id="edge8" class="edge">
<title>6&#45;&gt;8</title>
<path fill="none" stroke="black" d="M333.5,-811.83C346.68,-802.79 362.78,-791.75 376.97,-782.02"/>
<polygon fill="black" stroke="black" points="379.24,-784.7 385.51,-776.16 375.29,-778.93 379.24,-784.7"/>
</g>
<!-- 9 -->
<g id="node10" class="node">
<title>9</title>
<polygon fill="none" stroke="black" points="474,-702 340,-702 340,-664 474,-664 474,-702"/>
<text text-anchor="middle" x="407" y="-686.8" font-family="Times,serif" font-size="14.00">longitude &lt;= &#45;94.582</text>
<text text-anchor="middle" x="407" y="-671.8" font-family="Times,serif" font-size="14.00">class = Canada</text>
</g>
<!-- 8&#45;&gt;9 -->
<g id="edge9" class="edge">
<title>8&#45;&gt;9</title>
<path fill="none" stroke="black" d="M410.74,-737.83C410.2,-730.13 409.57,-720.97 408.97,-712.42"/>
<polygon fill="black" stroke="black" points="412.46,-712.15 408.28,-702.41 405.48,-712.63 412.46,-712.15"/>
</g>
<!-- 56 -->
<g id="node57" class="node">
<title>56</title>
<polygon fill="none" stroke="black" points="591.5,-701 492.5,-701 492.5,-665 591.5,-665 591.5,-701"/>
<text text-anchor="middle" x="542" y="-679.3" font-family="Times,serif" font-size="14.00">class = Canada</text>
</g>
<!-- 8&#45;&gt;56 -->
<g id="edge56" class="edge">
<title>8&#45;&gt;56</title>
<path fill="none" stroke="black" d="M444.8,-737.83C462.18,-728.21 483.66,-716.31 502,-706.15"/>
<polygon fill="black" stroke="black" points="503.94,-709.08 511,-701.17 500.55,-702.95 503.94,-709.08"/>
</g>
<!-- 10 -->
<g id="node11" class="node">
<title>10</title>
<polygon fill="none" stroke="black" points="400,-628 260,-628 260,-590 400,-590 400,-628"/>
<text text-anchor="middle" x="330" y="-612.8" font-family="Times,serif" font-size="14.00">longitude &lt;= &#45;123.222</text>
<text text-anchor="middle" x="330" y="-597.8" font-family="Times,serif" font-size="14.00">class = USA</text>
</g>
<!-- 9&#45;&gt;10 -->
<g id="edge10" class="edge">
<title>9&#45;&gt;10</title>
<path fill="none" stroke="black" d="M387.57,-663.83C378.27,-655.13 366.98,-644.58 356.87,-635.13"/>
<polygon fill="black" stroke="black" points="359.12,-632.44 349.42,-628.16 354.34,-637.55 359.12,-632.44"/>
</g>
<!-- 13 -->
<g id="node14" class="node">
<title>13</title>
<polygon fill="none" stroke="black" points="552,-628 418,-628 418,-590 552,-590 552,-628"/>
<text text-anchor="middle" x="485" y="-612.8" font-family="Times,serif" font-size="14.00">longitude &lt;= &#45;69.246</text>
<text text-anchor="middle" x="485" y="-597.8" font-family="Times,serif" font-size="14.00">class = Canada</text>
</g>
<!-- 9&#45;&gt;13 -->
<g id="edge13" class="edge">
<title>9&#45;&gt;13</title>
<path fill="none" stroke="black" d="M426.68,-663.83C436.11,-655.13 447.54,-644.58 457.78,-635.13"/>
<polygon fill="black" stroke="black" points="460.35,-637.52 465.32,-628.16 455.6,-632.37 460.35,-637.52"/>
</g>
<!-- 11 -->
<g id="node12" class="node">
<title>11</title>
<polygon fill="none" stroke="black" points="277.5,-553 178.5,-553 178.5,-517 277.5,-517 277.5,-553"/>
<text text-anchor="middle" x="228" y="-531.3" font-family="Times,serif" font-size="14.00">class = Canada</text>
</g>
<!-- 10&#45;&gt;11 -->
<g id="edge11" class="edge">
<title>10&#45;&gt;11</title>
<path fill="none" stroke="black" d="M304.26,-589.83C291.07,-580.52 274.85,-569.07 260.77,-559.13"/>
<polygon fill="black" stroke="black" points="262.51,-556.08 252.33,-553.17 258.48,-561.8 262.51,-556.08"/>
</g>
<!-- 12 -->
<g id="node13" class="node">
<title>12</title>
<polygon fill="none" stroke="black" points="382,-553 296,-553 296,-517 382,-517 382,-553"/>
<text text-anchor="middle" x="339" y="-531.3" font-family="Times,serif" font-size="14.00">class = USA</text>
</g>
<!-- 10&#45;&gt;12 -->
<g id="edge12" class="edge">
<title>10&#45;&gt;12</title>
<path fill="none" stroke="black" d="M332.27,-589.83C333.26,-581.89 334.45,-572.41 335.55,-563.63"/>
<polygon fill="black" stroke="black" points="339.06,-563.77 336.82,-553.42 332.11,-562.91 339.06,-563.77"/>
</g>
<!-- 14 -->
<g id="node15" class="node">
<title>14</title>
<polygon fill="none" stroke="black" points="536.5,-554 417.5,-554 417.5,-516 536.5,-516 536.5,-554"/>
<text text-anchor="middle" x="477" y="-538.8" font-family="Times,serif" font-size="14.00">latitude &lt;= 43.093</text>
<text text-anchor="middle" x="477" y="-523.8" font-family="Times,serif" font-size="14.00">class = Canada</text>
</g>
<!-- 13&#45;&gt;14 -->
<g id="edge14" class="edge">
<title>13&#45;&gt;14</title>
<path fill="none" stroke="black" d="M482.98,-589.83C482.13,-582.13 481.11,-572.97 480.16,-564.42"/>
<polygon fill="black" stroke="black" points="483.63,-563.97 479.05,-554.41 476.67,-564.74 483.63,-563.97"/>
</g>
<!-- 37 -->
<g id="node38" class="node">
<title>37</title>
<polygon fill="none" stroke="black" points="846,-554 712,-554 712,-516 846,-516 846,-554"/>
<text text-anchor="middle" x="779" y="-538.8" font-family="Times,serif" font-size="14.00">longitude &lt;= &#45;66.952</text>
<text text-anchor="middle" x="779" y="-523.8" font-family="Times,serif" font-size="14.00">class = Canada</text>
</g>
<!-- 13&#45;&gt;37 -->
<g id="edge37" class="edge">
<title>13&#45;&gt;37</title>
<path fill="none" stroke="black" d="M552.08,-591.57C596.78,-580.63 655.64,-566.21 702.21,-554.81"/>
<polygon fill="black" stroke="black" points="703.07,-558.2 711.95,-552.42 701.41,-551.4 703.07,-558.2"/>
</g>
<!-- 15 -->
<g id="node16" class="node">
<title>15</title>
<polygon fill="none" stroke="black" points="279,-480 145,-480 145,-442 279,-442 279,-480"/>
<text text-anchor="middle" x="212" y="-464.8" font-family="Times,serif" font-size="14.00">longitude &lt;= &#45;81.845</text>
<text text-anchor="middle" x="212" y="-449.8" font-family="Times,serif" font-size="14.00">class = Canada</text>
</g>
<!-- 14&#45;&gt;15 -->
<g id="edge15" class="edge">
<title>14&#45;&gt;15</title>
<path fill="none" stroke="black" d="M417.2,-517.75C379.04,-507.38 329.23,-493.85 288.24,-482.72"/>
<polygon fill="black" stroke="black" points="289.14,-479.33 278.57,-480.09 287.3,-486.09 289.14,-479.33"/>
</g>
<!-- 20 -->
<g id="node21" class="node">
<title>20</title>
<polygon fill="none" stroke="black" points="536.5,-480 417.5,-480 417.5,-442 536.5,-442 536.5,-480"/>
<text text-anchor="middle" x="477" y="-464.8" font-family="Times,serif" font-size="14.00">latitude &lt;= 44.992</text>
<text text-anchor="middle" x="477" y="-449.8" font-family="Times,serif" font-size="14.00">class = Canada</text>
</g>
<!-- 14&#45;&gt;20 -->
<g id="edge20" class="edge">
<title>14&#45;&gt;20</title>
<path fill="none" stroke="black" d="M477,-515.83C477,-508.13 477,-498.97 477,-490.42"/>
<polygon fill="black" stroke="black" points="480.5,-490.41 477,-480.41 473.5,-490.41 480.5,-490.41"/>
</g>
<!-- 16 -->
<g id="node17" class="node">
<title>16</title>
<polygon fill="none" stroke="black" points="134,-405 48,-405 48,-369 134,-369 134,-405"/>
<text text-anchor="middle" x="91" y="-383.3" font-family="Times,serif" font-size="14.00">class = USA</text>
</g>
<!-- 15&#45;&gt;16 -->
<g id="edge16" class="edge">
<title>15&#45;&gt;16</title>
<path fill="none" stroke="black" d="M181.47,-441.83C165.37,-432.25 145.49,-420.42 128.46,-410.29"/>
<polygon fill="black" stroke="black" points="130.24,-407.28 119.86,-405.17 126.66,-413.29 130.24,-407.28"/>
</g>
<!-- 17 -->
<g id="node18" class="node">
<title>17</title>
<polygon fill="none" stroke="black" points="271.5,-406 152.5,-406 152.5,-368 271.5,-368 271.5,-406"/>
<text text-anchor="middle" x="212" y="-390.8" font-family="Times,serif" font-size="14.00">latitude &lt;= 43.039</text>
<text text-anchor="middle" x="212" y="-375.8" font-family="Times,serif" font-size="14.00">class = Canada</text>
</g>
<!-- 15&#45;&gt;17 -->
<g id="edge17" class="edge">
<title>15&#45;&gt;17</title>
<path fill="none" stroke="black" d="M212,-441.83C212,-434.13 212,-424.97 212,-416.42"/>
<polygon fill="black" stroke="black" points="215.5,-416.41 212,-406.41 208.5,-416.41 215.5,-416.41"/>
</g>
<!-- 18 -->
<g id="node19" class="node">
<title>18</title>
<polygon fill="none" stroke="black" points="150.5,-331 51.5,-331 51.5,-295 150.5,-295 150.5,-331"/>
<text text-anchor="middle" x="101" y="-309.3" font-family="Times,serif" font-size="14.00">class = Canada</text>
</g>
<!-- 17&#45;&gt;18 -->
<g id="edge18" class="edge">
<title>17&#45;&gt;18</title>
<path fill="none" stroke="black" d="M183.99,-367.83C169.49,-358.43 151.65,-346.86 136.23,-336.85"/>
<polygon fill="black" stroke="black" points="137.77,-333.68 127.47,-331.17 133.96,-339.55 137.77,-333.68"/>
</g>
<!-- 19 -->
<g id="node20" class="node">
<title>19</title>
<polygon fill="none" stroke="black" points="255,-331 169,-331 169,-295 255,-295 255,-331"/>
<text text-anchor="middle" x="212" y="-309.3" font-family="Times,serif" font-size="14.00">class = USA</text>
</g>
<!-- 17&#45;&gt;19 -->
<g id="edge19" class="edge">
<title>17&#45;&gt;19</title>
<path fill="none" stroke="black" d="M212,-367.83C212,-359.89 212,-350.41 212,-341.63"/>
<polygon fill="black" stroke="black" points="215.5,-341.42 212,-331.42 208.5,-341.42 215.5,-341.42"/>
</g>
<!-- 21 -->
<g id="node22" class="node">
<title>21</title>
<polygon fill="none" stroke="black" points="468.5,-406 349.5,-406 349.5,-368 468.5,-368 468.5,-406"/>
<text text-anchor="middle" x="409" y="-390.8" font-family="Times,serif" font-size="14.00">latitude &lt;= 44.542</text>
<text text-anchor="middle" x="409" y="-375.8" font-family="Times,serif" font-size="14.00">class = Canada</text>
</g>
<!-- 20&#45;&gt;21 -->
<g id="edge21" class="edge">
<title>20&#45;&gt;21</title>
<path fill="none" stroke="black" d="M459.84,-441.83C451.85,-433.37 442.2,-423.15 433.46,-413.9"/>
<polygon fill="black" stroke="black" points="435.8,-411.28 426.39,-406.41 430.71,-416.09 435.8,-411.28"/>
</g>
<!-- 36 -->
<g id="node37" class="node">
<title>36</title>
<polygon fill="none" stroke="black" points="585.5,-405 486.5,-405 486.5,-369 585.5,-369 585.5,-405"/>
<text text-anchor="middle" x="536" y="-383.3" font-family="Times,serif" font-size="14.00">class = Canada</text>
</g>
<!-- 20&#45;&gt;36 -->
<g id="edge36" class="edge">
<title>20&#45;&gt;36</title>
<path fill="none" stroke="black" d="M491.89,-441.83C498.96,-433.2 507.54,-422.73 515.24,-413.33"/>
<polygon fill="black" stroke="black" points="518.1,-415.37 521.73,-405.42 512.68,-410.93 518.1,-415.37"/>
</g>
<!-- 22 -->
<g id="node23" class="node">
<title>22</title>
<polygon fill="none" stroke="black" points="407,-332 273,-332 273,-294 407,-294 407,-332"/>
<text text-anchor="middle" x="340" y="-316.8" font-family="Times,serif" font-size="14.00">longitude &lt;= &#45;79.076</text>
<text text-anchor="middle" x="340" y="-301.8" font-family="Times,serif" font-size="14.00">class = Canada</text>
</g>
<!-- 21&#45;&gt;22 -->
<g id="edge22" class="edge">
<title>21&#45;&gt;22</title>
<path fill="none" stroke="black" d="M391.59,-367.83C383.48,-359.37 373.68,-349.15 364.82,-339.9"/>
<polygon fill="black" stroke="black" points="367.09,-337.21 357.65,-332.41 362.04,-342.05 367.09,-337.21"/>
</g>
<!-- 31 -->
<g id="node32" class="node">
<title>31</title>
<polygon fill="none" stroke="black" points="559,-332 425,-332 425,-294 559,-294 559,-332"/>
<text text-anchor="middle" x="492" y="-316.8" font-family="Times,serif" font-size="14.00">longitude &lt;= &#45;84.392</text>
<text text-anchor="middle" x="492" y="-301.8" font-family="Times,serif" font-size="14.00">class = USA</text>
</g>
<!-- 21&#45;&gt;31 -->
<g id="edge31" class="edge">
<title>21&#45;&gt;31</title>
<path fill="none" stroke="black" d="M429.94,-367.83C440.07,-359.05 452.38,-348.37 463.35,-338.85"/>
<polygon fill="black" stroke="black" points="465.8,-341.36 471.06,-332.16 461.21,-336.07 465.8,-341.36"/>
</g>
<!-- 23 -->
<g id="node24" class="node">
<title>23</title>
<polygon fill="none" stroke="black" points="262.5,-257 163.5,-257 163.5,-221 262.5,-221 262.5,-257"/>
<text text-anchor="middle" x="213" y="-235.3" font-family="Times,serif" font-size="14.00">class = Canada</text>
</g>
<!-- 22&#45;&gt;23 -->
<g id="edge23" class="edge">
<title>22&#45;&gt;23</title>
<path fill="none" stroke="black" d="M307.95,-293.83C291.06,-284.25 270.19,-272.42 252.32,-262.29"/>
<polygon fill="black" stroke="black" points="253.71,-259.06 243.29,-257.17 250.26,-265.15 253.71,-259.06"/>
</g>
<!-- 24 -->
<g id="node25" class="node">
<title>24</title>
<polygon fill="none" stroke="black" points="399.5,-258 280.5,-258 280.5,-220 399.5,-220 399.5,-258"/>
<text text-anchor="middle" x="340" y="-242.8" font-family="Times,serif" font-size="14.00">latitude &lt;= 44.168</text>
<text text-anchor="middle" x="340" y="-227.8" font-family="Times,serif" font-size="14.00">class = Canada</text>
</g>
<!-- 22&#45;&gt;24 -->
<g id="edge24" class="edge">
<title>22&#45;&gt;24</title>
<path fill="none" stroke="black" d="M340,-293.83C340,-286.13 340,-276.97 340,-268.42"/>
<polygon fill="black" stroke="black" points="343.5,-268.41 340,-258.41 336.5,-268.41 343.5,-268.41"/>
</g>
<!-- 25 -->
<g id="node26" class="node">
<title>25</title>
<polygon fill="none" stroke="black" points="282.5,-184 163.5,-184 163.5,-146 282.5,-146 282.5,-184"/>
<text text-anchor="middle" x="223" y="-168.8" font-family="Times,serif" font-size="14.00">latitude &lt;= 43.511</text>
<text text-anchor="middle" x="223" y="-153.8" font-family="Times,serif" font-size="14.00">class = USA</text>
</g>
<!-- 24&#45;&gt;25 -->
<g id="edge25" class="edge">
<title>24&#45;&gt;25</title>
<path fill="none" stroke="black" d="M310.48,-219.83C295.51,-210.62 277.16,-199.33 261.14,-189.47"/>
<polygon fill="black" stroke="black" points="262.87,-186.42 252.51,-184.16 259.2,-192.38 262.87,-186.42"/>
</g>
<!-- 30 -->
<g id="node31" class="node">
<title>30</title>
<polygon fill="none" stroke="black" points="399.5,-183 300.5,-183 300.5,-147 399.5,-147 399.5,-183"/>
<text text-anchor="middle" x="350" y="-161.3" font-family="Times,serif" font-size="14.00">class = Canada</text>
</g>
<!-- 24&#45;&gt;30 -->
<g id="edge30" class="edge">
<title>24&#45;&gt;30</title>
<path fill="none" stroke="black" d="M342.52,-219.83C343.64,-211.81 344.97,-202.2 346.2,-193.34"/>
<polygon fill="black" stroke="black" points="349.67,-193.8 347.58,-183.42 342.74,-192.84 349.67,-193.8"/>
</g>
<!-- 26 -->
<g id="node27" class="node">
<title>26</title>
<polygon fill="none" stroke="black" points="202,-109 116,-109 116,-73 202,-73 202,-109"/>
<text text-anchor="middle" x="159" y="-87.3" font-family="Times,serif" font-size="14.00">class = USA</text>
</g>
<!-- 25&#45;&gt;26 -->
<g id="edge26" class="edge">
<title>25&#45;&gt;26</title>
<path fill="none" stroke="black" d="M206.85,-145.83C199.1,-137.11 189.68,-126.52 181.26,-117.05"/>
<polygon fill="black" stroke="black" points="183.74,-114.57 174.48,-109.42 178.51,-119.22 183.74,-114.57"/>
</g>
<!-- 27 -->
<g id="node28" class="node">
<title>27</title>
<polygon fill="none" stroke="black" points="354,-110 220,-110 220,-72 354,-72 354,-110"/>
<text text-anchor="middle" x="287" y="-94.8" font-family="Times,serif" font-size="14.00">longitude &lt;= &#45;77.678</text>
<text text-anchor="middle" x="287" y="-79.8" font-family="Times,serif" font-size="14.00">class = Canada</text>
</g>
<!-- 25&#45;&gt;27 -->
<g id="edge27" class="edge">
<title>25&#45;&gt;27</title>
<path fill="none" stroke="black" d="M239.15,-145.83C246.67,-137.37 255.76,-127.15 263.98,-117.9"/>
<polygon fill="black" stroke="black" points="266.6,-120.21 270.63,-110.41 261.37,-115.56 266.6,-120.21"/>
</g>
<!-- 28 -->
<g id="node29" class="node">
<title>28</title>
<polygon fill="none" stroke="black" points="280.5,-36 181.5,-36 181.5,0 280.5,0 280.5,-36"/>
<text text-anchor="middle" x="231" y="-14.3" font-family="Times,serif" font-size="14.00">class = Canada</text>
</g>
<!-- 27&#45;&gt;28 -->
<g id="edge28" class="edge">
<title>27&#45;&gt;28</title>
<path fill="none" stroke="black" d="M272.58,-71.72C265.93,-63.29 257.93,-53.15 250.73,-44.02"/>
<polygon fill="black" stroke="black" points="253.35,-41.69 244.41,-36 247.86,-46.02 253.35,-41.69"/>
</g>
<!-- 29 -->
<g id="node30" class="node">
<title>29</title>
<polygon fill="none" stroke="black" points="385,-36 299,-36 299,0 385,0 385,-36"/>
<text text-anchor="middle" x="342" y="-14.3" font-family="Times,serif" font-size="14.00">class = USA</text>
</g>
<!-- 27&#45;&gt;29 -->
<g id="edge29" class="edge">
<title>27&#45;&gt;29</title>
<path fill="none" stroke="black" d="M301.16,-71.72C307.69,-63.29 315.55,-53.15 322.62,-44.02"/>
<polygon fill="black" stroke="black" points="325.47,-46.05 328.83,-36 319.94,-41.77 325.47,-46.05"/>
</g>
<!-- 32 -->
<g id="node33" class="node">
<title>32</title>
<polygon fill="none" stroke="black" points="504,-257 418,-257 418,-221 504,-221 504,-257"/>
<text text-anchor="middle" x="461" y="-235.3" font-family="Times,serif" font-size="14.00">class = USA</text>
</g>
<!-- 31&#45;&gt;32 -->
<g id="edge32" class="edge">
<title>31&#45;&gt;32</title>
<path fill="none" stroke="black" d="M484.18,-293.83C480.65,-285.63 476.41,-275.78 472.52,-266.76"/>
<polygon fill="black" stroke="black" points="475.67,-265.22 468.5,-257.42 469.24,-267.99 475.67,-265.22"/>
</g>
<!-- 33 -->
<g id="node34" class="node">
<title>33</title>
<polygon fill="none" stroke="black" points="641.5,-258 522.5,-258 522.5,-220 641.5,-220 641.5,-258"/>
<text text-anchor="middle" x="582" y="-242.8" font-family="Times,serif" font-size="14.00">latitude &lt;= 44.706</text>
<text text-anchor="middle" x="582" y="-227.8" font-family="Times,serif" font-size="14.00">class = Canada</text>
</g>
<!-- 31&#45;&gt;33 -->
<g id="edge33" class="edge">
<title>31&#45;&gt;33</title>
<path fill="none" stroke="black" d="M514.71,-293.83C525.8,-284.96 539.3,-274.16 551.29,-264.57"/>
<polygon fill="black" stroke="black" points="553.67,-267.14 559.3,-258.16 549.3,-261.68 553.67,-267.14"/>
</g>
<!-- 34 -->
<g id="node35" class="node">
<title>34</title>
<polygon fill="none" stroke="black" points="516,-183 430,-183 430,-147 516,-147 516,-183"/>
<text text-anchor="middle" x="473" y="-161.3" font-family="Times,serif" font-size="14.00">class = USA</text>
</g>
<!-- 33&#45;&gt;34 -->
<g id="edge34" class="edge">
<title>33&#45;&gt;34</title>
<path fill="none" stroke="black" d="M554.49,-219.83C540.26,-210.43 522.74,-198.86 507.59,-188.85"/>
<polygon fill="black" stroke="black" points="509.27,-185.76 499,-183.17 505.41,-191.6 509.27,-185.76"/>
</g>
<!-- 35 -->
<g id="node36" class="node">
<title>35</title>
<polygon fill="none" stroke="black" points="633.5,-183 534.5,-183 534.5,-147 633.5,-147 633.5,-183"/>
<text text-anchor="middle" x="584" y="-161.3" font-family="Times,serif" font-size="14.00">class = Canada</text>
</g>
<!-- 33&#45;&gt;35 -->
<g id="edge35" class="edge">
<title>33&#45;&gt;35</title>
<path fill="none" stroke="black" d="M582.5,-219.83C582.73,-211.89 582.99,-202.41 583.23,-193.63"/>
<polygon fill="black" stroke="black" points="586.74,-193.51 583.52,-183.42 579.74,-193.32 586.74,-193.51"/>
</g>
<!-- 38 -->
<g id="node39" class="node">
<title>38</title>
<polygon fill="none" stroke="black" points="846,-480 712,-480 712,-442 846,-442 846,-480"/>
<text text-anchor="middle" x="779" y="-464.8" font-family="Times,serif" font-size="14.00">longitude &lt;= &#45;67.279</text>
<text text-anchor="middle" x="779" y="-449.8" font-family="Times,serif" font-size="14.00">class = USA</text>
</g>
<!-- 37&#45;&gt;38 -->
<g id="edge38" class="edge">
<title>37&#45;&gt;38</title>
<path fill="none" stroke="black" d="M779,-515.83C779,-508.13 779,-498.97 779,-490.42"/>
<polygon fill="black" stroke="black" points="782.5,-490.41 779,-480.41 775.5,-490.41 782.5,-490.41"/>
</g>
<!-- 55 -->
<g id="node56" class="node">
<title>55</title>
<polygon fill="none" stroke="black" points="963.5,-479 864.5,-479 864.5,-443 963.5,-443 963.5,-479"/>
<text text-anchor="middle" x="914" y="-457.3" font-family="Times,serif" font-size="14.00">class = Canada</text>
</g>
<!-- 37&#45;&gt;55 -->
<g id="edge55" class="edge">
<title>37&#45;&gt;55</title>
<path fill="none" stroke="black" d="M813.07,-515.83C831.19,-506.17 853.62,-494.2 872.72,-484.01"/>
<polygon fill="black" stroke="black" points="874.63,-486.97 881.8,-479.17 871.33,-480.79 874.63,-486.97"/>
</g>
<!-- 39 -->
<g id="node40" class="node">
<title>39</title>
<polygon fill="none" stroke="black" points="842.5,-406 715.5,-406 715.5,-368 842.5,-368 842.5,-406"/>
<text text-anchor="middle" x="779" y="-390.8" font-family="Times,serif" font-size="14.00">longitude &lt;= &#45;67.93</text>
<text text-anchor="middle" x="779" y="-375.8" font-family="Times,serif" font-size="14.00">class = Canada</text>
</g>
<!-- 38&#45;&gt;39 -->
<g id="edge39" class="edge">
<title>38&#45;&gt;39</title>
<path fill="none" stroke="black" d="M779,-441.83C779,-434.13 779,-424.97 779,-416.42"/>
<polygon fill="black" stroke="black" points="782.5,-416.41 779,-406.41 775.5,-416.41 782.5,-416.41"/>
</g>
<!-- 54 -->
<g id="node55" class="node">
<title>54</title>
<polygon fill="none" stroke="black" points="947,-405 861,-405 861,-369 947,-369 947,-405"/>
<text text-anchor="middle" x="904" y="-383.3" font-family="Times,serif" font-size="14.00">class = USA</text>
</g>
<!-- 38&#45;&gt;54 -->
<g id="edge54" class="edge">
<title>38&#45;&gt;54</title>
<path fill="none" stroke="black" d="M810.54,-441.83C827.17,-432.25 847.71,-420.42 865.3,-410.29"/>
<polygon fill="black" stroke="black" points="867.27,-413.2 874.19,-405.17 863.78,-407.13 867.27,-413.2"/>
</g>
<!-- 40 -->
<g id="node41" class="node">
<title>40</title>
<polygon fill="none" stroke="black" points="846,-332 712,-332 712,-294 846,-294 846,-332"/>
<text text-anchor="middle" x="779" y="-316.8" font-family="Times,serif" font-size="14.00">longitude &lt;= &#45;68.325</text>
<text text-anchor="middle" x="779" y="-301.8" font-family="Times,serif" font-size="14.00">class = USA</text>
</g>
<!-- 39&#45;&gt;40 -->
<g id="edge40" class="edge">
<title>39&#45;&gt;40</title>
<path fill="none" stroke="black" d="M779,-367.83C779,-360.13 779,-350.97 779,-342.42"/>
<polygon fill="black" stroke="black" points="782.5,-342.41 779,-332.41 775.5,-342.41 782.5,-342.41"/>
</g>
<!-- 49 -->
<g id="node50" class="node">
<title>49</title>
<polygon fill="none" stroke="black" points="1035.5,-332 916.5,-332 916.5,-294 1035.5,-294 1035.5,-332"/>
<text text-anchor="middle" x="976" y="-316.8" font-family="Times,serif" font-size="14.00">latitude &lt;= 45.565</text>
<text text-anchor="middle" x="976" y="-301.8" font-family="Times,serif" font-size="14.00">class = Canada</text>
</g>
<!-- 39&#45;&gt;49 -->
<g id="edge49" class="edge">
<title>39&#45;&gt;49</title>
<path fill="none" stroke="black" d="M828.46,-367.92C855.27,-358.12 888.59,-345.95 916.78,-335.64"/>
<polygon fill="black" stroke="black" points="918.33,-338.8 926.52,-332.08 915.93,-332.23 918.33,-338.8"/>
</g>
<!-- 41 -->
<g id="node42" class="node">
<title>41</title>
<polygon fill="none" stroke="black" points="794,-258 660,-258 660,-220 794,-220 794,-258"/>
<text text-anchor="middle" x="727" y="-242.8" font-family="Times,serif" font-size="14.00">longitude &lt;= &#45;68.915</text>
<text text-anchor="middle" x="727" y="-227.8" font-family="Times,serif" font-size="14.00">class = Canada</text>
</g>
<!-- 40&#45;&gt;41 -->
<g id="edge41" class="edge">
<title>40&#45;&gt;41</title>
<path fill="none" stroke="black" d="M765.88,-293.83C759.95,-285.62 752.83,-275.76 746.31,-266.73"/>
<polygon fill="black" stroke="black" points="748.99,-264.47 740.3,-258.41 743.32,-268.57 748.99,-264.47"/>
</g>
<!-- 48 -->
<g id="node49" class="node">
<title>48</title>
<polygon fill="none" stroke="black" points="898,-257 812,-257 812,-221 898,-221 898,-257"/>
<text text-anchor="middle" x="855" y="-235.3" font-family="Times,serif" font-size="14.00">class = USA</text>
</g>
<!-- 40&#45;&gt;48 -->
<g id="edge48" class="edge">
<title>40&#45;&gt;48</title>
<path fill="none" stroke="black" d="M798.18,-293.83C807.64,-284.87 819.18,-273.93 829.39,-264.26"/>
<polygon fill="black" stroke="black" points="832.02,-266.59 836.87,-257.17 827.21,-261.51 832.02,-266.59"/>
</g>
<!-- 42 -->
<g id="node43" class="node">
<title>42</title>
<polygon fill="none" stroke="black" points="748,-183 662,-183 662,-147 748,-147 748,-183"/>
<text text-anchor="middle" x="705" y="-161.3" font-family="Times,serif" font-size="14.00">class = USA</text>
</g>
<!-- 41&#45;&gt;42 -->
<g id="edge42" class="edge">
<title>41&#45;&gt;42</title>
<path fill="none" stroke="black" d="M721.45,-219.83C718.97,-211.72 716,-201.99 713.27,-193.05"/>
<polygon fill="black" stroke="black" points="716.59,-191.96 710.32,-183.42 709.9,-194 716.59,-191.96"/>
</g>
<!-- 43 -->
<g id="node44" class="node">
<title>43</title>
<polygon fill="none" stroke="black" points="900,-184 766,-184 766,-146 900,-146 900,-184"/>
<text text-anchor="middle" x="833" y="-168.8" font-family="Times,serif" font-size="14.00">longitude &lt;= &#45;68.597</text>
<text text-anchor="middle" x="833" y="-153.8" font-family="Times,serif" font-size="14.00">class = Canada</text>
</g>
<!-- 41&#45;&gt;43 -->
<g id="edge43" class="edge">
<title>41&#45;&gt;43</title>
<path fill="none" stroke="black" d="M753.75,-219.83C767.06,-210.79 783.32,-199.75 797.64,-190.02"/>
<polygon fill="black" stroke="black" points="799.95,-192.68 806.26,-184.16 796.02,-186.89 799.95,-192.68"/>
</g>
<!-- 44 -->
<g id="node45" class="node">
<title>44</title>
<polygon fill="none" stroke="black" points="818.5,-109 719.5,-109 719.5,-73 818.5,-73 818.5,-109"/>
<text text-anchor="middle" x="769" y="-87.3" font-family="Times,serif" font-size="14.00">class = Canada</text>
</g>
<!-- 43&#45;&gt;44 -->
<g id="edge44" class="edge">
<title>43&#45;&gt;44</title>
<path fill="none" stroke="black" d="M816.85,-145.83C809.1,-137.11 799.68,-126.52 791.26,-117.05"/>
<polygon fill="black" stroke="black" points="793.74,-114.57 784.48,-109.42 788.51,-119.22 793.74,-114.57"/>
</g>
<!-- 45 -->
<g id="node46" class="node">
<title>45</title>
<polygon fill="none" stroke="black" points="955.5,-110 836.5,-110 836.5,-72 955.5,-72 955.5,-110"/>
<text text-anchor="middle" x="896" y="-94.8" font-family="Times,serif" font-size="14.00">latitude &lt;= 47.312</text>
<text text-anchor="middle" x="896" y="-79.8" font-family="Times,serif" font-size="14.00">class = Canada</text>
</g>
<!-- 43&#45;&gt;45 -->
<g id="edge45" class="edge">
<title>43&#45;&gt;45</title>
<path fill="none" stroke="black" d="M848.9,-145.83C856.23,-137.45 865.07,-127.35 873.1,-118.17"/>
<polygon fill="black" stroke="black" points="875.94,-120.24 879.89,-110.41 870.67,-115.63 875.94,-120.24"/>
</g>
<!-- 46 -->
<g id="node47" class="node">
<title>46</title>
<polygon fill="none" stroke="black" points="883,-36 797,-36 797,0 883,0 883,-36"/>
<text text-anchor="middle" x="840" y="-14.3" font-family="Times,serif" font-size="14.00">class = USA</text>
</g>
<!-- 45&#45;&gt;46 -->
<g id="edge46" class="edge">
<title>45&#45;&gt;46</title>
<path fill="none" stroke="black" d="M881.58,-71.72C874.93,-63.29 866.93,-53.15 859.73,-44.02"/>
<polygon fill="black" stroke="black" points="862.35,-41.69 853.41,-36 856.86,-46.02 862.35,-41.69"/>
</g>
<!-- 47 -->
<g id="node48" class="node">
<title>47</title>
<polygon fill="none" stroke="black" points="1000.5,-36 901.5,-36 901.5,0 1000.5,0 1000.5,-36"/>
<text text-anchor="middle" x="951" y="-14.3" font-family="Times,serif" font-size="14.00">class = Canada</text>
</g>
<!-- 45&#45;&gt;47 -->
<g id="edge47" class="edge">
<title>45&#45;&gt;47</title>
<path fill="none" stroke="black" d="M910.16,-71.72C916.69,-63.29 924.55,-53.15 931.62,-44.02"/>
<polygon fill="black" stroke="black" points="934.47,-46.05 937.83,-36 928.94,-41.77 934.47,-46.05"/>
</g>
<!-- 50 -->
<g id="node51" class="node">
<title>50</title>
<polygon fill="none" stroke="black" points="1035.5,-258 916.5,-258 916.5,-220 1035.5,-220 1035.5,-258"/>
<text text-anchor="middle" x="976" y="-242.8" font-family="Times,serif" font-size="14.00">latitude &lt;= 45.382</text>
<text text-anchor="middle" x="976" y="-227.8" font-family="Times,serif" font-size="14.00">class = Canada</text>
</g>
<!-- 49&#45;&gt;50 -->
<g id="edge50" class="edge">
<title>49&#45;&gt;50</title>
<path fill="none" stroke="black" d="M976,-293.83C976,-286.13 976,-276.97 976,-268.42"/>
<polygon fill="black" stroke="black" points="979.5,-268.41 976,-258.41 972.5,-268.41 979.5,-268.41"/>
</g>
<!-- 53 -->
<g id="node54" class="node">
<title>53</title>
<polygon fill="none" stroke="black" points="1152.5,-257 1053.5,-257 1053.5,-221 1152.5,-221 1152.5,-257"/>
<text text-anchor="middle" x="1103" y="-235.3" font-family="Times,serif" font-size="14.00">class = Canada</text>
</g>
<!-- 49&#45;&gt;53 -->
<g id="edge53" class="edge">
<title>49&#45;&gt;53</title>
<path fill="none" stroke="black" d="M1008.05,-293.83C1024.94,-284.25 1045.81,-272.42 1063.68,-262.29"/>
<polygon fill="black" stroke="black" points="1065.74,-265.15 1072.71,-257.17 1062.29,-259.06 1065.74,-265.15"/>
</g>
<!-- 51 -->
<g id="node52" class="node">
<title>51</title>
<polygon fill="none" stroke="black" points="1022.5,-183 923.5,-183 923.5,-147 1022.5,-147 1022.5,-183"/>
<text text-anchor="middle" x="973" y="-161.3" font-family="Times,serif" font-size="14.00">class = Canada</text>
</g>
<!-- 50&#45;&gt;51 -->
<g id="edge51" class="edge">
<title>50&#45;&gt;51</title>
<path fill="none" stroke="black" d="M975.24,-219.83C974.91,-211.89 974.52,-202.41 974.15,-193.63"/>
<polygon fill="black" stroke="black" points="977.64,-193.26 973.73,-183.42 970.65,-193.55 977.64,-193.26"/>
</g>
<!-- 52 -->
<g id="node53" class="node">
<title>52</title>
<polygon fill="none" stroke="black" points="1127,-183 1041,-183 1041,-147 1127,-147 1127,-183"/>
<text text-anchor="middle" x="1084" y="-161.3" font-family="Times,serif" font-size="14.00">class = USA</text>
</g>
<!-- 50&#45;&gt;52 -->
<g id="edge52" class="edge">
<title>50&#45;&gt;52</title>
<path fill="none" stroke="black" d="M1003.25,-219.83C1017.36,-210.43 1034.72,-198.86 1049.72,-188.85"/>
<polygon fill="black" stroke="black" points="1051.86,-191.63 1058.24,-183.17 1047.98,-185.81 1051.86,-191.63"/>
</g>
</g>
</svg>
