<?xml version="1.0" encoding="UTF-8" standalone="no"?>
<!DOCTYPE svg PUBLIC "-//W3C//DTD SVG 1.1//EN"
 "http://www.w3.org/Graphics/SVG/1.1/DTD/svg11.dtd">
<!-- Generated by graphviz version 2.44.1 (20200629.0846)
 -->
<!-- Title: Tree Pages: 1 -->
<svg width="1852pt" height="636pt"
 viewBox="0.00 0.00 1852.00 636.00" xmlns="http://www.w3.org/2000/svg" xmlns:xlink="http://www.w3.org/1999/xlink">
<g id="graph0" class="graph" transform="scale(1 1) rotate(0) translate(4 632)">
<title>Tree</title>
<polygon fill="white" stroke="transparent" points="-4,4 -4,-632 1848,-632 1848,4 -4,4"/>
<!-- 0 -->
<g id="node1" class="node">
<title>0</title>
<polygon fill="none" stroke="black" points="609,-628 517,-628 517,-590 609,-590 609,-628"/>
<text text-anchor="middle" x="563" y="-612.8" font-family="Times,serif" font-size="14.00">lat &lt;= 37.682</text>
<text text-anchor="middle" x="563" y="-597.8" font-family="Times,serif" font-size="14.00">class = blue</text>
</g>
<!-- 1 -->
<g id="node2" class="node">
<title>1</title>
<polygon fill="none" stroke="black" points="363.5,-554 256.5,-554 256.5,-516 363.5,-516 363.5,-554"/>
<text text-anchor="middle" x="310" y="-538.8" font-family="Times,serif" font-size="14.00">lon &lt;= &#45;114.063</text>
<text text-anchor="middle" x="310" y="-523.8" font-family="Times,serif" font-size="14.00">class = red</text>
</g>
<!-- 0&#45;&gt;1 -->
<g id="edge1" class="edge">
<title>0&#45;&gt;1</title>
<path fill="none" stroke="black" d="M516.89,-594.88C476.74,-583.45 418.14,-566.78 373.55,-554.09"/>
<polygon fill="black" stroke="black" points="374.27,-550.65 363.69,-551.28 372.35,-557.38 374.27,-550.65"/>
<text text-anchor="middle" x="375.85" y="-569.42" font-family="Times,serif" font-size="14.00">True</text>
</g>
<!-- 24 -->
<g id="node25" class="node">
<title>24</title>
<polygon fill="none" stroke="black" points="923,-554 823,-554 823,-516 923,-516 923,-554"/>
<text text-anchor="middle" x="873" y="-538.8" font-family="Times,serif" font-size="14.00">lon &lt;= &#45;96.061</text>
<text text-anchor="middle" x="873" y="-523.8" font-family="Times,serif" font-size="14.00">class = blue</text>
</g>
<!-- 0&#45;&gt;24 -->
<g id="edge24" class="edge">
<title>0&#45;&gt;24</title>
<path fill="none" stroke="black" d="M609.08,-597.3C663.21,-584.73 753.17,-563.83 812.78,-549.99"/>
<polygon fill="black" stroke="black" points="813.86,-553.33 822.81,-547.66 812.28,-546.51 813.86,-553.33"/>
<text text-anchor="middle" x="809.59" y="-565.18" font-family="Times,serif" font-size="14.00">False</text>
</g>
<!-- 2 -->
<g id="node3" class="node">
<title>2</title>
<polygon fill="none" stroke="black" points="246,-479 164,-479 164,-443 246,-443 246,-479"/>
<text text-anchor="middle" x="205" y="-457.3" font-family="Times,serif" font-size="14.00">class = blue</text>
</g>
<!-- 1&#45;&gt;2 -->
<g id="edge2" class="edge">
<title>1&#45;&gt;2</title>
<path fill="none" stroke="black" d="M283.5,-515.83C269.79,-506.43 252.91,-494.86 238.33,-484.85"/>
<polygon fill="black" stroke="black" points="240.27,-481.94 230.04,-479.17 236.31,-487.71 240.27,-481.94"/>
</g>
<!-- 3 -->
<g id="node4" class="node">
<title>3</title>
<polygon fill="none" stroke="black" points="356,-480 264,-480 264,-442 356,-442 356,-480"/>
<text text-anchor="middle" x="310" y="-464.8" font-family="Times,serif" font-size="14.00">lat &lt;= 29.595</text>
<text text-anchor="middle" x="310" y="-449.8" font-family="Times,serif" font-size="14.00">class = red</text>
</g>
<!-- 1&#45;&gt;3 -->
<g id="edge3" class="edge">
<title>1&#45;&gt;3</title>
<path fill="none" stroke="black" d="M310,-515.83C310,-508.13 310,-498.97 310,-490.42"/>
<polygon fill="black" stroke="black" points="313.5,-490.41 310,-480.41 306.5,-490.41 313.5,-490.41"/>
</g>
<!-- 4 -->
<g id="node5" class="node">
<title>4</title>
<polygon fill="none" stroke="black" points="185,-406 85,-406 85,-368 185,-368 185,-406"/>
<text text-anchor="middle" x="135" y="-390.8" font-family="Times,serif" font-size="14.00">lon &lt;= &#45;90.074</text>
<text text-anchor="middle" x="135" y="-375.8" font-family="Times,serif" font-size="14.00">class = blue</text>
</g>
<!-- 3&#45;&gt;4 -->
<g id="edge4" class="edge">
<title>3&#45;&gt;4</title>
<path fill="none" stroke="black" d="M265.84,-441.83C242.23,-432.12 212.98,-420.08 188.13,-409.86"/>
<polygon fill="black" stroke="black" points="189.42,-406.61 178.84,-406.04 186.76,-413.08 189.42,-406.61"/>
</g>
<!-- 7 -->
<g id="node8" class="node">
<title>7</title>
<polygon fill="none" stroke="black" points="356,-406 264,-406 264,-368 356,-368 356,-406"/>
<text text-anchor="middle" x="310" y="-390.8" font-family="Times,serif" font-size="14.00">lat &lt;= 36.522</text>
<text text-anchor="middle" x="310" y="-375.8" font-family="Times,serif" font-size="14.00">class = red</text>
</g>
<!-- 3&#45;&gt;7 -->
<g id="edge7" class="edge">
<title>3&#45;&gt;7</title>
<path fill="none" stroke="black" d="M310,-441.83C310,-434.13 310,-424.97 310,-416.42"/>
<polygon fill="black" stroke="black" points="313.5,-416.41 310,-406.41 306.5,-416.41 313.5,-416.41"/>
</g>
<!-- 5 -->
<g id="node6" class="node">
<title>5</title>
<polygon fill="none" stroke="black" points="76,-331 0,-331 0,-295 76,-295 76,-331"/>
<text text-anchor="middle" x="38" y="-309.3" font-family="Times,serif" font-size="14.00">class = red</text>
</g>
<!-- 4&#45;&gt;5 -->
<g id="edge5" class="edge">
<title>4&#45;&gt;5</title>
<path fill="none" stroke="black" d="M110.52,-367.83C97.97,-358.52 82.55,-347.07 69.16,-337.13"/>
<polygon fill="black" stroke="black" points="71.25,-334.32 61.13,-331.17 67.08,-339.94 71.25,-334.32"/>
</g>
<!-- 6 -->
<g id="node7" class="node">
<title>6</title>
<polygon fill="none" stroke="black" points="176,-331 94,-331 94,-295 176,-295 176,-331"/>
<text text-anchor="middle" x="135" y="-309.3" font-family="Times,serif" font-size="14.00">class = blue</text>
</g>
<!-- 4&#45;&gt;6 -->
<g id="edge6" class="edge">
<title>4&#45;&gt;6</title>
<path fill="none" stroke="black" d="M135,-367.83C135,-359.89 135,-350.41 135,-341.63"/>
<polygon fill="black" stroke="black" points="138.5,-341.42 135,-331.42 131.5,-341.42 138.5,-341.42"/>
</g>
<!-- 8 -->
<g id="node9" class="node">
<title>8</title>
<polygon fill="none" stroke="black" points="301.5,-332 194.5,-332 194.5,-294 301.5,-294 301.5,-332"/>
<text text-anchor="middle" x="248" y="-316.8" font-family="Times,serif" font-size="14.00">lon &lt;= &#45;102.257</text>
<text text-anchor="middle" x="248" y="-301.8" font-family="Times,serif" font-size="14.00">class = red</text>
</g>
<!-- 7&#45;&gt;8 -->
<g id="edge8" class="edge">
<title>7&#45;&gt;8</title>
<path fill="none" stroke="black" d="M294.35,-367.83C287.14,-359.45 278.44,-349.35 270.54,-340.17"/>
<polygon fill="black" stroke="black" points="273.03,-337.71 263.86,-332.41 267.73,-342.27 273.03,-337.71"/>
</g>
<!-- 15 -->
<g id="node16" class="node">
<title>15</title>
<polygon fill="none" stroke="black" points="420,-332 320,-332 320,-294 420,-294 420,-332"/>
<text text-anchor="middle" x="370" y="-316.8" font-family="Times,serif" font-size="14.00">lon &lt;= &#45;82.415</text>
<text text-anchor="middle" x="370" y="-301.8" font-family="Times,serif" font-size="14.00">class = red</text>
</g>
<!-- 7&#45;&gt;15 -->
<g id="edge15" class="edge">
<title>7&#45;&gt;15</title>
<path fill="none" stroke="black" d="M325.14,-367.83C332.12,-359.45 340.54,-349.35 348.19,-340.17"/>
<polygon fill="black" stroke="black" points="350.94,-342.34 354.66,-332.41 345.56,-337.85 350.94,-342.34"/>
</g>
<!-- 9 -->
<g id="node10" class="node">
<title>9</title>
<polygon fill="none" stroke="black" points="191.5,-258 84.5,-258 84.5,-220 191.5,-220 191.5,-258"/>
<text text-anchor="middle" x="138" y="-242.8" font-family="Times,serif" font-size="14.00">lon &lt;= &#45;107.589</text>
<text text-anchor="middle" x="138" y="-227.8" font-family="Times,serif" font-size="14.00">class = red</text>
</g>
<!-- 8&#45;&gt;9 -->
<g id="edge9" class="edge">
<title>8&#45;&gt;9</title>
<path fill="none" stroke="black" d="M220.24,-293.83C206.3,-284.71 189.24,-273.54 174.28,-263.74"/>
<polygon fill="black" stroke="black" points="176.03,-260.71 165.75,-258.16 172.2,-266.57 176.03,-260.71"/>
</g>
<!-- 14 -->
<g id="node15" class="node">
<title>14</title>
<polygon fill="none" stroke="black" points="286,-257 210,-257 210,-221 286,-221 286,-257"/>
<text text-anchor="middle" x="248" y="-235.3" font-family="Times,serif" font-size="14.00">class = red</text>
</g>
<!-- 8&#45;&gt;14 -->
<g id="edge14" class="edge">
<title>8&#45;&gt;14</title>
<path fill="none" stroke="black" d="M248,-293.83C248,-285.89 248,-276.41 248,-267.63"/>
<polygon fill="black" stroke="black" points="251.5,-267.42 248,-257.42 244.5,-267.42 251.5,-267.42"/>
</g>
<!-- 10 -->
<g id="node11" class="node">
<title>10</title>
<polygon fill="none" stroke="black" points="85,-183 9,-183 9,-147 85,-147 85,-183"/>
<text text-anchor="middle" x="47" y="-161.3" font-family="Times,serif" font-size="14.00">class = red</text>
</g>
<!-- 9&#45;&gt;10 -->
<g id="edge10" class="edge">
<title>9&#45;&gt;10</title>
<path fill="none" stroke="black" d="M115.04,-219.83C103.38,-210.6 89.07,-199.29 76.59,-189.41"/>
<polygon fill="black" stroke="black" points="78.72,-186.63 68.7,-183.17 74.37,-192.12 78.72,-186.63"/>
</g>
<!-- 11 -->
<g id="node12" class="node">
<title>11</title>
<polygon fill="none" stroke="black" points="195,-184 103,-184 103,-146 195,-146 195,-184"/>
<text text-anchor="middle" x="149" y="-168.8" font-family="Times,serif" font-size="14.00">lat &lt;= 31.788</text>
<text text-anchor="middle" x="149" y="-153.8" font-family="Times,serif" font-size="14.00">class = blue</text>
</g>
<!-- 9&#45;&gt;11 -->
<g id="edge11" class="edge">
<title>9&#45;&gt;11</title>
<path fill="none" stroke="black" d="M140.78,-219.83C141.95,-212.13 143.35,-202.97 144.66,-194.42"/>
<polygon fill="black" stroke="black" points="148.14,-194.83 146.19,-184.41 141.22,-193.77 148.14,-194.83"/>
</g>
<!-- 12 -->
<g id="node13" class="node">
<title>12</title>
<polygon fill="none" stroke="black" points="139,-109 63,-109 63,-73 139,-73 139,-109"/>
<text text-anchor="middle" x="101" y="-87.3" font-family="Times,serif" font-size="14.00">class = red</text>
</g>
<!-- 11&#45;&gt;12 -->
<g id="edge12" class="edge">
<title>11&#45;&gt;12</title>
<path fill="none" stroke="black" d="M136.89,-145.83C131.25,-137.37 124.43,-127.15 118.27,-117.9"/>
<polygon fill="black" stroke="black" points="121.07,-115.8 112.61,-109.42 115.25,-119.68 121.07,-115.8"/>
</g>
<!-- 13 -->
<g id="node14" class="node">
<title>13</title>
<polygon fill="none" stroke="black" points="239,-109 157,-109 157,-73 239,-73 239,-109"/>
<text text-anchor="middle" x="198" y="-87.3" font-family="Times,serif" font-size="14.00">class = blue</text>
</g>
<!-- 11&#45;&gt;13 -->
<g id="edge13" class="edge">
<title>11&#45;&gt;13</title>
<path fill="none" stroke="black" d="M161.36,-145.83C167.12,-137.37 174.08,-127.15 180.37,-117.9"/>
<polygon fill="black" stroke="black" points="183.41,-119.65 186.15,-109.42 177.63,-115.72 183.41,-119.65"/>
</g>
<!-- 16 -->
<g id="node17" class="node">
<title>16</title>
<polygon fill="none" stroke="black" points="411.5,-258 304.5,-258 304.5,-220 411.5,-220 411.5,-258"/>
<text text-anchor="middle" x="358" y="-242.8" font-family="Times,serif" font-size="14.00">lon &lt;= &#45;100.922</text>
<text text-anchor="middle" x="358" y="-227.8" font-family="Times,serif" font-size="14.00">class = red</text>
</g>
<!-- 15&#45;&gt;16 -->
<g id="edge16" class="edge">
<title>15&#45;&gt;16</title>
<path fill="none" stroke="black" d="M366.97,-293.83C365.69,-286.13 364.16,-276.97 362.74,-268.42"/>
<polygon fill="black" stroke="black" points="366.17,-267.7 361.07,-258.41 359.26,-268.85 366.17,-267.7"/>
</g>
<!-- 19 -->
<g id="node20" class="node">
<title>19</title>
<polygon fill="none" stroke="black" points="530,-258 430,-258 430,-220 530,-220 530,-258"/>
<text text-anchor="middle" x="480" y="-242.8" font-family="Times,serif" font-size="14.00">lon &lt;= &#45;80.706</text>
<text text-anchor="middle" x="480" y="-227.8" font-family="Times,serif" font-size="14.00">class = blue</text>
</g>
<!-- 15&#45;&gt;19 -->
<g id="edge19" class="edge">
<title>15&#45;&gt;19</title>
<path fill="none" stroke="black" d="M397.76,-293.83C411.7,-284.71 428.76,-273.54 443.72,-263.74"/>
<polygon fill="black" stroke="black" points="445.8,-266.57 452.25,-258.16 441.97,-260.71 445.8,-266.57"/>
</g>
<!-- 17 -->
<g id="node18" class="node">
<title>17</title>
<polygon fill="none" stroke="black" points="309,-183 227,-183 227,-147 309,-147 309,-183"/>
<text text-anchor="middle" x="268" y="-161.3" font-family="Times,serif" font-size="14.00">class = blue</text>
</g>
<!-- 16&#45;&gt;17 -->
<g id="edge17" class="edge">
<title>16&#45;&gt;17</title>
<path fill="none" stroke="black" d="M335.29,-219.83C323.87,-210.69 309.88,-199.5 297.62,-189.7"/>
<polygon fill="black" stroke="black" points="299.46,-186.69 289.46,-183.17 295.09,-192.15 299.46,-186.69"/>
</g>
<!-- 18 -->
<g id="node19" class="node">
<title>18</title>
<polygon fill="none" stroke="black" points="403,-183 327,-183 327,-147 403,-147 403,-183"/>
<text text-anchor="middle" x="365" y="-161.3" font-family="Times,serif" font-size="14.00">class = red</text>
</g>
<!-- 16&#45;&gt;18 -->
<g id="edge18" class="edge">
<title>16&#45;&gt;18</title>
<path fill="none" stroke="black" d="M359.77,-219.83C360.54,-211.89 361.46,-202.41 362.31,-193.63"/>
<polygon fill="black" stroke="black" points="365.82,-193.71 363.31,-183.42 358.86,-193.03 365.82,-193.71"/>
</g>
<!-- 20 -->
<g id="node21" class="node">
<title>20</title>
<polygon fill="none" stroke="black" points="511.5,-184 426.5,-184 426.5,-146 511.5,-146 511.5,-184"/>
<text text-anchor="middle" x="469" y="-168.8" font-family="Times,serif" font-size="14.00">lat &lt;= 37.15</text>
<text text-anchor="middle" x="469" y="-153.8" font-family="Times,serif" font-size="14.00">class = blue</text>
</g>
<!-- 19&#45;&gt;20 -->
<g id="edge20" class="edge">
<title>19&#45;&gt;20</title>
<path fill="none" stroke="black" d="M477.22,-219.83C476.05,-212.13 474.65,-202.97 473.34,-194.42"/>
<polygon fill="black" stroke="black" points="476.78,-193.77 471.81,-184.41 469.86,-194.83 476.78,-193.77"/>
</g>
<!-- 23 -->
<g id="node24" class="node">
<title>23</title>
<polygon fill="none" stroke="black" points="612,-183 530,-183 530,-147 612,-147 612,-183"/>
<text text-anchor="middle" x="571" y="-161.3" font-family="Times,serif" font-size="14.00">class = blue</text>
</g>
<!-- 19&#45;&gt;23 -->
<g id="edge23" class="edge">
<title>19&#45;&gt;23</title>
<path fill="none" stroke="black" d="M502.96,-219.83C514.62,-210.6 528.93,-199.29 541.41,-189.41"/>
<polygon fill="black" stroke="black" points="543.63,-192.12 549.3,-183.17 539.28,-186.63 543.63,-192.12"/>
</g>
<!-- 21 -->
<g id="node22" class="node">
<title>21</title>
<polygon fill="none" stroke="black" points="462,-109 380,-109 380,-73 462,-73 462,-109"/>
<text text-anchor="middle" x="421" y="-87.3" font-family="Times,serif" font-size="14.00">class = blue</text>
</g>
<!-- 20&#45;&gt;21 -->
<g id="edge21" class="edge">
<title>20&#45;&gt;21</title>
<path fill="none" stroke="black" d="M456.89,-145.83C451.25,-137.37 444.43,-127.15 438.27,-117.9"/>
<polygon fill="black" stroke="black" points="441.07,-115.8 432.61,-109.42 435.25,-119.68 441.07,-115.8"/>
</g>
<!-- 22 -->
<g id="node23" class="node">
<title>22</title>
<polygon fill="none" stroke="black" points="556,-109 480,-109 480,-73 556,-73 556,-109"/>
<text text-anchor="middle" x="518" y="-87.3" font-family="Times,serif" font-size="14.00">class = red</text>
</g>
<!-- 20&#45;&gt;22 -->
<g id="edge22" class="edge">
<title>20&#45;&gt;22</title>
<path fill="none" stroke="black" d="M481.36,-145.83C487.12,-137.37 494.08,-127.15 500.37,-117.9"/>
<polygon fill="black" stroke="black" points="503.41,-119.65 506.15,-109.42 497.63,-115.72 503.41,-119.65"/>
</g>
<!-- 25 -->
<g id="node26" class="node">
<title>25</title>
<polygon fill="none" stroke="black" points="926.5,-480 819.5,-480 819.5,-442 926.5,-442 926.5,-480"/>
<text text-anchor="middle" x="873" y="-464.8" font-family="Times,serif" font-size="14.00">lon &lt;= &#45;104.089</text>
<text text-anchor="middle" x="873" y="-449.8" font-family="Times,serif" font-size="14.00">class = red</text>
</g>
<!-- 24&#45;&gt;25 -->
<g id="edge25" class="edge">
<title>24&#45;&gt;25</title>
<path fill="none" stroke="black" d="M873,-515.83C873,-508.13 873,-498.97 873,-490.42"/>
<polygon fill="black" stroke="black" points="876.5,-490.41 873,-480.41 869.5,-490.41 876.5,-490.41"/>
</g>
<!-- 42 -->
<g id="node43" class="node">
<title>42</title>
<polygon fill="none" stroke="black" points="1461,-480 1369,-480 1369,-442 1461,-442 1461,-480"/>
<text text-anchor="middle" x="1415" y="-464.8" font-family="Times,serif" font-size="14.00">lat &lt;= 39.759</text>
<text text-anchor="middle" x="1415" y="-449.8" font-family="Times,serif" font-size="14.00">class = blue</text>
</g>
<!-- 24&#45;&gt;42 -->
<g id="edge42" class="edge">
<title>24&#45;&gt;42</title>
<path fill="none" stroke="black" d="M923.02,-527.36C1024.21,-513.91 1252.6,-483.57 1358.77,-469.47"/>
<polygon fill="black" stroke="black" points="1359.51,-472.9 1368.96,-468.12 1358.59,-465.96 1359.51,-472.9"/>
</g>
<!-- 26 -->
<g id="node27" class="node">
<title>26</title>
<polygon fill="none" stroke="black" points="862,-406 770,-406 770,-368 862,-368 862,-406"/>
<text text-anchor="middle" x="816" y="-390.8" font-family="Times,serif" font-size="14.00">lat &lt;= 41.895</text>
<text text-anchor="middle" x="816" y="-375.8" font-family="Times,serif" font-size="14.00">class = blue</text>
</g>
<!-- 25&#45;&gt;26 -->
<g id="edge26" class="edge">
<title>25&#45;&gt;26</title>
<path fill="none" stroke="black" d="M858.62,-441.83C852.05,-433.54 844.15,-423.56 836.94,-414.45"/>
<polygon fill="black" stroke="black" points="839.53,-412.08 830.58,-406.41 834.04,-416.43 839.53,-412.08"/>
</g>
<!-- 37 -->
<g id="node38" class="node">
<title>37</title>
<polygon fill="none" stroke="black" points="980,-406 880,-406 880,-368 980,-368 980,-406"/>
<text text-anchor="middle" x="930" y="-390.8" font-family="Times,serif" font-size="14.00">lon &lt;= &#45;96.557</text>
<text text-anchor="middle" x="930" y="-375.8" font-family="Times,serif" font-size="14.00">class = red</text>
</g>
<!-- 25&#45;&gt;37 -->
<g id="edge37" class="edge">
<title>25&#45;&gt;37</title>
<path fill="none" stroke="black" d="M887.38,-441.83C893.95,-433.54 901.85,-423.56 909.06,-414.45"/>
<polygon fill="black" stroke="black" points="911.96,-416.43 915.42,-406.41 906.47,-412.08 911.96,-416.43"/>
</g>
<!-- 27 -->
<g id="node28" class="node">
<title>27</title>
<polygon fill="none" stroke="black" points="755.5,-332 648.5,-332 648.5,-294 755.5,-294 755.5,-332"/>
<text text-anchor="middle" x="702" y="-316.8" font-family="Times,serif" font-size="14.00">lon &lt;= &#45;113.872</text>
<text text-anchor="middle" x="702" y="-301.8" font-family="Times,serif" font-size="14.00">class = blue</text>
</g>
<!-- 26&#45;&gt;27 -->
<g id="edge27" class="edge">
<title>26&#45;&gt;27</title>
<path fill="none" stroke="black" d="M787.23,-367.83C772.79,-358.71 755.1,-347.54 739.6,-337.74"/>
<polygon fill="black" stroke="black" points="741.08,-334.54 730.76,-332.16 737.34,-340.46 741.08,-334.54"/>
</g>
<!-- 32 -->
<g id="node33" class="node">
<title>32</title>
<polygon fill="none" stroke="black" points="858.5,-332 773.5,-332 773.5,-294 858.5,-294 858.5,-332"/>
<text text-anchor="middle" x="816" y="-316.8" font-family="Times,serif" font-size="14.00">lat &lt;= 45.33</text>
<text text-anchor="middle" x="816" y="-301.8" font-family="Times,serif" font-size="14.00">class = red</text>
</g>
<!-- 26&#45;&gt;32 -->
<g id="edge32" class="edge">
<title>26&#45;&gt;32</title>
<path fill="none" stroke="black" d="M816,-367.83C816,-360.13 816,-350.97 816,-342.42"/>
<polygon fill="black" stroke="black" points="819.5,-342.41 816,-332.41 812.5,-342.41 819.5,-342.41"/>
</g>
<!-- 28 -->
<g id="node29" class="node">
<title>28</title>
<polygon fill="none" stroke="black" points="630,-257 548,-257 548,-221 630,-221 630,-257"/>
<text text-anchor="middle" x="589" y="-235.3" font-family="Times,serif" font-size="14.00">class = blue</text>
</g>
<!-- 27&#45;&gt;28 -->
<g id="edge28" class="edge">
<title>27&#45;&gt;28</title>
<path fill="none" stroke="black" d="M673.49,-293.83C658.59,-284.34 640.22,-272.64 624.42,-262.57"/>
<polygon fill="black" stroke="black" points="626.26,-259.59 615.95,-257.17 622.5,-265.5 626.26,-259.59"/>
</g>
<!-- 29 -->
<g id="node30" class="node">
<title>29</title>
<polygon fill="none" stroke="black" points="755.5,-258 648.5,-258 648.5,-220 755.5,-220 755.5,-258"/>
<text text-anchor="middle" x="702" y="-242.8" font-family="Times,serif" font-size="14.00">lon &lt;= &#45;107.957</text>
<text text-anchor="middle" x="702" y="-227.8" font-family="Times,serif" font-size="14.00">class = blue</text>
</g>
<!-- 27&#45;&gt;29 -->
<g id="edge29" class="edge">
<title>27&#45;&gt;29</title>
<path fill="none" stroke="black" d="M702,-293.83C702,-286.13 702,-276.97 702,-268.42"/>
<polygon fill="black" stroke="black" points="705.5,-268.41 702,-258.41 698.5,-268.41 705.5,-268.41"/>
</g>
<!-- 30 -->
<g id="node31" class="node">
<title>30</title>
<polygon fill="none" stroke="black" points="708,-183 632,-183 632,-147 708,-147 708,-183"/>
<text text-anchor="middle" x="670" y="-161.3" font-family="Times,serif" font-size="14.00">class = red</text>
</g>
<!-- 29&#45;&gt;30 -->
<g id="edge30" class="edge">
<title>29&#45;&gt;30</title>
<path fill="none" stroke="black" d="M693.93,-219.83C690.28,-211.63 685.9,-201.78 681.89,-192.76"/>
<polygon fill="black" stroke="black" points="685,-191.13 677.74,-183.42 678.6,-193.98 685,-191.13"/>
</g>
<!-- 31 -->
<g id="node32" class="node">
<title>31</title>
<polygon fill="none" stroke="black" points="808,-183 726,-183 726,-147 808,-147 808,-183"/>
<text text-anchor="middle" x="767" y="-161.3" font-family="Times,serif" font-size="14.00">class = blue</text>
</g>
<!-- 29&#45;&gt;31 -->
<g id="edge31" class="edge">
<title>29&#45;&gt;31</title>
<path fill="none" stroke="black" d="M718.4,-219.83C726.28,-211.11 735.84,-200.52 744.39,-191.05"/>
<polygon fill="black" stroke="black" points="747.17,-193.19 751.28,-183.42 741.98,-188.5 747.17,-193.19"/>
</g>
<!-- 33 -->
<g id="node34" class="node">
<title>33</title>
<polygon fill="none" stroke="black" points="850,-257 774,-257 774,-221 850,-221 850,-257"/>
<text text-anchor="middle" x="812" y="-235.3" font-family="Times,serif" font-size="14.00">class = red</text>
</g>
<!-- 32&#45;&gt;33 -->
<g id="edge33" class="edge">
<title>32&#45;&gt;33</title>
<path fill="none" stroke="black" d="M814.99,-293.83C814.55,-285.89 814.02,-276.41 813.53,-267.63"/>
<polygon fill="black" stroke="black" points="817.02,-267.21 812.97,-257.42 810.03,-267.6 817.02,-267.21"/>
</g>
<!-- 34 -->
<g id="node35" class="node">
<title>34</title>
<polygon fill="none" stroke="black" points="975.5,-258 868.5,-258 868.5,-220 975.5,-220 975.5,-258"/>
<text text-anchor="middle" x="922" y="-242.8" font-family="Times,serif" font-size="14.00">lon &lt;= &#45;133.954</text>
<text text-anchor="middle" x="922" y="-227.8" font-family="Times,serif" font-size="14.00">class = blue</text>
</g>
<!-- 32&#45;&gt;34 -->
<g id="edge34" class="edge">
<title>32&#45;&gt;34</title>
<path fill="none" stroke="black" d="M842.75,-293.83C856.06,-284.79 872.32,-273.75 886.64,-264.02"/>
<polygon fill="black" stroke="black" points="888.95,-266.68 895.26,-258.16 885.02,-260.89 888.95,-266.68"/>
</g>
<!-- 35 -->
<g id="node36" class="node">
<title>35</title>
<polygon fill="none" stroke="black" points="903,-183 827,-183 827,-147 903,-147 903,-183"/>
<text text-anchor="middle" x="865" y="-161.3" font-family="Times,serif" font-size="14.00">class = red</text>
</g>
<!-- 34&#45;&gt;35 -->
<g id="edge35" class="edge">
<title>34&#45;&gt;35</title>
<path fill="none" stroke="black" d="M907.62,-219.83C900.78,-211.2 892.49,-200.73 885.05,-191.33"/>
<polygon fill="black" stroke="black" points="887.74,-189.09 878.79,-183.42 882.25,-193.43 887.74,-189.09"/>
</g>
<!-- 36 -->
<g id="node37" class="node">
<title>36</title>
<polygon fill="none" stroke="black" points="1003,-183 921,-183 921,-147 1003,-147 1003,-183"/>
<text text-anchor="middle" x="962" y="-161.3" font-family="Times,serif" font-size="14.00">class = blue</text>
</g>
<!-- 34&#45;&gt;36 -->
<g id="edge36" class="edge">
<title>34&#45;&gt;36</title>
<path fill="none" stroke="black" d="M932.09,-219.83C936.75,-211.46 942.35,-201.36 947.45,-192.19"/>
<polygon fill="black" stroke="black" points="950.53,-193.86 952.32,-183.42 944.41,-190.46 950.53,-193.86"/>
</g>
<!-- 38 -->
<g id="node39" class="node">
<title>38</title>
<polygon fill="none" stroke="black" points="968,-331 892,-331 892,-295 968,-295 968,-331"/>
<text text-anchor="middle" x="930" y="-309.3" font-family="Times,serif" font-size="14.00">class = red</text>
</g>
<!-- 37&#45;&gt;38 -->
<g id="edge38" class="edge">
<title>37&#45;&gt;38</title>
<path fill="none" stroke="black" d="M930,-367.83C930,-359.89 930,-350.41 930,-341.63"/>
<polygon fill="black" stroke="black" points="933.5,-341.42 930,-331.42 926.5,-341.42 933.5,-341.42"/>
</g>
<!-- 39 -->
<g id="node40" class="node">
<title>39</title>
<polygon fill="none" stroke="black" points="1078,-332 986,-332 986,-294 1078,-294 1078,-332"/>
<text text-anchor="middle" x="1032" y="-316.8" font-family="Times,serif" font-size="14.00">lat &lt;= 42.007</text>
<text text-anchor="middle" x="1032" y="-301.8" font-family="Times,serif" font-size="14.00">class = blue</text>
</g>
<!-- 37&#45;&gt;39 -->
<g id="edge39" class="edge">
<title>37&#45;&gt;39</title>
<path fill="none" stroke="black" d="M955.74,-367.83C968.54,-358.79 984.19,-347.75 997.97,-338.02"/>
<polygon fill="black" stroke="black" points="1000.12,-340.79 1006.27,-332.16 996.08,-335.07 1000.12,-340.79"/>
</g>
<!-- 40 -->
<g id="node41" class="node">
<title>40</title>
<polygon fill="none" stroke="black" points="1070,-257 994,-257 994,-221 1070,-221 1070,-257"/>
<text text-anchor="middle" x="1032" y="-235.3" font-family="Times,serif" font-size="14.00">class = red</text>
</g>
<!-- 39&#45;&gt;40 -->
<g id="edge40" class="edge">
<title>39&#45;&gt;40</title>
<path fill="none" stroke="black" d="M1032,-293.83C1032,-285.89 1032,-276.41 1032,-267.63"/>
<polygon fill="black" stroke="black" points="1035.5,-267.42 1032,-257.42 1028.5,-267.42 1035.5,-267.42"/>
</g>
<!-- 41 -->
<g id="node42" class="node">
<title>41</title>
<polygon fill="none" stroke="black" points="1170,-257 1088,-257 1088,-221 1170,-221 1170,-257"/>
<text text-anchor="middle" x="1129" y="-235.3" font-family="Times,serif" font-size="14.00">class = blue</text>
</g>
<!-- 39&#45;&gt;41 -->
<g id="edge41" class="edge">
<title>39&#45;&gt;41</title>
<path fill="none" stroke="black" d="M1056.48,-293.83C1069.03,-284.52 1084.45,-273.07 1097.84,-263.13"/>
<polygon fill="black" stroke="black" points="1099.92,-265.94 1105.87,-257.17 1095.75,-260.32 1099.92,-265.94"/>
</g>
<!-- 43 -->
<g id="node44" class="node">
<title>43</title>
<polygon fill="none" stroke="black" points="1465,-406 1365,-406 1365,-368 1465,-368 1465,-406"/>
<text text-anchor="middle" x="1415" y="-390.8" font-family="Times,serif" font-size="14.00">lon &lt;= &#45;79.773</text>
<text text-anchor="middle" x="1415" y="-375.8" font-family="Times,serif" font-size="14.00">class = blue</text>
</g>
<!-- 42&#45;&gt;43 -->
<g id="edge43" class="edge">
<title>42&#45;&gt;43</title>
<path fill="none" stroke="black" d="M1415,-441.83C1415,-434.13 1415,-424.97 1415,-416.42"/>
<polygon fill="black" stroke="black" points="1418.5,-416.41 1415,-406.41 1411.5,-416.41 1418.5,-416.41"/>
</g>
<!-- 62 -->
<g id="node63" class="node">
<title>62</title>
<polygon fill="none" stroke="black" points="1744,-406 1644,-406 1644,-368 1744,-368 1744,-406"/>
<text text-anchor="middle" x="1694" y="-390.8" font-family="Times,serif" font-size="14.00">lon &lt;= &#45;84.905</text>
<text text-anchor="middle" x="1694" y="-375.8" font-family="Times,serif" font-size="14.00">class = blue</text>
</g>
<!-- 42&#45;&gt;62 -->
<g id="edge62" class="edge">
<title>42&#45;&gt;62</title>
<path fill="none" stroke="black" d="M1461.07,-448.11C1508.33,-435.92 1582.05,-416.89 1633.88,-403.52"/>
<polygon fill="black" stroke="black" points="1634.8,-406.89 1643.61,-401 1633.05,-400.11 1634.8,-406.89"/>
</g>
<!-- 44 -->
<g id="node45" class="node">
<title>44</title>
<polygon fill="none" stroke="black" points="1404,-332 1304,-332 1304,-294 1404,-294 1404,-332"/>
<text text-anchor="middle" x="1354" y="-316.8" font-family="Times,serif" font-size="14.00">lon &lt;= &#45;87.643</text>
<text text-anchor="middle" x="1354" y="-301.8" font-family="Times,serif" font-size="14.00">class = red</text>
</g>
<!-- 43&#45;&gt;44 -->
<g id="edge44" class="edge">
<title>43&#45;&gt;44</title>
<path fill="none" stroke="black" d="M1399.61,-367.83C1392.51,-359.45 1383.95,-349.35 1376.18,-340.17"/>
<polygon fill="black" stroke="black" points="1378.73,-337.78 1369.6,-332.41 1373.39,-342.31 1378.73,-337.78"/>
</g>
<!-- 57 -->
<g id="node58" class="node">
<title>57</title>
<polygon fill="none" stroke="black" points="1526,-332 1426,-332 1426,-294 1526,-294 1526,-332"/>
<text text-anchor="middle" x="1476" y="-316.8" font-family="Times,serif" font-size="14.00">lon &lt;= &#45;78.395</text>
<text text-anchor="middle" x="1476" y="-301.8" font-family="Times,serif" font-size="14.00">class = blue</text>
</g>
<!-- 43&#45;&gt;57 -->
<g id="edge57" class="edge">
<title>43&#45;&gt;57</title>
<path fill="none" stroke="black" d="M1430.39,-367.83C1437.49,-359.45 1446.05,-349.35 1453.82,-340.17"/>
<polygon fill="black" stroke="black" points="1456.61,-342.31 1460.4,-332.41 1451.27,-337.78 1456.61,-342.31"/>
</g>
<!-- 45 -->
<g id="node46" class="node">
<title>45</title>
<polygon fill="none" stroke="black" points="1281.5,-258 1188.5,-258 1188.5,-220 1281.5,-220 1281.5,-258"/>
<text text-anchor="middle" x="1235" y="-242.8" font-family="Times,serif" font-size="14.00">lon &lt;= &#45;90.12</text>
<text text-anchor="middle" x="1235" y="-227.8" font-family="Times,serif" font-size="14.00">class = blue</text>
</g>
<!-- 44&#45;&gt;45 -->
<g id="edge45" class="edge">
<title>44&#45;&gt;45</title>
<path fill="none" stroke="black" d="M1323.97,-293.83C1308.75,-284.62 1290.09,-273.33 1273.79,-263.47"/>
<polygon fill="black" stroke="black" points="1275.39,-260.34 1265.02,-258.16 1271.76,-266.33 1275.39,-260.34"/>
</g>
<!-- 52 -->
<g id="node53" class="node">
<title>52</title>
<polygon fill="none" stroke="black" points="1400,-258 1308,-258 1308,-220 1400,-220 1400,-258"/>
<text text-anchor="middle" x="1354" y="-242.8" font-family="Times,serif" font-size="14.00">lat &lt;= 38.562</text>
<text text-anchor="middle" x="1354" y="-227.8" font-family="Times,serif" font-size="14.00">class = red</text>
</g>
<!-- 44&#45;&gt;52 -->
<g id="edge52" class="edge">
<title>44&#45;&gt;52</title>
<path fill="none" stroke="black" d="M1354,-293.83C1354,-286.13 1354,-276.97 1354,-268.42"/>
<polygon fill="black" stroke="black" points="1357.5,-268.41 1354,-258.41 1350.5,-268.41 1357.5,-268.41"/>
</g>
<!-- 46 -->
<g id="node47" class="node">
<title>46</title>
<polygon fill="none" stroke="black" points="1122,-184 1022,-184 1022,-146 1122,-146 1122,-184"/>
<text text-anchor="middle" x="1072" y="-168.8" font-family="Times,serif" font-size="14.00">lon &lt;= &#45;90.841</text>
<text text-anchor="middle" x="1072" y="-153.8" font-family="Times,serif" font-size="14.00">class = red</text>
</g>
<!-- 45&#45;&gt;46 -->
<g id="edge46" class="edge">
<title>45&#45;&gt;46</title>
<path fill="none" stroke="black" d="M1193.87,-219.83C1172.07,-210.2 1145.11,-198.29 1122.1,-188.13"/>
<polygon fill="black" stroke="black" points="1123.4,-184.88 1112.84,-184.04 1120.57,-191.28 1123.4,-184.88"/>
</g>
<!-- 51 -->
<g id="node52" class="node">
<title>51</title>
<polygon fill="none" stroke="black" points="1222,-183 1140,-183 1140,-147 1222,-147 1222,-183"/>
<text text-anchor="middle" x="1181" y="-161.3" font-family="Times,serif" font-size="14.00">class = blue</text>
</g>
<!-- 45&#45;&gt;51 -->
<g id="edge51" class="edge">
<title>45&#45;&gt;51</title>
<path fill="none" stroke="black" d="M1221.37,-219.83C1214.96,-211.28 1207.21,-200.94 1200.21,-191.62"/>
<polygon fill="black" stroke="black" points="1202.86,-189.32 1194.06,-183.42 1197.26,-193.52 1202.86,-189.32"/>
</g>
<!-- 47 -->
<g id="node48" class="node">
<title>47</title>
<polygon fill="none" stroke="black" points="1061,-109 985,-109 985,-73 1061,-73 1061,-109"/>
<text text-anchor="middle" x="1023" y="-87.3" font-family="Times,serif" font-size="14.00">class = red</text>
</g>
<!-- 46&#45;&gt;47 -->
<g id="edge47" class="edge">
<title>46&#45;&gt;47</title>
<path fill="none" stroke="black" d="M1059.64,-145.83C1053.88,-137.37 1046.92,-127.15 1040.63,-117.9"/>
<polygon fill="black" stroke="black" points="1043.37,-115.72 1034.85,-109.42 1037.59,-119.65 1043.37,-115.72"/>
</g>
<!-- 48 -->
<g id="node49" class="node">
<title>48</title>
<polygon fill="none" stroke="black" points="1164.5,-110 1079.5,-110 1079.5,-72 1164.5,-72 1164.5,-110"/>
<text text-anchor="middle" x="1122" y="-94.8" font-family="Times,serif" font-size="14.00">lat &lt;= 38.85</text>
<text text-anchor="middle" x="1122" y="-79.8" font-family="Times,serif" font-size="14.00">class = blue</text>
</g>
<!-- 46&#45;&gt;48 -->
<g id="edge48" class="edge">
<title>46&#45;&gt;48</title>
<path fill="none" stroke="black" d="M1084.62,-145.83C1090.32,-137.62 1097.17,-127.76 1103.44,-118.73"/>
<polygon fill="black" stroke="black" points="1106.38,-120.62 1109.21,-110.41 1100.63,-116.63 1106.38,-120.62"/>
</g>
<!-- 49 -->
<g id="node50" class="node">
<title>49</title>
<polygon fill="none" stroke="black" points="1112,-36 1036,-36 1036,0 1112,0 1112,-36"/>
<text text-anchor="middle" x="1074" y="-14.3" font-family="Times,serif" font-size="14.00">class = red</text>
</g>
<!-- 48&#45;&gt;49 -->
<g id="edge49" class="edge">
<title>48&#45;&gt;49</title>
<path fill="none" stroke="black" d="M1109.64,-71.72C1104,-63.37 1097.22,-53.35 1091.1,-44.3"/>
<polygon fill="black" stroke="black" points="1094,-42.33 1085.5,-36 1088.2,-46.25 1094,-42.33"/>
</g>
<!-- 50 -->
<g id="node51" class="node">
<title>50</title>
<polygon fill="none" stroke="black" points="1212,-36 1130,-36 1130,0 1212,0 1212,-36"/>
<text text-anchor="middle" x="1171" y="-14.3" font-family="Times,serif" font-size="14.00">class = blue</text>
</g>
<!-- 48&#45;&gt;50 -->
<g id="edge50" class="edge">
<title>48&#45;&gt;50</title>
<path fill="none" stroke="black" d="M1134.62,-71.72C1140.38,-63.37 1147.29,-53.35 1153.54,-44.3"/>
<polygon fill="black" stroke="black" points="1156.47,-46.22 1159.27,-36 1150.7,-42.25 1156.47,-46.22"/>
</g>
<!-- 53 -->
<g id="node54" class="node">
<title>53</title>
<polygon fill="none" stroke="black" points="1332,-184 1240,-184 1240,-146 1332,-146 1332,-184"/>
<text text-anchor="middle" x="1286" y="-168.8" font-family="Times,serif" font-size="14.00">lat &lt;= 38.324</text>
<text text-anchor="middle" x="1286" y="-153.8" font-family="Times,serif" font-size="14.00">class = red</text>
</g>
<!-- 52&#45;&gt;53 -->
<g id="edge53" class="edge">
<title>52&#45;&gt;53</title>
<path fill="none" stroke="black" d="M1336.84,-219.83C1328.85,-211.37 1319.2,-201.15 1310.46,-191.9"/>
<polygon fill="black" stroke="black" points="1312.8,-189.28 1303.39,-184.41 1307.71,-194.09 1312.8,-189.28"/>
</g>
<!-- 56 -->
<g id="node57" class="node">
<title>56</title>
<polygon fill="none" stroke="black" points="1426,-183 1350,-183 1350,-147 1426,-147 1426,-183"/>
<text text-anchor="middle" x="1388" y="-161.3" font-family="Times,serif" font-size="14.00">class = red</text>
</g>
<!-- 52&#45;&gt;56 -->
<g id="edge56" class="edge">
<title>52&#45;&gt;56</title>
<path fill="none" stroke="black" d="M1362.58,-219.83C1366.49,-211.55 1371.2,-201.57 1375.5,-192.47"/>
<polygon fill="black" stroke="black" points="1378.67,-193.95 1379.77,-183.42 1372.34,-190.97 1378.67,-193.95"/>
</g>
<!-- 54 -->
<g id="node55" class="node">
<title>54</title>
<polygon fill="none" stroke="black" points="1316,-109 1240,-109 1240,-73 1316,-73 1316,-109"/>
<text text-anchor="middle" x="1278" y="-87.3" font-family="Times,serif" font-size="14.00">class = red</text>
</g>
<!-- 53&#45;&gt;54 -->
<g id="edge54" class="edge">
<title>53&#45;&gt;54</title>
<path fill="none" stroke="black" d="M1283.98,-145.83C1283.1,-137.89 1282.05,-128.41 1281.07,-119.63"/>
<polygon fill="black" stroke="black" points="1284.52,-118.97 1279.94,-109.42 1277.56,-119.74 1284.52,-118.97"/>
</g>
<!-- 55 -->
<g id="node56" class="node">
<title>55</title>
<polygon fill="none" stroke="black" points="1416,-109 1334,-109 1334,-73 1416,-73 1416,-109"/>
<text text-anchor="middle" x="1375" y="-87.3" font-family="Times,serif" font-size="14.00">class = blue</text>
</g>
<!-- 53&#45;&gt;55 -->
<g id="edge55" class="edge">
<title>53&#45;&gt;55</title>
<path fill="none" stroke="black" d="M1308.46,-145.83C1319.76,-136.69 1333.59,-125.5 1345.71,-115.7"/>
<polygon fill="black" stroke="black" points="1348.2,-118.18 1353.77,-109.17 1343.8,-112.74 1348.2,-118.18"/>
</g>
<!-- 58 -->
<g id="node59" class="node">
<title>58</title>
<polygon fill="none" stroke="black" points="1526,-258 1426,-258 1426,-220 1526,-220 1526,-258"/>
<text text-anchor="middle" x="1476" y="-242.8" font-family="Times,serif" font-size="14.00">lon &lt;= &#45;78.878</text>
<text text-anchor="middle" x="1476" y="-227.8" font-family="Times,serif" font-size="14.00">class = blue</text>
</g>
<!-- 57&#45;&gt;58 -->
<g id="edge58" class="edge">
<title>57&#45;&gt;58</title>
<path fill="none" stroke="black" d="M1476,-293.83C1476,-286.13 1476,-276.97 1476,-268.42"/>
<polygon fill="black" stroke="black" points="1479.5,-268.41 1476,-258.41 1472.5,-268.41 1479.5,-268.41"/>
</g>
<!-- 61 -->
<g id="node62" class="node">
<title>61</title>
<polygon fill="none" stroke="black" points="1626,-257 1544,-257 1544,-221 1626,-221 1626,-257"/>
<text text-anchor="middle" x="1585" y="-235.3" font-family="Times,serif" font-size="14.00">class = blue</text>
</g>
<!-- 57&#45;&gt;61 -->
<g id="edge61" class="edge">
<title>57&#45;&gt;61</title>
<path fill="none" stroke="black" d="M1503.51,-293.83C1517.74,-284.43 1535.26,-272.86 1550.41,-262.85"/>
<polygon fill="black" stroke="black" points="1552.59,-265.6 1559,-257.17 1548.73,-259.76 1552.59,-265.6"/>
</g>
<!-- 59 -->
<g id="node60" class="node">
<title>59</title>
<polygon fill="none" stroke="black" points="1526,-183 1444,-183 1444,-147 1526,-147 1526,-183"/>
<text text-anchor="middle" x="1485" y="-161.3" font-family="Times,serif" font-size="14.00">class = blue</text>
</g>
<!-- 58&#45;&gt;59 -->
<g id="edge59" class="edge">
<title>58&#45;&gt;59</title>
<path fill="none" stroke="black" d="M1478.27,-219.83C1479.26,-211.89 1480.45,-202.41 1481.55,-193.63"/>
<polygon fill="black" stroke="black" points="1485.06,-193.77 1482.82,-183.42 1478.11,-192.91 1485.06,-193.77"/>
</g>
<!-- 60 -->
<g id="node61" class="node">
<title>60</title>
<polygon fill="none" stroke="black" points="1620,-183 1544,-183 1544,-147 1620,-147 1620,-183"/>
<text text-anchor="middle" x="1582" y="-161.3" font-family="Times,serif" font-size="14.00">class = red</text>
</g>
<!-- 58&#45;&gt;60 -->
<g id="edge60" class="edge">
<title>58&#45;&gt;60</title>
<path fill="none" stroke="black" d="M1502.75,-219.83C1516.59,-210.43 1533.63,-198.86 1548.36,-188.85"/>
<polygon fill="black" stroke="black" points="1550.41,-191.69 1556.72,-183.17 1546.48,-185.9 1550.41,-191.69"/>
</g>
<!-- 63 -->
<g id="node64" class="node">
<title>63</title>
<polygon fill="none" stroke="black" points="1740,-332 1648,-332 1648,-294 1740,-294 1740,-332"/>
<text text-anchor="middle" x="1694" y="-316.8" font-family="Times,serif" font-size="14.00">lat &lt;= 41.739</text>
<text text-anchor="middle" x="1694" y="-301.8" font-family="Times,serif" font-size="14.00">class = blue</text>
</g>
<!-- 62&#45;&gt;63 -->
<g id="edge63" class="edge">
<title>62&#45;&gt;63</title>
<path fill="none" stroke="black" d="M1694,-367.83C1694,-360.13 1694,-350.97 1694,-342.42"/>
<polygon fill="black" stroke="black" points="1697.5,-342.41 1694,-332.41 1690.5,-342.41 1697.5,-342.41"/>
</g>
<!-- 72 -->
<g id="node73" class="node">
<title>72</title>
<polygon fill="none" stroke="black" points="1840,-331 1758,-331 1758,-295 1840,-295 1840,-331"/>
<text text-anchor="middle" x="1799" y="-309.3" font-family="Times,serif" font-size="14.00">class = blue</text>
</g>
<!-- 62&#45;&gt;72 -->
<g id="edge72" class="edge">
<title>62&#45;&gt;72</title>
<path fill="none" stroke="black" d="M1720.5,-367.83C1734.21,-358.43 1751.09,-346.86 1765.67,-336.85"/>
<polygon fill="black" stroke="black" points="1767.69,-339.71 1773.96,-331.17 1763.73,-333.94 1767.69,-339.71"/>
</g>
<!-- 64 -->
<g id="node65" class="node">
<title>64</title>
<polygon fill="none" stroke="black" points="1744,-258 1644,-258 1644,-220 1744,-220 1744,-258"/>
<text text-anchor="middle" x="1694" y="-242.8" font-family="Times,serif" font-size="14.00">lon &lt;= &#45;87.697</text>
<text text-anchor="middle" x="1694" y="-227.8" font-family="Times,serif" font-size="14.00">class = blue</text>
</g>
<!-- 63&#45;&gt;64 -->
<g id="edge64" class="edge">
<title>63&#45;&gt;64</title>
<path fill="none" stroke="black" d="M1694,-293.83C1694,-286.13 1694,-276.97 1694,-268.42"/>
<polygon fill="black" stroke="black" points="1697.5,-268.41 1694,-258.41 1690.5,-268.41 1697.5,-268.41"/>
</g>
<!-- 71 -->
<g id="node72" class="node">
<title>71</title>
<polygon fill="none" stroke="black" points="1844,-257 1762,-257 1762,-221 1844,-221 1844,-257"/>
<text text-anchor="middle" x="1803" y="-235.3" font-family="Times,serif" font-size="14.00">class = blue</text>
</g>
<!-- 63&#45;&gt;71 -->
<g id="edge71" class="edge">
<title>63&#45;&gt;71</title>
<path fill="none" stroke="black" d="M1721.51,-293.83C1735.74,-284.43 1753.26,-272.86 1768.41,-262.85"/>
<polygon fill="black" stroke="black" points="1770.59,-265.6 1777,-257.17 1766.73,-259.76 1770.59,-265.6"/>
</g>
<!-- 65 -->
<g id="node66" class="node">
<title>65</title>
<polygon fill="none" stroke="black" points="1738,-184 1638,-184 1638,-146 1738,-146 1738,-184"/>
<text text-anchor="middle" x="1688" y="-168.8" font-family="Times,serif" font-size="14.00">lon &lt;= &#45;91.379</text>
<text text-anchor="middle" x="1688" y="-153.8" font-family="Times,serif" font-size="14.00">class = blue</text>
</g>
<!-- 64&#45;&gt;65 -->
<g id="edge65" class="edge">
<title>64&#45;&gt;65</title>
<path fill="none" stroke="black" d="M1692.49,-219.83C1691.84,-212.13 1691.08,-202.97 1690.37,-194.42"/>
<polygon fill="black" stroke="black" points="1693.85,-194.09 1689.53,-184.41 1686.88,-194.67 1693.85,-194.09"/>
</g>
<!-- 70 -->
<g id="node71" class="node">
<title>70</title>
<polygon fill="none" stroke="black" points="1832,-183 1756,-183 1756,-147 1832,-147 1832,-183"/>
<text text-anchor="middle" x="1794" y="-161.3" font-family="Times,serif" font-size="14.00">class = red</text>
</g>
<!-- 64&#45;&gt;70 -->
<g id="edge70" class="edge">
<title>64&#45;&gt;70</title>
<path fill="none" stroke="black" d="M1719.23,-219.83C1732.17,-210.52 1748.07,-199.07 1761.87,-189.13"/>
<polygon fill="black" stroke="black" points="1764.08,-191.85 1770.15,-183.17 1759.99,-186.17 1764.08,-191.85"/>
</g>
<!-- 66 -->
<g id="node67" class="node">
<title>66</title>
<polygon fill="none" stroke="black" points="1683,-110 1583,-110 1583,-72 1683,-72 1683,-110"/>
<text text-anchor="middle" x="1633" y="-94.8" font-family="Times,serif" font-size="14.00">lon &lt;= &#45;95.317</text>
<text text-anchor="middle" x="1633" y="-79.8" font-family="Times,serif" font-size="14.00">class = red</text>
</g>
<!-- 65&#45;&gt;66 -->
<g id="edge66" class="edge">
<title>65&#45;&gt;66</title>
<path fill="none" stroke="black" d="M1674.12,-145.83C1667.79,-137.54 1660.16,-127.56 1653.21,-118.45"/>
<polygon fill="black" stroke="black" points="1655.92,-116.24 1647.07,-110.41 1650.35,-120.48 1655.92,-116.24"/>
</g>
<!-- 69 -->
<g id="node70" class="node">
<title>69</title>
<polygon fill="none" stroke="black" points="1783,-109 1701,-109 1701,-73 1783,-73 1783,-109"/>
<text text-anchor="middle" x="1742" y="-87.3" font-family="Times,serif" font-size="14.00">class = blue</text>
</g>
<!-- 65&#45;&gt;69 -->
<g id="edge69" class="edge">
<title>65&#45;&gt;69</title>
<path fill="none" stroke="black" d="M1701.63,-145.83C1708.04,-137.28 1715.79,-126.94 1722.79,-117.62"/>
<polygon fill="black" stroke="black" points="1725.74,-119.52 1728.94,-109.42 1720.14,-115.32 1725.74,-119.52"/>
</g>
<!-- 67 -->
<g id="node68" class="node">
<title>67</title>
<polygon fill="none" stroke="black" points="1625,-36 1543,-36 1543,0 1625,0 1625,-36"/>
<text text-anchor="middle" x="1584" y="-14.3" font-family="Times,serif" font-size="14.00">class = blue</text>
</g>
<!-- 66&#45;&gt;67 -->
<g id="edge67" class="edge">
<title>66&#45;&gt;67</title>
<path fill="none" stroke="black" d="M1620.38,-71.72C1614.62,-63.37 1607.71,-53.35 1601.46,-44.3"/>
<polygon fill="black" stroke="black" points="1604.3,-42.25 1595.73,-36 1598.53,-46.22 1604.3,-42.25"/>
</g>
<!-- 68 -->
<g id="node69" class="node">
<title>68</title>
<polygon fill="none" stroke="black" points="1719,-36 1643,-36 1643,0 1719,0 1719,-36"/>
<text text-anchor="middle" x="1681" y="-14.3" font-family="Times,serif" font-size="14.00">class = red</text>
</g>
<!-- 66&#45;&gt;68 -->
<g id="edge68" class="edge">
<title>66&#45;&gt;68</title>
<path fill="none" stroke="black" d="M1645.36,-71.72C1651,-63.37 1657.78,-53.35 1663.9,-44.3"/>
<polygon fill="black" stroke="black" points="1666.8,-46.25 1669.5,-36 1661,-42.33 1666.8,-46.25"/>
</g>
</g>
</svg>
