<?xml version="1.0" encoding="UTF-8" standalone="no"?>
<!DOCTYPE svg PUBLIC "-//W3C//DTD SVG 1.1//EN"
 "http://www.w3.org/Graphics/SVG/1.1/DTD/svg11.dtd">
<!-- Generated by graphviz version 2.44.1 (20200629.0846)
 -->
<!-- Title: Tree Pages: 1 -->
<svg width="1137pt" height="313pt"
 viewBox="0.00 0.00 1136.50 313.00" xmlns="http://www.w3.org/2000/svg" xmlns:xlink="http://www.w3.org/1999/xlink">
<g id="graph0" class="graph" transform="scale(1 1) rotate(0) translate(4 309)">
<title>Tree</title>
<polygon fill="white" stroke="transparent" points="-4,4 -4,-309 1132.5,-309 1132.5,4 -4,4"/>
<!-- 0 -->
<g id="node1" class="node">
<title>0</title>
<polygon fill="none" stroke="black" points="594,-305 468,-305 468,-252 594,-252 594,-305"/>
<text text-anchor="middle" x="531" y="-289.8" font-family="Times,serif" font-size="14.00">grade &lt;= 8.5</text>
<text text-anchor="middle" x="531" y="-274.8" font-family="Times,serif" font-size="14.00">samples = 21613</text>
<text text-anchor="middle" x="531" y="-259.8" font-family="Times,serif" font-size="14.00">value = 540088.142</text>
</g>
<!-- 1 -->
<g id="node2" class="node">
<title>1</title>
<polygon fill="none" stroke="black" points="512.5,-216 399.5,-216 399.5,-163 512.5,-163 512.5,-216"/>
<text text-anchor="middle" x="456" y="-200.8" font-family="Times,serif" font-size="14.00">lat &lt;= 47.534</text>
<text text-anchor="middle" x="456" y="-185.8" font-family="Times,serif" font-size="14.00">samples = 17362</text>
<text text-anchor="middle" x="456" y="-170.8" font-family="Times,serif" font-size="14.00">value = 437284.0</text>
</g>
<!-- 0&#45;&gt;1 -->
<g id="edge1" class="edge">
<title>0&#45;&gt;1</title>
<path fill="none" stroke="black" d="M508.9,-251.87C501.34,-243.1 492.77,-233.15 484.76,-223.86"/>
<polygon fill="black" stroke="black" points="487.38,-221.54 478.2,-216.25 482.08,-226.11 487.38,-221.54"/>
<text text-anchor="middle" x="476.35" y="-237.48" font-family="Times,serif" font-size="14.00">True</text>
</g>
<!-- 8 -->
<g id="node9" class="node">
<title>8</title>
<polygon fill="none" stroke="black" points="734.5,-216 597.5,-216 597.5,-163 734.5,-163 734.5,-216"/>
<text text-anchor="middle" x="666" y="-200.8" font-family="Times,serif" font-size="14.00">sqft_living &lt;= 4185.0</text>
<text text-anchor="middle" x="666" y="-185.8" font-family="Times,serif" font-size="14.00">samples = 4251</text>
<text text-anchor="middle" x="666" y="-170.8" font-family="Times,serif" font-size="14.00">value = 959962.411</text>
</g>
<!-- 0&#45;&gt;8 -->
<g id="edge8" class="edge">
<title>0&#45;&gt;8</title>
<path fill="none" stroke="black" d="M570.77,-251.87C585.34,-242.48 601.99,-231.75 617.25,-221.92"/>
<polygon fill="black" stroke="black" points="619.53,-224.61 626.04,-216.25 615.74,-218.72 619.53,-224.61"/>
<text text-anchor="middle" x="620.76" y="-236.99" font-family="Times,serif" font-size="14.00">False</text>
</g>
<!-- 2 -->
<g id="node3" class="node">
<title>2</title>
<polygon fill="none" stroke="black" points="275.5,-127 138.5,-127 138.5,-74 275.5,-74 275.5,-127"/>
<text text-anchor="middle" x="207" y="-111.8" font-family="Times,serif" font-size="14.00">sqft_living &lt;= 1938.0</text>
<text text-anchor="middle" x="207" y="-96.8" font-family="Times,serif" font-size="14.00">samples = 7304</text>
<text text-anchor="middle" x="207" y="-81.8" font-family="Times,serif" font-size="14.00">value = 315438.387</text>
</g>
<!-- 1&#45;&gt;2 -->
<g id="edge2" class="edge">
<title>1&#45;&gt;2</title>
<path fill="none" stroke="black" d="M399.5,-168.76C365.78,-156.98 322.46,-141.84 285.46,-128.91"/>
<polygon fill="black" stroke="black" points="286.29,-125.5 275.7,-125.5 283.99,-132.11 286.29,-125.5"/>
</g>
<!-- 5 -->
<g id="node6" class="node">
<title>5</title>
<polygon fill="none" stroke="black" points="524.5,-127 387.5,-127 387.5,-74 524.5,-74 524.5,-127"/>
<text text-anchor="middle" x="456" y="-111.8" font-family="Times,serif" font-size="14.00">sqft_living &lt;= 2035.0</text>
<text text-anchor="middle" x="456" y="-96.8" font-family="Times,serif" font-size="14.00">samples = 10058</text>
<text text-anchor="middle" x="456" y="-81.8" font-family="Times,serif" font-size="14.00">value = 525766.835</text>
</g>
<!-- 1&#45;&gt;5 -->
<g id="edge5" class="edge">
<title>1&#45;&gt;5</title>
<path fill="none" stroke="black" d="M456,-162.87C456,-154.89 456,-145.93 456,-137.38"/>
<polygon fill="black" stroke="black" points="459.5,-137.25 456,-127.25 452.5,-137.25 459.5,-137.25"/>
</g>
<!-- 3 -->
<g id="node4" class="node">
<title>3</title>
<polygon fill="none" stroke="black" points="126,-38 0,-38 0,0 126,0 126,-38"/>
<text text-anchor="middle" x="63" y="-22.8" font-family="Times,serif" font-size="14.00">samples = 4566</text>
<text text-anchor="middle" x="63" y="-7.8" font-family="Times,serif" font-size="14.00">value = 269848.394</text>
</g>
<!-- 2&#45;&gt;3 -->
<g id="edge3" class="edge">
<title>2&#45;&gt;3</title>
<path fill="none" stroke="black" d="M160.64,-73.91C142.72,-64.01 122.36,-52.77 104.88,-43.12"/>
<polygon fill="black" stroke="black" points="106.48,-40.01 96.04,-38.24 103.1,-46.14 106.48,-40.01"/>
</g>
<!-- 4 -->
<g id="node5" class="node">
<title>4</title>
<polygon fill="none" stroke="black" points="270,-38 144,-38 144,0 270,0 270,-38"/>
<text text-anchor="middle" x="207" y="-22.8" font-family="Times,serif" font-size="14.00">samples = 2738</text>
<text text-anchor="middle" x="207" y="-7.8" font-family="Times,serif" font-size="14.00">value = 391466.111</text>
</g>
<!-- 2&#45;&gt;4 -->
<g id="edge4" class="edge">
<title>2&#45;&gt;4</title>
<path fill="none" stroke="black" d="M207,-73.91C207,-65.74 207,-56.65 207,-48.3"/>
<polygon fill="black" stroke="black" points="210.5,-48.24 207,-38.24 203.5,-48.24 210.5,-48.24"/>
</g>
<!-- 6 -->
<g id="node7" class="node">
<title>6</title>
<polygon fill="none" stroke="black" points="407.5,-38 288.5,-38 288.5,0 407.5,0 407.5,-38"/>
<text text-anchor="middle" x="348" y="-22.8" font-family="Times,serif" font-size="14.00">samples = 6761</text>
<text text-anchor="middle" x="348" y="-7.8" font-family="Times,serif" font-size="14.00">value = 462801.39</text>
</g>
<!-- 5&#45;&gt;6 -->
<g id="edge6" class="edge">
<title>5&#45;&gt;6</title>
<path fill="none" stroke="black" d="M421.23,-73.91C408.28,-64.38 393.64,-53.59 380.86,-44.19"/>
<polygon fill="black" stroke="black" points="382.91,-41.35 372.78,-38.24 378.76,-46.99 382.91,-41.35"/>
</g>
<!-- 7 -->
<g id="node8" class="node">
<title>7</title>
<polygon fill="none" stroke="black" points="552,-38 426,-38 426,0 552,0 552,-38"/>
<text text-anchor="middle" x="489" y="-22.8" font-family="Times,serif" font-size="14.00">samples = 3297</text>
<text text-anchor="middle" x="489" y="-7.8" font-family="Times,serif" font-size="14.00">value = 654887.056</text>
</g>
<!-- 5&#45;&gt;7 -->
<g id="edge7" class="edge">
<title>5&#45;&gt;7</title>
<path fill="none" stroke="black" d="M466.62,-73.91C470.09,-65.56 473.95,-56.24 477.48,-47.74"/>
<polygon fill="black" stroke="black" points="480.83,-48.82 481.43,-38.24 474.36,-46.13 480.83,-48.82"/>
</g>
<!-- 9 -->
<g id="node10" class="node">
<title>9</title>
<polygon fill="none" stroke="black" points="729,-127 603,-127 603,-74 729,-74 729,-127"/>
<text text-anchor="middle" x="666" y="-111.8" font-family="Times,serif" font-size="14.00">lat &lt;= 47.523</text>
<text text-anchor="middle" x="666" y="-96.8" font-family="Times,serif" font-size="14.00">samples = 3667</text>
<text text-anchor="middle" x="666" y="-81.8" font-family="Times,serif" font-size="14.00">value = 848042.961</text>
</g>
<!-- 8&#45;&gt;9 -->
<g id="edge9" class="edge">
<title>8&#45;&gt;9</title>
<path fill="none" stroke="black" d="M666,-162.87C666,-154.89 666,-145.93 666,-137.38"/>
<polygon fill="black" stroke="black" points="669.5,-137.25 666,-127.25 662.5,-137.25 669.5,-137.25"/>
</g>
<!-- 12 -->
<g id="node13" class="node">
<title>12</title>
<polygon fill="none" stroke="black" points="993.5,-127 856.5,-127 856.5,-74 993.5,-74 993.5,-127"/>
<text text-anchor="middle" x="925" y="-111.8" font-family="Times,serif" font-size="14.00">sqft_living &lt;= 7940.0</text>
<text text-anchor="middle" x="925" y="-96.8" font-family="Times,serif" font-size="14.00">samples = 584</text>
<text text-anchor="middle" x="925" y="-81.8" font-family="Times,serif" font-size="14.00">value = 1662716.899</text>
</g>
<!-- 8&#45;&gt;12 -->
<g id="edge12" class="edge">
<title>8&#45;&gt;12</title>
<path fill="none" stroke="black" d="M734.73,-165.41C769.11,-153.86 810.89,-139.83 846.52,-127.86"/>
<polygon fill="black" stroke="black" points="848.04,-131.04 856.4,-124.54 845.81,-124.41 848.04,-131.04"/>
</g>
<!-- 10 -->
<g id="node11" class="node">
<title>10</title>
<polygon fill="none" stroke="black" points="696,-38 570,-38 570,0 696,0 696,-38"/>
<text text-anchor="middle" x="633" y="-22.8" font-family="Times,serif" font-size="14.00">samples = 810</text>
<text text-anchor="middle" x="633" y="-7.8" font-family="Times,serif" font-size="14.00">value = 557955.711</text>
</g>
<!-- 9&#45;&gt;10 -->
<g id="edge10" class="edge">
<title>9&#45;&gt;10</title>
<path fill="none" stroke="black" d="M655.38,-73.91C651.91,-65.56 648.05,-56.24 644.52,-47.74"/>
<polygon fill="black" stroke="black" points="647.64,-46.13 640.57,-38.24 641.17,-48.82 647.64,-46.13"/>
</g>
<!-- 11 -->
<g id="node12" class="node">
<title>11</title>
<polygon fill="none" stroke="black" points="840,-38 714,-38 714,0 840,0 840,-38"/>
<text text-anchor="middle" x="777" y="-22.8" font-family="Times,serif" font-size="14.00">samples = 2857</text>
<text text-anchor="middle" x="777" y="-7.8" font-family="Times,serif" font-size="14.00">value = 930286.809</text>
</g>
<!-- 9&#45;&gt;11 -->
<g id="edge11" class="edge">
<title>9&#45;&gt;11</title>
<path fill="none" stroke="black" d="M701.73,-73.91C715.04,-64.38 730.09,-53.59 743.22,-44.19"/>
<polygon fill="black" stroke="black" points="745.44,-46.91 751.53,-38.24 741.37,-41.22 745.44,-46.91"/>
</g>
<!-- 13 -->
<g id="node14" class="node">
<title>13</title>
<polygon fill="none" stroke="black" points="991.5,-38 858.5,-38 858.5,0 991.5,0 991.5,-38"/>
<text text-anchor="middle" x="925" y="-22.8" font-family="Times,serif" font-size="14.00">samples = 574</text>
<text text-anchor="middle" x="925" y="-7.8" font-family="Times,serif" font-size="14.00">value = 1603157.437</text>
</g>
<!-- 12&#45;&gt;13 -->
<g id="edge13" class="edge">
<title>12&#45;&gt;13</title>
<path fill="none" stroke="black" d="M925,-73.91C925,-65.74 925,-56.65 925,-48.3"/>
<polygon fill="black" stroke="black" points="928.5,-48.24 925,-38.24 921.5,-48.24 928.5,-48.24"/>
</g>
<!-- 14 -->
<g id="node15" class="node">
<title>14</title>
<polygon fill="none" stroke="black" points="1128.5,-38 1009.5,-38 1009.5,0 1128.5,0 1128.5,-38"/>
<text text-anchor="middle" x="1069" y="-22.8" font-family="Times,serif" font-size="14.00">samples = 10</text>
<text text-anchor="middle" x="1069" y="-7.8" font-family="Times,serif" font-size="14.00">value = 5081430.0</text>
</g>
<!-- 12&#45;&gt;14 -->
<g id="edge14" class="edge">
<title>12&#45;&gt;14</title>
<path fill="none" stroke="black" d="M971.36,-73.91C989.28,-64.01 1009.64,-52.77 1027.12,-43.12"/>
<polygon fill="black" stroke="black" points="1028.9,-46.14 1035.96,-38.24 1025.52,-40.01 1028.9,-46.14"/>
</g>
</g>
</svg>
