<?xml version="1.0" encoding="UTF-8" standalone="no"?>
<!DOCTYPE svg PUBLIC "-//W3C//DTD SVG 1.1//EN"
 "http://www.w3.org/Graphics/SVG/1.1/DTD/svg11.dtd">
<!-- Generated by graphviz version 2.44.1 (20200629.0846)
 -->
<!-- Title: Tree Pages: 1 -->
<svg width="1126pt" height="932pt"
 viewBox="0.00 0.00 1125.50 932.00" xmlns="http://www.w3.org/2000/svg" xmlns:xlink="http://www.w3.org/1999/xlink">
<g id="graph0" class="graph" transform="scale(1 1) rotate(0) translate(4 928)">
<title>Tree</title>
<polygon fill="white" stroke="transparent" points="-4,4 -4,-928 1121.5,-928 1121.5,4 -4,4"/>
<!-- 0 -->
<g id="node1" class="node">
<title>0</title>
<polygon fill="none" stroke="black" points="282.5,-924 177.5,-924 177.5,-886 282.5,-886 282.5,-924"/>
<text text-anchor="middle" x="230" y="-908.8" font-family="Times,serif" font-size="14.00">latitude &lt;= 42.9</text>
<text text-anchor="middle" x="230" y="-893.8" font-family="Times,serif" font-size="14.00">class = Canada</text>
</g>
<!-- 1 -->
<g id="node2" class="node">
<title>1</title>
<polygon fill="none" stroke="black" points="221.5,-850 102.5,-850 102.5,-812 221.5,-812 221.5,-850"/>
<text text-anchor="middle" x="162" y="-834.8" font-family="Times,serif" font-size="14.00">latitude &lt;= 42.096</text>
<text text-anchor="middle" x="162" y="-819.8" font-family="Times,serif" font-size="14.00">class = USA</text>
</g>
<!-- 0&#45;&gt;1 -->
<g id="edge1" class="edge">
<title>0&#45;&gt;1</title>
<path fill="none" stroke="black" d="M212.84,-885.83C204.85,-877.37 195.2,-867.15 186.46,-857.9"/>
<polygon fill="black" stroke="black" points="188.8,-855.28 179.39,-850.41 183.71,-860.09 188.8,-855.28"/>
<text text-anchor="middle" x="178.68" y="-871.7" font-family="Times,serif" font-size="14.00">True</text>
</g>
<!-- 6 -->
<g id="node7" class="node">
<title>6</title>
<polygon fill="none" stroke="black" points="358.5,-850 239.5,-850 239.5,-812 358.5,-812 358.5,-850"/>
<text text-anchor="middle" x="299" y="-834.8" font-family="Times,serif" font-size="14.00">latitude &lt;= 55.958</text>
<text text-anchor="middle" x="299" y="-819.8" font-family="Times,serif" font-size="14.00">class = Canada</text>
</g>
<!-- 0&#45;&gt;6 -->
<g id="edge6" class="edge">
<title>0&#45;&gt;6</title>
<path fill="none" stroke="black" d="M247.41,-885.83C255.52,-877.37 265.32,-867.15 274.18,-857.9"/>
<polygon fill="black" stroke="black" points="276.96,-860.05 281.35,-850.41 271.91,-855.21 276.96,-860.05"/>
<text text-anchor="middle" x="281.89" y="-871.71" font-family="Times,serif" font-size="14.00">False</text>
</g>
<!-- 2 -->
<g id="node3" class="node">
<title>2</title>
<polygon fill="none" stroke="black" points="86,-775 0,-775 0,-739 86,-739 86,-775"/>
<text text-anchor="middle" x="43" y="-753.3" font-family="Times,serif" font-size="14.00">class = USA</text>
</g>
<!-- 1&#45;&gt;2 -->
<g id="edge2" class="edge">
<title>1&#45;&gt;2</title>
<path fill="none" stroke="black" d="M131.97,-811.83C116.29,-802.34 96.94,-790.64 80.31,-780.57"/>
<polygon fill="black" stroke="black" points="81.75,-777.35 71.38,-775.17 78.12,-783.34 81.75,-777.35"/>
</g>
<!-- 3 -->
<g id="node4" class="node">
<title>3</title>
<polygon fill="none" stroke="black" points="223.5,-776 104.5,-776 104.5,-738 223.5,-738 223.5,-776"/>
<text text-anchor="middle" x="164" y="-760.8" font-family="Times,serif" font-size="14.00">latitude &lt;= 42.324</text>
<text text-anchor="middle" x="164" y="-745.8" font-family="Times,serif" font-size="14.00">class = USA</text>
</g>
<!-- 1&#45;&gt;3 -->
<g id="edge3" class="edge">
<title>1&#45;&gt;3</title>
<path fill="none" stroke="black" d="M162.5,-811.83C162.72,-804.13 162.97,-794.97 163.21,-786.42"/>
<polygon fill="black" stroke="black" points="166.71,-786.51 163.49,-776.41 159.71,-786.31 166.71,-786.51"/>
</g>
<!-- 4 -->
<g id="node5" class="node">
<title>4</title>
<polygon fill="none" stroke="black" points="103.5,-701 4.5,-701 4.5,-665 103.5,-665 103.5,-701"/>
<text text-anchor="middle" x="54" y="-679.3" font-family="Times,serif" font-size="14.00">class = Canada</text>
</g>
<!-- 3&#45;&gt;4 -->
<g id="edge4" class="edge">
<title>3&#45;&gt;4</title>
<path fill="none" stroke="black" d="M136.24,-737.83C121.88,-728.43 104.2,-716.86 88.91,-706.85"/>
<polygon fill="black" stroke="black" points="90.52,-703.72 80.23,-701.17 86.68,-709.58 90.52,-703.72"/>
</g>
<!-- 5 -->
<g id="node6" class="node">
<title>5</title>
<polygon fill="none" stroke="black" points="208,-701 122,-701 122,-665 208,-665 208,-701"/>
<text text-anchor="middle" x="165" y="-679.3" font-family="Times,serif" font-size="14.00">class = USA</text>
</g>
<!-- 3&#45;&gt;5 -->
<g id="edge5" class="edge">
<title>3&#45;&gt;5</title>
<path fill="none" stroke="black" d="M164.25,-737.83C164.36,-729.89 164.49,-720.41 164.62,-711.63"/>
<polygon fill="black" stroke="black" points="168.12,-711.47 164.76,-701.42 161.12,-711.37 168.12,-711.47"/>
</g>
<!-- 7 -->
<g id="node8" class="node">
<title>7</title>
<polygon fill="none" stroke="black" points="350.5,-776 245.5,-776 245.5,-738 350.5,-738 350.5,-776"/>
<text text-anchor="middle" x="298" y="-760.8" font-family="Times,serif" font-size="14.00">latitude &lt;= 49.0</text>
<text text-anchor="middle" x="298" y="-745.8" font-family="Times,serif" font-size="14.00">class = Canada</text>
</g>
<!-- 6&#45;&gt;7 -->
<g id="edge7" class="edge">
<title>6&#45;&gt;7</title>
<path fill="none" stroke="black" d="M298.75,-811.83C298.64,-804.13 298.51,-794.97 298.39,-786.42"/>
<polygon fill="black" stroke="black" points="301.89,-786.36 298.26,-776.41 294.9,-786.46 301.89,-786.36"/>
</g>
<!-- 54 -->
<g id="node55" class="node">
<title>54</title>
<polygon fill="none" stroke="black" points="455,-775 369,-775 369,-739 455,-739 455,-775"/>
<text text-anchor="middle" x="412" y="-753.3" font-family="Times,serif" font-size="14.00">class = USA</text>
</g>
<!-- 6&#45;&gt;54 -->
<g id="edge54" class="edge">
<title>6&#45;&gt;54</title>
<path fill="none" stroke="black" d="M327.51,-811.83C342.41,-802.34 360.78,-790.64 376.58,-780.57"/>
<polygon fill="black" stroke="black" points="378.5,-783.5 385.05,-775.17 374.74,-777.59 378.5,-783.5"/>
</g>
<!-- 8 -->
<g id="node9" class="node">
<title>8</title>
<polygon fill="none" stroke="black" points="364,-702 230,-702 230,-664 364,-664 364,-702"/>
<text text-anchor="middle" x="297" y="-686.8" font-family="Times,serif" font-size="14.00">longitude &lt;= &#45;94.582</text>
<text text-anchor="middle" x="297" y="-671.8" font-family="Times,serif" font-size="14.00">class = Canada</text>
</g>
<!-- 7&#45;&gt;8 -->
<g id="edge8" class="edge">
<title>7&#45;&gt;8</title>
<path fill="none" stroke="black" d="M297.75,-737.83C297.64,-730.13 297.51,-720.97 297.39,-712.42"/>
<polygon fill="black" stroke="black" points="300.89,-712.36 297.26,-702.41 293.9,-712.46 300.89,-712.36"/>
</g>
<!-- 53 -->
<g id="node54" class="node">
<title>53</title>
<polygon fill="none" stroke="black" points="481.5,-701 382.5,-701 382.5,-665 481.5,-665 481.5,-701"/>
<text text-anchor="middle" x="432" y="-679.3" font-family="Times,serif" font-size="14.00">class = Canada</text>
</g>
<!-- 7&#45;&gt;53 -->
<g id="edge53" class="edge">
<title>7&#45;&gt;53</title>
<path fill="none" stroke="black" d="M331.81,-737.83C349.8,-728.17 372.06,-716.2 391.03,-706.01"/>
<polygon fill="black" stroke="black" points="392.89,-708.99 400.04,-701.17 389.58,-702.82 392.89,-708.99"/>
</g>
<!-- 9 -->
<g id="node10" class="node">
<title>9</title>
<polygon fill="none" stroke="black" points="290,-628 150,-628 150,-590 290,-590 290,-628"/>
<text text-anchor="middle" x="220" y="-612.8" font-family="Times,serif" font-size="14.00">longitude &lt;= &#45;123.222</text>
<text text-anchor="middle" x="220" y="-597.8" font-family="Times,serif" font-size="14.00">class = USA</text>
</g>
<!-- 8&#45;&gt;9 -->
<g id="edge9" class="edge">
<title>8&#45;&gt;9</title>
<path fill="none" stroke="black" d="M277.57,-663.83C268.27,-655.13 256.98,-644.58 246.87,-635.13"/>
<polygon fill="black" stroke="black" points="249.12,-632.44 239.42,-628.16 244.34,-637.55 249.12,-632.44"/>
</g>
<!-- 12 -->
<g id="node13" class="node">
<title>12</title>
<polygon fill="none" stroke="black" points="442,-628 308,-628 308,-590 442,-590 442,-628"/>
<text text-anchor="middle" x="375" y="-612.8" font-family="Times,serif" font-size="14.00">longitude &lt;= &#45;69.246</text>
<text text-anchor="middle" x="375" y="-597.8" font-family="Times,serif" font-size="14.00">class = Canada</text>
</g>
<!-- 8&#45;&gt;12 -->
<g id="edge12" class="edge">
<title>8&#45;&gt;12</title>
<path fill="none" stroke="black" d="M316.68,-663.83C326.11,-655.13 337.54,-644.58 347.78,-635.13"/>
<polygon fill="black" stroke="black" points="350.35,-637.52 355.32,-628.16 345.6,-632.37 350.35,-637.52"/>
</g>
<!-- 10 -->
<g id="node11" class="node">
<title>10</title>
<polygon fill="none" stroke="black" points="167.5,-553 68.5,-553 68.5,-517 167.5,-517 167.5,-553"/>
<text text-anchor="middle" x="118" y="-531.3" font-family="Times,serif" font-size="14.00">class = Canada</text>
</g>
<!-- 9&#45;&gt;10 -->
<g id="edge10" class="edge">
<title>9&#45;&gt;10</title>
<path fill="none" stroke="black" d="M194.26,-589.83C181.07,-580.52 164.85,-569.07 150.77,-559.13"/>
<polygon fill="black" stroke="black" points="152.51,-556.08 142.33,-553.17 148.48,-561.8 152.51,-556.08"/>
</g>
<!-- 11 -->
<g id="node12" class="node">
<title>11</title>
<polygon fill="none" stroke="black" points="272,-553 186,-553 186,-517 272,-517 272,-553"/>
<text text-anchor="middle" x="229" y="-531.3" font-family="Times,serif" font-size="14.00">class = USA</text>
</g>
<!-- 9&#45;&gt;11 -->
<g id="edge11" class="edge">
<title>9&#45;&gt;11</title>
<path fill="none" stroke="black" d="M222.27,-589.83C223.26,-581.89 224.45,-572.41 225.55,-563.63"/>
<polygon fill="black" stroke="black" points="229.06,-563.77 226.82,-553.42 222.11,-562.91 229.06,-563.77"/>
</g>
<!-- 13 -->
<g id="node14" class="node">
<title>13</title>
<polygon fill="none" stroke="black" points="426.5,-554 307.5,-554 307.5,-516 426.5,-516 426.5,-554"/>
<text text-anchor="middle" x="367" y="-538.8" font-family="Times,serif" font-size="14.00">latitude &lt;= 43.093</text>
<text text-anchor="middle" x="367" y="-523.8" font-family="Times,serif" font-size="14.00">class = Canada</text>
</g>
<!-- 12&#45;&gt;13 -->
<g id="edge13" class="edge">
<title>12&#45;&gt;13</title>
<path fill="none" stroke="black" d="M372.98,-589.83C372.13,-582.13 371.11,-572.97 370.16,-564.42"/>
<polygon fill="black" stroke="black" points="373.63,-563.97 369.05,-554.41 366.67,-564.74 373.63,-563.97"/>
</g>
<!-- 36 -->
<g id="node37" class="node">
<title>36</title>
<polygon fill="none" stroke="black" points="624,-554 490,-554 490,-516 624,-516 624,-554"/>
<text text-anchor="middle" x="557" y="-538.8" font-family="Times,serif" font-size="14.00">longitude &lt;= &#45;66.952</text>
<text text-anchor="middle" x="557" y="-523.8" font-family="Times,serif" font-size="14.00">class = Canada</text>
</g>
<!-- 12&#45;&gt;36 -->
<g id="edge36" class="edge">
<title>12&#45;&gt;36</title>
<path fill="none" stroke="black" d="M420.93,-589.83C445.59,-580.07 476.17,-567.98 502.09,-557.72"/>
<polygon fill="black" stroke="black" points="503.39,-560.97 511.4,-554.04 500.82,-554.46 503.39,-560.97"/>
</g>
<!-- 14 -->
<g id="node15" class="node">
<title>14</title>
<polygon fill="none" stroke="black" points="244,-480 110,-480 110,-442 244,-442 244,-480"/>
<text text-anchor="middle" x="177" y="-464.8" font-family="Times,serif" font-size="14.00">longitude &lt;= &#45;81.845</text>
<text text-anchor="middle" x="177" y="-449.8" font-family="Times,serif" font-size="14.00">class = Canada</text>
</g>
<!-- 13&#45;&gt;14 -->
<g id="edge14" class="edge">
<title>13&#45;&gt;14</title>
<path fill="none" stroke="black" d="M319.05,-515.83C293.19,-506.03 261.1,-493.87 233.97,-483.59"/>
<polygon fill="black" stroke="black" points="235.19,-480.31 224.6,-480.04 232.71,-486.85 235.19,-480.31"/>
</g>
<!-- 19 -->
<g id="node20" class="node">
<title>19</title>
<polygon fill="none" stroke="black" points="426.5,-480 307.5,-480 307.5,-442 426.5,-442 426.5,-480"/>
<text text-anchor="middle" x="367" y="-464.8" font-family="Times,serif" font-size="14.00">latitude &lt;= 44.992</text>
<text text-anchor="middle" x="367" y="-449.8" font-family="Times,serif" font-size="14.00">class = Canada</text>
</g>
<!-- 13&#45;&gt;19 -->
<g id="edge19" class="edge">
<title>13&#45;&gt;19</title>
<path fill="none" stroke="black" d="M367,-515.83C367,-508.13 367,-498.97 367,-490.42"/>
<polygon fill="black" stroke="black" points="370.5,-490.41 367,-480.41 363.5,-490.41 370.5,-490.41"/>
</g>
<!-- 15 -->
<g id="node16" class="node">
<title>15</title>
<polygon fill="none" stroke="black" points="99,-405 13,-405 13,-369 99,-369 99,-405"/>
<text text-anchor="middle" x="56" y="-383.3" font-family="Times,serif" font-size="14.00">class = USA</text>
</g>
<!-- 14&#45;&gt;15 -->
<g id="edge15" class="edge">
<title>14&#45;&gt;15</title>
<path fill="none" stroke="black" d="M146.47,-441.83C130.37,-432.25 110.49,-420.42 93.46,-410.29"/>
<polygon fill="black" stroke="black" points="95.24,-407.28 84.86,-405.17 91.66,-413.29 95.24,-407.28"/>
</g>
<!-- 16 -->
<g id="node17" class="node">
<title>16</title>
<polygon fill="none" stroke="black" points="236.5,-406 117.5,-406 117.5,-368 236.5,-368 236.5,-406"/>
<text text-anchor="middle" x="177" y="-390.8" font-family="Times,serif" font-size="14.00">latitude &lt;= 43.039</text>
<text text-anchor="middle" x="177" y="-375.8" font-family="Times,serif" font-size="14.00">class = Canada</text>
</g>
<!-- 14&#45;&gt;16 -->
<g id="edge16" class="edge">
<title>14&#45;&gt;16</title>
<path fill="none" stroke="black" d="M177,-441.83C177,-434.13 177,-424.97 177,-416.42"/>
<polygon fill="black" stroke="black" points="180.5,-416.41 177,-406.41 173.5,-416.41 180.5,-416.41"/>
</g>
<!-- 17 -->
<g id="node18" class="node">
<title>17</title>
<polygon fill="none" stroke="black" points="115.5,-331 16.5,-331 16.5,-295 115.5,-295 115.5,-331"/>
<text text-anchor="middle" x="66" y="-309.3" font-family="Times,serif" font-size="14.00">class = Canada</text>
</g>
<!-- 16&#45;&gt;17 -->
<g id="edge17" class="edge">
<title>16&#45;&gt;17</title>
<path fill="none" stroke="black" d="M148.99,-367.83C134.49,-358.43 116.65,-346.86 101.23,-336.85"/>
<polygon fill="black" stroke="black" points="102.77,-333.68 92.47,-331.17 98.96,-339.55 102.77,-333.68"/>
</g>
<!-- 18 -->
<g id="node19" class="node">
<title>18</title>
<polygon fill="none" stroke="black" points="220,-331 134,-331 134,-295 220,-295 220,-331"/>
<text text-anchor="middle" x="177" y="-309.3" font-family="Times,serif" font-size="14.00">class = USA</text>
</g>
<!-- 16&#45;&gt;18 -->
<g id="edge18" class="edge">
<title>16&#45;&gt;18</title>
<path fill="none" stroke="black" d="M177,-367.83C177,-359.89 177,-350.41 177,-341.63"/>
<polygon fill="black" stroke="black" points="180.5,-341.42 177,-331.42 173.5,-341.42 180.5,-341.42"/>
</g>
<!-- 20 -->
<g id="node21" class="node">
<title>20</title>
<polygon fill="none" stroke="black" points="375.5,-406 256.5,-406 256.5,-368 375.5,-368 375.5,-406"/>
<text text-anchor="middle" x="316" y="-390.8" font-family="Times,serif" font-size="14.00">latitude &lt;= 44.542</text>
<text text-anchor="middle" x="316" y="-375.8" font-family="Times,serif" font-size="14.00">class = Canada</text>
</g>
<!-- 19&#45;&gt;20 -->
<g id="edge20" class="edge">
<title>19&#45;&gt;20</title>
<path fill="none" stroke="black" d="M354.13,-441.83C348.32,-433.62 341.33,-423.76 334.94,-414.73"/>
<polygon fill="black" stroke="black" points="337.68,-412.55 329.04,-406.41 331.97,-416.6 337.68,-412.55"/>
</g>
<!-- 35 -->
<g id="node36" class="node">
<title>35</title>
<polygon fill="none" stroke="black" points="492.5,-405 393.5,-405 393.5,-369 492.5,-369 492.5,-405"/>
<text text-anchor="middle" x="443" y="-383.3" font-family="Times,serif" font-size="14.00">class = Canada</text>
</g>
<!-- 19&#45;&gt;35 -->
<g id="edge35" class="edge">
<title>19&#45;&gt;35</title>
<path fill="none" stroke="black" d="M386.18,-441.83C395.64,-432.87 407.18,-421.93 417.39,-412.26"/>
<polygon fill="black" stroke="black" points="420.02,-414.59 424.87,-405.17 415.21,-409.51 420.02,-414.59"/>
</g>
<!-- 21 -->
<g id="node22" class="node">
<title>21</title>
<polygon fill="none" stroke="black" points="372,-332 238,-332 238,-294 372,-294 372,-332"/>
<text text-anchor="middle" x="305" y="-316.8" font-family="Times,serif" font-size="14.00">longitude &lt;= &#45;79.076</text>
<text text-anchor="middle" x="305" y="-301.8" font-family="Times,serif" font-size="14.00">class = Canada</text>
</g>
<!-- 20&#45;&gt;21 -->
<g id="edge21" class="edge">
<title>20&#45;&gt;21</title>
<path fill="none" stroke="black" d="M313.22,-367.83C312.05,-360.13 310.65,-350.97 309.34,-342.42"/>
<polygon fill="black" stroke="black" points="312.78,-341.77 307.81,-332.41 305.86,-342.83 312.78,-341.77"/>
</g>
<!-- 30 -->
<g id="node31" class="node">
<title>30</title>
<polygon fill="none" stroke="black" points="509.5,-332 390.5,-332 390.5,-294 509.5,-294 509.5,-332"/>
<text text-anchor="middle" x="450" y="-316.8" font-family="Times,serif" font-size="14.00">latitude &lt;= 44.706</text>
<text text-anchor="middle" x="450" y="-301.8" font-family="Times,serif" font-size="14.00">class = USA</text>
</g>
<!-- 20&#45;&gt;30 -->
<g id="edge30" class="edge">
<title>20&#45;&gt;30</title>
<path fill="none" stroke="black" d="M349.81,-367.83C367.27,-358.45 388.75,-346.91 407.34,-336.92"/>
<polygon fill="black" stroke="black" points="409.04,-339.98 416.2,-332.16 405.73,-333.81 409.04,-339.98"/>
</g>
<!-- 22 -->
<g id="node23" class="node">
<title>22</title>
<polygon fill="none" stroke="black" points="227.5,-257 128.5,-257 128.5,-221 227.5,-221 227.5,-257"/>
<text text-anchor="middle" x="178" y="-235.3" font-family="Times,serif" font-size="14.00">class = Canada</text>
</g>
<!-- 21&#45;&gt;22 -->
<g id="edge22" class="edge">
<title>21&#45;&gt;22</title>
<path fill="none" stroke="black" d="M272.95,-293.83C256.06,-284.25 235.19,-272.42 217.32,-262.29"/>
<polygon fill="black" stroke="black" points="218.71,-259.06 208.29,-257.17 215.26,-265.15 218.71,-259.06"/>
</g>
<!-- 23 -->
<g id="node24" class="node">
<title>23</title>
<polygon fill="none" stroke="black" points="364.5,-258 245.5,-258 245.5,-220 364.5,-220 364.5,-258"/>
<text text-anchor="middle" x="305" y="-242.8" font-family="Times,serif" font-size="14.00">latitude &lt;= 44.168</text>
<text text-anchor="middle" x="305" y="-227.8" font-family="Times,serif" font-size="14.00">class = Canada</text>
</g>
<!-- 21&#45;&gt;23 -->
<g id="edge23" class="edge">
<title>21&#45;&gt;23</title>
<path fill="none" stroke="black" d="M305,-293.83C305,-286.13 305,-276.97 305,-268.42"/>
<polygon fill="black" stroke="black" points="308.5,-268.41 305,-258.41 301.5,-268.41 308.5,-268.41"/>
</g>
<!-- 24 -->
<g id="node25" class="node">
<title>24</title>
<polygon fill="none" stroke="black" points="244.5,-184 117.5,-184 117.5,-146 244.5,-146 244.5,-184"/>
<text text-anchor="middle" x="181" y="-168.8" font-family="Times,serif" font-size="14.00">longitude &lt;= &#45;79.03</text>
<text text-anchor="middle" x="181" y="-153.8" font-family="Times,serif" font-size="14.00">class = USA</text>
</g>
<!-- 23&#45;&gt;24 -->
<g id="edge24" class="edge">
<title>23&#45;&gt;24</title>
<path fill="none" stroke="black" d="M273.71,-219.83C257.7,-210.54 238.04,-199.12 220.95,-189.2"/>
<polygon fill="black" stroke="black" points="222.69,-186.16 212.28,-184.16 219.17,-192.21 222.69,-186.16"/>
</g>
<!-- 29 -->
<g id="node30" class="node">
<title>29</title>
<polygon fill="none" stroke="black" points="361.5,-183 262.5,-183 262.5,-147 361.5,-147 361.5,-183"/>
<text text-anchor="middle" x="312" y="-161.3" font-family="Times,serif" font-size="14.00">class = Canada</text>
</g>
<!-- 23&#45;&gt;29 -->
<g id="edge29" class="edge">
<title>23&#45;&gt;29</title>
<path fill="none" stroke="black" d="M306.77,-219.83C307.54,-211.89 308.46,-202.41 309.31,-193.63"/>
<polygon fill="black" stroke="black" points="312.82,-193.71 310.31,-183.42 305.86,-193.03 312.82,-193.71"/>
</g>
<!-- 25 -->
<g id="node26" class="node">
<title>25</title>
<polygon fill="none" stroke="black" points="164,-109 78,-109 78,-73 164,-73 164,-109"/>
<text text-anchor="middle" x="121" y="-87.3" font-family="Times,serif" font-size="14.00">class = USA</text>
</g>
<!-- 24&#45;&gt;25 -->
<g id="edge25" class="edge">
<title>24&#45;&gt;25</title>
<path fill="none" stroke="black" d="M165.86,-145.83C158.66,-137.2 149.94,-126.73 142.11,-117.33"/>
<polygon fill="black" stroke="black" points="144.61,-114.86 135.51,-109.42 139.23,-119.34 144.61,-114.86"/>
</g>
<!-- 26 -->
<g id="node27" class="node">
<title>26</title>
<polygon fill="none" stroke="black" points="301.5,-110 182.5,-110 182.5,-72 301.5,-72 301.5,-110"/>
<text text-anchor="middle" x="242" y="-94.8" font-family="Times,serif" font-size="14.00">latitude &lt;= 43.988</text>
<text text-anchor="middle" x="242" y="-79.8" font-family="Times,serif" font-size="14.00">class = Canada</text>
</g>
<!-- 24&#45;&gt;26 -->
<g id="edge26" class="edge">
<title>24&#45;&gt;26</title>
<path fill="none" stroke="black" d="M196.39,-145.83C203.49,-137.45 212.05,-127.35 219.82,-118.17"/>
<polygon fill="black" stroke="black" points="222.61,-120.31 226.4,-110.41 217.27,-115.78 222.61,-120.31"/>
</g>
<!-- 27 -->
<g id="node28" class="node">
<title>27</title>
<polygon fill="none" stroke="black" points="235.5,-36 136.5,-36 136.5,0 235.5,0 235.5,-36"/>
<text text-anchor="middle" x="186" y="-14.3" font-family="Times,serif" font-size="14.00">class = Canada</text>
</g>
<!-- 26&#45;&gt;27 -->
<g id="edge27" class="edge">
<title>26&#45;&gt;27</title>
<path fill="none" stroke="black" d="M227.58,-71.72C220.93,-63.29 212.93,-53.15 205.73,-44.02"/>
<polygon fill="black" stroke="black" points="208.35,-41.69 199.41,-36 202.86,-46.02 208.35,-41.69"/>
</g>
<!-- 28 -->
<g id="node29" class="node">
<title>28</title>
<polygon fill="none" stroke="black" points="340,-36 254,-36 254,0 340,0 340,-36"/>
<text text-anchor="middle" x="297" y="-14.3" font-family="Times,serif" font-size="14.00">class = USA</text>
</g>
<!-- 26&#45;&gt;28 -->
<g id="edge28" class="edge">
<title>26&#45;&gt;28</title>
<path fill="none" stroke="black" d="M256.16,-71.72C262.69,-63.29 270.55,-53.15 277.62,-44.02"/>
<polygon fill="black" stroke="black" points="280.47,-46.05 283.83,-36 274.94,-41.77 280.47,-46.05"/>
</g>
<!-- 31 -->
<g id="node32" class="node">
<title>31</title>
<polygon fill="none" stroke="black" points="469,-257 383,-257 383,-221 469,-221 469,-257"/>
<text text-anchor="middle" x="426" y="-235.3" font-family="Times,serif" font-size="14.00">class = USA</text>
</g>
<!-- 30&#45;&gt;31 -->
<g id="edge31" class="edge">
<title>30&#45;&gt;31</title>
<path fill="none" stroke="black" d="M443.94,-293.83C441.24,-285.72 438,-275.99 435.02,-267.05"/>
<polygon fill="black" stroke="black" points="438.29,-265.8 431.81,-257.42 431.65,-268.01 438.29,-265.8"/>
</g>
<!-- 32 -->
<g id="node33" class="node">
<title>32</title>
<polygon fill="none" stroke="black" points="606.5,-258 487.5,-258 487.5,-220 606.5,-220 606.5,-258"/>
<text text-anchor="middle" x="547" y="-242.8" font-family="Times,serif" font-size="14.00">latitude &lt;= 44.848</text>
<text text-anchor="middle" x="547" y="-227.8" font-family="Times,serif" font-size="14.00">class = Canada</text>
</g>
<!-- 30&#45;&gt;32 -->
<g id="edge32" class="edge">
<title>30&#45;&gt;32</title>
<path fill="none" stroke="black" d="M474.48,-293.83C486.54,-284.88 501.25,-273.96 514.27,-264.3"/>
<polygon fill="black" stroke="black" points="516.59,-266.93 522.53,-258.16 512.41,-261.31 516.59,-266.93"/>
</g>
<!-- 33 -->
<g id="node34" class="node">
<title>33</title>
<polygon fill="none" stroke="black" points="486.5,-183 387.5,-183 387.5,-147 486.5,-147 486.5,-183"/>
<text text-anchor="middle" x="437" y="-161.3" font-family="Times,serif" font-size="14.00">class = Canada</text>
</g>
<!-- 32&#45;&gt;33 -->
<g id="edge33" class="edge">
<title>32&#45;&gt;33</title>
<path fill="none" stroke="black" d="M519.24,-219.83C504.88,-210.43 487.2,-198.86 471.91,-188.85"/>
<polygon fill="black" stroke="black" points="473.52,-185.72 463.23,-183.17 469.68,-191.58 473.52,-185.72"/>
</g>
<!-- 34 -->
<g id="node35" class="node">
<title>34</title>
<polygon fill="none" stroke="black" points="591,-183 505,-183 505,-147 591,-147 591,-183"/>
<text text-anchor="middle" x="548" y="-161.3" font-family="Times,serif" font-size="14.00">class = USA</text>
</g>
<!-- 32&#45;&gt;34 -->
<g id="edge34" class="edge">
<title>32&#45;&gt;34</title>
<path fill="none" stroke="black" d="M547.25,-219.83C547.36,-211.89 547.49,-202.41 547.62,-193.63"/>
<polygon fill="black" stroke="black" points="551.12,-193.47 547.76,-183.42 544.12,-193.37 551.12,-193.47"/>
</g>
<!-- 37 -->
<g id="node38" class="node">
<title>37</title>
<polygon fill="none" stroke="black" points="616.5,-480 497.5,-480 497.5,-442 616.5,-442 616.5,-480"/>
<text text-anchor="middle" x="557" y="-464.8" font-family="Times,serif" font-size="14.00">latitude &lt;= 45.195</text>
<text text-anchor="middle" x="557" y="-449.8" font-family="Times,serif" font-size="14.00">class = USA</text>
</g>
<!-- 36&#45;&gt;37 -->
<g id="edge37" class="edge">
<title>36&#45;&gt;37</title>
<path fill="none" stroke="black" d="M557,-515.83C557,-508.13 557,-498.97 557,-490.42"/>
<polygon fill="black" stroke="black" points="560.5,-490.41 557,-480.41 553.5,-490.41 560.5,-490.41"/>
</g>
<!-- 52 -->
<g id="node53" class="node">
<title>52</title>
<polygon fill="none" stroke="black" points="733.5,-479 634.5,-479 634.5,-443 733.5,-443 733.5,-479"/>
<text text-anchor="middle" x="684" y="-457.3" font-family="Times,serif" font-size="14.00">class = Canada</text>
</g>
<!-- 36&#45;&gt;52 -->
<g id="edge52" class="edge">
<title>36&#45;&gt;52</title>
<path fill="none" stroke="black" d="M589.05,-515.83C605.94,-506.25 626.81,-494.42 644.68,-484.29"/>
<polygon fill="black" stroke="black" points="646.74,-487.15 653.71,-479.17 643.29,-481.06 646.74,-487.15"/>
</g>
<!-- 38 -->
<g id="node39" class="node">
<title>38</title>
<polygon fill="none" stroke="black" points="600,-405 514,-405 514,-369 600,-369 600,-405"/>
<text text-anchor="middle" x="557" y="-383.3" font-family="Times,serif" font-size="14.00">class = USA</text>
</g>
<!-- 37&#45;&gt;38 -->
<g id="edge38" class="edge">
<title>37&#45;&gt;38</title>
<path fill="none" stroke="black" d="M557,-441.83C557,-433.89 557,-424.41 557,-415.63"/>
<polygon fill="black" stroke="black" points="560.5,-415.42 557,-405.42 553.5,-415.42 560.5,-415.42"/>
</g>
<!-- 39 -->
<g id="node40" class="node">
<title>39</title>
<polygon fill="none" stroke="black" points="799.5,-406 672.5,-406 672.5,-368 799.5,-368 799.5,-406"/>
<text text-anchor="middle" x="736" y="-390.8" font-family="Times,serif" font-size="14.00">longitude &lt;= &#45;67.93</text>
<text text-anchor="middle" x="736" y="-375.8" font-family="Times,serif" font-size="14.00">class = Canada</text>
</g>
<!-- 37&#45;&gt;39 -->
<g id="edge39" class="edge">
<title>37&#45;&gt;39</title>
<path fill="none" stroke="black" d="M602.17,-441.83C626.32,-432.12 656.24,-420.08 681.66,-409.86"/>
<polygon fill="black" stroke="black" points="683.18,-413.02 691.16,-406.04 680.57,-406.52 683.18,-413.02"/>
</g>
<!-- 40 -->
<g id="node41" class="node">
<title>40</title>
<polygon fill="none" stroke="black" points="803,-332 669,-332 669,-294 803,-294 803,-332"/>
<text text-anchor="middle" x="736" y="-316.8" font-family="Times,serif" font-size="14.00">longitude &lt;= &#45;68.325</text>
<text text-anchor="middle" x="736" y="-301.8" font-family="Times,serif" font-size="14.00">class = USA</text>
</g>
<!-- 39&#45;&gt;40 -->
<g id="edge40" class="edge">
<title>39&#45;&gt;40</title>
<path fill="none" stroke="black" d="M736,-367.83C736,-360.13 736,-350.97 736,-342.42"/>
<polygon fill="black" stroke="black" points="739.5,-342.41 736,-332.41 732.5,-342.41 739.5,-342.41"/>
</g>
<!-- 47 -->
<g id="node48" class="node">
<title>47</title>
<polygon fill="none" stroke="black" points="992.5,-332 873.5,-332 873.5,-294 992.5,-294 992.5,-332"/>
<text text-anchor="middle" x="933" y="-316.8" font-family="Times,serif" font-size="14.00">latitude &lt;= 45.565</text>
<text text-anchor="middle" x="933" y="-301.8" font-family="Times,serif" font-size="14.00">class = Canada</text>
</g>
<!-- 39&#45;&gt;47 -->
<g id="edge47" class="edge">
<title>39&#45;&gt;47</title>
<path fill="none" stroke="black" d="M785.46,-367.92C812.27,-358.12 845.59,-345.95 873.78,-335.64"/>
<polygon fill="black" stroke="black" points="875.33,-338.8 883.52,-332.08 872.93,-332.23 875.33,-338.8"/>
</g>
<!-- 41 -->
<g id="node42" class="node">
<title>41</title>
<polygon fill="none" stroke="black" points="743.5,-258 624.5,-258 624.5,-220 743.5,-220 743.5,-258"/>
<text text-anchor="middle" x="684" y="-242.8" font-family="Times,serif" font-size="14.00">latitude &lt;= 47.256</text>
<text text-anchor="middle" x="684" y="-227.8" font-family="Times,serif" font-size="14.00">class = Canada</text>
</g>
<!-- 40&#45;&gt;41 -->
<g id="edge41" class="edge">
<title>40&#45;&gt;41</title>
<path fill="none" stroke="black" d="M722.88,-293.83C716.95,-285.62 709.83,-275.76 703.31,-266.73"/>
<polygon fill="black" stroke="black" points="705.99,-264.47 697.3,-258.41 700.32,-268.57 705.99,-264.47"/>
</g>
<!-- 46 -->
<g id="node47" class="node">
<title>46</title>
<polygon fill="none" stroke="black" points="848,-257 762,-257 762,-221 848,-221 848,-257"/>
<text text-anchor="middle" x="805" y="-235.3" font-family="Times,serif" font-size="14.00">class = USA</text>
</g>
<!-- 40&#45;&gt;46 -->
<g id="edge46" class="edge">
<title>40&#45;&gt;46</title>
<path fill="none" stroke="black" d="M753.41,-293.83C761.85,-285.02 772.12,-274.31 781.27,-264.76"/>
<polygon fill="black" stroke="black" points="783.92,-267.06 788.31,-257.42 778.86,-262.22 783.92,-267.06"/>
</g>
<!-- 42 -->
<g id="node43" class="node">
<title>42</title>
<polygon fill="none" stroke="black" points="714.5,-183 615.5,-183 615.5,-147 714.5,-147 714.5,-183"/>
<text text-anchor="middle" x="665" y="-161.3" font-family="Times,serif" font-size="14.00">class = Canada</text>
</g>
<!-- 41&#45;&gt;42 -->
<g id="edge42" class="edge">
<title>41&#45;&gt;42</title>
<path fill="none" stroke="black" d="M679.21,-219.83C677.09,-211.81 674.55,-202.2 672.21,-193.34"/>
<polygon fill="black" stroke="black" points="675.53,-192.19 669.6,-183.42 668.76,-193.98 675.53,-192.19"/>
</g>
<!-- 43 -->
<g id="node44" class="node">
<title>43</title>
<polygon fill="none" stroke="black" points="867,-184 733,-184 733,-146 867,-146 867,-184"/>
<text text-anchor="middle" x="800" y="-168.8" font-family="Times,serif" font-size="14.00">longitude &lt;= &#45;68.459</text>
<text text-anchor="middle" x="800" y="-153.8" font-family="Times,serif" font-size="14.00">class = USA</text>
</g>
<!-- 41&#45;&gt;43 -->
<g id="edge43" class="edge">
<title>41&#45;&gt;43</title>
<path fill="none" stroke="black" d="M713.27,-219.83C728.11,-210.62 746.3,-199.33 762.19,-189.47"/>
<polygon fill="black" stroke="black" points="764.09,-192.41 770.74,-184.16 760.4,-186.46 764.09,-192.41"/>
</g>
<!-- 44 -->
<g id="node45" class="node">
<title>44</title>
<polygon fill="none" stroke="black" points="787,-109 701,-109 701,-73 787,-73 787,-109"/>
<text text-anchor="middle" x="744" y="-87.3" font-family="Times,serif" font-size="14.00">class = USA</text>
</g>
<!-- 43&#45;&gt;44 -->
<g id="edge44" class="edge">
<title>43&#45;&gt;44</title>
<path fill="none" stroke="black" d="M785.87,-145.83C779.15,-137.2 771.01,-126.73 763.7,-117.33"/>
<polygon fill="black" stroke="black" points="766.45,-115.16 757.55,-109.42 760.92,-119.46 766.45,-115.16"/>
</g>
<!-- 45 -->
<g id="node46" class="node">
<title>45</title>
<polygon fill="none" stroke="black" points="904.5,-109 805.5,-109 805.5,-73 904.5,-73 904.5,-109"/>
<text text-anchor="middle" x="855" y="-87.3" font-family="Times,serif" font-size="14.00">class = Canada</text>
</g>
<!-- 43&#45;&gt;45 -->
<g id="edge45" class="edge">
<title>43&#45;&gt;45</title>
<path fill="none" stroke="black" d="M813.88,-145.83C820.41,-137.28 828.31,-126.94 835.43,-117.62"/>
<polygon fill="black" stroke="black" points="838.41,-119.49 841.69,-109.42 832.84,-115.24 838.41,-119.49"/>
</g>
<!-- 48 -->
<g id="node49" class="node">
<title>48</title>
<polygon fill="none" stroke="black" points="1000,-258 866,-258 866,-220 1000,-220 1000,-258"/>
<text text-anchor="middle" x="933" y="-242.8" font-family="Times,serif" font-size="14.00">longitude &lt;= &#45;67.355</text>
<text text-anchor="middle" x="933" y="-227.8" font-family="Times,serif" font-size="14.00">class = Canada</text>
</g>
<!-- 47&#45;&gt;48 -->
<g id="edge48" class="edge">
<title>47&#45;&gt;48</title>
<path fill="none" stroke="black" d="M933,-293.83C933,-286.13 933,-276.97 933,-268.42"/>
<polygon fill="black" stroke="black" points="936.5,-268.41 933,-258.41 929.5,-268.41 936.5,-268.41"/>
</g>
<!-- 51 -->
<g id="node52" class="node">
<title>51</title>
<polygon fill="none" stroke="black" points="1117.5,-257 1018.5,-257 1018.5,-221 1117.5,-221 1117.5,-257"/>
<text text-anchor="middle" x="1068" y="-235.3" font-family="Times,serif" font-size="14.00">class = Canada</text>
</g>
<!-- 47&#45;&gt;51 -->
<g id="edge51" class="edge">
<title>47&#45;&gt;51</title>
<path fill="none" stroke="black" d="M967.07,-293.83C985.19,-284.17 1007.62,-272.2 1026.72,-262.01"/>
<polygon fill="black" stroke="black" points="1028.63,-264.97 1035.8,-257.17 1025.33,-258.79 1028.63,-264.97"/>
</g>
<!-- 49 -->
<g id="node50" class="node">
<title>49</title>
<polygon fill="none" stroke="black" points="974,-183 888,-183 888,-147 974,-147 974,-183"/>
<text text-anchor="middle" x="931" y="-161.3" font-family="Times,serif" font-size="14.00">class = USA</text>
</g>
<!-- 48&#45;&gt;49 -->
<g id="edge49" class="edge">
<title>48&#45;&gt;49</title>
<path fill="none" stroke="black" d="M932.5,-219.83C932.27,-211.89 932.01,-202.41 931.77,-193.63"/>
<polygon fill="black" stroke="black" points="935.26,-193.32 931.48,-183.42 928.26,-193.51 935.26,-193.32"/>
</g>
<!-- 50 -->
<g id="node51" class="node">
<title>50</title>
<polygon fill="none" stroke="black" points="1091.5,-183 992.5,-183 992.5,-147 1091.5,-147 1091.5,-183"/>
<text text-anchor="middle" x="1042" y="-161.3" font-family="Times,serif" font-size="14.00">class = Canada</text>
</g>
<!-- 48&#45;&gt;50 -->
<g id="edge50" class="edge">
<title>48&#45;&gt;50</title>
<path fill="none" stroke="black" d="M960.51,-219.83C974.74,-210.43 992.26,-198.86 1007.41,-188.85"/>
<polygon fill="black" stroke="black" points="1009.59,-191.6 1016,-183.17 1005.73,-185.76 1009.59,-191.6"/>
</g>
</g>
</svg>
