<?xml version="1.0" encoding="UTF-8" standalone="no"?>
<!DOCTYPE svg PUBLIC "-//W3C//DTD SVG 1.1//EN"
 "http://www.w3.org/Graphics/SVG/1.1/DTD/svg11.dtd">
<!-- Generated by graphviz version 2.44.1 (20200629.0846)
 -->
<!-- Title: Tree Pages: 1 -->
<svg width="184pt" height="118pt"
 viewBox="0.00 0.00 184.00 118.00" xmlns="http://www.w3.org/2000/svg" xmlns:xlink="http://www.w3.org/1999/xlink">
<g id="graph0" class="graph" transform="scale(1 1) rotate(0) translate(4 114)">
<title>Tree</title>
<polygon fill="white" stroke="transparent" points="-4,4 -4,-114 180,-114 180,4 -4,4"/>
<!-- 0 -->
<g id="node1" class="node">
<title>0</title>
<polygon fill="none" stroke="black" points="132,-110 40,-110 40,-72 132,-72 132,-110"/>
<text text-anchor="middle" x="86" y="-94.8" font-family="Times,serif" font-size="14.00">lat &lt;= 37.682</text>
<text text-anchor="middle" x="86" y="-79.8" font-family="Times,serif" font-size="14.00">class = blue</text>
</g>
<!-- 1 -->
<g id="node2" class="node">
<title>1</title>
<polygon fill="none" stroke="black" points="76,-36 0,-36 0,0 76,0 76,-36"/>
<text text-anchor="middle" x="38" y="-14.3" font-family="Times,serif" font-size="14.00">class = red</text>
</g>
<!-- 0&#45;&gt;1 -->
<g id="edge1" class="edge">
<title>0&#45;&gt;1</title>
<path fill="none" stroke="black" d="M73.64,-71.72C68,-63.37 61.22,-53.35 55.1,-44.3"/>
<polygon fill="black" stroke="black" points="58,-42.33 49.5,-36 52.2,-46.25 58,-42.33"/>
<text text-anchor="middle" x="44.75" y="-56.85" font-family="Times,serif" font-size="14.00">True</text>
</g>
<!-- 2 -->
<g id="node3" class="node">
<title>2</title>
<polygon fill="none" stroke="black" points="176,-36 94,-36 94,0 176,0 176,-36"/>
<text text-anchor="middle" x="135" y="-14.3" font-family="Times,serif" font-size="14.00">class = blue</text>
</g>
<!-- 0&#45;&gt;2 -->
<g id="edge2" class="edge">
<title>0&#45;&gt;2</title>
<path fill="none" stroke="black" d="M98.62,-71.72C104.38,-63.37 111.29,-53.35 117.54,-44.3"/>
<polygon fill="black" stroke="black" points="120.47,-46.22 123.27,-36 114.7,-42.25 120.47,-46.22"/>
<text text-anchor="middle" x="127.77" y="-56.89" font-family="Times,serif" font-size="14.00">False</text>
</g>
</g>
</svg>
