<?xml version="1.0" encoding="UTF-8" standalone="no"?>
<!DOCTYPE svg PUBLIC "-//W3C//DTD SVG 1.1//EN"
 "http://www.w3.org/Graphics/SVG/1.1/DTD/svg11.dtd">
<!-- Generated by graphviz version 2.44.1 (20200629.0846)
 -->
<!-- Title: Tree Pages: 1 -->
<svg width="649pt" height="414pt"
 viewBox="0.00 0.00 648.50 414.00" xmlns="http://www.w3.org/2000/svg" xmlns:xlink="http://www.w3.org/1999/xlink">
<g id="graph0" class="graph" transform="scale(1 1) rotate(0) translate(4 410)">
<title>Tree</title>
<polygon fill="white" stroke="transparent" points="-4,4 -4,-410 644.5,-410 644.5,4 -4,4"/>
<!-- 0 -->
<g id="node1" class="node">
<title>0</title>
<polygon fill="none" stroke="black" points="285.5,-406 180.5,-406 180.5,-368 285.5,-368 285.5,-406"/>
<text text-anchor="middle" x="233" y="-390.8" font-family="Times,serif" font-size="14.00">latitude &lt;= 42.9</text>
<text text-anchor="middle" x="233" y="-375.8" font-family="Times,serif" font-size="14.00">class = Canada</text>
</g>
<!-- 1 -->
<g id="node2" class="node">
<title>1</title>
<polygon fill="none" stroke="black" points="218.5,-332 99.5,-332 99.5,-294 218.5,-294 218.5,-332"/>
<text text-anchor="middle" x="159" y="-316.8" font-family="Times,serif" font-size="14.00">latitude &lt;= 42.096</text>
<text text-anchor="middle" x="159" y="-301.8" font-family="Times,serif" font-size="14.00">class = USA</text>
</g>
<!-- 0&#45;&gt;1 -->
<g id="edge1" class="edge">
<title>0&#45;&gt;1</title>
<path fill="none" stroke="black" d="M214.33,-367.83C205.48,-359.22 194.75,-348.79 185.11,-339.4"/>
<polygon fill="black" stroke="black" points="187.28,-336.63 177.67,-332.16 182.39,-341.64 187.28,-336.63"/>
<text text-anchor="middle" x="178.01" y="-353.46" font-family="Times,serif" font-size="14.00">True</text>
</g>
<!-- 6 -->
<g id="node7" class="node">
<title>6</title>
<polygon fill="none" stroke="black" points="377,-332 237,-332 237,-294 377,-294 377,-332"/>
<text text-anchor="middle" x="307" y="-316.8" font-family="Times,serif" font-size="14.00">longitude &lt;= &#45;130.017</text>
<text text-anchor="middle" x="307" y="-301.8" font-family="Times,serif" font-size="14.00">class = Canada</text>
</g>
<!-- 0&#45;&gt;6 -->
<g id="edge6" class="edge">
<title>0&#45;&gt;6</title>
<path fill="none" stroke="black" d="M251.67,-367.83C260.52,-359.22 271.25,-348.79 280.89,-339.4"/>
<polygon fill="black" stroke="black" points="283.61,-341.64 288.33,-332.16 278.72,-336.63 283.61,-341.64"/>
<text text-anchor="middle" x="287.99" y="-353.46" font-family="Times,serif" font-size="14.00">False</text>
</g>
<!-- 2 -->
<g id="node3" class="node">
<title>2</title>
<polygon fill="none" stroke="black" points="86,-257 0,-257 0,-221 86,-221 86,-257"/>
<text text-anchor="middle" x="43" y="-235.3" font-family="Times,serif" font-size="14.00">class = USA</text>
</g>
<!-- 1&#45;&gt;2 -->
<g id="edge2" class="edge">
<title>1&#45;&gt;2</title>
<path fill="none" stroke="black" d="M129.73,-293.83C114.44,-284.34 95.58,-272.64 79.37,-262.57"/>
<polygon fill="black" stroke="black" points="81.01,-259.47 70.67,-257.17 77.32,-265.42 81.01,-259.47"/>
</g>
<!-- 3 -->
<g id="node4" class="node">
<title>3</title>
<polygon fill="none" stroke="black" points="223.5,-258 104.5,-258 104.5,-220 223.5,-220 223.5,-258"/>
<text text-anchor="middle" x="164" y="-242.8" font-family="Times,serif" font-size="14.00">latitude &lt;= 42.324</text>
<text text-anchor="middle" x="164" y="-227.8" font-family="Times,serif" font-size="14.00">class = USA</text>
</g>
<!-- 1&#45;&gt;3 -->
<g id="edge3" class="edge">
<title>1&#45;&gt;3</title>
<path fill="none" stroke="black" d="M160.26,-293.83C160.8,-286.13 161.43,-276.97 162.03,-268.42"/>
<polygon fill="black" stroke="black" points="165.52,-268.63 162.72,-258.41 158.54,-268.15 165.52,-268.63"/>
</g>
<!-- 4 -->
<g id="node5" class="node">
<title>4</title>
<polygon fill="none" stroke="black" points="206.5,-183 107.5,-183 107.5,-147 206.5,-147 206.5,-183"/>
<text text-anchor="middle" x="157" y="-161.3" font-family="Times,serif" font-size="14.00">class = Canada</text>
</g>
<!-- 3&#45;&gt;4 -->
<g id="edge4" class="edge">
<title>3&#45;&gt;4</title>
<path fill="none" stroke="black" d="M162.23,-219.83C161.46,-211.89 160.54,-202.41 159.69,-193.63"/>
<polygon fill="black" stroke="black" points="163.14,-193.03 158.69,-183.42 156.18,-193.71 163.14,-193.03"/>
</g>
<!-- 5 -->
<g id="node6" class="node">
<title>5</title>
<polygon fill="none" stroke="black" points="311,-183 225,-183 225,-147 311,-147 311,-183"/>
<text text-anchor="middle" x="268" y="-161.3" font-family="Times,serif" font-size="14.00">class = USA</text>
</g>
<!-- 3&#45;&gt;5 -->
<g id="edge5" class="edge">
<title>3&#45;&gt;5</title>
<path fill="none" stroke="black" d="M190.24,-219.83C203.7,-210.52 220.23,-199.07 234.59,-189.13"/>
<polygon fill="black" stroke="black" points="236.97,-191.74 243.2,-183.17 232.98,-185.99 236.97,-191.74"/>
</g>
<!-- 7 -->
<g id="node8" class="node">
<title>7</title>
<polygon fill="none" stroke="black" points="341,-257 255,-257 255,-221 341,-221 341,-257"/>
<text text-anchor="middle" x="298" y="-235.3" font-family="Times,serif" font-size="14.00">class = USA</text>
</g>
<!-- 6&#45;&gt;7 -->
<g id="edge7" class="edge">
<title>6&#45;&gt;7</title>
<path fill="none" stroke="black" d="M304.73,-293.83C303.74,-285.89 302.55,-276.41 301.45,-267.63"/>
<polygon fill="black" stroke="black" points="304.89,-266.91 300.18,-257.42 297.94,-267.77 304.89,-266.91"/>
</g>
<!-- 8 -->
<g id="node9" class="node">
<title>8</title>
<polygon fill="none" stroke="black" points="464.5,-258 359.5,-258 359.5,-220 464.5,-220 464.5,-258"/>
<text text-anchor="middle" x="412" y="-242.8" font-family="Times,serif" font-size="14.00">latitude &lt;= 49.0</text>
<text text-anchor="middle" x="412" y="-227.8" font-family="Times,serif" font-size="14.00">class = Canada</text>
</g>
<!-- 6&#45;&gt;8 -->
<g id="edge8" class="edge">
<title>6&#45;&gt;8</title>
<path fill="none" stroke="black" d="M333.5,-293.83C346.68,-284.79 362.78,-273.75 376.97,-264.02"/>
<polygon fill="black" stroke="black" points="379.24,-266.7 385.51,-258.16 375.29,-260.93 379.24,-266.7"/>
</g>
<!-- 9 -->
<g id="node10" class="node">
<title>9</title>
<polygon fill="none" stroke="black" points="474,-184 340,-184 340,-146 474,-146 474,-184"/>
<text text-anchor="middle" x="407" y="-168.8" font-family="Times,serif" font-size="14.00">longitude &lt;= &#45;94.582</text>
<text text-anchor="middle" x="407" y="-153.8" font-family="Times,serif" font-size="14.00">class = Canada</text>
</g>
<!-- 8&#45;&gt;9 -->
<g id="edge9" class="edge">
<title>8&#45;&gt;9</title>
<path fill="none" stroke="black" d="M410.74,-219.83C410.2,-212.13 409.57,-202.97 408.97,-194.42"/>
<polygon fill="black" stroke="black" points="412.46,-194.15 408.28,-184.41 405.48,-194.63 412.46,-194.15"/>
</g>
<!-- 16 -->
<g id="node17" class="node">
<title>16</title>
<polygon fill="none" stroke="black" points="591.5,-183 492.5,-183 492.5,-147 591.5,-147 591.5,-183"/>
<text text-anchor="middle" x="542" y="-161.3" font-family="Times,serif" font-size="14.00">class = Canada</text>
</g>
<!-- 8&#45;&gt;16 -->
<g id="edge16" class="edge">
<title>8&#45;&gt;16</title>
<path fill="none" stroke="black" d="M444.8,-219.83C462.18,-210.21 483.66,-198.31 502,-188.15"/>
<polygon fill="black" stroke="black" points="503.94,-191.08 511,-183.17 500.55,-184.95 503.94,-191.08"/>
</g>
<!-- 10 -->
<g id="node11" class="node">
<title>10</title>
<polygon fill="none" stroke="black" points="400,-110 260,-110 260,-72 400,-72 400,-110"/>
<text text-anchor="middle" x="330" y="-94.8" font-family="Times,serif" font-size="14.00">longitude &lt;= &#45;123.222</text>
<text text-anchor="middle" x="330" y="-79.8" font-family="Times,serif" font-size="14.00">class = USA</text>
</g>
<!-- 9&#45;&gt;10 -->
<g id="edge10" class="edge">
<title>9&#45;&gt;10</title>
<path fill="none" stroke="black" d="M387.57,-145.83C378.27,-137.13 366.98,-126.58 356.87,-117.13"/>
<polygon fill="black" stroke="black" points="359.12,-114.44 349.42,-110.16 354.34,-119.55 359.12,-114.44"/>
</g>
<!-- 13 -->
<g id="node14" class="node">
<title>13</title>
<polygon fill="none" stroke="black" points="552,-110 418,-110 418,-72 552,-72 552,-110"/>
<text text-anchor="middle" x="485" y="-94.8" font-family="Times,serif" font-size="14.00">longitude &lt;= &#45;69.246</text>
<text text-anchor="middle" x="485" y="-79.8" font-family="Times,serif" font-size="14.00">class = Canada</text>
</g>
<!-- 9&#45;&gt;13 -->
<g id="edge13" class="edge">
<title>9&#45;&gt;13</title>
<path fill="none" stroke="black" d="M426.68,-145.83C436.11,-137.13 447.54,-126.58 457.78,-117.13"/>
<polygon fill="black" stroke="black" points="460.35,-119.52 465.32,-110.16 455.6,-114.37 460.35,-119.52"/>
</g>
<!-- 11 -->
<g id="node12" class="node">
<title>11</title>
<polygon fill="none" stroke="black" points="279.5,-36 180.5,-36 180.5,0 279.5,0 279.5,-36"/>
<text text-anchor="middle" x="230" y="-14.3" font-family="Times,serif" font-size="14.00">class = Canada</text>
</g>
<!-- 10&#45;&gt;11 -->
<g id="edge11" class="edge">
<title>10&#45;&gt;11</title>
<path fill="none" stroke="black" d="M304.51,-71.9C291.66,-62.78 275.96,-51.63 262.28,-41.92"/>
<polygon fill="black" stroke="black" points="264.25,-39.02 254.07,-36.09 260.2,-44.73 264.25,-39.02"/>
</g>
<!-- 12 -->
<g id="node13" class="node">
<title>12</title>
<polygon fill="none" stroke="black" points="384,-36 298,-36 298,0 384,0 384,-36"/>
<text text-anchor="middle" x="341" y="-14.3" font-family="Times,serif" font-size="14.00">class = USA</text>
</g>
<!-- 10&#45;&gt;12 -->
<g id="edge12" class="edge">
<title>10&#45;&gt;12</title>
<path fill="none" stroke="black" d="M332.83,-71.72C334.05,-63.89 335.49,-54.59 336.82,-45.99"/>
<polygon fill="black" stroke="black" points="340.29,-46.42 338.37,-36 333.38,-45.35 340.29,-46.42"/>
</g>
<!-- 14 -->
<g id="node15" class="node">
<title>14</title>
<polygon fill="none" stroke="black" points="523.5,-36 424.5,-36 424.5,0 523.5,0 523.5,-36"/>
<text text-anchor="middle" x="474" y="-14.3" font-family="Times,serif" font-size="14.00">class = Canada</text>
</g>
<!-- 13&#45;&gt;14 -->
<g id="edge14" class="edge">
<title>13&#45;&gt;14</title>
<path fill="none" stroke="black" d="M482.17,-71.72C480.95,-63.89 479.51,-54.59 478.18,-45.99"/>
<polygon fill="black" stroke="black" points="481.62,-45.35 476.63,-36 474.71,-46.42 481.62,-45.35"/>
</g>
<!-- 15 -->
<g id="node16" class="node">
<title>15</title>
<polygon fill="none" stroke="black" points="640.5,-36 541.5,-36 541.5,0 640.5,0 640.5,-36"/>
<text text-anchor="middle" x="591" y="-14.3" font-family="Times,serif" font-size="14.00">class = Canada</text>
</g>
<!-- 13&#45;&gt;15 -->
<g id="edge15" class="edge">
<title>13&#45;&gt;15</title>
<path fill="none" stroke="black" d="M512.02,-71.9C525.64,-62.78 542.29,-51.63 556.78,-41.92"/>
<polygon fill="black" stroke="black" points="559.13,-44.56 565.49,-36.09 555.23,-38.75 559.13,-44.56"/>
</g>
</g>
</svg>
