<?xml version="1.0" encoding="UTF-8" standalone="no"?>
<!DOCTYPE svg PUBLIC "-//W3C//DTD SVG 1.1//EN"
 "http://www.w3.org/Graphics/SVG/1.1/DTD/svg11.dtd">
<!-- Generated by graphviz version 2.44.1 (20200629.0846)
 -->
<!-- Title: Tree Pages: 1 -->
<svg width="1950pt" height="636pt"
 viewBox="0.00 0.00 1950.00 636.00" xmlns="http://www.w3.org/2000/svg" xmlns:xlink="http://www.w3.org/1999/xlink">
<g id="graph0" class="graph" transform="scale(1 1) rotate(0) translate(4 632)">
<title>Tree</title>
<polygon fill="white" stroke="transparent" points="-4,4 -4,-632 1946,-632 1946,4 -4,4"/>
<!-- 0 -->
<g id="node1" class="node">
<title>0</title>
<polygon fill="none" stroke="black" points="637,-628 545,-628 545,-590 637,-590 637,-628"/>
<text text-anchor="middle" x="591" y="-612.8" font-family="Times,serif" font-size="14.00">lat &lt;= 37.682</text>
<text text-anchor="middle" x="591" y="-597.8" font-family="Times,serif" font-size="14.00">class = blue</text>
</g>
<!-- 1 -->
<g id="node2" class="node">
<title>1</title>
<polygon fill="none" stroke="black" points="363.5,-554 256.5,-554 256.5,-516 363.5,-516 363.5,-554"/>
<text text-anchor="middle" x="310" y="-538.8" font-family="Times,serif" font-size="14.00">lon &lt;= &#45;114.063</text>
<text text-anchor="middle" x="310" y="-523.8" font-family="Times,serif" font-size="14.00">class = red</text>
</g>
<!-- 0&#45;&gt;1 -->
<g id="edge1" class="edge">
<title>0&#45;&gt;1</title>
<path fill="none" stroke="black" d="M544.91,-596.19C498.25,-584.24 425.73,-565.65 373.61,-552.3"/>
<polygon fill="black" stroke="black" points="374.36,-548.88 363.8,-549.79 372.62,-555.66 374.36,-548.88"/>
<text text-anchor="middle" x="376.54" y="-567.6" font-family="Times,serif" font-size="14.00">True</text>
</g>
<!-- 24 -->
<g id="node25" class="node">
<title>24</title>
<polygon fill="none" stroke="black" points="980,-554 880,-554 880,-516 980,-516 980,-554"/>
<text text-anchor="middle" x="930" y="-538.8" font-family="Times,serif" font-size="14.00">lon &lt;= &#45;96.061</text>
<text text-anchor="middle" x="930" y="-523.8" font-family="Times,serif" font-size="14.00">class = blue</text>
</g>
<!-- 0&#45;&gt;24 -->
<g id="edge24" class="edge">
<title>0&#45;&gt;24</title>
<path fill="none" stroke="black" d="M637.07,-598.21C697.43,-585.4 803.38,-562.89 869.96,-548.75"/>
<polygon fill="black" stroke="black" points="870.84,-552.14 879.89,-546.64 869.38,-545.3 870.84,-552.14"/>
<text text-anchor="middle" x="866.27" y="-563.91" font-family="Times,serif" font-size="14.00">False</text>
</g>
<!-- 2 -->
<g id="node3" class="node">
<title>2</title>
<polygon fill="none" stroke="black" points="246,-479 164,-479 164,-443 246,-443 246,-479"/>
<text text-anchor="middle" x="205" y="-457.3" font-family="Times,serif" font-size="14.00">class = blue</text>
</g>
<!-- 1&#45;&gt;2 -->
<g id="edge2" class="edge">
<title>1&#45;&gt;2</title>
<path fill="none" stroke="black" d="M283.5,-515.83C269.79,-506.43 252.91,-494.86 238.33,-484.85"/>
<polygon fill="black" stroke="black" points="240.27,-481.94 230.04,-479.17 236.31,-487.71 240.27,-481.94"/>
</g>
<!-- 3 -->
<g id="node4" class="node">
<title>3</title>
<polygon fill="none" stroke="black" points="356,-480 264,-480 264,-442 356,-442 356,-480"/>
<text text-anchor="middle" x="310" y="-464.8" font-family="Times,serif" font-size="14.00">lat &lt;= 29.595</text>
<text text-anchor="middle" x="310" y="-449.8" font-family="Times,serif" font-size="14.00">class = red</text>
</g>
<!-- 1&#45;&gt;3 -->
<g id="edge3" class="edge">
<title>1&#45;&gt;3</title>
<path fill="none" stroke="black" d="M310,-515.83C310,-508.13 310,-498.97 310,-490.42"/>
<polygon fill="black" stroke="black" points="313.5,-490.41 310,-480.41 306.5,-490.41 313.5,-490.41"/>
</g>
<!-- 4 -->
<g id="node5" class="node">
<title>4</title>
<polygon fill="none" stroke="black" points="185,-406 85,-406 85,-368 185,-368 185,-406"/>
<text text-anchor="middle" x="135" y="-390.8" font-family="Times,serif" font-size="14.00">lon &lt;= &#45;90.074</text>
<text text-anchor="middle" x="135" y="-375.8" font-family="Times,serif" font-size="14.00">class = blue</text>
</g>
<!-- 3&#45;&gt;4 -->
<g id="edge4" class="edge">
<title>3&#45;&gt;4</title>
<path fill="none" stroke="black" d="M265.84,-441.83C242.23,-432.12 212.98,-420.08 188.13,-409.86"/>
<polygon fill="black" stroke="black" points="189.42,-406.61 178.84,-406.04 186.76,-413.08 189.42,-406.61"/>
</g>
<!-- 7 -->
<g id="node8" class="node">
<title>7</title>
<polygon fill="none" stroke="black" points="356,-406 264,-406 264,-368 356,-368 356,-406"/>
<text text-anchor="middle" x="310" y="-390.8" font-family="Times,serif" font-size="14.00">lat &lt;= 36.522</text>
<text text-anchor="middle" x="310" y="-375.8" font-family="Times,serif" font-size="14.00">class = red</text>
</g>
<!-- 3&#45;&gt;7 -->
<g id="edge7" class="edge">
<title>3&#45;&gt;7</title>
<path fill="none" stroke="black" d="M310,-441.83C310,-434.13 310,-424.97 310,-416.42"/>
<polygon fill="black" stroke="black" points="313.5,-416.41 310,-406.41 306.5,-416.41 313.5,-416.41"/>
</g>
<!-- 5 -->
<g id="node6" class="node">
<title>5</title>
<polygon fill="none" stroke="black" points="76,-331 0,-331 0,-295 76,-295 76,-331"/>
<text text-anchor="middle" x="38" y="-309.3" font-family="Times,serif" font-size="14.00">class = red</text>
</g>
<!-- 4&#45;&gt;5 -->
<g id="edge5" class="edge">
<title>4&#45;&gt;5</title>
<path fill="none" stroke="black" d="M110.52,-367.83C97.97,-358.52 82.55,-347.07 69.16,-337.13"/>
<polygon fill="black" stroke="black" points="71.25,-334.32 61.13,-331.17 67.08,-339.94 71.25,-334.32"/>
</g>
<!-- 6 -->
<g id="node7" class="node">
<title>6</title>
<polygon fill="none" stroke="black" points="176,-331 94,-331 94,-295 176,-295 176,-331"/>
<text text-anchor="middle" x="135" y="-309.3" font-family="Times,serif" font-size="14.00">class = blue</text>
</g>
<!-- 4&#45;&gt;6 -->
<g id="edge6" class="edge">
<title>4&#45;&gt;6</title>
<path fill="none" stroke="black" d="M135,-367.83C135,-359.89 135,-350.41 135,-341.63"/>
<polygon fill="black" stroke="black" points="138.5,-341.42 135,-331.42 131.5,-341.42 138.5,-341.42"/>
</g>
<!-- 8 -->
<g id="node9" class="node">
<title>8</title>
<polygon fill="none" stroke="black" points="301.5,-332 194.5,-332 194.5,-294 301.5,-294 301.5,-332"/>
<text text-anchor="middle" x="248" y="-316.8" font-family="Times,serif" font-size="14.00">lon &lt;= &#45;102.257</text>
<text text-anchor="middle" x="248" y="-301.8" font-family="Times,serif" font-size="14.00">class = red</text>
</g>
<!-- 7&#45;&gt;8 -->
<g id="edge8" class="edge">
<title>7&#45;&gt;8</title>
<path fill="none" stroke="black" d="M294.35,-367.83C287.14,-359.45 278.44,-349.35 270.54,-340.17"/>
<polygon fill="black" stroke="black" points="273.03,-337.71 263.86,-332.41 267.73,-342.27 273.03,-337.71"/>
</g>
<!-- 15 -->
<g id="node16" class="node">
<title>15</title>
<polygon fill="none" stroke="black" points="420,-332 320,-332 320,-294 420,-294 420,-332"/>
<text text-anchor="middle" x="370" y="-316.8" font-family="Times,serif" font-size="14.00">lon &lt;= &#45;82.415</text>
<text text-anchor="middle" x="370" y="-301.8" font-family="Times,serif" font-size="14.00">class = red</text>
</g>
<!-- 7&#45;&gt;15 -->
<g id="edge15" class="edge">
<title>7&#45;&gt;15</title>
<path fill="none" stroke="black" d="M325.14,-367.83C332.12,-359.45 340.54,-349.35 348.19,-340.17"/>
<polygon fill="black" stroke="black" points="350.94,-342.34 354.66,-332.41 345.56,-337.85 350.94,-342.34"/>
</g>
<!-- 9 -->
<g id="node10" class="node">
<title>9</title>
<polygon fill="none" stroke="black" points="191.5,-258 84.5,-258 84.5,-220 191.5,-220 191.5,-258"/>
<text text-anchor="middle" x="138" y="-242.8" font-family="Times,serif" font-size="14.00">lon &lt;= &#45;107.589</text>
<text text-anchor="middle" x="138" y="-227.8" font-family="Times,serif" font-size="14.00">class = red</text>
</g>
<!-- 8&#45;&gt;9 -->
<g id="edge9" class="edge">
<title>8&#45;&gt;9</title>
<path fill="none" stroke="black" d="M220.24,-293.83C206.3,-284.71 189.24,-273.54 174.28,-263.74"/>
<polygon fill="black" stroke="black" points="176.03,-260.71 165.75,-258.16 172.2,-266.57 176.03,-260.71"/>
</g>
<!-- 14 -->
<g id="node15" class="node">
<title>14</title>
<polygon fill="none" stroke="black" points="286,-257 210,-257 210,-221 286,-221 286,-257"/>
<text text-anchor="middle" x="248" y="-235.3" font-family="Times,serif" font-size="14.00">class = red</text>
</g>
<!-- 8&#45;&gt;14 -->
<g id="edge14" class="edge">
<title>8&#45;&gt;14</title>
<path fill="none" stroke="black" d="M248,-293.83C248,-285.89 248,-276.41 248,-267.63"/>
<polygon fill="black" stroke="black" points="251.5,-267.42 248,-257.42 244.5,-267.42 251.5,-267.42"/>
</g>
<!-- 10 -->
<g id="node11" class="node">
<title>10</title>
<polygon fill="none" stroke="black" points="83,-183 7,-183 7,-147 83,-147 83,-183"/>
<text text-anchor="middle" x="45" y="-161.3" font-family="Times,serif" font-size="14.00">class = red</text>
</g>
<!-- 9&#45;&gt;10 -->
<g id="edge10" class="edge">
<title>9&#45;&gt;10</title>
<path fill="none" stroke="black" d="M114.53,-219.83C102.61,-210.6 88,-199.29 75.24,-189.41"/>
<polygon fill="black" stroke="black" points="77.23,-186.53 67.18,-183.17 72.94,-192.06 77.23,-186.53"/>
</g>
<!-- 11 -->
<g id="node12" class="node">
<title>11</title>
<polygon fill="none" stroke="black" points="193,-184 101,-184 101,-146 193,-146 193,-184"/>
<text text-anchor="middle" x="147" y="-168.8" font-family="Times,serif" font-size="14.00">lat &lt;= 31.788</text>
<text text-anchor="middle" x="147" y="-153.8" font-family="Times,serif" font-size="14.00">class = blue</text>
</g>
<!-- 9&#45;&gt;11 -->
<g id="edge11" class="edge">
<title>9&#45;&gt;11</title>
<path fill="none" stroke="black" d="M140.27,-219.83C141.23,-212.13 142.38,-202.97 143.45,-194.42"/>
<polygon fill="black" stroke="black" points="146.93,-194.77 144.7,-184.41 139.98,-193.9 146.93,-194.77"/>
</g>
<!-- 12 -->
<g id="node13" class="node">
<title>12</title>
<polygon fill="none" stroke="black" points="137,-109 61,-109 61,-73 137,-73 137,-109"/>
<text text-anchor="middle" x="99" y="-87.3" font-family="Times,serif" font-size="14.00">class = red</text>
</g>
<!-- 11&#45;&gt;12 -->
<g id="edge12" class="edge">
<title>11&#45;&gt;12</title>
<path fill="none" stroke="black" d="M134.89,-145.83C129.25,-137.37 122.43,-127.15 116.27,-117.9"/>
<polygon fill="black" stroke="black" points="119.07,-115.8 110.61,-109.42 113.25,-119.68 119.07,-115.8"/>
</g>
<!-- 13 -->
<g id="node14" class="node">
<title>13</title>
<polygon fill="none" stroke="black" points="237,-109 155,-109 155,-73 237,-73 237,-109"/>
<text text-anchor="middle" x="196" y="-87.3" font-family="Times,serif" font-size="14.00">class = blue</text>
</g>
<!-- 11&#45;&gt;13 -->
<g id="edge13" class="edge">
<title>11&#45;&gt;13</title>
<path fill="none" stroke="black" d="M159.36,-145.83C165.12,-137.37 172.08,-127.15 178.37,-117.9"/>
<polygon fill="black" stroke="black" points="181.41,-119.65 184.15,-109.42 175.63,-115.72 181.41,-119.65"/>
</g>
<!-- 16 -->
<g id="node17" class="node">
<title>16</title>
<polygon fill="none" stroke="black" points="411.5,-258 304.5,-258 304.5,-220 411.5,-220 411.5,-258"/>
<text text-anchor="middle" x="358" y="-242.8" font-family="Times,serif" font-size="14.00">lon &lt;= &#45;100.922</text>
<text text-anchor="middle" x="358" y="-227.8" font-family="Times,serif" font-size="14.00">class = red</text>
</g>
<!-- 15&#45;&gt;16 -->
<g id="edge16" class="edge">
<title>15&#45;&gt;16</title>
<path fill="none" stroke="black" d="M366.97,-293.83C365.69,-286.13 364.16,-276.97 362.74,-268.42"/>
<polygon fill="black" stroke="black" points="366.17,-267.7 361.07,-258.41 359.26,-268.85 366.17,-267.7"/>
</g>
<!-- 19 -->
<g id="node20" class="node">
<title>19</title>
<polygon fill="none" stroke="black" points="530,-258 430,-258 430,-220 530,-220 530,-258"/>
<text text-anchor="middle" x="480" y="-242.8" font-family="Times,serif" font-size="14.00">lon &lt;= &#45;80.706</text>
<text text-anchor="middle" x="480" y="-227.8" font-family="Times,serif" font-size="14.00">class = blue</text>
</g>
<!-- 15&#45;&gt;19 -->
<g id="edge19" class="edge">
<title>15&#45;&gt;19</title>
<path fill="none" stroke="black" d="M397.76,-293.83C411.7,-284.71 428.76,-273.54 443.72,-263.74"/>
<polygon fill="black" stroke="black" points="445.8,-266.57 452.25,-258.16 441.97,-260.71 445.8,-266.57"/>
</g>
<!-- 17 -->
<g id="node18" class="node">
<title>17</title>
<polygon fill="none" stroke="black" points="302,-183 220,-183 220,-147 302,-147 302,-183"/>
<text text-anchor="middle" x="261" y="-161.3" font-family="Times,serif" font-size="14.00">class = blue</text>
</g>
<!-- 16&#45;&gt;17 -->
<g id="edge17" class="edge">
<title>16&#45;&gt;17</title>
<path fill="none" stroke="black" d="M333.52,-219.83C320.97,-210.52 305.55,-199.07 292.16,-189.13"/>
<polygon fill="black" stroke="black" points="294.25,-186.32 284.13,-183.17 290.08,-191.94 294.25,-186.32"/>
</g>
<!-- 18 -->
<g id="node19" class="node">
<title>18</title>
<polygon fill="none" stroke="black" points="396,-183 320,-183 320,-147 396,-147 396,-183"/>
<text text-anchor="middle" x="358" y="-161.3" font-family="Times,serif" font-size="14.00">class = red</text>
</g>
<!-- 16&#45;&gt;18 -->
<g id="edge18" class="edge">
<title>16&#45;&gt;18</title>
<path fill="none" stroke="black" d="M358,-219.83C358,-211.89 358,-202.41 358,-193.63"/>
<polygon fill="black" stroke="black" points="361.5,-193.42 358,-183.42 354.5,-193.42 361.5,-193.42"/>
</g>
<!-- 20 -->
<g id="node21" class="node">
<title>20</title>
<polygon fill="none" stroke="black" points="499.5,-184 414.5,-184 414.5,-146 499.5,-146 499.5,-184"/>
<text text-anchor="middle" x="457" y="-168.8" font-family="Times,serif" font-size="14.00">lat &lt;= 37.15</text>
<text text-anchor="middle" x="457" y="-153.8" font-family="Times,serif" font-size="14.00">class = blue</text>
</g>
<!-- 19&#45;&gt;20 -->
<g id="edge20" class="edge">
<title>19&#45;&gt;20</title>
<path fill="none" stroke="black" d="M474.2,-219.83C471.71,-212.05 468.75,-202.77 465.99,-194.13"/>
<polygon fill="black" stroke="black" points="469.26,-192.87 462.88,-184.41 462.59,-195 469.26,-192.87"/>
</g>
<!-- 23 -->
<g id="node24" class="node">
<title>23</title>
<polygon fill="none" stroke="black" points="600,-183 518,-183 518,-147 600,-147 600,-183"/>
<text text-anchor="middle" x="559" y="-161.3" font-family="Times,serif" font-size="14.00">class = blue</text>
</g>
<!-- 19&#45;&gt;23 -->
<g id="edge23" class="edge">
<title>19&#45;&gt;23</title>
<path fill="none" stroke="black" d="M499.94,-219.83C509.87,-210.78 522,-199.72 532.69,-189.98"/>
<polygon fill="black" stroke="black" points="535.13,-192.49 540.16,-183.17 530.41,-187.32 535.13,-192.49"/>
</g>
<!-- 21 -->
<g id="node22" class="node">
<title>21</title>
<polygon fill="none" stroke="black" points="450,-109 368,-109 368,-73 450,-73 450,-109"/>
<text text-anchor="middle" x="409" y="-87.3" font-family="Times,serif" font-size="14.00">class = blue</text>
</g>
<!-- 20&#45;&gt;21 -->
<g id="edge21" class="edge">
<title>20&#45;&gt;21</title>
<path fill="none" stroke="black" d="M444.89,-145.83C439.25,-137.37 432.43,-127.15 426.27,-117.9"/>
<polygon fill="black" stroke="black" points="429.07,-115.8 420.61,-109.42 423.25,-119.68 429.07,-115.8"/>
</g>
<!-- 22 -->
<g id="node23" class="node">
<title>22</title>
<polygon fill="none" stroke="black" points="544,-109 468,-109 468,-73 544,-73 544,-109"/>
<text text-anchor="middle" x="506" y="-87.3" font-family="Times,serif" font-size="14.00">class = red</text>
</g>
<!-- 20&#45;&gt;22 -->
<g id="edge22" class="edge">
<title>20&#45;&gt;22</title>
<path fill="none" stroke="black" d="M469.36,-145.83C475.12,-137.37 482.08,-127.15 488.37,-117.9"/>
<polygon fill="black" stroke="black" points="491.41,-119.65 494.15,-109.42 485.63,-115.72 491.41,-119.65"/>
</g>
<!-- 25 -->
<g id="node26" class="node">
<title>25</title>
<polygon fill="none" stroke="black" points="983.5,-480 876.5,-480 876.5,-442 983.5,-442 983.5,-480"/>
<text text-anchor="middle" x="930" y="-464.8" font-family="Times,serif" font-size="14.00">lon &lt;= &#45;104.089</text>
<text text-anchor="middle" x="930" y="-449.8" font-family="Times,serif" font-size="14.00">class = red</text>
</g>
<!-- 24&#45;&gt;25 -->
<g id="edge25" class="edge">
<title>24&#45;&gt;25</title>
<path fill="none" stroke="black" d="M930,-515.83C930,-508.13 930,-498.97 930,-490.42"/>
<polygon fill="black" stroke="black" points="933.5,-490.41 930,-480.41 926.5,-490.41 933.5,-490.41"/>
</g>
<!-- 42 -->
<g id="node43" class="node">
<title>42</title>
<polygon fill="none" stroke="black" points="1552,-480 1460,-480 1460,-442 1552,-442 1552,-480"/>
<text text-anchor="middle" x="1506" y="-464.8" font-family="Times,serif" font-size="14.00">lat &lt;= 39.759</text>
<text text-anchor="middle" x="1506" y="-449.8" font-family="Times,serif" font-size="14.00">class = blue</text>
</g>
<!-- 24&#45;&gt;42 -->
<g id="edge42" class="edge">
<title>24&#45;&gt;42</title>
<path fill="none" stroke="black" d="M980.11,-527.74C1087.07,-514.37 1337.13,-483.11 1449.53,-469.06"/>
<polygon fill="black" stroke="black" points="1450.15,-472.51 1459.64,-467.79 1449.29,-465.56 1450.15,-472.51"/>
</g>
<!-- 26 -->
<g id="node27" class="node">
<title>26</title>
<polygon fill="none" stroke="black" points="919,-406 827,-406 827,-368 919,-368 919,-406"/>
<text text-anchor="middle" x="873" y="-390.8" font-family="Times,serif" font-size="14.00">lat &lt;= 41.895</text>
<text text-anchor="middle" x="873" y="-375.8" font-family="Times,serif" font-size="14.00">class = blue</text>
</g>
<!-- 25&#45;&gt;26 -->
<g id="edge26" class="edge">
<title>25&#45;&gt;26</title>
<path fill="none" stroke="black" d="M915.62,-441.83C909.05,-433.54 901.15,-423.56 893.94,-414.45"/>
<polygon fill="black" stroke="black" points="896.53,-412.08 887.58,-406.41 891.04,-416.43 896.53,-412.08"/>
</g>
<!-- 37 -->
<g id="node38" class="node">
<title>37</title>
<polygon fill="none" stroke="black" points="1037,-406 937,-406 937,-368 1037,-368 1037,-406"/>
<text text-anchor="middle" x="987" y="-390.8" font-family="Times,serif" font-size="14.00">lon &lt;= &#45;96.557</text>
<text text-anchor="middle" x="987" y="-375.8" font-family="Times,serif" font-size="14.00">class = red</text>
</g>
<!-- 25&#45;&gt;37 -->
<g id="edge37" class="edge">
<title>25&#45;&gt;37</title>
<path fill="none" stroke="black" d="M944.38,-441.83C950.95,-433.54 958.85,-423.56 966.06,-414.45"/>
<polygon fill="black" stroke="black" points="968.96,-416.43 972.42,-406.41 963.47,-412.08 968.96,-416.43"/>
</g>
<!-- 27 -->
<g id="node28" class="node">
<title>27</title>
<polygon fill="none" stroke="black" points="813.5,-332 728.5,-332 728.5,-294 813.5,-294 813.5,-332"/>
<text text-anchor="middle" x="771" y="-316.8" font-family="Times,serif" font-size="14.00">lat &lt;= 38.44</text>
<text text-anchor="middle" x="771" y="-301.8" font-family="Times,serif" font-size="14.00">class = blue</text>
</g>
<!-- 26&#45;&gt;27 -->
<g id="edge27" class="edge">
<title>26&#45;&gt;27</title>
<path fill="none" stroke="black" d="M847.26,-367.83C834.46,-358.79 818.81,-347.75 805.03,-338.02"/>
<polygon fill="black" stroke="black" points="806.92,-335.07 796.73,-332.16 802.88,-340.79 806.92,-335.07"/>
</g>
<!-- 32 -->
<g id="node33" class="node">
<title>32</title>
<polygon fill="none" stroke="black" points="916.5,-332 831.5,-332 831.5,-294 916.5,-294 916.5,-332"/>
<text text-anchor="middle" x="874" y="-316.8" font-family="Times,serif" font-size="14.00">lat &lt;= 45.33</text>
<text text-anchor="middle" x="874" y="-301.8" font-family="Times,serif" font-size="14.00">class = red</text>
</g>
<!-- 26&#45;&gt;32 -->
<g id="edge32" class="edge">
<title>26&#45;&gt;32</title>
<path fill="none" stroke="black" d="M873.25,-367.83C873.36,-360.13 873.49,-350.97 873.61,-342.42"/>
<polygon fill="black" stroke="black" points="877.1,-342.46 873.74,-332.41 870.11,-342.36 877.1,-342.46"/>
</g>
<!-- 28 -->
<g id="node29" class="node">
<title>28</title>
<polygon fill="none" stroke="black" points="712.5,-258 605.5,-258 605.5,-220 712.5,-220 712.5,-258"/>
<text text-anchor="middle" x="659" y="-242.8" font-family="Times,serif" font-size="14.00">lon &lt;= &#45;115.526</text>
<text text-anchor="middle" x="659" y="-227.8" font-family="Times,serif" font-size="14.00">class = blue</text>
</g>
<!-- 27&#45;&gt;28 -->
<g id="edge28" class="edge">
<title>27&#45;&gt;28</title>
<path fill="none" stroke="black" d="M742.74,-293.83C728.54,-284.71 711.17,-273.54 695.94,-263.74"/>
<polygon fill="black" stroke="black" points="697.56,-260.63 687.25,-258.16 693.77,-266.51 697.56,-260.63"/>
</g>
<!-- 31 -->
<g id="node32" class="node">
<title>31</title>
<polygon fill="none" stroke="black" points="813,-257 731,-257 731,-221 813,-221 813,-257"/>
<text text-anchor="middle" x="772" y="-235.3" font-family="Times,serif" font-size="14.00">class = blue</text>
</g>
<!-- 27&#45;&gt;31 -->
<g id="edge31" class="edge">
<title>27&#45;&gt;31</title>
<path fill="none" stroke="black" d="M771.25,-293.83C771.36,-285.89 771.49,-276.41 771.62,-267.63"/>
<polygon fill="black" stroke="black" points="775.12,-267.47 771.76,-257.42 768.12,-267.37 775.12,-267.47"/>
</g>
<!-- 29 -->
<g id="node30" class="node">
<title>29</title>
<polygon fill="none" stroke="black" points="700,-183 618,-183 618,-147 700,-147 700,-183"/>
<text text-anchor="middle" x="659" y="-161.3" font-family="Times,serif" font-size="14.00">class = blue</text>
</g>
<!-- 28&#45;&gt;29 -->
<g id="edge29" class="edge">
<title>28&#45;&gt;29</title>
<path fill="none" stroke="black" d="M659,-219.83C659,-211.89 659,-202.41 659,-193.63"/>
<polygon fill="black" stroke="black" points="662.5,-193.42 659,-183.42 655.5,-193.42 662.5,-193.42"/>
</g>
<!-- 30 -->
<g id="node31" class="node">
<title>30</title>
<polygon fill="none" stroke="black" points="794,-183 718,-183 718,-147 794,-147 794,-183"/>
<text text-anchor="middle" x="756" y="-161.3" font-family="Times,serif" font-size="14.00">class = red</text>
</g>
<!-- 28&#45;&gt;30 -->
<g id="edge30" class="edge">
<title>28&#45;&gt;30</title>
<path fill="none" stroke="black" d="M683.48,-219.83C696.03,-210.52 711.45,-199.07 724.84,-189.13"/>
<polygon fill="black" stroke="black" points="726.92,-191.94 732.87,-183.17 722.75,-186.32 726.92,-191.94"/>
</g>
<!-- 33 -->
<g id="node34" class="node">
<title>33</title>
<polygon fill="none" stroke="black" points="907,-257 831,-257 831,-221 907,-221 907,-257"/>
<text text-anchor="middle" x="869" y="-235.3" font-family="Times,serif" font-size="14.00">class = red</text>
</g>
<!-- 32&#45;&gt;33 -->
<g id="edge33" class="edge">
<title>32&#45;&gt;33</title>
<path fill="none" stroke="black" d="M872.74,-293.83C872.19,-285.89 871.53,-276.41 870.92,-267.63"/>
<polygon fill="black" stroke="black" points="874.39,-267.15 870.21,-257.42 867.41,-267.64 874.39,-267.15"/>
</g>
<!-- 34 -->
<g id="node35" class="node">
<title>34</title>
<polygon fill="none" stroke="black" points="1032.5,-258 925.5,-258 925.5,-220 1032.5,-220 1032.5,-258"/>
<text text-anchor="middle" x="979" y="-242.8" font-family="Times,serif" font-size="14.00">lon &lt;= &#45;133.954</text>
<text text-anchor="middle" x="979" y="-227.8" font-family="Times,serif" font-size="14.00">class = blue</text>
</g>
<!-- 32&#45;&gt;34 -->
<g id="edge34" class="edge">
<title>32&#45;&gt;34</title>
<path fill="none" stroke="black" d="M900.5,-293.83C913.68,-284.79 929.78,-273.75 943.97,-264.02"/>
<polygon fill="black" stroke="black" points="946.24,-266.7 952.51,-258.16 942.29,-260.93 946.24,-266.7"/>
</g>
<!-- 35 -->
<g id="node36" class="node">
<title>35</title>
<polygon fill="none" stroke="black" points="987,-183 911,-183 911,-147 987,-147 987,-183"/>
<text text-anchor="middle" x="949" y="-161.3" font-family="Times,serif" font-size="14.00">class = red</text>
</g>
<!-- 34&#45;&gt;35 -->
<g id="edge35" class="edge">
<title>34&#45;&gt;35</title>
<path fill="none" stroke="black" d="M971.43,-219.83C968.01,-211.63 963.91,-201.78 960.15,-192.76"/>
<polygon fill="black" stroke="black" points="963.33,-191.3 956.26,-183.42 956.87,-193.99 963.33,-191.3"/>
</g>
<!-- 36 -->
<g id="node37" class="node">
<title>36</title>
<polygon fill="none" stroke="black" points="1087,-183 1005,-183 1005,-147 1087,-147 1087,-183"/>
<text text-anchor="middle" x="1046" y="-161.3" font-family="Times,serif" font-size="14.00">class = blue</text>
</g>
<!-- 34&#45;&gt;36 -->
<g id="edge36" class="edge">
<title>34&#45;&gt;36</title>
<path fill="none" stroke="black" d="M995.91,-219.83C1004.1,-211.02 1014.08,-200.31 1022.96,-190.76"/>
<polygon fill="black" stroke="black" points="1025.54,-193.12 1029.79,-183.42 1020.42,-188.35 1025.54,-193.12"/>
</g>
<!-- 38 -->
<g id="node39" class="node">
<title>38</title>
<polygon fill="none" stroke="black" points="1025,-331 949,-331 949,-295 1025,-295 1025,-331"/>
<text text-anchor="middle" x="987" y="-309.3" font-family="Times,serif" font-size="14.00">class = red</text>
</g>
<!-- 37&#45;&gt;38 -->
<g id="edge38" class="edge">
<title>37&#45;&gt;38</title>
<path fill="none" stroke="black" d="M987,-367.83C987,-359.89 987,-350.41 987,-341.63"/>
<polygon fill="black" stroke="black" points="990.5,-341.42 987,-331.42 983.5,-341.42 990.5,-341.42"/>
</g>
<!-- 39 -->
<g id="node40" class="node">
<title>39</title>
<polygon fill="none" stroke="black" points="1135,-332 1043,-332 1043,-294 1135,-294 1135,-332"/>
<text text-anchor="middle" x="1089" y="-316.8" font-family="Times,serif" font-size="14.00">lat &lt;= 42.007</text>
<text text-anchor="middle" x="1089" y="-301.8" font-family="Times,serif" font-size="14.00">class = blue</text>
</g>
<!-- 37&#45;&gt;39 -->
<g id="edge39" class="edge">
<title>37&#45;&gt;39</title>
<path fill="none" stroke="black" d="M1012.74,-367.83C1025.54,-358.79 1041.19,-347.75 1054.97,-338.02"/>
<polygon fill="black" stroke="black" points="1057.12,-340.79 1063.27,-332.16 1053.08,-335.07 1057.12,-340.79"/>
</g>
<!-- 40 -->
<g id="node41" class="node">
<title>40</title>
<polygon fill="none" stroke="black" points="1127,-257 1051,-257 1051,-221 1127,-221 1127,-257"/>
<text text-anchor="middle" x="1089" y="-235.3" font-family="Times,serif" font-size="14.00">class = red</text>
</g>
<!-- 39&#45;&gt;40 -->
<g id="edge40" class="edge">
<title>39&#45;&gt;40</title>
<path fill="none" stroke="black" d="M1089,-293.83C1089,-285.89 1089,-276.41 1089,-267.63"/>
<polygon fill="black" stroke="black" points="1092.5,-267.42 1089,-257.42 1085.5,-267.42 1092.5,-267.42"/>
</g>
<!-- 41 -->
<g id="node42" class="node">
<title>41</title>
<polygon fill="none" stroke="black" points="1227,-257 1145,-257 1145,-221 1227,-221 1227,-257"/>
<text text-anchor="middle" x="1186" y="-235.3" font-family="Times,serif" font-size="14.00">class = blue</text>
</g>
<!-- 39&#45;&gt;41 -->
<g id="edge41" class="edge">
<title>39&#45;&gt;41</title>
<path fill="none" stroke="black" d="M1113.48,-293.83C1126.03,-284.52 1141.45,-273.07 1154.84,-263.13"/>
<polygon fill="black" stroke="black" points="1156.92,-265.94 1162.87,-257.17 1152.75,-260.32 1156.92,-265.94"/>
</g>
<!-- 43 -->
<g id="node44" class="node">
<title>43</title>
<polygon fill="none" stroke="black" points="1556,-406 1456,-406 1456,-368 1556,-368 1556,-406"/>
<text text-anchor="middle" x="1506" y="-390.8" font-family="Times,serif" font-size="14.00">lon &lt;= &#45;79.773</text>
<text text-anchor="middle" x="1506" y="-375.8" font-family="Times,serif" font-size="14.00">class = blue</text>
</g>
<!-- 42&#45;&gt;43 -->
<g id="edge43" class="edge">
<title>42&#45;&gt;43</title>
<path fill="none" stroke="black" d="M1506,-441.83C1506,-434.13 1506,-424.97 1506,-416.42"/>
<polygon fill="black" stroke="black" points="1509.5,-416.41 1506,-406.41 1502.5,-416.41 1509.5,-416.41"/>
</g>
<!-- 62 -->
<g id="node63" class="node">
<title>62</title>
<polygon fill="none" stroke="black" points="1842,-406 1742,-406 1742,-368 1842,-368 1842,-406"/>
<text text-anchor="middle" x="1792" y="-390.8" font-family="Times,serif" font-size="14.00">lon &lt;= &#45;84.905</text>
<text text-anchor="middle" x="1792" y="-375.8" font-family="Times,serif" font-size="14.00">class = blue</text>
</g>
<!-- 42&#45;&gt;62 -->
<g id="edge62" class="edge">
<title>42&#45;&gt;62</title>
<path fill="none" stroke="black" d="M1552.27,-448.35C1601.23,-436.02 1678.68,-416.53 1732.24,-403.04"/>
<polygon fill="black" stroke="black" points="1733.11,-406.44 1741.95,-400.6 1731.4,-399.65 1733.11,-406.44"/>
</g>
<!-- 44 -->
<g id="node45" class="node">
<title>44</title>
<polygon fill="none" stroke="black" points="1488,-332 1388,-332 1388,-294 1488,-294 1488,-332"/>
<text text-anchor="middle" x="1438" y="-316.8" font-family="Times,serif" font-size="14.00">lon &lt;= &#45;87.643</text>
<text text-anchor="middle" x="1438" y="-301.8" font-family="Times,serif" font-size="14.00">class = red</text>
</g>
<!-- 43&#45;&gt;44 -->
<g id="edge44" class="edge">
<title>43&#45;&gt;44</title>
<path fill="none" stroke="black" d="M1488.84,-367.83C1480.85,-359.37 1471.2,-349.15 1462.46,-339.9"/>
<polygon fill="black" stroke="black" points="1464.8,-337.28 1455.39,-332.41 1459.71,-342.09 1464.8,-337.28"/>
</g>
<!-- 57 -->
<g id="node58" class="node">
<title>57</title>
<polygon fill="none" stroke="black" points="1624,-332 1524,-332 1524,-294 1624,-294 1624,-332"/>
<text text-anchor="middle" x="1574" y="-316.8" font-family="Times,serif" font-size="14.00">lon &lt;= &#45;78.395</text>
<text text-anchor="middle" x="1574" y="-301.8" font-family="Times,serif" font-size="14.00">class = blue</text>
</g>
<!-- 43&#45;&gt;57 -->
<g id="edge57" class="edge">
<title>43&#45;&gt;57</title>
<path fill="none" stroke="black" d="M1523.16,-367.83C1531.15,-359.37 1540.8,-349.15 1549.54,-339.9"/>
<polygon fill="black" stroke="black" points="1552.29,-342.09 1556.61,-332.41 1547.2,-337.28 1552.29,-342.09"/>
</g>
<!-- 45 -->
<g id="node46" class="node">
<title>45</title>
<polygon fill="none" stroke="black" points="1338.5,-258 1245.5,-258 1245.5,-220 1338.5,-220 1338.5,-258"/>
<text text-anchor="middle" x="1292" y="-242.8" font-family="Times,serif" font-size="14.00">lon &lt;= &#45;90.12</text>
<text text-anchor="middle" x="1292" y="-227.8" font-family="Times,serif" font-size="14.00">class = blue</text>
</g>
<!-- 44&#45;&gt;45 -->
<g id="edge45" class="edge">
<title>44&#45;&gt;45</title>
<path fill="none" stroke="black" d="M1401.16,-293.83C1381.89,-284.33 1358.13,-272.61 1337.7,-262.54"/>
<polygon fill="black" stroke="black" points="1339.09,-259.32 1328.58,-258.04 1336,-265.6 1339.09,-259.32"/>
</g>
<!-- 52 -->
<g id="node53" class="node">
<title>52</title>
<polygon fill="none" stroke="black" points="1484,-258 1392,-258 1392,-220 1484,-220 1484,-258"/>
<text text-anchor="middle" x="1438" y="-242.8" font-family="Times,serif" font-size="14.00">lat &lt;= 38.562</text>
<text text-anchor="middle" x="1438" y="-227.8" font-family="Times,serif" font-size="14.00">class = red</text>
</g>
<!-- 44&#45;&gt;52 -->
<g id="edge52" class="edge">
<title>44&#45;&gt;52</title>
<path fill="none" stroke="black" d="M1438,-293.83C1438,-286.13 1438,-276.97 1438,-268.42"/>
<polygon fill="black" stroke="black" points="1441.5,-268.41 1438,-258.41 1434.5,-268.41 1441.5,-268.41"/>
</g>
<!-- 46 -->
<g id="node47" class="node">
<title>46</title>
<polygon fill="none" stroke="black" points="1215,-184 1115,-184 1115,-146 1215,-146 1215,-184"/>
<text text-anchor="middle" x="1165" y="-168.8" font-family="Times,serif" font-size="14.00">lon &lt;= &#45;90.841</text>
<text text-anchor="middle" x="1165" y="-153.8" font-family="Times,serif" font-size="14.00">class = red</text>
</g>
<!-- 45&#45;&gt;46 -->
<g id="edge46" class="edge">
<title>45&#45;&gt;46</title>
<path fill="none" stroke="black" d="M1259.95,-219.83C1243.56,-210.54 1223.42,-199.12 1205.92,-189.2"/>
<polygon fill="black" stroke="black" points="1207.46,-186.05 1197.04,-184.16 1204.01,-192.14 1207.46,-186.05"/>
</g>
<!-- 51 -->
<g id="node52" class="node">
<title>51</title>
<polygon fill="none" stroke="black" points="1315,-183 1233,-183 1233,-147 1315,-147 1315,-183"/>
<text text-anchor="middle" x="1274" y="-161.3" font-family="Times,serif" font-size="14.00">class = blue</text>
</g>
<!-- 45&#45;&gt;51 -->
<g id="edge51" class="edge">
<title>45&#45;&gt;51</title>
<path fill="none" stroke="black" d="M1287.46,-219.83C1285.45,-211.81 1283.05,-202.2 1280.83,-193.34"/>
<polygon fill="black" stroke="black" points="1284.18,-192.27 1278.35,-183.42 1277.38,-193.97 1284.18,-192.27"/>
</g>
<!-- 47 -->
<g id="node48" class="node">
<title>47</title>
<polygon fill="none" stroke="black" points="1150,-109 1074,-109 1074,-73 1150,-73 1150,-109"/>
<text text-anchor="middle" x="1112" y="-87.3" font-family="Times,serif" font-size="14.00">class = red</text>
</g>
<!-- 46&#45;&gt;47 -->
<g id="edge47" class="edge">
<title>46&#45;&gt;47</title>
<path fill="none" stroke="black" d="M1151.63,-145.83C1145.33,-137.28 1137.72,-126.94 1130.86,-117.62"/>
<polygon fill="black" stroke="black" points="1133.57,-115.4 1124.82,-109.42 1127.93,-119.55 1133.57,-115.4"/>
</g>
<!-- 48 -->
<g id="node49" class="node">
<title>48</title>
<polygon fill="none" stroke="black" points="1268,-110 1168,-110 1168,-72 1268,-72 1268,-110"/>
<text text-anchor="middle" x="1218" y="-94.8" font-family="Times,serif" font-size="14.00">lon &lt;= &#45;90.327</text>
<text text-anchor="middle" x="1218" y="-79.8" font-family="Times,serif" font-size="14.00">class = blue</text>
</g>
<!-- 46&#45;&gt;48 -->
<g id="edge48" class="edge">
<title>46&#45;&gt;48</title>
<path fill="none" stroke="black" d="M1178.37,-145.83C1184.42,-137.62 1191.68,-127.76 1198.32,-118.73"/>
<polygon fill="black" stroke="black" points="1201.34,-120.54 1204.45,-110.41 1195.7,-116.39 1201.34,-120.54"/>
</g>
<!-- 49 -->
<g id="node50" class="node">
<title>49</title>
<polygon fill="none" stroke="black" points="1211,-36 1129,-36 1129,0 1211,0 1211,-36"/>
<text text-anchor="middle" x="1170" y="-14.3" font-family="Times,serif" font-size="14.00">class = blue</text>
</g>
<!-- 48&#45;&gt;49 -->
<g id="edge49" class="edge">
<title>48&#45;&gt;49</title>
<path fill="none" stroke="black" d="M1205.64,-71.72C1200,-63.37 1193.22,-53.35 1187.1,-44.3"/>
<polygon fill="black" stroke="black" points="1190,-42.33 1181.5,-36 1184.2,-46.25 1190,-42.33"/>
</g>
<!-- 50 -->
<g id="node51" class="node">
<title>50</title>
<polygon fill="none" stroke="black" points="1305,-36 1229,-36 1229,0 1305,0 1305,-36"/>
<text text-anchor="middle" x="1267" y="-14.3" font-family="Times,serif" font-size="14.00">class = red</text>
</g>
<!-- 48&#45;&gt;50 -->
<g id="edge50" class="edge">
<title>48&#45;&gt;50</title>
<path fill="none" stroke="black" d="M1230.62,-71.72C1236.38,-63.37 1243.29,-53.35 1249.54,-44.3"/>
<polygon fill="black" stroke="black" points="1252.47,-46.22 1255.27,-36 1246.7,-42.25 1252.47,-46.22"/>
</g>
<!-- 53 -->
<g id="node54" class="node">
<title>53</title>
<polygon fill="none" stroke="black" points="1425,-184 1333,-184 1333,-146 1425,-146 1425,-184"/>
<text text-anchor="middle" x="1379" y="-168.8" font-family="Times,serif" font-size="14.00">lat &lt;= 38.324</text>
<text text-anchor="middle" x="1379" y="-153.8" font-family="Times,serif" font-size="14.00">class = red</text>
</g>
<!-- 52&#45;&gt;53 -->
<g id="edge53" class="edge">
<title>52&#45;&gt;53</title>
<path fill="none" stroke="black" d="M1423.11,-219.83C1416.25,-211.45 1407.97,-201.35 1400.45,-192.17"/>
<polygon fill="black" stroke="black" points="1403.13,-189.93 1394.09,-184.41 1397.72,-194.37 1403.13,-189.93"/>
</g>
<!-- 56 -->
<g id="node57" class="node">
<title>56</title>
<polygon fill="none" stroke="black" points="1519,-183 1443,-183 1443,-147 1519,-147 1519,-183"/>
<text text-anchor="middle" x="1481" y="-161.3" font-family="Times,serif" font-size="14.00">class = red</text>
</g>
<!-- 52&#45;&gt;56 -->
<g id="edge56" class="edge">
<title>52&#45;&gt;56</title>
<path fill="none" stroke="black" d="M1448.85,-219.83C1453.85,-211.46 1459.88,-201.36 1465.36,-192.19"/>
<polygon fill="black" stroke="black" points="1468.48,-193.8 1470.6,-183.42 1462.47,-190.21 1468.48,-193.8"/>
</g>
<!-- 54 -->
<g id="node55" class="node">
<title>54</title>
<polygon fill="none" stroke="black" points="1416,-109 1340,-109 1340,-73 1416,-73 1416,-109"/>
<text text-anchor="middle" x="1378" y="-87.3" font-family="Times,serif" font-size="14.00">class = red</text>
</g>
<!-- 53&#45;&gt;54 -->
<g id="edge54" class="edge">
<title>53&#45;&gt;54</title>
<path fill="none" stroke="black" d="M1378.75,-145.83C1378.64,-137.89 1378.51,-128.41 1378.38,-119.63"/>
<polygon fill="black" stroke="black" points="1381.88,-119.37 1378.24,-109.42 1374.88,-119.47 1381.88,-119.37"/>
</g>
<!-- 55 -->
<g id="node56" class="node">
<title>55</title>
<polygon fill="none" stroke="black" points="1516,-109 1434,-109 1434,-73 1516,-73 1516,-109"/>
<text text-anchor="middle" x="1475" y="-87.3" font-family="Times,serif" font-size="14.00">class = blue</text>
</g>
<!-- 53&#45;&gt;55 -->
<g id="edge55" class="edge">
<title>53&#45;&gt;55</title>
<path fill="none" stroke="black" d="M1403.22,-145.83C1415.53,-136.6 1430.62,-125.29 1443.78,-115.41"/>
<polygon fill="black" stroke="black" points="1446.2,-117.97 1452.1,-109.17 1442,-112.37 1446.2,-117.97"/>
</g>
<!-- 58 -->
<g id="node59" class="node">
<title>58</title>
<polygon fill="none" stroke="black" points="1624,-258 1524,-258 1524,-220 1624,-220 1624,-258"/>
<text text-anchor="middle" x="1574" y="-242.8" font-family="Times,serif" font-size="14.00">lon &lt;= &#45;78.878</text>
<text text-anchor="middle" x="1574" y="-227.8" font-family="Times,serif" font-size="14.00">class = blue</text>
</g>
<!-- 57&#45;&gt;58 -->
<g id="edge58" class="edge">
<title>57&#45;&gt;58</title>
<path fill="none" stroke="black" d="M1574,-293.83C1574,-286.13 1574,-276.97 1574,-268.42"/>
<polygon fill="black" stroke="black" points="1577.5,-268.41 1574,-258.41 1570.5,-268.41 1577.5,-268.41"/>
</g>
<!-- 61 -->
<g id="node62" class="node">
<title>61</title>
<polygon fill="none" stroke="black" points="1724,-257 1642,-257 1642,-221 1724,-221 1724,-257"/>
<text text-anchor="middle" x="1683" y="-235.3" font-family="Times,serif" font-size="14.00">class = blue</text>
</g>
<!-- 57&#45;&gt;61 -->
<g id="edge61" class="edge">
<title>57&#45;&gt;61</title>
<path fill="none" stroke="black" d="M1601.51,-293.83C1615.74,-284.43 1633.26,-272.86 1648.41,-262.85"/>
<polygon fill="black" stroke="black" points="1650.59,-265.6 1657,-257.17 1646.73,-259.76 1650.59,-265.6"/>
</g>
<!-- 59 -->
<g id="node60" class="node">
<title>59</title>
<polygon fill="none" stroke="black" points="1619,-183 1537,-183 1537,-147 1619,-147 1619,-183"/>
<text text-anchor="middle" x="1578" y="-161.3" font-family="Times,serif" font-size="14.00">class = blue</text>
</g>
<!-- 58&#45;&gt;59 -->
<g id="edge59" class="edge">
<title>58&#45;&gt;59</title>
<path fill="none" stroke="black" d="M1575.01,-219.83C1575.45,-211.89 1575.98,-202.41 1576.47,-193.63"/>
<polygon fill="black" stroke="black" points="1579.97,-193.6 1577.03,-183.42 1572.98,-193.21 1579.97,-193.6"/>
</g>
<!-- 60 -->
<g id="node61" class="node">
<title>60</title>
<polygon fill="none" stroke="black" points="1713,-183 1637,-183 1637,-147 1713,-147 1713,-183"/>
<text text-anchor="middle" x="1675" y="-161.3" font-family="Times,serif" font-size="14.00">class = red</text>
</g>
<!-- 58&#45;&gt;60 -->
<g id="edge60" class="edge">
<title>58&#45;&gt;60</title>
<path fill="none" stroke="black" d="M1599.49,-219.83C1612.55,-210.52 1628.61,-199.07 1642.55,-189.13"/>
<polygon fill="black" stroke="black" points="1644.8,-191.83 1650.91,-183.17 1640.74,-186.13 1644.8,-191.83"/>
</g>
<!-- 63 -->
<g id="node64" class="node">
<title>63</title>
<polygon fill="none" stroke="black" points="1838,-332 1746,-332 1746,-294 1838,-294 1838,-332"/>
<text text-anchor="middle" x="1792" y="-316.8" font-family="Times,serif" font-size="14.00">lat &lt;= 41.739</text>
<text text-anchor="middle" x="1792" y="-301.8" font-family="Times,serif" font-size="14.00">class = blue</text>
</g>
<!-- 62&#45;&gt;63 -->
<g id="edge63" class="edge">
<title>62&#45;&gt;63</title>
<path fill="none" stroke="black" d="M1792,-367.83C1792,-360.13 1792,-350.97 1792,-342.42"/>
<polygon fill="black" stroke="black" points="1795.5,-342.41 1792,-332.41 1788.5,-342.41 1795.5,-342.41"/>
</g>
<!-- 72 -->
<g id="node73" class="node">
<title>72</title>
<polygon fill="none" stroke="black" points="1938,-331 1856,-331 1856,-295 1938,-295 1938,-331"/>
<text text-anchor="middle" x="1897" y="-309.3" font-family="Times,serif" font-size="14.00">class = blue</text>
</g>
<!-- 62&#45;&gt;72 -->
<g id="edge72" class="edge">
<title>62&#45;&gt;72</title>
<path fill="none" stroke="black" d="M1818.5,-367.83C1832.21,-358.43 1849.09,-346.86 1863.67,-336.85"/>
<polygon fill="black" stroke="black" points="1865.69,-339.71 1871.96,-331.17 1861.73,-333.94 1865.69,-339.71"/>
</g>
<!-- 64 -->
<g id="node65" class="node">
<title>64</title>
<polygon fill="none" stroke="black" points="1842,-258 1742,-258 1742,-220 1842,-220 1842,-258"/>
<text text-anchor="middle" x="1792" y="-242.8" font-family="Times,serif" font-size="14.00">lon &lt;= &#45;87.697</text>
<text text-anchor="middle" x="1792" y="-227.8" font-family="Times,serif" font-size="14.00">class = blue</text>
</g>
<!-- 63&#45;&gt;64 -->
<g id="edge64" class="edge">
<title>63&#45;&gt;64</title>
<path fill="none" stroke="black" d="M1792,-293.83C1792,-286.13 1792,-276.97 1792,-268.42"/>
<polygon fill="black" stroke="black" points="1795.5,-268.41 1792,-258.41 1788.5,-268.41 1795.5,-268.41"/>
</g>
<!-- 71 -->
<g id="node72" class="node">
<title>71</title>
<polygon fill="none" stroke="black" points="1942,-257 1860,-257 1860,-221 1942,-221 1942,-257"/>
<text text-anchor="middle" x="1901" y="-235.3" font-family="Times,serif" font-size="14.00">class = blue</text>
</g>
<!-- 63&#45;&gt;71 -->
<g id="edge71" class="edge">
<title>63&#45;&gt;71</title>
<path fill="none" stroke="black" d="M1819.51,-293.83C1833.74,-284.43 1851.26,-272.86 1866.41,-262.85"/>
<polygon fill="black" stroke="black" points="1868.59,-265.6 1875,-257.17 1864.73,-259.76 1868.59,-265.6"/>
</g>
<!-- 65 -->
<g id="node66" class="node">
<title>65</title>
<polygon fill="none" stroke="black" points="1838,-184 1738,-184 1738,-146 1838,-146 1838,-184"/>
<text text-anchor="middle" x="1788" y="-168.8" font-family="Times,serif" font-size="14.00">lon &lt;= &#45;91.379</text>
<text text-anchor="middle" x="1788" y="-153.8" font-family="Times,serif" font-size="14.00">class = blue</text>
</g>
<!-- 64&#45;&gt;65 -->
<g id="edge65" class="edge">
<title>64&#45;&gt;65</title>
<path fill="none" stroke="black" d="M1790.99,-219.83C1790.56,-212.13 1790.05,-202.97 1789.58,-194.42"/>
<polygon fill="black" stroke="black" points="1793.07,-194.2 1789.02,-184.41 1786.08,-194.59 1793.07,-194.2"/>
</g>
<!-- 70 -->
<g id="node71" class="node">
<title>70</title>
<polygon fill="none" stroke="black" points="1932,-183 1856,-183 1856,-147 1932,-147 1932,-183"/>
<text text-anchor="middle" x="1894" y="-161.3" font-family="Times,serif" font-size="14.00">class = red</text>
</g>
<!-- 64&#45;&gt;70 -->
<g id="edge70" class="edge">
<title>64&#45;&gt;70</title>
<path fill="none" stroke="black" d="M1817.74,-219.83C1830.93,-210.52 1847.15,-199.07 1861.23,-189.13"/>
<polygon fill="black" stroke="black" points="1863.52,-191.8 1869.67,-183.17 1859.49,-186.08 1863.52,-191.8"/>
</g>
<!-- 66 -->
<g id="node67" class="node">
<title>66</title>
<polygon fill="none" stroke="black" points="1781,-110 1689,-110 1689,-72 1781,-72 1781,-110"/>
<text text-anchor="middle" x="1735" y="-94.8" font-family="Times,serif" font-size="14.00">lat &lt;= 40.775</text>
<text text-anchor="middle" x="1735" y="-79.8" font-family="Times,serif" font-size="14.00">class = red</text>
</g>
<!-- 65&#45;&gt;66 -->
<g id="edge66" class="edge">
<title>65&#45;&gt;66</title>
<path fill="none" stroke="black" d="M1774.63,-145.83C1768.58,-137.62 1761.32,-127.76 1754.68,-118.73"/>
<polygon fill="black" stroke="black" points="1757.3,-116.39 1748.55,-110.41 1751.66,-120.54 1757.3,-116.39"/>
</g>
<!-- 69 -->
<g id="node70" class="node">
<title>69</title>
<polygon fill="none" stroke="black" points="1881,-109 1799,-109 1799,-73 1881,-73 1881,-109"/>
<text text-anchor="middle" x="1840" y="-87.3" font-family="Times,serif" font-size="14.00">class = blue</text>
</g>
<!-- 65&#45;&gt;69 -->
<g id="edge69" class="edge">
<title>65&#45;&gt;69</title>
<path fill="none" stroke="black" d="M1801.12,-145.83C1807.3,-137.28 1814.76,-126.94 1821.5,-117.62"/>
<polygon fill="black" stroke="black" points="1824.4,-119.57 1827.42,-109.42 1818.73,-115.48 1824.4,-119.57"/>
</g>
<!-- 67 -->
<g id="node68" class="node">
<title>67</title>
<polygon fill="none" stroke="black" points="1724,-36 1648,-36 1648,0 1724,0 1724,-36"/>
<text text-anchor="middle" x="1686" y="-14.3" font-family="Times,serif" font-size="14.00">class = red</text>
</g>
<!-- 66&#45;&gt;67 -->
<g id="edge67" class="edge">
<title>66&#45;&gt;67</title>
<path fill="none" stroke="black" d="M1722.38,-71.72C1716.62,-63.37 1709.71,-53.35 1703.46,-44.3"/>
<polygon fill="black" stroke="black" points="1706.3,-42.25 1697.73,-36 1700.53,-46.22 1706.3,-42.25"/>
</g>
<!-- 68 -->
<g id="node69" class="node">
<title>68</title>
<polygon fill="none" stroke="black" points="1824,-36 1742,-36 1742,0 1824,0 1824,-36"/>
<text text-anchor="middle" x="1783" y="-14.3" font-family="Times,serif" font-size="14.00">class = blue</text>
</g>
<!-- 66&#45;&gt;68 -->
<g id="edge68" class="edge">
<title>66&#45;&gt;68</title>
<path fill="none" stroke="black" d="M1747.36,-71.72C1753,-63.37 1759.78,-53.35 1765.9,-44.3"/>
<polygon fill="black" stroke="black" points="1768.8,-46.25 1771.5,-36 1763,-42.33 1768.8,-46.25"/>
</g>
</g>
</svg>
