<?xml version="1.0" encoding="UTF-8" standalone="no"?>
<!DOCTYPE svg PUBLIC "-//W3C//DTD SVG 1.1//EN"
 "http://www.w3.org/Graphics/SVG/1.1/DTD/svg11.dtd">
<!-- Generated by graphviz version 2.44.1 (20200629.0846)
 -->
<!-- Title: Tree Pages: 1 -->
<svg width="1833pt" height="636pt"
 viewBox="0.00 0.00 1833.00 636.00" xmlns="http://www.w3.org/2000/svg" xmlns:xlink="http://www.w3.org/1999/xlink">
<g id="graph0" class="graph" transform="scale(1 1) rotate(0) translate(4 632)">
<title>Tree</title>
<polygon fill="white" stroke="transparent" points="-4,4 -4,-632 1829,-632 1829,4 -4,4"/>
<!-- 0 -->
<g id="node1" class="node">
<title>0</title>
<polygon fill="none" stroke="black" points="601,-628 509,-628 509,-590 601,-590 601,-628"/>
<text text-anchor="middle" x="555" y="-612.8" font-family="Times,serif" font-size="14.00">lat &lt;= 37.682</text>
<text text-anchor="middle" x="555" y="-597.8" font-family="Times,serif" font-size="14.00">class = blue</text>
</g>
<!-- 1 -->
<g id="node2" class="node">
<title>1</title>
<polygon fill="none" stroke="black" points="363.5,-554 256.5,-554 256.5,-516 363.5,-516 363.5,-554"/>
<text text-anchor="middle" x="310" y="-538.8" font-family="Times,serif" font-size="14.00">lon &lt;= &#45;114.063</text>
<text text-anchor="middle" x="310" y="-523.8" font-family="Times,serif" font-size="14.00">class = red</text>
</g>
<!-- 0&#45;&gt;1 -->
<g id="edge1" class="edge">
<title>0&#45;&gt;1</title>
<path fill="none" stroke="black" d="M508.92,-594.46C470.6,-583.2 415.66,-567.05 373.23,-554.58"/>
<polygon fill="black" stroke="black" points="374.13,-551.2 363.55,-551.74 372.16,-557.92 374.13,-551.2"/>
<text text-anchor="middle" x="375.53" y="-569.98" font-family="Times,serif" font-size="14.00">True</text>
</g>
<!-- 24 -->
<g id="node25" class="node">
<title>24</title>
<polygon fill="none" stroke="black" points="907,-554 807,-554 807,-516 907,-516 907,-554"/>
<text text-anchor="middle" x="857" y="-538.8" font-family="Times,serif" font-size="14.00">lon &lt;= &#45;96.061</text>
<text text-anchor="middle" x="857" y="-523.8" font-family="Times,serif" font-size="14.00">class = blue</text>
</g>
<!-- 0&#45;&gt;24 -->
<g id="edge24" class="edge">
<title>0&#45;&gt;24</title>
<path fill="none" stroke="black" d="M601.2,-596.99C653.57,-584.5 739.14,-564.1 796.72,-550.37"/>
<polygon fill="black" stroke="black" points="797.87,-553.7 806.78,-547.97 796.24,-546.89 797.87,-553.7"/>
<text text-anchor="middle" x="793.69" y="-565.57" font-family="Times,serif" font-size="14.00">False</text>
</g>
<!-- 2 -->
<g id="node3" class="node">
<title>2</title>
<polygon fill="none" stroke="black" points="246,-479 164,-479 164,-443 246,-443 246,-479"/>
<text text-anchor="middle" x="205" y="-457.3" font-family="Times,serif" font-size="14.00">class = blue</text>
</g>
<!-- 1&#45;&gt;2 -->
<g id="edge2" class="edge">
<title>1&#45;&gt;2</title>
<path fill="none" stroke="black" d="M283.5,-515.83C269.79,-506.43 252.91,-494.86 238.33,-484.85"/>
<polygon fill="black" stroke="black" points="240.27,-481.94 230.04,-479.17 236.31,-487.71 240.27,-481.94"/>
</g>
<!-- 3 -->
<g id="node4" class="node">
<title>3</title>
<polygon fill="none" stroke="black" points="356,-480 264,-480 264,-442 356,-442 356,-480"/>
<text text-anchor="middle" x="310" y="-464.8" font-family="Times,serif" font-size="14.00">lat &lt;= 29.595</text>
<text text-anchor="middle" x="310" y="-449.8" font-family="Times,serif" font-size="14.00">class = red</text>
</g>
<!-- 1&#45;&gt;3 -->
<g id="edge3" class="edge">
<title>1&#45;&gt;3</title>
<path fill="none" stroke="black" d="M310,-515.83C310,-508.13 310,-498.97 310,-490.42"/>
<polygon fill="black" stroke="black" points="313.5,-490.41 310,-480.41 306.5,-490.41 313.5,-490.41"/>
</g>
<!-- 4 -->
<g id="node5" class="node">
<title>4</title>
<polygon fill="none" stroke="black" points="185,-406 85,-406 85,-368 185,-368 185,-406"/>
<text text-anchor="middle" x="135" y="-390.8" font-family="Times,serif" font-size="14.00">lon &lt;= &#45;90.074</text>
<text text-anchor="middle" x="135" y="-375.8" font-family="Times,serif" font-size="14.00">class = blue</text>
</g>
<!-- 3&#45;&gt;4 -->
<g id="edge4" class="edge">
<title>3&#45;&gt;4</title>
<path fill="none" stroke="black" d="M265.84,-441.83C242.23,-432.12 212.98,-420.08 188.13,-409.86"/>
<polygon fill="black" stroke="black" points="189.42,-406.61 178.84,-406.04 186.76,-413.08 189.42,-406.61"/>
</g>
<!-- 7 -->
<g id="node8" class="node">
<title>7</title>
<polygon fill="none" stroke="black" points="356,-406 264,-406 264,-368 356,-368 356,-406"/>
<text text-anchor="middle" x="310" y="-390.8" font-family="Times,serif" font-size="14.00">lat &lt;= 36.522</text>
<text text-anchor="middle" x="310" y="-375.8" font-family="Times,serif" font-size="14.00">class = red</text>
</g>
<!-- 3&#45;&gt;7 -->
<g id="edge7" class="edge">
<title>3&#45;&gt;7</title>
<path fill="none" stroke="black" d="M310,-441.83C310,-434.13 310,-424.97 310,-416.42"/>
<polygon fill="black" stroke="black" points="313.5,-416.41 310,-406.41 306.5,-416.41 313.5,-416.41"/>
</g>
<!-- 5 -->
<g id="node6" class="node">
<title>5</title>
<polygon fill="none" stroke="black" points="76,-331 0,-331 0,-295 76,-295 76,-331"/>
<text text-anchor="middle" x="38" y="-309.3" font-family="Times,serif" font-size="14.00">class = red</text>
</g>
<!-- 4&#45;&gt;5 -->
<g id="edge5" class="edge">
<title>4&#45;&gt;5</title>
<path fill="none" stroke="black" d="M110.52,-367.83C97.97,-358.52 82.55,-347.07 69.16,-337.13"/>
<polygon fill="black" stroke="black" points="71.25,-334.32 61.13,-331.17 67.08,-339.94 71.25,-334.32"/>
</g>
<!-- 6 -->
<g id="node7" class="node">
<title>6</title>
<polygon fill="none" stroke="black" points="176,-331 94,-331 94,-295 176,-295 176,-331"/>
<text text-anchor="middle" x="135" y="-309.3" font-family="Times,serif" font-size="14.00">class = blue</text>
</g>
<!-- 4&#45;&gt;6 -->
<g id="edge6" class="edge">
<title>4&#45;&gt;6</title>
<path fill="none" stroke="black" d="M135,-367.83C135,-359.89 135,-350.41 135,-341.63"/>
<polygon fill="black" stroke="black" points="138.5,-341.42 135,-331.42 131.5,-341.42 138.5,-341.42"/>
</g>
<!-- 8 -->
<g id="node9" class="node">
<title>8</title>
<polygon fill="none" stroke="black" points="301.5,-332 194.5,-332 194.5,-294 301.5,-294 301.5,-332"/>
<text text-anchor="middle" x="248" y="-316.8" font-family="Times,serif" font-size="14.00">lon &lt;= &#45;102.257</text>
<text text-anchor="middle" x="248" y="-301.8" font-family="Times,serif" font-size="14.00">class = red</text>
</g>
<!-- 7&#45;&gt;8 -->
<g id="edge8" class="edge">
<title>7&#45;&gt;8</title>
<path fill="none" stroke="black" d="M294.35,-367.83C287.14,-359.45 278.44,-349.35 270.54,-340.17"/>
<polygon fill="black" stroke="black" points="273.03,-337.71 263.86,-332.41 267.73,-342.27 273.03,-337.71"/>
</g>
<!-- 15 -->
<g id="node16" class="node">
<title>15</title>
<polygon fill="none" stroke="black" points="420,-332 320,-332 320,-294 420,-294 420,-332"/>
<text text-anchor="middle" x="370" y="-316.8" font-family="Times,serif" font-size="14.00">lon &lt;= &#45;82.415</text>
<text text-anchor="middle" x="370" y="-301.8" font-family="Times,serif" font-size="14.00">class = red</text>
</g>
<!-- 7&#45;&gt;15 -->
<g id="edge15" class="edge">
<title>7&#45;&gt;15</title>
<path fill="none" stroke="black" d="M325.14,-367.83C332.12,-359.45 340.54,-349.35 348.19,-340.17"/>
<polygon fill="black" stroke="black" points="350.94,-342.34 354.66,-332.41 345.56,-337.85 350.94,-342.34"/>
</g>
<!-- 9 -->
<g id="node10" class="node">
<title>9</title>
<polygon fill="none" stroke="black" points="191.5,-258 84.5,-258 84.5,-220 191.5,-220 191.5,-258"/>
<text text-anchor="middle" x="138" y="-242.8" font-family="Times,serif" font-size="14.00">lon &lt;= &#45;107.589</text>
<text text-anchor="middle" x="138" y="-227.8" font-family="Times,serif" font-size="14.00">class = red</text>
</g>
<!-- 8&#45;&gt;9 -->
<g id="edge9" class="edge">
<title>8&#45;&gt;9</title>
<path fill="none" stroke="black" d="M220.24,-293.83C206.3,-284.71 189.24,-273.54 174.28,-263.74"/>
<polygon fill="black" stroke="black" points="176.03,-260.71 165.75,-258.16 172.2,-266.57 176.03,-260.71"/>
</g>
<!-- 14 -->
<g id="node15" class="node">
<title>14</title>
<polygon fill="none" stroke="black" points="286,-257 210,-257 210,-221 286,-221 286,-257"/>
<text text-anchor="middle" x="248" y="-235.3" font-family="Times,serif" font-size="14.00">class = red</text>
</g>
<!-- 8&#45;&gt;14 -->
<g id="edge14" class="edge">
<title>8&#45;&gt;14</title>
<path fill="none" stroke="black" d="M248,-293.83C248,-285.89 248,-276.41 248,-267.63"/>
<polygon fill="black" stroke="black" points="251.5,-267.42 248,-257.42 244.5,-267.42 251.5,-267.42"/>
</g>
<!-- 10 -->
<g id="node11" class="node">
<title>10</title>
<polygon fill="none" stroke="black" points="83,-183 7,-183 7,-147 83,-147 83,-183"/>
<text text-anchor="middle" x="45" y="-161.3" font-family="Times,serif" font-size="14.00">class = red</text>
</g>
<!-- 9&#45;&gt;10 -->
<g id="edge10" class="edge">
<title>9&#45;&gt;10</title>
<path fill="none" stroke="black" d="M114.53,-219.83C102.61,-210.6 88,-199.29 75.24,-189.41"/>
<polygon fill="black" stroke="black" points="77.23,-186.53 67.18,-183.17 72.94,-192.06 77.23,-186.53"/>
</g>
<!-- 11 -->
<g id="node12" class="node">
<title>11</title>
<polygon fill="none" stroke="black" points="193,-184 101,-184 101,-146 193,-146 193,-184"/>
<text text-anchor="middle" x="147" y="-168.8" font-family="Times,serif" font-size="14.00">lat &lt;= 31.788</text>
<text text-anchor="middle" x="147" y="-153.8" font-family="Times,serif" font-size="14.00">class = blue</text>
</g>
<!-- 9&#45;&gt;11 -->
<g id="edge11" class="edge">
<title>9&#45;&gt;11</title>
<path fill="none" stroke="black" d="M140.27,-219.83C141.23,-212.13 142.38,-202.97 143.45,-194.42"/>
<polygon fill="black" stroke="black" points="146.93,-194.77 144.7,-184.41 139.98,-193.9 146.93,-194.77"/>
</g>
<!-- 12 -->
<g id="node13" class="node">
<title>12</title>
<polygon fill="none" stroke="black" points="137,-109 61,-109 61,-73 137,-73 137,-109"/>
<text text-anchor="middle" x="99" y="-87.3" font-family="Times,serif" font-size="14.00">class = red</text>
</g>
<!-- 11&#45;&gt;12 -->
<g id="edge12" class="edge">
<title>11&#45;&gt;12</title>
<path fill="none" stroke="black" d="M134.89,-145.83C129.25,-137.37 122.43,-127.15 116.27,-117.9"/>
<polygon fill="black" stroke="black" points="119.07,-115.8 110.61,-109.42 113.25,-119.68 119.07,-115.8"/>
</g>
<!-- 13 -->
<g id="node14" class="node">
<title>13</title>
<polygon fill="none" stroke="black" points="237,-109 155,-109 155,-73 237,-73 237,-109"/>
<text text-anchor="middle" x="196" y="-87.3" font-family="Times,serif" font-size="14.00">class = blue</text>
</g>
<!-- 11&#45;&gt;13 -->
<g id="edge13" class="edge">
<title>11&#45;&gt;13</title>
<path fill="none" stroke="black" d="M159.36,-145.83C165.12,-137.37 172.08,-127.15 178.37,-117.9"/>
<polygon fill="black" stroke="black" points="181.41,-119.65 184.15,-109.42 175.63,-115.72 181.41,-119.65"/>
</g>
<!-- 16 -->
<g id="node17" class="node">
<title>16</title>
<polygon fill="none" stroke="black" points="396,-258 304,-258 304,-220 396,-220 396,-258"/>
<text text-anchor="middle" x="350" y="-242.8" font-family="Times,serif" font-size="14.00">lat &lt;= 36.633</text>
<text text-anchor="middle" x="350" y="-227.8" font-family="Times,serif" font-size="14.00">class = red</text>
</g>
<!-- 15&#45;&gt;16 -->
<g id="edge16" class="edge">
<title>15&#45;&gt;16</title>
<path fill="none" stroke="black" d="M364.95,-293.83C362.79,-286.05 360.21,-276.77 357.82,-268.13"/>
<polygon fill="black" stroke="black" points="361.16,-267.11 355.11,-258.41 354.42,-268.99 361.16,-267.11"/>
</g>
<!-- 19 -->
<g id="node20" class="node">
<title>19</title>
<polygon fill="none" stroke="black" points="514,-258 414,-258 414,-220 514,-220 514,-258"/>
<text text-anchor="middle" x="464" y="-242.8" font-family="Times,serif" font-size="14.00">lon &lt;= &#45;80.706</text>
<text text-anchor="middle" x="464" y="-227.8" font-family="Times,serif" font-size="14.00">class = blue</text>
</g>
<!-- 15&#45;&gt;19 -->
<g id="edge19" class="edge">
<title>15&#45;&gt;19</title>
<path fill="none" stroke="black" d="M393.72,-293.83C405.41,-284.88 419.67,-273.96 432.28,-264.3"/>
<polygon fill="black" stroke="black" points="434.48,-267.02 440.29,-258.16 430.22,-261.47 434.48,-267.02"/>
</g>
<!-- 17 -->
<g id="node18" class="node">
<title>17</title>
<polygon fill="none" stroke="black" points="299,-183 217,-183 217,-147 299,-147 299,-183"/>
<text text-anchor="middle" x="258" y="-161.3" font-family="Times,serif" font-size="14.00">class = blue</text>
</g>
<!-- 16&#45;&gt;17 -->
<g id="edge17" class="edge">
<title>16&#45;&gt;17</title>
<path fill="none" stroke="black" d="M326.78,-219.83C314.99,-210.6 300.53,-199.29 287.92,-189.41"/>
<polygon fill="black" stroke="black" points="289.97,-186.58 279.94,-183.17 285.66,-192.09 289.97,-186.58"/>
</g>
<!-- 18 -->
<g id="node19" class="node">
<title>18</title>
<polygon fill="none" stroke="black" points="393,-183 317,-183 317,-147 393,-147 393,-183"/>
<text text-anchor="middle" x="355" y="-161.3" font-family="Times,serif" font-size="14.00">class = red</text>
</g>
<!-- 16&#45;&gt;18 -->
<g id="edge18" class="edge">
<title>16&#45;&gt;18</title>
<path fill="none" stroke="black" d="M351.26,-219.83C351.81,-211.89 352.47,-202.41 353.08,-193.63"/>
<polygon fill="black" stroke="black" points="356.59,-193.64 353.79,-183.42 349.61,-193.15 356.59,-193.64"/>
</g>
<!-- 20 -->
<g id="node21" class="node">
<title>20</title>
<polygon fill="none" stroke="black" points="497.5,-184 412.5,-184 412.5,-146 497.5,-146 497.5,-184"/>
<text text-anchor="middle" x="455" y="-168.8" font-family="Times,serif" font-size="14.00">lat &lt;= 37.15</text>
<text text-anchor="middle" x="455" y="-153.8" font-family="Times,serif" font-size="14.00">class = blue</text>
</g>
<!-- 19&#45;&gt;20 -->
<g id="edge20" class="edge">
<title>19&#45;&gt;20</title>
<path fill="none" stroke="black" d="M461.73,-219.83C460.77,-212.13 459.62,-202.97 458.55,-194.42"/>
<polygon fill="black" stroke="black" points="462.02,-193.9 457.3,-184.41 455.07,-194.77 462.02,-193.9"/>
</g>
<!-- 23 -->
<g id="node24" class="node">
<title>23</title>
<polygon fill="none" stroke="black" points="598,-183 516,-183 516,-147 598,-147 598,-183"/>
<text text-anchor="middle" x="557" y="-161.3" font-family="Times,serif" font-size="14.00">class = blue</text>
</g>
<!-- 19&#45;&gt;23 -->
<g id="edge23" class="edge">
<title>19&#45;&gt;23</title>
<path fill="none" stroke="black" d="M487.47,-219.83C499.39,-210.6 514,-199.29 526.76,-189.41"/>
<polygon fill="black" stroke="black" points="529.06,-192.06 534.82,-183.17 524.77,-186.53 529.06,-192.06"/>
</g>
<!-- 21 -->
<g id="node22" class="node">
<title>21</title>
<polygon fill="none" stroke="black" points="448,-109 366,-109 366,-73 448,-73 448,-109"/>
<text text-anchor="middle" x="407" y="-87.3" font-family="Times,serif" font-size="14.00">class = blue</text>
</g>
<!-- 20&#45;&gt;21 -->
<g id="edge21" class="edge">
<title>20&#45;&gt;21</title>
<path fill="none" stroke="black" d="M442.89,-145.83C437.25,-137.37 430.43,-127.15 424.27,-117.9"/>
<polygon fill="black" stroke="black" points="427.07,-115.8 418.61,-109.42 421.25,-119.68 427.07,-115.8"/>
</g>
<!-- 22 -->
<g id="node23" class="node">
<title>22</title>
<polygon fill="none" stroke="black" points="542,-109 466,-109 466,-73 542,-73 542,-109"/>
<text text-anchor="middle" x="504" y="-87.3" font-family="Times,serif" font-size="14.00">class = red</text>
</g>
<!-- 20&#45;&gt;22 -->
<g id="edge22" class="edge">
<title>20&#45;&gt;22</title>
<path fill="none" stroke="black" d="M467.36,-145.83C473.12,-137.37 480.08,-127.15 486.37,-117.9"/>
<polygon fill="black" stroke="black" points="489.41,-119.65 492.15,-109.42 483.63,-115.72 489.41,-119.65"/>
</g>
<!-- 25 -->
<g id="node26" class="node">
<title>25</title>
<polygon fill="none" stroke="black" points="910.5,-480 803.5,-480 803.5,-442 910.5,-442 910.5,-480"/>
<text text-anchor="middle" x="857" y="-464.8" font-family="Times,serif" font-size="14.00">lon &lt;= &#45;104.089</text>
<text text-anchor="middle" x="857" y="-449.8" font-family="Times,serif" font-size="14.00">class = red</text>
</g>
<!-- 24&#45;&gt;25 -->
<g id="edge25" class="edge">
<title>24&#45;&gt;25</title>
<path fill="none" stroke="black" d="M857,-515.83C857,-508.13 857,-498.97 857,-490.42"/>
<polygon fill="black" stroke="black" points="860.5,-490.41 857,-480.41 853.5,-490.41 860.5,-490.41"/>
</g>
<!-- 42 -->
<g id="node43" class="node">
<title>42</title>
<polygon fill="none" stroke="black" points="1442,-480 1350,-480 1350,-442 1442,-442 1442,-480"/>
<text text-anchor="middle" x="1396" y="-464.8" font-family="Times,serif" font-size="14.00">lat &lt;= 39.759</text>
<text text-anchor="middle" x="1396" y="-449.8" font-family="Times,serif" font-size="14.00">class = blue</text>
</g>
<!-- 24&#45;&gt;42 -->
<g id="edge42" class="edge">
<title>24&#45;&gt;42</title>
<path fill="none" stroke="black" d="M907.22,-527.29C1008.01,-513.83 1234.28,-483.6 1339.81,-469.51"/>
<polygon fill="black" stroke="black" points="1340.5,-472.95 1349.94,-468.15 1339.57,-466.01 1340.5,-472.95"/>
</g>
<!-- 26 -->
<g id="node27" class="node">
<title>26</title>
<polygon fill="none" stroke="black" points="846,-406 754,-406 754,-368 846,-368 846,-406"/>
<text text-anchor="middle" x="800" y="-390.8" font-family="Times,serif" font-size="14.00">lat &lt;= 41.895</text>
<text text-anchor="middle" x="800" y="-375.8" font-family="Times,serif" font-size="14.00">class = blue</text>
</g>
<!-- 25&#45;&gt;26 -->
<g id="edge26" class="edge">
<title>25&#45;&gt;26</title>
<path fill="none" stroke="black" d="M842.62,-441.83C836.05,-433.54 828.15,-423.56 820.94,-414.45"/>
<polygon fill="black" stroke="black" points="823.53,-412.08 814.58,-406.41 818.04,-416.43 823.53,-412.08"/>
</g>
<!-- 37 -->
<g id="node38" class="node">
<title>37</title>
<polygon fill="none" stroke="black" points="964,-406 864,-406 864,-368 964,-368 964,-406"/>
<text text-anchor="middle" x="914" y="-390.8" font-family="Times,serif" font-size="14.00">lon &lt;= &#45;96.557</text>
<text text-anchor="middle" x="914" y="-375.8" font-family="Times,serif" font-size="14.00">class = red</text>
</g>
<!-- 25&#45;&gt;37 -->
<g id="edge37" class="edge">
<title>25&#45;&gt;37</title>
<path fill="none" stroke="black" d="M871.38,-441.83C877.95,-433.54 885.85,-423.56 893.06,-414.45"/>
<polygon fill="black" stroke="black" points="895.96,-416.43 899.42,-406.41 890.47,-412.08 895.96,-416.43"/>
</g>
<!-- 27 -->
<g id="node28" class="node">
<title>27</title>
<polygon fill="none" stroke="black" points="739.5,-332 632.5,-332 632.5,-294 739.5,-294 739.5,-332"/>
<text text-anchor="middle" x="686" y="-316.8" font-family="Times,serif" font-size="14.00">lon &lt;= &#45;113.872</text>
<text text-anchor="middle" x="686" y="-301.8" font-family="Times,serif" font-size="14.00">class = blue</text>
</g>
<!-- 26&#45;&gt;27 -->
<g id="edge27" class="edge">
<title>26&#45;&gt;27</title>
<path fill="none" stroke="black" d="M771.23,-367.83C756.79,-358.71 739.1,-347.54 723.6,-337.74"/>
<polygon fill="black" stroke="black" points="725.08,-334.54 714.76,-332.16 721.34,-340.46 725.08,-334.54"/>
</g>
<!-- 32 -->
<g id="node33" class="node">
<title>32</title>
<polygon fill="none" stroke="black" points="842.5,-332 757.5,-332 757.5,-294 842.5,-294 842.5,-332"/>
<text text-anchor="middle" x="800" y="-316.8" font-family="Times,serif" font-size="14.00">lat &lt;= 45.33</text>
<text text-anchor="middle" x="800" y="-301.8" font-family="Times,serif" font-size="14.00">class = red</text>
</g>
<!-- 26&#45;&gt;32 -->
<g id="edge32" class="edge">
<title>26&#45;&gt;32</title>
<path fill="none" stroke="black" d="M800,-367.83C800,-360.13 800,-350.97 800,-342.42"/>
<polygon fill="black" stroke="black" points="803.5,-342.41 800,-332.41 796.5,-342.41 803.5,-342.41"/>
</g>
<!-- 28 -->
<g id="node29" class="node">
<title>28</title>
<polygon fill="none" stroke="black" points="614,-257 532,-257 532,-221 614,-221 614,-257"/>
<text text-anchor="middle" x="573" y="-235.3" font-family="Times,serif" font-size="14.00">class = blue</text>
</g>
<!-- 27&#45;&gt;28 -->
<g id="edge28" class="edge">
<title>27&#45;&gt;28</title>
<path fill="none" stroke="black" d="M657.49,-293.83C642.59,-284.34 624.22,-272.64 608.42,-262.57"/>
<polygon fill="black" stroke="black" points="610.26,-259.59 599.95,-257.17 606.5,-265.5 610.26,-259.59"/>
</g>
<!-- 29 -->
<g id="node30" class="node">
<title>29</title>
<polygon fill="none" stroke="black" points="739.5,-258 632.5,-258 632.5,-220 739.5,-220 739.5,-258"/>
<text text-anchor="middle" x="686" y="-242.8" font-family="Times,serif" font-size="14.00">lon &lt;= &#45;107.957</text>
<text text-anchor="middle" x="686" y="-227.8" font-family="Times,serif" font-size="14.00">class = blue</text>
</g>
<!-- 27&#45;&gt;29 -->
<g id="edge29" class="edge">
<title>27&#45;&gt;29</title>
<path fill="none" stroke="black" d="M686,-293.83C686,-286.13 686,-276.97 686,-268.42"/>
<polygon fill="black" stroke="black" points="689.5,-268.41 686,-258.41 682.5,-268.41 689.5,-268.41"/>
</g>
<!-- 30 -->
<g id="node31" class="node">
<title>30</title>
<polygon fill="none" stroke="black" points="692,-183 616,-183 616,-147 692,-147 692,-183"/>
<text text-anchor="middle" x="654" y="-161.3" font-family="Times,serif" font-size="14.00">class = red</text>
</g>
<!-- 29&#45;&gt;30 -->
<g id="edge30" class="edge">
<title>29&#45;&gt;30</title>
<path fill="none" stroke="black" d="M677.93,-219.83C674.28,-211.63 669.9,-201.78 665.89,-192.76"/>
<polygon fill="black" stroke="black" points="669,-191.13 661.74,-183.42 662.6,-193.98 669,-191.13"/>
</g>
<!-- 31 -->
<g id="node32" class="node">
<title>31</title>
<polygon fill="none" stroke="black" points="792,-183 710,-183 710,-147 792,-147 792,-183"/>
<text text-anchor="middle" x="751" y="-161.3" font-family="Times,serif" font-size="14.00">class = blue</text>
</g>
<!-- 29&#45;&gt;31 -->
<g id="edge31" class="edge">
<title>29&#45;&gt;31</title>
<path fill="none" stroke="black" d="M702.4,-219.83C710.28,-211.11 719.84,-200.52 728.39,-191.05"/>
<polygon fill="black" stroke="black" points="731.17,-193.19 735.28,-183.42 725.98,-188.5 731.17,-193.19"/>
</g>
<!-- 33 -->
<g id="node34" class="node">
<title>33</title>
<polygon fill="none" stroke="black" points="834,-257 758,-257 758,-221 834,-221 834,-257"/>
<text text-anchor="middle" x="796" y="-235.3" font-family="Times,serif" font-size="14.00">class = red</text>
</g>
<!-- 32&#45;&gt;33 -->
<g id="edge33" class="edge">
<title>32&#45;&gt;33</title>
<path fill="none" stroke="black" d="M798.99,-293.83C798.55,-285.89 798.02,-276.41 797.53,-267.63"/>
<polygon fill="black" stroke="black" points="801.02,-267.21 796.97,-257.42 794.03,-267.6 801.02,-267.21"/>
</g>
<!-- 34 -->
<g id="node35" class="node">
<title>34</title>
<polygon fill="none" stroke="black" points="959.5,-258 852.5,-258 852.5,-220 959.5,-220 959.5,-258"/>
<text text-anchor="middle" x="906" y="-242.8" font-family="Times,serif" font-size="14.00">lon &lt;= &#45;133.954</text>
<text text-anchor="middle" x="906" y="-227.8" font-family="Times,serif" font-size="14.00">class = blue</text>
</g>
<!-- 32&#45;&gt;34 -->
<g id="edge34" class="edge">
<title>32&#45;&gt;34</title>
<path fill="none" stroke="black" d="M826.75,-293.83C840.06,-284.79 856.32,-273.75 870.64,-264.02"/>
<polygon fill="black" stroke="black" points="872.95,-266.68 879.26,-258.16 869.02,-260.89 872.95,-266.68"/>
</g>
<!-- 35 -->
<g id="node36" class="node">
<title>35</title>
<polygon fill="none" stroke="black" points="886,-183 810,-183 810,-147 886,-147 886,-183"/>
<text text-anchor="middle" x="848" y="-161.3" font-family="Times,serif" font-size="14.00">class = red</text>
</g>
<!-- 34&#45;&gt;35 -->
<g id="edge35" class="edge">
<title>34&#45;&gt;35</title>
<path fill="none" stroke="black" d="M891.36,-219.83C884.41,-211.2 875.98,-200.73 868.41,-191.33"/>
<polygon fill="black" stroke="black" points="871.03,-189.01 862.03,-183.42 865.58,-193.4 871.03,-189.01"/>
</g>
<!-- 36 -->
<g id="node37" class="node">
<title>36</title>
<polygon fill="none" stroke="black" points="986,-183 904,-183 904,-147 986,-147 986,-183"/>
<text text-anchor="middle" x="945" y="-161.3" font-family="Times,serif" font-size="14.00">class = blue</text>
</g>
<!-- 34&#45;&gt;36 -->
<g id="edge36" class="edge">
<title>34&#45;&gt;36</title>
<path fill="none" stroke="black" d="M915.84,-219.83C920.33,-211.55 925.73,-201.57 930.66,-192.47"/>
<polygon fill="black" stroke="black" points="933.88,-193.88 935.57,-183.42 927.72,-190.54 933.88,-193.88"/>
</g>
<!-- 38 -->
<g id="node39" class="node">
<title>38</title>
<polygon fill="none" stroke="black" points="952,-331 876,-331 876,-295 952,-295 952,-331"/>
<text text-anchor="middle" x="914" y="-309.3" font-family="Times,serif" font-size="14.00">class = red</text>
</g>
<!-- 37&#45;&gt;38 -->
<g id="edge38" class="edge">
<title>37&#45;&gt;38</title>
<path fill="none" stroke="black" d="M914,-367.83C914,-359.89 914,-350.41 914,-341.63"/>
<polygon fill="black" stroke="black" points="917.5,-341.42 914,-331.42 910.5,-341.42 917.5,-341.42"/>
</g>
<!-- 39 -->
<g id="node40" class="node">
<title>39</title>
<polygon fill="none" stroke="black" points="1062,-332 970,-332 970,-294 1062,-294 1062,-332"/>
<text text-anchor="middle" x="1016" y="-316.8" font-family="Times,serif" font-size="14.00">lat &lt;= 42.007</text>
<text text-anchor="middle" x="1016" y="-301.8" font-family="Times,serif" font-size="14.00">class = blue</text>
</g>
<!-- 37&#45;&gt;39 -->
<g id="edge39" class="edge">
<title>37&#45;&gt;39</title>
<path fill="none" stroke="black" d="M939.74,-367.83C952.54,-358.79 968.19,-347.75 981.97,-338.02"/>
<polygon fill="black" stroke="black" points="984.12,-340.79 990.27,-332.16 980.08,-335.07 984.12,-340.79"/>
</g>
<!-- 40 -->
<g id="node41" class="node">
<title>40</title>
<polygon fill="none" stroke="black" points="1054,-257 978,-257 978,-221 1054,-221 1054,-257"/>
<text text-anchor="middle" x="1016" y="-235.3" font-family="Times,serif" font-size="14.00">class = red</text>
</g>
<!-- 39&#45;&gt;40 -->
<g id="edge40" class="edge">
<title>39&#45;&gt;40</title>
<path fill="none" stroke="black" d="M1016,-293.83C1016,-285.89 1016,-276.41 1016,-267.63"/>
<polygon fill="black" stroke="black" points="1019.5,-267.42 1016,-257.42 1012.5,-267.42 1019.5,-267.42"/>
</g>
<!-- 41 -->
<g id="node42" class="node">
<title>41</title>
<polygon fill="none" stroke="black" points="1154,-257 1072,-257 1072,-221 1154,-221 1154,-257"/>
<text text-anchor="middle" x="1113" y="-235.3" font-family="Times,serif" font-size="14.00">class = blue</text>
</g>
<!-- 39&#45;&gt;41 -->
<g id="edge41" class="edge">
<title>39&#45;&gt;41</title>
<path fill="none" stroke="black" d="M1040.48,-293.83C1053.03,-284.52 1068.45,-273.07 1081.84,-263.13"/>
<polygon fill="black" stroke="black" points="1083.92,-265.94 1089.87,-257.17 1079.75,-260.32 1083.92,-265.94"/>
</g>
<!-- 43 -->
<g id="node44" class="node">
<title>43</title>
<polygon fill="none" stroke="black" points="1446,-406 1346,-406 1346,-368 1446,-368 1446,-406"/>
<text text-anchor="middle" x="1396" y="-390.8" font-family="Times,serif" font-size="14.00">lon &lt;= &#45;79.773</text>
<text text-anchor="middle" x="1396" y="-375.8" font-family="Times,serif" font-size="14.00">class = blue</text>
</g>
<!-- 42&#45;&gt;43 -->
<g id="edge43" class="edge">
<title>42&#45;&gt;43</title>
<path fill="none" stroke="black" d="M1396,-441.83C1396,-434.13 1396,-424.97 1396,-416.42"/>
<polygon fill="black" stroke="black" points="1399.5,-416.41 1396,-406.41 1392.5,-416.41 1399.5,-416.41"/>
</g>
<!-- 62 -->
<g id="node63" class="node">
<title>62</title>
<polygon fill="none" stroke="black" points="1725,-406 1625,-406 1625,-368 1725,-368 1725,-406"/>
<text text-anchor="middle" x="1675" y="-390.8" font-family="Times,serif" font-size="14.00">lon &lt;= &#45;84.905</text>
<text text-anchor="middle" x="1675" y="-375.8" font-family="Times,serif" font-size="14.00">class = blue</text>
</g>
<!-- 42&#45;&gt;62 -->
<g id="edge62" class="edge">
<title>42&#45;&gt;62</title>
<path fill="none" stroke="black" d="M1442.07,-448.11C1489.33,-435.92 1563.05,-416.89 1614.88,-403.52"/>
<polygon fill="black" stroke="black" points="1615.8,-406.89 1624.61,-401 1614.05,-400.11 1615.8,-406.89"/>
</g>
<!-- 44 -->
<g id="node45" class="node">
<title>44</title>
<polygon fill="none" stroke="black" points="1386,-332 1286,-332 1286,-294 1386,-294 1386,-332"/>
<text text-anchor="middle" x="1336" y="-316.8" font-family="Times,serif" font-size="14.00">lon &lt;= &#45;87.643</text>
<text text-anchor="middle" x="1336" y="-301.8" font-family="Times,serif" font-size="14.00">class = red</text>
</g>
<!-- 43&#45;&gt;44 -->
<g id="edge44" class="edge">
<title>43&#45;&gt;44</title>
<path fill="none" stroke="black" d="M1380.86,-367.83C1373.88,-359.45 1365.46,-349.35 1357.81,-340.17"/>
<polygon fill="black" stroke="black" points="1360.44,-337.85 1351.34,-332.41 1355.06,-342.34 1360.44,-337.85"/>
</g>
<!-- 57 -->
<g id="node58" class="node">
<title>57</title>
<polygon fill="none" stroke="black" points="1507,-332 1407,-332 1407,-294 1507,-294 1507,-332"/>
<text text-anchor="middle" x="1457" y="-316.8" font-family="Times,serif" font-size="14.00">lon &lt;= &#45;78.395</text>
<text text-anchor="middle" x="1457" y="-301.8" font-family="Times,serif" font-size="14.00">class = blue</text>
</g>
<!-- 43&#45;&gt;57 -->
<g id="edge57" class="edge">
<title>43&#45;&gt;57</title>
<path fill="none" stroke="black" d="M1411.39,-367.83C1418.49,-359.45 1427.05,-349.35 1434.82,-340.17"/>
<polygon fill="black" stroke="black" points="1437.61,-342.31 1441.4,-332.41 1432.27,-337.78 1437.61,-342.31"/>
</g>
<!-- 45 -->
<g id="node46" class="node">
<title>45</title>
<polygon fill="none" stroke="black" points="1265.5,-258 1172.5,-258 1172.5,-220 1265.5,-220 1265.5,-258"/>
<text text-anchor="middle" x="1219" y="-242.8" font-family="Times,serif" font-size="14.00">lon &lt;= &#45;90.12</text>
<text text-anchor="middle" x="1219" y="-227.8" font-family="Times,serif" font-size="14.00">class = blue</text>
</g>
<!-- 44&#45;&gt;45 -->
<g id="edge45" class="edge">
<title>44&#45;&gt;45</title>
<path fill="none" stroke="black" d="M1306.48,-293.83C1291.51,-284.62 1273.16,-273.33 1257.14,-263.47"/>
<polygon fill="black" stroke="black" points="1258.87,-260.42 1248.51,-258.16 1255.2,-266.38 1258.87,-260.42"/>
</g>
<!-- 52 -->
<g id="node53" class="node">
<title>52</title>
<polygon fill="none" stroke="black" points="1382,-258 1290,-258 1290,-220 1382,-220 1382,-258"/>
<text text-anchor="middle" x="1336" y="-242.8" font-family="Times,serif" font-size="14.00">lat &lt;= 38.562</text>
<text text-anchor="middle" x="1336" y="-227.8" font-family="Times,serif" font-size="14.00">class = red</text>
</g>
<!-- 44&#45;&gt;52 -->
<g id="edge52" class="edge">
<title>44&#45;&gt;52</title>
<path fill="none" stroke="black" d="M1336,-293.83C1336,-286.13 1336,-276.97 1336,-268.42"/>
<polygon fill="black" stroke="black" points="1339.5,-268.41 1336,-258.41 1332.5,-268.41 1339.5,-268.41"/>
</g>
<!-- 46 -->
<g id="node47" class="node">
<title>46</title>
<polygon fill="none" stroke="black" points="1104,-184 1004,-184 1004,-146 1104,-146 1104,-184"/>
<text text-anchor="middle" x="1054" y="-168.8" font-family="Times,serif" font-size="14.00">lon &lt;= &#45;90.841</text>
<text text-anchor="middle" x="1054" y="-153.8" font-family="Times,serif" font-size="14.00">class = red</text>
</g>
<!-- 45&#45;&gt;46 -->
<g id="edge46" class="edge">
<title>45&#45;&gt;46</title>
<path fill="none" stroke="black" d="M1177.36,-219.83C1155.3,-210.2 1128.01,-198.29 1104.71,-188.13"/>
<polygon fill="black" stroke="black" points="1105.9,-184.83 1095.34,-184.04 1103.1,-191.25 1105.9,-184.83"/>
</g>
<!-- 51 -->
<g id="node52" class="node">
<title>51</title>
<polygon fill="none" stroke="black" points="1204,-183 1122,-183 1122,-147 1204,-147 1204,-183"/>
<text text-anchor="middle" x="1163" y="-161.3" font-family="Times,serif" font-size="14.00">class = blue</text>
</g>
<!-- 45&#45;&gt;51 -->
<g id="edge51" class="edge">
<title>45&#45;&gt;51</title>
<path fill="none" stroke="black" d="M1204.87,-219.83C1198.15,-211.2 1190.01,-200.73 1182.7,-191.33"/>
<polygon fill="black" stroke="black" points="1185.45,-189.16 1176.55,-183.42 1179.92,-193.46 1185.45,-189.16"/>
</g>
<!-- 47 -->
<g id="node48" class="node">
<title>47</title>
<polygon fill="none" stroke="black" points="1043,-109 967,-109 967,-73 1043,-73 1043,-109"/>
<text text-anchor="middle" x="1005" y="-87.3" font-family="Times,serif" font-size="14.00">class = red</text>
</g>
<!-- 46&#45;&gt;47 -->
<g id="edge47" class="edge">
<title>46&#45;&gt;47</title>
<path fill="none" stroke="black" d="M1041.64,-145.83C1035.88,-137.37 1028.92,-127.15 1022.63,-117.9"/>
<polygon fill="black" stroke="black" points="1025.37,-115.72 1016.85,-109.42 1019.59,-119.65 1025.37,-115.72"/>
</g>
<!-- 48 -->
<g id="node49" class="node">
<title>48</title>
<polygon fill="none" stroke="black" points="1146.5,-110 1061.5,-110 1061.5,-72 1146.5,-72 1146.5,-110"/>
<text text-anchor="middle" x="1104" y="-94.8" font-family="Times,serif" font-size="14.00">lat &lt;= 38.85</text>
<text text-anchor="middle" x="1104" y="-79.8" font-family="Times,serif" font-size="14.00">class = blue</text>
</g>
<!-- 46&#45;&gt;48 -->
<g id="edge48" class="edge">
<title>46&#45;&gt;48</title>
<path fill="none" stroke="black" d="M1066.62,-145.83C1072.32,-137.62 1079.17,-127.76 1085.44,-118.73"/>
<polygon fill="black" stroke="black" points="1088.38,-120.62 1091.21,-110.41 1082.63,-116.63 1088.38,-120.62"/>
</g>
<!-- 49 -->
<g id="node50" class="node">
<title>49</title>
<polygon fill="none" stroke="black" points="1094,-36 1018,-36 1018,0 1094,0 1094,-36"/>
<text text-anchor="middle" x="1056" y="-14.3" font-family="Times,serif" font-size="14.00">class = red</text>
</g>
<!-- 48&#45;&gt;49 -->
<g id="edge49" class="edge">
<title>48&#45;&gt;49</title>
<path fill="none" stroke="black" d="M1091.64,-71.72C1086,-63.37 1079.22,-53.35 1073.1,-44.3"/>
<polygon fill="black" stroke="black" points="1076,-42.33 1067.5,-36 1070.2,-46.25 1076,-42.33"/>
</g>
<!-- 50 -->
<g id="node51" class="node">
<title>50</title>
<polygon fill="none" stroke="black" points="1194,-36 1112,-36 1112,0 1194,0 1194,-36"/>
<text text-anchor="middle" x="1153" y="-14.3" font-family="Times,serif" font-size="14.00">class = blue</text>
</g>
<!-- 48&#45;&gt;50 -->
<g id="edge50" class="edge">
<title>48&#45;&gt;50</title>
<path fill="none" stroke="black" d="M1116.62,-71.72C1122.38,-63.37 1129.29,-53.35 1135.54,-44.3"/>
<polygon fill="black" stroke="black" points="1138.47,-46.22 1141.27,-36 1132.7,-42.25 1138.47,-46.22"/>
</g>
<!-- 53 -->
<g id="node54" class="node">
<title>53</title>
<polygon fill="none" stroke="black" points="1314,-184 1222,-184 1222,-146 1314,-146 1314,-184"/>
<text text-anchor="middle" x="1268" y="-168.8" font-family="Times,serif" font-size="14.00">lat &lt;= 38.324</text>
<text text-anchor="middle" x="1268" y="-153.8" font-family="Times,serif" font-size="14.00">class = red</text>
</g>
<!-- 52&#45;&gt;53 -->
<g id="edge53" class="edge">
<title>52&#45;&gt;53</title>
<path fill="none" stroke="black" d="M1318.84,-219.83C1310.85,-211.37 1301.2,-201.15 1292.46,-191.9"/>
<polygon fill="black" stroke="black" points="1294.8,-189.28 1285.39,-184.41 1289.71,-194.09 1294.8,-189.28"/>
</g>
<!-- 56 -->
<g id="node57" class="node">
<title>56</title>
<polygon fill="none" stroke="black" points="1408,-183 1332,-183 1332,-147 1408,-147 1408,-183"/>
<text text-anchor="middle" x="1370" y="-161.3" font-family="Times,serif" font-size="14.00">class = red</text>
</g>
<!-- 52&#45;&gt;56 -->
<g id="edge56" class="edge">
<title>52&#45;&gt;56</title>
<path fill="none" stroke="black" d="M1344.58,-219.83C1348.49,-211.55 1353.2,-201.57 1357.5,-192.47"/>
<polygon fill="black" stroke="black" points="1360.67,-193.95 1361.77,-183.42 1354.34,-190.97 1360.67,-193.95"/>
</g>
<!-- 54 -->
<g id="node55" class="node">
<title>54</title>
<polygon fill="none" stroke="black" points="1298,-109 1222,-109 1222,-73 1298,-73 1298,-109"/>
<text text-anchor="middle" x="1260" y="-87.3" font-family="Times,serif" font-size="14.00">class = red</text>
</g>
<!-- 53&#45;&gt;54 -->
<g id="edge54" class="edge">
<title>53&#45;&gt;54</title>
<path fill="none" stroke="black" d="M1265.98,-145.83C1265.1,-137.89 1264.05,-128.41 1263.07,-119.63"/>
<polygon fill="black" stroke="black" points="1266.52,-118.97 1261.94,-109.42 1259.56,-119.74 1266.52,-118.97"/>
</g>
<!-- 55 -->
<g id="node56" class="node">
<title>55</title>
<polygon fill="none" stroke="black" points="1398,-109 1316,-109 1316,-73 1398,-73 1398,-109"/>
<text text-anchor="middle" x="1357" y="-87.3" font-family="Times,serif" font-size="14.00">class = blue</text>
</g>
<!-- 53&#45;&gt;55 -->
<g id="edge55" class="edge">
<title>53&#45;&gt;55</title>
<path fill="none" stroke="black" d="M1290.46,-145.83C1301.76,-136.69 1315.59,-125.5 1327.71,-115.7"/>
<polygon fill="black" stroke="black" points="1330.2,-118.18 1335.77,-109.17 1325.8,-112.74 1330.2,-118.18"/>
</g>
<!-- 58 -->
<g id="node59" class="node">
<title>58</title>
<polygon fill="none" stroke="black" points="1507,-258 1407,-258 1407,-220 1507,-220 1507,-258"/>
<text text-anchor="middle" x="1457" y="-242.8" font-family="Times,serif" font-size="14.00">lon &lt;= &#45;78.878</text>
<text text-anchor="middle" x="1457" y="-227.8" font-family="Times,serif" font-size="14.00">class = blue</text>
</g>
<!-- 57&#45;&gt;58 -->
<g id="edge58" class="edge">
<title>57&#45;&gt;58</title>
<path fill="none" stroke="black" d="M1457,-293.83C1457,-286.13 1457,-276.97 1457,-268.42"/>
<polygon fill="black" stroke="black" points="1460.5,-268.41 1457,-258.41 1453.5,-268.41 1460.5,-268.41"/>
</g>
<!-- 61 -->
<g id="node62" class="node">
<title>61</title>
<polygon fill="none" stroke="black" points="1607,-257 1525,-257 1525,-221 1607,-221 1607,-257"/>
<text text-anchor="middle" x="1566" y="-235.3" font-family="Times,serif" font-size="14.00">class = blue</text>
</g>
<!-- 57&#45;&gt;61 -->
<g id="edge61" class="edge">
<title>57&#45;&gt;61</title>
<path fill="none" stroke="black" d="M1484.51,-293.83C1498.74,-284.43 1516.26,-272.86 1531.41,-262.85"/>
<polygon fill="black" stroke="black" points="1533.59,-265.6 1540,-257.17 1529.73,-259.76 1533.59,-265.6"/>
</g>
<!-- 59 -->
<g id="node60" class="node">
<title>59</title>
<polygon fill="none" stroke="black" points="1508,-183 1426,-183 1426,-147 1508,-147 1508,-183"/>
<text text-anchor="middle" x="1467" y="-161.3" font-family="Times,serif" font-size="14.00">class = blue</text>
</g>
<!-- 58&#45;&gt;59 -->
<g id="edge59" class="edge">
<title>58&#45;&gt;59</title>
<path fill="none" stroke="black" d="M1459.52,-219.83C1460.64,-211.81 1461.97,-202.2 1463.2,-193.34"/>
<polygon fill="black" stroke="black" points="1466.67,-193.8 1464.58,-183.42 1459.74,-192.84 1466.67,-193.8"/>
</g>
<!-- 60 -->
<g id="node61" class="node">
<title>60</title>
<polygon fill="none" stroke="black" points="1602,-183 1526,-183 1526,-147 1602,-147 1602,-183"/>
<text text-anchor="middle" x="1564" y="-161.3" font-family="Times,serif" font-size="14.00">class = red</text>
</g>
<!-- 58&#45;&gt;60 -->
<g id="edge60" class="edge">
<title>58&#45;&gt;60</title>
<path fill="none" stroke="black" d="M1484,-219.83C1497.97,-210.43 1515.17,-198.86 1530.04,-188.85"/>
<polygon fill="black" stroke="black" points="1532.14,-191.66 1538.48,-183.17 1528.23,-185.85 1532.14,-191.66"/>
</g>
<!-- 63 -->
<g id="node64" class="node">
<title>63</title>
<polygon fill="none" stroke="black" points="1721,-332 1629,-332 1629,-294 1721,-294 1721,-332"/>
<text text-anchor="middle" x="1675" y="-316.8" font-family="Times,serif" font-size="14.00">lat &lt;= 41.739</text>
<text text-anchor="middle" x="1675" y="-301.8" font-family="Times,serif" font-size="14.00">class = blue</text>
</g>
<!-- 62&#45;&gt;63 -->
<g id="edge63" class="edge">
<title>62&#45;&gt;63</title>
<path fill="none" stroke="black" d="M1675,-367.83C1675,-360.13 1675,-350.97 1675,-342.42"/>
<polygon fill="black" stroke="black" points="1678.5,-342.41 1675,-332.41 1671.5,-342.41 1678.5,-342.41"/>
</g>
<!-- 72 -->
<g id="node73" class="node">
<title>72</title>
<polygon fill="none" stroke="black" points="1821,-331 1739,-331 1739,-295 1821,-295 1821,-331"/>
<text text-anchor="middle" x="1780" y="-309.3" font-family="Times,serif" font-size="14.00">class = blue</text>
</g>
<!-- 62&#45;&gt;72 -->
<g id="edge72" class="edge">
<title>62&#45;&gt;72</title>
<path fill="none" stroke="black" d="M1701.5,-367.83C1715.21,-358.43 1732.09,-346.86 1746.67,-336.85"/>
<polygon fill="black" stroke="black" points="1748.69,-339.71 1754.96,-331.17 1744.73,-333.94 1748.69,-339.71"/>
</g>
<!-- 64 -->
<g id="node65" class="node">
<title>64</title>
<polygon fill="none" stroke="black" points="1725,-258 1625,-258 1625,-220 1725,-220 1725,-258"/>
<text text-anchor="middle" x="1675" y="-242.8" font-family="Times,serif" font-size="14.00">lon &lt;= &#45;87.697</text>
<text text-anchor="middle" x="1675" y="-227.8" font-family="Times,serif" font-size="14.00">class = blue</text>
</g>
<!-- 63&#45;&gt;64 -->
<g id="edge64" class="edge">
<title>63&#45;&gt;64</title>
<path fill="none" stroke="black" d="M1675,-293.83C1675,-286.13 1675,-276.97 1675,-268.42"/>
<polygon fill="black" stroke="black" points="1678.5,-268.41 1675,-258.41 1671.5,-268.41 1678.5,-268.41"/>
</g>
<!-- 71 -->
<g id="node72" class="node">
<title>71</title>
<polygon fill="none" stroke="black" points="1825,-257 1743,-257 1743,-221 1825,-221 1825,-257"/>
<text text-anchor="middle" x="1784" y="-235.3" font-family="Times,serif" font-size="14.00">class = blue</text>
</g>
<!-- 63&#45;&gt;71 -->
<g id="edge71" class="edge">
<title>63&#45;&gt;71</title>
<path fill="none" stroke="black" d="M1702.51,-293.83C1716.74,-284.43 1734.26,-272.86 1749.41,-262.85"/>
<polygon fill="black" stroke="black" points="1751.59,-265.6 1758,-257.17 1747.73,-259.76 1751.59,-265.6"/>
</g>
<!-- 65 -->
<g id="node66" class="node">
<title>65</title>
<polygon fill="none" stroke="black" points="1720,-184 1620,-184 1620,-146 1720,-146 1720,-184"/>
<text text-anchor="middle" x="1670" y="-168.8" font-family="Times,serif" font-size="14.00">lon &lt;= &#45;91.379</text>
<text text-anchor="middle" x="1670" y="-153.8" font-family="Times,serif" font-size="14.00">class = blue</text>
</g>
<!-- 64&#45;&gt;65 -->
<g id="edge65" class="edge">
<title>64&#45;&gt;65</title>
<path fill="none" stroke="black" d="M1673.74,-219.83C1673.2,-212.13 1672.57,-202.97 1671.97,-194.42"/>
<polygon fill="black" stroke="black" points="1675.46,-194.15 1671.28,-184.41 1668.48,-194.63 1675.46,-194.15"/>
</g>
<!-- 70 -->
<g id="node71" class="node">
<title>70</title>
<polygon fill="none" stroke="black" points="1814,-183 1738,-183 1738,-147 1814,-147 1814,-183"/>
<text text-anchor="middle" x="1776" y="-161.3" font-family="Times,serif" font-size="14.00">class = red</text>
</g>
<!-- 64&#45;&gt;70 -->
<g id="edge70" class="edge">
<title>64&#45;&gt;70</title>
<path fill="none" stroke="black" d="M1700.49,-219.83C1713.55,-210.52 1729.61,-199.07 1743.55,-189.13"/>
<polygon fill="black" stroke="black" points="1745.8,-191.83 1751.91,-183.17 1741.74,-186.13 1745.8,-191.83"/>
</g>
<!-- 66 -->
<g id="node67" class="node">
<title>66</title>
<polygon fill="none" stroke="black" points="1665,-110 1565,-110 1565,-72 1665,-72 1665,-110"/>
<text text-anchor="middle" x="1615" y="-94.8" font-family="Times,serif" font-size="14.00">lon &lt;= &#45;95.317</text>
<text text-anchor="middle" x="1615" y="-79.8" font-family="Times,serif" font-size="14.00">class = red</text>
</g>
<!-- 65&#45;&gt;66 -->
<g id="edge66" class="edge">
<title>65&#45;&gt;66</title>
<path fill="none" stroke="black" d="M1656.12,-145.83C1649.79,-137.54 1642.16,-127.56 1635.21,-118.45"/>
<polygon fill="black" stroke="black" points="1637.92,-116.24 1629.07,-110.41 1632.35,-120.48 1637.92,-116.24"/>
</g>
<!-- 69 -->
<g id="node70" class="node">
<title>69</title>
<polygon fill="none" stroke="black" points="1765,-109 1683,-109 1683,-73 1765,-73 1765,-109"/>
<text text-anchor="middle" x="1724" y="-87.3" font-family="Times,serif" font-size="14.00">class = blue</text>
</g>
<!-- 65&#45;&gt;69 -->
<g id="edge69" class="edge">
<title>65&#45;&gt;69</title>
<path fill="none" stroke="black" d="M1683.63,-145.83C1690.04,-137.28 1697.79,-126.94 1704.79,-117.62"/>
<polygon fill="black" stroke="black" points="1707.74,-119.52 1710.94,-109.42 1702.14,-115.32 1707.74,-119.52"/>
</g>
<!-- 67 -->
<g id="node68" class="node">
<title>67</title>
<polygon fill="none" stroke="black" points="1607,-36 1525,-36 1525,0 1607,0 1607,-36"/>
<text text-anchor="middle" x="1566" y="-14.3" font-family="Times,serif" font-size="14.00">class = blue</text>
</g>
<!-- 66&#45;&gt;67 -->
<g id="edge67" class="edge">
<title>66&#45;&gt;67</title>
<path fill="none" stroke="black" d="M1602.38,-71.72C1596.62,-63.37 1589.71,-53.35 1583.46,-44.3"/>
<polygon fill="black" stroke="black" points="1586.3,-42.25 1577.73,-36 1580.53,-46.22 1586.3,-42.25"/>
</g>
<!-- 68 -->
<g id="node69" class="node">
<title>68</title>
<polygon fill="none" stroke="black" points="1701,-36 1625,-36 1625,0 1701,0 1701,-36"/>
<text text-anchor="middle" x="1663" y="-14.3" font-family="Times,serif" font-size="14.00">class = red</text>
</g>
<!-- 66&#45;&gt;68 -->
<g id="edge68" class="edge">
<title>66&#45;&gt;68</title>
<path fill="none" stroke="black" d="M1627.36,-71.72C1633,-63.37 1639.78,-53.35 1645.9,-44.3"/>
<polygon fill="black" stroke="black" points="1648.8,-46.25 1651.5,-36 1643,-42.33 1648.8,-46.25"/>
</g>
</g>
</svg>
