<?xml version="1.0" encoding="UTF-8" standalone="no"?>
<!DOCTYPE svg PUBLIC "-//W3C//DTD SVG 1.1//EN"
 "http://www.w3.org/Graphics/SVG/1.1/DTD/svg11.dtd">
<!-- Generated by graphviz version 2.44.1 (20200629.0846)
 -->
<!-- Title: Tree Pages: 1 -->
<svg width="416pt" height="414pt"
 viewBox="0.00 0.00 416.00 414.00" xmlns="http://www.w3.org/2000/svg" xmlns:xlink="http://www.w3.org/1999/xlink">
<g id="graph0" class="graph" transform="scale(1 1) rotate(0) translate(4 410)">
<title>Tree</title>
<polygon fill="white" stroke="transparent" points="-4,4 -4,-410 412,-410 412,4 -4,4"/>
<!-- 0 -->
<g id="node1" class="node">
<title>0</title>
<polygon fill="none" stroke="black" points="203.5,-406 96.5,-406 96.5,-368 203.5,-368 203.5,-406"/>
<text text-anchor="middle" x="150" y="-390.8" font-family="Times,serif" font-size="14.00">lon &lt;= &#45;102.165</text>
<text text-anchor="middle" x="150" y="-375.8" font-family="Times,serif" font-size="14.00">class = red</text>
</g>
<!-- 1 -->
<g id="node2" class="node">
<title>1</title>
<polygon fill="none" stroke="black" points="137,-331 55,-331 55,-295 137,-295 137,-331"/>
<text text-anchor="middle" x="96" y="-309.3" font-family="Times,serif" font-size="14.00">class = blue</text>
</g>
<!-- 0&#45;&gt;1 -->
<g id="edge1" class="edge">
<title>0&#45;&gt;1</title>
<path fill="none" stroke="black" d="M136.37,-367.83C129.96,-359.28 122.21,-348.94 115.21,-339.62"/>
<polygon fill="black" stroke="black" points="117.86,-337.32 109.06,-331.42 112.26,-341.52 117.86,-337.32"/>
<text text-anchor="middle" x="105.53" y="-352.47" font-family="Times,serif" font-size="14.00">True</text>
</g>
<!-- 2 -->
<g id="node3" class="node">
<title>2</title>
<polygon fill="none" stroke="black" points="255,-332 155,-332 155,-294 255,-294 255,-332"/>
<text text-anchor="middle" x="205" y="-316.8" font-family="Times,serif" font-size="14.00">lon &lt;= &#45;82.517</text>
<text text-anchor="middle" x="205" y="-301.8" font-family="Times,serif" font-size="14.00">class = red</text>
</g>
<!-- 0&#45;&gt;2 -->
<g id="edge2" class="edge">
<title>0&#45;&gt;2</title>
<path fill="none" stroke="black" d="M163.88,-367.83C170.21,-359.54 177.84,-349.56 184.79,-340.45"/>
<polygon fill="black" stroke="black" points="187.65,-342.48 190.93,-332.41 182.08,-338.24 187.65,-342.48"/>
<text text-anchor="middle" x="194.25" y="-353.49" font-family="Times,serif" font-size="14.00">False</text>
</g>
<!-- 3 -->
<g id="node4" class="node">
<title>3</title>
<polygon fill="none" stroke="black" points="194,-258 102,-258 102,-220 194,-220 194,-258"/>
<text text-anchor="middle" x="148" y="-242.8" font-family="Times,serif" font-size="14.00">lat &lt;= 41.113</text>
<text text-anchor="middle" x="148" y="-227.8" font-family="Times,serif" font-size="14.00">class = red</text>
</g>
<!-- 2&#45;&gt;3 -->
<g id="edge3" class="edge">
<title>2&#45;&gt;3</title>
<path fill="none" stroke="black" d="M190.62,-293.83C184.05,-285.54 176.15,-275.56 168.94,-266.45"/>
<polygon fill="black" stroke="black" points="171.53,-264.08 162.58,-258.41 166.04,-268.43 171.53,-264.08"/>
</g>
<!-- 10 -->
<g id="node11" class="node">
<title>10</title>
<polygon fill="none" stroke="black" points="308,-258 216,-258 216,-220 308,-220 308,-258"/>
<text text-anchor="middle" x="262" y="-242.8" font-family="Times,serif" font-size="14.00">lat &lt;= 35.763</text>
<text text-anchor="middle" x="262" y="-227.8" font-family="Times,serif" font-size="14.00">class = blue</text>
</g>
<!-- 2&#45;&gt;10 -->
<g id="edge10" class="edge">
<title>2&#45;&gt;10</title>
<path fill="none" stroke="black" d="M219.38,-293.83C225.95,-285.54 233.85,-275.56 241.06,-266.45"/>
<polygon fill="black" stroke="black" points="243.96,-268.43 247.42,-258.41 238.47,-264.08 243.96,-268.43"/>
</g>
<!-- 4 -->
<g id="node5" class="node">
<title>4</title>
<polygon fill="none" stroke="black" points="80,-183 4,-183 4,-147 80,-147 80,-183"/>
<text text-anchor="middle" x="42" y="-161.3" font-family="Times,serif" font-size="14.00">class = red</text>
</g>
<!-- 3&#45;&gt;4 -->
<g id="edge4" class="edge">
<title>3&#45;&gt;4</title>
<path fill="none" stroke="black" d="M121.25,-219.83C107.41,-210.43 90.37,-198.86 75.64,-188.85"/>
<polygon fill="black" stroke="black" points="77.52,-185.9 67.28,-183.17 73.59,-191.69 77.52,-185.9"/>
</g>
<!-- 5 -->
<g id="node6" class="node">
<title>5</title>
<polygon fill="none" stroke="black" points="198,-184 98,-184 98,-146 198,-146 198,-184"/>
<text text-anchor="middle" x="148" y="-168.8" font-family="Times,serif" font-size="14.00">lon &lt;= &#45;91.035</text>
<text text-anchor="middle" x="148" y="-153.8" font-family="Times,serif" font-size="14.00">class = blue</text>
</g>
<!-- 3&#45;&gt;5 -->
<g id="edge5" class="edge">
<title>3&#45;&gt;5</title>
<path fill="none" stroke="black" d="M148,-219.83C148,-212.13 148,-202.97 148,-194.42"/>
<polygon fill="black" stroke="black" points="151.5,-194.41 148,-184.41 144.5,-194.41 151.5,-194.41"/>
</g>
<!-- 6 -->
<g id="node7" class="node">
<title>6</title>
<polygon fill="none" stroke="black" points="82,-109 0,-109 0,-73 82,-73 82,-109"/>
<text text-anchor="middle" x="41" y="-87.3" font-family="Times,serif" font-size="14.00">class = blue</text>
</g>
<!-- 5&#45;&gt;6 -->
<g id="edge6" class="edge">
<title>5&#45;&gt;6</title>
<path fill="none" stroke="black" d="M121,-145.83C107.03,-136.43 89.83,-124.86 74.96,-114.85"/>
<polygon fill="black" stroke="black" points="76.77,-111.85 66.52,-109.17 72.86,-117.66 76.77,-111.85"/>
</g>
<!-- 7 -->
<g id="node8" class="node">
<title>7</title>
<polygon fill="none" stroke="black" points="200,-110 100,-110 100,-72 200,-72 200,-110"/>
<text text-anchor="middle" x="150" y="-94.8" font-family="Times,serif" font-size="14.00">lon &lt;= &#45;84.774</text>
<text text-anchor="middle" x="150" y="-79.8" font-family="Times,serif" font-size="14.00">class = blue</text>
</g>
<!-- 5&#45;&gt;7 -->
<g id="edge7" class="edge">
<title>5&#45;&gt;7</title>
<path fill="none" stroke="black" d="M148.5,-145.83C148.72,-138.13 148.97,-128.97 149.21,-120.42"/>
<polygon fill="black" stroke="black" points="152.71,-120.51 149.49,-110.41 145.71,-120.31 152.71,-120.51"/>
</g>
<!-- 8 -->
<g id="node9" class="node">
<title>8</title>
<polygon fill="none" stroke="black" points="139,-36 63,-36 63,0 139,0 139,-36"/>
<text text-anchor="middle" x="101" y="-14.3" font-family="Times,serif" font-size="14.00">class = red</text>
</g>
<!-- 7&#45;&gt;8 -->
<g id="edge8" class="edge">
<title>7&#45;&gt;8</title>
<path fill="none" stroke="black" d="M137.38,-71.72C131.62,-63.37 124.71,-53.35 118.46,-44.3"/>
<polygon fill="black" stroke="black" points="121.3,-42.25 112.73,-36 115.53,-46.22 121.3,-42.25"/>
</g>
<!-- 9 -->
<g id="node10" class="node">
<title>9</title>
<polygon fill="none" stroke="black" points="239,-36 157,-36 157,0 239,0 239,-36"/>
<text text-anchor="middle" x="198" y="-14.3" font-family="Times,serif" font-size="14.00">class = blue</text>
</g>
<!-- 7&#45;&gt;9 -->
<g id="edge9" class="edge">
<title>7&#45;&gt;9</title>
<path fill="none" stroke="black" d="M162.36,-71.72C168,-63.37 174.78,-53.35 180.9,-44.3"/>
<polygon fill="black" stroke="black" points="183.8,-46.25 186.5,-36 178,-42.33 183.8,-46.25"/>
</g>
<!-- 11 -->
<g id="node12" class="node">
<title>11</title>
<polygon fill="none" stroke="black" points="308,-184 216,-184 216,-146 308,-146 308,-184"/>
<text text-anchor="middle" x="262" y="-168.8" font-family="Times,serif" font-size="14.00">lat &lt;= 31.863</text>
<text text-anchor="middle" x="262" y="-153.8" font-family="Times,serif" font-size="14.00">class = red</text>
</g>
<!-- 10&#45;&gt;11 -->
<g id="edge11" class="edge">
<title>10&#45;&gt;11</title>
<path fill="none" stroke="black" d="M262,-219.83C262,-212.13 262,-202.97 262,-194.42"/>
<polygon fill="black" stroke="black" points="265.5,-194.41 262,-184.41 258.5,-194.41 265.5,-194.41"/>
</g>
<!-- 14 -->
<g id="node15" class="node">
<title>14</title>
<polygon fill="none" stroke="black" points="408,-183 326,-183 326,-147 408,-147 408,-183"/>
<text text-anchor="middle" x="367" y="-161.3" font-family="Times,serif" font-size="14.00">class = blue</text>
</g>
<!-- 10&#45;&gt;14 -->
<g id="edge14" class="edge">
<title>10&#45;&gt;14</title>
<path fill="none" stroke="black" d="M288.5,-219.83C302.21,-210.43 319.09,-198.86 333.67,-188.85"/>
<polygon fill="black" stroke="black" points="335.69,-191.71 341.96,-183.17 331.73,-185.94 335.69,-191.71"/>
</g>
<!-- 12 -->
<g id="node13" class="node">
<title>12</title>
<polygon fill="none" stroke="black" points="302,-109 220,-109 220,-73 302,-73 302,-109"/>
<text text-anchor="middle" x="261" y="-87.3" font-family="Times,serif" font-size="14.00">class = blue</text>
</g>
<!-- 11&#45;&gt;12 -->
<g id="edge12" class="edge">
<title>11&#45;&gt;12</title>
<path fill="none" stroke="black" d="M261.75,-145.83C261.64,-137.89 261.51,-128.41 261.38,-119.63"/>
<polygon fill="black" stroke="black" points="264.88,-119.37 261.24,-109.42 257.88,-119.47 264.88,-119.37"/>
</g>
<!-- 13 -->
<g id="node14" class="node">
<title>13</title>
<polygon fill="none" stroke="black" points="396,-109 320,-109 320,-73 396,-73 396,-109"/>
<text text-anchor="middle" x="358" y="-87.3" font-family="Times,serif" font-size="14.00">class = red</text>
</g>
<!-- 11&#45;&gt;13 -->
<g id="edge13" class="edge">
<title>11&#45;&gt;13</title>
<path fill="none" stroke="black" d="M286.22,-145.83C298.53,-136.6 313.62,-125.29 326.78,-115.41"/>
<polygon fill="black" stroke="black" points="329.2,-117.97 335.1,-109.17 325,-112.37 329.2,-117.97"/>
</g>
</g>
</svg>
