<?xml version="1.0" encoding="UTF-8" standalone="no"?>
<!DOCTYPE svg PUBLIC "-//W3C//DTD SVG 1.1//EN"
 "http://www.w3.org/Graphics/SVG/1.1/DTD/svg11.dtd">
<!-- Generated by graphviz version 2.44.1 (20200629.0846)
 -->
<!-- Title: Tree Pages: 1 -->
<svg width="424pt" height="414pt"
 viewBox="0.00 0.00 424.00 414.00" xmlns="http://www.w3.org/2000/svg" xmlns:xlink="http://www.w3.org/1999/xlink">
<g id="graph0" class="graph" transform="scale(1 1) rotate(0) translate(4 410)">
<title>Tree</title>
<polygon fill="white" stroke="transparent" points="-4,4 -4,-410 420,-410 420,4 -4,4"/>
<!-- 0 -->
<g id="node1" class="node">
<title>0</title>
<polygon fill="none" stroke="black" points="205.5,-406 98.5,-406 98.5,-368 205.5,-368 205.5,-406"/>
<text text-anchor="middle" x="152" y="-390.8" font-family="Times,serif" font-size="14.00">lon &lt;= &#45;102.165</text>
<text text-anchor="middle" x="152" y="-375.8" font-family="Times,serif" font-size="14.00">class = red</text>
</g>
<!-- 1 -->
<g id="node2" class="node">
<title>1</title>
<polygon fill="none" stroke="black" points="139,-331 57,-331 57,-295 139,-295 139,-331"/>
<text text-anchor="middle" x="98" y="-309.3" font-family="Times,serif" font-size="14.00">class = blue</text>
</g>
<!-- 0&#45;&gt;1 -->
<g id="edge1" class="edge">
<title>0&#45;&gt;1</title>
<path fill="none" stroke="black" d="M138.37,-367.83C131.96,-359.28 124.21,-348.94 117.21,-339.62"/>
<polygon fill="black" stroke="black" points="119.86,-337.32 111.06,-331.42 114.26,-341.52 119.86,-337.32"/>
<text text-anchor="middle" x="107.53" y="-352.47" font-family="Times,serif" font-size="14.00">True</text>
</g>
<!-- 2 -->
<g id="node3" class="node">
<title>2</title>
<polygon fill="none" stroke="black" points="257,-332 157,-332 157,-294 257,-294 257,-332"/>
<text text-anchor="middle" x="207" y="-316.8" font-family="Times,serif" font-size="14.00">lon &lt;= &#45;82.517</text>
<text text-anchor="middle" x="207" y="-301.8" font-family="Times,serif" font-size="14.00">class = red</text>
</g>
<!-- 0&#45;&gt;2 -->
<g id="edge2" class="edge">
<title>0&#45;&gt;2</title>
<path fill="none" stroke="black" d="M165.88,-367.83C172.21,-359.54 179.84,-349.56 186.79,-340.45"/>
<polygon fill="black" stroke="black" points="189.65,-342.48 192.93,-332.41 184.08,-338.24 189.65,-342.48"/>
<text text-anchor="middle" x="196.25" y="-353.49" font-family="Times,serif" font-size="14.00">False</text>
</g>
<!-- 3 -->
<g id="node4" class="node">
<title>3</title>
<polygon fill="none" stroke="black" points="194,-258 102,-258 102,-220 194,-220 194,-258"/>
<text text-anchor="middle" x="148" y="-242.8" font-family="Times,serif" font-size="14.00">lat &lt;= 41.113</text>
<text text-anchor="middle" x="148" y="-227.8" font-family="Times,serif" font-size="14.00">class = red</text>
</g>
<!-- 2&#45;&gt;3 -->
<g id="edge3" class="edge">
<title>2&#45;&gt;3</title>
<path fill="none" stroke="black" d="M192.11,-293.83C185.25,-285.45 176.97,-275.35 169.45,-266.17"/>
<polygon fill="black" stroke="black" points="172.13,-263.93 163.09,-258.41 166.72,-268.37 172.13,-263.93"/>
</g>
<!-- 10 -->
<g id="node11" class="node">
<title>10</title>
<polygon fill="none" stroke="black" points="312,-258 220,-258 220,-220 312,-220 312,-258"/>
<text text-anchor="middle" x="266" y="-242.8" font-family="Times,serif" font-size="14.00">lat &lt;= 35.763</text>
<text text-anchor="middle" x="266" y="-227.8" font-family="Times,serif" font-size="14.00">class = blue</text>
</g>
<!-- 2&#45;&gt;10 -->
<g id="edge10" class="edge">
<title>2&#45;&gt;10</title>
<path fill="none" stroke="black" d="M221.89,-293.83C228.75,-285.45 237.03,-275.35 244.55,-266.17"/>
<polygon fill="black" stroke="black" points="247.28,-268.37 250.91,-258.41 241.87,-263.93 247.28,-268.37"/>
</g>
<!-- 4 -->
<g id="node5" class="node">
<title>4</title>
<polygon fill="none" stroke="black" points="80,-183 4,-183 4,-147 80,-147 80,-183"/>
<text text-anchor="middle" x="42" y="-161.3" font-family="Times,serif" font-size="14.00">class = red</text>
</g>
<!-- 3&#45;&gt;4 -->
<g id="edge4" class="edge">
<title>3&#45;&gt;4</title>
<path fill="none" stroke="black" d="M121.25,-219.83C107.41,-210.43 90.37,-198.86 75.64,-188.85"/>
<polygon fill="black" stroke="black" points="77.52,-185.9 67.28,-183.17 73.59,-191.69 77.52,-185.9"/>
</g>
<!-- 5 -->
<g id="node6" class="node">
<title>5</title>
<polygon fill="none" stroke="black" points="198,-184 98,-184 98,-146 198,-146 198,-184"/>
<text text-anchor="middle" x="148" y="-168.8" font-family="Times,serif" font-size="14.00">lon &lt;= &#45;91.035</text>
<text text-anchor="middle" x="148" y="-153.8" font-family="Times,serif" font-size="14.00">class = blue</text>
</g>
<!-- 3&#45;&gt;5 -->
<g id="edge5" class="edge">
<title>3&#45;&gt;5</title>
<path fill="none" stroke="black" d="M148,-219.83C148,-212.13 148,-202.97 148,-194.42"/>
<polygon fill="black" stroke="black" points="151.5,-194.41 148,-184.41 144.5,-194.41 151.5,-194.41"/>
</g>
<!-- 6 -->
<g id="node7" class="node">
<title>6</title>
<polygon fill="none" stroke="black" points="82,-109 0,-109 0,-73 82,-73 82,-109"/>
<text text-anchor="middle" x="41" y="-87.3" font-family="Times,serif" font-size="14.00">class = blue</text>
</g>
<!-- 5&#45;&gt;6 -->
<g id="edge6" class="edge">
<title>5&#45;&gt;6</title>
<path fill="none" stroke="black" d="M121,-145.83C107.03,-136.43 89.83,-124.86 74.96,-114.85"/>
<polygon fill="black" stroke="black" points="76.77,-111.85 66.52,-109.17 72.86,-117.66 76.77,-111.85"/>
</g>
<!-- 7 -->
<g id="node8" class="node">
<title>7</title>
<polygon fill="none" stroke="black" points="200,-110 100,-110 100,-72 200,-72 200,-110"/>
<text text-anchor="middle" x="150" y="-94.8" font-family="Times,serif" font-size="14.00">lon &lt;= &#45;84.774</text>
<text text-anchor="middle" x="150" y="-79.8" font-family="Times,serif" font-size="14.00">class = blue</text>
</g>
<!-- 5&#45;&gt;7 -->
<g id="edge7" class="edge">
<title>5&#45;&gt;7</title>
<path fill="none" stroke="black" d="M148.5,-145.83C148.72,-138.13 148.97,-128.97 149.21,-120.42"/>
<polygon fill="black" stroke="black" points="152.71,-120.51 149.49,-110.41 145.71,-120.31 152.71,-120.51"/>
</g>
<!-- 8 -->
<g id="node9" class="node">
<title>8</title>
<polygon fill="none" stroke="black" points="139,-36 63,-36 63,0 139,0 139,-36"/>
<text text-anchor="middle" x="101" y="-14.3" font-family="Times,serif" font-size="14.00">class = red</text>
</g>
<!-- 7&#45;&gt;8 -->
<g id="edge8" class="edge">
<title>7&#45;&gt;8</title>
<path fill="none" stroke="black" d="M137.38,-71.72C131.62,-63.37 124.71,-53.35 118.46,-44.3"/>
<polygon fill="black" stroke="black" points="121.3,-42.25 112.73,-36 115.53,-46.22 121.3,-42.25"/>
</g>
<!-- 9 -->
<g id="node10" class="node">
<title>9</title>
<polygon fill="none" stroke="black" points="239,-36 157,-36 157,0 239,0 239,-36"/>
<text text-anchor="middle" x="198" y="-14.3" font-family="Times,serif" font-size="14.00">class = blue</text>
</g>
<!-- 7&#45;&gt;9 -->
<g id="edge9" class="edge">
<title>7&#45;&gt;9</title>
<path fill="none" stroke="black" d="M162.36,-71.72C168,-63.37 174.78,-53.35 180.9,-44.3"/>
<polygon fill="black" stroke="black" points="183.8,-46.25 186.5,-36 178,-42.33 183.8,-46.25"/>
</g>
<!-- 11 -->
<g id="node12" class="node">
<title>11</title>
<polygon fill="none" stroke="black" points="316,-184 216,-184 216,-146 316,-146 316,-184"/>
<text text-anchor="middle" x="266" y="-168.8" font-family="Times,serif" font-size="14.00">lon &lt;= &#45;81.529</text>
<text text-anchor="middle" x="266" y="-153.8" font-family="Times,serif" font-size="14.00">class = red</text>
</g>
<!-- 10&#45;&gt;11 -->
<g id="edge11" class="edge">
<title>10&#45;&gt;11</title>
<path fill="none" stroke="black" d="M266,-219.83C266,-212.13 266,-202.97 266,-194.42"/>
<polygon fill="black" stroke="black" points="269.5,-194.41 266,-184.41 262.5,-194.41 269.5,-194.41"/>
</g>
<!-- 14 -->
<g id="node15" class="node">
<title>14</title>
<polygon fill="none" stroke="black" points="416,-183 334,-183 334,-147 416,-147 416,-183"/>
<text text-anchor="middle" x="375" y="-161.3" font-family="Times,serif" font-size="14.00">class = blue</text>
</g>
<!-- 10&#45;&gt;14 -->
<g id="edge14" class="edge">
<title>10&#45;&gt;14</title>
<path fill="none" stroke="black" d="M293.51,-219.83C307.74,-210.43 325.26,-198.86 340.41,-188.85"/>
<polygon fill="black" stroke="black" points="342.59,-191.6 349,-183.17 338.73,-185.76 342.59,-191.6"/>
</g>
<!-- 12 -->
<g id="node13" class="node">
<title>12</title>
<polygon fill="none" stroke="black" points="304,-109 222,-109 222,-73 304,-73 304,-109"/>
<text text-anchor="middle" x="263" y="-87.3" font-family="Times,serif" font-size="14.00">class = blue</text>
</g>
<!-- 11&#45;&gt;12 -->
<g id="edge12" class="edge">
<title>11&#45;&gt;12</title>
<path fill="none" stroke="black" d="M265.24,-145.83C264.91,-137.89 264.52,-128.41 264.15,-119.63"/>
<polygon fill="black" stroke="black" points="267.64,-119.26 263.73,-109.42 260.65,-119.55 267.64,-119.26"/>
</g>
<!-- 13 -->
<g id="node14" class="node">
<title>13</title>
<polygon fill="none" stroke="black" points="398,-109 322,-109 322,-73 398,-73 398,-109"/>
<text text-anchor="middle" x="360" y="-87.3" font-family="Times,serif" font-size="14.00">class = red</text>
</g>
<!-- 11&#45;&gt;13 -->
<g id="edge13" class="edge">
<title>11&#45;&gt;13</title>
<path fill="none" stroke="black" d="M289.72,-145.83C301.77,-136.6 316.54,-125.29 329.43,-115.41"/>
<polygon fill="black" stroke="black" points="331.77,-118.03 337.58,-109.17 327.51,-112.47 331.77,-118.03"/>
</g>
</g>
</svg>
