<?xml version="1.0" encoding="UTF-8" standalone="no"?>
<!DOCTYPE svg PUBLIC "-//W3C//DTD SVG 1.1//EN"
 "http://www.w3.org/Graphics/SVG/1.1/DTD/svg11.dtd">
<!-- Generated by graphviz version 2.44.1 (20200629.0846)
 -->
<!-- Title: Tree Pages: 1 -->
<svg width="413pt" height="414pt"
 viewBox="0.00 0.00 413.00 414.00" xmlns="http://www.w3.org/2000/svg" xmlns:xlink="http://www.w3.org/1999/xlink">
<g id="graph0" class="graph" transform="scale(1 1) rotate(0) translate(4 410)">
<title>Tree</title>
<polygon fill="white" stroke="transparent" points="-4,4 -4,-410 409,-410 409,4 -4,4"/>
<!-- 0 -->
<g id="node1" class="node">
<title>0</title>
<polygon fill="none" stroke="black" points="202.5,-406 95.5,-406 95.5,-368 202.5,-368 202.5,-406"/>
<text text-anchor="middle" x="149" y="-390.8" font-family="Times,serif" font-size="14.00">lon &lt;= &#45;102.165</text>
<text text-anchor="middle" x="149" y="-375.8" font-family="Times,serif" font-size="14.00">class = red</text>
</g>
<!-- 1 -->
<g id="node2" class="node">
<title>1</title>
<polygon fill="none" stroke="black" points="136,-331 54,-331 54,-295 136,-295 136,-331"/>
<text text-anchor="middle" x="95" y="-309.3" font-family="Times,serif" font-size="14.00">class = blue</text>
</g>
<!-- 0&#45;&gt;1 -->
<g id="edge1" class="edge">
<title>0&#45;&gt;1</title>
<path fill="none" stroke="black" d="M135.37,-367.83C128.96,-359.28 121.21,-348.94 114.21,-339.62"/>
<polygon fill="black" stroke="black" points="116.86,-337.32 108.06,-331.42 111.26,-341.52 116.86,-337.32"/>
<text text-anchor="middle" x="104.53" y="-352.47" font-family="Times,serif" font-size="14.00">True</text>
</g>
<!-- 2 -->
<g id="node3" class="node">
<title>2</title>
<polygon fill="none" stroke="black" points="254,-332 154,-332 154,-294 254,-294 254,-332"/>
<text text-anchor="middle" x="204" y="-316.8" font-family="Times,serif" font-size="14.00">lon &lt;= &#45;82.517</text>
<text text-anchor="middle" x="204" y="-301.8" font-family="Times,serif" font-size="14.00">class = red</text>
</g>
<!-- 0&#45;&gt;2 -->
<g id="edge2" class="edge">
<title>0&#45;&gt;2</title>
<path fill="none" stroke="black" d="M162.88,-367.83C169.21,-359.54 176.84,-349.56 183.79,-340.45"/>
<polygon fill="black" stroke="black" points="186.65,-342.48 189.93,-332.41 181.08,-338.24 186.65,-342.48"/>
<text text-anchor="middle" x="193.25" y="-353.49" font-family="Times,serif" font-size="14.00">False</text>
</g>
<!-- 3 -->
<g id="node4" class="node">
<title>3</title>
<polygon fill="none" stroke="black" points="195,-258 103,-258 103,-220 195,-220 195,-258"/>
<text text-anchor="middle" x="149" y="-242.8" font-family="Times,serif" font-size="14.00">lat &lt;= 41.113</text>
<text text-anchor="middle" x="149" y="-227.8" font-family="Times,serif" font-size="14.00">class = red</text>
</g>
<!-- 2&#45;&gt;3 -->
<g id="edge3" class="edge">
<title>2&#45;&gt;3</title>
<path fill="none" stroke="black" d="M190.12,-293.83C183.79,-285.54 176.16,-275.56 169.21,-266.45"/>
<polygon fill="black" stroke="black" points="171.92,-264.24 163.07,-258.41 166.35,-268.48 171.92,-264.24"/>
</g>
<!-- 10 -->
<g id="node11" class="node">
<title>10</title>
<polygon fill="none" stroke="black" points="305,-258 213,-258 213,-220 305,-220 305,-258"/>
<text text-anchor="middle" x="259" y="-242.8" font-family="Times,serif" font-size="14.00">lat &lt;= 35.763</text>
<text text-anchor="middle" x="259" y="-227.8" font-family="Times,serif" font-size="14.00">class = blue</text>
</g>
<!-- 2&#45;&gt;10 -->
<g id="edge10" class="edge">
<title>2&#45;&gt;10</title>
<path fill="none" stroke="black" d="M217.88,-293.83C224.21,-285.54 231.84,-275.56 238.79,-266.45"/>
<polygon fill="black" stroke="black" points="241.65,-268.48 244.93,-258.41 236.08,-264.24 241.65,-268.48"/>
</g>
<!-- 4 -->
<g id="node5" class="node">
<title>4</title>
<polygon fill="none" stroke="black" points="85,-183 9,-183 9,-147 85,-147 85,-183"/>
<text text-anchor="middle" x="47" y="-161.3" font-family="Times,serif" font-size="14.00">class = red</text>
</g>
<!-- 3&#45;&gt;4 -->
<g id="edge4" class="edge">
<title>3&#45;&gt;4</title>
<path fill="none" stroke="black" d="M123.26,-219.83C110.07,-210.52 93.85,-199.07 79.77,-189.13"/>
<polygon fill="black" stroke="black" points="81.51,-186.08 71.33,-183.17 77.48,-191.8 81.51,-186.08"/>
</g>
<!-- 5 -->
<g id="node6" class="node">
<title>5</title>
<polygon fill="none" stroke="black" points="195,-184 103,-184 103,-146 195,-146 195,-184"/>
<text text-anchor="middle" x="149" y="-168.8" font-family="Times,serif" font-size="14.00">lat &lt;= 41.532</text>
<text text-anchor="middle" x="149" y="-153.8" font-family="Times,serif" font-size="14.00">class = blue</text>
</g>
<!-- 3&#45;&gt;5 -->
<g id="edge5" class="edge">
<title>3&#45;&gt;5</title>
<path fill="none" stroke="black" d="M149,-219.83C149,-212.13 149,-202.97 149,-194.42"/>
<polygon fill="black" stroke="black" points="152.5,-194.41 149,-184.41 145.5,-194.41 152.5,-194.41"/>
</g>
<!-- 6 -->
<g id="node7" class="node">
<title>6</title>
<polygon fill="none" stroke="black" points="82,-109 0,-109 0,-73 82,-73 82,-109"/>
<text text-anchor="middle" x="41" y="-87.3" font-family="Times,serif" font-size="14.00">class = blue</text>
</g>
<!-- 5&#45;&gt;6 -->
<g id="edge6" class="edge">
<title>5&#45;&gt;6</title>
<path fill="none" stroke="black" d="M121.75,-145.83C107.64,-136.43 90.28,-124.86 75.28,-114.85"/>
<polygon fill="black" stroke="black" points="77.02,-111.81 66.76,-109.17 73.14,-117.63 77.02,-111.81"/>
</g>
<!-- 7 -->
<g id="node8" class="node">
<title>7</title>
<polygon fill="none" stroke="black" points="200,-110 100,-110 100,-72 200,-72 200,-110"/>
<text text-anchor="middle" x="150" y="-94.8" font-family="Times,serif" font-size="14.00">lon &lt;= &#45;84.774</text>
<text text-anchor="middle" x="150" y="-79.8" font-family="Times,serif" font-size="14.00">class = blue</text>
</g>
<!-- 5&#45;&gt;7 -->
<g id="edge7" class="edge">
<title>5&#45;&gt;7</title>
<path fill="none" stroke="black" d="M149.25,-145.83C149.36,-138.13 149.49,-128.97 149.61,-120.42"/>
<polygon fill="black" stroke="black" points="153.1,-120.46 149.74,-110.41 146.11,-120.36 153.1,-120.46"/>
</g>
<!-- 8 -->
<g id="node9" class="node">
<title>8</title>
<polygon fill="none" stroke="black" points="139,-36 63,-36 63,0 139,0 139,-36"/>
<text text-anchor="middle" x="101" y="-14.3" font-family="Times,serif" font-size="14.00">class = red</text>
</g>
<!-- 7&#45;&gt;8 -->
<g id="edge8" class="edge">
<title>7&#45;&gt;8</title>
<path fill="none" stroke="black" d="M137.38,-71.72C131.62,-63.37 124.71,-53.35 118.46,-44.3"/>
<polygon fill="black" stroke="black" points="121.3,-42.25 112.73,-36 115.53,-46.22 121.3,-42.25"/>
</g>
<!-- 9 -->
<g id="node10" class="node">
<title>9</title>
<polygon fill="none" stroke="black" points="239,-36 157,-36 157,0 239,0 239,-36"/>
<text text-anchor="middle" x="198" y="-14.3" font-family="Times,serif" font-size="14.00">class = blue</text>
</g>
<!-- 7&#45;&gt;9 -->
<g id="edge9" class="edge">
<title>7&#45;&gt;9</title>
<path fill="none" stroke="black" d="M162.36,-71.72C168,-63.37 174.78,-53.35 180.9,-44.3"/>
<polygon fill="black" stroke="black" points="183.8,-46.25 186.5,-36 178,-42.33 183.8,-46.25"/>
</g>
<!-- 11 -->
<g id="node12" class="node">
<title>11</title>
<polygon fill="none" stroke="black" points="305,-184 213,-184 213,-146 305,-146 305,-184"/>
<text text-anchor="middle" x="259" y="-168.8" font-family="Times,serif" font-size="14.00">lat &lt;= 31.863</text>
<text text-anchor="middle" x="259" y="-153.8" font-family="Times,serif" font-size="14.00">class = red</text>
</g>
<!-- 10&#45;&gt;11 -->
<g id="edge11" class="edge">
<title>10&#45;&gt;11</title>
<path fill="none" stroke="black" d="M259,-219.83C259,-212.13 259,-202.97 259,-194.42"/>
<polygon fill="black" stroke="black" points="262.5,-194.41 259,-184.41 255.5,-194.41 262.5,-194.41"/>
</g>
<!-- 14 -->
<g id="node15" class="node">
<title>14</title>
<polygon fill="none" stroke="black" points="405,-183 323,-183 323,-147 405,-147 405,-183"/>
<text text-anchor="middle" x="364" y="-161.3" font-family="Times,serif" font-size="14.00">class = blue</text>
</g>
<!-- 10&#45;&gt;14 -->
<g id="edge14" class="edge">
<title>10&#45;&gt;14</title>
<path fill="none" stroke="black" d="M285.5,-219.83C299.21,-210.43 316.09,-198.86 330.67,-188.85"/>
<polygon fill="black" stroke="black" points="332.69,-191.71 338.96,-183.17 328.73,-185.94 332.69,-191.71"/>
</g>
<!-- 12 -->
<g id="node13" class="node">
<title>12</title>
<polygon fill="none" stroke="black" points="300,-109 218,-109 218,-73 300,-73 300,-109"/>
<text text-anchor="middle" x="259" y="-87.3" font-family="Times,serif" font-size="14.00">class = blue</text>
</g>
<!-- 11&#45;&gt;12 -->
<g id="edge12" class="edge">
<title>11&#45;&gt;12</title>
<path fill="none" stroke="black" d="M259,-145.83C259,-137.89 259,-128.41 259,-119.63"/>
<polygon fill="black" stroke="black" points="262.5,-119.42 259,-109.42 255.5,-119.42 262.5,-119.42"/>
</g>
<!-- 13 -->
<g id="node14" class="node">
<title>13</title>
<polygon fill="none" stroke="black" points="394,-109 318,-109 318,-73 394,-73 394,-109"/>
<text text-anchor="middle" x="356" y="-87.3" font-family="Times,serif" font-size="14.00">class = red</text>
</g>
<!-- 11&#45;&gt;13 -->
<g id="edge13" class="edge">
<title>11&#45;&gt;13</title>
<path fill="none" stroke="black" d="M283.48,-145.83C296.03,-136.52 311.45,-125.07 324.84,-115.13"/>
<polygon fill="black" stroke="black" points="326.92,-117.94 332.87,-109.17 322.75,-112.32 326.92,-117.94"/>
</g>
</g>
</svg>
