<?xml version="1.0" encoding="UTF-8" standalone="no"?>
<!DOCTYPE svg PUBLIC "-//W3C//DTD SVG 1.1//EN"
 "http://www.w3.org/Graphics/SVG/1.1/DTD/svg11.dtd">
<!-- Generated by graphviz version 2.44.1 (20200629.0846)
 -->
<!-- Title: Tree Pages: 1 -->
<svg width="1877pt" height="636pt"
 viewBox="0.00 0.00 1877.00 636.00" xmlns="http://www.w3.org/2000/svg" xmlns:xlink="http://www.w3.org/1999/xlink">
<g id="graph0" class="graph" transform="scale(1 1) rotate(0) translate(4 632)">
<title>Tree</title>
<polygon fill="white" stroke="transparent" points="-4,4 -4,-632 1873,-632 1873,4 -4,4"/>
<!-- 0 -->
<g id="node1" class="node">
<title>0</title>
<polygon fill="none" stroke="black" points="593,-628 501,-628 501,-590 593,-590 593,-628"/>
<text text-anchor="middle" x="547" y="-612.8" font-family="Times,serif" font-size="14.00">lat &lt;= 37.682</text>
<text text-anchor="middle" x="547" y="-597.8" font-family="Times,serif" font-size="14.00">class = blue</text>
</g>
<!-- 1 -->
<g id="node2" class="node">
<title>1</title>
<polygon fill="none" stroke="black" points="363.5,-554 256.5,-554 256.5,-516 363.5,-516 363.5,-554"/>
<text text-anchor="middle" x="310" y="-538.8" font-family="Times,serif" font-size="14.00">lon &lt;= &#45;114.063</text>
<text text-anchor="middle" x="310" y="-523.8" font-family="Times,serif" font-size="14.00">class = red</text>
</g>
<!-- 0&#45;&gt;1 -->
<g id="edge1" class="edge">
<title>0&#45;&gt;1</title>
<path fill="none" stroke="black" d="M500.74,-593.95C464.4,-582.91 413.41,-567.41 373.29,-555.23"/>
<polygon fill="black" stroke="black" points="374.18,-551.84 363.6,-552.28 372.15,-558.54 374.18,-551.84"/>
<text text-anchor="middle" x="375.37" y="-570.64" font-family="Times,serif" font-size="14.00">True</text>
</g>
<!-- 24 -->
<g id="node25" class="node">
<title>24</title>
<polygon fill="none" stroke="black" points="903,-554 803,-554 803,-516 903,-516 903,-554"/>
<text text-anchor="middle" x="853" y="-538.8" font-family="Times,serif" font-size="14.00">lon &lt;= &#45;96.061</text>
<text text-anchor="middle" x="853" y="-523.8" font-family="Times,serif" font-size="14.00">class = blue</text>
</g>
<!-- 0&#45;&gt;24 -->
<g id="edge24" class="edge">
<title>0&#45;&gt;24</title>
<path fill="none" stroke="black" d="M593.14,-597.14C646.49,-584.59 734.45,-563.89 793.05,-550.11"/>
<polygon fill="black" stroke="black" points="793.98,-553.48 802.92,-547.78 792.38,-546.67 793.98,-553.48"/>
<text text-anchor="middle" x="789.76" y="-565.34" font-family="Times,serif" font-size="14.00">False</text>
</g>
<!-- 2 -->
<g id="node3" class="node">
<title>2</title>
<polygon fill="none" stroke="black" points="246,-479 164,-479 164,-443 246,-443 246,-479"/>
<text text-anchor="middle" x="205" y="-457.3" font-family="Times,serif" font-size="14.00">class = blue</text>
</g>
<!-- 1&#45;&gt;2 -->
<g id="edge2" class="edge">
<title>1&#45;&gt;2</title>
<path fill="none" stroke="black" d="M283.5,-515.83C269.79,-506.43 252.91,-494.86 238.33,-484.85"/>
<polygon fill="black" stroke="black" points="240.27,-481.94 230.04,-479.17 236.31,-487.71 240.27,-481.94"/>
</g>
<!-- 3 -->
<g id="node4" class="node">
<title>3</title>
<polygon fill="none" stroke="black" points="356,-480 264,-480 264,-442 356,-442 356,-480"/>
<text text-anchor="middle" x="310" y="-464.8" font-family="Times,serif" font-size="14.00">lat &lt;= 29.595</text>
<text text-anchor="middle" x="310" y="-449.8" font-family="Times,serif" font-size="14.00">class = red</text>
</g>
<!-- 1&#45;&gt;3 -->
<g id="edge3" class="edge">
<title>1&#45;&gt;3</title>
<path fill="none" stroke="black" d="M310,-515.83C310,-508.13 310,-498.97 310,-490.42"/>
<polygon fill="black" stroke="black" points="313.5,-490.41 310,-480.41 306.5,-490.41 313.5,-490.41"/>
</g>
<!-- 4 -->
<g id="node5" class="node">
<title>4</title>
<polygon fill="none" stroke="black" points="185,-406 85,-406 85,-368 185,-368 185,-406"/>
<text text-anchor="middle" x="135" y="-390.8" font-family="Times,serif" font-size="14.00">lon &lt;= &#45;90.074</text>
<text text-anchor="middle" x="135" y="-375.8" font-family="Times,serif" font-size="14.00">class = blue</text>
</g>
<!-- 3&#45;&gt;4 -->
<g id="edge4" class="edge">
<title>3&#45;&gt;4</title>
<path fill="none" stroke="black" d="M265.84,-441.83C242.23,-432.12 212.98,-420.08 188.13,-409.86"/>
<polygon fill="black" stroke="black" points="189.42,-406.61 178.84,-406.04 186.76,-413.08 189.42,-406.61"/>
</g>
<!-- 7 -->
<g id="node8" class="node">
<title>7</title>
<polygon fill="none" stroke="black" points="356,-406 264,-406 264,-368 356,-368 356,-406"/>
<text text-anchor="middle" x="310" y="-390.8" font-family="Times,serif" font-size="14.00">lat &lt;= 36.522</text>
<text text-anchor="middle" x="310" y="-375.8" font-family="Times,serif" font-size="14.00">class = red</text>
</g>
<!-- 3&#45;&gt;7 -->
<g id="edge7" class="edge">
<title>3&#45;&gt;7</title>
<path fill="none" stroke="black" d="M310,-441.83C310,-434.13 310,-424.97 310,-416.42"/>
<polygon fill="black" stroke="black" points="313.5,-416.41 310,-406.41 306.5,-416.41 313.5,-416.41"/>
</g>
<!-- 5 -->
<g id="node6" class="node">
<title>5</title>
<polygon fill="none" stroke="black" points="76,-331 0,-331 0,-295 76,-295 76,-331"/>
<text text-anchor="middle" x="38" y="-309.3" font-family="Times,serif" font-size="14.00">class = red</text>
</g>
<!-- 4&#45;&gt;5 -->
<g id="edge5" class="edge">
<title>4&#45;&gt;5</title>
<path fill="none" stroke="black" d="M110.52,-367.83C97.97,-358.52 82.55,-347.07 69.16,-337.13"/>
<polygon fill="black" stroke="black" points="71.25,-334.32 61.13,-331.17 67.08,-339.94 71.25,-334.32"/>
</g>
<!-- 6 -->
<g id="node7" class="node">
<title>6</title>
<polygon fill="none" stroke="black" points="176,-331 94,-331 94,-295 176,-295 176,-331"/>
<text text-anchor="middle" x="135" y="-309.3" font-family="Times,serif" font-size="14.00">class = blue</text>
</g>
<!-- 4&#45;&gt;6 -->
<g id="edge6" class="edge">
<title>4&#45;&gt;6</title>
<path fill="none" stroke="black" d="M135,-367.83C135,-359.89 135,-350.41 135,-341.63"/>
<polygon fill="black" stroke="black" points="138.5,-341.42 135,-331.42 131.5,-341.42 138.5,-341.42"/>
</g>
<!-- 8 -->
<g id="node9" class="node">
<title>8</title>
<polygon fill="none" stroke="black" points="301.5,-332 194.5,-332 194.5,-294 301.5,-294 301.5,-332"/>
<text text-anchor="middle" x="248" y="-316.8" font-family="Times,serif" font-size="14.00">lon &lt;= &#45;102.257</text>
<text text-anchor="middle" x="248" y="-301.8" font-family="Times,serif" font-size="14.00">class = red</text>
</g>
<!-- 7&#45;&gt;8 -->
<g id="edge8" class="edge">
<title>7&#45;&gt;8</title>
<path fill="none" stroke="black" d="M294.35,-367.83C287.14,-359.45 278.44,-349.35 270.54,-340.17"/>
<polygon fill="black" stroke="black" points="273.03,-337.71 263.86,-332.41 267.73,-342.27 273.03,-337.71"/>
</g>
<!-- 15 -->
<g id="node16" class="node">
<title>15</title>
<polygon fill="none" stroke="black" points="420,-332 320,-332 320,-294 420,-294 420,-332"/>
<text text-anchor="middle" x="370" y="-316.8" font-family="Times,serif" font-size="14.00">lon &lt;= &#45;82.415</text>
<text text-anchor="middle" x="370" y="-301.8" font-family="Times,serif" font-size="14.00">class = red</text>
</g>
<!-- 7&#45;&gt;15 -->
<g id="edge15" class="edge">
<title>7&#45;&gt;15</title>
<path fill="none" stroke="black" d="M325.14,-367.83C332.12,-359.45 340.54,-349.35 348.19,-340.17"/>
<polygon fill="black" stroke="black" points="350.94,-342.34 354.66,-332.41 345.56,-337.85 350.94,-342.34"/>
</g>
<!-- 9 -->
<g id="node10" class="node">
<title>9</title>
<polygon fill="none" stroke="black" points="191.5,-258 84.5,-258 84.5,-220 191.5,-220 191.5,-258"/>
<text text-anchor="middle" x="138" y="-242.8" font-family="Times,serif" font-size="14.00">lon &lt;= &#45;107.589</text>
<text text-anchor="middle" x="138" y="-227.8" font-family="Times,serif" font-size="14.00">class = red</text>
</g>
<!-- 8&#45;&gt;9 -->
<g id="edge9" class="edge">
<title>8&#45;&gt;9</title>
<path fill="none" stroke="black" d="M220.24,-293.83C206.3,-284.71 189.24,-273.54 174.28,-263.74"/>
<polygon fill="black" stroke="black" points="176.03,-260.71 165.75,-258.16 172.2,-266.57 176.03,-260.71"/>
</g>
<!-- 14 -->
<g id="node15" class="node">
<title>14</title>
<polygon fill="none" stroke="black" points="286,-257 210,-257 210,-221 286,-221 286,-257"/>
<text text-anchor="middle" x="248" y="-235.3" font-family="Times,serif" font-size="14.00">class = red</text>
</g>
<!-- 8&#45;&gt;14 -->
<g id="edge14" class="edge">
<title>8&#45;&gt;14</title>
<path fill="none" stroke="black" d="M248,-293.83C248,-285.89 248,-276.41 248,-267.63"/>
<polygon fill="black" stroke="black" points="251.5,-267.42 248,-257.42 244.5,-267.42 251.5,-267.42"/>
</g>
<!-- 10 -->
<g id="node11" class="node">
<title>10</title>
<polygon fill="none" stroke="black" points="85,-183 9,-183 9,-147 85,-147 85,-183"/>
<text text-anchor="middle" x="47" y="-161.3" font-family="Times,serif" font-size="14.00">class = red</text>
</g>
<!-- 9&#45;&gt;10 -->
<g id="edge10" class="edge">
<title>9&#45;&gt;10</title>
<path fill="none" stroke="black" d="M115.04,-219.83C103.38,-210.6 89.07,-199.29 76.59,-189.41"/>
<polygon fill="black" stroke="black" points="78.72,-186.63 68.7,-183.17 74.37,-192.12 78.72,-186.63"/>
</g>
<!-- 11 -->
<g id="node12" class="node">
<title>11</title>
<polygon fill="none" stroke="black" points="195,-184 103,-184 103,-146 195,-146 195,-184"/>
<text text-anchor="middle" x="149" y="-168.8" font-family="Times,serif" font-size="14.00">lat &lt;= 31.788</text>
<text text-anchor="middle" x="149" y="-153.8" font-family="Times,serif" font-size="14.00">class = blue</text>
</g>
<!-- 9&#45;&gt;11 -->
<g id="edge11" class="edge">
<title>9&#45;&gt;11</title>
<path fill="none" stroke="black" d="M140.78,-219.83C141.95,-212.13 143.35,-202.97 144.66,-194.42"/>
<polygon fill="black" stroke="black" points="148.14,-194.83 146.19,-184.41 141.22,-193.77 148.14,-194.83"/>
</g>
<!-- 12 -->
<g id="node13" class="node">
<title>12</title>
<polygon fill="none" stroke="black" points="139,-109 63,-109 63,-73 139,-73 139,-109"/>
<text text-anchor="middle" x="101" y="-87.3" font-family="Times,serif" font-size="14.00">class = red</text>
</g>
<!-- 11&#45;&gt;12 -->
<g id="edge12" class="edge">
<title>11&#45;&gt;12</title>
<path fill="none" stroke="black" d="M136.89,-145.83C131.25,-137.37 124.43,-127.15 118.27,-117.9"/>
<polygon fill="black" stroke="black" points="121.07,-115.8 112.61,-109.42 115.25,-119.68 121.07,-115.8"/>
</g>
<!-- 13 -->
<g id="node14" class="node">
<title>13</title>
<polygon fill="none" stroke="black" points="239,-109 157,-109 157,-73 239,-73 239,-109"/>
<text text-anchor="middle" x="198" y="-87.3" font-family="Times,serif" font-size="14.00">class = blue</text>
</g>
<!-- 11&#45;&gt;13 -->
<g id="edge13" class="edge">
<title>11&#45;&gt;13</title>
<path fill="none" stroke="black" d="M161.36,-145.83C167.12,-137.37 174.08,-127.15 180.37,-117.9"/>
<polygon fill="black" stroke="black" points="183.41,-119.65 186.15,-109.42 177.63,-115.72 183.41,-119.65"/>
</g>
<!-- 16 -->
<g id="node17" class="node">
<title>16</title>
<polygon fill="none" stroke="black" points="411.5,-258 304.5,-258 304.5,-220 411.5,-220 411.5,-258"/>
<text text-anchor="middle" x="358" y="-242.8" font-family="Times,serif" font-size="14.00">lon &lt;= &#45;100.922</text>
<text text-anchor="middle" x="358" y="-227.8" font-family="Times,serif" font-size="14.00">class = red</text>
</g>
<!-- 15&#45;&gt;16 -->
<g id="edge16" class="edge">
<title>15&#45;&gt;16</title>
<path fill="none" stroke="black" d="M366.97,-293.83C365.69,-286.13 364.16,-276.97 362.74,-268.42"/>
<polygon fill="black" stroke="black" points="366.17,-267.7 361.07,-258.41 359.26,-268.85 366.17,-267.7"/>
</g>
<!-- 19 -->
<g id="node20" class="node">
<title>19</title>
<polygon fill="none" stroke="black" points="530,-258 430,-258 430,-220 530,-220 530,-258"/>
<text text-anchor="middle" x="480" y="-242.8" font-family="Times,serif" font-size="14.00">lon &lt;= &#45;80.706</text>
<text text-anchor="middle" x="480" y="-227.8" font-family="Times,serif" font-size="14.00">class = blue</text>
</g>
<!-- 15&#45;&gt;19 -->
<g id="edge19" class="edge">
<title>15&#45;&gt;19</title>
<path fill="none" stroke="black" d="M397.76,-293.83C411.7,-284.71 428.76,-273.54 443.72,-263.74"/>
<polygon fill="black" stroke="black" points="445.8,-266.57 452.25,-258.16 441.97,-260.71 445.8,-266.57"/>
</g>
<!-- 17 -->
<g id="node18" class="node">
<title>17</title>
<polygon fill="none" stroke="black" points="304,-183 222,-183 222,-147 304,-147 304,-183"/>
<text text-anchor="middle" x="263" y="-161.3" font-family="Times,serif" font-size="14.00">class = blue</text>
</g>
<!-- 16&#45;&gt;17 -->
<g id="edge17" class="edge">
<title>16&#45;&gt;17</title>
<path fill="none" stroke="black" d="M334.03,-219.83C321.85,-210.6 306.92,-199.29 293.89,-189.41"/>
<polygon fill="black" stroke="black" points="295.74,-186.42 285.66,-183.17 291.51,-192 295.74,-186.42"/>
</g>
<!-- 18 -->
<g id="node19" class="node">
<title>18</title>
<polygon fill="none" stroke="black" points="398,-183 322,-183 322,-147 398,-147 398,-183"/>
<text text-anchor="middle" x="360" y="-161.3" font-family="Times,serif" font-size="14.00">class = red</text>
</g>
<!-- 16&#45;&gt;18 -->
<g id="edge18" class="edge">
<title>16&#45;&gt;18</title>
<path fill="none" stroke="black" d="M358.5,-219.83C358.73,-211.89 358.99,-202.41 359.23,-193.63"/>
<polygon fill="black" stroke="black" points="362.74,-193.51 359.52,-183.42 355.74,-193.32 362.74,-193.51"/>
</g>
<!-- 20 -->
<g id="node21" class="node">
<title>20</title>
<polygon fill="none" stroke="black" points="512.5,-184 427.5,-184 427.5,-146 512.5,-146 512.5,-184"/>
<text text-anchor="middle" x="470" y="-168.8" font-family="Times,serif" font-size="14.00">lat &lt;= 37.15</text>
<text text-anchor="middle" x="470" y="-153.8" font-family="Times,serif" font-size="14.00">class = blue</text>
</g>
<!-- 19&#45;&gt;20 -->
<g id="edge20" class="edge">
<title>19&#45;&gt;20</title>
<path fill="none" stroke="black" d="M477.48,-219.83C476.41,-212.13 475.14,-202.97 473.95,-194.42"/>
<polygon fill="black" stroke="black" points="477.4,-193.84 472.56,-184.41 470.47,-194.8 477.4,-193.84"/>
</g>
<!-- 23 -->
<g id="node24" class="node">
<title>23</title>
<polygon fill="none" stroke="black" points="613,-183 531,-183 531,-147 613,-147 613,-183"/>
<text text-anchor="middle" x="572" y="-161.3" font-family="Times,serif" font-size="14.00">class = blue</text>
</g>
<!-- 19&#45;&gt;23 -->
<g id="edge23" class="edge">
<title>19&#45;&gt;23</title>
<path fill="none" stroke="black" d="M503.22,-219.83C515.01,-210.6 529.47,-199.29 542.08,-189.41"/>
<polygon fill="black" stroke="black" points="544.34,-192.09 550.06,-183.17 540.03,-186.58 544.34,-192.09"/>
</g>
<!-- 21 -->
<g id="node22" class="node">
<title>21</title>
<polygon fill="none" stroke="black" points="463,-109 381,-109 381,-73 463,-73 463,-109"/>
<text text-anchor="middle" x="422" y="-87.3" font-family="Times,serif" font-size="14.00">class = blue</text>
</g>
<!-- 20&#45;&gt;21 -->
<g id="edge21" class="edge">
<title>20&#45;&gt;21</title>
<path fill="none" stroke="black" d="M457.89,-145.83C452.25,-137.37 445.43,-127.15 439.27,-117.9"/>
<polygon fill="black" stroke="black" points="442.07,-115.8 433.61,-109.42 436.25,-119.68 442.07,-115.8"/>
</g>
<!-- 22 -->
<g id="node23" class="node">
<title>22</title>
<polygon fill="none" stroke="black" points="557,-109 481,-109 481,-73 557,-73 557,-109"/>
<text text-anchor="middle" x="519" y="-87.3" font-family="Times,serif" font-size="14.00">class = red</text>
</g>
<!-- 20&#45;&gt;22 -->
<g id="edge22" class="edge">
<title>20&#45;&gt;22</title>
<path fill="none" stroke="black" d="M482.36,-145.83C488.12,-137.37 495.08,-127.15 501.37,-117.9"/>
<polygon fill="black" stroke="black" points="504.41,-119.65 507.15,-109.42 498.63,-115.72 504.41,-119.65"/>
</g>
<!-- 25 -->
<g id="node26" class="node">
<title>25</title>
<polygon fill="none" stroke="black" points="906.5,-480 799.5,-480 799.5,-442 906.5,-442 906.5,-480"/>
<text text-anchor="middle" x="853" y="-464.8" font-family="Times,serif" font-size="14.00">lon &lt;= &#45;104.089</text>
<text text-anchor="middle" x="853" y="-449.8" font-family="Times,serif" font-size="14.00">class = red</text>
</g>
<!-- 24&#45;&gt;25 -->
<g id="edge25" class="edge">
<title>24&#45;&gt;25</title>
<path fill="none" stroke="black" d="M853,-515.83C853,-508.13 853,-498.97 853,-490.42"/>
<polygon fill="black" stroke="black" points="856.5,-490.41 853,-480.41 849.5,-490.41 856.5,-490.41"/>
</g>
<!-- 42 -->
<g id="node43" class="node">
<title>42</title>
<polygon fill="none" stroke="black" points="1467,-480 1375,-480 1375,-442 1467,-442 1467,-480"/>
<text text-anchor="middle" x="1421" y="-464.8" font-family="Times,serif" font-size="14.00">lat &lt;= 39.759</text>
<text text-anchor="middle" x="1421" y="-449.8" font-family="Times,serif" font-size="14.00">class = blue</text>
</g>
<!-- 24&#45;&gt;42 -->
<g id="edge42" class="edge">
<title>24&#45;&gt;42</title>
<path fill="none" stroke="black" d="M903.41,-527.61C1009.25,-514.19 1253.97,-483.17 1364.73,-469.13"/>
<polygon fill="black" stroke="black" points="1365.23,-472.6 1374.71,-467.87 1364.35,-465.65 1365.23,-472.6"/>
</g>
<!-- 26 -->
<g id="node27" class="node">
<title>26</title>
<polygon fill="none" stroke="black" points="842,-406 750,-406 750,-368 842,-368 842,-406"/>
<text text-anchor="middle" x="796" y="-390.8" font-family="Times,serif" font-size="14.00">lat &lt;= 41.895</text>
<text text-anchor="middle" x="796" y="-375.8" font-family="Times,serif" font-size="14.00">class = blue</text>
</g>
<!-- 25&#45;&gt;26 -->
<g id="edge26" class="edge">
<title>25&#45;&gt;26</title>
<path fill="none" stroke="black" d="M838.62,-441.83C832.05,-433.54 824.15,-423.56 816.94,-414.45"/>
<polygon fill="black" stroke="black" points="819.53,-412.08 810.58,-406.41 814.04,-416.43 819.53,-412.08"/>
</g>
<!-- 37 -->
<g id="node38" class="node">
<title>37</title>
<polygon fill="none" stroke="black" points="960,-406 860,-406 860,-368 960,-368 960,-406"/>
<text text-anchor="middle" x="910" y="-390.8" font-family="Times,serif" font-size="14.00">lon &lt;= &#45;96.557</text>
<text text-anchor="middle" x="910" y="-375.8" font-family="Times,serif" font-size="14.00">class = red</text>
</g>
<!-- 25&#45;&gt;37 -->
<g id="edge37" class="edge">
<title>25&#45;&gt;37</title>
<path fill="none" stroke="black" d="M867.38,-441.83C873.95,-433.54 881.85,-423.56 889.06,-414.45"/>
<polygon fill="black" stroke="black" points="891.96,-416.43 895.42,-406.41 886.47,-412.08 891.96,-416.43"/>
</g>
<!-- 27 -->
<g id="node28" class="node">
<title>27</title>
<polygon fill="none" stroke="black" points="742.5,-332 635.5,-332 635.5,-294 742.5,-294 742.5,-332"/>
<text text-anchor="middle" x="689" y="-316.8" font-family="Times,serif" font-size="14.00">lon &lt;= &#45;113.872</text>
<text text-anchor="middle" x="689" y="-301.8" font-family="Times,serif" font-size="14.00">class = blue</text>
</g>
<!-- 26&#45;&gt;27 -->
<g id="edge27" class="edge">
<title>26&#45;&gt;27</title>
<path fill="none" stroke="black" d="M769,-367.83C755.57,-358.79 739.15,-347.75 724.7,-338.02"/>
<polygon fill="black" stroke="black" points="726.24,-334.84 715.99,-332.16 722.33,-340.65 726.24,-334.84"/>
</g>
<!-- 32 -->
<g id="node33" class="node">
<title>32</title>
<polygon fill="none" stroke="black" points="845.5,-332 760.5,-332 760.5,-294 845.5,-294 845.5,-332"/>
<text text-anchor="middle" x="803" y="-316.8" font-family="Times,serif" font-size="14.00">lat &lt;= 45.33</text>
<text text-anchor="middle" x="803" y="-301.8" font-family="Times,serif" font-size="14.00">class = red</text>
</g>
<!-- 26&#45;&gt;32 -->
<g id="edge32" class="edge">
<title>26&#45;&gt;32</title>
<path fill="none" stroke="black" d="M797.77,-367.83C798.52,-360.13 799.41,-350.97 800.24,-342.42"/>
<polygon fill="black" stroke="black" points="803.73,-342.71 801.21,-332.41 796.76,-342.03 803.73,-342.71"/>
</g>
<!-- 28 -->
<g id="node29" class="node">
<title>28</title>
<polygon fill="none" stroke="black" points="630,-257 548,-257 548,-221 630,-221 630,-257"/>
<text text-anchor="middle" x="589" y="-235.3" font-family="Times,serif" font-size="14.00">class = blue</text>
</g>
<!-- 27&#45;&gt;28 -->
<g id="edge28" class="edge">
<title>27&#45;&gt;28</title>
<path fill="none" stroke="black" d="M663.77,-293.83C650.83,-284.52 634.93,-273.07 621.13,-263.13"/>
<polygon fill="black" stroke="black" points="623.01,-260.17 612.85,-257.17 618.92,-265.85 623.01,-260.17"/>
</g>
<!-- 29 -->
<g id="node30" class="node">
<title>29</title>
<polygon fill="none" stroke="black" points="740,-258 648,-258 648,-220 740,-220 740,-258"/>
<text text-anchor="middle" x="694" y="-242.8" font-family="Times,serif" font-size="14.00">lat &lt;= 38.917</text>
<text text-anchor="middle" x="694" y="-227.8" font-family="Times,serif" font-size="14.00">class = blue</text>
</g>
<!-- 27&#45;&gt;29 -->
<g id="edge29" class="edge">
<title>27&#45;&gt;29</title>
<path fill="none" stroke="black" d="M690.26,-293.83C690.8,-286.13 691.43,-276.97 692.03,-268.42"/>
<polygon fill="black" stroke="black" points="695.52,-268.63 692.72,-258.41 688.54,-268.15 695.52,-268.63"/>
</g>
<!-- 30 -->
<g id="node31" class="node">
<title>30</title>
<polygon fill="none" stroke="black" points="720,-183 644,-183 644,-147 720,-147 720,-183"/>
<text text-anchor="middle" x="682" y="-161.3" font-family="Times,serif" font-size="14.00">class = red</text>
</g>
<!-- 29&#45;&gt;30 -->
<g id="edge30" class="edge">
<title>29&#45;&gt;30</title>
<path fill="none" stroke="black" d="M690.97,-219.83C689.63,-211.81 688.03,-202.2 686.56,-193.34"/>
<polygon fill="black" stroke="black" points="690,-192.71 684.9,-183.42 683.09,-193.86 690,-192.71"/>
</g>
<!-- 31 -->
<g id="node32" class="node">
<title>31</title>
<polygon fill="none" stroke="black" points="820,-183 738,-183 738,-147 820,-147 820,-183"/>
<text text-anchor="middle" x="779" y="-161.3" font-family="Times,serif" font-size="14.00">class = blue</text>
</g>
<!-- 29&#45;&gt;31 -->
<g id="edge31" class="edge">
<title>29&#45;&gt;31</title>
<path fill="none" stroke="black" d="M715.45,-219.83C726.24,-210.69 739.45,-199.5 751.02,-189.7"/>
<polygon fill="black" stroke="black" points="753.36,-192.31 758.73,-183.17 748.84,-186.96 753.36,-192.31"/>
</g>
<!-- 33 -->
<g id="node34" class="node">
<title>33</title>
<polygon fill="none" stroke="black" points="834,-257 758,-257 758,-221 834,-221 834,-257"/>
<text text-anchor="middle" x="796" y="-235.3" font-family="Times,serif" font-size="14.00">class = red</text>
</g>
<!-- 32&#45;&gt;33 -->
<g id="edge33" class="edge">
<title>32&#45;&gt;33</title>
<path fill="none" stroke="black" d="M801.23,-293.83C800.46,-285.89 799.54,-276.41 798.69,-267.63"/>
<polygon fill="black" stroke="black" points="802.14,-267.03 797.69,-257.42 795.18,-267.71 802.14,-267.03"/>
</g>
<!-- 34 -->
<g id="node35" class="node">
<title>34</title>
<polygon fill="none" stroke="black" points="944,-258 852,-258 852,-220 944,-220 944,-258"/>
<text text-anchor="middle" x="898" y="-242.8" font-family="Times,serif" font-size="14.00">lat &lt;= 50.907</text>
<text text-anchor="middle" x="898" y="-227.8" font-family="Times,serif" font-size="14.00">class = blue</text>
</g>
<!-- 32&#45;&gt;34 -->
<g id="edge34" class="edge">
<title>32&#45;&gt;34</title>
<path fill="none" stroke="black" d="M826.97,-293.83C838.79,-284.88 853.2,-273.96 865.94,-264.3"/>
<polygon fill="black" stroke="black" points="868.18,-266.99 874.04,-258.16 863.95,-261.41 868.18,-266.99"/>
</g>
<!-- 35 -->
<g id="node36" class="node">
<title>35</title>
<polygon fill="none" stroke="black" points="927,-183 845,-183 845,-147 927,-147 927,-183"/>
<text text-anchor="middle" x="886" y="-161.3" font-family="Times,serif" font-size="14.00">class = blue</text>
</g>
<!-- 34&#45;&gt;35 -->
<g id="edge35" class="edge">
<title>34&#45;&gt;35</title>
<path fill="none" stroke="black" d="M894.97,-219.83C893.63,-211.81 892.03,-202.2 890.56,-193.34"/>
<polygon fill="black" stroke="black" points="894,-192.71 888.9,-183.42 887.09,-193.86 894,-192.71"/>
</g>
<!-- 36 -->
<g id="node37" class="node">
<title>36</title>
<polygon fill="none" stroke="black" points="1021,-183 945,-183 945,-147 1021,-147 1021,-183"/>
<text text-anchor="middle" x="983" y="-161.3" font-family="Times,serif" font-size="14.00">class = red</text>
</g>
<!-- 34&#45;&gt;36 -->
<g id="edge36" class="edge">
<title>34&#45;&gt;36</title>
<path fill="none" stroke="black" d="M919.45,-219.83C930.24,-210.69 943.45,-199.5 955.02,-189.7"/>
<polygon fill="black" stroke="black" points="957.36,-192.31 962.73,-183.17 952.84,-186.96 957.36,-192.31"/>
</g>
<!-- 38 -->
<g id="node39" class="node">
<title>38</title>
<polygon fill="none" stroke="black" points="941,-331 865,-331 865,-295 941,-295 941,-331"/>
<text text-anchor="middle" x="903" y="-309.3" font-family="Times,serif" font-size="14.00">class = red</text>
</g>
<!-- 37&#45;&gt;38 -->
<g id="edge38" class="edge">
<title>37&#45;&gt;38</title>
<path fill="none" stroke="black" d="M908.23,-367.83C907.46,-359.89 906.54,-350.41 905.69,-341.63"/>
<polygon fill="black" stroke="black" points="909.14,-341.03 904.69,-331.42 902.18,-341.71 909.14,-341.03"/>
</g>
<!-- 39 -->
<g id="node40" class="node">
<title>39</title>
<polygon fill="none" stroke="black" points="1051,-332 959,-332 959,-294 1051,-294 1051,-332"/>
<text text-anchor="middle" x="1005" y="-316.8" font-family="Times,serif" font-size="14.00">lat &lt;= 42.007</text>
<text text-anchor="middle" x="1005" y="-301.8" font-family="Times,serif" font-size="14.00">class = blue</text>
</g>
<!-- 37&#45;&gt;39 -->
<g id="edge39" class="edge">
<title>37&#45;&gt;39</title>
<path fill="none" stroke="black" d="M933.97,-367.83C945.79,-358.88 960.2,-347.96 972.94,-338.3"/>
<polygon fill="black" stroke="black" points="975.18,-340.99 981.04,-332.16 970.95,-335.41 975.18,-340.99"/>
</g>
<!-- 40 -->
<g id="node41" class="node">
<title>40</title>
<polygon fill="none" stroke="black" points="1038,-257 962,-257 962,-221 1038,-221 1038,-257"/>
<text text-anchor="middle" x="1000" y="-235.3" font-family="Times,serif" font-size="14.00">class = red</text>
</g>
<!-- 39&#45;&gt;40 -->
<g id="edge40" class="edge">
<title>39&#45;&gt;40</title>
<path fill="none" stroke="black" d="M1003.74,-293.83C1003.19,-285.89 1002.53,-276.41 1001.92,-267.63"/>
<polygon fill="black" stroke="black" points="1005.39,-267.15 1001.21,-257.42 998.41,-267.64 1005.39,-267.15"/>
</g>
<!-- 41 -->
<g id="node42" class="node">
<title>41</title>
<polygon fill="none" stroke="black" points="1138,-257 1056,-257 1056,-221 1138,-221 1138,-257"/>
<text text-anchor="middle" x="1097" y="-235.3" font-family="Times,serif" font-size="14.00">class = blue</text>
</g>
<!-- 39&#45;&gt;41 -->
<g id="edge41" class="edge">
<title>39&#45;&gt;41</title>
<path fill="none" stroke="black" d="M1028.22,-293.83C1040.01,-284.6 1054.47,-273.29 1067.08,-263.41"/>
<polygon fill="black" stroke="black" points="1069.34,-266.09 1075.06,-257.17 1065.03,-260.58 1069.34,-266.09"/>
</g>
<!-- 43 -->
<g id="node44" class="node">
<title>43</title>
<polygon fill="none" stroke="black" points="1471,-406 1371,-406 1371,-368 1471,-368 1471,-406"/>
<text text-anchor="middle" x="1421" y="-390.8" font-family="Times,serif" font-size="14.00">lon &lt;= &#45;79.773</text>
<text text-anchor="middle" x="1421" y="-375.8" font-family="Times,serif" font-size="14.00">class = blue</text>
</g>
<!-- 42&#45;&gt;43 -->
<g id="edge43" class="edge">
<title>42&#45;&gt;43</title>
<path fill="none" stroke="black" d="M1421,-441.83C1421,-434.13 1421,-424.97 1421,-416.42"/>
<polygon fill="black" stroke="black" points="1424.5,-416.41 1421,-406.41 1417.5,-416.41 1424.5,-416.41"/>
</g>
<!-- 62 -->
<g id="node63" class="node">
<title>62</title>
<polygon fill="none" stroke="black" points="1769,-406 1669,-406 1669,-368 1769,-368 1769,-406"/>
<text text-anchor="middle" x="1719" y="-390.8" font-family="Times,serif" font-size="14.00">lon &lt;= &#45;84.905</text>
<text text-anchor="middle" x="1719" y="-375.8" font-family="Times,serif" font-size="14.00">class = blue</text>
</g>
<!-- 42&#45;&gt;62 -->
<g id="edge62" class="edge">
<title>42&#45;&gt;62</title>
<path fill="none" stroke="black" d="M1467.24,-448.83C1518.82,-436.36 1602.45,-416.16 1659.03,-402.49"/>
<polygon fill="black" stroke="black" points="1660.02,-405.85 1668.92,-400.1 1658.38,-399.05 1660.02,-405.85"/>
</g>
<!-- 44 -->
<g id="node45" class="node">
<title>44</title>
<polygon fill="none" stroke="black" points="1395,-332 1295,-332 1295,-294 1395,-294 1395,-332"/>
<text text-anchor="middle" x="1345" y="-316.8" font-family="Times,serif" font-size="14.00">lon &lt;= &#45;87.643</text>
<text text-anchor="middle" x="1345" y="-301.8" font-family="Times,serif" font-size="14.00">class = red</text>
</g>
<!-- 43&#45;&gt;44 -->
<g id="edge44" class="edge">
<title>43&#45;&gt;44</title>
<path fill="none" stroke="black" d="M1401.82,-367.83C1392.64,-359.13 1381.5,-348.58 1371.52,-339.13"/>
<polygon fill="black" stroke="black" points="1373.84,-336.5 1364.17,-332.16 1369.02,-341.58 1373.84,-336.5"/>
</g>
<!-- 57 -->
<g id="node58" class="node">
<title>57</title>
<polygon fill="none" stroke="black" points="1551,-332 1451,-332 1451,-294 1551,-294 1551,-332"/>
<text text-anchor="middle" x="1501" y="-316.8" font-family="Times,serif" font-size="14.00">lon &lt;= &#45;78.395</text>
<text text-anchor="middle" x="1501" y="-301.8" font-family="Times,serif" font-size="14.00">class = blue</text>
</g>
<!-- 43&#45;&gt;57 -->
<g id="edge57" class="edge">
<title>43&#45;&gt;57</title>
<path fill="none" stroke="black" d="M1441.19,-367.83C1450.85,-359.13 1462.58,-348.58 1473.08,-339.13"/>
<polygon fill="black" stroke="black" points="1475.73,-341.45 1480.82,-332.16 1471.04,-336.25 1475.73,-341.45"/>
</g>
<!-- 45 -->
<g id="node46" class="node">
<title>45</title>
<polygon fill="none" stroke="black" points="1249.5,-258 1156.5,-258 1156.5,-220 1249.5,-220 1249.5,-258"/>
<text text-anchor="middle" x="1203" y="-242.8" font-family="Times,serif" font-size="14.00">lon &lt;= &#45;90.12</text>
<text text-anchor="middle" x="1203" y="-227.8" font-family="Times,serif" font-size="14.00">class = blue</text>
</g>
<!-- 44&#45;&gt;45 -->
<g id="edge45" class="edge">
<title>44&#45;&gt;45</title>
<path fill="none" stroke="black" d="M1309.17,-293.83C1290.58,-284.41 1267.7,-272.81 1247.94,-262.79"/>
<polygon fill="black" stroke="black" points="1249.32,-259.56 1238.82,-258.16 1246.16,-265.81 1249.32,-259.56"/>
</g>
<!-- 52 -->
<g id="node53" class="node">
<title>52</title>
<polygon fill="none" stroke="black" points="1391,-258 1299,-258 1299,-220 1391,-220 1391,-258"/>
<text text-anchor="middle" x="1345" y="-242.8" font-family="Times,serif" font-size="14.00">lat &lt;= 38.562</text>
<text text-anchor="middle" x="1345" y="-227.8" font-family="Times,serif" font-size="14.00">class = red</text>
</g>
<!-- 44&#45;&gt;52 -->
<g id="edge52" class="edge">
<title>44&#45;&gt;52</title>
<path fill="none" stroke="black" d="M1345,-293.83C1345,-286.13 1345,-276.97 1345,-268.42"/>
<polygon fill="black" stroke="black" points="1348.5,-268.41 1345,-258.41 1341.5,-268.41 1348.5,-268.41"/>
</g>
<!-- 46 -->
<g id="node47" class="node">
<title>46</title>
<polygon fill="none" stroke="black" points="1142,-184 1042,-184 1042,-146 1142,-146 1142,-184"/>
<text text-anchor="middle" x="1092" y="-168.8" font-family="Times,serif" font-size="14.00">lon &lt;= &#45;90.841</text>
<text text-anchor="middle" x="1092" y="-153.8" font-family="Times,serif" font-size="14.00">class = red</text>
</g>
<!-- 45&#45;&gt;46 -->
<g id="edge46" class="edge">
<title>45&#45;&gt;46</title>
<path fill="none" stroke="black" d="M1174.99,-219.83C1160.92,-210.71 1143.71,-199.54 1128.61,-189.74"/>
<polygon fill="black" stroke="black" points="1130.3,-186.67 1120,-184.16 1126.49,-192.54 1130.3,-186.67"/>
</g>
<!-- 51 -->
<g id="node52" class="node">
<title>51</title>
<polygon fill="none" stroke="black" points="1242,-183 1160,-183 1160,-147 1242,-147 1242,-183"/>
<text text-anchor="middle" x="1201" y="-161.3" font-family="Times,serif" font-size="14.00">class = blue</text>
</g>
<!-- 45&#45;&gt;51 -->
<g id="edge51" class="edge">
<title>45&#45;&gt;51</title>
<path fill="none" stroke="black" d="M1202.5,-219.83C1202.27,-211.89 1202.01,-202.41 1201.77,-193.63"/>
<polygon fill="black" stroke="black" points="1205.26,-193.32 1201.48,-183.42 1198.26,-193.51 1205.26,-193.32"/>
</g>
<!-- 47 -->
<g id="node48" class="node">
<title>47</title>
<polygon fill="none" stroke="black" points="1077,-109 1001,-109 1001,-73 1077,-73 1077,-109"/>
<text text-anchor="middle" x="1039" y="-87.3" font-family="Times,serif" font-size="14.00">class = red</text>
</g>
<!-- 46&#45;&gt;47 -->
<g id="edge47" class="edge">
<title>46&#45;&gt;47</title>
<path fill="none" stroke="black" d="M1078.63,-145.83C1072.33,-137.28 1064.72,-126.94 1057.86,-117.62"/>
<polygon fill="black" stroke="black" points="1060.57,-115.4 1051.82,-109.42 1054.93,-119.55 1060.57,-115.4"/>
</g>
<!-- 48 -->
<g id="node49" class="node">
<title>48</title>
<polygon fill="none" stroke="black" points="1195,-110 1095,-110 1095,-72 1195,-72 1195,-110"/>
<text text-anchor="middle" x="1145" y="-94.8" font-family="Times,serif" font-size="14.00">lon &lt;= &#45;90.327</text>
<text text-anchor="middle" x="1145" y="-79.8" font-family="Times,serif" font-size="14.00">class = blue</text>
</g>
<!-- 46&#45;&gt;48 -->
<g id="edge48" class="edge">
<title>46&#45;&gt;48</title>
<path fill="none" stroke="black" d="M1105.37,-145.83C1111.42,-137.62 1118.68,-127.76 1125.32,-118.73"/>
<polygon fill="black" stroke="black" points="1128.34,-120.54 1131.45,-110.41 1122.7,-116.39 1128.34,-120.54"/>
</g>
<!-- 49 -->
<g id="node50" class="node">
<title>49</title>
<polygon fill="none" stroke="black" points="1138,-36 1056,-36 1056,0 1138,0 1138,-36"/>
<text text-anchor="middle" x="1097" y="-14.3" font-family="Times,serif" font-size="14.00">class = blue</text>
</g>
<!-- 48&#45;&gt;49 -->
<g id="edge49" class="edge">
<title>48&#45;&gt;49</title>
<path fill="none" stroke="black" d="M1132.64,-71.72C1127,-63.37 1120.22,-53.35 1114.1,-44.3"/>
<polygon fill="black" stroke="black" points="1117,-42.33 1108.5,-36 1111.2,-46.25 1117,-42.33"/>
</g>
<!-- 50 -->
<g id="node51" class="node">
<title>50</title>
<polygon fill="none" stroke="black" points="1232,-36 1156,-36 1156,0 1232,0 1232,-36"/>
<text text-anchor="middle" x="1194" y="-14.3" font-family="Times,serif" font-size="14.00">class = red</text>
</g>
<!-- 48&#45;&gt;50 -->
<g id="edge50" class="edge">
<title>48&#45;&gt;50</title>
<path fill="none" stroke="black" d="M1157.62,-71.72C1163.38,-63.37 1170.29,-53.35 1176.54,-44.3"/>
<polygon fill="black" stroke="black" points="1179.47,-46.22 1182.27,-36 1173.7,-42.25 1179.47,-46.22"/>
</g>
<!-- 53 -->
<g id="node54" class="node">
<title>53</title>
<polygon fill="none" stroke="black" points="1352,-184 1260,-184 1260,-146 1352,-146 1352,-184"/>
<text text-anchor="middle" x="1306" y="-168.8" font-family="Times,serif" font-size="14.00">lat &lt;= 38.324</text>
<text text-anchor="middle" x="1306" y="-153.8" font-family="Times,serif" font-size="14.00">class = red</text>
</g>
<!-- 52&#45;&gt;53 -->
<g id="edge53" class="edge">
<title>52&#45;&gt;53</title>
<path fill="none" stroke="black" d="M1335.16,-219.83C1330.8,-211.79 1325.59,-202.17 1320.78,-193.29"/>
<polygon fill="black" stroke="black" points="1323.81,-191.54 1315.97,-184.41 1317.66,-194.87 1323.81,-191.54"/>
</g>
<!-- 56 -->
<g id="node57" class="node">
<title>56</title>
<polygon fill="none" stroke="black" points="1446,-183 1370,-183 1370,-147 1446,-147 1446,-183"/>
<text text-anchor="middle" x="1408" y="-161.3" font-family="Times,serif" font-size="14.00">class = red</text>
</g>
<!-- 52&#45;&gt;56 -->
<g id="edge56" class="edge">
<title>52&#45;&gt;56</title>
<path fill="none" stroke="black" d="M1360.9,-219.83C1368.53,-211.11 1377.8,-200.52 1386.08,-191.05"/>
<polygon fill="black" stroke="black" points="1388.81,-193.25 1392.76,-183.42 1383.54,-188.64 1388.81,-193.25"/>
</g>
<!-- 54 -->
<g id="node55" class="node">
<title>54</title>
<polygon fill="none" stroke="black" points="1343,-109 1267,-109 1267,-73 1343,-73 1343,-109"/>
<text text-anchor="middle" x="1305" y="-87.3" font-family="Times,serif" font-size="14.00">class = red</text>
</g>
<!-- 53&#45;&gt;54 -->
<g id="edge54" class="edge">
<title>53&#45;&gt;54</title>
<path fill="none" stroke="black" d="M1305.75,-145.83C1305.64,-137.89 1305.51,-128.41 1305.38,-119.63"/>
<polygon fill="black" stroke="black" points="1308.88,-119.37 1305.24,-109.42 1301.88,-119.47 1308.88,-119.37"/>
</g>
<!-- 55 -->
<g id="node56" class="node">
<title>55</title>
<polygon fill="none" stroke="black" points="1443,-109 1361,-109 1361,-73 1443,-73 1443,-109"/>
<text text-anchor="middle" x="1402" y="-87.3" font-family="Times,serif" font-size="14.00">class = blue</text>
</g>
<!-- 53&#45;&gt;55 -->
<g id="edge55" class="edge">
<title>53&#45;&gt;55</title>
<path fill="none" stroke="black" d="M1330.22,-145.83C1342.53,-136.6 1357.62,-125.29 1370.78,-115.41"/>
<polygon fill="black" stroke="black" points="1373.2,-117.97 1379.1,-109.17 1369,-112.37 1373.2,-117.97"/>
</g>
<!-- 58 -->
<g id="node59" class="node">
<title>58</title>
<polygon fill="none" stroke="black" points="1551,-258 1451,-258 1451,-220 1551,-220 1551,-258"/>
<text text-anchor="middle" x="1501" y="-242.8" font-family="Times,serif" font-size="14.00">lon &lt;= &#45;78.878</text>
<text text-anchor="middle" x="1501" y="-227.8" font-family="Times,serif" font-size="14.00">class = blue</text>
</g>
<!-- 57&#45;&gt;58 -->
<g id="edge58" class="edge">
<title>57&#45;&gt;58</title>
<path fill="none" stroke="black" d="M1501,-293.83C1501,-286.13 1501,-276.97 1501,-268.42"/>
<polygon fill="black" stroke="black" points="1504.5,-268.41 1501,-258.41 1497.5,-268.41 1504.5,-268.41"/>
</g>
<!-- 61 -->
<g id="node62" class="node">
<title>61</title>
<polygon fill="none" stroke="black" points="1651,-257 1569,-257 1569,-221 1651,-221 1651,-257"/>
<text text-anchor="middle" x="1610" y="-235.3" font-family="Times,serif" font-size="14.00">class = blue</text>
</g>
<!-- 57&#45;&gt;61 -->
<g id="edge61" class="edge">
<title>57&#45;&gt;61</title>
<path fill="none" stroke="black" d="M1528.51,-293.83C1542.74,-284.43 1560.26,-272.86 1575.41,-262.85"/>
<polygon fill="black" stroke="black" points="1577.59,-265.6 1584,-257.17 1573.73,-259.76 1577.59,-265.6"/>
</g>
<!-- 59 -->
<g id="node60" class="node">
<title>59</title>
<polygon fill="none" stroke="black" points="1546,-183 1464,-183 1464,-147 1546,-147 1546,-183"/>
<text text-anchor="middle" x="1505" y="-161.3" font-family="Times,serif" font-size="14.00">class = blue</text>
</g>
<!-- 58&#45;&gt;59 -->
<g id="edge59" class="edge">
<title>58&#45;&gt;59</title>
<path fill="none" stroke="black" d="M1502.01,-219.83C1502.45,-211.89 1502.98,-202.41 1503.47,-193.63"/>
<polygon fill="black" stroke="black" points="1506.97,-193.6 1504.03,-183.42 1499.98,-193.21 1506.97,-193.6"/>
</g>
<!-- 60 -->
<g id="node61" class="node">
<title>60</title>
<polygon fill="none" stroke="black" points="1640,-183 1564,-183 1564,-147 1640,-147 1640,-183"/>
<text text-anchor="middle" x="1602" y="-161.3" font-family="Times,serif" font-size="14.00">class = red</text>
</g>
<!-- 58&#45;&gt;60 -->
<g id="edge60" class="edge">
<title>58&#45;&gt;60</title>
<path fill="none" stroke="black" d="M1526.49,-219.83C1539.55,-210.52 1555.61,-199.07 1569.55,-189.13"/>
<polygon fill="black" stroke="black" points="1571.8,-191.83 1577.91,-183.17 1567.74,-186.13 1571.8,-191.83"/>
</g>
<!-- 63 -->
<g id="node64" class="node">
<title>63</title>
<polygon fill="none" stroke="black" points="1765,-332 1673,-332 1673,-294 1765,-294 1765,-332"/>
<text text-anchor="middle" x="1719" y="-316.8" font-family="Times,serif" font-size="14.00">lat &lt;= 41.739</text>
<text text-anchor="middle" x="1719" y="-301.8" font-family="Times,serif" font-size="14.00">class = blue</text>
</g>
<!-- 62&#45;&gt;63 -->
<g id="edge63" class="edge">
<title>62&#45;&gt;63</title>
<path fill="none" stroke="black" d="M1719,-367.83C1719,-360.13 1719,-350.97 1719,-342.42"/>
<polygon fill="black" stroke="black" points="1722.5,-342.41 1719,-332.41 1715.5,-342.41 1722.5,-342.41"/>
</g>
<!-- 72 -->
<g id="node73" class="node">
<title>72</title>
<polygon fill="none" stroke="black" points="1865,-331 1783,-331 1783,-295 1865,-295 1865,-331"/>
<text text-anchor="middle" x="1824" y="-309.3" font-family="Times,serif" font-size="14.00">class = blue</text>
</g>
<!-- 62&#45;&gt;72 -->
<g id="edge72" class="edge">
<title>62&#45;&gt;72</title>
<path fill="none" stroke="black" d="M1745.5,-367.83C1759.21,-358.43 1776.09,-346.86 1790.67,-336.85"/>
<polygon fill="black" stroke="black" points="1792.69,-339.71 1798.96,-331.17 1788.73,-333.94 1792.69,-339.71"/>
</g>
<!-- 64 -->
<g id="node65" class="node">
<title>64</title>
<polygon fill="none" stroke="black" points="1769,-258 1669,-258 1669,-220 1769,-220 1769,-258"/>
<text text-anchor="middle" x="1719" y="-242.8" font-family="Times,serif" font-size="14.00">lon &lt;= &#45;87.697</text>
<text text-anchor="middle" x="1719" y="-227.8" font-family="Times,serif" font-size="14.00">class = blue</text>
</g>
<!-- 63&#45;&gt;64 -->
<g id="edge64" class="edge">
<title>63&#45;&gt;64</title>
<path fill="none" stroke="black" d="M1719,-293.83C1719,-286.13 1719,-276.97 1719,-268.42"/>
<polygon fill="black" stroke="black" points="1722.5,-268.41 1719,-258.41 1715.5,-268.41 1722.5,-268.41"/>
</g>
<!-- 71 -->
<g id="node72" class="node">
<title>71</title>
<polygon fill="none" stroke="black" points="1869,-257 1787,-257 1787,-221 1869,-221 1869,-257"/>
<text text-anchor="middle" x="1828" y="-235.3" font-family="Times,serif" font-size="14.00">class = blue</text>
</g>
<!-- 63&#45;&gt;71 -->
<g id="edge71" class="edge">
<title>63&#45;&gt;71</title>
<path fill="none" stroke="black" d="M1746.51,-293.83C1760.74,-284.43 1778.26,-272.86 1793.41,-262.85"/>
<polygon fill="black" stroke="black" points="1795.59,-265.6 1802,-257.17 1791.73,-259.76 1795.59,-265.6"/>
</g>
<!-- 65 -->
<g id="node66" class="node">
<title>65</title>
<polygon fill="none" stroke="black" points="1765,-184 1665,-184 1665,-146 1765,-146 1765,-184"/>
<text text-anchor="middle" x="1715" y="-168.8" font-family="Times,serif" font-size="14.00">lon &lt;= &#45;91.379</text>
<text text-anchor="middle" x="1715" y="-153.8" font-family="Times,serif" font-size="14.00">class = blue</text>
</g>
<!-- 64&#45;&gt;65 -->
<g id="edge65" class="edge">
<title>64&#45;&gt;65</title>
<path fill="none" stroke="black" d="M1717.99,-219.83C1717.56,-212.13 1717.05,-202.97 1716.58,-194.42"/>
<polygon fill="black" stroke="black" points="1720.07,-194.2 1716.02,-184.41 1713.08,-194.59 1720.07,-194.2"/>
</g>
<!-- 70 -->
<g id="node71" class="node">
<title>70</title>
<polygon fill="none" stroke="black" points="1859,-183 1783,-183 1783,-147 1859,-147 1859,-183"/>
<text text-anchor="middle" x="1821" y="-161.3" font-family="Times,serif" font-size="14.00">class = red</text>
</g>
<!-- 64&#45;&gt;70 -->
<g id="edge70" class="edge">
<title>64&#45;&gt;70</title>
<path fill="none" stroke="black" d="M1744.74,-219.83C1757.93,-210.52 1774.15,-199.07 1788.23,-189.13"/>
<polygon fill="black" stroke="black" points="1790.52,-191.8 1796.67,-183.17 1786.49,-186.08 1790.52,-191.8"/>
</g>
<!-- 66 -->
<g id="node67" class="node">
<title>66</title>
<polygon fill="none" stroke="black" points="1708,-110 1616,-110 1616,-72 1708,-72 1708,-110"/>
<text text-anchor="middle" x="1662" y="-94.8" font-family="Times,serif" font-size="14.00">lat &lt;= 40.775</text>
<text text-anchor="middle" x="1662" y="-79.8" font-family="Times,serif" font-size="14.00">class = red</text>
</g>
<!-- 65&#45;&gt;66 -->
<g id="edge66" class="edge">
<title>65&#45;&gt;66</title>
<path fill="none" stroke="black" d="M1701.63,-145.83C1695.58,-137.62 1688.32,-127.76 1681.68,-118.73"/>
<polygon fill="black" stroke="black" points="1684.3,-116.39 1675.55,-110.41 1678.66,-120.54 1684.3,-116.39"/>
</g>
<!-- 69 -->
<g id="node70" class="node">
<title>69</title>
<polygon fill="none" stroke="black" points="1808,-109 1726,-109 1726,-73 1808,-73 1808,-109"/>
<text text-anchor="middle" x="1767" y="-87.3" font-family="Times,serif" font-size="14.00">class = blue</text>
</g>
<!-- 65&#45;&gt;69 -->
<g id="edge69" class="edge">
<title>65&#45;&gt;69</title>
<path fill="none" stroke="black" d="M1728.12,-145.83C1734.3,-137.28 1741.76,-126.94 1748.5,-117.62"/>
<polygon fill="black" stroke="black" points="1751.4,-119.57 1754.42,-109.42 1745.73,-115.48 1751.4,-119.57"/>
</g>
<!-- 67 -->
<g id="node68" class="node">
<title>67</title>
<polygon fill="none" stroke="black" points="1651,-36 1575,-36 1575,0 1651,0 1651,-36"/>
<text text-anchor="middle" x="1613" y="-14.3" font-family="Times,serif" font-size="14.00">class = red</text>
</g>
<!-- 66&#45;&gt;67 -->
<g id="edge67" class="edge">
<title>66&#45;&gt;67</title>
<path fill="none" stroke="black" d="M1649.38,-71.72C1643.62,-63.37 1636.71,-53.35 1630.46,-44.3"/>
<polygon fill="black" stroke="black" points="1633.3,-42.25 1624.73,-36 1627.53,-46.22 1633.3,-42.25"/>
</g>
<!-- 68 -->
<g id="node69" class="node">
<title>68</title>
<polygon fill="none" stroke="black" points="1751,-36 1669,-36 1669,0 1751,0 1751,-36"/>
<text text-anchor="middle" x="1710" y="-14.3" font-family="Times,serif" font-size="14.00">class = blue</text>
</g>
<!-- 66&#45;&gt;68 -->
<g id="edge68" class="edge">
<title>66&#45;&gt;68</title>
<path fill="none" stroke="black" d="M1674.36,-71.72C1680,-63.37 1686.78,-53.35 1692.9,-44.3"/>
<polygon fill="black" stroke="black" points="1695.8,-46.25 1698.5,-36 1690,-42.33 1695.8,-46.25"/>
</g>
</g>
</svg>
