<?xml version="1.0" encoding="UTF-8" standalone="no"?>
<!DOCTYPE svg PUBLIC "-//W3C//DTD SVG 1.1//EN"
 "http://www.w3.org/Graphics/SVG/1.1/DTD/svg11.dtd">
<!-- Generated by graphviz version 2.44.1 (20200629.0846)
 -->
<!-- Title: Tree Pages: 1 -->
<svg width="385pt" height="266pt"
 viewBox="0.00 0.00 385.00 266.00" xmlns="http://www.w3.org/2000/svg" xmlns:xlink="http://www.w3.org/1999/xlink">
<g id="graph0" class="graph" transform="scale(1 1) rotate(0) translate(4 262)">
<title>Tree</title>
<polygon fill="white" stroke="transparent" points="-4,4 -4,-262 381,-262 381,4 -4,4"/>
<!-- 0 -->
<g id="node1" class="node">
<title>0</title>
<polygon fill="none" stroke="black" points="186.5,-258 79.5,-258 79.5,-220 186.5,-220 186.5,-258"/>
<text text-anchor="middle" x="133" y="-242.8" font-family="Times,serif" font-size="14.00">lon &lt;= &#45;102.165</text>
<text text-anchor="middle" x="133" y="-227.8" font-family="Times,serif" font-size="14.00">class = red</text>
</g>
<!-- 1 -->
<g id="node2" class="node">
<title>1</title>
<polygon fill="none" stroke="black" points="120,-183 38,-183 38,-147 120,-147 120,-183"/>
<text text-anchor="middle" x="79" y="-161.3" font-family="Times,serif" font-size="14.00">class = blue</text>
</g>
<!-- 0&#45;&gt;1 -->
<g id="edge1" class="edge">
<title>0&#45;&gt;1</title>
<path fill="none" stroke="black" d="M119.37,-219.83C112.96,-211.28 105.21,-200.94 98.21,-191.62"/>
<polygon fill="black" stroke="black" points="100.86,-189.32 92.06,-183.42 95.26,-193.52 100.86,-189.32"/>
<text text-anchor="middle" x="88.53" y="-204.47" font-family="Times,serif" font-size="14.00">True</text>
</g>
<!-- 2 -->
<g id="node3" class="node">
<title>2</title>
<polygon fill="none" stroke="black" points="238,-184 138,-184 138,-146 238,-146 238,-184"/>
<text text-anchor="middle" x="188" y="-168.8" font-family="Times,serif" font-size="14.00">lon &lt;= &#45;82.517</text>
<text text-anchor="middle" x="188" y="-153.8" font-family="Times,serif" font-size="14.00">class = red</text>
</g>
<!-- 0&#45;&gt;2 -->
<g id="edge2" class="edge">
<title>0&#45;&gt;2</title>
<path fill="none" stroke="black" d="M146.88,-219.83C153.21,-211.54 160.84,-201.56 167.79,-192.45"/>
<polygon fill="black" stroke="black" points="170.65,-194.48 173.93,-184.41 165.08,-190.24 170.65,-194.48"/>
<text text-anchor="middle" x="177.25" y="-205.49" font-family="Times,serif" font-size="14.00">False</text>
</g>
<!-- 3 -->
<g id="node4" class="node">
<title>3</title>
<polygon fill="none" stroke="black" points="177,-110 85,-110 85,-72 177,-72 177,-110"/>
<text text-anchor="middle" x="131" y="-94.8" font-family="Times,serif" font-size="14.00">lat &lt;= 41.113</text>
<text text-anchor="middle" x="131" y="-79.8" font-family="Times,serif" font-size="14.00">class = red</text>
</g>
<!-- 2&#45;&gt;3 -->
<g id="edge3" class="edge">
<title>2&#45;&gt;3</title>
<path fill="none" stroke="black" d="M173.62,-145.83C167.05,-137.54 159.15,-127.56 151.94,-118.45"/>
<polygon fill="black" stroke="black" points="154.53,-116.08 145.58,-110.41 149.04,-120.43 154.53,-116.08"/>
</g>
<!-- 6 -->
<g id="node7" class="node">
<title>6</title>
<polygon fill="none" stroke="black" points="295,-110 195,-110 195,-72 295,-72 295,-110"/>
<text text-anchor="middle" x="245" y="-94.8" font-family="Times,serif" font-size="14.00">lon &lt;= &#45;81.529</text>
<text text-anchor="middle" x="245" y="-79.8" font-family="Times,serif" font-size="14.00">class = blue</text>
</g>
<!-- 2&#45;&gt;6 -->
<g id="edge6" class="edge">
<title>2&#45;&gt;6</title>
<path fill="none" stroke="black" d="M202.38,-145.83C208.95,-137.54 216.85,-127.56 224.06,-118.45"/>
<polygon fill="black" stroke="black" points="226.96,-120.43 230.42,-110.41 221.47,-116.08 226.96,-120.43"/>
</g>
<!-- 4 -->
<g id="node5" class="node">
<title>4</title>
<polygon fill="none" stroke="black" points="76,-36 0,-36 0,0 76,0 76,-36"/>
<text text-anchor="middle" x="38" y="-14.3" font-family="Times,serif" font-size="14.00">class = red</text>
</g>
<!-- 3&#45;&gt;4 -->
<g id="edge4" class="edge">
<title>3&#45;&gt;4</title>
<path fill="none" stroke="black" d="M107.05,-71.72C95.22,-62.68 80.82,-51.69 68.23,-42.08"/>
<polygon fill="black" stroke="black" points="70.34,-39.29 60.27,-36 66.1,-44.85 70.34,-39.29"/>
</g>
<!-- 5 -->
<g id="node6" class="node">
<title>5</title>
<polygon fill="none" stroke="black" points="176,-36 94,-36 94,0 176,0 176,-36"/>
<text text-anchor="middle" x="135" y="-14.3" font-family="Times,serif" font-size="14.00">class = blue</text>
</g>
<!-- 3&#45;&gt;5 -->
<g id="edge5" class="edge">
<title>3&#45;&gt;5</title>
<path fill="none" stroke="black" d="M132.03,-71.72C132.47,-63.89 133,-54.59 133.48,-45.99"/>
<polygon fill="black" stroke="black" points="136.97,-46.18 134.04,-36 129.99,-45.79 136.97,-46.18"/>
</g>
<!-- 7 -->
<g id="node8" class="node">
<title>7</title>
<polygon fill="none" stroke="black" points="283,-36 201,-36 201,0 283,0 283,-36"/>
<text text-anchor="middle" x="242" y="-14.3" font-family="Times,serif" font-size="14.00">class = blue</text>
</g>
<!-- 6&#45;&gt;7 -->
<g id="edge7" class="edge">
<title>6&#45;&gt;7</title>
<path fill="none" stroke="black" d="M244.23,-71.72C243.9,-63.97 243.51,-54.79 243.15,-46.27"/>
<polygon fill="black" stroke="black" points="246.64,-45.85 242.72,-36 239.64,-46.14 246.64,-45.85"/>
</g>
<!-- 8 -->
<g id="node9" class="node">
<title>8</title>
<polygon fill="none" stroke="black" points="377,-36 301,-36 301,0 377,0 377,-36"/>
<text text-anchor="middle" x="339" y="-14.3" font-family="Times,serif" font-size="14.00">class = red</text>
</g>
<!-- 6&#45;&gt;8 -->
<g id="edge8" class="edge">
<title>6&#45;&gt;8</title>
<path fill="none" stroke="black" d="M269.21,-71.72C281.17,-62.68 295.72,-51.69 308.44,-42.08"/>
<polygon fill="black" stroke="black" points="310.62,-44.82 316.49,-36 306.4,-39.24 310.62,-44.82"/>
</g>
</g>
</svg>
