<?xml version="1.0" encoding="UTF-8" standalone="no"?>
<!DOCTYPE svg PUBLIC "-//W3C//DTD SVG 1.1//EN"
 "http://www.w3.org/Graphics/SVG/1.1/DTD/svg11.dtd">
<!-- Generated by graphviz version 2.44.1 (20200629.0846)
 -->
<!-- Title: Tree Pages: 1 -->
<svg width="1139pt" height="932pt"
 viewBox="0.00 0.00 1138.50 932.00" xmlns="http://www.w3.org/2000/svg" xmlns:xlink="http://www.w3.org/1999/xlink">
<g id="graph0" class="graph" transform="scale(1 1) rotate(0) translate(4 928)">
<title>Tree</title>
<polygon fill="white" stroke="transparent" points="-4,4 -4,-928 1134.5,-928 1134.5,4 -4,4"/>
<!-- 0 -->
<g id="node1" class="node">
<title>0</title>
<polygon fill="none" stroke="black" points="289.5,-924 184.5,-924 184.5,-886 289.5,-886 289.5,-924"/>
<text text-anchor="middle" x="237" y="-908.8" font-family="Times,serif" font-size="14.00">latitude &lt;= 42.9</text>
<text text-anchor="middle" x="237" y="-893.8" font-family="Times,serif" font-size="14.00">class = Canada</text>
</g>
<!-- 1 -->
<g id="node2" class="node">
<title>1</title>
<polygon fill="none" stroke="black" points="222.5,-850 103.5,-850 103.5,-812 222.5,-812 222.5,-850"/>
<text text-anchor="middle" x="163" y="-834.8" font-family="Times,serif" font-size="14.00">latitude &lt;= 42.096</text>
<text text-anchor="middle" x="163" y="-819.8" font-family="Times,serif" font-size="14.00">class = USA</text>
</g>
<!-- 0&#45;&gt;1 -->
<g id="edge1" class="edge">
<title>0&#45;&gt;1</title>
<path fill="none" stroke="black" d="M218.33,-885.83C209.48,-877.22 198.75,-866.79 189.11,-857.4"/>
<polygon fill="black" stroke="black" points="191.28,-854.63 181.67,-850.16 186.39,-859.64 191.28,-854.63"/>
<text text-anchor="middle" x="182.01" y="-871.46" font-family="Times,serif" font-size="14.00">True</text>
</g>
<!-- 6 -->
<g id="node7" class="node">
<title>6</title>
<polygon fill="none" stroke="black" points="381,-850 241,-850 241,-812 381,-812 381,-850"/>
<text text-anchor="middle" x="311" y="-834.8" font-family="Times,serif" font-size="14.00">longitude &lt;= &#45;130.017</text>
<text text-anchor="middle" x="311" y="-819.8" font-family="Times,serif" font-size="14.00">class = Canada</text>
</g>
<!-- 0&#45;&gt;6 -->
<g id="edge6" class="edge">
<title>0&#45;&gt;6</title>
<path fill="none" stroke="black" d="M255.67,-885.83C264.52,-877.22 275.25,-866.79 284.89,-857.4"/>
<polygon fill="black" stroke="black" points="287.61,-859.64 292.33,-850.16 282.72,-854.63 287.61,-859.64"/>
<text text-anchor="middle" x="291.99" y="-871.46" font-family="Times,serif" font-size="14.00">False</text>
</g>
<!-- 2 -->
<g id="node3" class="node">
<title>2</title>
<polygon fill="none" stroke="black" points="90,-775 4,-775 4,-739 90,-739 90,-775"/>
<text text-anchor="middle" x="47" y="-753.3" font-family="Times,serif" font-size="14.00">class = USA</text>
</g>
<!-- 1&#45;&gt;2 -->
<g id="edge2" class="edge">
<title>1&#45;&gt;2</title>
<path fill="none" stroke="black" d="M133.73,-811.83C118.44,-802.34 99.58,-790.64 83.37,-780.57"/>
<polygon fill="black" stroke="black" points="85.01,-777.47 74.67,-775.17 81.32,-783.42 85.01,-777.47"/>
</g>
<!-- 3 -->
<g id="node4" class="node">
<title>3</title>
<polygon fill="none" stroke="black" points="227.5,-776 108.5,-776 108.5,-738 227.5,-738 227.5,-776"/>
<text text-anchor="middle" x="168" y="-760.8" font-family="Times,serif" font-size="14.00">latitude &lt;= 42.324</text>
<text text-anchor="middle" x="168" y="-745.8" font-family="Times,serif" font-size="14.00">class = USA</text>
</g>
<!-- 1&#45;&gt;3 -->
<g id="edge3" class="edge">
<title>1&#45;&gt;3</title>
<path fill="none" stroke="black" d="M164.26,-811.83C164.8,-804.13 165.43,-794.97 166.03,-786.42"/>
<polygon fill="black" stroke="black" points="169.52,-786.63 166.72,-776.41 162.54,-786.15 169.52,-786.63"/>
</g>
<!-- 4 -->
<g id="node5" class="node">
<title>4</title>
<polygon fill="none" stroke="black" points="210.5,-701 111.5,-701 111.5,-665 210.5,-665 210.5,-701"/>
<text text-anchor="middle" x="161" y="-679.3" font-family="Times,serif" font-size="14.00">class = Canada</text>
</g>
<!-- 3&#45;&gt;4 -->
<g id="edge4" class="edge">
<title>3&#45;&gt;4</title>
<path fill="none" stroke="black" d="M166.23,-737.83C165.46,-729.89 164.54,-720.41 163.69,-711.63"/>
<polygon fill="black" stroke="black" points="167.14,-711.03 162.69,-701.42 160.18,-711.71 167.14,-711.03"/>
</g>
<!-- 5 -->
<g id="node6" class="node">
<title>5</title>
<polygon fill="none" stroke="black" points="315,-701 229,-701 229,-665 315,-665 315,-701"/>
<text text-anchor="middle" x="272" y="-679.3" font-family="Times,serif" font-size="14.00">class = USA</text>
</g>
<!-- 3&#45;&gt;5 -->
<g id="edge5" class="edge">
<title>3&#45;&gt;5</title>
<path fill="none" stroke="black" d="M194.24,-737.83C207.7,-728.52 224.23,-717.07 238.59,-707.13"/>
<polygon fill="black" stroke="black" points="240.97,-709.74 247.2,-701.17 236.98,-703.99 240.97,-709.74"/>
</g>
<!-- 7 -->
<g id="node8" class="node">
<title>7</title>
<polygon fill="none" stroke="black" points="345,-775 259,-775 259,-739 345,-739 345,-775"/>
<text text-anchor="middle" x="302" y="-753.3" font-family="Times,serif" font-size="14.00">class = USA</text>
</g>
<!-- 6&#45;&gt;7 -->
<g id="edge7" class="edge">
<title>6&#45;&gt;7</title>
<path fill="none" stroke="black" d="M308.73,-811.83C307.74,-803.89 306.55,-794.41 305.45,-785.63"/>
<polygon fill="black" stroke="black" points="308.89,-784.91 304.18,-775.42 301.94,-785.77 308.89,-784.91"/>
</g>
<!-- 8 -->
<g id="node9" class="node">
<title>8</title>
<polygon fill="none" stroke="black" points="468.5,-776 363.5,-776 363.5,-738 468.5,-738 468.5,-776"/>
<text text-anchor="middle" x="416" y="-760.8" font-family="Times,serif" font-size="14.00">latitude &lt;= 49.0</text>
<text text-anchor="middle" x="416" y="-745.8" font-family="Times,serif" font-size="14.00">class = Canada</text>
</g>
<!-- 6&#45;&gt;8 -->
<g id="edge8" class="edge">
<title>6&#45;&gt;8</title>
<path fill="none" stroke="black" d="M337.5,-811.83C350.68,-802.79 366.78,-791.75 380.97,-782.02"/>
<polygon fill="black" stroke="black" points="383.24,-784.7 389.51,-776.16 379.29,-778.93 383.24,-784.7"/>
</g>
<!-- 9 -->
<g id="node10" class="node">
<title>9</title>
<polygon fill="none" stroke="black" points="478,-702 344,-702 344,-664 478,-664 478,-702"/>
<text text-anchor="middle" x="411" y="-686.8" font-family="Times,serif" font-size="14.00">longitude &lt;= &#45;94.582</text>
<text text-anchor="middle" x="411" y="-671.8" font-family="Times,serif" font-size="14.00">class = Canada</text>
</g>
<!-- 8&#45;&gt;9 -->
<g id="edge9" class="edge">
<title>8&#45;&gt;9</title>
<path fill="none" stroke="black" d="M414.74,-737.83C414.2,-730.13 413.57,-720.97 412.97,-712.42"/>
<polygon fill="black" stroke="black" points="416.46,-712.15 412.28,-702.41 409.48,-712.63 416.46,-712.15"/>
</g>
<!-- 56 -->
<g id="node57" class="node">
<title>56</title>
<polygon fill="none" stroke="black" points="595.5,-701 496.5,-701 496.5,-665 595.5,-665 595.5,-701"/>
<text text-anchor="middle" x="546" y="-679.3" font-family="Times,serif" font-size="14.00">class = Canada</text>
</g>
<!-- 8&#45;&gt;56 -->
<g id="edge56" class="edge">
<title>8&#45;&gt;56</title>
<path fill="none" stroke="black" d="M448.8,-737.83C466.18,-728.21 487.66,-716.31 506,-706.15"/>
<polygon fill="black" stroke="black" points="507.94,-709.08 515,-701.17 504.55,-702.95 507.94,-709.08"/>
</g>
<!-- 10 -->
<g id="node11" class="node">
<title>10</title>
<polygon fill="none" stroke="black" points="404,-628 264,-628 264,-590 404,-590 404,-628"/>
<text text-anchor="middle" x="334" y="-612.8" font-family="Times,serif" font-size="14.00">longitude &lt;= &#45;123.222</text>
<text text-anchor="middle" x="334" y="-597.8" font-family="Times,serif" font-size="14.00">class = USA</text>
</g>
<!-- 9&#45;&gt;10 -->
<g id="edge10" class="edge">
<title>9&#45;&gt;10</title>
<path fill="none" stroke="black" d="M391.57,-663.83C382.27,-655.13 370.98,-644.58 360.87,-635.13"/>
<polygon fill="black" stroke="black" points="363.12,-632.44 353.42,-628.16 358.34,-637.55 363.12,-632.44"/>
</g>
<!-- 13 -->
<g id="node14" class="node">
<title>13</title>
<polygon fill="none" stroke="black" points="556,-628 422,-628 422,-590 556,-590 556,-628"/>
<text text-anchor="middle" x="489" y="-612.8" font-family="Times,serif" font-size="14.00">longitude &lt;= &#45;69.246</text>
<text text-anchor="middle" x="489" y="-597.8" font-family="Times,serif" font-size="14.00">class = Canada</text>
</g>
<!-- 9&#45;&gt;13 -->
<g id="edge13" class="edge">
<title>9&#45;&gt;13</title>
<path fill="none" stroke="black" d="M430.68,-663.83C440.11,-655.13 451.54,-644.58 461.78,-635.13"/>
<polygon fill="black" stroke="black" points="464.35,-637.52 469.32,-628.16 459.6,-632.37 464.35,-637.52"/>
</g>
<!-- 11 -->
<g id="node12" class="node">
<title>11</title>
<polygon fill="none" stroke="black" points="281.5,-553 182.5,-553 182.5,-517 281.5,-517 281.5,-553"/>
<text text-anchor="middle" x="232" y="-531.3" font-family="Times,serif" font-size="14.00">class = Canada</text>
</g>
<!-- 10&#45;&gt;11 -->
<g id="edge11" class="edge">
<title>10&#45;&gt;11</title>
<path fill="none" stroke="black" d="M308.26,-589.83C295.07,-580.52 278.85,-569.07 264.77,-559.13"/>
<polygon fill="black" stroke="black" points="266.51,-556.08 256.33,-553.17 262.48,-561.8 266.51,-556.08"/>
</g>
<!-- 12 -->
<g id="node13" class="node">
<title>12</title>
<polygon fill="none" stroke="black" points="386,-553 300,-553 300,-517 386,-517 386,-553"/>
<text text-anchor="middle" x="343" y="-531.3" font-family="Times,serif" font-size="14.00">class = USA</text>
</g>
<!-- 10&#45;&gt;12 -->
<g id="edge12" class="edge">
<title>10&#45;&gt;12</title>
<path fill="none" stroke="black" d="M336.27,-589.83C337.26,-581.89 338.45,-572.41 339.55,-563.63"/>
<polygon fill="black" stroke="black" points="343.06,-563.77 340.82,-553.42 336.11,-562.91 343.06,-563.77"/>
</g>
<!-- 14 -->
<g id="node15" class="node">
<title>14</title>
<polygon fill="none" stroke="black" points="540.5,-554 421.5,-554 421.5,-516 540.5,-516 540.5,-554"/>
<text text-anchor="middle" x="481" y="-538.8" font-family="Times,serif" font-size="14.00">latitude &lt;= 43.093</text>
<text text-anchor="middle" x="481" y="-523.8" font-family="Times,serif" font-size="14.00">class = Canada</text>
</g>
<!-- 13&#45;&gt;14 -->
<g id="edge14" class="edge">
<title>13&#45;&gt;14</title>
<path fill="none" stroke="black" d="M486.98,-589.83C486.13,-582.13 485.11,-572.97 484.16,-564.42"/>
<polygon fill="black" stroke="black" points="487.63,-563.97 483.05,-554.41 480.67,-564.74 487.63,-563.97"/>
</g>
<!-- 37 -->
<g id="node38" class="node">
<title>37</title>
<polygon fill="none" stroke="black" points="736,-554 602,-554 602,-516 736,-516 736,-554"/>
<text text-anchor="middle" x="669" y="-538.8" font-family="Times,serif" font-size="14.00">longitude &lt;= &#45;66.952</text>
<text text-anchor="middle" x="669" y="-523.8" font-family="Times,serif" font-size="14.00">class = Canada</text>
</g>
<!-- 13&#45;&gt;37 -->
<g id="edge37" class="edge">
<title>13&#45;&gt;37</title>
<path fill="none" stroke="black" d="M534.42,-589.83C558.71,-580.12 588.79,-568.08 614.35,-557.86"/>
<polygon fill="black" stroke="black" points="615.92,-561 623.91,-554.04 613.32,-554.5 615.92,-561"/>
</g>
<!-- 15 -->
<g id="node16" class="node">
<title>15</title>
<polygon fill="none" stroke="black" points="358.5,-480 239.5,-480 239.5,-442 358.5,-442 358.5,-480"/>
<text text-anchor="middle" x="299" y="-464.8" font-family="Times,serif" font-size="14.00">latitude &lt;= 43.014</text>
<text text-anchor="middle" x="299" y="-449.8" font-family="Times,serif" font-size="14.00">class = Canada</text>
</g>
<!-- 14&#45;&gt;15 -->
<g id="edge15" class="edge">
<title>14&#45;&gt;15</title>
<path fill="none" stroke="black" d="M435.07,-515.83C410.41,-506.07 379.83,-493.98 353.91,-483.72"/>
<polygon fill="black" stroke="black" points="355.18,-480.46 344.6,-480.04 352.61,-486.97 355.18,-480.46"/>
</g>
<!-- 20 -->
<g id="node21" class="node">
<title>20</title>
<polygon fill="none" stroke="black" points="540.5,-480 421.5,-480 421.5,-442 540.5,-442 540.5,-480"/>
<text text-anchor="middle" x="481" y="-464.8" font-family="Times,serif" font-size="14.00">latitude &lt;= 44.992</text>
<text text-anchor="middle" x="481" y="-449.8" font-family="Times,serif" font-size="14.00">class = Canada</text>
</g>
<!-- 14&#45;&gt;20 -->
<g id="edge20" class="edge">
<title>14&#45;&gt;20</title>
<path fill="none" stroke="black" d="M481,-515.83C481,-508.13 481,-498.97 481,-490.42"/>
<polygon fill="black" stroke="black" points="484.5,-490.41 481,-480.41 477.5,-490.41 484.5,-490.41"/>
</g>
<!-- 16 -->
<g id="node17" class="node">
<title>16</title>
<polygon fill="none" stroke="black" points="221,-406 87,-406 87,-368 221,-368 221,-406"/>
<text text-anchor="middle" x="154" y="-390.8" font-family="Times,serif" font-size="14.00">longitude &lt;= &#45;81.845</text>
<text text-anchor="middle" x="154" y="-375.8" font-family="Times,serif" font-size="14.00">class = Canada</text>
</g>
<!-- 15&#45;&gt;16 -->
<g id="edge16" class="edge">
<title>15&#45;&gt;16</title>
<path fill="none" stroke="black" d="M262.41,-441.83C243.28,-432.33 219.68,-420.61 199.39,-410.54"/>
<polygon fill="black" stroke="black" points="200.84,-407.35 190.33,-406.04 197.73,-413.62 200.84,-407.35"/>
</g>
<!-- 19 -->
<g id="node20" class="node">
<title>19</title>
<polygon fill="none" stroke="black" points="342,-405 256,-405 256,-369 342,-369 342,-405"/>
<text text-anchor="middle" x="299" y="-383.3" font-family="Times,serif" font-size="14.00">class = USA</text>
</g>
<!-- 15&#45;&gt;19 -->
<g id="edge19" class="edge">
<title>15&#45;&gt;19</title>
<path fill="none" stroke="black" d="M299,-441.83C299,-433.89 299,-424.41 299,-415.63"/>
<polygon fill="black" stroke="black" points="302.5,-415.42 299,-405.42 295.5,-415.42 302.5,-415.42"/>
</g>
<!-- 17 -->
<g id="node18" class="node">
<title>17</title>
<polygon fill="none" stroke="black" points="86,-331 0,-331 0,-295 86,-295 86,-331"/>
<text text-anchor="middle" x="43" y="-309.3" font-family="Times,serif" font-size="14.00">class = USA</text>
</g>
<!-- 16&#45;&gt;17 -->
<g id="edge17" class="edge">
<title>16&#45;&gt;17</title>
<path fill="none" stroke="black" d="M125.99,-367.83C111.49,-358.43 93.65,-346.86 78.23,-336.85"/>
<polygon fill="black" stroke="black" points="79.77,-333.68 69.47,-331.17 75.96,-339.55 79.77,-333.68"/>
</g>
<!-- 18 -->
<g id="node19" class="node">
<title>18</title>
<polygon fill="none" stroke="black" points="203.5,-331 104.5,-331 104.5,-295 203.5,-295 203.5,-331"/>
<text text-anchor="middle" x="154" y="-309.3" font-family="Times,serif" font-size="14.00">class = Canada</text>
</g>
<!-- 16&#45;&gt;18 -->
<g id="edge18" class="edge">
<title>16&#45;&gt;18</title>
<path fill="none" stroke="black" d="M154,-367.83C154,-359.89 154,-350.41 154,-341.63"/>
<polygon fill="black" stroke="black" points="157.5,-341.42 154,-331.42 150.5,-341.42 157.5,-341.42"/>
</g>
<!-- 21 -->
<g id="node22" class="node">
<title>21</title>
<polygon fill="none" stroke="black" points="481.5,-406 362.5,-406 362.5,-368 481.5,-368 481.5,-406"/>
<text text-anchor="middle" x="422" y="-390.8" font-family="Times,serif" font-size="14.00">latitude &lt;= 44.542</text>
<text text-anchor="middle" x="422" y="-375.8" font-family="Times,serif" font-size="14.00">class = Canada</text>
</g>
<!-- 20&#45;&gt;21 -->
<g id="edge21" class="edge">
<title>20&#45;&gt;21</title>
<path fill="none" stroke="black" d="M466.11,-441.83C459.25,-433.45 450.97,-423.35 443.45,-414.17"/>
<polygon fill="black" stroke="black" points="446.13,-411.93 437.09,-406.41 440.72,-416.37 446.13,-411.93"/>
</g>
<!-- 36 -->
<g id="node37" class="node">
<title>36</title>
<polygon fill="none" stroke="black" points="598.5,-405 499.5,-405 499.5,-369 598.5,-369 598.5,-405"/>
<text text-anchor="middle" x="549" y="-383.3" font-family="Times,serif" font-size="14.00">class = Canada</text>
</g>
<!-- 20&#45;&gt;36 -->
<g id="edge36" class="edge">
<title>20&#45;&gt;36</title>
<path fill="none" stroke="black" d="M498.16,-441.83C506.48,-433.02 516.6,-422.31 525.61,-412.76"/>
<polygon fill="black" stroke="black" points="528.23,-415.09 532.55,-405.42 523.14,-410.28 528.23,-415.09"/>
</g>
<!-- 22 -->
<g id="node23" class="node">
<title>22</title>
<polygon fill="none" stroke="black" points="356,-332 222,-332 222,-294 356,-294 356,-332"/>
<text text-anchor="middle" x="289" y="-316.8" font-family="Times,serif" font-size="14.00">longitude &lt;= &#45;79.076</text>
<text text-anchor="middle" x="289" y="-301.8" font-family="Times,serif" font-size="14.00">class = Canada</text>
</g>
<!-- 21&#45;&gt;22 -->
<g id="edge22" class="edge">
<title>21&#45;&gt;22</title>
<path fill="none" stroke="black" d="M388.44,-367.83C371.11,-358.45 349.79,-346.91 331.35,-336.92"/>
<polygon fill="black" stroke="black" points="333.01,-333.85 322.55,-332.16 329.68,-340 333.01,-333.85"/>
</g>
<!-- 31 -->
<g id="node32" class="node">
<title>31</title>
<polygon fill="none" stroke="black" points="508,-332 374,-332 374,-294 508,-294 508,-332"/>
<text text-anchor="middle" x="441" y="-316.8" font-family="Times,serif" font-size="14.00">longitude &lt;= &#45;84.392</text>
<text text-anchor="middle" x="441" y="-301.8" font-family="Times,serif" font-size="14.00">class = USA</text>
</g>
<!-- 21&#45;&gt;31 -->
<g id="edge31" class="edge">
<title>21&#45;&gt;31</title>
<path fill="none" stroke="black" d="M426.79,-367.83C428.85,-360.05 431.3,-350.77 433.58,-342.13"/>
<polygon fill="black" stroke="black" points="436.97,-342.98 436.14,-332.41 430.21,-341.19 436.97,-342.98"/>
</g>
<!-- 23 -->
<g id="node24" class="node">
<title>23</title>
<polygon fill="none" stroke="black" points="211.5,-257 112.5,-257 112.5,-221 211.5,-221 211.5,-257"/>
<text text-anchor="middle" x="162" y="-235.3" font-family="Times,serif" font-size="14.00">class = Canada</text>
</g>
<!-- 22&#45;&gt;23 -->
<g id="edge23" class="edge">
<title>22&#45;&gt;23</title>
<path fill="none" stroke="black" d="M256.95,-293.83C240.06,-284.25 219.19,-272.42 201.32,-262.29"/>
<polygon fill="black" stroke="black" points="202.71,-259.06 192.29,-257.17 199.26,-265.15 202.71,-259.06"/>
</g>
<!-- 24 -->
<g id="node25" class="node">
<title>24</title>
<polygon fill="none" stroke="black" points="348.5,-258 229.5,-258 229.5,-220 348.5,-220 348.5,-258"/>
<text text-anchor="middle" x="289" y="-242.8" font-family="Times,serif" font-size="14.00">latitude &lt;= 44.168</text>
<text text-anchor="middle" x="289" y="-227.8" font-family="Times,serif" font-size="14.00">class = Canada</text>
</g>
<!-- 22&#45;&gt;24 -->
<g id="edge24" class="edge">
<title>22&#45;&gt;24</title>
<path fill="none" stroke="black" d="M289,-293.83C289,-286.13 289,-276.97 289,-268.42"/>
<polygon fill="black" stroke="black" points="292.5,-268.41 289,-258.41 285.5,-268.41 292.5,-268.41"/>
</g>
<!-- 25 -->
<g id="node26" class="node">
<title>25</title>
<polygon fill="none" stroke="black" points="231.5,-184 112.5,-184 112.5,-146 231.5,-146 231.5,-184"/>
<text text-anchor="middle" x="172" y="-168.8" font-family="Times,serif" font-size="14.00">latitude &lt;= 43.511</text>
<text text-anchor="middle" x="172" y="-153.8" font-family="Times,serif" font-size="14.00">class = USA</text>
</g>
<!-- 24&#45;&gt;25 -->
<g id="edge25" class="edge">
<title>24&#45;&gt;25</title>
<path fill="none" stroke="black" d="M259.48,-219.83C244.51,-210.62 226.16,-199.33 210.14,-189.47"/>
<polygon fill="black" stroke="black" points="211.87,-186.42 201.51,-184.16 208.2,-192.38 211.87,-186.42"/>
</g>
<!-- 30 -->
<g id="node31" class="node">
<title>30</title>
<polygon fill="none" stroke="black" points="348.5,-183 249.5,-183 249.5,-147 348.5,-147 348.5,-183"/>
<text text-anchor="middle" x="299" y="-161.3" font-family="Times,serif" font-size="14.00">class = Canada</text>
</g>
<!-- 24&#45;&gt;30 -->
<g id="edge30" class="edge">
<title>24&#45;&gt;30</title>
<path fill="none" stroke="black" d="M291.52,-219.83C292.64,-211.81 293.97,-202.2 295.2,-193.34"/>
<polygon fill="black" stroke="black" points="298.67,-193.8 296.58,-183.42 291.74,-192.84 298.67,-193.8"/>
</g>
<!-- 26 -->
<g id="node27" class="node">
<title>26</title>
<polygon fill="none" stroke="black" points="155,-109 69,-109 69,-73 155,-73 155,-109"/>
<text text-anchor="middle" x="112" y="-87.3" font-family="Times,serif" font-size="14.00">class = USA</text>
</g>
<!-- 25&#45;&gt;26 -->
<g id="edge26" class="edge">
<title>25&#45;&gt;26</title>
<path fill="none" stroke="black" d="M156.86,-145.83C149.66,-137.2 140.94,-126.73 133.11,-117.33"/>
<polygon fill="black" stroke="black" points="135.61,-114.86 126.51,-109.42 130.23,-119.34 135.61,-114.86"/>
</g>
<!-- 27 -->
<g id="node28" class="node">
<title>27</title>
<polygon fill="none" stroke="black" points="292.5,-110 173.5,-110 173.5,-72 292.5,-72 292.5,-110"/>
<text text-anchor="middle" x="233" y="-94.8" font-family="Times,serif" font-size="14.00">latitude &lt;= 43.988</text>
<text text-anchor="middle" x="233" y="-79.8" font-family="Times,serif" font-size="14.00">class = Canada</text>
</g>
<!-- 25&#45;&gt;27 -->
<g id="edge27" class="edge">
<title>25&#45;&gt;27</title>
<path fill="none" stroke="black" d="M187.39,-145.83C194.49,-137.45 203.05,-127.35 210.82,-118.17"/>
<polygon fill="black" stroke="black" points="213.61,-120.31 217.4,-110.41 208.27,-115.78 213.61,-120.31"/>
</g>
<!-- 28 -->
<g id="node29" class="node">
<title>28</title>
<polygon fill="none" stroke="black" points="226.5,-36 127.5,-36 127.5,0 226.5,0 226.5,-36"/>
<text text-anchor="middle" x="177" y="-14.3" font-family="Times,serif" font-size="14.00">class = Canada</text>
</g>
<!-- 27&#45;&gt;28 -->
<g id="edge28" class="edge">
<title>27&#45;&gt;28</title>
<path fill="none" stroke="black" d="M218.58,-71.72C211.93,-63.29 203.93,-53.15 196.73,-44.02"/>
<polygon fill="black" stroke="black" points="199.35,-41.69 190.41,-36 193.86,-46.02 199.35,-41.69"/>
</g>
<!-- 29 -->
<g id="node30" class="node">
<title>29</title>
<polygon fill="none" stroke="black" points="331,-36 245,-36 245,0 331,0 331,-36"/>
<text text-anchor="middle" x="288" y="-14.3" font-family="Times,serif" font-size="14.00">class = USA</text>
</g>
<!-- 27&#45;&gt;29 -->
<g id="edge29" class="edge">
<title>27&#45;&gt;29</title>
<path fill="none" stroke="black" d="M247.16,-71.72C253.69,-63.29 261.55,-53.15 268.62,-44.02"/>
<polygon fill="black" stroke="black" points="271.47,-46.05 274.83,-36 265.94,-41.77 271.47,-46.05"/>
</g>
<!-- 32 -->
<g id="node33" class="node">
<title>32</title>
<polygon fill="none" stroke="black" points="453,-257 367,-257 367,-221 453,-221 453,-257"/>
<text text-anchor="middle" x="410" y="-235.3" font-family="Times,serif" font-size="14.00">class = USA</text>
</g>
<!-- 31&#45;&gt;32 -->
<g id="edge32" class="edge">
<title>31&#45;&gt;32</title>
<path fill="none" stroke="black" d="M433.18,-293.83C429.65,-285.63 425.41,-275.78 421.52,-266.76"/>
<polygon fill="black" stroke="black" points="424.67,-265.22 417.5,-257.42 418.24,-267.99 424.67,-265.22"/>
</g>
<!-- 33 -->
<g id="node34" class="node">
<title>33</title>
<polygon fill="none" stroke="black" points="605,-258 471,-258 471,-220 605,-220 605,-258"/>
<text text-anchor="middle" x="538" y="-242.8" font-family="Times,serif" font-size="14.00">longitude &lt;= &#45;75.503</text>
<text text-anchor="middle" x="538" y="-227.8" font-family="Times,serif" font-size="14.00">class = Canada</text>
</g>
<!-- 31&#45;&gt;33 -->
<g id="edge33" class="edge">
<title>31&#45;&gt;33</title>
<path fill="none" stroke="black" d="M465.48,-293.83C477.54,-284.88 492.25,-273.96 505.27,-264.3"/>
<polygon fill="black" stroke="black" points="507.59,-266.93 513.53,-258.16 503.41,-261.31 507.59,-266.93"/>
</g>
<!-- 34 -->
<g id="node35" class="node">
<title>34</title>
<polygon fill="none" stroke="black" points="482.5,-183 383.5,-183 383.5,-147 482.5,-147 482.5,-183"/>
<text text-anchor="middle" x="433" y="-161.3" font-family="Times,serif" font-size="14.00">class = Canada</text>
</g>
<!-- 33&#45;&gt;34 -->
<g id="edge34" class="edge">
<title>33&#45;&gt;34</title>
<path fill="none" stroke="black" d="M511.5,-219.83C497.79,-210.43 480.91,-198.86 466.33,-188.85"/>
<polygon fill="black" stroke="black" points="468.27,-185.94 458.04,-183.17 464.31,-191.71 468.27,-185.94"/>
</g>
<!-- 35 -->
<g id="node36" class="node">
<title>35</title>
<polygon fill="none" stroke="black" points="587,-183 501,-183 501,-147 587,-147 587,-183"/>
<text text-anchor="middle" x="544" y="-161.3" font-family="Times,serif" font-size="14.00">class = USA</text>
</g>
<!-- 33&#45;&gt;35 -->
<g id="edge35" class="edge">
<title>33&#45;&gt;35</title>
<path fill="none" stroke="black" d="M539.51,-219.83C540.18,-211.89 540.97,-202.41 541.7,-193.63"/>
<polygon fill="black" stroke="black" points="545.21,-193.67 542.55,-183.42 538.23,-193.09 545.21,-193.67"/>
</g>
<!-- 38 -->
<g id="node39" class="node">
<title>38</title>
<polygon fill="none" stroke="black" points="728.5,-480 609.5,-480 609.5,-442 728.5,-442 728.5,-480"/>
<text text-anchor="middle" x="669" y="-464.8" font-family="Times,serif" font-size="14.00">latitude &lt;= 45.195</text>
<text text-anchor="middle" x="669" y="-449.8" font-family="Times,serif" font-size="14.00">class = USA</text>
</g>
<!-- 37&#45;&gt;38 -->
<g id="edge38" class="edge">
<title>37&#45;&gt;38</title>
<path fill="none" stroke="black" d="M669,-515.83C669,-508.13 669,-498.97 669,-490.42"/>
<polygon fill="black" stroke="black" points="672.5,-490.41 669,-480.41 665.5,-490.41 672.5,-490.41"/>
</g>
<!-- 55 -->
<g id="node56" class="node">
<title>55</title>
<polygon fill="none" stroke="black" points="845.5,-479 746.5,-479 746.5,-443 845.5,-443 845.5,-479"/>
<text text-anchor="middle" x="796" y="-457.3" font-family="Times,serif" font-size="14.00">class = Canada</text>
</g>
<!-- 37&#45;&gt;55 -->
<g id="edge55" class="edge">
<title>37&#45;&gt;55</title>
<path fill="none" stroke="black" d="M701.05,-515.83C717.94,-506.25 738.81,-494.42 756.68,-484.29"/>
<polygon fill="black" stroke="black" points="758.74,-487.15 765.71,-479.17 755.29,-481.06 758.74,-487.15"/>
</g>
<!-- 39 -->
<g id="node40" class="node">
<title>39</title>
<polygon fill="none" stroke="black" points="712,-405 626,-405 626,-369 712,-369 712,-405"/>
<text text-anchor="middle" x="669" y="-383.3" font-family="Times,serif" font-size="14.00">class = USA</text>
</g>
<!-- 38&#45;&gt;39 -->
<g id="edge39" class="edge">
<title>38&#45;&gt;39</title>
<path fill="none" stroke="black" d="M669,-441.83C669,-433.89 669,-424.41 669,-415.63"/>
<polygon fill="black" stroke="black" points="672.5,-415.42 669,-405.42 665.5,-415.42 672.5,-415.42"/>
</g>
<!-- 40 -->
<g id="node41" class="node">
<title>40</title>
<polygon fill="none" stroke="black" points="861.5,-406 734.5,-406 734.5,-368 861.5,-368 861.5,-406"/>
<text text-anchor="middle" x="798" y="-390.8" font-family="Times,serif" font-size="14.00">longitude &lt;= &#45;67.93</text>
<text text-anchor="middle" x="798" y="-375.8" font-family="Times,serif" font-size="14.00">class = Canada</text>
</g>
<!-- 38&#45;&gt;40 -->
<g id="edge40" class="edge">
<title>38&#45;&gt;40</title>
<path fill="none" stroke="black" d="M701.55,-441.83C718.2,-432.54 738.66,-421.12 756.44,-411.2"/>
<polygon fill="black" stroke="black" points="758.43,-414.09 765.46,-406.16 755.02,-407.98 758.43,-414.09"/>
</g>
<!-- 41 -->
<g id="node42" class="node">
<title>41</title>
<polygon fill="none" stroke="black" points="865,-332 731,-332 731,-294 865,-294 865,-332"/>
<text text-anchor="middle" x="798" y="-316.8" font-family="Times,serif" font-size="14.00">longitude &lt;= &#45;68.325</text>
<text text-anchor="middle" x="798" y="-301.8" font-family="Times,serif" font-size="14.00">class = USA</text>
</g>
<!-- 40&#45;&gt;41 -->
<g id="edge41" class="edge">
<title>40&#45;&gt;41</title>
<path fill="none" stroke="black" d="M798,-367.83C798,-360.13 798,-350.97 798,-342.42"/>
<polygon fill="black" stroke="black" points="801.5,-342.41 798,-332.41 794.5,-342.41 801.5,-342.41"/>
</g>
<!-- 50 -->
<g id="node51" class="node">
<title>50</title>
<polygon fill="none" stroke="black" points="1005.5,-332 886.5,-332 886.5,-294 1005.5,-294 1005.5,-332"/>
<text text-anchor="middle" x="946" y="-316.8" font-family="Times,serif" font-size="14.00">latitude &lt;= 45.565</text>
<text text-anchor="middle" x="946" y="-301.8" font-family="Times,serif" font-size="14.00">class = Canada</text>
</g>
<!-- 40&#45;&gt;50 -->
<g id="edge50" class="edge">
<title>40&#45;&gt;50</title>
<path fill="none" stroke="black" d="M835.35,-367.83C854.88,-358.33 878.96,-346.61 899.67,-336.54"/>
<polygon fill="black" stroke="black" points="901.46,-339.56 908.92,-332.04 898.4,-333.27 901.46,-339.56"/>
</g>
<!-- 42 -->
<g id="node43" class="node">
<title>42</title>
<polygon fill="none" stroke="black" points="757,-258 623,-258 623,-220 757,-220 757,-258"/>
<text text-anchor="middle" x="690" y="-242.8" font-family="Times,serif" font-size="14.00">longitude &lt;= &#45;68.915</text>
<text text-anchor="middle" x="690" y="-227.8" font-family="Times,serif" font-size="14.00">class = Canada</text>
</g>
<!-- 41&#45;&gt;42 -->
<g id="edge42" class="edge">
<title>41&#45;&gt;42</title>
<path fill="none" stroke="black" d="M770.75,-293.83C757.06,-284.71 740.31,-273.54 725.62,-263.74"/>
<polygon fill="black" stroke="black" points="727.51,-260.8 717.24,-258.16 723.62,-266.62 727.51,-260.8"/>
</g>
<!-- 49 -->
<g id="node50" class="node">
<title>49</title>
<polygon fill="none" stroke="black" points="861,-257 775,-257 775,-221 861,-221 861,-257"/>
<text text-anchor="middle" x="818" y="-235.3" font-family="Times,serif" font-size="14.00">class = USA</text>
</g>
<!-- 41&#45;&gt;49 -->
<g id="edge49" class="edge">
<title>41&#45;&gt;49</title>
<path fill="none" stroke="black" d="M803.05,-293.83C805.28,-285.81 807.94,-276.2 810.41,-267.34"/>
<polygon fill="black" stroke="black" points="813.86,-267.99 813.16,-257.42 807.11,-266.12 813.86,-267.99"/>
</g>
<!-- 43 -->
<g id="node44" class="node">
<title>43</title>
<polygon fill="none" stroke="black" points="715,-183 629,-183 629,-147 715,-147 715,-183"/>
<text text-anchor="middle" x="672" y="-161.3" font-family="Times,serif" font-size="14.00">class = USA</text>
</g>
<!-- 42&#45;&gt;43 -->
<g id="edge43" class="edge">
<title>42&#45;&gt;43</title>
<path fill="none" stroke="black" d="M685.46,-219.83C683.45,-211.81 681.05,-202.2 678.83,-193.34"/>
<polygon fill="black" stroke="black" points="682.18,-192.27 676.35,-183.42 675.38,-193.97 682.18,-192.27"/>
</g>
<!-- 44 -->
<g id="node45" class="node">
<title>44</title>
<polygon fill="none" stroke="black" points="867,-184 733,-184 733,-146 867,-146 867,-184"/>
<text text-anchor="middle" x="800" y="-168.8" font-family="Times,serif" font-size="14.00">longitude &lt;= &#45;68.597</text>
<text text-anchor="middle" x="800" y="-153.8" font-family="Times,serif" font-size="14.00">class = Canada</text>
</g>
<!-- 42&#45;&gt;44 -->
<g id="edge44" class="edge">
<title>42&#45;&gt;44</title>
<path fill="none" stroke="black" d="M717.76,-219.83C731.7,-210.71 748.76,-199.54 763.72,-189.74"/>
<polygon fill="black" stroke="black" points="765.8,-192.57 772.25,-184.16 761.97,-186.71 765.8,-192.57"/>
</g>
<!-- 45 -->
<g id="node46" class="node">
<title>45</title>
<polygon fill="none" stroke="black" points="781.5,-109 682.5,-109 682.5,-73 781.5,-73 781.5,-109"/>
<text text-anchor="middle" x="732" y="-87.3" font-family="Times,serif" font-size="14.00">class = Canada</text>
</g>
<!-- 44&#45;&gt;45 -->
<g id="edge45" class="edge">
<title>44&#45;&gt;45</title>
<path fill="none" stroke="black" d="M782.84,-145.83C774.52,-137.02 764.4,-126.31 755.39,-116.76"/>
<polygon fill="black" stroke="black" points="757.86,-114.28 748.45,-109.42 752.77,-119.09 757.86,-114.28"/>
</g>
<!-- 46 -->
<g id="node47" class="node">
<title>46</title>
<polygon fill="none" stroke="black" points="934,-110 800,-110 800,-72 934,-72 934,-110"/>
<text text-anchor="middle" x="867" y="-94.8" font-family="Times,serif" font-size="14.00">longitude &lt;= &#45;68.459</text>
<text text-anchor="middle" x="867" y="-79.8" font-family="Times,serif" font-size="14.00">class = Canada</text>
</g>
<!-- 44&#45;&gt;46 -->
<g id="edge46" class="edge">
<title>44&#45;&gt;46</title>
<path fill="none" stroke="black" d="M816.91,-145.83C824.78,-137.37 834.29,-127.15 842.9,-117.9"/>
<polygon fill="black" stroke="black" points="845.62,-120.12 849.87,-110.41 840.49,-115.35 845.62,-120.12"/>
</g>
<!-- 47 -->
<g id="node48" class="node">
<title>47</title>
<polygon fill="none" stroke="black" points="854,-36 768,-36 768,0 854,0 854,-36"/>
<text text-anchor="middle" x="811" y="-14.3" font-family="Times,serif" font-size="14.00">class = USA</text>
</g>
<!-- 46&#45;&gt;47 -->
<g id="edge47" class="edge">
<title>46&#45;&gt;47</title>
<path fill="none" stroke="black" d="M852.58,-71.72C845.93,-63.29 837.93,-53.15 830.73,-44.02"/>
<polygon fill="black" stroke="black" points="833.35,-41.69 824.41,-36 827.86,-46.02 833.35,-41.69"/>
</g>
<!-- 48 -->
<g id="node49" class="node">
<title>48</title>
<polygon fill="none" stroke="black" points="971.5,-36 872.5,-36 872.5,0 971.5,0 971.5,-36"/>
<text text-anchor="middle" x="922" y="-14.3" font-family="Times,serif" font-size="14.00">class = Canada</text>
</g>
<!-- 46&#45;&gt;48 -->
<g id="edge48" class="edge">
<title>46&#45;&gt;48</title>
<path fill="none" stroke="black" d="M881.16,-71.72C887.69,-63.29 895.55,-53.15 902.62,-44.02"/>
<polygon fill="black" stroke="black" points="905.47,-46.05 908.83,-36 899.94,-41.77 905.47,-46.05"/>
</g>
<!-- 51 -->
<g id="node52" class="node">
<title>51</title>
<polygon fill="none" stroke="black" points="1013,-258 879,-258 879,-220 1013,-220 1013,-258"/>
<text text-anchor="middle" x="946" y="-242.8" font-family="Times,serif" font-size="14.00">longitude &lt;= &#45;67.355</text>
<text text-anchor="middle" x="946" y="-227.8" font-family="Times,serif" font-size="14.00">class = Canada</text>
</g>
<!-- 50&#45;&gt;51 -->
<g id="edge51" class="edge">
<title>50&#45;&gt;51</title>
<path fill="none" stroke="black" d="M946,-293.83C946,-286.13 946,-276.97 946,-268.42"/>
<polygon fill="black" stroke="black" points="949.5,-268.41 946,-258.41 942.5,-268.41 949.5,-268.41"/>
</g>
<!-- 54 -->
<g id="node55" class="node">
<title>54</title>
<polygon fill="none" stroke="black" points="1130.5,-257 1031.5,-257 1031.5,-221 1130.5,-221 1130.5,-257"/>
<text text-anchor="middle" x="1081" y="-235.3" font-family="Times,serif" font-size="14.00">class = Canada</text>
</g>
<!-- 50&#45;&gt;54 -->
<g id="edge54" class="edge">
<title>50&#45;&gt;54</title>
<path fill="none" stroke="black" d="M980.07,-293.83C998.19,-284.17 1020.62,-272.2 1039.72,-262.01"/>
<polygon fill="black" stroke="black" points="1041.63,-264.97 1048.8,-257.17 1038.33,-258.79 1041.63,-264.97"/>
</g>
<!-- 52 -->
<g id="node53" class="node">
<title>52</title>
<polygon fill="none" stroke="black" points="983,-183 897,-183 897,-147 983,-147 983,-183"/>
<text text-anchor="middle" x="940" y="-161.3" font-family="Times,serif" font-size="14.00">class = USA</text>
</g>
<!-- 51&#45;&gt;52 -->
<g id="edge52" class="edge">
<title>51&#45;&gt;52</title>
<path fill="none" stroke="black" d="M944.49,-219.83C943.82,-211.89 943.03,-202.41 942.3,-193.63"/>
<polygon fill="black" stroke="black" points="945.77,-193.09 941.45,-183.42 938.79,-193.67 945.77,-193.09"/>
</g>
<!-- 53 -->
<g id="node54" class="node">
<title>53</title>
<polygon fill="none" stroke="black" points="1100.5,-183 1001.5,-183 1001.5,-147 1100.5,-147 1100.5,-183"/>
<text text-anchor="middle" x="1051" y="-161.3" font-family="Times,serif" font-size="14.00">class = Canada</text>
</g>
<!-- 51&#45;&gt;53 -->
<g id="edge53" class="edge">
<title>51&#45;&gt;53</title>
<path fill="none" stroke="black" d="M972.5,-219.83C986.21,-210.43 1003.09,-198.86 1017.67,-188.85"/>
<polygon fill="black" stroke="black" points="1019.69,-191.71 1025.96,-183.17 1015.73,-185.94 1019.69,-191.71"/>
</g>
</g>
</svg>
