<?xml version="1.0" encoding="UTF-8" standalone="no"?>
<!DOCTYPE svg PUBLIC "-//W3C//DTD SVG 1.1//EN"
 "http://www.w3.org/Graphics/SVG/1.1/DTD/svg11.dtd">
<!-- Generated by graphviz version 2.44.1 (20200629.0846)
 -->
<!-- Title: Tree Pages: 1 -->
<svg width="1125pt" height="932pt"
 viewBox="0.00 0.00 1124.50 932.00" xmlns="http://www.w3.org/2000/svg" xmlns:xlink="http://www.w3.org/1999/xlink">
<g id="graph0" class="graph" transform="scale(1 1) rotate(0) translate(4 928)">
<title>Tree</title>
<polygon fill="white" stroke="transparent" points="-4,4 -4,-928 1120.5,-928 1120.5,4 -4,4"/>
<!-- 0 -->
<g id="node1" class="node">
<title>0</title>
<polygon fill="none" stroke="black" points="297.5,-924 192.5,-924 192.5,-886 297.5,-886 297.5,-924"/>
<text text-anchor="middle" x="245" y="-908.8" font-family="Times,serif" font-size="14.00">latitude &lt;= 42.9</text>
<text text-anchor="middle" x="245" y="-893.8" font-family="Times,serif" font-size="14.00">class = Canada</text>
</g>
<!-- 1 -->
<g id="node2" class="node">
<title>1</title>
<polygon fill="none" stroke="black" points="230.5,-850 111.5,-850 111.5,-812 230.5,-812 230.5,-850"/>
<text text-anchor="middle" x="171" y="-834.8" font-family="Times,serif" font-size="14.00">latitude &lt;= 42.096</text>
<text text-anchor="middle" x="171" y="-819.8" font-family="Times,serif" font-size="14.00">class = USA</text>
</g>
<!-- 0&#45;&gt;1 -->
<g id="edge1" class="edge">
<title>0&#45;&gt;1</title>
<path fill="none" stroke="black" d="M226.33,-885.83C217.48,-877.22 206.75,-866.79 197.11,-857.4"/>
<polygon fill="black" stroke="black" points="199.28,-854.63 189.67,-850.16 194.39,-859.64 199.28,-854.63"/>
<text text-anchor="middle" x="190.01" y="-871.46" font-family="Times,serif" font-size="14.00">True</text>
</g>
<!-- 6 -->
<g id="node7" class="node">
<title>6</title>
<polygon fill="none" stroke="black" points="389,-850 249,-850 249,-812 389,-812 389,-850"/>
<text text-anchor="middle" x="319" y="-834.8" font-family="Times,serif" font-size="14.00">longitude &lt;= &#45;130.017</text>
<text text-anchor="middle" x="319" y="-819.8" font-family="Times,serif" font-size="14.00">class = Canada</text>
</g>
<!-- 0&#45;&gt;6 -->
<g id="edge6" class="edge">
<title>0&#45;&gt;6</title>
<path fill="none" stroke="black" d="M263.67,-885.83C272.52,-877.22 283.25,-866.79 292.89,-857.4"/>
<polygon fill="black" stroke="black" points="295.61,-859.64 300.33,-850.16 290.72,-854.63 295.61,-859.64"/>
<text text-anchor="middle" x="299.99" y="-871.46" font-family="Times,serif" font-size="14.00">False</text>
</g>
<!-- 2 -->
<g id="node3" class="node">
<title>2</title>
<polygon fill="none" stroke="black" points="98,-775 12,-775 12,-739 98,-739 98,-775"/>
<text text-anchor="middle" x="55" y="-753.3" font-family="Times,serif" font-size="14.00">class = USA</text>
</g>
<!-- 1&#45;&gt;2 -->
<g id="edge2" class="edge">
<title>1&#45;&gt;2</title>
<path fill="none" stroke="black" d="M141.73,-811.83C126.44,-802.34 107.58,-790.64 91.37,-780.57"/>
<polygon fill="black" stroke="black" points="93.01,-777.47 82.67,-775.17 89.32,-783.42 93.01,-777.47"/>
</g>
<!-- 3 -->
<g id="node4" class="node">
<title>3</title>
<polygon fill="none" stroke="black" points="235.5,-776 116.5,-776 116.5,-738 235.5,-738 235.5,-776"/>
<text text-anchor="middle" x="176" y="-760.8" font-family="Times,serif" font-size="14.00">latitude &lt;= 42.324</text>
<text text-anchor="middle" x="176" y="-745.8" font-family="Times,serif" font-size="14.00">class = USA</text>
</g>
<!-- 1&#45;&gt;3 -->
<g id="edge3" class="edge">
<title>1&#45;&gt;3</title>
<path fill="none" stroke="black" d="M172.26,-811.83C172.8,-804.13 173.43,-794.97 174.03,-786.42"/>
<polygon fill="black" stroke="black" points="177.52,-786.63 174.72,-776.41 170.54,-786.15 177.52,-786.63"/>
</g>
<!-- 4 -->
<g id="node5" class="node">
<title>4</title>
<polygon fill="none" stroke="black" points="218.5,-701 119.5,-701 119.5,-665 218.5,-665 218.5,-701"/>
<text text-anchor="middle" x="169" y="-679.3" font-family="Times,serif" font-size="14.00">class = Canada</text>
</g>
<!-- 3&#45;&gt;4 -->
<g id="edge4" class="edge">
<title>3&#45;&gt;4</title>
<path fill="none" stroke="black" d="M174.23,-737.83C173.46,-729.89 172.54,-720.41 171.69,-711.63"/>
<polygon fill="black" stroke="black" points="175.14,-711.03 170.69,-701.42 168.18,-711.71 175.14,-711.03"/>
</g>
<!-- 5 -->
<g id="node6" class="node">
<title>5</title>
<polygon fill="none" stroke="black" points="323,-701 237,-701 237,-665 323,-665 323,-701"/>
<text text-anchor="middle" x="280" y="-679.3" font-family="Times,serif" font-size="14.00">class = USA</text>
</g>
<!-- 3&#45;&gt;5 -->
<g id="edge5" class="edge">
<title>3&#45;&gt;5</title>
<path fill="none" stroke="black" d="M202.24,-737.83C215.7,-728.52 232.23,-717.07 246.59,-707.13"/>
<polygon fill="black" stroke="black" points="248.97,-709.74 255.2,-701.17 244.98,-703.99 248.97,-709.74"/>
</g>
<!-- 7 -->
<g id="node8" class="node">
<title>7</title>
<polygon fill="none" stroke="black" points="353,-775 267,-775 267,-739 353,-739 353,-775"/>
<text text-anchor="middle" x="310" y="-753.3" font-family="Times,serif" font-size="14.00">class = USA</text>
</g>
<!-- 6&#45;&gt;7 -->
<g id="edge7" class="edge">
<title>6&#45;&gt;7</title>
<path fill="none" stroke="black" d="M316.73,-811.83C315.74,-803.89 314.55,-794.41 313.45,-785.63"/>
<polygon fill="black" stroke="black" points="316.89,-784.91 312.18,-775.42 309.94,-785.77 316.89,-784.91"/>
</g>
<!-- 8 -->
<g id="node9" class="node">
<title>8</title>
<polygon fill="none" stroke="black" points="476.5,-776 371.5,-776 371.5,-738 476.5,-738 476.5,-776"/>
<text text-anchor="middle" x="424" y="-760.8" font-family="Times,serif" font-size="14.00">latitude &lt;= 49.0</text>
<text text-anchor="middle" x="424" y="-745.8" font-family="Times,serif" font-size="14.00">class = Canada</text>
</g>
<!-- 6&#45;&gt;8 -->
<g id="edge8" class="edge">
<title>6&#45;&gt;8</title>
<path fill="none" stroke="black" d="M345.5,-811.83C358.68,-802.79 374.78,-791.75 388.97,-782.02"/>
<polygon fill="black" stroke="black" points="391.24,-784.7 397.51,-776.16 387.29,-778.93 391.24,-784.7"/>
</g>
<!-- 9 -->
<g id="node10" class="node">
<title>9</title>
<polygon fill="none" stroke="black" points="486,-702 352,-702 352,-664 486,-664 486,-702"/>
<text text-anchor="middle" x="419" y="-686.8" font-family="Times,serif" font-size="14.00">longitude &lt;= &#45;94.582</text>
<text text-anchor="middle" x="419" y="-671.8" font-family="Times,serif" font-size="14.00">class = Canada</text>
</g>
<!-- 8&#45;&gt;9 -->
<g id="edge9" class="edge">
<title>8&#45;&gt;9</title>
<path fill="none" stroke="black" d="M422.74,-737.83C422.2,-730.13 421.57,-720.97 420.97,-712.42"/>
<polygon fill="black" stroke="black" points="424.46,-712.15 420.28,-702.41 417.48,-712.63 424.46,-712.15"/>
</g>
<!-- 56 -->
<g id="node57" class="node">
<title>56</title>
<polygon fill="none" stroke="black" points="603.5,-701 504.5,-701 504.5,-665 603.5,-665 603.5,-701"/>
<text text-anchor="middle" x="554" y="-679.3" font-family="Times,serif" font-size="14.00">class = Canada</text>
</g>
<!-- 8&#45;&gt;56 -->
<g id="edge56" class="edge">
<title>8&#45;&gt;56</title>
<path fill="none" stroke="black" d="M456.8,-737.83C474.18,-728.21 495.66,-716.31 514,-706.15"/>
<polygon fill="black" stroke="black" points="515.94,-709.08 523,-701.17 512.55,-702.95 515.94,-709.08"/>
</g>
<!-- 10 -->
<g id="node11" class="node">
<title>10</title>
<polygon fill="none" stroke="black" points="412,-628 272,-628 272,-590 412,-590 412,-628"/>
<text text-anchor="middle" x="342" y="-612.8" font-family="Times,serif" font-size="14.00">longitude &lt;= &#45;123.222</text>
<text text-anchor="middle" x="342" y="-597.8" font-family="Times,serif" font-size="14.00">class = USA</text>
</g>
<!-- 9&#45;&gt;10 -->
<g id="edge10" class="edge">
<title>9&#45;&gt;10</title>
<path fill="none" stroke="black" d="M399.57,-663.83C390.27,-655.13 378.98,-644.58 368.87,-635.13"/>
<polygon fill="black" stroke="black" points="371.12,-632.44 361.42,-628.16 366.34,-637.55 371.12,-632.44"/>
</g>
<!-- 13 -->
<g id="node14" class="node">
<title>13</title>
<polygon fill="none" stroke="black" points="564,-628 430,-628 430,-590 564,-590 564,-628"/>
<text text-anchor="middle" x="497" y="-612.8" font-family="Times,serif" font-size="14.00">longitude &lt;= &#45;69.246</text>
<text text-anchor="middle" x="497" y="-597.8" font-family="Times,serif" font-size="14.00">class = Canada</text>
</g>
<!-- 9&#45;&gt;13 -->
<g id="edge13" class="edge">
<title>9&#45;&gt;13</title>
<path fill="none" stroke="black" d="M438.68,-663.83C448.11,-655.13 459.54,-644.58 469.78,-635.13"/>
<polygon fill="black" stroke="black" points="472.35,-637.52 477.32,-628.16 467.6,-632.37 472.35,-637.52"/>
</g>
<!-- 11 -->
<g id="node12" class="node">
<title>11</title>
<polygon fill="none" stroke="black" points="289.5,-553 190.5,-553 190.5,-517 289.5,-517 289.5,-553"/>
<text text-anchor="middle" x="240" y="-531.3" font-family="Times,serif" font-size="14.00">class = Canada</text>
</g>
<!-- 10&#45;&gt;11 -->
<g id="edge11" class="edge">
<title>10&#45;&gt;11</title>
<path fill="none" stroke="black" d="M316.26,-589.83C303.07,-580.52 286.85,-569.07 272.77,-559.13"/>
<polygon fill="black" stroke="black" points="274.51,-556.08 264.33,-553.17 270.48,-561.8 274.51,-556.08"/>
</g>
<!-- 12 -->
<g id="node13" class="node">
<title>12</title>
<polygon fill="none" stroke="black" points="394,-553 308,-553 308,-517 394,-517 394,-553"/>
<text text-anchor="middle" x="351" y="-531.3" font-family="Times,serif" font-size="14.00">class = USA</text>
</g>
<!-- 10&#45;&gt;12 -->
<g id="edge12" class="edge">
<title>10&#45;&gt;12</title>
<path fill="none" stroke="black" d="M344.27,-589.83C345.26,-581.89 346.45,-572.41 347.55,-563.63"/>
<polygon fill="black" stroke="black" points="351.06,-563.77 348.82,-553.42 344.11,-562.91 351.06,-563.77"/>
</g>
<!-- 14 -->
<g id="node15" class="node">
<title>14</title>
<polygon fill="none" stroke="black" points="548.5,-554 429.5,-554 429.5,-516 548.5,-516 548.5,-554"/>
<text text-anchor="middle" x="489" y="-538.8" font-family="Times,serif" font-size="14.00">latitude &lt;= 43.093</text>
<text text-anchor="middle" x="489" y="-523.8" font-family="Times,serif" font-size="14.00">class = Canada</text>
</g>
<!-- 13&#45;&gt;14 -->
<g id="edge14" class="edge">
<title>13&#45;&gt;14</title>
<path fill="none" stroke="black" d="M494.98,-589.83C494.13,-582.13 493.11,-572.97 492.16,-564.42"/>
<polygon fill="black" stroke="black" points="495.63,-563.97 491.05,-554.41 488.67,-564.74 495.63,-563.97"/>
</g>
<!-- 37 -->
<g id="node38" class="node">
<title>37</title>
<polygon fill="none" stroke="black" points="753,-554 619,-554 619,-516 753,-516 753,-554"/>
<text text-anchor="middle" x="686" y="-538.8" font-family="Times,serif" font-size="14.00">longitude &lt;= &#45;66.952</text>
<text text-anchor="middle" x="686" y="-523.8" font-family="Times,serif" font-size="14.00">class = Canada</text>
</g>
<!-- 13&#45;&gt;37 -->
<g id="edge37" class="edge">
<title>13&#45;&gt;37</title>
<path fill="none" stroke="black" d="M544.69,-589.83C570.31,-580.07 602.06,-567.98 628.97,-557.72"/>
<polygon fill="black" stroke="black" points="630.55,-560.87 638.65,-554.04 628.06,-554.33 630.55,-560.87"/>
</g>
<!-- 15 -->
<g id="node16" class="node">
<title>15</title>
<polygon fill="none" stroke="black" points="348.5,-480 229.5,-480 229.5,-442 348.5,-442 348.5,-480"/>
<text text-anchor="middle" x="289" y="-464.8" font-family="Times,serif" font-size="14.00">latitude &lt;= 43.014</text>
<text text-anchor="middle" x="289" y="-449.8" font-family="Times,serif" font-size="14.00">class = Canada</text>
</g>
<!-- 14&#45;&gt;15 -->
<g id="edge15" class="edge">
<title>14&#45;&gt;15</title>
<path fill="none" stroke="black" d="M438.79,-515.92C411.45,-506.08 377.44,-493.84 348.74,-483.51"/>
<polygon fill="black" stroke="black" points="349.83,-480.18 339.23,-480.08 347.45,-486.76 349.83,-480.18"/>
</g>
<!-- 20 -->
<g id="node21" class="node">
<title>20</title>
<polygon fill="none" stroke="black" points="548.5,-480 429.5,-480 429.5,-442 548.5,-442 548.5,-480"/>
<text text-anchor="middle" x="489" y="-464.8" font-family="Times,serif" font-size="14.00">latitude &lt;= 44.992</text>
<text text-anchor="middle" x="489" y="-449.8" font-family="Times,serif" font-size="14.00">class = Canada</text>
</g>
<!-- 14&#45;&gt;20 -->
<g id="edge20" class="edge">
<title>14&#45;&gt;20</title>
<path fill="none" stroke="black" d="M489,-515.83C489,-508.13 489,-498.97 489,-490.42"/>
<polygon fill="black" stroke="black" points="492.5,-490.41 489,-480.41 485.5,-490.41 492.5,-490.41"/>
</g>
<!-- 16 -->
<g id="node17" class="node">
<title>16</title>
<polygon fill="none" stroke="black" points="221,-406 87,-406 87,-368 221,-368 221,-406"/>
<text text-anchor="middle" x="154" y="-390.8" font-family="Times,serif" font-size="14.00">longitude &lt;= &#45;81.845</text>
<text text-anchor="middle" x="154" y="-375.8" font-family="Times,serif" font-size="14.00">class = Canada</text>
</g>
<!-- 15&#45;&gt;16 -->
<g id="edge16" class="edge">
<title>15&#45;&gt;16</title>
<path fill="none" stroke="black" d="M254.93,-441.83C237.35,-432.45 215.71,-420.91 196.98,-410.92"/>
<polygon fill="black" stroke="black" points="198.53,-407.78 188.06,-406.16 195.23,-413.96 198.53,-407.78"/>
</g>
<!-- 19 -->
<g id="node20" class="node">
<title>19</title>
<polygon fill="none" stroke="black" points="332,-405 246,-405 246,-369 332,-369 332,-405"/>
<text text-anchor="middle" x="289" y="-383.3" font-family="Times,serif" font-size="14.00">class = USA</text>
</g>
<!-- 15&#45;&gt;19 -->
<g id="edge19" class="edge">
<title>15&#45;&gt;19</title>
<path fill="none" stroke="black" d="M289,-441.83C289,-433.89 289,-424.41 289,-415.63"/>
<polygon fill="black" stroke="black" points="292.5,-415.42 289,-405.42 285.5,-415.42 292.5,-415.42"/>
</g>
<!-- 17 -->
<g id="node18" class="node">
<title>17</title>
<polygon fill="none" stroke="black" points="86,-331 0,-331 0,-295 86,-295 86,-331"/>
<text text-anchor="middle" x="43" y="-309.3" font-family="Times,serif" font-size="14.00">class = USA</text>
</g>
<!-- 16&#45;&gt;17 -->
<g id="edge17" class="edge">
<title>16&#45;&gt;17</title>
<path fill="none" stroke="black" d="M125.99,-367.83C111.49,-358.43 93.65,-346.86 78.23,-336.85"/>
<polygon fill="black" stroke="black" points="79.77,-333.68 69.47,-331.17 75.96,-339.55 79.77,-333.68"/>
</g>
<!-- 18 -->
<g id="node19" class="node">
<title>18</title>
<polygon fill="none" stroke="black" points="203.5,-331 104.5,-331 104.5,-295 203.5,-295 203.5,-331"/>
<text text-anchor="middle" x="154" y="-309.3" font-family="Times,serif" font-size="14.00">class = Canada</text>
</g>
<!-- 16&#45;&gt;18 -->
<g id="edge18" class="edge">
<title>16&#45;&gt;18</title>
<path fill="none" stroke="black" d="M154,-367.83C154,-359.89 154,-350.41 154,-341.63"/>
<polygon fill="black" stroke="black" points="157.5,-341.42 154,-331.42 150.5,-341.42 157.5,-341.42"/>
</g>
<!-- 21 -->
<g id="node22" class="node">
<title>21</title>
<polygon fill="none" stroke="black" points="483.5,-406 364.5,-406 364.5,-368 483.5,-368 483.5,-406"/>
<text text-anchor="middle" x="424" y="-390.8" font-family="Times,serif" font-size="14.00">latitude &lt;= 44.542</text>
<text text-anchor="middle" x="424" y="-375.8" font-family="Times,serif" font-size="14.00">class = Canada</text>
</g>
<!-- 20&#45;&gt;21 -->
<g id="edge21" class="edge">
<title>20&#45;&gt;21</title>
<path fill="none" stroke="black" d="M472.6,-441.83C464.96,-433.37 455.73,-423.15 447.38,-413.9"/>
<polygon fill="black" stroke="black" points="449.92,-411.49 440.62,-406.41 444.73,-416.18 449.92,-411.49"/>
</g>
<!-- 36 -->
<g id="node37" class="node">
<title>36</title>
<polygon fill="none" stroke="black" points="600.5,-405 501.5,-405 501.5,-369 600.5,-369 600.5,-405"/>
<text text-anchor="middle" x="551" y="-383.3" font-family="Times,serif" font-size="14.00">class = Canada</text>
</g>
<!-- 20&#45;&gt;36 -->
<g id="edge36" class="edge">
<title>20&#45;&gt;36</title>
<path fill="none" stroke="black" d="M504.65,-441.83C512.16,-433.11 521.28,-422.52 529.43,-413.05"/>
<polygon fill="black" stroke="black" points="532.13,-415.28 536,-405.42 526.82,-410.71 532.13,-415.28"/>
</g>
<!-- 22 -->
<g id="node23" class="node">
<title>22</title>
<polygon fill="none" stroke="black" points="356,-332 222,-332 222,-294 356,-294 356,-332"/>
<text text-anchor="middle" x="289" y="-316.8" font-family="Times,serif" font-size="14.00">longitude &lt;= &#45;79.076</text>
<text text-anchor="middle" x="289" y="-301.8" font-family="Times,serif" font-size="14.00">class = Canada</text>
</g>
<!-- 21&#45;&gt;22 -->
<g id="edge22" class="edge">
<title>21&#45;&gt;22</title>
<path fill="none" stroke="black" d="M389.93,-367.83C372.35,-358.45 350.71,-346.91 331.98,-336.92"/>
<polygon fill="black" stroke="black" points="333.53,-333.78 323.06,-332.16 330.23,-339.96 333.53,-333.78"/>
</g>
<!-- 31 -->
<g id="node32" class="node">
<title>31</title>
<polygon fill="none" stroke="black" points="493.5,-332 374.5,-332 374.5,-294 493.5,-294 493.5,-332"/>
<text text-anchor="middle" x="434" y="-316.8" font-family="Times,serif" font-size="14.00">latitude &lt;= 44.706</text>
<text text-anchor="middle" x="434" y="-301.8" font-family="Times,serif" font-size="14.00">class = USA</text>
</g>
<!-- 21&#45;&gt;31 -->
<g id="edge31" class="edge">
<title>21&#45;&gt;31</title>
<path fill="none" stroke="black" d="M426.52,-367.83C427.59,-360.13 428.86,-350.97 430.05,-342.42"/>
<polygon fill="black" stroke="black" points="433.53,-342.8 431.44,-332.41 426.6,-341.84 433.53,-342.8"/>
</g>
<!-- 23 -->
<g id="node24" class="node">
<title>23</title>
<polygon fill="none" stroke="black" points="211.5,-257 112.5,-257 112.5,-221 211.5,-221 211.5,-257"/>
<text text-anchor="middle" x="162" y="-235.3" font-family="Times,serif" font-size="14.00">class = Canada</text>
</g>
<!-- 22&#45;&gt;23 -->
<g id="edge23" class="edge">
<title>22&#45;&gt;23</title>
<path fill="none" stroke="black" d="M256.95,-293.83C240.06,-284.25 219.19,-272.42 201.32,-262.29"/>
<polygon fill="black" stroke="black" points="202.71,-259.06 192.29,-257.17 199.26,-265.15 202.71,-259.06"/>
</g>
<!-- 24 -->
<g id="node25" class="node">
<title>24</title>
<polygon fill="none" stroke="black" points="348.5,-258 229.5,-258 229.5,-220 348.5,-220 348.5,-258"/>
<text text-anchor="middle" x="289" y="-242.8" font-family="Times,serif" font-size="14.00">latitude &lt;= 44.168</text>
<text text-anchor="middle" x="289" y="-227.8" font-family="Times,serif" font-size="14.00">class = Canada</text>
</g>
<!-- 22&#45;&gt;24 -->
<g id="edge24" class="edge">
<title>22&#45;&gt;24</title>
<path fill="none" stroke="black" d="M289,-293.83C289,-286.13 289,-276.97 289,-268.42"/>
<polygon fill="black" stroke="black" points="292.5,-268.41 289,-258.41 285.5,-268.41 292.5,-268.41"/>
</g>
<!-- 25 -->
<g id="node26" class="node">
<title>25</title>
<polygon fill="none" stroke="black" points="228.5,-184 101.5,-184 101.5,-146 228.5,-146 228.5,-184"/>
<text text-anchor="middle" x="165" y="-168.8" font-family="Times,serif" font-size="14.00">longitude &lt;= &#45;79.03</text>
<text text-anchor="middle" x="165" y="-153.8" font-family="Times,serif" font-size="14.00">class = USA</text>
</g>
<!-- 24&#45;&gt;25 -->
<g id="edge25" class="edge">
<title>24&#45;&gt;25</title>
<path fill="none" stroke="black" d="M257.71,-219.83C241.7,-210.54 222.04,-199.12 204.95,-189.2"/>
<polygon fill="black" stroke="black" points="206.69,-186.16 196.28,-184.16 203.17,-192.21 206.69,-186.16"/>
</g>
<!-- 30 -->
<g id="node31" class="node">
<title>30</title>
<polygon fill="none" stroke="black" points="345.5,-183 246.5,-183 246.5,-147 345.5,-147 345.5,-183"/>
<text text-anchor="middle" x="296" y="-161.3" font-family="Times,serif" font-size="14.00">class = Canada</text>
</g>
<!-- 24&#45;&gt;30 -->
<g id="edge30" class="edge">
<title>24&#45;&gt;30</title>
<path fill="none" stroke="black" d="M290.77,-219.83C291.54,-211.89 292.46,-202.41 293.31,-193.63"/>
<polygon fill="black" stroke="black" points="296.82,-193.71 294.31,-183.42 289.86,-193.03 296.82,-193.71"/>
</g>
<!-- 26 -->
<g id="node27" class="node">
<title>26</title>
<polygon fill="none" stroke="black" points="144,-109 58,-109 58,-73 144,-73 144,-109"/>
<text text-anchor="middle" x="101" y="-87.3" font-family="Times,serif" font-size="14.00">class = USA</text>
</g>
<!-- 25&#45;&gt;26 -->
<g id="edge26" class="edge">
<title>25&#45;&gt;26</title>
<path fill="none" stroke="black" d="M148.85,-145.83C141.1,-137.11 131.68,-126.52 123.26,-117.05"/>
<polygon fill="black" stroke="black" points="125.74,-114.57 116.48,-109.42 120.51,-119.22 125.74,-114.57"/>
</g>
<!-- 27 -->
<g id="node28" class="node">
<title>27</title>
<polygon fill="none" stroke="black" points="296,-110 162,-110 162,-72 296,-72 296,-110"/>
<text text-anchor="middle" x="229" y="-94.8" font-family="Times,serif" font-size="14.00">longitude &lt;= &#45;77.678</text>
<text text-anchor="middle" x="229" y="-79.8" font-family="Times,serif" font-size="14.00">class = Canada</text>
</g>
<!-- 25&#45;&gt;27 -->
<g id="edge27" class="edge">
<title>25&#45;&gt;27</title>
<path fill="none" stroke="black" d="M181.15,-145.83C188.67,-137.37 197.76,-127.15 205.98,-117.9"/>
<polygon fill="black" stroke="black" points="208.6,-120.21 212.63,-110.41 203.37,-115.56 208.6,-120.21"/>
</g>
<!-- 28 -->
<g id="node29" class="node">
<title>28</title>
<polygon fill="none" stroke="black" points="222.5,-36 123.5,-36 123.5,0 222.5,0 222.5,-36"/>
<text text-anchor="middle" x="173" y="-14.3" font-family="Times,serif" font-size="14.00">class = Canada</text>
</g>
<!-- 27&#45;&gt;28 -->
<g id="edge28" class="edge">
<title>27&#45;&gt;28</title>
<path fill="none" stroke="black" d="M214.58,-71.72C207.93,-63.29 199.93,-53.15 192.73,-44.02"/>
<polygon fill="black" stroke="black" points="195.35,-41.69 186.41,-36 189.86,-46.02 195.35,-41.69"/>
</g>
<!-- 29 -->
<g id="node30" class="node">
<title>29</title>
<polygon fill="none" stroke="black" points="327,-36 241,-36 241,0 327,0 327,-36"/>
<text text-anchor="middle" x="284" y="-14.3" font-family="Times,serif" font-size="14.00">class = USA</text>
</g>
<!-- 27&#45;&gt;29 -->
<g id="edge29" class="edge">
<title>27&#45;&gt;29</title>
<path fill="none" stroke="black" d="M243.16,-71.72C249.69,-63.29 257.55,-53.15 264.62,-44.02"/>
<polygon fill="black" stroke="black" points="267.47,-46.05 270.83,-36 261.94,-41.77 267.47,-46.05"/>
</g>
<!-- 32 -->
<g id="node33" class="node">
<title>32</title>
<polygon fill="none" stroke="black" points="453,-257 367,-257 367,-221 453,-221 453,-257"/>
<text text-anchor="middle" x="410" y="-235.3" font-family="Times,serif" font-size="14.00">class = USA</text>
</g>
<!-- 31&#45;&gt;32 -->
<g id="edge32" class="edge">
<title>31&#45;&gt;32</title>
<path fill="none" stroke="black" d="M427.94,-293.83C425.24,-285.72 422,-275.99 419.02,-267.05"/>
<polygon fill="black" stroke="black" points="422.29,-265.8 415.81,-257.42 415.65,-268.01 422.29,-265.8"/>
</g>
<!-- 33 -->
<g id="node34" class="node">
<title>33</title>
<polygon fill="none" stroke="black" points="590.5,-258 471.5,-258 471.5,-220 590.5,-220 590.5,-258"/>
<text text-anchor="middle" x="531" y="-242.8" font-family="Times,serif" font-size="14.00">latitude &lt;= 44.848</text>
<text text-anchor="middle" x="531" y="-227.8" font-family="Times,serif" font-size="14.00">class = Canada</text>
</g>
<!-- 31&#45;&gt;33 -->
<g id="edge33" class="edge">
<title>31&#45;&gt;33</title>
<path fill="none" stroke="black" d="M458.48,-293.83C470.54,-284.88 485.25,-273.96 498.27,-264.3"/>
<polygon fill="black" stroke="black" points="500.59,-266.93 506.53,-258.16 496.41,-261.31 500.59,-266.93"/>
</g>
<!-- 34 -->
<g id="node35" class="node">
<title>34</title>
<polygon fill="none" stroke="black" points="474.5,-183 375.5,-183 375.5,-147 474.5,-147 474.5,-183"/>
<text text-anchor="middle" x="425" y="-161.3" font-family="Times,serif" font-size="14.00">class = Canada</text>
</g>
<!-- 33&#45;&gt;34 -->
<g id="edge34" class="edge">
<title>33&#45;&gt;34</title>
<path fill="none" stroke="black" d="M504.25,-219.83C490.41,-210.43 473.37,-198.86 458.64,-188.85"/>
<polygon fill="black" stroke="black" points="460.52,-185.9 450.28,-183.17 456.59,-191.69 460.52,-185.9"/>
</g>
<!-- 35 -->
<g id="node36" class="node">
<title>35</title>
<polygon fill="none" stroke="black" points="579,-183 493,-183 493,-147 579,-147 579,-183"/>
<text text-anchor="middle" x="536" y="-161.3" font-family="Times,serif" font-size="14.00">class = USA</text>
</g>
<!-- 33&#45;&gt;35 -->
<g id="edge35" class="edge">
<title>33&#45;&gt;35</title>
<path fill="none" stroke="black" d="M532.26,-219.83C532.81,-211.89 533.47,-202.41 534.08,-193.63"/>
<polygon fill="black" stroke="black" points="537.59,-193.64 534.79,-183.42 530.61,-193.15 537.59,-193.64"/>
</g>
<!-- 38 -->
<g id="node39" class="node">
<title>38</title>
<polygon fill="none" stroke="black" points="753,-480 619,-480 619,-442 753,-442 753,-480"/>
<text text-anchor="middle" x="686" y="-464.8" font-family="Times,serif" font-size="14.00">longitude &lt;= &#45;67.279</text>
<text text-anchor="middle" x="686" y="-449.8" font-family="Times,serif" font-size="14.00">class = USA</text>
</g>
<!-- 37&#45;&gt;38 -->
<g id="edge38" class="edge">
<title>37&#45;&gt;38</title>
<path fill="none" stroke="black" d="M686,-515.83C686,-508.13 686,-498.97 686,-490.42"/>
<polygon fill="black" stroke="black" points="689.5,-490.41 686,-480.41 682.5,-490.41 689.5,-490.41"/>
</g>
<!-- 55 -->
<g id="node56" class="node">
<title>55</title>
<polygon fill="none" stroke="black" points="870.5,-479 771.5,-479 771.5,-443 870.5,-443 870.5,-479"/>
<text text-anchor="middle" x="821" y="-457.3" font-family="Times,serif" font-size="14.00">class = Canada</text>
</g>
<!-- 37&#45;&gt;55 -->
<g id="edge55" class="edge">
<title>37&#45;&gt;55</title>
<path fill="none" stroke="black" d="M720.07,-515.83C738.19,-506.17 760.62,-494.2 779.72,-484.01"/>
<polygon fill="black" stroke="black" points="781.63,-486.97 788.8,-479.17 778.33,-480.79 781.63,-486.97"/>
</g>
<!-- 39 -->
<g id="node40" class="node">
<title>39</title>
<polygon fill="none" stroke="black" points="749.5,-406 622.5,-406 622.5,-368 749.5,-368 749.5,-406"/>
<text text-anchor="middle" x="686" y="-390.8" font-family="Times,serif" font-size="14.00">longitude &lt;= &#45;67.93</text>
<text text-anchor="middle" x="686" y="-375.8" font-family="Times,serif" font-size="14.00">class = Canada</text>
</g>
<!-- 38&#45;&gt;39 -->
<g id="edge39" class="edge">
<title>38&#45;&gt;39</title>
<path fill="none" stroke="black" d="M686,-441.83C686,-434.13 686,-424.97 686,-416.42"/>
<polygon fill="black" stroke="black" points="689.5,-416.41 686,-406.41 682.5,-416.41 689.5,-416.41"/>
</g>
<!-- 54 -->
<g id="node55" class="node">
<title>54</title>
<polygon fill="none" stroke="black" points="854,-405 768,-405 768,-369 854,-369 854,-405"/>
<text text-anchor="middle" x="811" y="-383.3" font-family="Times,serif" font-size="14.00">class = USA</text>
</g>
<!-- 38&#45;&gt;54 -->
<g id="edge54" class="edge">
<title>38&#45;&gt;54</title>
<path fill="none" stroke="black" d="M717.54,-441.83C734.17,-432.25 754.71,-420.42 772.3,-410.29"/>
<polygon fill="black" stroke="black" points="774.27,-413.2 781.19,-405.17 770.78,-407.13 774.27,-413.2"/>
</g>
<!-- 40 -->
<g id="node41" class="node">
<title>40</title>
<polygon fill="none" stroke="black" points="753,-332 619,-332 619,-294 753,-294 753,-332"/>
<text text-anchor="middle" x="686" y="-316.8" font-family="Times,serif" font-size="14.00">longitude &lt;= &#45;68.325</text>
<text text-anchor="middle" x="686" y="-301.8" font-family="Times,serif" font-size="14.00">class = USA</text>
</g>
<!-- 39&#45;&gt;40 -->
<g id="edge40" class="edge">
<title>39&#45;&gt;40</title>
<path fill="none" stroke="black" d="M686,-367.83C686,-360.13 686,-350.97 686,-342.42"/>
<polygon fill="black" stroke="black" points="689.5,-342.41 686,-332.41 682.5,-342.41 689.5,-342.41"/>
</g>
<!-- 49 -->
<g id="node50" class="node">
<title>49</title>
<polygon fill="none" stroke="black" points="991.5,-332 872.5,-332 872.5,-294 991.5,-294 991.5,-332"/>
<text text-anchor="middle" x="932" y="-316.8" font-family="Times,serif" font-size="14.00">latitude &lt;= 45.565</text>
<text text-anchor="middle" x="932" y="-301.8" font-family="Times,serif" font-size="14.00">class = Canada</text>
</g>
<!-- 39&#45;&gt;49 -->
<g id="edge49" class="edge">
<title>39&#45;&gt;49</title>
<path fill="none" stroke="black" d="M747.76,-367.92C782.62,-357.72 826.3,-344.94 862.38,-334.38"/>
<polygon fill="black" stroke="black" points="863.73,-337.63 872.34,-331.46 861.76,-330.91 863.73,-337.63"/>
</g>
<!-- 41 -->
<g id="node42" class="node">
<title>41</title>
<polygon fill="none" stroke="black" points="743,-258 609,-258 609,-220 743,-220 743,-258"/>
<text text-anchor="middle" x="676" y="-242.8" font-family="Times,serif" font-size="14.00">longitude &lt;= &#45;68.915</text>
<text text-anchor="middle" x="676" y="-227.8" font-family="Times,serif" font-size="14.00">class = Canada</text>
</g>
<!-- 40&#45;&gt;41 -->
<g id="edge41" class="edge">
<title>40&#45;&gt;41</title>
<path fill="none" stroke="black" d="M683.48,-293.83C682.41,-286.13 681.14,-276.97 679.95,-268.42"/>
<polygon fill="black" stroke="black" points="683.4,-267.84 678.56,-258.41 676.47,-268.8 683.4,-267.84"/>
</g>
<!-- 48 -->
<g id="node49" class="node">
<title>48</title>
<polygon fill="none" stroke="black" points="847,-257 761,-257 761,-221 847,-221 847,-257"/>
<text text-anchor="middle" x="804" y="-235.3" font-family="Times,serif" font-size="14.00">class = USA</text>
</g>
<!-- 40&#45;&gt;48 -->
<g id="edge48" class="edge">
<title>40&#45;&gt;48</title>
<path fill="none" stroke="black" d="M715.78,-293.83C731.33,-284.34 750.51,-272.64 767.01,-262.57"/>
<polygon fill="black" stroke="black" points="769.14,-265.37 775.86,-257.17 765.5,-259.39 769.14,-265.37"/>
</g>
<!-- 42 -->
<g id="node43" class="node">
<title>42</title>
<polygon fill="none" stroke="black" points="703,-183 617,-183 617,-147 703,-147 703,-183"/>
<text text-anchor="middle" x="660" y="-161.3" font-family="Times,serif" font-size="14.00">class = USA</text>
</g>
<!-- 41&#45;&gt;42 -->
<g id="edge42" class="edge">
<title>41&#45;&gt;42</title>
<path fill="none" stroke="black" d="M671.96,-219.83C670.18,-211.81 668.04,-202.2 666.08,-193.34"/>
<polygon fill="black" stroke="black" points="669.46,-192.42 663.87,-183.42 662.62,-193.94 669.46,-192.42"/>
</g>
<!-- 43 -->
<g id="node44" class="node">
<title>43</title>
<polygon fill="none" stroke="black" points="855,-184 721,-184 721,-146 855,-146 855,-184"/>
<text text-anchor="middle" x="788" y="-168.8" font-family="Times,serif" font-size="14.00">longitude &lt;= &#45;68.597</text>
<text text-anchor="middle" x="788" y="-153.8" font-family="Times,serif" font-size="14.00">class = Canada</text>
</g>
<!-- 41&#45;&gt;43 -->
<g id="edge43" class="edge">
<title>41&#45;&gt;43</title>
<path fill="none" stroke="black" d="M704.26,-219.83C718.46,-210.71 735.83,-199.54 751.06,-189.74"/>
<polygon fill="black" stroke="black" points="753.23,-192.51 759.75,-184.16 749.44,-186.63 753.23,-192.51"/>
</g>
<!-- 44 -->
<g id="node45" class="node">
<title>44</title>
<polygon fill="none" stroke="black" points="769.5,-109 670.5,-109 670.5,-73 769.5,-73 769.5,-109"/>
<text text-anchor="middle" x="720" y="-87.3" font-family="Times,serif" font-size="14.00">class = Canada</text>
</g>
<!-- 43&#45;&gt;44 -->
<g id="edge44" class="edge">
<title>43&#45;&gt;44</title>
<path fill="none" stroke="black" d="M770.84,-145.83C762.52,-137.02 752.4,-126.31 743.39,-116.76"/>
<polygon fill="black" stroke="black" points="745.86,-114.28 736.45,-109.42 740.77,-119.09 745.86,-114.28"/>
</g>
<!-- 45 -->
<g id="node46" class="node">
<title>45</title>
<polygon fill="none" stroke="black" points="922,-110 788,-110 788,-72 922,-72 922,-110"/>
<text text-anchor="middle" x="855" y="-94.8" font-family="Times,serif" font-size="14.00">longitude &lt;= &#45;68.459</text>
<text text-anchor="middle" x="855" y="-79.8" font-family="Times,serif" font-size="14.00">class = Canada</text>
</g>
<!-- 43&#45;&gt;45 -->
<g id="edge45" class="edge">
<title>43&#45;&gt;45</title>
<path fill="none" stroke="black" d="M804.91,-145.83C812.78,-137.37 822.29,-127.15 830.9,-117.9"/>
<polygon fill="black" stroke="black" points="833.62,-120.12 837.87,-110.41 828.49,-115.35 833.62,-120.12"/>
</g>
<!-- 46 -->
<g id="node47" class="node">
<title>46</title>
<polygon fill="none" stroke="black" points="842,-36 756,-36 756,0 842,0 842,-36"/>
<text text-anchor="middle" x="799" y="-14.3" font-family="Times,serif" font-size="14.00">class = USA</text>
</g>
<!-- 45&#45;&gt;46 -->
<g id="edge46" class="edge">
<title>45&#45;&gt;46</title>
<path fill="none" stroke="black" d="M840.58,-71.72C833.93,-63.29 825.93,-53.15 818.73,-44.02"/>
<polygon fill="black" stroke="black" points="821.35,-41.69 812.41,-36 815.86,-46.02 821.35,-41.69"/>
</g>
<!-- 47 -->
<g id="node48" class="node">
<title>47</title>
<polygon fill="none" stroke="black" points="959.5,-36 860.5,-36 860.5,0 959.5,0 959.5,-36"/>
<text text-anchor="middle" x="910" y="-14.3" font-family="Times,serif" font-size="14.00">class = Canada</text>
</g>
<!-- 45&#45;&gt;47 -->
<g id="edge47" class="edge">
<title>45&#45;&gt;47</title>
<path fill="none" stroke="black" d="M869.16,-71.72C875.69,-63.29 883.55,-53.15 890.62,-44.02"/>
<polygon fill="black" stroke="black" points="893.47,-46.05 896.83,-36 887.94,-41.77 893.47,-46.05"/>
</g>
<!-- 50 -->
<g id="node51" class="node">
<title>50</title>
<polygon fill="none" stroke="black" points="999,-258 865,-258 865,-220 999,-220 999,-258"/>
<text text-anchor="middle" x="932" y="-242.8" font-family="Times,serif" font-size="14.00">longitude &lt;= &#45;67.355</text>
<text text-anchor="middle" x="932" y="-227.8" font-family="Times,serif" font-size="14.00">class = Canada</text>
</g>
<!-- 49&#45;&gt;50 -->
<g id="edge50" class="edge">
<title>49&#45;&gt;50</title>
<path fill="none" stroke="black" d="M932,-293.83C932,-286.13 932,-276.97 932,-268.42"/>
<polygon fill="black" stroke="black" points="935.5,-268.41 932,-258.41 928.5,-268.41 935.5,-268.41"/>
</g>
<!-- 53 -->
<g id="node54" class="node">
<title>53</title>
<polygon fill="none" stroke="black" points="1116.5,-257 1017.5,-257 1017.5,-221 1116.5,-221 1116.5,-257"/>
<text text-anchor="middle" x="1067" y="-235.3" font-family="Times,serif" font-size="14.00">class = Canada</text>
</g>
<!-- 49&#45;&gt;53 -->
<g id="edge53" class="edge">
<title>49&#45;&gt;53</title>
<path fill="none" stroke="black" d="M966.07,-293.83C984.19,-284.17 1006.62,-272.2 1025.72,-262.01"/>
<polygon fill="black" stroke="black" points="1027.63,-264.97 1034.8,-257.17 1024.33,-258.79 1027.63,-264.97"/>
</g>
<!-- 51 -->
<g id="node52" class="node">
<title>51</title>
<polygon fill="none" stroke="black" points="969,-183 883,-183 883,-147 969,-147 969,-183"/>
<text text-anchor="middle" x="926" y="-161.3" font-family="Times,serif" font-size="14.00">class = USA</text>
</g>
<!-- 50&#45;&gt;51 -->
<g id="edge51" class="edge">
<title>50&#45;&gt;51</title>
<path fill="none" stroke="black" d="M930.49,-219.83C929.82,-211.89 929.03,-202.41 928.3,-193.63"/>
<polygon fill="black" stroke="black" points="931.77,-193.09 927.45,-183.42 924.79,-193.67 931.77,-193.09"/>
</g>
<!-- 52 -->
<g id="node53" class="node">
<title>52</title>
<polygon fill="none" stroke="black" points="1086.5,-183 987.5,-183 987.5,-147 1086.5,-147 1086.5,-183"/>
<text text-anchor="middle" x="1037" y="-161.3" font-family="Times,serif" font-size="14.00">class = Canada</text>
</g>
<!-- 50&#45;&gt;52 -->
<g id="edge52" class="edge">
<title>50&#45;&gt;52</title>
<path fill="none" stroke="black" d="M958.5,-219.83C972.21,-210.43 989.09,-198.86 1003.67,-188.85"/>
<polygon fill="black" stroke="black" points="1005.69,-191.71 1011.96,-183.17 1001.73,-185.94 1005.69,-191.71"/>
</g>
</g>
</svg>
