<?xml version="1.0" encoding="UTF-8" standalone="no"?>
<!DOCTYPE svg PUBLIC "-//W3C//DTD SVG 1.1//EN"
 "http://www.w3.org/Graphics/SVG/1.1/DTD/svg11.dtd">
<!-- Generated by graphviz version 2.44.1 (20200629.0846)
 -->
<!-- Title: Tree Pages: 1 -->
<svg width="1110pt" height="932pt"
 viewBox="0.00 0.00 1109.50 932.00" xmlns="http://www.w3.org/2000/svg" xmlns:xlink="http://www.w3.org/1999/xlink">
<g id="graph0" class="graph" transform="scale(1 1) rotate(0) translate(4 928)">
<title>Tree</title>
<polygon fill="white" stroke="transparent" points="-4,4 -4,-928 1105.5,-928 1105.5,4 -4,4"/>
<!-- 0 -->
<g id="node1" class="node">
<title>0</title>
<polygon fill="none" stroke="black" points="294.5,-924 189.5,-924 189.5,-886 294.5,-886 294.5,-924"/>
<text text-anchor="middle" x="242" y="-908.8" font-family="Times,serif" font-size="14.00">latitude &lt;= 42.9</text>
<text text-anchor="middle" x="242" y="-893.8" font-family="Times,serif" font-size="14.00">class = Canada</text>
</g>
<!-- 1 -->
<g id="node2" class="node">
<title>1</title>
<polygon fill="none" stroke="black" points="227.5,-850 108.5,-850 108.5,-812 227.5,-812 227.5,-850"/>
<text text-anchor="middle" x="168" y="-834.8" font-family="Times,serif" font-size="14.00">latitude &lt;= 42.096</text>
<text text-anchor="middle" x="168" y="-819.8" font-family="Times,serif" font-size="14.00">class = USA</text>
</g>
<!-- 0&#45;&gt;1 -->
<g id="edge1" class="edge">
<title>0&#45;&gt;1</title>
<path fill="none" stroke="black" d="M223.33,-885.83C214.48,-877.22 203.75,-866.79 194.11,-857.4"/>
<polygon fill="black" stroke="black" points="196.28,-854.63 186.67,-850.16 191.39,-859.64 196.28,-854.63"/>
<text text-anchor="middle" x="187.01" y="-871.46" font-family="Times,serif" font-size="14.00">True</text>
</g>
<!-- 6 -->
<g id="node7" class="node">
<title>6</title>
<polygon fill="none" stroke="black" points="386,-850 246,-850 246,-812 386,-812 386,-850"/>
<text text-anchor="middle" x="316" y="-834.8" font-family="Times,serif" font-size="14.00">longitude &lt;= &#45;130.017</text>
<text text-anchor="middle" x="316" y="-819.8" font-family="Times,serif" font-size="14.00">class = Canada</text>
</g>
<!-- 0&#45;&gt;6 -->
<g id="edge6" class="edge">
<title>0&#45;&gt;6</title>
<path fill="none" stroke="black" d="M260.67,-885.83C269.52,-877.22 280.25,-866.79 289.89,-857.4"/>
<polygon fill="black" stroke="black" points="292.61,-859.64 297.33,-850.16 287.72,-854.63 292.61,-859.64"/>
<text text-anchor="middle" x="296.99" y="-871.46" font-family="Times,serif" font-size="14.00">False</text>
</g>
<!-- 2 -->
<g id="node3" class="node">
<title>2</title>
<polygon fill="none" stroke="black" points="95,-775 9,-775 9,-739 95,-739 95,-775"/>
<text text-anchor="middle" x="52" y="-753.3" font-family="Times,serif" font-size="14.00">class = USA</text>
</g>
<!-- 1&#45;&gt;2 -->
<g id="edge2" class="edge">
<title>1&#45;&gt;2</title>
<path fill="none" stroke="black" d="M138.73,-811.83C123.44,-802.34 104.58,-790.64 88.37,-780.57"/>
<polygon fill="black" stroke="black" points="90.01,-777.47 79.67,-775.17 86.32,-783.42 90.01,-777.47"/>
</g>
<!-- 3 -->
<g id="node4" class="node">
<title>3</title>
<polygon fill="none" stroke="black" points="232.5,-776 113.5,-776 113.5,-738 232.5,-738 232.5,-776"/>
<text text-anchor="middle" x="173" y="-760.8" font-family="Times,serif" font-size="14.00">latitude &lt;= 42.324</text>
<text text-anchor="middle" x="173" y="-745.8" font-family="Times,serif" font-size="14.00">class = USA</text>
</g>
<!-- 1&#45;&gt;3 -->
<g id="edge3" class="edge">
<title>1&#45;&gt;3</title>
<path fill="none" stroke="black" d="M169.26,-811.83C169.8,-804.13 170.43,-794.97 171.03,-786.42"/>
<polygon fill="black" stroke="black" points="174.52,-786.63 171.72,-776.41 167.54,-786.15 174.52,-786.63"/>
</g>
<!-- 4 -->
<g id="node5" class="node">
<title>4</title>
<polygon fill="none" stroke="black" points="215.5,-701 116.5,-701 116.5,-665 215.5,-665 215.5,-701"/>
<text text-anchor="middle" x="166" y="-679.3" font-family="Times,serif" font-size="14.00">class = Canada</text>
</g>
<!-- 3&#45;&gt;4 -->
<g id="edge4" class="edge">
<title>3&#45;&gt;4</title>
<path fill="none" stroke="black" d="M171.23,-737.83C170.46,-729.89 169.54,-720.41 168.69,-711.63"/>
<polygon fill="black" stroke="black" points="172.14,-711.03 167.69,-701.42 165.18,-711.71 172.14,-711.03"/>
</g>
<!-- 5 -->
<g id="node6" class="node">
<title>5</title>
<polygon fill="none" stroke="black" points="320,-701 234,-701 234,-665 320,-665 320,-701"/>
<text text-anchor="middle" x="277" y="-679.3" font-family="Times,serif" font-size="14.00">class = USA</text>
</g>
<!-- 3&#45;&gt;5 -->
<g id="edge5" class="edge">
<title>3&#45;&gt;5</title>
<path fill="none" stroke="black" d="M199.24,-737.83C212.7,-728.52 229.23,-717.07 243.59,-707.13"/>
<polygon fill="black" stroke="black" points="245.97,-709.74 252.2,-701.17 241.98,-703.99 245.97,-709.74"/>
</g>
<!-- 7 -->
<g id="node8" class="node">
<title>7</title>
<polygon fill="none" stroke="black" points="350,-775 264,-775 264,-739 350,-739 350,-775"/>
<text text-anchor="middle" x="307" y="-753.3" font-family="Times,serif" font-size="14.00">class = USA</text>
</g>
<!-- 6&#45;&gt;7 -->
<g id="edge7" class="edge">
<title>6&#45;&gt;7</title>
<path fill="none" stroke="black" d="M313.73,-811.83C312.74,-803.89 311.55,-794.41 310.45,-785.63"/>
<polygon fill="black" stroke="black" points="313.89,-784.91 309.18,-775.42 306.94,-785.77 313.89,-784.91"/>
</g>
<!-- 8 -->
<g id="node9" class="node">
<title>8</title>
<polygon fill="none" stroke="black" points="473.5,-776 368.5,-776 368.5,-738 473.5,-738 473.5,-776"/>
<text text-anchor="middle" x="421" y="-760.8" font-family="Times,serif" font-size="14.00">latitude &lt;= 49.0</text>
<text text-anchor="middle" x="421" y="-745.8" font-family="Times,serif" font-size="14.00">class = Canada</text>
</g>
<!-- 6&#45;&gt;8 -->
<g id="edge8" class="edge">
<title>6&#45;&gt;8</title>
<path fill="none" stroke="black" d="M342.5,-811.83C355.68,-802.79 371.78,-791.75 385.97,-782.02"/>
<polygon fill="black" stroke="black" points="388.24,-784.7 394.51,-776.16 384.29,-778.93 388.24,-784.7"/>
</g>
<!-- 9 -->
<g id="node10" class="node">
<title>9</title>
<polygon fill="none" stroke="black" points="483,-702 349,-702 349,-664 483,-664 483,-702"/>
<text text-anchor="middle" x="416" y="-686.8" font-family="Times,serif" font-size="14.00">longitude &lt;= &#45;94.582</text>
<text text-anchor="middle" x="416" y="-671.8" font-family="Times,serif" font-size="14.00">class = Canada</text>
</g>
<!-- 8&#45;&gt;9 -->
<g id="edge9" class="edge">
<title>8&#45;&gt;9</title>
<path fill="none" stroke="black" d="M419.74,-737.83C419.2,-730.13 418.57,-720.97 417.97,-712.42"/>
<polygon fill="black" stroke="black" points="421.46,-712.15 417.28,-702.41 414.48,-712.63 421.46,-712.15"/>
</g>
<!-- 54 -->
<g id="node55" class="node">
<title>54</title>
<polygon fill="none" stroke="black" points="600.5,-701 501.5,-701 501.5,-665 600.5,-665 600.5,-701"/>
<text text-anchor="middle" x="551" y="-679.3" font-family="Times,serif" font-size="14.00">class = Canada</text>
</g>
<!-- 8&#45;&gt;54 -->
<g id="edge54" class="edge">
<title>8&#45;&gt;54</title>
<path fill="none" stroke="black" d="M453.8,-737.83C471.18,-728.21 492.66,-716.31 511,-706.15"/>
<polygon fill="black" stroke="black" points="512.94,-709.08 520,-701.17 509.55,-702.95 512.94,-709.08"/>
</g>
<!-- 10 -->
<g id="node11" class="node">
<title>10</title>
<polygon fill="none" stroke="black" points="409,-628 269,-628 269,-590 409,-590 409,-628"/>
<text text-anchor="middle" x="339" y="-612.8" font-family="Times,serif" font-size="14.00">longitude &lt;= &#45;123.222</text>
<text text-anchor="middle" x="339" y="-597.8" font-family="Times,serif" font-size="14.00">class = USA</text>
</g>
<!-- 9&#45;&gt;10 -->
<g id="edge10" class="edge">
<title>9&#45;&gt;10</title>
<path fill="none" stroke="black" d="M396.57,-663.83C387.27,-655.13 375.98,-644.58 365.87,-635.13"/>
<polygon fill="black" stroke="black" points="368.12,-632.44 358.42,-628.16 363.34,-637.55 368.12,-632.44"/>
</g>
<!-- 13 -->
<g id="node14" class="node">
<title>13</title>
<polygon fill="none" stroke="black" points="561,-628 427,-628 427,-590 561,-590 561,-628"/>
<text text-anchor="middle" x="494" y="-612.8" font-family="Times,serif" font-size="14.00">longitude &lt;= &#45;69.246</text>
<text text-anchor="middle" x="494" y="-597.8" font-family="Times,serif" font-size="14.00">class = Canada</text>
</g>
<!-- 9&#45;&gt;13 -->
<g id="edge13" class="edge">
<title>9&#45;&gt;13</title>
<path fill="none" stroke="black" d="M435.68,-663.83C445.11,-655.13 456.54,-644.58 466.78,-635.13"/>
<polygon fill="black" stroke="black" points="469.35,-637.52 474.32,-628.16 464.6,-632.37 469.35,-637.52"/>
</g>
<!-- 11 -->
<g id="node12" class="node">
<title>11</title>
<polygon fill="none" stroke="black" points="286.5,-553 187.5,-553 187.5,-517 286.5,-517 286.5,-553"/>
<text text-anchor="middle" x="237" y="-531.3" font-family="Times,serif" font-size="14.00">class = Canada</text>
</g>
<!-- 10&#45;&gt;11 -->
<g id="edge11" class="edge">
<title>10&#45;&gt;11</title>
<path fill="none" stroke="black" d="M313.26,-589.83C300.07,-580.52 283.85,-569.07 269.77,-559.13"/>
<polygon fill="black" stroke="black" points="271.51,-556.08 261.33,-553.17 267.48,-561.8 271.51,-556.08"/>
</g>
<!-- 12 -->
<g id="node13" class="node">
<title>12</title>
<polygon fill="none" stroke="black" points="391,-553 305,-553 305,-517 391,-517 391,-553"/>
<text text-anchor="middle" x="348" y="-531.3" font-family="Times,serif" font-size="14.00">class = USA</text>
</g>
<!-- 10&#45;&gt;12 -->
<g id="edge12" class="edge">
<title>10&#45;&gt;12</title>
<path fill="none" stroke="black" d="M341.27,-589.83C342.26,-581.89 343.45,-572.41 344.55,-563.63"/>
<polygon fill="black" stroke="black" points="348.06,-563.77 345.82,-553.42 341.11,-562.91 348.06,-563.77"/>
</g>
<!-- 14 -->
<g id="node15" class="node">
<title>14</title>
<polygon fill="none" stroke="black" points="545.5,-554 426.5,-554 426.5,-516 545.5,-516 545.5,-554"/>
<text text-anchor="middle" x="486" y="-538.8" font-family="Times,serif" font-size="14.00">latitude &lt;= 43.093</text>
<text text-anchor="middle" x="486" y="-523.8" font-family="Times,serif" font-size="14.00">class = Canada</text>
</g>
<!-- 13&#45;&gt;14 -->
<g id="edge14" class="edge">
<title>13&#45;&gt;14</title>
<path fill="none" stroke="black" d="M491.98,-589.83C491.13,-582.13 490.11,-572.97 489.16,-564.42"/>
<polygon fill="black" stroke="black" points="492.63,-563.97 488.05,-554.41 485.67,-564.74 492.63,-563.97"/>
</g>
<!-- 37 -->
<g id="node38" class="node">
<title>37</title>
<polygon fill="none" stroke="black" points="748,-554 614,-554 614,-516 748,-516 748,-554"/>
<text text-anchor="middle" x="681" y="-538.8" font-family="Times,serif" font-size="14.00">longitude &lt;= &#45;66.952</text>
<text text-anchor="middle" x="681" y="-523.8" font-family="Times,serif" font-size="14.00">class = Canada</text>
</g>
<!-- 13&#45;&gt;37 -->
<g id="edge37" class="edge">
<title>13&#45;&gt;37</title>
<path fill="none" stroke="black" d="M541.19,-589.83C566.53,-580.07 597.95,-567.98 624.58,-557.72"/>
<polygon fill="black" stroke="black" points="626.08,-560.9 634.15,-554.04 623.56,-554.36 626.08,-560.9"/>
</g>
<!-- 15 -->
<g id="node16" class="node">
<title>15</title>
<polygon fill="none" stroke="black" points="344.5,-480 225.5,-480 225.5,-442 344.5,-442 344.5,-480"/>
<text text-anchor="middle" x="285" y="-464.8" font-family="Times,serif" font-size="14.00">latitude &lt;= 43.014</text>
<text text-anchor="middle" x="285" y="-449.8" font-family="Times,serif" font-size="14.00">class = Canada</text>
</g>
<!-- 14&#45;&gt;15 -->
<g id="edge15" class="edge">
<title>14&#45;&gt;15</title>
<path fill="none" stroke="black" d="M435.54,-515.92C408.06,-506.08 373.88,-493.84 345.04,-483.51"/>
<polygon fill="black" stroke="black" points="346.08,-480.16 335.48,-480.08 343.72,-486.75 346.08,-480.16"/>
</g>
<!-- 20 -->
<g id="node21" class="node">
<title>20</title>
<polygon fill="none" stroke="black" points="545.5,-480 426.5,-480 426.5,-442 545.5,-442 545.5,-480"/>
<text text-anchor="middle" x="486" y="-464.8" font-family="Times,serif" font-size="14.00">latitude &lt;= 44.992</text>
<text text-anchor="middle" x="486" y="-449.8" font-family="Times,serif" font-size="14.00">class = Canada</text>
</g>
<!-- 14&#45;&gt;20 -->
<g id="edge20" class="edge">
<title>14&#45;&gt;20</title>
<path fill="none" stroke="black" d="M486,-515.83C486,-508.13 486,-498.97 486,-490.42"/>
<polygon fill="black" stroke="black" points="489.5,-490.41 486,-480.41 482.5,-490.41 489.5,-490.41"/>
</g>
<!-- 16 -->
<g id="node17" class="node">
<title>16</title>
<polygon fill="none" stroke="black" points="221,-406 87,-406 87,-368 221,-368 221,-406"/>
<text text-anchor="middle" x="154" y="-390.8" font-family="Times,serif" font-size="14.00">longitude &lt;= &#45;81.845</text>
<text text-anchor="middle" x="154" y="-375.8" font-family="Times,serif" font-size="14.00">class = Canada</text>
</g>
<!-- 15&#45;&gt;16 -->
<g id="edge16" class="edge">
<title>15&#45;&gt;16</title>
<path fill="none" stroke="black" d="M251.94,-441.83C235.03,-432.54 214.26,-421.12 196.21,-411.2"/>
<polygon fill="black" stroke="black" points="197.5,-407.91 187.05,-406.16 194.12,-414.05 197.5,-407.91"/>
</g>
<!-- 19 -->
<g id="node20" class="node">
<title>19</title>
<polygon fill="none" stroke="black" points="328,-405 242,-405 242,-369 328,-369 328,-405"/>
<text text-anchor="middle" x="285" y="-383.3" font-family="Times,serif" font-size="14.00">class = USA</text>
</g>
<!-- 15&#45;&gt;19 -->
<g id="edge19" class="edge">
<title>15&#45;&gt;19</title>
<path fill="none" stroke="black" d="M285,-441.83C285,-433.89 285,-424.41 285,-415.63"/>
<polygon fill="black" stroke="black" points="288.5,-415.42 285,-405.42 281.5,-415.42 288.5,-415.42"/>
</g>
<!-- 17 -->
<g id="node18" class="node">
<title>17</title>
<polygon fill="none" stroke="black" points="86,-331 0,-331 0,-295 86,-295 86,-331"/>
<text text-anchor="middle" x="43" y="-309.3" font-family="Times,serif" font-size="14.00">class = USA</text>
</g>
<!-- 16&#45;&gt;17 -->
<g id="edge17" class="edge">
<title>16&#45;&gt;17</title>
<path fill="none" stroke="black" d="M125.99,-367.83C111.49,-358.43 93.65,-346.86 78.23,-336.85"/>
<polygon fill="black" stroke="black" points="79.77,-333.68 69.47,-331.17 75.96,-339.55 79.77,-333.68"/>
</g>
<!-- 18 -->
<g id="node19" class="node">
<title>18</title>
<polygon fill="none" stroke="black" points="203.5,-331 104.5,-331 104.5,-295 203.5,-295 203.5,-331"/>
<text text-anchor="middle" x="154" y="-309.3" font-family="Times,serif" font-size="14.00">class = Canada</text>
</g>
<!-- 16&#45;&gt;18 -->
<g id="edge18" class="edge">
<title>16&#45;&gt;18</title>
<path fill="none" stroke="black" d="M154,-367.83C154,-359.89 154,-350.41 154,-341.63"/>
<polygon fill="black" stroke="black" points="157.5,-341.42 154,-331.42 150.5,-341.42 157.5,-341.42"/>
</g>
<!-- 21 -->
<g id="node22" class="node">
<title>21</title>
<polygon fill="none" stroke="black" points="480.5,-406 361.5,-406 361.5,-368 480.5,-368 480.5,-406"/>
<text text-anchor="middle" x="421" y="-390.8" font-family="Times,serif" font-size="14.00">latitude &lt;= 44.542</text>
<text text-anchor="middle" x="421" y="-375.8" font-family="Times,serif" font-size="14.00">class = Canada</text>
</g>
<!-- 20&#45;&gt;21 -->
<g id="edge21" class="edge">
<title>20&#45;&gt;21</title>
<path fill="none" stroke="black" d="M469.6,-441.83C461.96,-433.37 452.73,-423.15 444.38,-413.9"/>
<polygon fill="black" stroke="black" points="446.92,-411.49 437.62,-406.41 441.73,-416.18 446.92,-411.49"/>
</g>
<!-- 36 -->
<g id="node37" class="node">
<title>36</title>
<polygon fill="none" stroke="black" points="597.5,-405 498.5,-405 498.5,-369 597.5,-369 597.5,-405"/>
<text text-anchor="middle" x="548" y="-383.3" font-family="Times,serif" font-size="14.00">class = Canada</text>
</g>
<!-- 20&#45;&gt;36 -->
<g id="edge36" class="edge">
<title>20&#45;&gt;36</title>
<path fill="none" stroke="black" d="M501.65,-441.83C509.16,-433.11 518.28,-422.52 526.43,-413.05"/>
<polygon fill="black" stroke="black" points="529.13,-415.28 533,-405.42 523.82,-410.71 529.13,-415.28"/>
</g>
<!-- 22 -->
<g id="node23" class="node">
<title>22</title>
<polygon fill="none" stroke="black" points="356,-332 222,-332 222,-294 356,-294 356,-332"/>
<text text-anchor="middle" x="289" y="-316.8" font-family="Times,serif" font-size="14.00">longitude &lt;= &#45;79.076</text>
<text text-anchor="middle" x="289" y="-301.8" font-family="Times,serif" font-size="14.00">class = Canada</text>
</g>
<!-- 21&#45;&gt;22 -->
<g id="edge22" class="edge">
<title>21&#45;&gt;22</title>
<path fill="none" stroke="black" d="M387.69,-367.83C370.57,-358.49 349.53,-347.02 331.28,-337.06"/>
<polygon fill="black" stroke="black" points="332.75,-333.88 322.3,-332.16 329.4,-340.02 332.75,-333.88"/>
</g>
<!-- 31 -->
<g id="node32" class="node">
<title>31</title>
<polygon fill="none" stroke="black" points="493.5,-332 374.5,-332 374.5,-294 493.5,-294 493.5,-332"/>
<text text-anchor="middle" x="434" y="-316.8" font-family="Times,serif" font-size="14.00">latitude &lt;= 44.706</text>
<text text-anchor="middle" x="434" y="-301.8" font-family="Times,serif" font-size="14.00">class = USA</text>
</g>
<!-- 21&#45;&gt;31 -->
<g id="edge31" class="edge">
<title>21&#45;&gt;31</title>
<path fill="none" stroke="black" d="M424.28,-367.83C425.67,-360.13 427.32,-350.97 428.87,-342.42"/>
<polygon fill="black" stroke="black" points="432.34,-342.88 430.68,-332.41 425.45,-341.63 432.34,-342.88"/>
</g>
<!-- 23 -->
<g id="node24" class="node">
<title>23</title>
<polygon fill="none" stroke="black" points="211.5,-257 112.5,-257 112.5,-221 211.5,-221 211.5,-257"/>
<text text-anchor="middle" x="162" y="-235.3" font-family="Times,serif" font-size="14.00">class = Canada</text>
</g>
<!-- 22&#45;&gt;23 -->
<g id="edge23" class="edge">
<title>22&#45;&gt;23</title>
<path fill="none" stroke="black" d="M256.95,-293.83C240.06,-284.25 219.19,-272.42 201.32,-262.29"/>
<polygon fill="black" stroke="black" points="202.71,-259.06 192.29,-257.17 199.26,-265.15 202.71,-259.06"/>
</g>
<!-- 24 -->
<g id="node25" class="node">
<title>24</title>
<polygon fill="none" stroke="black" points="348.5,-258 229.5,-258 229.5,-220 348.5,-220 348.5,-258"/>
<text text-anchor="middle" x="289" y="-242.8" font-family="Times,serif" font-size="14.00">latitude &lt;= 44.168</text>
<text text-anchor="middle" x="289" y="-227.8" font-family="Times,serif" font-size="14.00">class = Canada</text>
</g>
<!-- 22&#45;&gt;24 -->
<g id="edge24" class="edge">
<title>22&#45;&gt;24</title>
<path fill="none" stroke="black" d="M289,-293.83C289,-286.13 289,-276.97 289,-268.42"/>
<polygon fill="black" stroke="black" points="292.5,-268.41 289,-258.41 285.5,-268.41 292.5,-268.41"/>
</g>
<!-- 25 -->
<g id="node26" class="node">
<title>25</title>
<polygon fill="none" stroke="black" points="228.5,-184 101.5,-184 101.5,-146 228.5,-146 228.5,-184"/>
<text text-anchor="middle" x="165" y="-168.8" font-family="Times,serif" font-size="14.00">longitude &lt;= &#45;79.03</text>
<text text-anchor="middle" x="165" y="-153.8" font-family="Times,serif" font-size="14.00">class = USA</text>
</g>
<!-- 24&#45;&gt;25 -->
<g id="edge25" class="edge">
<title>24&#45;&gt;25</title>
<path fill="none" stroke="black" d="M257.71,-219.83C241.7,-210.54 222.04,-199.12 204.95,-189.2"/>
<polygon fill="black" stroke="black" points="206.69,-186.16 196.28,-184.16 203.17,-192.21 206.69,-186.16"/>
</g>
<!-- 30 -->
<g id="node31" class="node">
<title>30</title>
<polygon fill="none" stroke="black" points="345.5,-183 246.5,-183 246.5,-147 345.5,-147 345.5,-183"/>
<text text-anchor="middle" x="296" y="-161.3" font-family="Times,serif" font-size="14.00">class = Canada</text>
</g>
<!-- 24&#45;&gt;30 -->
<g id="edge30" class="edge">
<title>24&#45;&gt;30</title>
<path fill="none" stroke="black" d="M290.77,-219.83C291.54,-211.89 292.46,-202.41 293.31,-193.63"/>
<polygon fill="black" stroke="black" points="296.82,-193.71 294.31,-183.42 289.86,-193.03 296.82,-193.71"/>
</g>
<!-- 26 -->
<g id="node27" class="node">
<title>26</title>
<polygon fill="none" stroke="black" points="144,-109 58,-109 58,-73 144,-73 144,-109"/>
<text text-anchor="middle" x="101" y="-87.3" font-family="Times,serif" font-size="14.00">class = USA</text>
</g>
<!-- 25&#45;&gt;26 -->
<g id="edge26" class="edge">
<title>25&#45;&gt;26</title>
<path fill="none" stroke="black" d="M148.85,-145.83C141.1,-137.11 131.68,-126.52 123.26,-117.05"/>
<polygon fill="black" stroke="black" points="125.74,-114.57 116.48,-109.42 120.51,-119.22 125.74,-114.57"/>
</g>
<!-- 27 -->
<g id="node28" class="node">
<title>27</title>
<polygon fill="none" stroke="black" points="296,-110 162,-110 162,-72 296,-72 296,-110"/>
<text text-anchor="middle" x="229" y="-94.8" font-family="Times,serif" font-size="14.00">longitude &lt;= &#45;77.678</text>
<text text-anchor="middle" x="229" y="-79.8" font-family="Times,serif" font-size="14.00">class = Canada</text>
</g>
<!-- 25&#45;&gt;27 -->
<g id="edge27" class="edge">
<title>25&#45;&gt;27</title>
<path fill="none" stroke="black" d="M181.15,-145.83C188.67,-137.37 197.76,-127.15 205.98,-117.9"/>
<polygon fill="black" stroke="black" points="208.6,-120.21 212.63,-110.41 203.37,-115.56 208.6,-120.21"/>
</g>
<!-- 28 -->
<g id="node29" class="node">
<title>28</title>
<polygon fill="none" stroke="black" points="222.5,-36 123.5,-36 123.5,0 222.5,0 222.5,-36"/>
<text text-anchor="middle" x="173" y="-14.3" font-family="Times,serif" font-size="14.00">class = Canada</text>
</g>
<!-- 27&#45;&gt;28 -->
<g id="edge28" class="edge">
<title>27&#45;&gt;28</title>
<path fill="none" stroke="black" d="M214.58,-71.72C207.93,-63.29 199.93,-53.15 192.73,-44.02"/>
<polygon fill="black" stroke="black" points="195.35,-41.69 186.41,-36 189.86,-46.02 195.35,-41.69"/>
</g>
<!-- 29 -->
<g id="node30" class="node">
<title>29</title>
<polygon fill="none" stroke="black" points="327,-36 241,-36 241,0 327,0 327,-36"/>
<text text-anchor="middle" x="284" y="-14.3" font-family="Times,serif" font-size="14.00">class = USA</text>
</g>
<!-- 27&#45;&gt;29 -->
<g id="edge29" class="edge">
<title>27&#45;&gt;29</title>
<path fill="none" stroke="black" d="M243.16,-71.72C249.69,-63.29 257.55,-53.15 264.62,-44.02"/>
<polygon fill="black" stroke="black" points="267.47,-46.05 270.83,-36 261.94,-41.77 267.47,-46.05"/>
</g>
<!-- 32 -->
<g id="node33" class="node">
<title>32</title>
<polygon fill="none" stroke="black" points="453,-257 367,-257 367,-221 453,-221 453,-257"/>
<text text-anchor="middle" x="410" y="-235.3" font-family="Times,serif" font-size="14.00">class = USA</text>
</g>
<!-- 31&#45;&gt;32 -->
<g id="edge32" class="edge">
<title>31&#45;&gt;32</title>
<path fill="none" stroke="black" d="M427.94,-293.83C425.24,-285.72 422,-275.99 419.02,-267.05"/>
<polygon fill="black" stroke="black" points="422.29,-265.8 415.81,-257.42 415.65,-268.01 422.29,-265.8"/>
</g>
<!-- 33 -->
<g id="node34" class="node">
<title>33</title>
<polygon fill="none" stroke="black" points="590.5,-258 471.5,-258 471.5,-220 590.5,-220 590.5,-258"/>
<text text-anchor="middle" x="531" y="-242.8" font-family="Times,serif" font-size="14.00">latitude &lt;= 44.848</text>
<text text-anchor="middle" x="531" y="-227.8" font-family="Times,serif" font-size="14.00">class = Canada</text>
</g>
<!-- 31&#45;&gt;33 -->
<g id="edge33" class="edge">
<title>31&#45;&gt;33</title>
<path fill="none" stroke="black" d="M458.48,-293.83C470.54,-284.88 485.25,-273.96 498.27,-264.3"/>
<polygon fill="black" stroke="black" points="500.59,-266.93 506.53,-258.16 496.41,-261.31 500.59,-266.93"/>
</g>
<!-- 34 -->
<g id="node35" class="node">
<title>34</title>
<polygon fill="none" stroke="black" points="470.5,-183 371.5,-183 371.5,-147 470.5,-147 470.5,-183"/>
<text text-anchor="middle" x="421" y="-161.3" font-family="Times,serif" font-size="14.00">class = Canada</text>
</g>
<!-- 33&#45;&gt;34 -->
<g id="edge34" class="edge">
<title>33&#45;&gt;34</title>
<path fill="none" stroke="black" d="M503.24,-219.83C488.88,-210.43 471.2,-198.86 455.91,-188.85"/>
<polygon fill="black" stroke="black" points="457.52,-185.72 447.23,-183.17 453.68,-191.58 457.52,-185.72"/>
</g>
<!-- 35 -->
<g id="node36" class="node">
<title>35</title>
<polygon fill="none" stroke="black" points="575,-183 489,-183 489,-147 575,-147 575,-183"/>
<text text-anchor="middle" x="532" y="-161.3" font-family="Times,serif" font-size="14.00">class = USA</text>
</g>
<!-- 33&#45;&gt;35 -->
<g id="edge35" class="edge">
<title>33&#45;&gt;35</title>
<path fill="none" stroke="black" d="M531.25,-219.83C531.36,-211.89 531.49,-202.41 531.62,-193.63"/>
<polygon fill="black" stroke="black" points="535.12,-193.47 531.76,-183.42 528.12,-193.37 535.12,-193.47"/>
</g>
<!-- 38 -->
<g id="node39" class="node">
<title>38</title>
<polygon fill="none" stroke="black" points="748,-480 614,-480 614,-442 748,-442 748,-480"/>
<text text-anchor="middle" x="681" y="-464.8" font-family="Times,serif" font-size="14.00">longitude &lt;= &#45;67.279</text>
<text text-anchor="middle" x="681" y="-449.8" font-family="Times,serif" font-size="14.00">class = USA</text>
</g>
<!-- 37&#45;&gt;38 -->
<g id="edge38" class="edge">
<title>37&#45;&gt;38</title>
<path fill="none" stroke="black" d="M681,-515.83C681,-508.13 681,-498.97 681,-490.42"/>
<polygon fill="black" stroke="black" points="684.5,-490.41 681,-480.41 677.5,-490.41 684.5,-490.41"/>
</g>
<!-- 53 -->
<g id="node54" class="node">
<title>53</title>
<polygon fill="none" stroke="black" points="865.5,-479 766.5,-479 766.5,-443 865.5,-443 865.5,-479"/>
<text text-anchor="middle" x="816" y="-457.3" font-family="Times,serif" font-size="14.00">class = Canada</text>
</g>
<!-- 37&#45;&gt;53 -->
<g id="edge53" class="edge">
<title>37&#45;&gt;53</title>
<path fill="none" stroke="black" d="M715.07,-515.83C733.19,-506.17 755.62,-494.2 774.72,-484.01"/>
<polygon fill="black" stroke="black" points="776.63,-486.97 783.8,-479.17 773.33,-480.79 776.63,-486.97"/>
</g>
<!-- 39 -->
<g id="node40" class="node">
<title>39</title>
<polygon fill="none" stroke="black" points="744.5,-406 617.5,-406 617.5,-368 744.5,-368 744.5,-406"/>
<text text-anchor="middle" x="681" y="-390.8" font-family="Times,serif" font-size="14.00">longitude &lt;= &#45;67.93</text>
<text text-anchor="middle" x="681" y="-375.8" font-family="Times,serif" font-size="14.00">class = Canada</text>
</g>
<!-- 38&#45;&gt;39 -->
<g id="edge39" class="edge">
<title>38&#45;&gt;39</title>
<path fill="none" stroke="black" d="M681,-441.83C681,-434.13 681,-424.97 681,-416.42"/>
<polygon fill="black" stroke="black" points="684.5,-416.41 681,-406.41 677.5,-416.41 684.5,-416.41"/>
</g>
<!-- 52 -->
<g id="node53" class="node">
<title>52</title>
<polygon fill="none" stroke="black" points="849,-405 763,-405 763,-369 849,-369 849,-405"/>
<text text-anchor="middle" x="806" y="-383.3" font-family="Times,serif" font-size="14.00">class = USA</text>
</g>
<!-- 38&#45;&gt;52 -->
<g id="edge52" class="edge">
<title>38&#45;&gt;52</title>
<path fill="none" stroke="black" d="M712.54,-441.83C729.17,-432.25 749.71,-420.42 767.3,-410.29"/>
<polygon fill="black" stroke="black" points="769.27,-413.2 776.19,-405.17 765.78,-407.13 769.27,-413.2"/>
</g>
<!-- 40 -->
<g id="node41" class="node">
<title>40</title>
<polygon fill="none" stroke="black" points="748,-332 614,-332 614,-294 748,-294 748,-332"/>
<text text-anchor="middle" x="681" y="-316.8" font-family="Times,serif" font-size="14.00">longitude &lt;= &#45;68.325</text>
<text text-anchor="middle" x="681" y="-301.8" font-family="Times,serif" font-size="14.00">class = USA</text>
</g>
<!-- 39&#45;&gt;40 -->
<g id="edge40" class="edge">
<title>39&#45;&gt;40</title>
<path fill="none" stroke="black" d="M681,-367.83C681,-360.13 681,-350.97 681,-342.42"/>
<polygon fill="black" stroke="black" points="684.5,-342.41 681,-332.41 677.5,-342.41 684.5,-342.41"/>
</g>
<!-- 47 -->
<g id="node48" class="node">
<title>47</title>
<polygon fill="none" stroke="black" points="976.5,-332 857.5,-332 857.5,-294 976.5,-294 976.5,-332"/>
<text text-anchor="middle" x="917" y="-316.8" font-family="Times,serif" font-size="14.00">latitude &lt;= 45.565</text>
<text text-anchor="middle" x="917" y="-301.8" font-family="Times,serif" font-size="14.00">class = Canada</text>
</g>
<!-- 39&#45;&gt;47 -->
<g id="edge47" class="edge">
<title>39&#45;&gt;47</title>
<path fill="none" stroke="black" d="M740.25,-367.92C772.93,-357.95 813.69,-345.52 847.83,-335.1"/>
<polygon fill="black" stroke="black" points="849.18,-338.35 857.73,-332.08 847.14,-331.65 849.18,-338.35"/>
</g>
<!-- 41 -->
<g id="node42" class="node">
<title>41</title>
<polygon fill="none" stroke="black" points="727.5,-258 608.5,-258 608.5,-220 727.5,-220 727.5,-258"/>
<text text-anchor="middle" x="668" y="-242.8" font-family="Times,serif" font-size="14.00">latitude &lt;= 47.256</text>
<text text-anchor="middle" x="668" y="-227.8" font-family="Times,serif" font-size="14.00">class = Canada</text>
</g>
<!-- 40&#45;&gt;41 -->
<g id="edge41" class="edge">
<title>40&#45;&gt;41</title>
<path fill="none" stroke="black" d="M677.72,-293.83C676.33,-286.13 674.68,-276.97 673.13,-268.42"/>
<polygon fill="black" stroke="black" points="676.55,-267.63 671.32,-258.41 669.66,-268.88 676.55,-267.63"/>
</g>
<!-- 46 -->
<g id="node47" class="node">
<title>46</title>
<polygon fill="none" stroke="black" points="832,-257 746,-257 746,-221 832,-221 832,-257"/>
<text text-anchor="middle" x="789" y="-235.3" font-family="Times,serif" font-size="14.00">class = USA</text>
</g>
<!-- 40&#45;&gt;46 -->
<g id="edge46" class="edge">
<title>40&#45;&gt;46</title>
<path fill="none" stroke="black" d="M708.25,-293.83C722.36,-284.43 739.72,-272.86 754.72,-262.85"/>
<polygon fill="black" stroke="black" points="756.86,-265.63 763.24,-257.17 752.98,-259.81 756.86,-265.63"/>
</g>
<!-- 42 -->
<g id="node43" class="node">
<title>42</title>
<polygon fill="none" stroke="black" points="698.5,-183 599.5,-183 599.5,-147 698.5,-147 698.5,-183"/>
<text text-anchor="middle" x="649" y="-161.3" font-family="Times,serif" font-size="14.00">class = Canada</text>
</g>
<!-- 41&#45;&gt;42 -->
<g id="edge42" class="edge">
<title>41&#45;&gt;42</title>
<path fill="none" stroke="black" d="M663.21,-219.83C661.09,-211.81 658.55,-202.2 656.21,-193.34"/>
<polygon fill="black" stroke="black" points="659.53,-192.19 653.6,-183.42 652.76,-193.98 659.53,-192.19"/>
</g>
<!-- 43 -->
<g id="node44" class="node">
<title>43</title>
<polygon fill="none" stroke="black" points="851,-184 717,-184 717,-146 851,-146 851,-184"/>
<text text-anchor="middle" x="784" y="-168.8" font-family="Times,serif" font-size="14.00">longitude &lt;= &#45;68.459</text>
<text text-anchor="middle" x="784" y="-153.8" font-family="Times,serif" font-size="14.00">class = USA</text>
</g>
<!-- 41&#45;&gt;43 -->
<g id="edge43" class="edge">
<title>41&#45;&gt;43</title>
<path fill="none" stroke="black" d="M697.27,-219.83C712.11,-210.62 730.3,-199.33 746.19,-189.47"/>
<polygon fill="black" stroke="black" points="748.09,-192.41 754.74,-184.16 744.4,-186.46 748.09,-192.41"/>
</g>
<!-- 44 -->
<g id="node45" class="node">
<title>44</title>
<polygon fill="none" stroke="black" points="771,-109 685,-109 685,-73 771,-73 771,-109"/>
<text text-anchor="middle" x="728" y="-87.3" font-family="Times,serif" font-size="14.00">class = USA</text>
</g>
<!-- 43&#45;&gt;44 -->
<g id="edge44" class="edge">
<title>43&#45;&gt;44</title>
<path fill="none" stroke="black" d="M769.87,-145.83C763.15,-137.2 755.01,-126.73 747.7,-117.33"/>
<polygon fill="black" stroke="black" points="750.45,-115.16 741.55,-109.42 744.92,-119.46 750.45,-115.16"/>
</g>
<!-- 45 -->
<g id="node46" class="node">
<title>45</title>
<polygon fill="none" stroke="black" points="888.5,-109 789.5,-109 789.5,-73 888.5,-73 888.5,-109"/>
<text text-anchor="middle" x="839" y="-87.3" font-family="Times,serif" font-size="14.00">class = Canada</text>
</g>
<!-- 43&#45;&gt;45 -->
<g id="edge45" class="edge">
<title>43&#45;&gt;45</title>
<path fill="none" stroke="black" d="M797.88,-145.83C804.41,-137.28 812.31,-126.94 819.43,-117.62"/>
<polygon fill="black" stroke="black" points="822.41,-119.49 825.69,-109.42 816.84,-115.24 822.41,-119.49"/>
</g>
<!-- 48 -->
<g id="node49" class="node">
<title>48</title>
<polygon fill="none" stroke="black" points="984,-258 850,-258 850,-220 984,-220 984,-258"/>
<text text-anchor="middle" x="917" y="-242.8" font-family="Times,serif" font-size="14.00">longitude &lt;= &#45;67.355</text>
<text text-anchor="middle" x="917" y="-227.8" font-family="Times,serif" font-size="14.00">class = Canada</text>
</g>
<!-- 47&#45;&gt;48 -->
<g id="edge48" class="edge">
<title>47&#45;&gt;48</title>
<path fill="none" stroke="black" d="M917,-293.83C917,-286.13 917,-276.97 917,-268.42"/>
<polygon fill="black" stroke="black" points="920.5,-268.41 917,-258.41 913.5,-268.41 920.5,-268.41"/>
</g>
<!-- 51 -->
<g id="node52" class="node">
<title>51</title>
<polygon fill="none" stroke="black" points="1101.5,-257 1002.5,-257 1002.5,-221 1101.5,-221 1101.5,-257"/>
<text text-anchor="middle" x="1052" y="-235.3" font-family="Times,serif" font-size="14.00">class = Canada</text>
</g>
<!-- 47&#45;&gt;51 -->
<g id="edge51" class="edge">
<title>47&#45;&gt;51</title>
<path fill="none" stroke="black" d="M951.07,-293.83C969.19,-284.17 991.62,-272.2 1010.72,-262.01"/>
<polygon fill="black" stroke="black" points="1012.63,-264.97 1019.8,-257.17 1009.33,-258.79 1012.63,-264.97"/>
</g>
<!-- 49 -->
<g id="node50" class="node">
<title>49</title>
<polygon fill="none" stroke="black" points="958,-183 872,-183 872,-147 958,-147 958,-183"/>
<text text-anchor="middle" x="915" y="-161.3" font-family="Times,serif" font-size="14.00">class = USA</text>
</g>
<!-- 48&#45;&gt;49 -->
<g id="edge49" class="edge">
<title>48&#45;&gt;49</title>
<path fill="none" stroke="black" d="M916.5,-219.83C916.27,-211.89 916.01,-202.41 915.77,-193.63"/>
<polygon fill="black" stroke="black" points="919.26,-193.32 915.48,-183.42 912.26,-193.51 919.26,-193.32"/>
</g>
<!-- 50 -->
<g id="node51" class="node">
<title>50</title>
<polygon fill="none" stroke="black" points="1075.5,-183 976.5,-183 976.5,-147 1075.5,-147 1075.5,-183"/>
<text text-anchor="middle" x="1026" y="-161.3" font-family="Times,serif" font-size="14.00">class = Canada</text>
</g>
<!-- 48&#45;&gt;50 -->
<g id="edge50" class="edge">
<title>48&#45;&gt;50</title>
<path fill="none" stroke="black" d="M944.51,-219.83C958.74,-210.43 976.26,-198.86 991.41,-188.85"/>
<polygon fill="black" stroke="black" points="993.59,-191.6 1000,-183.17 989.73,-185.76 993.59,-191.6"/>
</g>
</g>
</svg>
