<?xml version="1.0" encoding="UTF-8" standalone="no"?>
<!DOCTYPE svg PUBLIC "-//W3C//DTD SVG 1.1//EN"
 "http://www.w3.org/Graphics/SVG/1.1/DTD/svg11.dtd">
<!-- Generated by graphviz version 2.44.1 (20200629.0846)
 -->
<!-- Title: Tree Pages: 1 -->
<svg width="1878pt" height="636pt"
 viewBox="0.00 0.00 1878.00 636.00" xmlns="http://www.w3.org/2000/svg" xmlns:xlink="http://www.w3.org/1999/xlink">
<g id="graph0" class="graph" transform="scale(1 1) rotate(0) translate(4 632)">
<title>Tree</title>
<polygon fill="white" stroke="transparent" points="-4,4 -4,-632 1874,-632 1874,4 -4,4"/>
<!-- 0 -->
<g id="node1" class="node">
<title>0</title>
<polygon fill="none" stroke="black" points="593,-628 501,-628 501,-590 593,-590 593,-628"/>
<text text-anchor="middle" x="547" y="-612.8" font-family="Times,serif" font-size="14.00">lat &lt;= 37.682</text>
<text text-anchor="middle" x="547" y="-597.8" font-family="Times,serif" font-size="14.00">class = blue</text>
</g>
<!-- 1 -->
<g id="node2" class="node">
<title>1</title>
<polygon fill="none" stroke="black" points="363.5,-554 256.5,-554 256.5,-516 363.5,-516 363.5,-554"/>
<text text-anchor="middle" x="310" y="-538.8" font-family="Times,serif" font-size="14.00">lon &lt;= &#45;114.063</text>
<text text-anchor="middle" x="310" y="-523.8" font-family="Times,serif" font-size="14.00">class = red</text>
</g>
<!-- 0&#45;&gt;1 -->
<g id="edge1" class="edge">
<title>0&#45;&gt;1</title>
<path fill="none" stroke="black" d="M500.74,-593.95C464.4,-582.91 413.41,-567.41 373.29,-555.23"/>
<polygon fill="black" stroke="black" points="374.18,-551.84 363.6,-552.28 372.15,-558.54 374.18,-551.84"/>
<text text-anchor="middle" x="375.37" y="-570.64" font-family="Times,serif" font-size="14.00">True</text>
</g>
<!-- 24 -->
<g id="node25" class="node">
<title>24</title>
<polygon fill="none" stroke="black" points="903,-554 803,-554 803,-516 903,-516 903,-554"/>
<text text-anchor="middle" x="853" y="-538.8" font-family="Times,serif" font-size="14.00">lon &lt;= &#45;96.061</text>
<text text-anchor="middle" x="853" y="-523.8" font-family="Times,serif" font-size="14.00">class = blue</text>
</g>
<!-- 0&#45;&gt;24 -->
<g id="edge24" class="edge">
<title>0&#45;&gt;24</title>
<path fill="none" stroke="black" d="M593.14,-597.14C646.49,-584.59 734.45,-563.89 793.05,-550.11"/>
<polygon fill="black" stroke="black" points="793.98,-553.48 802.92,-547.78 792.38,-546.67 793.98,-553.48"/>
<text text-anchor="middle" x="789.76" y="-565.34" font-family="Times,serif" font-size="14.00">False</text>
</g>
<!-- 2 -->
<g id="node3" class="node">
<title>2</title>
<polygon fill="none" stroke="black" points="246,-479 164,-479 164,-443 246,-443 246,-479"/>
<text text-anchor="middle" x="205" y="-457.3" font-family="Times,serif" font-size="14.00">class = blue</text>
</g>
<!-- 1&#45;&gt;2 -->
<g id="edge2" class="edge">
<title>1&#45;&gt;2</title>
<path fill="none" stroke="black" d="M283.5,-515.83C269.79,-506.43 252.91,-494.86 238.33,-484.85"/>
<polygon fill="black" stroke="black" points="240.27,-481.94 230.04,-479.17 236.31,-487.71 240.27,-481.94"/>
</g>
<!-- 3 -->
<g id="node4" class="node">
<title>3</title>
<polygon fill="none" stroke="black" points="356,-480 264,-480 264,-442 356,-442 356,-480"/>
<text text-anchor="middle" x="310" y="-464.8" font-family="Times,serif" font-size="14.00">lat &lt;= 29.595</text>
<text text-anchor="middle" x="310" y="-449.8" font-family="Times,serif" font-size="14.00">class = red</text>
</g>
<!-- 1&#45;&gt;3 -->
<g id="edge3" class="edge">
<title>1&#45;&gt;3</title>
<path fill="none" stroke="black" d="M310,-515.83C310,-508.13 310,-498.97 310,-490.42"/>
<polygon fill="black" stroke="black" points="313.5,-490.41 310,-480.41 306.5,-490.41 313.5,-490.41"/>
</g>
<!-- 4 -->
<g id="node5" class="node">
<title>4</title>
<polygon fill="none" stroke="black" points="185,-406 85,-406 85,-368 185,-368 185,-406"/>
<text text-anchor="middle" x="135" y="-390.8" font-family="Times,serif" font-size="14.00">lon &lt;= &#45;90.074</text>
<text text-anchor="middle" x="135" y="-375.8" font-family="Times,serif" font-size="14.00">class = blue</text>
</g>
<!-- 3&#45;&gt;4 -->
<g id="edge4" class="edge">
<title>3&#45;&gt;4</title>
<path fill="none" stroke="black" d="M265.84,-441.83C242.23,-432.12 212.98,-420.08 188.13,-409.86"/>
<polygon fill="black" stroke="black" points="189.42,-406.61 178.84,-406.04 186.76,-413.08 189.42,-406.61"/>
</g>
<!-- 7 -->
<g id="node8" class="node">
<title>7</title>
<polygon fill="none" stroke="black" points="356,-406 264,-406 264,-368 356,-368 356,-406"/>
<text text-anchor="middle" x="310" y="-390.8" font-family="Times,serif" font-size="14.00">lat &lt;= 36.522</text>
<text text-anchor="middle" x="310" y="-375.8" font-family="Times,serif" font-size="14.00">class = red</text>
</g>
<!-- 3&#45;&gt;7 -->
<g id="edge7" class="edge">
<title>3&#45;&gt;7</title>
<path fill="none" stroke="black" d="M310,-441.83C310,-434.13 310,-424.97 310,-416.42"/>
<polygon fill="black" stroke="black" points="313.5,-416.41 310,-406.41 306.5,-416.41 313.5,-416.41"/>
</g>
<!-- 5 -->
<g id="node6" class="node">
<title>5</title>
<polygon fill="none" stroke="black" points="76,-331 0,-331 0,-295 76,-295 76,-331"/>
<text text-anchor="middle" x="38" y="-309.3" font-family="Times,serif" font-size="14.00">class = red</text>
</g>
<!-- 4&#45;&gt;5 -->
<g id="edge5" class="edge">
<title>4&#45;&gt;5</title>
<path fill="none" stroke="black" d="M110.52,-367.83C97.97,-358.52 82.55,-347.07 69.16,-337.13"/>
<polygon fill="black" stroke="black" points="71.25,-334.32 61.13,-331.17 67.08,-339.94 71.25,-334.32"/>
</g>
<!-- 6 -->
<g id="node7" class="node">
<title>6</title>
<polygon fill="none" stroke="black" points="176,-331 94,-331 94,-295 176,-295 176,-331"/>
<text text-anchor="middle" x="135" y="-309.3" font-family="Times,serif" font-size="14.00">class = blue</text>
</g>
<!-- 4&#45;&gt;6 -->
<g id="edge6" class="edge">
<title>4&#45;&gt;6</title>
<path fill="none" stroke="black" d="M135,-367.83C135,-359.89 135,-350.41 135,-341.63"/>
<polygon fill="black" stroke="black" points="138.5,-341.42 135,-331.42 131.5,-341.42 138.5,-341.42"/>
</g>
<!-- 8 -->
<g id="node9" class="node">
<title>8</title>
<polygon fill="none" stroke="black" points="301.5,-332 194.5,-332 194.5,-294 301.5,-294 301.5,-332"/>
<text text-anchor="middle" x="248" y="-316.8" font-family="Times,serif" font-size="14.00">lon &lt;= &#45;102.257</text>
<text text-anchor="middle" x="248" y="-301.8" font-family="Times,serif" font-size="14.00">class = red</text>
</g>
<!-- 7&#45;&gt;8 -->
<g id="edge8" class="edge">
<title>7&#45;&gt;8</title>
<path fill="none" stroke="black" d="M294.35,-367.83C287.14,-359.45 278.44,-349.35 270.54,-340.17"/>
<polygon fill="black" stroke="black" points="273.03,-337.71 263.86,-332.41 267.73,-342.27 273.03,-337.71"/>
</g>
<!-- 15 -->
<g id="node16" class="node">
<title>15</title>
<polygon fill="none" stroke="black" points="420,-332 320,-332 320,-294 420,-294 420,-332"/>
<text text-anchor="middle" x="370" y="-316.8" font-family="Times,serif" font-size="14.00">lon &lt;= &#45;82.415</text>
<text text-anchor="middle" x="370" y="-301.8" font-family="Times,serif" font-size="14.00">class = red</text>
</g>
<!-- 7&#45;&gt;15 -->
<g id="edge15" class="edge">
<title>7&#45;&gt;15</title>
<path fill="none" stroke="black" d="M325.14,-367.83C332.12,-359.45 340.54,-349.35 348.19,-340.17"/>
<polygon fill="black" stroke="black" points="350.94,-342.34 354.66,-332.41 345.56,-337.85 350.94,-342.34"/>
</g>
<!-- 9 -->
<g id="node10" class="node">
<title>9</title>
<polygon fill="none" stroke="black" points="191.5,-258 84.5,-258 84.5,-220 191.5,-220 191.5,-258"/>
<text text-anchor="middle" x="138" y="-242.8" font-family="Times,serif" font-size="14.00">lon &lt;= &#45;107.589</text>
<text text-anchor="middle" x="138" y="-227.8" font-family="Times,serif" font-size="14.00">class = red</text>
</g>
<!-- 8&#45;&gt;9 -->
<g id="edge9" class="edge">
<title>8&#45;&gt;9</title>
<path fill="none" stroke="black" d="M220.24,-293.83C206.3,-284.71 189.24,-273.54 174.28,-263.74"/>
<polygon fill="black" stroke="black" points="176.03,-260.71 165.75,-258.16 172.2,-266.57 176.03,-260.71"/>
</g>
<!-- 14 -->
<g id="node15" class="node">
<title>14</title>
<polygon fill="none" stroke="black" points="286,-257 210,-257 210,-221 286,-221 286,-257"/>
<text text-anchor="middle" x="248" y="-235.3" font-family="Times,serif" font-size="14.00">class = red</text>
</g>
<!-- 8&#45;&gt;14 -->
<g id="edge14" class="edge">
<title>8&#45;&gt;14</title>
<path fill="none" stroke="black" d="M248,-293.83C248,-285.89 248,-276.41 248,-267.63"/>
<polygon fill="black" stroke="black" points="251.5,-267.42 248,-257.42 244.5,-267.42 251.5,-267.42"/>
</g>
<!-- 10 -->
<g id="node11" class="node">
<title>10</title>
<polygon fill="none" stroke="black" points="84,-183 8,-183 8,-147 84,-147 84,-183"/>
<text text-anchor="middle" x="46" y="-161.3" font-family="Times,serif" font-size="14.00">class = red</text>
</g>
<!-- 9&#45;&gt;10 -->
<g id="edge10" class="edge">
<title>9&#45;&gt;10</title>
<path fill="none" stroke="black" d="M114.78,-219.83C102.99,-210.6 88.53,-199.29 75.92,-189.41"/>
<polygon fill="black" stroke="black" points="77.97,-186.58 67.94,-183.17 73.66,-192.09 77.97,-186.58"/>
</g>
<!-- 11 -->
<g id="node12" class="node">
<title>11</title>
<polygon fill="none" stroke="black" points="194,-184 102,-184 102,-146 194,-146 194,-184"/>
<text text-anchor="middle" x="148" y="-168.8" font-family="Times,serif" font-size="14.00">lat &lt;= 31.788</text>
<text text-anchor="middle" x="148" y="-153.8" font-family="Times,serif" font-size="14.00">class = blue</text>
</g>
<!-- 9&#45;&gt;11 -->
<g id="edge11" class="edge">
<title>9&#45;&gt;11</title>
<path fill="none" stroke="black" d="M140.52,-219.83C141.59,-212.13 142.86,-202.97 144.05,-194.42"/>
<polygon fill="black" stroke="black" points="147.53,-194.8 145.44,-184.41 140.6,-193.84 147.53,-194.8"/>
</g>
<!-- 12 -->
<g id="node13" class="node">
<title>12</title>
<polygon fill="none" stroke="black" points="138,-109 62,-109 62,-73 138,-73 138,-109"/>
<text text-anchor="middle" x="100" y="-87.3" font-family="Times,serif" font-size="14.00">class = red</text>
</g>
<!-- 11&#45;&gt;12 -->
<g id="edge12" class="edge">
<title>11&#45;&gt;12</title>
<path fill="none" stroke="black" d="M135.89,-145.83C130.25,-137.37 123.43,-127.15 117.27,-117.9"/>
<polygon fill="black" stroke="black" points="120.07,-115.8 111.61,-109.42 114.25,-119.68 120.07,-115.8"/>
</g>
<!-- 13 -->
<g id="node14" class="node">
<title>13</title>
<polygon fill="none" stroke="black" points="238,-109 156,-109 156,-73 238,-73 238,-109"/>
<text text-anchor="middle" x="197" y="-87.3" font-family="Times,serif" font-size="14.00">class = blue</text>
</g>
<!-- 11&#45;&gt;13 -->
<g id="edge13" class="edge">
<title>11&#45;&gt;13</title>
<path fill="none" stroke="black" d="M160.36,-145.83C166.12,-137.37 173.08,-127.15 179.37,-117.9"/>
<polygon fill="black" stroke="black" points="182.41,-119.65 185.15,-109.42 176.63,-115.72 182.41,-119.65"/>
</g>
<!-- 16 -->
<g id="node17" class="node">
<title>16</title>
<polygon fill="none" stroke="black" points="411.5,-258 304.5,-258 304.5,-220 411.5,-220 411.5,-258"/>
<text text-anchor="middle" x="358" y="-242.8" font-family="Times,serif" font-size="14.00">lon &lt;= &#45;100.922</text>
<text text-anchor="middle" x="358" y="-227.8" font-family="Times,serif" font-size="14.00">class = red</text>
</g>
<!-- 15&#45;&gt;16 -->
<g id="edge16" class="edge">
<title>15&#45;&gt;16</title>
<path fill="none" stroke="black" d="M366.97,-293.83C365.69,-286.13 364.16,-276.97 362.74,-268.42"/>
<polygon fill="black" stroke="black" points="366.17,-267.7 361.07,-258.41 359.26,-268.85 366.17,-267.7"/>
</g>
<!-- 19 -->
<g id="node20" class="node">
<title>19</title>
<polygon fill="none" stroke="black" points="530,-258 430,-258 430,-220 530,-220 530,-258"/>
<text text-anchor="middle" x="480" y="-242.8" font-family="Times,serif" font-size="14.00">lon &lt;= &#45;80.706</text>
<text text-anchor="middle" x="480" y="-227.8" font-family="Times,serif" font-size="14.00">class = blue</text>
</g>
<!-- 15&#45;&gt;19 -->
<g id="edge19" class="edge">
<title>15&#45;&gt;19</title>
<path fill="none" stroke="black" d="M397.76,-293.83C411.7,-284.71 428.76,-273.54 443.72,-263.74"/>
<polygon fill="black" stroke="black" points="445.8,-266.57 452.25,-258.16 441.97,-260.71 445.8,-266.57"/>
</g>
<!-- 17 -->
<g id="node18" class="node">
<title>17</title>
<polygon fill="none" stroke="black" points="303,-183 221,-183 221,-147 303,-147 303,-183"/>
<text text-anchor="middle" x="262" y="-161.3" font-family="Times,serif" font-size="14.00">class = blue</text>
</g>
<!-- 16&#45;&gt;17 -->
<g id="edge17" class="edge">
<title>16&#45;&gt;17</title>
<path fill="none" stroke="black" d="M333.78,-219.83C321.47,-210.6 306.38,-199.29 293.22,-189.41"/>
<polygon fill="black" stroke="black" points="295,-186.37 284.9,-183.17 290.8,-191.97 295,-186.37"/>
</g>
<!-- 18 -->
<g id="node19" class="node">
<title>18</title>
<polygon fill="none" stroke="black" points="397,-183 321,-183 321,-147 397,-147 397,-183"/>
<text text-anchor="middle" x="359" y="-161.3" font-family="Times,serif" font-size="14.00">class = red</text>
</g>
<!-- 16&#45;&gt;18 -->
<g id="edge18" class="edge">
<title>16&#45;&gt;18</title>
<path fill="none" stroke="black" d="M358.25,-219.83C358.36,-211.89 358.49,-202.41 358.62,-193.63"/>
<polygon fill="black" stroke="black" points="362.12,-193.47 358.76,-183.42 355.12,-193.37 362.12,-193.47"/>
</g>
<!-- 20 -->
<g id="node21" class="node">
<title>20</title>
<polygon fill="none" stroke="black" points="523,-184 423,-184 423,-146 523,-146 523,-184"/>
<text text-anchor="middle" x="473" y="-168.8" font-family="Times,serif" font-size="14.00">lon &lt;= &#45;81.939</text>
<text text-anchor="middle" x="473" y="-153.8" font-family="Times,serif" font-size="14.00">class = blue</text>
</g>
<!-- 19&#45;&gt;20 -->
<g id="edge20" class="edge">
<title>19&#45;&gt;20</title>
<path fill="none" stroke="black" d="M478.23,-219.83C477.48,-212.13 476.59,-202.97 475.76,-194.42"/>
<polygon fill="black" stroke="black" points="479.24,-194.03 474.79,-184.41 472.27,-194.71 479.24,-194.03"/>
</g>
<!-- 23 -->
<g id="node24" class="node">
<title>23</title>
<polygon fill="none" stroke="black" points="623,-183 541,-183 541,-147 623,-147 623,-183"/>
<text text-anchor="middle" x="582" y="-161.3" font-family="Times,serif" font-size="14.00">class = blue</text>
</g>
<!-- 19&#45;&gt;23 -->
<g id="edge23" class="edge">
<title>19&#45;&gt;23</title>
<path fill="none" stroke="black" d="M505.74,-219.83C518.93,-210.52 535.15,-199.07 549.23,-189.13"/>
<polygon fill="black" stroke="black" points="551.52,-191.8 557.67,-183.17 547.49,-186.08 551.52,-191.8"/>
</g>
<!-- 21 -->
<g id="node22" class="node">
<title>21</title>
<polygon fill="none" stroke="black" points="466,-109 384,-109 384,-73 466,-73 466,-109"/>
<text text-anchor="middle" x="425" y="-87.3" font-family="Times,serif" font-size="14.00">class = blue</text>
</g>
<!-- 20&#45;&gt;21 -->
<g id="edge21" class="edge">
<title>20&#45;&gt;21</title>
<path fill="none" stroke="black" d="M460.89,-145.83C455.25,-137.37 448.43,-127.15 442.27,-117.9"/>
<polygon fill="black" stroke="black" points="445.07,-115.8 436.61,-109.42 439.25,-119.68 445.07,-115.8"/>
</g>
<!-- 22 -->
<g id="node23" class="node">
<title>22</title>
<polygon fill="none" stroke="black" points="560,-109 484,-109 484,-73 560,-73 560,-109"/>
<text text-anchor="middle" x="522" y="-87.3" font-family="Times,serif" font-size="14.00">class = red</text>
</g>
<!-- 20&#45;&gt;22 -->
<g id="edge22" class="edge">
<title>20&#45;&gt;22</title>
<path fill="none" stroke="black" d="M485.36,-145.83C491.12,-137.37 498.08,-127.15 504.37,-117.9"/>
<polygon fill="black" stroke="black" points="507.41,-119.65 510.15,-109.42 501.63,-115.72 507.41,-119.65"/>
</g>
<!-- 25 -->
<g id="node26" class="node">
<title>25</title>
<polygon fill="none" stroke="black" points="906.5,-480 799.5,-480 799.5,-442 906.5,-442 906.5,-480"/>
<text text-anchor="middle" x="853" y="-464.8" font-family="Times,serif" font-size="14.00">lon &lt;= &#45;104.089</text>
<text text-anchor="middle" x="853" y="-449.8" font-family="Times,serif" font-size="14.00">class = red</text>
</g>
<!-- 24&#45;&gt;25 -->
<g id="edge25" class="edge">
<title>24&#45;&gt;25</title>
<path fill="none" stroke="black" d="M853,-515.83C853,-508.13 853,-498.97 853,-490.42"/>
<polygon fill="black" stroke="black" points="856.5,-490.41 853,-480.41 849.5,-490.41 856.5,-490.41"/>
</g>
<!-- 42 -->
<g id="node43" class="node">
<title>42</title>
<polygon fill="none" stroke="black" points="1468,-480 1376,-480 1376,-442 1468,-442 1468,-480"/>
<text text-anchor="middle" x="1422" y="-464.8" font-family="Times,serif" font-size="14.00">lat &lt;= 39.759</text>
<text text-anchor="middle" x="1422" y="-449.8" font-family="Times,serif" font-size="14.00">class = blue</text>
</g>
<!-- 24&#45;&gt;42 -->
<g id="edge42" class="edge">
<title>24&#45;&gt;42</title>
<path fill="none" stroke="black" d="M903.49,-527.61C1009.52,-514.19 1254.68,-483.17 1365.63,-469.13"/>
<polygon fill="black" stroke="black" points="1366.14,-472.6 1375.62,-467.87 1365.26,-465.65 1366.14,-472.6"/>
</g>
<!-- 26 -->
<g id="node27" class="node">
<title>26</title>
<polygon fill="none" stroke="black" points="842,-406 750,-406 750,-368 842,-368 842,-406"/>
<text text-anchor="middle" x="796" y="-390.8" font-family="Times,serif" font-size="14.00">lat &lt;= 41.895</text>
<text text-anchor="middle" x="796" y="-375.8" font-family="Times,serif" font-size="14.00">class = blue</text>
</g>
<!-- 25&#45;&gt;26 -->
<g id="edge26" class="edge">
<title>25&#45;&gt;26</title>
<path fill="none" stroke="black" d="M838.62,-441.83C832.05,-433.54 824.15,-423.56 816.94,-414.45"/>
<polygon fill="black" stroke="black" points="819.53,-412.08 810.58,-406.41 814.04,-416.43 819.53,-412.08"/>
</g>
<!-- 37 -->
<g id="node38" class="node">
<title>37</title>
<polygon fill="none" stroke="black" points="960,-406 860,-406 860,-368 960,-368 960,-406"/>
<text text-anchor="middle" x="910" y="-390.8" font-family="Times,serif" font-size="14.00">lon &lt;= &#45;96.557</text>
<text text-anchor="middle" x="910" y="-375.8" font-family="Times,serif" font-size="14.00">class = red</text>
</g>
<!-- 25&#45;&gt;37 -->
<g id="edge37" class="edge">
<title>25&#45;&gt;37</title>
<path fill="none" stroke="black" d="M867.38,-441.83C873.95,-433.54 881.85,-423.56 889.06,-414.45"/>
<polygon fill="black" stroke="black" points="891.96,-416.43 895.42,-406.41 886.47,-412.08 891.96,-416.43"/>
</g>
<!-- 27 -->
<g id="node28" class="node">
<title>27</title>
<polygon fill="none" stroke="black" points="742.5,-332 635.5,-332 635.5,-294 742.5,-294 742.5,-332"/>
<text text-anchor="middle" x="689" y="-316.8" font-family="Times,serif" font-size="14.00">lon &lt;= &#45;113.872</text>
<text text-anchor="middle" x="689" y="-301.8" font-family="Times,serif" font-size="14.00">class = blue</text>
</g>
<!-- 26&#45;&gt;27 -->
<g id="edge27" class="edge">
<title>26&#45;&gt;27</title>
<path fill="none" stroke="black" d="M769,-367.83C755.57,-358.79 739.15,-347.75 724.7,-338.02"/>
<polygon fill="black" stroke="black" points="726.24,-334.84 715.99,-332.16 722.33,-340.65 726.24,-334.84"/>
</g>
<!-- 32 -->
<g id="node33" class="node">
<title>32</title>
<polygon fill="none" stroke="black" points="845.5,-332 760.5,-332 760.5,-294 845.5,-294 845.5,-332"/>
<text text-anchor="middle" x="803" y="-316.8" font-family="Times,serif" font-size="14.00">lat &lt;= 45.33</text>
<text text-anchor="middle" x="803" y="-301.8" font-family="Times,serif" font-size="14.00">class = red</text>
</g>
<!-- 26&#45;&gt;32 -->
<g id="edge32" class="edge">
<title>26&#45;&gt;32</title>
<path fill="none" stroke="black" d="M797.77,-367.83C798.52,-360.13 799.41,-350.97 800.24,-342.42"/>
<polygon fill="black" stroke="black" points="803.73,-342.71 801.21,-332.41 796.76,-342.03 803.73,-342.71"/>
</g>
<!-- 28 -->
<g id="node29" class="node">
<title>28</title>
<polygon fill="none" stroke="black" points="630,-257 548,-257 548,-221 630,-221 630,-257"/>
<text text-anchor="middle" x="589" y="-235.3" font-family="Times,serif" font-size="14.00">class = blue</text>
</g>
<!-- 27&#45;&gt;28 -->
<g id="edge28" class="edge">
<title>27&#45;&gt;28</title>
<path fill="none" stroke="black" d="M663.77,-293.83C650.83,-284.52 634.93,-273.07 621.13,-263.13"/>
<polygon fill="black" stroke="black" points="623.01,-260.17 612.85,-257.17 618.92,-265.85 623.01,-260.17"/>
</g>
<!-- 29 -->
<g id="node30" class="node">
<title>29</title>
<polygon fill="none" stroke="black" points="740,-258 648,-258 648,-220 740,-220 740,-258"/>
<text text-anchor="middle" x="694" y="-242.8" font-family="Times,serif" font-size="14.00">lat &lt;= 38.917</text>
<text text-anchor="middle" x="694" y="-227.8" font-family="Times,serif" font-size="14.00">class = blue</text>
</g>
<!-- 27&#45;&gt;29 -->
<g id="edge29" class="edge">
<title>27&#45;&gt;29</title>
<path fill="none" stroke="black" d="M690.26,-293.83C690.8,-286.13 691.43,-276.97 692.03,-268.42"/>
<polygon fill="black" stroke="black" points="695.52,-268.63 692.72,-258.41 688.54,-268.15 695.52,-268.63"/>
</g>
<!-- 30 -->
<g id="node31" class="node">
<title>30</title>
<polygon fill="none" stroke="black" points="725,-183 649,-183 649,-147 725,-147 725,-183"/>
<text text-anchor="middle" x="687" y="-161.3" font-family="Times,serif" font-size="14.00">class = red</text>
</g>
<!-- 29&#45;&gt;30 -->
<g id="edge30" class="edge">
<title>29&#45;&gt;30</title>
<path fill="none" stroke="black" d="M692.23,-219.83C691.46,-211.89 690.54,-202.41 689.69,-193.63"/>
<polygon fill="black" stroke="black" points="693.14,-193.03 688.69,-183.42 686.18,-193.71 693.14,-193.03"/>
</g>
<!-- 31 -->
<g id="node32" class="node">
<title>31</title>
<polygon fill="none" stroke="black" points="825,-183 743,-183 743,-147 825,-147 825,-183"/>
<text text-anchor="middle" x="784" y="-161.3" font-family="Times,serif" font-size="14.00">class = blue</text>
</g>
<!-- 29&#45;&gt;31 -->
<g id="edge31" class="edge">
<title>29&#45;&gt;31</title>
<path fill="none" stroke="black" d="M716.71,-219.83C728.13,-210.69 742.12,-199.5 754.38,-189.7"/>
<polygon fill="black" stroke="black" points="756.91,-192.15 762.54,-183.17 752.54,-186.69 756.91,-192.15"/>
</g>
<!-- 33 -->
<g id="node34" class="node">
<title>33</title>
<polygon fill="none" stroke="black" points="834,-257 758,-257 758,-221 834,-221 834,-257"/>
<text text-anchor="middle" x="796" y="-235.3" font-family="Times,serif" font-size="14.00">class = red</text>
</g>
<!-- 32&#45;&gt;33 -->
<g id="edge33" class="edge">
<title>32&#45;&gt;33</title>
<path fill="none" stroke="black" d="M801.23,-293.83C800.46,-285.89 799.54,-276.41 798.69,-267.63"/>
<polygon fill="black" stroke="black" points="802.14,-267.03 797.69,-257.42 795.18,-267.71 802.14,-267.03"/>
</g>
<!-- 34 -->
<g id="node35" class="node">
<title>34</title>
<polygon fill="none" stroke="black" points="944,-258 852,-258 852,-220 944,-220 944,-258"/>
<text text-anchor="middle" x="898" y="-242.8" font-family="Times,serif" font-size="14.00">lat &lt;= 50.907</text>
<text text-anchor="middle" x="898" y="-227.8" font-family="Times,serif" font-size="14.00">class = blue</text>
</g>
<!-- 32&#45;&gt;34 -->
<g id="edge34" class="edge">
<title>32&#45;&gt;34</title>
<path fill="none" stroke="black" d="M826.97,-293.83C838.79,-284.88 853.2,-273.96 865.94,-264.3"/>
<polygon fill="black" stroke="black" points="868.18,-266.99 874.04,-258.16 863.95,-261.41 868.18,-266.99"/>
</g>
<!-- 35 -->
<g id="node36" class="node">
<title>35</title>
<polygon fill="none" stroke="black" points="929,-183 847,-183 847,-147 929,-147 929,-183"/>
<text text-anchor="middle" x="888" y="-161.3" font-family="Times,serif" font-size="14.00">class = blue</text>
</g>
<!-- 34&#45;&gt;35 -->
<g id="edge35" class="edge">
<title>34&#45;&gt;35</title>
<path fill="none" stroke="black" d="M895.48,-219.83C894.36,-211.81 893.03,-202.2 891.8,-193.34"/>
<polygon fill="black" stroke="black" points="895.26,-192.84 890.42,-183.42 888.33,-193.8 895.26,-192.84"/>
</g>
<!-- 36 -->
<g id="node37" class="node">
<title>36</title>
<polygon fill="none" stroke="black" points="1023,-183 947,-183 947,-147 1023,-147 1023,-183"/>
<text text-anchor="middle" x="985" y="-161.3" font-family="Times,serif" font-size="14.00">class = red</text>
</g>
<!-- 34&#45;&gt;36 -->
<g id="edge36" class="edge">
<title>34&#45;&gt;36</title>
<path fill="none" stroke="black" d="M919.95,-219.83C931,-210.69 944.52,-199.5 956.37,-189.7"/>
<polygon fill="black" stroke="black" points="958.78,-192.24 964.25,-183.17 954.32,-186.85 958.78,-192.24"/>
</g>
<!-- 38 -->
<g id="node39" class="node">
<title>38</title>
<polygon fill="none" stroke="black" points="941,-331 865,-331 865,-295 941,-295 941,-331"/>
<text text-anchor="middle" x="903" y="-309.3" font-family="Times,serif" font-size="14.00">class = red</text>
</g>
<!-- 37&#45;&gt;38 -->
<g id="edge38" class="edge">
<title>37&#45;&gt;38</title>
<path fill="none" stroke="black" d="M908.23,-367.83C907.46,-359.89 906.54,-350.41 905.69,-341.63"/>
<polygon fill="black" stroke="black" points="909.14,-341.03 904.69,-331.42 902.18,-341.71 909.14,-341.03"/>
</g>
<!-- 39 -->
<g id="node40" class="node">
<title>39</title>
<polygon fill="none" stroke="black" points="1051,-332 959,-332 959,-294 1051,-294 1051,-332"/>
<text text-anchor="middle" x="1005" y="-316.8" font-family="Times,serif" font-size="14.00">lat &lt;= 42.007</text>
<text text-anchor="middle" x="1005" y="-301.8" font-family="Times,serif" font-size="14.00">class = blue</text>
</g>
<!-- 37&#45;&gt;39 -->
<g id="edge39" class="edge">
<title>37&#45;&gt;39</title>
<path fill="none" stroke="black" d="M933.97,-367.83C945.79,-358.88 960.2,-347.96 972.94,-338.3"/>
<polygon fill="black" stroke="black" points="975.18,-340.99 981.04,-332.16 970.95,-335.41 975.18,-340.99"/>
</g>
<!-- 40 -->
<g id="node41" class="node">
<title>40</title>
<polygon fill="none" stroke="black" points="1038,-257 962,-257 962,-221 1038,-221 1038,-257"/>
<text text-anchor="middle" x="1000" y="-235.3" font-family="Times,serif" font-size="14.00">class = red</text>
</g>
<!-- 39&#45;&gt;40 -->
<g id="edge40" class="edge">
<title>39&#45;&gt;40</title>
<path fill="none" stroke="black" d="M1003.74,-293.83C1003.19,-285.89 1002.53,-276.41 1001.92,-267.63"/>
<polygon fill="black" stroke="black" points="1005.39,-267.15 1001.21,-257.42 998.41,-267.64 1005.39,-267.15"/>
</g>
<!-- 41 -->
<g id="node42" class="node">
<title>41</title>
<polygon fill="none" stroke="black" points="1138,-257 1056,-257 1056,-221 1138,-221 1138,-257"/>
<text text-anchor="middle" x="1097" y="-235.3" font-family="Times,serif" font-size="14.00">class = blue</text>
</g>
<!-- 39&#45;&gt;41 -->
<g id="edge41" class="edge">
<title>39&#45;&gt;41</title>
<path fill="none" stroke="black" d="M1028.22,-293.83C1040.01,-284.6 1054.47,-273.29 1067.08,-263.41"/>
<polygon fill="black" stroke="black" points="1069.34,-266.09 1075.06,-257.17 1065.03,-260.58 1069.34,-266.09"/>
</g>
<!-- 43 -->
<g id="node44" class="node">
<title>43</title>
<polygon fill="none" stroke="black" points="1472,-406 1372,-406 1372,-368 1472,-368 1472,-406"/>
<text text-anchor="middle" x="1422" y="-390.8" font-family="Times,serif" font-size="14.00">lon &lt;= &#45;79.773</text>
<text text-anchor="middle" x="1422" y="-375.8" font-family="Times,serif" font-size="14.00">class = blue</text>
</g>
<!-- 42&#45;&gt;43 -->
<g id="edge43" class="edge">
<title>42&#45;&gt;43</title>
<path fill="none" stroke="black" d="M1422,-441.83C1422,-434.13 1422,-424.97 1422,-416.42"/>
<polygon fill="black" stroke="black" points="1425.5,-416.41 1422,-406.41 1418.5,-416.41 1425.5,-416.41"/>
</g>
<!-- 62 -->
<g id="node63" class="node">
<title>62</title>
<polygon fill="none" stroke="black" points="1770,-406 1670,-406 1670,-368 1770,-368 1770,-406"/>
<text text-anchor="middle" x="1720" y="-390.8" font-family="Times,serif" font-size="14.00">lon &lt;= &#45;84.905</text>
<text text-anchor="middle" x="1720" y="-375.8" font-family="Times,serif" font-size="14.00">class = blue</text>
</g>
<!-- 42&#45;&gt;62 -->
<g id="edge62" class="edge">
<title>42&#45;&gt;62</title>
<path fill="none" stroke="black" d="M1468.24,-448.83C1519.82,-436.36 1603.45,-416.16 1660.03,-402.49"/>
<polygon fill="black" stroke="black" points="1661.02,-405.85 1669.92,-400.1 1659.38,-399.05 1661.02,-405.85"/>
</g>
<!-- 44 -->
<g id="node45" class="node">
<title>44</title>
<polygon fill="none" stroke="black" points="1396,-332 1296,-332 1296,-294 1396,-294 1396,-332"/>
<text text-anchor="middle" x="1346" y="-316.8" font-family="Times,serif" font-size="14.00">lon &lt;= &#45;87.643</text>
<text text-anchor="middle" x="1346" y="-301.8" font-family="Times,serif" font-size="14.00">class = red</text>
</g>
<!-- 43&#45;&gt;44 -->
<g id="edge44" class="edge">
<title>43&#45;&gt;44</title>
<path fill="none" stroke="black" d="M1402.82,-367.83C1393.64,-359.13 1382.5,-348.58 1372.52,-339.13"/>
<polygon fill="black" stroke="black" points="1374.84,-336.5 1365.17,-332.16 1370.02,-341.58 1374.84,-336.5"/>
</g>
<!-- 57 -->
<g id="node58" class="node">
<title>57</title>
<polygon fill="none" stroke="black" points="1552,-332 1452,-332 1452,-294 1552,-294 1552,-332"/>
<text text-anchor="middle" x="1502" y="-316.8" font-family="Times,serif" font-size="14.00">lon &lt;= &#45;78.395</text>
<text text-anchor="middle" x="1502" y="-301.8" font-family="Times,serif" font-size="14.00">class = blue</text>
</g>
<!-- 43&#45;&gt;57 -->
<g id="edge57" class="edge">
<title>43&#45;&gt;57</title>
<path fill="none" stroke="black" d="M1442.19,-367.83C1451.85,-359.13 1463.58,-348.58 1474.08,-339.13"/>
<polygon fill="black" stroke="black" points="1476.73,-341.45 1481.82,-332.16 1472.04,-336.25 1476.73,-341.45"/>
</g>
<!-- 45 -->
<g id="node46" class="node">
<title>45</title>
<polygon fill="none" stroke="black" points="1249.5,-258 1156.5,-258 1156.5,-220 1249.5,-220 1249.5,-258"/>
<text text-anchor="middle" x="1203" y="-242.8" font-family="Times,serif" font-size="14.00">lon &lt;= &#45;90.12</text>
<text text-anchor="middle" x="1203" y="-227.8" font-family="Times,serif" font-size="14.00">class = blue</text>
</g>
<!-- 44&#45;&gt;45 -->
<g id="edge45" class="edge">
<title>44&#45;&gt;45</title>
<path fill="none" stroke="black" d="M1309.92,-293.83C1291.2,-284.41 1268.16,-272.81 1248.26,-262.79"/>
<polygon fill="black" stroke="black" points="1249.58,-259.53 1239.07,-258.16 1246.43,-265.79 1249.58,-259.53"/>
</g>
<!-- 52 -->
<g id="node53" class="node">
<title>52</title>
<polygon fill="none" stroke="black" points="1392,-258 1300,-258 1300,-220 1392,-220 1392,-258"/>
<text text-anchor="middle" x="1346" y="-242.8" font-family="Times,serif" font-size="14.00">lat &lt;= 38.562</text>
<text text-anchor="middle" x="1346" y="-227.8" font-family="Times,serif" font-size="14.00">class = red</text>
</g>
<!-- 44&#45;&gt;52 -->
<g id="edge52" class="edge">
<title>44&#45;&gt;52</title>
<path fill="none" stroke="black" d="M1346,-293.83C1346,-286.13 1346,-276.97 1346,-268.42"/>
<polygon fill="black" stroke="black" points="1349.5,-268.41 1346,-258.41 1342.5,-268.41 1349.5,-268.41"/>
</g>
<!-- 46 -->
<g id="node47" class="node">
<title>46</title>
<polygon fill="none" stroke="black" points="1143,-184 1043,-184 1043,-146 1143,-146 1143,-184"/>
<text text-anchor="middle" x="1093" y="-168.8" font-family="Times,serif" font-size="14.00">lon &lt;= &#45;90.841</text>
<text text-anchor="middle" x="1093" y="-153.8" font-family="Times,serif" font-size="14.00">class = red</text>
</g>
<!-- 45&#45;&gt;46 -->
<g id="edge46" class="edge">
<title>45&#45;&gt;46</title>
<path fill="none" stroke="black" d="M1175.24,-219.83C1161.3,-210.71 1144.24,-199.54 1129.28,-189.74"/>
<polygon fill="black" stroke="black" points="1131.03,-186.71 1120.75,-184.16 1127.2,-192.57 1131.03,-186.71"/>
</g>
<!-- 51 -->
<g id="node52" class="node">
<title>51</title>
<polygon fill="none" stroke="black" points="1243,-183 1161,-183 1161,-147 1243,-147 1243,-183"/>
<text text-anchor="middle" x="1202" y="-161.3" font-family="Times,serif" font-size="14.00">class = blue</text>
</g>
<!-- 45&#45;&gt;51 -->
<g id="edge51" class="edge">
<title>45&#45;&gt;51</title>
<path fill="none" stroke="black" d="M1202.75,-219.83C1202.64,-211.89 1202.51,-202.41 1202.38,-193.63"/>
<polygon fill="black" stroke="black" points="1205.88,-193.37 1202.24,-183.42 1198.88,-193.47 1205.88,-193.37"/>
</g>
<!-- 47 -->
<g id="node48" class="node">
<title>47</title>
<polygon fill="none" stroke="black" points="1078,-109 1002,-109 1002,-73 1078,-73 1078,-109"/>
<text text-anchor="middle" x="1040" y="-87.3" font-family="Times,serif" font-size="14.00">class = red</text>
</g>
<!-- 46&#45;&gt;47 -->
<g id="edge47" class="edge">
<title>46&#45;&gt;47</title>
<path fill="none" stroke="black" d="M1079.63,-145.83C1073.33,-137.28 1065.72,-126.94 1058.86,-117.62"/>
<polygon fill="black" stroke="black" points="1061.57,-115.4 1052.82,-109.42 1055.93,-119.55 1061.57,-115.4"/>
</g>
<!-- 48 -->
<g id="node49" class="node">
<title>48</title>
<polygon fill="none" stroke="black" points="1196,-110 1096,-110 1096,-72 1196,-72 1196,-110"/>
<text text-anchor="middle" x="1146" y="-94.8" font-family="Times,serif" font-size="14.00">lon &lt;= &#45;90.327</text>
<text text-anchor="middle" x="1146" y="-79.8" font-family="Times,serif" font-size="14.00">class = blue</text>
</g>
<!-- 46&#45;&gt;48 -->
<g id="edge48" class="edge">
<title>46&#45;&gt;48</title>
<path fill="none" stroke="black" d="M1106.37,-145.83C1112.42,-137.62 1119.68,-127.76 1126.32,-118.73"/>
<polygon fill="black" stroke="black" points="1129.34,-120.54 1132.45,-110.41 1123.7,-116.39 1129.34,-120.54"/>
</g>
<!-- 49 -->
<g id="node50" class="node">
<title>49</title>
<polygon fill="none" stroke="black" points="1139,-36 1057,-36 1057,0 1139,0 1139,-36"/>
<text text-anchor="middle" x="1098" y="-14.3" font-family="Times,serif" font-size="14.00">class = blue</text>
</g>
<!-- 48&#45;&gt;49 -->
<g id="edge49" class="edge">
<title>48&#45;&gt;49</title>
<path fill="none" stroke="black" d="M1133.64,-71.72C1128,-63.37 1121.22,-53.35 1115.1,-44.3"/>
<polygon fill="black" stroke="black" points="1118,-42.33 1109.5,-36 1112.2,-46.25 1118,-42.33"/>
</g>
<!-- 50 -->
<g id="node51" class="node">
<title>50</title>
<polygon fill="none" stroke="black" points="1233,-36 1157,-36 1157,0 1233,0 1233,-36"/>
<text text-anchor="middle" x="1195" y="-14.3" font-family="Times,serif" font-size="14.00">class = red</text>
</g>
<!-- 48&#45;&gt;50 -->
<g id="edge50" class="edge">
<title>48&#45;&gt;50</title>
<path fill="none" stroke="black" d="M1158.62,-71.72C1164.38,-63.37 1171.29,-53.35 1177.54,-44.3"/>
<polygon fill="black" stroke="black" points="1180.47,-46.22 1183.27,-36 1174.7,-42.25 1180.47,-46.22"/>
</g>
<!-- 53 -->
<g id="node54" class="node">
<title>53</title>
<polygon fill="none" stroke="black" points="1353,-184 1261,-184 1261,-146 1353,-146 1353,-184"/>
<text text-anchor="middle" x="1307" y="-168.8" font-family="Times,serif" font-size="14.00">lat &lt;= 38.324</text>
<text text-anchor="middle" x="1307" y="-153.8" font-family="Times,serif" font-size="14.00">class = red</text>
</g>
<!-- 52&#45;&gt;53 -->
<g id="edge53" class="edge">
<title>52&#45;&gt;53</title>
<path fill="none" stroke="black" d="M1336.16,-219.83C1331.8,-211.79 1326.59,-202.17 1321.78,-193.29"/>
<polygon fill="black" stroke="black" points="1324.81,-191.54 1316.97,-184.41 1318.66,-194.87 1324.81,-191.54"/>
</g>
<!-- 56 -->
<g id="node57" class="node">
<title>56</title>
<polygon fill="none" stroke="black" points="1447,-183 1371,-183 1371,-147 1447,-147 1447,-183"/>
<text text-anchor="middle" x="1409" y="-161.3" font-family="Times,serif" font-size="14.00">class = red</text>
</g>
<!-- 52&#45;&gt;56 -->
<g id="edge56" class="edge">
<title>52&#45;&gt;56</title>
<path fill="none" stroke="black" d="M1361.9,-219.83C1369.53,-211.11 1378.8,-200.52 1387.08,-191.05"/>
<polygon fill="black" stroke="black" points="1389.81,-193.25 1393.76,-183.42 1384.54,-188.64 1389.81,-193.25"/>
</g>
<!-- 54 -->
<g id="node55" class="node">
<title>54</title>
<polygon fill="none" stroke="black" points="1344,-109 1268,-109 1268,-73 1344,-73 1344,-109"/>
<text text-anchor="middle" x="1306" y="-87.3" font-family="Times,serif" font-size="14.00">class = red</text>
</g>
<!-- 53&#45;&gt;54 -->
<g id="edge54" class="edge">
<title>53&#45;&gt;54</title>
<path fill="none" stroke="black" d="M1306.75,-145.83C1306.64,-137.89 1306.51,-128.41 1306.38,-119.63"/>
<polygon fill="black" stroke="black" points="1309.88,-119.37 1306.24,-109.42 1302.88,-119.47 1309.88,-119.37"/>
</g>
<!-- 55 -->
<g id="node56" class="node">
<title>55</title>
<polygon fill="none" stroke="black" points="1444,-109 1362,-109 1362,-73 1444,-73 1444,-109"/>
<text text-anchor="middle" x="1403" y="-87.3" font-family="Times,serif" font-size="14.00">class = blue</text>
</g>
<!-- 53&#45;&gt;55 -->
<g id="edge55" class="edge">
<title>53&#45;&gt;55</title>
<path fill="none" stroke="black" d="M1331.22,-145.83C1343.53,-136.6 1358.62,-125.29 1371.78,-115.41"/>
<polygon fill="black" stroke="black" points="1374.2,-117.97 1380.1,-109.17 1370,-112.37 1374.2,-117.97"/>
</g>
<!-- 58 -->
<g id="node59" class="node">
<title>58</title>
<polygon fill="none" stroke="black" points="1552,-258 1452,-258 1452,-220 1552,-220 1552,-258"/>
<text text-anchor="middle" x="1502" y="-242.8" font-family="Times,serif" font-size="14.00">lon &lt;= &#45;78.878</text>
<text text-anchor="middle" x="1502" y="-227.8" font-family="Times,serif" font-size="14.00">class = blue</text>
</g>
<!-- 57&#45;&gt;58 -->
<g id="edge58" class="edge">
<title>57&#45;&gt;58</title>
<path fill="none" stroke="black" d="M1502,-293.83C1502,-286.13 1502,-276.97 1502,-268.42"/>
<polygon fill="black" stroke="black" points="1505.5,-268.41 1502,-258.41 1498.5,-268.41 1505.5,-268.41"/>
</g>
<!-- 61 -->
<g id="node62" class="node">
<title>61</title>
<polygon fill="none" stroke="black" points="1652,-257 1570,-257 1570,-221 1652,-221 1652,-257"/>
<text text-anchor="middle" x="1611" y="-235.3" font-family="Times,serif" font-size="14.00">class = blue</text>
</g>
<!-- 57&#45;&gt;61 -->
<g id="edge61" class="edge">
<title>57&#45;&gt;61</title>
<path fill="none" stroke="black" d="M1529.51,-293.83C1543.74,-284.43 1561.26,-272.86 1576.41,-262.85"/>
<polygon fill="black" stroke="black" points="1578.59,-265.6 1585,-257.17 1574.73,-259.76 1578.59,-265.6"/>
</g>
<!-- 59 -->
<g id="node60" class="node">
<title>59</title>
<polygon fill="none" stroke="black" points="1547,-183 1465,-183 1465,-147 1547,-147 1547,-183"/>
<text text-anchor="middle" x="1506" y="-161.3" font-family="Times,serif" font-size="14.00">class = blue</text>
</g>
<!-- 58&#45;&gt;59 -->
<g id="edge59" class="edge">
<title>58&#45;&gt;59</title>
<path fill="none" stroke="black" d="M1503.01,-219.83C1503.45,-211.89 1503.98,-202.41 1504.47,-193.63"/>
<polygon fill="black" stroke="black" points="1507.97,-193.6 1505.03,-183.42 1500.98,-193.21 1507.97,-193.6"/>
</g>
<!-- 60 -->
<g id="node61" class="node">
<title>60</title>
<polygon fill="none" stroke="black" points="1641,-183 1565,-183 1565,-147 1641,-147 1641,-183"/>
<text text-anchor="middle" x="1603" y="-161.3" font-family="Times,serif" font-size="14.00">class = red</text>
</g>
<!-- 58&#45;&gt;60 -->
<g id="edge60" class="edge">
<title>58&#45;&gt;60</title>
<path fill="none" stroke="black" d="M1527.49,-219.83C1540.55,-210.52 1556.61,-199.07 1570.55,-189.13"/>
<polygon fill="black" stroke="black" points="1572.8,-191.83 1578.91,-183.17 1568.74,-186.13 1572.8,-191.83"/>
</g>
<!-- 63 -->
<g id="node64" class="node">
<title>63</title>
<polygon fill="none" stroke="black" points="1766,-332 1674,-332 1674,-294 1766,-294 1766,-332"/>
<text text-anchor="middle" x="1720" y="-316.8" font-family="Times,serif" font-size="14.00">lat &lt;= 41.739</text>
<text text-anchor="middle" x="1720" y="-301.8" font-family="Times,serif" font-size="14.00">class = blue</text>
</g>
<!-- 62&#45;&gt;63 -->
<g id="edge63" class="edge">
<title>62&#45;&gt;63</title>
<path fill="none" stroke="black" d="M1720,-367.83C1720,-360.13 1720,-350.97 1720,-342.42"/>
<polygon fill="black" stroke="black" points="1723.5,-342.41 1720,-332.41 1716.5,-342.41 1723.5,-342.41"/>
</g>
<!-- 72 -->
<g id="node73" class="node">
<title>72</title>
<polygon fill="none" stroke="black" points="1866,-331 1784,-331 1784,-295 1866,-295 1866,-331"/>
<text text-anchor="middle" x="1825" y="-309.3" font-family="Times,serif" font-size="14.00">class = blue</text>
</g>
<!-- 62&#45;&gt;72 -->
<g id="edge72" class="edge">
<title>62&#45;&gt;72</title>
<path fill="none" stroke="black" d="M1746.5,-367.83C1760.21,-358.43 1777.09,-346.86 1791.67,-336.85"/>
<polygon fill="black" stroke="black" points="1793.69,-339.71 1799.96,-331.17 1789.73,-333.94 1793.69,-339.71"/>
</g>
<!-- 64 -->
<g id="node65" class="node">
<title>64</title>
<polygon fill="none" stroke="black" points="1770,-258 1670,-258 1670,-220 1770,-220 1770,-258"/>
<text text-anchor="middle" x="1720" y="-242.8" font-family="Times,serif" font-size="14.00">lon &lt;= &#45;87.697</text>
<text text-anchor="middle" x="1720" y="-227.8" font-family="Times,serif" font-size="14.00">class = blue</text>
</g>
<!-- 63&#45;&gt;64 -->
<g id="edge64" class="edge">
<title>63&#45;&gt;64</title>
<path fill="none" stroke="black" d="M1720,-293.83C1720,-286.13 1720,-276.97 1720,-268.42"/>
<polygon fill="black" stroke="black" points="1723.5,-268.41 1720,-258.41 1716.5,-268.41 1723.5,-268.41"/>
</g>
<!-- 71 -->
<g id="node72" class="node">
<title>71</title>
<polygon fill="none" stroke="black" points="1870,-257 1788,-257 1788,-221 1870,-221 1870,-257"/>
<text text-anchor="middle" x="1829" y="-235.3" font-family="Times,serif" font-size="14.00">class = blue</text>
</g>
<!-- 63&#45;&gt;71 -->
<g id="edge71" class="edge">
<title>63&#45;&gt;71</title>
<path fill="none" stroke="black" d="M1747.51,-293.83C1761.74,-284.43 1779.26,-272.86 1794.41,-262.85"/>
<polygon fill="black" stroke="black" points="1796.59,-265.6 1803,-257.17 1792.73,-259.76 1796.59,-265.6"/>
</g>
<!-- 65 -->
<g id="node66" class="node">
<title>65</title>
<polygon fill="none" stroke="black" points="1766,-184 1666,-184 1666,-146 1766,-146 1766,-184"/>
<text text-anchor="middle" x="1716" y="-168.8" font-family="Times,serif" font-size="14.00">lon &lt;= &#45;91.379</text>
<text text-anchor="middle" x="1716" y="-153.8" font-family="Times,serif" font-size="14.00">class = blue</text>
</g>
<!-- 64&#45;&gt;65 -->
<g id="edge65" class="edge">
<title>64&#45;&gt;65</title>
<path fill="none" stroke="black" d="M1718.99,-219.83C1718.56,-212.13 1718.05,-202.97 1717.58,-194.42"/>
<polygon fill="black" stroke="black" points="1721.07,-194.2 1717.02,-184.41 1714.08,-194.59 1721.07,-194.2"/>
</g>
<!-- 70 -->
<g id="node71" class="node">
<title>70</title>
<polygon fill="none" stroke="black" points="1860,-183 1784,-183 1784,-147 1860,-147 1860,-183"/>
<text text-anchor="middle" x="1822" y="-161.3" font-family="Times,serif" font-size="14.00">class = red</text>
</g>
<!-- 64&#45;&gt;70 -->
<g id="edge70" class="edge">
<title>64&#45;&gt;70</title>
<path fill="none" stroke="black" d="M1745.74,-219.83C1758.93,-210.52 1775.15,-199.07 1789.23,-189.13"/>
<polygon fill="black" stroke="black" points="1791.52,-191.8 1797.67,-183.17 1787.49,-186.08 1791.52,-191.8"/>
</g>
<!-- 66 -->
<g id="node67" class="node">
<title>66</title>
<polygon fill="none" stroke="black" points="1709,-110 1617,-110 1617,-72 1709,-72 1709,-110"/>
<text text-anchor="middle" x="1663" y="-94.8" font-family="Times,serif" font-size="14.00">lat &lt;= 40.775</text>
<text text-anchor="middle" x="1663" y="-79.8" font-family="Times,serif" font-size="14.00">class = red</text>
</g>
<!-- 65&#45;&gt;66 -->
<g id="edge66" class="edge">
<title>65&#45;&gt;66</title>
<path fill="none" stroke="black" d="M1702.63,-145.83C1696.58,-137.62 1689.32,-127.76 1682.68,-118.73"/>
<polygon fill="black" stroke="black" points="1685.3,-116.39 1676.55,-110.41 1679.66,-120.54 1685.3,-116.39"/>
</g>
<!-- 69 -->
<g id="node70" class="node">
<title>69</title>
<polygon fill="none" stroke="black" points="1809,-109 1727,-109 1727,-73 1809,-73 1809,-109"/>
<text text-anchor="middle" x="1768" y="-87.3" font-family="Times,serif" font-size="14.00">class = blue</text>
</g>
<!-- 65&#45;&gt;69 -->
<g id="edge69" class="edge">
<title>65&#45;&gt;69</title>
<path fill="none" stroke="black" d="M1729.12,-145.83C1735.3,-137.28 1742.76,-126.94 1749.5,-117.62"/>
<polygon fill="black" stroke="black" points="1752.4,-119.57 1755.42,-109.42 1746.73,-115.48 1752.4,-119.57"/>
</g>
<!-- 67 -->
<g id="node68" class="node">
<title>67</title>
<polygon fill="none" stroke="black" points="1652,-36 1576,-36 1576,0 1652,0 1652,-36"/>
<text text-anchor="middle" x="1614" y="-14.3" font-family="Times,serif" font-size="14.00">class = red</text>
</g>
<!-- 66&#45;&gt;67 -->
<g id="edge67" class="edge">
<title>66&#45;&gt;67</title>
<path fill="none" stroke="black" d="M1650.38,-71.72C1644.62,-63.37 1637.71,-53.35 1631.46,-44.3"/>
<polygon fill="black" stroke="black" points="1634.3,-42.25 1625.73,-36 1628.53,-46.22 1634.3,-42.25"/>
</g>
<!-- 68 -->
<g id="node69" class="node">
<title>68</title>
<polygon fill="none" stroke="black" points="1752,-36 1670,-36 1670,0 1752,0 1752,-36"/>
<text text-anchor="middle" x="1711" y="-14.3" font-family="Times,serif" font-size="14.00">class = blue</text>
</g>
<!-- 66&#45;&gt;68 -->
<g id="edge68" class="edge">
<title>66&#45;&gt;68</title>
<path fill="none" stroke="black" d="M1675.36,-71.72C1681,-63.37 1687.78,-53.35 1693.9,-44.3"/>
<polygon fill="black" stroke="black" points="1696.8,-46.25 1699.5,-36 1691,-42.33 1696.8,-46.25"/>
</g>
</g>
</svg>
