<?xml version="1.0" encoding="UTF-8" standalone="no"?>
<!DOCTYPE svg PUBLIC "-//W3C//DTD SVG 1.1//EN"
 "http://www.w3.org/Graphics/SVG/1.1/DTD/svg11.dtd">
<!-- Generated by graphviz version 2.44.1 (20200629.0846)
 -->
<!-- Title: Tree Pages: 1 -->
<svg width="408pt" height="414pt"
 viewBox="0.00 0.00 408.00 414.00" xmlns="http://www.w3.org/2000/svg" xmlns:xlink="http://www.w3.org/1999/xlink">
<g id="graph0" class="graph" transform="scale(1 1) rotate(0) translate(4 410)">
<title>Tree</title>
<polygon fill="white" stroke="transparent" points="-4,4 -4,-410 404,-410 404,4 -4,4"/>
<!-- 0 -->
<g id="node1" class="node">
<title>0</title>
<polygon fill="none" stroke="black" points="197.5,-406 90.5,-406 90.5,-368 197.5,-368 197.5,-406"/>
<text text-anchor="middle" x="144" y="-390.8" font-family="Times,serif" font-size="14.00">lon &lt;= &#45;102.165</text>
<text text-anchor="middle" x="144" y="-375.8" font-family="Times,serif" font-size="14.00">class = red</text>
</g>
<!-- 1 -->
<g id="node2" class="node">
<title>1</title>
<polygon fill="none" stroke="black" points="131,-331 49,-331 49,-295 131,-295 131,-331"/>
<text text-anchor="middle" x="90" y="-309.3" font-family="Times,serif" font-size="14.00">class = blue</text>
</g>
<!-- 0&#45;&gt;1 -->
<g id="edge1" class="edge">
<title>0&#45;&gt;1</title>
<path fill="none" stroke="black" d="M130.37,-367.83C123.96,-359.28 116.21,-348.94 109.21,-339.62"/>
<polygon fill="black" stroke="black" points="111.86,-337.32 103.06,-331.42 106.26,-341.52 111.86,-337.32"/>
<text text-anchor="middle" x="99.53" y="-352.47" font-family="Times,serif" font-size="14.00">True</text>
</g>
<!-- 2 -->
<g id="node3" class="node">
<title>2</title>
<polygon fill="none" stroke="black" points="249,-332 149,-332 149,-294 249,-294 249,-332"/>
<text text-anchor="middle" x="199" y="-316.8" font-family="Times,serif" font-size="14.00">lon &lt;= &#45;82.517</text>
<text text-anchor="middle" x="199" y="-301.8" font-family="Times,serif" font-size="14.00">class = red</text>
</g>
<!-- 0&#45;&gt;2 -->
<g id="edge2" class="edge">
<title>0&#45;&gt;2</title>
<path fill="none" stroke="black" d="M157.88,-367.83C164.21,-359.54 171.84,-349.56 178.79,-340.45"/>
<polygon fill="black" stroke="black" points="181.65,-342.48 184.93,-332.41 176.08,-338.24 181.65,-342.48"/>
<text text-anchor="middle" x="188.25" y="-353.49" font-family="Times,serif" font-size="14.00">False</text>
</g>
<!-- 3 -->
<g id="node4" class="node">
<title>3</title>
<polygon fill="none" stroke="black" points="190,-258 98,-258 98,-220 190,-220 190,-258"/>
<text text-anchor="middle" x="144" y="-242.8" font-family="Times,serif" font-size="14.00">lat &lt;= 41.113</text>
<text text-anchor="middle" x="144" y="-227.8" font-family="Times,serif" font-size="14.00">class = red</text>
</g>
<!-- 2&#45;&gt;3 -->
<g id="edge3" class="edge">
<title>2&#45;&gt;3</title>
<path fill="none" stroke="black" d="M185.12,-293.83C178.79,-285.54 171.16,-275.56 164.21,-266.45"/>
<polygon fill="black" stroke="black" points="166.92,-264.24 158.07,-258.41 161.35,-268.48 166.92,-264.24"/>
</g>
<!-- 10 -->
<g id="node11" class="node">
<title>10</title>
<polygon fill="none" stroke="black" points="300,-258 208,-258 208,-220 300,-220 300,-258"/>
<text text-anchor="middle" x="254" y="-242.8" font-family="Times,serif" font-size="14.00">lat &lt;= 35.763</text>
<text text-anchor="middle" x="254" y="-227.8" font-family="Times,serif" font-size="14.00">class = blue</text>
</g>
<!-- 2&#45;&gt;10 -->
<g id="edge10" class="edge">
<title>2&#45;&gt;10</title>
<path fill="none" stroke="black" d="M212.88,-293.83C219.21,-285.54 226.84,-275.56 233.79,-266.45"/>
<polygon fill="black" stroke="black" points="236.65,-268.48 239.93,-258.41 231.08,-264.24 236.65,-268.48"/>
</g>
<!-- 4 -->
<g id="node5" class="node">
<title>4</title>
<polygon fill="none" stroke="black" points="80,-183 4,-183 4,-147 80,-147 80,-183"/>
<text text-anchor="middle" x="42" y="-161.3" font-family="Times,serif" font-size="14.00">class = red</text>
</g>
<!-- 3&#45;&gt;4 -->
<g id="edge4" class="edge">
<title>3&#45;&gt;4</title>
<path fill="none" stroke="black" d="M118.26,-219.83C105.07,-210.52 88.85,-199.07 74.77,-189.13"/>
<polygon fill="black" stroke="black" points="76.51,-186.08 66.33,-183.17 72.48,-191.8 76.51,-186.08"/>
</g>
<!-- 5 -->
<g id="node6" class="node">
<title>5</title>
<polygon fill="none" stroke="black" points="190,-184 98,-184 98,-146 190,-146 190,-184"/>
<text text-anchor="middle" x="144" y="-168.8" font-family="Times,serif" font-size="14.00">lat &lt;= 41.532</text>
<text text-anchor="middle" x="144" y="-153.8" font-family="Times,serif" font-size="14.00">class = blue</text>
</g>
<!-- 3&#45;&gt;5 -->
<g id="edge5" class="edge">
<title>3&#45;&gt;5</title>
<path fill="none" stroke="black" d="M144,-219.83C144,-212.13 144,-202.97 144,-194.42"/>
<polygon fill="black" stroke="black" points="147.5,-194.41 144,-184.41 140.5,-194.41 147.5,-194.41"/>
</g>
<!-- 6 -->
<g id="node7" class="node">
<title>6</title>
<polygon fill="none" stroke="black" points="82,-109 0,-109 0,-73 82,-73 82,-109"/>
<text text-anchor="middle" x="41" y="-87.3" font-family="Times,serif" font-size="14.00">class = blue</text>
</g>
<!-- 5&#45;&gt;6 -->
<g id="edge6" class="edge">
<title>5&#45;&gt;6</title>
<path fill="none" stroke="black" d="M118.01,-145.83C104.68,-136.52 88.31,-125.07 74.09,-115.13"/>
<polygon fill="black" stroke="black" points="75.77,-112.03 65.56,-109.17 71.76,-117.77 75.77,-112.03"/>
</g>
<!-- 7 -->
<g id="node8" class="node">
<title>7</title>
<polygon fill="none" stroke="black" points="192,-110 100,-110 100,-72 192,-72 192,-110"/>
<text text-anchor="middle" x="146" y="-94.8" font-family="Times,serif" font-size="14.00">lat &lt;= 42.165</text>
<text text-anchor="middle" x="146" y="-79.8" font-family="Times,serif" font-size="14.00">class = blue</text>
</g>
<!-- 5&#45;&gt;7 -->
<g id="edge7" class="edge">
<title>5&#45;&gt;7</title>
<path fill="none" stroke="black" d="M144.5,-145.83C144.72,-138.13 144.97,-128.97 145.21,-120.42"/>
<polygon fill="black" stroke="black" points="148.71,-120.51 145.49,-110.41 141.71,-120.31 148.71,-120.51"/>
</g>
<!-- 8 -->
<g id="node9" class="node">
<title>8</title>
<polygon fill="none" stroke="black" points="135,-36 59,-36 59,0 135,0 135,-36"/>
<text text-anchor="middle" x="97" y="-14.3" font-family="Times,serif" font-size="14.00">class = red</text>
</g>
<!-- 7&#45;&gt;8 -->
<g id="edge8" class="edge">
<title>7&#45;&gt;8</title>
<path fill="none" stroke="black" d="M133.38,-71.72C127.62,-63.37 120.71,-53.35 114.46,-44.3"/>
<polygon fill="black" stroke="black" points="117.3,-42.25 108.73,-36 111.53,-46.22 117.3,-42.25"/>
</g>
<!-- 9 -->
<g id="node10" class="node">
<title>9</title>
<polygon fill="none" stroke="black" points="235,-36 153,-36 153,0 235,0 235,-36"/>
<text text-anchor="middle" x="194" y="-14.3" font-family="Times,serif" font-size="14.00">class = blue</text>
</g>
<!-- 7&#45;&gt;9 -->
<g id="edge9" class="edge">
<title>7&#45;&gt;9</title>
<path fill="none" stroke="black" d="M158.36,-71.72C164,-63.37 170.78,-53.35 176.9,-44.3"/>
<polygon fill="black" stroke="black" points="179.8,-46.25 182.5,-36 174,-42.33 179.8,-46.25"/>
</g>
<!-- 11 -->
<g id="node12" class="node">
<title>11</title>
<polygon fill="none" stroke="black" points="300,-184 208,-184 208,-146 300,-146 300,-184"/>
<text text-anchor="middle" x="254" y="-168.8" font-family="Times,serif" font-size="14.00">lat &lt;= 31.863</text>
<text text-anchor="middle" x="254" y="-153.8" font-family="Times,serif" font-size="14.00">class = red</text>
</g>
<!-- 10&#45;&gt;11 -->
<g id="edge11" class="edge">
<title>10&#45;&gt;11</title>
<path fill="none" stroke="black" d="M254,-219.83C254,-212.13 254,-202.97 254,-194.42"/>
<polygon fill="black" stroke="black" points="257.5,-194.41 254,-184.41 250.5,-194.41 257.5,-194.41"/>
</g>
<!-- 14 -->
<g id="node15" class="node">
<title>14</title>
<polygon fill="none" stroke="black" points="400,-183 318,-183 318,-147 400,-147 400,-183"/>
<text text-anchor="middle" x="359" y="-161.3" font-family="Times,serif" font-size="14.00">class = blue</text>
</g>
<!-- 10&#45;&gt;14 -->
<g id="edge14" class="edge">
<title>10&#45;&gt;14</title>
<path fill="none" stroke="black" d="M280.5,-219.83C294.21,-210.43 311.09,-198.86 325.67,-188.85"/>
<polygon fill="black" stroke="black" points="327.69,-191.71 333.96,-183.17 323.73,-185.94 327.69,-191.71"/>
</g>
<!-- 12 -->
<g id="node13" class="node">
<title>12</title>
<polygon fill="none" stroke="black" points="294,-109 212,-109 212,-73 294,-73 294,-109"/>
<text text-anchor="middle" x="253" y="-87.3" font-family="Times,serif" font-size="14.00">class = blue</text>
</g>
<!-- 11&#45;&gt;12 -->
<g id="edge12" class="edge">
<title>11&#45;&gt;12</title>
<path fill="none" stroke="black" d="M253.75,-145.83C253.64,-137.89 253.51,-128.41 253.38,-119.63"/>
<polygon fill="black" stroke="black" points="256.88,-119.37 253.24,-109.42 249.88,-119.47 256.88,-119.37"/>
</g>
<!-- 13 -->
<g id="node14" class="node">
<title>13</title>
<polygon fill="none" stroke="black" points="388,-109 312,-109 312,-73 388,-73 388,-109"/>
<text text-anchor="middle" x="350" y="-87.3" font-family="Times,serif" font-size="14.00">class = red</text>
</g>
<!-- 11&#45;&gt;13 -->
<g id="edge13" class="edge">
<title>11&#45;&gt;13</title>
<path fill="none" stroke="black" d="M278.22,-145.83C290.53,-136.6 305.62,-125.29 318.78,-115.41"/>
<polygon fill="black" stroke="black" points="321.2,-117.97 327.1,-109.17 317,-112.37 321.2,-117.97"/>
</g>
</g>
</svg>
