<?xml version="1.0" encoding="UTF-8" standalone="no"?>
<!DOCTYPE svg PUBLIC "-//W3C//DTD SVG 1.1//EN"
 "http://www.w3.org/Graphics/SVG/1.1/DTD/svg11.dtd">
<!-- Generated by graphviz version 2.44.1 (20200629.0846)
 -->
<!-- Title: Tree Pages: 1 -->
<svg width="273pt" height="373pt"
 viewBox="0.00 0.00 273.00 373.00" xmlns="http://www.w3.org/2000/svg" xmlns:xlink="http://www.w3.org/1999/xlink">
<g id="graph0" class="graph" transform="scale(1 1) rotate(0) translate(4 369)">
<title>Tree</title>
<polygon fill="white" stroke="transparent" points="-4,4 -4,-369 269,-369 269,4 -4,4"/>
<!-- 0 -->
<g id="node1" class="node">
<title>0</title>
<polygon fill="none" stroke="black" points="149,-365 57,-365 57,-297 149,-297 149,-365"/>
<text text-anchor="middle" x="103" y="-349.8" font-family="Times,serif" font-size="14.00">lat &lt;= 39.121</text>
<text text-anchor="middle" x="103" y="-334.8" font-family="Times,serif" font-size="14.00">samples = 6</text>
<text text-anchor="middle" x="103" y="-319.8" font-family="Times,serif" font-size="14.00">value = [3, 3]</text>
<text text-anchor="middle" x="103" y="-304.8" font-family="Times,serif" font-size="14.00">class = blue</text>
</g>
<!-- 1 -->
<g id="node2" class="node">
<title>1</title>
<polygon fill="none" stroke="black" points="92,-253.5 0,-253.5 0,-200.5 92,-200.5 92,-253.5"/>
<text text-anchor="middle" x="46" y="-238.3" font-family="Times,serif" font-size="14.00">samples = 1</text>
<text text-anchor="middle" x="46" y="-223.3" font-family="Times,serif" font-size="14.00">value = [0, 1]</text>
<text text-anchor="middle" x="46" y="-208.3" font-family="Times,serif" font-size="14.00">class = red</text>
</g>
<!-- 0&#45;&gt;1 -->
<g id="edge1" class="edge">
<title>0&#45;&gt;1</title>
<path fill="none" stroke="black" d="M84.49,-296.88C78.35,-285.89 71.49,-273.62 65.29,-262.52"/>
<polygon fill="black" stroke="black" points="68.19,-260.54 60.26,-253.52 62.08,-263.96 68.19,-260.54"/>
<text text-anchor="middle" x="53.45" y="-273.88" font-family="Times,serif" font-size="14.00">True</text>
</g>
<!-- 2 -->
<g id="node3" class="node">
<title>2</title>
<polygon fill="none" stroke="black" points="210,-261 110,-261 110,-193 210,-193 210,-261"/>
<text text-anchor="middle" x="160" y="-245.8" font-family="Times,serif" font-size="14.00">lon &lt;= &#45;97.826</text>
<text text-anchor="middle" x="160" y="-230.8" font-family="Times,serif" font-size="14.00">samples = 5</text>
<text text-anchor="middle" x="160" y="-215.8" font-family="Times,serif" font-size="14.00">value = [3, 2]</text>
<text text-anchor="middle" x="160" y="-200.8" font-family="Times,serif" font-size="14.00">class = blue</text>
</g>
<!-- 0&#45;&gt;2 -->
<g id="edge2" class="edge">
<title>0&#45;&gt;2</title>
<path fill="none" stroke="black" d="M121.51,-296.88C126.28,-288.33 131.49,-279.01 136.49,-270.07"/>
<polygon fill="black" stroke="black" points="139.57,-271.74 141.39,-261.3 133.46,-268.32 139.57,-271.74"/>
<text text-anchor="middle" x="148.2" y="-281.65" font-family="Times,serif" font-size="14.00">False</text>
</g>
<!-- 3 -->
<g id="node4" class="node">
<title>3</title>
<polygon fill="none" stroke="black" points="154.5,-157 47.5,-157 47.5,-89 154.5,-89 154.5,-157"/>
<text text-anchor="middle" x="101" y="-141.8" font-family="Times,serif" font-size="14.00">lon &lt;= &#45;117.485</text>
<text text-anchor="middle" x="101" y="-126.8" font-family="Times,serif" font-size="14.00">samples = 3</text>
<text text-anchor="middle" x="101" y="-111.8" font-family="Times,serif" font-size="14.00">value = [1, 2]</text>
<text text-anchor="middle" x="101" y="-96.8" font-family="Times,serif" font-size="14.00">class = red</text>
</g>
<!-- 2&#45;&gt;3 -->
<g id="edge3" class="edge">
<title>2&#45;&gt;3</title>
<path fill="none" stroke="black" d="M140.84,-192.88C135.9,-184.33 130.51,-175.01 125.34,-166.07"/>
<polygon fill="black" stroke="black" points="128.3,-164.2 120.26,-157.3 122.24,-167.71 128.3,-164.2"/>
</g>
<!-- 6 -->
<g id="node7" class="node">
<title>6</title>
<polygon fill="none" stroke="black" points="265,-149.5 173,-149.5 173,-96.5 265,-96.5 265,-149.5"/>
<text text-anchor="middle" x="219" y="-134.3" font-family="Times,serif" font-size="14.00">samples = 2</text>
<text text-anchor="middle" x="219" y="-119.3" font-family="Times,serif" font-size="14.00">value = [2, 0]</text>
<text text-anchor="middle" x="219" y="-104.3" font-family="Times,serif" font-size="14.00">class = blue</text>
</g>
<!-- 2&#45;&gt;6 -->
<g id="edge6" class="edge">
<title>2&#45;&gt;6</title>
<path fill="none" stroke="black" d="M179.16,-192.88C185.58,-181.78 192.76,-169.37 199.23,-158.18"/>
<polygon fill="black" stroke="black" points="202.26,-159.93 204.24,-149.52 196.2,-156.42 202.26,-159.93"/>
</g>
<!-- 4 -->
<g id="node5" class="node">
<title>4</title>
<polygon fill="none" stroke="black" points="92,-53 0,-53 0,0 92,0 92,-53"/>
<text text-anchor="middle" x="46" y="-37.8" font-family="Times,serif" font-size="14.00">samples = 1</text>
<text text-anchor="middle" x="46" y="-22.8" font-family="Times,serif" font-size="14.00">value = [1, 0]</text>
<text text-anchor="middle" x="46" y="-7.8" font-family="Times,serif" font-size="14.00">class = blue</text>
</g>
<!-- 3&#45;&gt;4 -->
<g id="edge4" class="edge">
<title>3&#45;&gt;4</title>
<path fill="none" stroke="black" d="M81.76,-88.95C76.71,-80.26 71.24,-70.86 66.13,-62.09"/>
<polygon fill="black" stroke="black" points="69.03,-60.12 60.98,-53.24 62.98,-63.64 69.03,-60.12"/>
</g>
<!-- 5 -->
<g id="node6" class="node">
<title>5</title>
<polygon fill="none" stroke="black" points="202,-53 110,-53 110,0 202,0 202,-53"/>
<text text-anchor="middle" x="156" y="-37.8" font-family="Times,serif" font-size="14.00">samples = 2</text>
<text text-anchor="middle" x="156" y="-22.8" font-family="Times,serif" font-size="14.00">value = [0, 2]</text>
<text text-anchor="middle" x="156" y="-7.8" font-family="Times,serif" font-size="14.00">class = red</text>
</g>
<!-- 3&#45;&gt;5 -->
<g id="edge5" class="edge">
<title>3&#45;&gt;5</title>
<path fill="none" stroke="black" d="M120.24,-88.95C125.29,-80.26 130.76,-70.86 135.87,-62.09"/>
<polygon fill="black" stroke="black" points="139.02,-63.64 141.02,-53.24 132.97,-60.12 139.02,-63.64"/>
</g>
</g>
</svg>
