<?xml version="1.0" encoding="UTF-8" standalone="no"?>
<!DOCTYPE svg PUBLIC "-//W3C//DTD SVG 1.1//EN"
 "http://www.w3.org/Graphics/SVG/1.1/DTD/svg11.dtd">
<!-- Generated by graphviz version 2.44.1 (20200629.0846)
 -->
<!-- Title: Tree Pages: 1 -->
<svg width="412pt" height="414pt"
 viewBox="0.00 0.00 412.00 414.00" xmlns="http://www.w3.org/2000/svg" xmlns:xlink="http://www.w3.org/1999/xlink">
<g id="graph0" class="graph" transform="scale(1 1) rotate(0) translate(4 410)">
<title>Tree</title>
<polygon fill="white" stroke="transparent" points="-4,4 -4,-410 408,-410 408,4 -4,4"/>
<!-- 0 -->
<g id="node1" class="node">
<title>0</title>
<polygon fill="none" stroke="black" points="199.5,-406 92.5,-406 92.5,-368 199.5,-368 199.5,-406"/>
<text text-anchor="middle" x="146" y="-390.8" font-family="Times,serif" font-size="14.00">lon &lt;= &#45;102.165</text>
<text text-anchor="middle" x="146" y="-375.8" font-family="Times,serif" font-size="14.00">class = red</text>
</g>
<!-- 1 -->
<g id="node2" class="node">
<title>1</title>
<polygon fill="none" stroke="black" points="133,-331 51,-331 51,-295 133,-295 133,-331"/>
<text text-anchor="middle" x="92" y="-309.3" font-family="Times,serif" font-size="14.00">class = blue</text>
</g>
<!-- 0&#45;&gt;1 -->
<g id="edge1" class="edge">
<title>0&#45;&gt;1</title>
<path fill="none" stroke="black" d="M132.37,-367.83C125.96,-359.28 118.21,-348.94 111.21,-339.62"/>
<polygon fill="black" stroke="black" points="113.86,-337.32 105.06,-331.42 108.26,-341.52 113.86,-337.32"/>
<text text-anchor="middle" x="101.53" y="-352.47" font-family="Times,serif" font-size="14.00">True</text>
</g>
<!-- 2 -->
<g id="node3" class="node">
<title>2</title>
<polygon fill="none" stroke="black" points="251,-332 151,-332 151,-294 251,-294 251,-332"/>
<text text-anchor="middle" x="201" y="-316.8" font-family="Times,serif" font-size="14.00">lon &lt;= &#45;82.517</text>
<text text-anchor="middle" x="201" y="-301.8" font-family="Times,serif" font-size="14.00">class = red</text>
</g>
<!-- 0&#45;&gt;2 -->
<g id="edge2" class="edge">
<title>0&#45;&gt;2</title>
<path fill="none" stroke="black" d="M159.88,-367.83C166.21,-359.54 173.84,-349.56 180.79,-340.45"/>
<polygon fill="black" stroke="black" points="183.65,-342.48 186.93,-332.41 178.08,-338.24 183.65,-342.48"/>
<text text-anchor="middle" x="190.25" y="-353.49" font-family="Times,serif" font-size="14.00">False</text>
</g>
<!-- 3 -->
<g id="node4" class="node">
<title>3</title>
<polygon fill="none" stroke="black" points="190,-258 98,-258 98,-220 190,-220 190,-258"/>
<text text-anchor="middle" x="144" y="-242.8" font-family="Times,serif" font-size="14.00">lat &lt;= 41.113</text>
<text text-anchor="middle" x="144" y="-227.8" font-family="Times,serif" font-size="14.00">class = red</text>
</g>
<!-- 2&#45;&gt;3 -->
<g id="edge3" class="edge">
<title>2&#45;&gt;3</title>
<path fill="none" stroke="black" d="M186.62,-293.83C180.05,-285.54 172.15,-275.56 164.94,-266.45"/>
<polygon fill="black" stroke="black" points="167.53,-264.08 158.58,-258.41 162.04,-268.43 167.53,-264.08"/>
</g>
<!-- 10 -->
<g id="node11" class="node">
<title>10</title>
<polygon fill="none" stroke="black" points="304,-258 212,-258 212,-220 304,-220 304,-258"/>
<text text-anchor="middle" x="258" y="-242.8" font-family="Times,serif" font-size="14.00">lat &lt;= 35.763</text>
<text text-anchor="middle" x="258" y="-227.8" font-family="Times,serif" font-size="14.00">class = blue</text>
</g>
<!-- 2&#45;&gt;10 -->
<g id="edge10" class="edge">
<title>2&#45;&gt;10</title>
<path fill="none" stroke="black" d="M215.38,-293.83C221.95,-285.54 229.85,-275.56 237.06,-266.45"/>
<polygon fill="black" stroke="black" points="239.96,-268.43 243.42,-258.41 234.47,-264.08 239.96,-268.43"/>
</g>
<!-- 4 -->
<g id="node5" class="node">
<title>4</title>
<polygon fill="none" stroke="black" points="76,-183 0,-183 0,-147 76,-147 76,-183"/>
<text text-anchor="middle" x="38" y="-161.3" font-family="Times,serif" font-size="14.00">class = red</text>
</g>
<!-- 3&#45;&gt;4 -->
<g id="edge4" class="edge">
<title>3&#45;&gt;4</title>
<path fill="none" stroke="black" d="M117.25,-219.83C103.41,-210.43 86.37,-198.86 71.64,-188.85"/>
<polygon fill="black" stroke="black" points="73.52,-185.9 63.28,-183.17 69.59,-191.69 73.52,-185.9"/>
</g>
<!-- 5 -->
<g id="node6" class="node">
<title>5</title>
<polygon fill="none" stroke="black" points="194,-184 94,-184 94,-146 194,-146 194,-184"/>
<text text-anchor="middle" x="144" y="-168.8" font-family="Times,serif" font-size="14.00">lon &lt;= &#45;91.035</text>
<text text-anchor="middle" x="144" y="-153.8" font-family="Times,serif" font-size="14.00">class = blue</text>
</g>
<!-- 3&#45;&gt;5 -->
<g id="edge5" class="edge">
<title>3&#45;&gt;5</title>
<path fill="none" stroke="black" d="M144,-219.83C144,-212.13 144,-202.97 144,-194.42"/>
<polygon fill="black" stroke="black" points="147.5,-194.41 144,-184.41 140.5,-194.41 147.5,-194.41"/>
</g>
<!-- 6 -->
<g id="node7" class="node">
<title>6</title>
<polygon fill="none" stroke="black" points="82,-109 0,-109 0,-73 82,-73 82,-109"/>
<text text-anchor="middle" x="41" y="-87.3" font-family="Times,serif" font-size="14.00">class = blue</text>
</g>
<!-- 5&#45;&gt;6 -->
<g id="edge6" class="edge">
<title>5&#45;&gt;6</title>
<path fill="none" stroke="black" d="M118.01,-145.83C104.68,-136.52 88.31,-125.07 74.09,-115.13"/>
<polygon fill="black" stroke="black" points="75.77,-112.03 65.56,-109.17 71.76,-117.77 75.77,-112.03"/>
</g>
<!-- 7 -->
<g id="node8" class="node">
<title>7</title>
<polygon fill="none" stroke="black" points="192,-110 100,-110 100,-72 192,-72 192,-110"/>
<text text-anchor="middle" x="146" y="-94.8" font-family="Times,serif" font-size="14.00">lat &lt;= 42.165</text>
<text text-anchor="middle" x="146" y="-79.8" font-family="Times,serif" font-size="14.00">class = blue</text>
</g>
<!-- 5&#45;&gt;7 -->
<g id="edge7" class="edge">
<title>5&#45;&gt;7</title>
<path fill="none" stroke="black" d="M144.5,-145.83C144.72,-138.13 144.97,-128.97 145.21,-120.42"/>
<polygon fill="black" stroke="black" points="148.71,-120.51 145.49,-110.41 141.71,-120.31 148.71,-120.51"/>
</g>
<!-- 8 -->
<g id="node9" class="node">
<title>8</title>
<polygon fill="none" stroke="black" points="135,-36 59,-36 59,0 135,0 135,-36"/>
<text text-anchor="middle" x="97" y="-14.3" font-family="Times,serif" font-size="14.00">class = red</text>
</g>
<!-- 7&#45;&gt;8 -->
<g id="edge8" class="edge">
<title>7&#45;&gt;8</title>
<path fill="none" stroke="black" d="M133.38,-71.72C127.62,-63.37 120.71,-53.35 114.46,-44.3"/>
<polygon fill="black" stroke="black" points="117.3,-42.25 108.73,-36 111.53,-46.22 117.3,-42.25"/>
</g>
<!-- 9 -->
<g id="node10" class="node">
<title>9</title>
<polygon fill="none" stroke="black" points="235,-36 153,-36 153,0 235,0 235,-36"/>
<text text-anchor="middle" x="194" y="-14.3" font-family="Times,serif" font-size="14.00">class = blue</text>
</g>
<!-- 7&#45;&gt;9 -->
<g id="edge9" class="edge">
<title>7&#45;&gt;9</title>
<path fill="none" stroke="black" d="M158.36,-71.72C164,-63.37 170.78,-53.35 176.9,-44.3"/>
<polygon fill="black" stroke="black" points="179.8,-46.25 182.5,-36 174,-42.33 179.8,-46.25"/>
</g>
<!-- 11 -->
<g id="node12" class="node">
<title>11</title>
<polygon fill="none" stroke="black" points="304,-184 212,-184 212,-146 304,-146 304,-184"/>
<text text-anchor="middle" x="258" y="-168.8" font-family="Times,serif" font-size="14.00">lat &lt;= 31.863</text>
<text text-anchor="middle" x="258" y="-153.8" font-family="Times,serif" font-size="14.00">class = red</text>
</g>
<!-- 10&#45;&gt;11 -->
<g id="edge11" class="edge">
<title>10&#45;&gt;11</title>
<path fill="none" stroke="black" d="M258,-219.83C258,-212.13 258,-202.97 258,-194.42"/>
<polygon fill="black" stroke="black" points="261.5,-194.41 258,-184.41 254.5,-194.41 261.5,-194.41"/>
</g>
<!-- 14 -->
<g id="node15" class="node">
<title>14</title>
<polygon fill="none" stroke="black" points="404,-183 322,-183 322,-147 404,-147 404,-183"/>
<text text-anchor="middle" x="363" y="-161.3" font-family="Times,serif" font-size="14.00">class = blue</text>
</g>
<!-- 10&#45;&gt;14 -->
<g id="edge14" class="edge">
<title>10&#45;&gt;14</title>
<path fill="none" stroke="black" d="M284.5,-219.83C298.21,-210.43 315.09,-198.86 329.67,-188.85"/>
<polygon fill="black" stroke="black" points="331.69,-191.71 337.96,-183.17 327.73,-185.94 331.69,-191.71"/>
</g>
<!-- 12 -->
<g id="node13" class="node">
<title>12</title>
<polygon fill="none" stroke="black" points="296,-109 214,-109 214,-73 296,-73 296,-109"/>
<text text-anchor="middle" x="255" y="-87.3" font-family="Times,serif" font-size="14.00">class = blue</text>
</g>
<!-- 11&#45;&gt;12 -->
<g id="edge12" class="edge">
<title>11&#45;&gt;12</title>
<path fill="none" stroke="black" d="M257.24,-145.83C256.91,-137.89 256.52,-128.41 256.15,-119.63"/>
<polygon fill="black" stroke="black" points="259.64,-119.26 255.73,-109.42 252.65,-119.55 259.64,-119.26"/>
</g>
<!-- 13 -->
<g id="node14" class="node">
<title>13</title>
<polygon fill="none" stroke="black" points="390,-109 314,-109 314,-73 390,-73 390,-109"/>
<text text-anchor="middle" x="352" y="-87.3" font-family="Times,serif" font-size="14.00">class = red</text>
</g>
<!-- 11&#45;&gt;13 -->
<g id="edge13" class="edge">
<title>11&#45;&gt;13</title>
<path fill="none" stroke="black" d="M281.72,-145.83C293.77,-136.6 308.54,-125.29 321.43,-115.41"/>
<polygon fill="black" stroke="black" points="323.77,-118.03 329.58,-109.17 319.51,-112.47 323.77,-118.03"/>
</g>
</g>
</svg>
