<?xml version="1.0" encoding="UTF-8" standalone="no"?>
<!DOCTYPE svg PUBLIC "-//W3C//DTD SVG 1.1//EN"
 "http://www.w3.org/Graphics/SVG/1.1/DTD/svg11.dtd">
<!-- Generated by graphviz version 2.44.1 (20200629.0846)
 -->
<!-- Title: Tree Pages: 1 -->
<svg width="1862pt" height="636pt"
 viewBox="0.00 0.00 1862.00 636.00" xmlns="http://www.w3.org/2000/svg" xmlns:xlink="http://www.w3.org/1999/xlink">
<g id="graph0" class="graph" transform="scale(1 1) rotate(0) translate(4 632)">
<title>Tree</title>
<polygon fill="white" stroke="transparent" points="-4,4 -4,-632 1858,-632 1858,4 -4,4"/>
<!-- 0 -->
<g id="node1" class="node">
<title>0</title>
<polygon fill="none" stroke="black" points="585,-628 493,-628 493,-590 585,-590 585,-628"/>
<text text-anchor="middle" x="539" y="-612.8" font-family="Times,serif" font-size="14.00">lat &lt;= 37.682</text>
<text text-anchor="middle" x="539" y="-597.8" font-family="Times,serif" font-size="14.00">class = blue</text>
</g>
<!-- 1 -->
<g id="node2" class="node">
<title>1</title>
<polygon fill="none" stroke="black" points="363.5,-554 256.5,-554 256.5,-516 363.5,-516 363.5,-554"/>
<text text-anchor="middle" x="310" y="-538.8" font-family="Times,serif" font-size="14.00">lon &lt;= &#45;114.063</text>
<text text-anchor="middle" x="310" y="-523.8" font-family="Times,serif" font-size="14.00">class = red</text>
</g>
<!-- 0&#45;&gt;1 -->
<g id="edge1" class="edge">
<title>0&#45;&gt;1</title>
<path fill="none" stroke="black" d="M492.93,-593.52C458.64,-582.74 411.42,-567.89 373.54,-555.98"/>
<polygon fill="black" stroke="black" points="374.22,-552.52 363.63,-552.86 372.12,-559.2 374.22,-552.52"/>
<text text-anchor="middle" x="375.19" y="-571.33" font-family="Times,serif" font-size="14.00">True</text>
</g>
<!-- 24 -->
<g id="node25" class="node">
<title>24</title>
<polygon fill="none" stroke="black" points="887,-554 787,-554 787,-516 887,-516 887,-554"/>
<text text-anchor="middle" x="837" y="-538.8" font-family="Times,serif" font-size="14.00">lon &lt;= &#45;96.061</text>
<text text-anchor="middle" x="837" y="-523.8" font-family="Times,serif" font-size="14.00">class = blue</text>
</g>
<!-- 0&#45;&gt;24 -->
<g id="edge24" class="edge">
<title>0&#45;&gt;24</title>
<path fill="none" stroke="black" d="M585.24,-596.83C636.82,-584.36 720.45,-564.16 777.03,-550.49"/>
<polygon fill="black" stroke="black" points="778.02,-553.85 786.92,-548.1 776.38,-547.05 778.02,-553.85"/>
<text text-anchor="middle" x="773.89" y="-565.73" font-family="Times,serif" font-size="14.00">False</text>
</g>
<!-- 2 -->
<g id="node3" class="node">
<title>2</title>
<polygon fill="none" stroke="black" points="246,-479 164,-479 164,-443 246,-443 246,-479"/>
<text text-anchor="middle" x="205" y="-457.3" font-family="Times,serif" font-size="14.00">class = blue</text>
</g>
<!-- 1&#45;&gt;2 -->
<g id="edge2" class="edge">
<title>1&#45;&gt;2</title>
<path fill="none" stroke="black" d="M283.5,-515.83C269.79,-506.43 252.91,-494.86 238.33,-484.85"/>
<polygon fill="black" stroke="black" points="240.27,-481.94 230.04,-479.17 236.31,-487.71 240.27,-481.94"/>
</g>
<!-- 3 -->
<g id="node4" class="node">
<title>3</title>
<polygon fill="none" stroke="black" points="356,-480 264,-480 264,-442 356,-442 356,-480"/>
<text text-anchor="middle" x="310" y="-464.8" font-family="Times,serif" font-size="14.00">lat &lt;= 29.595</text>
<text text-anchor="middle" x="310" y="-449.8" font-family="Times,serif" font-size="14.00">class = red</text>
</g>
<!-- 1&#45;&gt;3 -->
<g id="edge3" class="edge">
<title>1&#45;&gt;3</title>
<path fill="none" stroke="black" d="M310,-515.83C310,-508.13 310,-498.97 310,-490.42"/>
<polygon fill="black" stroke="black" points="313.5,-490.41 310,-480.41 306.5,-490.41 313.5,-490.41"/>
</g>
<!-- 4 -->
<g id="node5" class="node">
<title>4</title>
<polygon fill="none" stroke="black" points="185,-406 85,-406 85,-368 185,-368 185,-406"/>
<text text-anchor="middle" x="135" y="-390.8" font-family="Times,serif" font-size="14.00">lon &lt;= &#45;90.074</text>
<text text-anchor="middle" x="135" y="-375.8" font-family="Times,serif" font-size="14.00">class = blue</text>
</g>
<!-- 3&#45;&gt;4 -->
<g id="edge4" class="edge">
<title>3&#45;&gt;4</title>
<path fill="none" stroke="black" d="M265.84,-441.83C242.23,-432.12 212.98,-420.08 188.13,-409.86"/>
<polygon fill="black" stroke="black" points="189.42,-406.61 178.84,-406.04 186.76,-413.08 189.42,-406.61"/>
</g>
<!-- 7 -->
<g id="node8" class="node">
<title>7</title>
<polygon fill="none" stroke="black" points="356,-406 264,-406 264,-368 356,-368 356,-406"/>
<text text-anchor="middle" x="310" y="-390.8" font-family="Times,serif" font-size="14.00">lat &lt;= 36.522</text>
<text text-anchor="middle" x="310" y="-375.8" font-family="Times,serif" font-size="14.00">class = red</text>
</g>
<!-- 3&#45;&gt;7 -->
<g id="edge7" class="edge">
<title>3&#45;&gt;7</title>
<path fill="none" stroke="black" d="M310,-441.83C310,-434.13 310,-424.97 310,-416.42"/>
<polygon fill="black" stroke="black" points="313.5,-416.41 310,-406.41 306.5,-416.41 313.5,-416.41"/>
</g>
<!-- 5 -->
<g id="node6" class="node">
<title>5</title>
<polygon fill="none" stroke="black" points="76,-331 0,-331 0,-295 76,-295 76,-331"/>
<text text-anchor="middle" x="38" y="-309.3" font-family="Times,serif" font-size="14.00">class = red</text>
</g>
<!-- 4&#45;&gt;5 -->
<g id="edge5" class="edge">
<title>4&#45;&gt;5</title>
<path fill="none" stroke="black" d="M110.52,-367.83C97.97,-358.52 82.55,-347.07 69.16,-337.13"/>
<polygon fill="black" stroke="black" points="71.25,-334.32 61.13,-331.17 67.08,-339.94 71.25,-334.32"/>
</g>
<!-- 6 -->
<g id="node7" class="node">
<title>6</title>
<polygon fill="none" stroke="black" points="176,-331 94,-331 94,-295 176,-295 176,-331"/>
<text text-anchor="middle" x="135" y="-309.3" font-family="Times,serif" font-size="14.00">class = blue</text>
</g>
<!-- 4&#45;&gt;6 -->
<g id="edge6" class="edge">
<title>4&#45;&gt;6</title>
<path fill="none" stroke="black" d="M135,-367.83C135,-359.89 135,-350.41 135,-341.63"/>
<polygon fill="black" stroke="black" points="138.5,-341.42 135,-331.42 131.5,-341.42 138.5,-341.42"/>
</g>
<!-- 8 -->
<g id="node9" class="node">
<title>8</title>
<polygon fill="none" stroke="black" points="301.5,-332 194.5,-332 194.5,-294 301.5,-294 301.5,-332"/>
<text text-anchor="middle" x="248" y="-316.8" font-family="Times,serif" font-size="14.00">lon &lt;= &#45;102.257</text>
<text text-anchor="middle" x="248" y="-301.8" font-family="Times,serif" font-size="14.00">class = red</text>
</g>
<!-- 7&#45;&gt;8 -->
<g id="edge8" class="edge">
<title>7&#45;&gt;8</title>
<path fill="none" stroke="black" d="M294.35,-367.83C287.14,-359.45 278.44,-349.35 270.54,-340.17"/>
<polygon fill="black" stroke="black" points="273.03,-337.71 263.86,-332.41 267.73,-342.27 273.03,-337.71"/>
</g>
<!-- 15 -->
<g id="node16" class="node">
<title>15</title>
<polygon fill="none" stroke="black" points="420,-332 320,-332 320,-294 420,-294 420,-332"/>
<text text-anchor="middle" x="370" y="-316.8" font-family="Times,serif" font-size="14.00">lon &lt;= &#45;82.415</text>
<text text-anchor="middle" x="370" y="-301.8" font-family="Times,serif" font-size="14.00">class = red</text>
</g>
<!-- 7&#45;&gt;15 -->
<g id="edge15" class="edge">
<title>7&#45;&gt;15</title>
<path fill="none" stroke="black" d="M325.14,-367.83C332.12,-359.45 340.54,-349.35 348.19,-340.17"/>
<polygon fill="black" stroke="black" points="350.94,-342.34 354.66,-332.41 345.56,-337.85 350.94,-342.34"/>
</g>
<!-- 9 -->
<g id="node10" class="node">
<title>9</title>
<polygon fill="none" stroke="black" points="191.5,-258 84.5,-258 84.5,-220 191.5,-220 191.5,-258"/>
<text text-anchor="middle" x="138" y="-242.8" font-family="Times,serif" font-size="14.00">lon &lt;= &#45;107.589</text>
<text text-anchor="middle" x="138" y="-227.8" font-family="Times,serif" font-size="14.00">class = red</text>
</g>
<!-- 8&#45;&gt;9 -->
<g id="edge9" class="edge">
<title>8&#45;&gt;9</title>
<path fill="none" stroke="black" d="M220.24,-293.83C206.3,-284.71 189.24,-273.54 174.28,-263.74"/>
<polygon fill="black" stroke="black" points="176.03,-260.71 165.75,-258.16 172.2,-266.57 176.03,-260.71"/>
</g>
<!-- 14 -->
<g id="node15" class="node">
<title>14</title>
<polygon fill="none" stroke="black" points="286,-257 210,-257 210,-221 286,-221 286,-257"/>
<text text-anchor="middle" x="248" y="-235.3" font-family="Times,serif" font-size="14.00">class = red</text>
</g>
<!-- 8&#45;&gt;14 -->
<g id="edge14" class="edge">
<title>8&#45;&gt;14</title>
<path fill="none" stroke="black" d="M248,-293.83C248,-285.89 248,-276.41 248,-267.63"/>
<polygon fill="black" stroke="black" points="251.5,-267.42 248,-257.42 244.5,-267.42 251.5,-267.42"/>
</g>
<!-- 10 -->
<g id="node11" class="node">
<title>10</title>
<polygon fill="none" stroke="black" points="80,-183 4,-183 4,-147 80,-147 80,-183"/>
<text text-anchor="middle" x="42" y="-161.3" font-family="Times,serif" font-size="14.00">class = red</text>
</g>
<!-- 9&#45;&gt;10 -->
<g id="edge10" class="edge">
<title>9&#45;&gt;10</title>
<path fill="none" stroke="black" d="M113.78,-219.83C101.47,-210.6 86.38,-199.29 73.22,-189.41"/>
<polygon fill="black" stroke="black" points="75,-186.37 64.9,-183.17 70.8,-191.97 75,-186.37"/>
</g>
<!-- 11 -->
<g id="node12" class="node">
<title>11</title>
<polygon fill="none" stroke="black" points="190,-184 98,-184 98,-146 190,-146 190,-184"/>
<text text-anchor="middle" x="144" y="-168.8" font-family="Times,serif" font-size="14.00">lat &lt;= 31.788</text>
<text text-anchor="middle" x="144" y="-153.8" font-family="Times,serif" font-size="14.00">class = blue</text>
</g>
<!-- 9&#45;&gt;11 -->
<g id="edge11" class="edge">
<title>9&#45;&gt;11</title>
<path fill="none" stroke="black" d="M139.51,-219.83C140.16,-212.13 140.92,-202.97 141.63,-194.42"/>
<polygon fill="black" stroke="black" points="145.12,-194.67 142.47,-184.41 138.15,-194.09 145.12,-194.67"/>
</g>
<!-- 12 -->
<g id="node13" class="node">
<title>12</title>
<polygon fill="none" stroke="black" points="134,-109 58,-109 58,-73 134,-73 134,-109"/>
<text text-anchor="middle" x="96" y="-87.3" font-family="Times,serif" font-size="14.00">class = red</text>
</g>
<!-- 11&#45;&gt;12 -->
<g id="edge12" class="edge">
<title>11&#45;&gt;12</title>
<path fill="none" stroke="black" d="M131.89,-145.83C126.25,-137.37 119.43,-127.15 113.27,-117.9"/>
<polygon fill="black" stroke="black" points="116.07,-115.8 107.61,-109.42 110.25,-119.68 116.07,-115.8"/>
</g>
<!-- 13 -->
<g id="node14" class="node">
<title>13</title>
<polygon fill="none" stroke="black" points="234,-109 152,-109 152,-73 234,-73 234,-109"/>
<text text-anchor="middle" x="193" y="-87.3" font-family="Times,serif" font-size="14.00">class = blue</text>
</g>
<!-- 11&#45;&gt;13 -->
<g id="edge13" class="edge">
<title>11&#45;&gt;13</title>
<path fill="none" stroke="black" d="M156.36,-145.83C162.12,-137.37 169.08,-127.15 175.37,-117.9"/>
<polygon fill="black" stroke="black" points="178.41,-119.65 181.15,-109.42 172.63,-115.72 178.41,-119.65"/>
</g>
<!-- 16 -->
<g id="node17" class="node">
<title>16</title>
<polygon fill="none" stroke="black" points="396,-258 304,-258 304,-220 396,-220 396,-258"/>
<text text-anchor="middle" x="350" y="-242.8" font-family="Times,serif" font-size="14.00">lat &lt;= 36.633</text>
<text text-anchor="middle" x="350" y="-227.8" font-family="Times,serif" font-size="14.00">class = red</text>
</g>
<!-- 15&#45;&gt;16 -->
<g id="edge16" class="edge">
<title>15&#45;&gt;16</title>
<path fill="none" stroke="black" d="M364.95,-293.83C362.79,-286.05 360.21,-276.77 357.82,-268.13"/>
<polygon fill="black" stroke="black" points="361.16,-267.11 355.11,-258.41 354.42,-268.99 361.16,-267.11"/>
</g>
<!-- 19 -->
<g id="node20" class="node">
<title>19</title>
<polygon fill="none" stroke="black" points="514,-258 414,-258 414,-220 514,-220 514,-258"/>
<text text-anchor="middle" x="464" y="-242.8" font-family="Times,serif" font-size="14.00">lon &lt;= &#45;80.706</text>
<text text-anchor="middle" x="464" y="-227.8" font-family="Times,serif" font-size="14.00">class = blue</text>
</g>
<!-- 15&#45;&gt;19 -->
<g id="edge19" class="edge">
<title>15&#45;&gt;19</title>
<path fill="none" stroke="black" d="M393.72,-293.83C405.41,-284.88 419.67,-273.96 432.28,-264.3"/>
<polygon fill="black" stroke="black" points="434.48,-267.02 440.29,-258.16 430.22,-261.47 434.48,-267.02"/>
</g>
<!-- 17 -->
<g id="node18" class="node">
<title>17</title>
<polygon fill="none" stroke="black" points="295,-183 213,-183 213,-147 295,-147 295,-183"/>
<text text-anchor="middle" x="254" y="-161.3" font-family="Times,serif" font-size="14.00">class = blue</text>
</g>
<!-- 16&#45;&gt;17 -->
<g id="edge17" class="edge">
<title>16&#45;&gt;17</title>
<path fill="none" stroke="black" d="M325.78,-219.83C313.47,-210.6 298.38,-199.29 285.22,-189.41"/>
<polygon fill="black" stroke="black" points="287,-186.37 276.9,-183.17 282.8,-191.97 287,-186.37"/>
</g>
<!-- 18 -->
<g id="node19" class="node">
<title>18</title>
<polygon fill="none" stroke="black" points="389,-183 313,-183 313,-147 389,-147 389,-183"/>
<text text-anchor="middle" x="351" y="-161.3" font-family="Times,serif" font-size="14.00">class = red</text>
</g>
<!-- 16&#45;&gt;18 -->
<g id="edge18" class="edge">
<title>16&#45;&gt;18</title>
<path fill="none" stroke="black" d="M350.25,-219.83C350.36,-211.89 350.49,-202.41 350.62,-193.63"/>
<polygon fill="black" stroke="black" points="354.12,-193.47 350.76,-183.42 347.12,-193.37 354.12,-193.47"/>
</g>
<!-- 20 -->
<g id="node21" class="node">
<title>20</title>
<polygon fill="none" stroke="black" points="511,-184 411,-184 411,-146 511,-146 511,-184"/>
<text text-anchor="middle" x="461" y="-168.8" font-family="Times,serif" font-size="14.00">lon &lt;= &#45;81.939</text>
<text text-anchor="middle" x="461" y="-153.8" font-family="Times,serif" font-size="14.00">class = blue</text>
</g>
<!-- 19&#45;&gt;20 -->
<g id="edge20" class="edge">
<title>19&#45;&gt;20</title>
<path fill="none" stroke="black" d="M463.24,-219.83C462.92,-212.13 462.54,-202.97 462.18,-194.42"/>
<polygon fill="black" stroke="black" points="465.68,-194.26 461.77,-184.41 458.69,-194.55 465.68,-194.26"/>
</g>
<!-- 23 -->
<g id="node24" class="node">
<title>23</title>
<polygon fill="none" stroke="black" points="611,-183 529,-183 529,-147 611,-147 611,-183"/>
<text text-anchor="middle" x="570" y="-161.3" font-family="Times,serif" font-size="14.00">class = blue</text>
</g>
<!-- 19&#45;&gt;23 -->
<g id="edge23" class="edge">
<title>19&#45;&gt;23</title>
<path fill="none" stroke="black" d="M490.75,-219.83C504.59,-210.43 521.63,-198.86 536.36,-188.85"/>
<polygon fill="black" stroke="black" points="538.41,-191.69 544.72,-183.17 534.48,-185.9 538.41,-191.69"/>
</g>
<!-- 21 -->
<g id="node22" class="node">
<title>21</title>
<polygon fill="none" stroke="black" points="454,-109 372,-109 372,-73 454,-73 454,-109"/>
<text text-anchor="middle" x="413" y="-87.3" font-family="Times,serif" font-size="14.00">class = blue</text>
</g>
<!-- 20&#45;&gt;21 -->
<g id="edge21" class="edge">
<title>20&#45;&gt;21</title>
<path fill="none" stroke="black" d="M448.89,-145.83C443.25,-137.37 436.43,-127.15 430.27,-117.9"/>
<polygon fill="black" stroke="black" points="433.07,-115.8 424.61,-109.42 427.25,-119.68 433.07,-115.8"/>
</g>
<!-- 22 -->
<g id="node23" class="node">
<title>22</title>
<polygon fill="none" stroke="black" points="548,-109 472,-109 472,-73 548,-73 548,-109"/>
<text text-anchor="middle" x="510" y="-87.3" font-family="Times,serif" font-size="14.00">class = red</text>
</g>
<!-- 20&#45;&gt;22 -->
<g id="edge22" class="edge">
<title>20&#45;&gt;22</title>
<path fill="none" stroke="black" d="M473.36,-145.83C479.12,-137.37 486.08,-127.15 492.37,-117.9"/>
<polygon fill="black" stroke="black" points="495.41,-119.65 498.15,-109.42 489.63,-115.72 495.41,-119.65"/>
</g>
<!-- 25 -->
<g id="node26" class="node">
<title>25</title>
<polygon fill="none" stroke="black" points="890.5,-480 783.5,-480 783.5,-442 890.5,-442 890.5,-480"/>
<text text-anchor="middle" x="837" y="-464.8" font-family="Times,serif" font-size="14.00">lon &lt;= &#45;104.089</text>
<text text-anchor="middle" x="837" y="-449.8" font-family="Times,serif" font-size="14.00">class = red</text>
</g>
<!-- 24&#45;&gt;25 -->
<g id="edge25" class="edge">
<title>24&#45;&gt;25</title>
<path fill="none" stroke="black" d="M837,-515.83C837,-508.13 837,-498.97 837,-490.42"/>
<polygon fill="black" stroke="black" points="840.5,-490.41 837,-480.41 833.5,-490.41 840.5,-490.41"/>
</g>
<!-- 42 -->
<g id="node43" class="node">
<title>42</title>
<polygon fill="none" stroke="black" points="1452,-480 1360,-480 1360,-442 1452,-442 1452,-480"/>
<text text-anchor="middle" x="1406" y="-464.8" font-family="Times,serif" font-size="14.00">lat &lt;= 39.759</text>
<text text-anchor="middle" x="1406" y="-449.8" font-family="Times,serif" font-size="14.00">class = blue</text>
</g>
<!-- 24&#45;&gt;42 -->
<g id="edge42" class="edge">
<title>24&#45;&gt;42</title>
<path fill="none" stroke="black" d="M887.49,-527.61C993.52,-514.19 1238.68,-483.17 1349.63,-469.13"/>
<polygon fill="black" stroke="black" points="1350.14,-472.6 1359.62,-467.87 1349.26,-465.65 1350.14,-472.6"/>
</g>
<!-- 26 -->
<g id="node27" class="node">
<title>26</title>
<polygon fill="none" stroke="black" points="826,-406 734,-406 734,-368 826,-368 826,-406"/>
<text text-anchor="middle" x="780" y="-390.8" font-family="Times,serif" font-size="14.00">lat &lt;= 41.895</text>
<text text-anchor="middle" x="780" y="-375.8" font-family="Times,serif" font-size="14.00">class = blue</text>
</g>
<!-- 25&#45;&gt;26 -->
<g id="edge26" class="edge">
<title>25&#45;&gt;26</title>
<path fill="none" stroke="black" d="M822.62,-441.83C816.05,-433.54 808.15,-423.56 800.94,-414.45"/>
<polygon fill="black" stroke="black" points="803.53,-412.08 794.58,-406.41 798.04,-416.43 803.53,-412.08"/>
</g>
<!-- 37 -->
<g id="node38" class="node">
<title>37</title>
<polygon fill="none" stroke="black" points="944,-406 844,-406 844,-368 944,-368 944,-406"/>
<text text-anchor="middle" x="894" y="-390.8" font-family="Times,serif" font-size="14.00">lon &lt;= &#45;96.557</text>
<text text-anchor="middle" x="894" y="-375.8" font-family="Times,serif" font-size="14.00">class = red</text>
</g>
<!-- 25&#45;&gt;37 -->
<g id="edge37" class="edge">
<title>25&#45;&gt;37</title>
<path fill="none" stroke="black" d="M851.38,-441.83C857.95,-433.54 865.85,-423.56 873.06,-414.45"/>
<polygon fill="black" stroke="black" points="875.96,-416.43 879.42,-406.41 870.47,-412.08 875.96,-416.43"/>
</g>
<!-- 27 -->
<g id="node28" class="node">
<title>27</title>
<polygon fill="none" stroke="black" points="726.5,-332 619.5,-332 619.5,-294 726.5,-294 726.5,-332"/>
<text text-anchor="middle" x="673" y="-316.8" font-family="Times,serif" font-size="14.00">lon &lt;= &#45;113.872</text>
<text text-anchor="middle" x="673" y="-301.8" font-family="Times,serif" font-size="14.00">class = blue</text>
</g>
<!-- 26&#45;&gt;27 -->
<g id="edge27" class="edge">
<title>26&#45;&gt;27</title>
<path fill="none" stroke="black" d="M753,-367.83C739.57,-358.79 723.15,-347.75 708.7,-338.02"/>
<polygon fill="black" stroke="black" points="710.24,-334.84 699.99,-332.16 706.33,-340.65 710.24,-334.84"/>
</g>
<!-- 32 -->
<g id="node33" class="node">
<title>32</title>
<polygon fill="none" stroke="black" points="829.5,-332 744.5,-332 744.5,-294 829.5,-294 829.5,-332"/>
<text text-anchor="middle" x="787" y="-316.8" font-family="Times,serif" font-size="14.00">lat &lt;= 45.33</text>
<text text-anchor="middle" x="787" y="-301.8" font-family="Times,serif" font-size="14.00">class = red</text>
</g>
<!-- 26&#45;&gt;32 -->
<g id="edge32" class="edge">
<title>26&#45;&gt;32</title>
<path fill="none" stroke="black" d="M781.77,-367.83C782.52,-360.13 783.41,-350.97 784.24,-342.42"/>
<polygon fill="black" stroke="black" points="787.73,-342.71 785.21,-332.41 780.76,-342.03 787.73,-342.71"/>
</g>
<!-- 28 -->
<g id="node29" class="node">
<title>28</title>
<polygon fill="none" stroke="black" points="614,-257 532,-257 532,-221 614,-221 614,-257"/>
<text text-anchor="middle" x="573" y="-235.3" font-family="Times,serif" font-size="14.00">class = blue</text>
</g>
<!-- 27&#45;&gt;28 -->
<g id="edge28" class="edge">
<title>27&#45;&gt;28</title>
<path fill="none" stroke="black" d="M647.77,-293.83C634.83,-284.52 618.93,-273.07 605.13,-263.13"/>
<polygon fill="black" stroke="black" points="607.01,-260.17 596.85,-257.17 602.92,-265.85 607.01,-260.17"/>
</g>
<!-- 29 -->
<g id="node30" class="node">
<title>29</title>
<polygon fill="none" stroke="black" points="724,-258 632,-258 632,-220 724,-220 724,-258"/>
<text text-anchor="middle" x="678" y="-242.8" font-family="Times,serif" font-size="14.00">lat &lt;= 38.917</text>
<text text-anchor="middle" x="678" y="-227.8" font-family="Times,serif" font-size="14.00">class = blue</text>
</g>
<!-- 27&#45;&gt;29 -->
<g id="edge29" class="edge">
<title>27&#45;&gt;29</title>
<path fill="none" stroke="black" d="M674.26,-293.83C674.8,-286.13 675.43,-276.97 676.03,-268.42"/>
<polygon fill="black" stroke="black" points="679.52,-268.63 676.72,-258.41 672.54,-268.15 679.52,-268.63"/>
</g>
<!-- 30 -->
<g id="node31" class="node">
<title>30</title>
<polygon fill="none" stroke="black" points="711,-183 635,-183 635,-147 711,-147 711,-183"/>
<text text-anchor="middle" x="673" y="-161.3" font-family="Times,serif" font-size="14.00">class = red</text>
</g>
<!-- 29&#45;&gt;30 -->
<g id="edge30" class="edge">
<title>29&#45;&gt;30</title>
<path fill="none" stroke="black" d="M676.74,-219.83C676.19,-211.89 675.53,-202.41 674.92,-193.63"/>
<polygon fill="black" stroke="black" points="678.39,-193.15 674.21,-183.42 671.41,-193.64 678.39,-193.15"/>
</g>
<!-- 31 -->
<g id="node32" class="node">
<title>31</title>
<polygon fill="none" stroke="black" points="811,-183 729,-183 729,-147 811,-147 811,-183"/>
<text text-anchor="middle" x="770" y="-161.3" font-family="Times,serif" font-size="14.00">class = blue</text>
</g>
<!-- 29&#45;&gt;31 -->
<g id="edge31" class="edge">
<title>29&#45;&gt;31</title>
<path fill="none" stroke="black" d="M701.22,-219.83C713.01,-210.6 727.47,-199.29 740.08,-189.41"/>
<polygon fill="black" stroke="black" points="742.34,-192.09 748.06,-183.17 738.03,-186.58 742.34,-192.09"/>
</g>
<!-- 33 -->
<g id="node34" class="node">
<title>33</title>
<polygon fill="none" stroke="black" points="818,-257 742,-257 742,-221 818,-221 818,-257"/>
<text text-anchor="middle" x="780" y="-235.3" font-family="Times,serif" font-size="14.00">class = red</text>
</g>
<!-- 32&#45;&gt;33 -->
<g id="edge33" class="edge">
<title>32&#45;&gt;33</title>
<path fill="none" stroke="black" d="M785.23,-293.83C784.46,-285.89 783.54,-276.41 782.69,-267.63"/>
<polygon fill="black" stroke="black" points="786.14,-267.03 781.69,-257.42 779.18,-267.71 786.14,-267.03"/>
</g>
<!-- 34 -->
<g id="node35" class="node">
<title>34</title>
<polygon fill="none" stroke="black" points="928,-258 836,-258 836,-220 928,-220 928,-258"/>
<text text-anchor="middle" x="882" y="-242.8" font-family="Times,serif" font-size="14.00">lat &lt;= 50.907</text>
<text text-anchor="middle" x="882" y="-227.8" font-family="Times,serif" font-size="14.00">class = blue</text>
</g>
<!-- 32&#45;&gt;34 -->
<g id="edge34" class="edge">
<title>32&#45;&gt;34</title>
<path fill="none" stroke="black" d="M810.97,-293.83C822.79,-284.88 837.2,-273.96 849.94,-264.3"/>
<polygon fill="black" stroke="black" points="852.18,-266.99 858.04,-258.16 847.95,-261.41 852.18,-266.99"/>
</g>
<!-- 35 -->
<g id="node36" class="node">
<title>35</title>
<polygon fill="none" stroke="black" points="914,-183 832,-183 832,-147 914,-147 914,-183"/>
<text text-anchor="middle" x="873" y="-161.3" font-family="Times,serif" font-size="14.00">class = blue</text>
</g>
<!-- 34&#45;&gt;35 -->
<g id="edge35" class="edge">
<title>34&#45;&gt;35</title>
<path fill="none" stroke="black" d="M879.73,-219.83C878.74,-211.89 877.55,-202.41 876.45,-193.63"/>
<polygon fill="black" stroke="black" points="879.89,-192.91 875.18,-183.42 872.94,-193.77 879.89,-192.91"/>
</g>
<!-- 36 -->
<g id="node37" class="node">
<title>36</title>
<polygon fill="none" stroke="black" points="1008,-183 932,-183 932,-147 1008,-147 1008,-183"/>
<text text-anchor="middle" x="970" y="-161.3" font-family="Times,serif" font-size="14.00">class = red</text>
</g>
<!-- 34&#45;&gt;36 -->
<g id="edge36" class="edge">
<title>34&#45;&gt;36</title>
<path fill="none" stroke="black" d="M904.21,-219.83C915.38,-210.69 929.05,-199.5 941.04,-189.7"/>
<polygon fill="black" stroke="black" points="943.49,-192.21 949.01,-183.17 939.06,-186.8 943.49,-192.21"/>
</g>
<!-- 38 -->
<g id="node39" class="node">
<title>38</title>
<polygon fill="none" stroke="black" points="925,-331 849,-331 849,-295 925,-295 925,-331"/>
<text text-anchor="middle" x="887" y="-309.3" font-family="Times,serif" font-size="14.00">class = red</text>
</g>
<!-- 37&#45;&gt;38 -->
<g id="edge38" class="edge">
<title>37&#45;&gt;38</title>
<path fill="none" stroke="black" d="M892.23,-367.83C891.46,-359.89 890.54,-350.41 889.69,-341.63"/>
<polygon fill="black" stroke="black" points="893.14,-341.03 888.69,-331.42 886.18,-341.71 893.14,-341.03"/>
</g>
<!-- 39 -->
<g id="node40" class="node">
<title>39</title>
<polygon fill="none" stroke="black" points="1035,-332 943,-332 943,-294 1035,-294 1035,-332"/>
<text text-anchor="middle" x="989" y="-316.8" font-family="Times,serif" font-size="14.00">lat &lt;= 42.007</text>
<text text-anchor="middle" x="989" y="-301.8" font-family="Times,serif" font-size="14.00">class = blue</text>
</g>
<!-- 37&#45;&gt;39 -->
<g id="edge39" class="edge">
<title>37&#45;&gt;39</title>
<path fill="none" stroke="black" d="M917.97,-367.83C929.79,-358.88 944.2,-347.96 956.94,-338.3"/>
<polygon fill="black" stroke="black" points="959.18,-340.99 965.04,-332.16 954.95,-335.41 959.18,-340.99"/>
</g>
<!-- 40 -->
<g id="node41" class="node">
<title>40</title>
<polygon fill="none" stroke="black" points="1022,-257 946,-257 946,-221 1022,-221 1022,-257"/>
<text text-anchor="middle" x="984" y="-235.3" font-family="Times,serif" font-size="14.00">class = red</text>
</g>
<!-- 39&#45;&gt;40 -->
<g id="edge40" class="edge">
<title>39&#45;&gt;40</title>
<path fill="none" stroke="black" d="M987.74,-293.83C987.19,-285.89 986.53,-276.41 985.92,-267.63"/>
<polygon fill="black" stroke="black" points="989.39,-267.15 985.21,-257.42 982.41,-267.64 989.39,-267.15"/>
</g>
<!-- 41 -->
<g id="node42" class="node">
<title>41</title>
<polygon fill="none" stroke="black" points="1122,-257 1040,-257 1040,-221 1122,-221 1122,-257"/>
<text text-anchor="middle" x="1081" y="-235.3" font-family="Times,serif" font-size="14.00">class = blue</text>
</g>
<!-- 39&#45;&gt;41 -->
<g id="edge41" class="edge">
<title>39&#45;&gt;41</title>
<path fill="none" stroke="black" d="M1012.22,-293.83C1024.01,-284.6 1038.47,-273.29 1051.08,-263.41"/>
<polygon fill="black" stroke="black" points="1053.34,-266.09 1059.06,-257.17 1049.03,-260.58 1053.34,-266.09"/>
</g>
<!-- 43 -->
<g id="node44" class="node">
<title>43</title>
<polygon fill="none" stroke="black" points="1456,-406 1356,-406 1356,-368 1456,-368 1456,-406"/>
<text text-anchor="middle" x="1406" y="-390.8" font-family="Times,serif" font-size="14.00">lon &lt;= &#45;79.773</text>
<text text-anchor="middle" x="1406" y="-375.8" font-family="Times,serif" font-size="14.00">class = blue</text>
</g>
<!-- 42&#45;&gt;43 -->
<g id="edge43" class="edge">
<title>42&#45;&gt;43</title>
<path fill="none" stroke="black" d="M1406,-441.83C1406,-434.13 1406,-424.97 1406,-416.42"/>
<polygon fill="black" stroke="black" points="1409.5,-416.41 1406,-406.41 1402.5,-416.41 1409.5,-416.41"/>
</g>
<!-- 62 -->
<g id="node63" class="node">
<title>62</title>
<polygon fill="none" stroke="black" points="1754,-406 1654,-406 1654,-368 1754,-368 1754,-406"/>
<text text-anchor="middle" x="1704" y="-390.8" font-family="Times,serif" font-size="14.00">lon &lt;= &#45;84.905</text>
<text text-anchor="middle" x="1704" y="-375.8" font-family="Times,serif" font-size="14.00">class = blue</text>
</g>
<!-- 42&#45;&gt;62 -->
<g id="edge62" class="edge">
<title>42&#45;&gt;62</title>
<path fill="none" stroke="black" d="M1452.24,-448.83C1503.82,-436.36 1587.45,-416.16 1644.03,-402.49"/>
<polygon fill="black" stroke="black" points="1645.02,-405.85 1653.92,-400.1 1643.38,-399.05 1645.02,-405.85"/>
</g>
<!-- 44 -->
<g id="node45" class="node">
<title>44</title>
<polygon fill="none" stroke="black" points="1380,-332 1280,-332 1280,-294 1380,-294 1380,-332"/>
<text text-anchor="middle" x="1330" y="-316.8" font-family="Times,serif" font-size="14.00">lon &lt;= &#45;87.643</text>
<text text-anchor="middle" x="1330" y="-301.8" font-family="Times,serif" font-size="14.00">class = red</text>
</g>
<!-- 43&#45;&gt;44 -->
<g id="edge44" class="edge">
<title>43&#45;&gt;44</title>
<path fill="none" stroke="black" d="M1386.82,-367.83C1377.64,-359.13 1366.5,-348.58 1356.52,-339.13"/>
<polygon fill="black" stroke="black" points="1358.84,-336.5 1349.17,-332.16 1354.02,-341.58 1358.84,-336.5"/>
</g>
<!-- 57 -->
<g id="node58" class="node">
<title>57</title>
<polygon fill="none" stroke="black" points="1536,-332 1436,-332 1436,-294 1536,-294 1536,-332"/>
<text text-anchor="middle" x="1486" y="-316.8" font-family="Times,serif" font-size="14.00">lon &lt;= &#45;78.395</text>
<text text-anchor="middle" x="1486" y="-301.8" font-family="Times,serif" font-size="14.00">class = blue</text>
</g>
<!-- 43&#45;&gt;57 -->
<g id="edge57" class="edge">
<title>43&#45;&gt;57</title>
<path fill="none" stroke="black" d="M1426.19,-367.83C1435.85,-359.13 1447.58,-348.58 1458.08,-339.13"/>
<polygon fill="black" stroke="black" points="1460.73,-341.45 1465.82,-332.16 1456.04,-336.25 1460.73,-341.45"/>
</g>
<!-- 45 -->
<g id="node46" class="node">
<title>45</title>
<polygon fill="none" stroke="black" points="1233.5,-258 1140.5,-258 1140.5,-220 1233.5,-220 1233.5,-258"/>
<text text-anchor="middle" x="1187" y="-242.8" font-family="Times,serif" font-size="14.00">lon &lt;= &#45;90.12</text>
<text text-anchor="middle" x="1187" y="-227.8" font-family="Times,serif" font-size="14.00">class = blue</text>
</g>
<!-- 44&#45;&gt;45 -->
<g id="edge45" class="edge">
<title>44&#45;&gt;45</title>
<path fill="none" stroke="black" d="M1293.92,-293.83C1275.2,-284.41 1252.16,-272.81 1232.26,-262.79"/>
<polygon fill="black" stroke="black" points="1233.58,-259.53 1223.07,-258.16 1230.43,-265.79 1233.58,-259.53"/>
</g>
<!-- 52 -->
<g id="node53" class="node">
<title>52</title>
<polygon fill="none" stroke="black" points="1376,-258 1284,-258 1284,-220 1376,-220 1376,-258"/>
<text text-anchor="middle" x="1330" y="-242.8" font-family="Times,serif" font-size="14.00">lat &lt;= 38.562</text>
<text text-anchor="middle" x="1330" y="-227.8" font-family="Times,serif" font-size="14.00">class = red</text>
</g>
<!-- 44&#45;&gt;52 -->
<g id="edge52" class="edge">
<title>44&#45;&gt;52</title>
<path fill="none" stroke="black" d="M1330,-293.83C1330,-286.13 1330,-276.97 1330,-268.42"/>
<polygon fill="black" stroke="black" points="1333.5,-268.41 1330,-258.41 1326.5,-268.41 1333.5,-268.41"/>
</g>
<!-- 46 -->
<g id="node47" class="node">
<title>46</title>
<polygon fill="none" stroke="black" points="1127,-184 1027,-184 1027,-146 1127,-146 1127,-184"/>
<text text-anchor="middle" x="1077" y="-168.8" font-family="Times,serif" font-size="14.00">lon &lt;= &#45;90.841</text>
<text text-anchor="middle" x="1077" y="-153.8" font-family="Times,serif" font-size="14.00">class = red</text>
</g>
<!-- 45&#45;&gt;46 -->
<g id="edge46" class="edge">
<title>45&#45;&gt;46</title>
<path fill="none" stroke="black" d="M1159.24,-219.83C1145.3,-210.71 1128.24,-199.54 1113.28,-189.74"/>
<polygon fill="black" stroke="black" points="1115.03,-186.71 1104.75,-184.16 1111.2,-192.57 1115.03,-186.71"/>
</g>
<!-- 51 -->
<g id="node52" class="node">
<title>51</title>
<polygon fill="none" stroke="black" points="1227,-183 1145,-183 1145,-147 1227,-147 1227,-183"/>
<text text-anchor="middle" x="1186" y="-161.3" font-family="Times,serif" font-size="14.00">class = blue</text>
</g>
<!-- 45&#45;&gt;51 -->
<g id="edge51" class="edge">
<title>45&#45;&gt;51</title>
<path fill="none" stroke="black" d="M1186.75,-219.83C1186.64,-211.89 1186.51,-202.41 1186.38,-193.63"/>
<polygon fill="black" stroke="black" points="1189.88,-193.37 1186.24,-183.42 1182.88,-193.47 1189.88,-193.37"/>
</g>
<!-- 47 -->
<g id="node48" class="node">
<title>47</title>
<polygon fill="none" stroke="black" points="1066,-109 990,-109 990,-73 1066,-73 1066,-109"/>
<text text-anchor="middle" x="1028" y="-87.3" font-family="Times,serif" font-size="14.00">class = red</text>
</g>
<!-- 46&#45;&gt;47 -->
<g id="edge47" class="edge">
<title>46&#45;&gt;47</title>
<path fill="none" stroke="black" d="M1064.64,-145.83C1058.88,-137.37 1051.92,-127.15 1045.63,-117.9"/>
<polygon fill="black" stroke="black" points="1048.37,-115.72 1039.85,-109.42 1042.59,-119.65 1048.37,-115.72"/>
</g>
<!-- 48 -->
<g id="node49" class="node">
<title>48</title>
<polygon fill="none" stroke="black" points="1169.5,-110 1084.5,-110 1084.5,-72 1169.5,-72 1169.5,-110"/>
<text text-anchor="middle" x="1127" y="-94.8" font-family="Times,serif" font-size="14.00">lat &lt;= 38.85</text>
<text text-anchor="middle" x="1127" y="-79.8" font-family="Times,serif" font-size="14.00">class = blue</text>
</g>
<!-- 46&#45;&gt;48 -->
<g id="edge48" class="edge">
<title>46&#45;&gt;48</title>
<path fill="none" stroke="black" d="M1089.62,-145.83C1095.32,-137.62 1102.17,-127.76 1108.44,-118.73"/>
<polygon fill="black" stroke="black" points="1111.38,-120.62 1114.21,-110.41 1105.63,-116.63 1111.38,-120.62"/>
</g>
<!-- 49 -->
<g id="node50" class="node">
<title>49</title>
<polygon fill="none" stroke="black" points="1117,-36 1041,-36 1041,0 1117,0 1117,-36"/>
<text text-anchor="middle" x="1079" y="-14.3" font-family="Times,serif" font-size="14.00">class = red</text>
</g>
<!-- 48&#45;&gt;49 -->
<g id="edge49" class="edge">
<title>48&#45;&gt;49</title>
<path fill="none" stroke="black" d="M1114.64,-71.72C1109,-63.37 1102.22,-53.35 1096.1,-44.3"/>
<polygon fill="black" stroke="black" points="1099,-42.33 1090.5,-36 1093.2,-46.25 1099,-42.33"/>
</g>
<!-- 50 -->
<g id="node51" class="node">
<title>50</title>
<polygon fill="none" stroke="black" points="1217,-36 1135,-36 1135,0 1217,0 1217,-36"/>
<text text-anchor="middle" x="1176" y="-14.3" font-family="Times,serif" font-size="14.00">class = blue</text>
</g>
<!-- 48&#45;&gt;50 -->
<g id="edge50" class="edge">
<title>48&#45;&gt;50</title>
<path fill="none" stroke="black" d="M1139.62,-71.72C1145.38,-63.37 1152.29,-53.35 1158.54,-44.3"/>
<polygon fill="black" stroke="black" points="1161.47,-46.22 1164.27,-36 1155.7,-42.25 1161.47,-46.22"/>
</g>
<!-- 53 -->
<g id="node54" class="node">
<title>53</title>
<polygon fill="none" stroke="black" points="1337,-184 1245,-184 1245,-146 1337,-146 1337,-184"/>
<text text-anchor="middle" x="1291" y="-168.8" font-family="Times,serif" font-size="14.00">lat &lt;= 38.324</text>
<text text-anchor="middle" x="1291" y="-153.8" font-family="Times,serif" font-size="14.00">class = red</text>
</g>
<!-- 52&#45;&gt;53 -->
<g id="edge53" class="edge">
<title>52&#45;&gt;53</title>
<path fill="none" stroke="black" d="M1320.16,-219.83C1315.8,-211.79 1310.59,-202.17 1305.78,-193.29"/>
<polygon fill="black" stroke="black" points="1308.81,-191.54 1300.97,-184.41 1302.66,-194.87 1308.81,-191.54"/>
</g>
<!-- 56 -->
<g id="node57" class="node">
<title>56</title>
<polygon fill="none" stroke="black" points="1431,-183 1355,-183 1355,-147 1431,-147 1431,-183"/>
<text text-anchor="middle" x="1393" y="-161.3" font-family="Times,serif" font-size="14.00">class = red</text>
</g>
<!-- 52&#45;&gt;56 -->
<g id="edge56" class="edge">
<title>52&#45;&gt;56</title>
<path fill="none" stroke="black" d="M1345.9,-219.83C1353.53,-211.11 1362.8,-200.52 1371.08,-191.05"/>
<polygon fill="black" stroke="black" points="1373.81,-193.25 1377.76,-183.42 1368.54,-188.64 1373.81,-193.25"/>
</g>
<!-- 54 -->
<g id="node55" class="node">
<title>54</title>
<polygon fill="none" stroke="black" points="1321,-109 1245,-109 1245,-73 1321,-73 1321,-109"/>
<text text-anchor="middle" x="1283" y="-87.3" font-family="Times,serif" font-size="14.00">class = red</text>
</g>
<!-- 53&#45;&gt;54 -->
<g id="edge54" class="edge">
<title>53&#45;&gt;54</title>
<path fill="none" stroke="black" d="M1288.98,-145.83C1288.1,-137.89 1287.05,-128.41 1286.07,-119.63"/>
<polygon fill="black" stroke="black" points="1289.52,-118.97 1284.94,-109.42 1282.56,-119.74 1289.52,-118.97"/>
</g>
<!-- 55 -->
<g id="node56" class="node">
<title>55</title>
<polygon fill="none" stroke="black" points="1421,-109 1339,-109 1339,-73 1421,-73 1421,-109"/>
<text text-anchor="middle" x="1380" y="-87.3" font-family="Times,serif" font-size="14.00">class = blue</text>
</g>
<!-- 53&#45;&gt;55 -->
<g id="edge55" class="edge">
<title>53&#45;&gt;55</title>
<path fill="none" stroke="black" d="M1313.46,-145.83C1324.76,-136.69 1338.59,-125.5 1350.71,-115.7"/>
<polygon fill="black" stroke="black" points="1353.2,-118.18 1358.77,-109.17 1348.8,-112.74 1353.2,-118.18"/>
</g>
<!-- 58 -->
<g id="node59" class="node">
<title>58</title>
<polygon fill="none" stroke="black" points="1536,-258 1436,-258 1436,-220 1536,-220 1536,-258"/>
<text text-anchor="middle" x="1486" y="-242.8" font-family="Times,serif" font-size="14.00">lon &lt;= &#45;78.878</text>
<text text-anchor="middle" x="1486" y="-227.8" font-family="Times,serif" font-size="14.00">class = blue</text>
</g>
<!-- 57&#45;&gt;58 -->
<g id="edge58" class="edge">
<title>57&#45;&gt;58</title>
<path fill="none" stroke="black" d="M1486,-293.83C1486,-286.13 1486,-276.97 1486,-268.42"/>
<polygon fill="black" stroke="black" points="1489.5,-268.41 1486,-258.41 1482.5,-268.41 1489.5,-268.41"/>
</g>
<!-- 61 -->
<g id="node62" class="node">
<title>61</title>
<polygon fill="none" stroke="black" points="1636,-257 1554,-257 1554,-221 1636,-221 1636,-257"/>
<text text-anchor="middle" x="1595" y="-235.3" font-family="Times,serif" font-size="14.00">class = blue</text>
</g>
<!-- 57&#45;&gt;61 -->
<g id="edge61" class="edge">
<title>57&#45;&gt;61</title>
<path fill="none" stroke="black" d="M1513.51,-293.83C1527.74,-284.43 1545.26,-272.86 1560.41,-262.85"/>
<polygon fill="black" stroke="black" points="1562.59,-265.6 1569,-257.17 1558.73,-259.76 1562.59,-265.6"/>
</g>
<!-- 59 -->
<g id="node60" class="node">
<title>59</title>
<polygon fill="none" stroke="black" points="1531,-183 1449,-183 1449,-147 1531,-147 1531,-183"/>
<text text-anchor="middle" x="1490" y="-161.3" font-family="Times,serif" font-size="14.00">class = blue</text>
</g>
<!-- 58&#45;&gt;59 -->
<g id="edge59" class="edge">
<title>58&#45;&gt;59</title>
<path fill="none" stroke="black" d="M1487.01,-219.83C1487.45,-211.89 1487.98,-202.41 1488.47,-193.63"/>
<polygon fill="black" stroke="black" points="1491.97,-193.6 1489.03,-183.42 1484.98,-193.21 1491.97,-193.6"/>
</g>
<!-- 60 -->
<g id="node61" class="node">
<title>60</title>
<polygon fill="none" stroke="black" points="1625,-183 1549,-183 1549,-147 1625,-147 1625,-183"/>
<text text-anchor="middle" x="1587" y="-161.3" font-family="Times,serif" font-size="14.00">class = red</text>
</g>
<!-- 58&#45;&gt;60 -->
<g id="edge60" class="edge">
<title>58&#45;&gt;60</title>
<path fill="none" stroke="black" d="M1511.49,-219.83C1524.55,-210.52 1540.61,-199.07 1554.55,-189.13"/>
<polygon fill="black" stroke="black" points="1556.8,-191.83 1562.91,-183.17 1552.74,-186.13 1556.8,-191.83"/>
</g>
<!-- 63 -->
<g id="node64" class="node">
<title>63</title>
<polygon fill="none" stroke="black" points="1750,-332 1658,-332 1658,-294 1750,-294 1750,-332"/>
<text text-anchor="middle" x="1704" y="-316.8" font-family="Times,serif" font-size="14.00">lat &lt;= 41.739</text>
<text text-anchor="middle" x="1704" y="-301.8" font-family="Times,serif" font-size="14.00">class = blue</text>
</g>
<!-- 62&#45;&gt;63 -->
<g id="edge63" class="edge">
<title>62&#45;&gt;63</title>
<path fill="none" stroke="black" d="M1704,-367.83C1704,-360.13 1704,-350.97 1704,-342.42"/>
<polygon fill="black" stroke="black" points="1707.5,-342.41 1704,-332.41 1700.5,-342.41 1707.5,-342.41"/>
</g>
<!-- 72 -->
<g id="node73" class="node">
<title>72</title>
<polygon fill="none" stroke="black" points="1850,-331 1768,-331 1768,-295 1850,-295 1850,-331"/>
<text text-anchor="middle" x="1809" y="-309.3" font-family="Times,serif" font-size="14.00">class = blue</text>
</g>
<!-- 62&#45;&gt;72 -->
<g id="edge72" class="edge">
<title>62&#45;&gt;72</title>
<path fill="none" stroke="black" d="M1730.5,-367.83C1744.21,-358.43 1761.09,-346.86 1775.67,-336.85"/>
<polygon fill="black" stroke="black" points="1777.69,-339.71 1783.96,-331.17 1773.73,-333.94 1777.69,-339.71"/>
</g>
<!-- 64 -->
<g id="node65" class="node">
<title>64</title>
<polygon fill="none" stroke="black" points="1754,-258 1654,-258 1654,-220 1754,-220 1754,-258"/>
<text text-anchor="middle" x="1704" y="-242.8" font-family="Times,serif" font-size="14.00">lon &lt;= &#45;87.697</text>
<text text-anchor="middle" x="1704" y="-227.8" font-family="Times,serif" font-size="14.00">class = blue</text>
</g>
<!-- 63&#45;&gt;64 -->
<g id="edge64" class="edge">
<title>63&#45;&gt;64</title>
<path fill="none" stroke="black" d="M1704,-293.83C1704,-286.13 1704,-276.97 1704,-268.42"/>
<polygon fill="black" stroke="black" points="1707.5,-268.41 1704,-258.41 1700.5,-268.41 1707.5,-268.41"/>
</g>
<!-- 71 -->
<g id="node72" class="node">
<title>71</title>
<polygon fill="none" stroke="black" points="1854,-257 1772,-257 1772,-221 1854,-221 1854,-257"/>
<text text-anchor="middle" x="1813" y="-235.3" font-family="Times,serif" font-size="14.00">class = blue</text>
</g>
<!-- 63&#45;&gt;71 -->
<g id="edge71" class="edge">
<title>63&#45;&gt;71</title>
<path fill="none" stroke="black" d="M1731.51,-293.83C1745.74,-284.43 1763.26,-272.86 1778.41,-262.85"/>
<polygon fill="black" stroke="black" points="1780.59,-265.6 1787,-257.17 1776.73,-259.76 1780.59,-265.6"/>
</g>
<!-- 65 -->
<g id="node66" class="node">
<title>65</title>
<polygon fill="none" stroke="black" points="1750,-184 1650,-184 1650,-146 1750,-146 1750,-184"/>
<text text-anchor="middle" x="1700" y="-168.8" font-family="Times,serif" font-size="14.00">lon &lt;= &#45;91.379</text>
<text text-anchor="middle" x="1700" y="-153.8" font-family="Times,serif" font-size="14.00">class = blue</text>
</g>
<!-- 64&#45;&gt;65 -->
<g id="edge65" class="edge">
<title>64&#45;&gt;65</title>
<path fill="none" stroke="black" d="M1702.99,-219.83C1702.56,-212.13 1702.05,-202.97 1701.58,-194.42"/>
<polygon fill="black" stroke="black" points="1705.07,-194.2 1701.02,-184.41 1698.08,-194.59 1705.07,-194.2"/>
</g>
<!-- 70 -->
<g id="node71" class="node">
<title>70</title>
<polygon fill="none" stroke="black" points="1844,-183 1768,-183 1768,-147 1844,-147 1844,-183"/>
<text text-anchor="middle" x="1806" y="-161.3" font-family="Times,serif" font-size="14.00">class = red</text>
</g>
<!-- 64&#45;&gt;70 -->
<g id="edge70" class="edge">
<title>64&#45;&gt;70</title>
<path fill="none" stroke="black" d="M1729.74,-219.83C1742.93,-210.52 1759.15,-199.07 1773.23,-189.13"/>
<polygon fill="black" stroke="black" points="1775.52,-191.8 1781.67,-183.17 1771.49,-186.08 1775.52,-191.8"/>
</g>
<!-- 66 -->
<g id="node67" class="node">
<title>66</title>
<polygon fill="none" stroke="black" points="1693,-110 1601,-110 1601,-72 1693,-72 1693,-110"/>
<text text-anchor="middle" x="1647" y="-94.8" font-family="Times,serif" font-size="14.00">lat &lt;= 40.775</text>
<text text-anchor="middle" x="1647" y="-79.8" font-family="Times,serif" font-size="14.00">class = red</text>
</g>
<!-- 65&#45;&gt;66 -->
<g id="edge66" class="edge">
<title>65&#45;&gt;66</title>
<path fill="none" stroke="black" d="M1686.63,-145.83C1680.58,-137.62 1673.32,-127.76 1666.68,-118.73"/>
<polygon fill="black" stroke="black" points="1669.3,-116.39 1660.55,-110.41 1663.66,-120.54 1669.3,-116.39"/>
</g>
<!-- 69 -->
<g id="node70" class="node">
<title>69</title>
<polygon fill="none" stroke="black" points="1793,-109 1711,-109 1711,-73 1793,-73 1793,-109"/>
<text text-anchor="middle" x="1752" y="-87.3" font-family="Times,serif" font-size="14.00">class = blue</text>
</g>
<!-- 65&#45;&gt;69 -->
<g id="edge69" class="edge">
<title>65&#45;&gt;69</title>
<path fill="none" stroke="black" d="M1713.12,-145.83C1719.3,-137.28 1726.76,-126.94 1733.5,-117.62"/>
<polygon fill="black" stroke="black" points="1736.4,-119.57 1739.42,-109.42 1730.73,-115.48 1736.4,-119.57"/>
</g>
<!-- 67 -->
<g id="node68" class="node">
<title>67</title>
<polygon fill="none" stroke="black" points="1636,-36 1560,-36 1560,0 1636,0 1636,-36"/>
<text text-anchor="middle" x="1598" y="-14.3" font-family="Times,serif" font-size="14.00">class = red</text>
</g>
<!-- 66&#45;&gt;67 -->
<g id="edge67" class="edge">
<title>66&#45;&gt;67</title>
<path fill="none" stroke="black" d="M1634.38,-71.72C1628.62,-63.37 1621.71,-53.35 1615.46,-44.3"/>
<polygon fill="black" stroke="black" points="1618.3,-42.25 1609.73,-36 1612.53,-46.22 1618.3,-42.25"/>
</g>
<!-- 68 -->
<g id="node69" class="node">
<title>68</title>
<polygon fill="none" stroke="black" points="1736,-36 1654,-36 1654,0 1736,0 1736,-36"/>
<text text-anchor="middle" x="1695" y="-14.3" font-family="Times,serif" font-size="14.00">class = blue</text>
</g>
<!-- 66&#45;&gt;68 -->
<g id="edge68" class="edge">
<title>66&#45;&gt;68</title>
<path fill="none" stroke="black" d="M1659.36,-71.72C1665,-63.37 1671.78,-53.35 1677.9,-44.3"/>
<polygon fill="black" stroke="black" points="1680.8,-46.25 1683.5,-36 1675,-42.33 1680.8,-46.25"/>
</g>
</g>
</svg>
