<?xml version="1.0" encoding="UTF-8" standalone="no"?>
<!DOCTYPE svg PUBLIC "-//W3C//DTD SVG 1.1//EN"
 "http://www.w3.org/Graphics/SVG/1.1/DTD/svg11.dtd">
<!-- Generated by graphviz version 2.44.1 (20200629.0846)
 -->
<!-- Title: Tree Pages: 1 -->
<svg width="1125pt" height="932pt"
 viewBox="0.00 0.00 1124.50 932.00" xmlns="http://www.w3.org/2000/svg" xmlns:xlink="http://www.w3.org/1999/xlink">
<g id="graph0" class="graph" transform="scale(1 1) rotate(0) translate(4 928)">
<title>Tree</title>
<polygon fill="white" stroke="transparent" points="-4,4 -4,-928 1120.5,-928 1120.5,4 -4,4"/>
<!-- 0 -->
<g id="node1" class="node">
<title>0</title>
<polygon fill="none" stroke="black" points="407.5,-924 302.5,-924 302.5,-886 407.5,-886 407.5,-924"/>
<text text-anchor="middle" x="355" y="-908.8" font-family="Times,serif" font-size="14.00">latitude &lt;= 42.9</text>
<text text-anchor="middle" x="355" y="-893.8" font-family="Times,serif" font-size="14.00">class = Canada</text>
</g>
<!-- 1 -->
<g id="node2" class="node">
<title>1</title>
<polygon fill="none" stroke="black" points="346.5,-850 227.5,-850 227.5,-812 346.5,-812 346.5,-850"/>
<text text-anchor="middle" x="287" y="-834.8" font-family="Times,serif" font-size="14.00">latitude &lt;= 42.096</text>
<text text-anchor="middle" x="287" y="-819.8" font-family="Times,serif" font-size="14.00">class = USA</text>
</g>
<!-- 0&#45;&gt;1 -->
<g id="edge1" class="edge">
<title>0&#45;&gt;1</title>
<path fill="none" stroke="black" d="M337.84,-885.83C329.85,-877.37 320.2,-867.15 311.46,-857.9"/>
<polygon fill="black" stroke="black" points="313.8,-855.28 304.39,-850.41 308.71,-860.09 313.8,-855.28"/>
<text text-anchor="middle" x="303.68" y="-871.7" font-family="Times,serif" font-size="14.00">True</text>
</g>
<!-- 6 -->
<g id="node7" class="node">
<title>6</title>
<polygon fill="none" stroke="black" points="483.5,-850 364.5,-850 364.5,-812 483.5,-812 483.5,-850"/>
<text text-anchor="middle" x="424" y="-834.8" font-family="Times,serif" font-size="14.00">latitude &lt;= 55.958</text>
<text text-anchor="middle" x="424" y="-819.8" font-family="Times,serif" font-size="14.00">class = Canada</text>
</g>
<!-- 0&#45;&gt;6 -->
<g id="edge6" class="edge">
<title>0&#45;&gt;6</title>
<path fill="none" stroke="black" d="M372.41,-885.83C380.52,-877.37 390.32,-867.15 399.18,-857.9"/>
<polygon fill="black" stroke="black" points="401.96,-860.05 406.35,-850.41 396.91,-855.21 401.96,-860.05"/>
<text text-anchor="middle" x="406.89" y="-871.71" font-family="Times,serif" font-size="14.00">False</text>
</g>
<!-- 2 -->
<g id="node3" class="node">
<title>2</title>
<polygon fill="none" stroke="black" points="211,-775 125,-775 125,-739 211,-739 211,-775"/>
<text text-anchor="middle" x="168" y="-753.3" font-family="Times,serif" font-size="14.00">class = USA</text>
</g>
<!-- 1&#45;&gt;2 -->
<g id="edge2" class="edge">
<title>1&#45;&gt;2</title>
<path fill="none" stroke="black" d="M256.97,-811.83C241.29,-802.34 221.94,-790.64 205.31,-780.57"/>
<polygon fill="black" stroke="black" points="206.75,-777.35 196.38,-775.17 203.12,-783.34 206.75,-777.35"/>
</g>
<!-- 3 -->
<g id="node4" class="node">
<title>3</title>
<polygon fill="none" stroke="black" points="348.5,-776 229.5,-776 229.5,-738 348.5,-738 348.5,-776"/>
<text text-anchor="middle" x="289" y="-760.8" font-family="Times,serif" font-size="14.00">latitude &lt;= 42.324</text>
<text text-anchor="middle" x="289" y="-745.8" font-family="Times,serif" font-size="14.00">class = USA</text>
</g>
<!-- 1&#45;&gt;3 -->
<g id="edge3" class="edge">
<title>1&#45;&gt;3</title>
<path fill="none" stroke="black" d="M287.5,-811.83C287.72,-804.13 287.97,-794.97 288.21,-786.42"/>
<polygon fill="black" stroke="black" points="291.71,-786.51 288.49,-776.41 284.71,-786.31 291.71,-786.51"/>
</g>
<!-- 4 -->
<g id="node5" class="node">
<title>4</title>
<polygon fill="none" stroke="black" points="228.5,-701 129.5,-701 129.5,-665 228.5,-665 228.5,-701"/>
<text text-anchor="middle" x="179" y="-679.3" font-family="Times,serif" font-size="14.00">class = Canada</text>
</g>
<!-- 3&#45;&gt;4 -->
<g id="edge4" class="edge">
<title>3&#45;&gt;4</title>
<path fill="none" stroke="black" d="M261.24,-737.83C246.88,-728.43 229.2,-716.86 213.91,-706.85"/>
<polygon fill="black" stroke="black" points="215.52,-703.72 205.23,-701.17 211.68,-709.58 215.52,-703.72"/>
</g>
<!-- 5 -->
<g id="node6" class="node">
<title>5</title>
<polygon fill="none" stroke="black" points="333,-701 247,-701 247,-665 333,-665 333,-701"/>
<text text-anchor="middle" x="290" y="-679.3" font-family="Times,serif" font-size="14.00">class = USA</text>
</g>
<!-- 3&#45;&gt;5 -->
<g id="edge5" class="edge">
<title>3&#45;&gt;5</title>
<path fill="none" stroke="black" d="M289.25,-737.83C289.36,-729.89 289.49,-720.41 289.62,-711.63"/>
<polygon fill="black" stroke="black" points="293.12,-711.47 289.76,-701.42 286.12,-711.37 293.12,-711.47"/>
</g>
<!-- 7 -->
<g id="node8" class="node">
<title>7</title>
<polygon fill="none" stroke="black" points="475.5,-776 370.5,-776 370.5,-738 475.5,-738 475.5,-776"/>
<text text-anchor="middle" x="423" y="-760.8" font-family="Times,serif" font-size="14.00">latitude &lt;= 49.0</text>
<text text-anchor="middle" x="423" y="-745.8" font-family="Times,serif" font-size="14.00">class = Canada</text>
</g>
<!-- 6&#45;&gt;7 -->
<g id="edge7" class="edge">
<title>6&#45;&gt;7</title>
<path fill="none" stroke="black" d="M423.75,-811.83C423.64,-804.13 423.51,-794.97 423.39,-786.42"/>
<polygon fill="black" stroke="black" points="426.89,-786.36 423.26,-776.41 419.9,-786.46 426.89,-786.36"/>
</g>
<!-- 56 -->
<g id="node57" class="node">
<title>56</title>
<polygon fill="none" stroke="black" points="580,-775 494,-775 494,-739 580,-739 580,-775"/>
<text text-anchor="middle" x="537" y="-753.3" font-family="Times,serif" font-size="14.00">class = USA</text>
</g>
<!-- 6&#45;&gt;56 -->
<g id="edge56" class="edge">
<title>6&#45;&gt;56</title>
<path fill="none" stroke="black" d="M452.51,-811.83C467.41,-802.34 485.78,-790.64 501.58,-780.57"/>
<polygon fill="black" stroke="black" points="503.5,-783.5 510.05,-775.17 499.74,-777.59 503.5,-783.5"/>
</g>
<!-- 8 -->
<g id="node9" class="node">
<title>8</title>
<polygon fill="none" stroke="black" points="489,-702 355,-702 355,-664 489,-664 489,-702"/>
<text text-anchor="middle" x="422" y="-686.8" font-family="Times,serif" font-size="14.00">longitude &lt;= &#45;94.582</text>
<text text-anchor="middle" x="422" y="-671.8" font-family="Times,serif" font-size="14.00">class = Canada</text>
</g>
<!-- 7&#45;&gt;8 -->
<g id="edge8" class="edge">
<title>7&#45;&gt;8</title>
<path fill="none" stroke="black" d="M422.75,-737.83C422.64,-730.13 422.51,-720.97 422.39,-712.42"/>
<polygon fill="black" stroke="black" points="425.89,-712.36 422.26,-702.41 418.9,-712.46 425.89,-712.36"/>
</g>
<!-- 55 -->
<g id="node56" class="node">
<title>55</title>
<polygon fill="none" stroke="black" points="606.5,-701 507.5,-701 507.5,-665 606.5,-665 606.5,-701"/>
<text text-anchor="middle" x="557" y="-679.3" font-family="Times,serif" font-size="14.00">class = Canada</text>
</g>
<!-- 7&#45;&gt;55 -->
<g id="edge55" class="edge">
<title>7&#45;&gt;55</title>
<path fill="none" stroke="black" d="M456.81,-737.83C474.8,-728.17 497.06,-716.2 516.03,-706.01"/>
<polygon fill="black" stroke="black" points="517.89,-708.99 525.04,-701.17 514.58,-702.82 517.89,-708.99"/>
</g>
<!-- 9 -->
<g id="node10" class="node">
<title>9</title>
<polygon fill="none" stroke="black" points="415,-628 275,-628 275,-590 415,-590 415,-628"/>
<text text-anchor="middle" x="345" y="-612.8" font-family="Times,serif" font-size="14.00">longitude &lt;= &#45;123.222</text>
<text text-anchor="middle" x="345" y="-597.8" font-family="Times,serif" font-size="14.00">class = USA</text>
</g>
<!-- 8&#45;&gt;9 -->
<g id="edge9" class="edge">
<title>8&#45;&gt;9</title>
<path fill="none" stroke="black" d="M402.57,-663.83C393.27,-655.13 381.98,-644.58 371.87,-635.13"/>
<polygon fill="black" stroke="black" points="374.12,-632.44 364.42,-628.16 369.34,-637.55 374.12,-632.44"/>
</g>
<!-- 12 -->
<g id="node13" class="node">
<title>12</title>
<polygon fill="none" stroke="black" points="567,-628 433,-628 433,-590 567,-590 567,-628"/>
<text text-anchor="middle" x="500" y="-612.8" font-family="Times,serif" font-size="14.00">longitude &lt;= &#45;69.246</text>
<text text-anchor="middle" x="500" y="-597.8" font-family="Times,serif" font-size="14.00">class = Canada</text>
</g>
<!-- 8&#45;&gt;12 -->
<g id="edge12" class="edge">
<title>8&#45;&gt;12</title>
<path fill="none" stroke="black" d="M441.68,-663.83C451.11,-655.13 462.54,-644.58 472.78,-635.13"/>
<polygon fill="black" stroke="black" points="475.35,-637.52 480.32,-628.16 470.6,-632.37 475.35,-637.52"/>
</g>
<!-- 10 -->
<g id="node11" class="node">
<title>10</title>
<polygon fill="none" stroke="black" points="292.5,-553 193.5,-553 193.5,-517 292.5,-517 292.5,-553"/>
<text text-anchor="middle" x="243" y="-531.3" font-family="Times,serif" font-size="14.00">class = Canada</text>
</g>
<!-- 9&#45;&gt;10 -->
<g id="edge10" class="edge">
<title>9&#45;&gt;10</title>
<path fill="none" stroke="black" d="M319.26,-589.83C306.07,-580.52 289.85,-569.07 275.77,-559.13"/>
<polygon fill="black" stroke="black" points="277.51,-556.08 267.33,-553.17 273.48,-561.8 277.51,-556.08"/>
</g>
<!-- 11 -->
<g id="node12" class="node">
<title>11</title>
<polygon fill="none" stroke="black" points="397,-553 311,-553 311,-517 397,-517 397,-553"/>
<text text-anchor="middle" x="354" y="-531.3" font-family="Times,serif" font-size="14.00">class = USA</text>
</g>
<!-- 9&#45;&gt;11 -->
<g id="edge11" class="edge">
<title>9&#45;&gt;11</title>
<path fill="none" stroke="black" d="M347.27,-589.83C348.26,-581.89 349.45,-572.41 350.55,-563.63"/>
<polygon fill="black" stroke="black" points="354.06,-563.77 351.82,-553.42 347.11,-562.91 354.06,-563.77"/>
</g>
<!-- 13 -->
<g id="node14" class="node">
<title>13</title>
<polygon fill="none" stroke="black" points="551.5,-554 432.5,-554 432.5,-516 551.5,-516 551.5,-554"/>
<text text-anchor="middle" x="492" y="-538.8" font-family="Times,serif" font-size="14.00">latitude &lt;= 43.093</text>
<text text-anchor="middle" x="492" y="-523.8" font-family="Times,serif" font-size="14.00">class = Canada</text>
</g>
<!-- 12&#45;&gt;13 -->
<g id="edge13" class="edge">
<title>12&#45;&gt;13</title>
<path fill="none" stroke="black" d="M497.98,-589.83C497.13,-582.13 496.11,-572.97 495.16,-564.42"/>
<polygon fill="black" stroke="black" points="498.63,-563.97 494.05,-554.41 491.67,-564.74 498.63,-563.97"/>
</g>
<!-- 36 -->
<g id="node37" class="node">
<title>36</title>
<polygon fill="none" stroke="black" points="756,-554 622,-554 622,-516 756,-516 756,-554"/>
<text text-anchor="middle" x="689" y="-538.8" font-family="Times,serif" font-size="14.00">longitude &lt;= &#45;66.952</text>
<text text-anchor="middle" x="689" y="-523.8" font-family="Times,serif" font-size="14.00">class = Canada</text>
</g>
<!-- 12&#45;&gt;36 -->
<g id="edge36" class="edge">
<title>12&#45;&gt;36</title>
<path fill="none" stroke="black" d="M547.69,-589.83C573.31,-580.07 605.06,-567.98 631.97,-557.72"/>
<polygon fill="black" stroke="black" points="633.55,-560.87 641.65,-554.04 631.06,-554.33 633.55,-560.87"/>
</g>
<!-- 14 -->
<g id="node15" class="node">
<title>14</title>
<polygon fill="none" stroke="black" points="348.5,-480 229.5,-480 229.5,-442 348.5,-442 348.5,-480"/>
<text text-anchor="middle" x="289" y="-464.8" font-family="Times,serif" font-size="14.00">latitude &lt;= 43.014</text>
<text text-anchor="middle" x="289" y="-449.8" font-family="Times,serif" font-size="14.00">class = Canada</text>
</g>
<!-- 13&#45;&gt;14 -->
<g id="edge14" class="edge">
<title>13&#45;&gt;14</title>
<path fill="none" stroke="black" d="M441.04,-515.92C413.29,-506.08 378.77,-493.84 349.64,-483.51"/>
<polygon fill="black" stroke="black" points="350.58,-480.13 339.98,-480.08 348.24,-486.72 350.58,-480.13"/>
</g>
<!-- 19 -->
<g id="node20" class="node">
<title>19</title>
<polygon fill="none" stroke="black" points="551.5,-480 432.5,-480 432.5,-442 551.5,-442 551.5,-480"/>
<text text-anchor="middle" x="492" y="-464.8" font-family="Times,serif" font-size="14.00">latitude &lt;= 44.992</text>
<text text-anchor="middle" x="492" y="-449.8" font-family="Times,serif" font-size="14.00">class = Canada</text>
</g>
<!-- 13&#45;&gt;19 -->
<g id="edge19" class="edge">
<title>13&#45;&gt;19</title>
<path fill="none" stroke="black" d="M492,-515.83C492,-508.13 492,-498.97 492,-490.42"/>
<polygon fill="black" stroke="black" points="495.5,-490.41 492,-480.41 488.5,-490.41 495.5,-490.41"/>
</g>
<!-- 15 -->
<g id="node16" class="node">
<title>15</title>
<polygon fill="none" stroke="black" points="221,-406 87,-406 87,-368 221,-368 221,-406"/>
<text text-anchor="middle" x="154" y="-390.8" font-family="Times,serif" font-size="14.00">longitude &lt;= &#45;81.845</text>
<text text-anchor="middle" x="154" y="-375.8" font-family="Times,serif" font-size="14.00">class = Canada</text>
</g>
<!-- 14&#45;&gt;15 -->
<g id="edge15" class="edge">
<title>14&#45;&gt;15</title>
<path fill="none" stroke="black" d="M254.93,-441.83C237.35,-432.45 215.71,-420.91 196.98,-410.92"/>
<polygon fill="black" stroke="black" points="198.53,-407.78 188.06,-406.16 195.23,-413.96 198.53,-407.78"/>
</g>
<!-- 18 -->
<g id="node19" class="node">
<title>18</title>
<polygon fill="none" stroke="black" points="332,-405 246,-405 246,-369 332,-369 332,-405"/>
<text text-anchor="middle" x="289" y="-383.3" font-family="Times,serif" font-size="14.00">class = USA</text>
</g>
<!-- 14&#45;&gt;18 -->
<g id="edge18" class="edge">
<title>14&#45;&gt;18</title>
<path fill="none" stroke="black" d="M289,-441.83C289,-433.89 289,-424.41 289,-415.63"/>
<polygon fill="black" stroke="black" points="292.5,-415.42 289,-405.42 285.5,-415.42 292.5,-415.42"/>
</g>
<!-- 16 -->
<g id="node17" class="node">
<title>16</title>
<polygon fill="none" stroke="black" points="86,-331 0,-331 0,-295 86,-295 86,-331"/>
<text text-anchor="middle" x="43" y="-309.3" font-family="Times,serif" font-size="14.00">class = USA</text>
</g>
<!-- 15&#45;&gt;16 -->
<g id="edge16" class="edge">
<title>15&#45;&gt;16</title>
<path fill="none" stroke="black" d="M125.99,-367.83C111.49,-358.43 93.65,-346.86 78.23,-336.85"/>
<polygon fill="black" stroke="black" points="79.77,-333.68 69.47,-331.17 75.96,-339.55 79.77,-333.68"/>
</g>
<!-- 17 -->
<g id="node18" class="node">
<title>17</title>
<polygon fill="none" stroke="black" points="203.5,-331 104.5,-331 104.5,-295 203.5,-295 203.5,-331"/>
<text text-anchor="middle" x="154" y="-309.3" font-family="Times,serif" font-size="14.00">class = Canada</text>
</g>
<!-- 15&#45;&gt;17 -->
<g id="edge17" class="edge">
<title>15&#45;&gt;17</title>
<path fill="none" stroke="black" d="M154,-367.83C154,-359.89 154,-350.41 154,-341.63"/>
<polygon fill="black" stroke="black" points="157.5,-341.42 154,-331.42 150.5,-341.42 157.5,-341.42"/>
</g>
<!-- 20 -->
<g id="node21" class="node">
<title>20</title>
<polygon fill="none" stroke="black" points="486.5,-406 367.5,-406 367.5,-368 486.5,-368 486.5,-406"/>
<text text-anchor="middle" x="427" y="-390.8" font-family="Times,serif" font-size="14.00">latitude &lt;= 44.542</text>
<text text-anchor="middle" x="427" y="-375.8" font-family="Times,serif" font-size="14.00">class = Canada</text>
</g>
<!-- 19&#45;&gt;20 -->
<g id="edge20" class="edge">
<title>19&#45;&gt;20</title>
<path fill="none" stroke="black" d="M475.6,-441.83C467.96,-433.37 458.73,-423.15 450.38,-413.9"/>
<polygon fill="black" stroke="black" points="452.92,-411.49 443.62,-406.41 447.73,-416.18 452.92,-411.49"/>
</g>
<!-- 35 -->
<g id="node36" class="node">
<title>35</title>
<polygon fill="none" stroke="black" points="603.5,-405 504.5,-405 504.5,-369 603.5,-369 603.5,-405"/>
<text text-anchor="middle" x="554" y="-383.3" font-family="Times,serif" font-size="14.00">class = Canada</text>
</g>
<!-- 19&#45;&gt;35 -->
<g id="edge35" class="edge">
<title>19&#45;&gt;35</title>
<path fill="none" stroke="black" d="M507.65,-441.83C515.16,-433.11 524.28,-422.52 532.43,-413.05"/>
<polygon fill="black" stroke="black" points="535.13,-415.28 539,-405.42 529.82,-410.71 535.13,-415.28"/>
</g>
<!-- 21 -->
<g id="node22" class="node">
<title>21</title>
<polygon fill="none" stroke="black" points="356,-332 222,-332 222,-294 356,-294 356,-332"/>
<text text-anchor="middle" x="289" y="-316.8" font-family="Times,serif" font-size="14.00">longitude &lt;= &#45;79.076</text>
<text text-anchor="middle" x="289" y="-301.8" font-family="Times,serif" font-size="14.00">class = Canada</text>
</g>
<!-- 20&#45;&gt;21 -->
<g id="edge21" class="edge">
<title>20&#45;&gt;21</title>
<path fill="none" stroke="black" d="M392.18,-367.83C374.2,-358.45 352.08,-346.91 332.94,-336.92"/>
<polygon fill="black" stroke="black" points="334.3,-333.69 323.81,-332.16 331.06,-339.89 334.3,-333.69"/>
</g>
<!-- 30 -->
<g id="node31" class="node">
<title>30</title>
<polygon fill="none" stroke="black" points="508,-332 374,-332 374,-294 508,-294 508,-332"/>
<text text-anchor="middle" x="441" y="-316.8" font-family="Times,serif" font-size="14.00">longitude &lt;= &#45;84.392</text>
<text text-anchor="middle" x="441" y="-301.8" font-family="Times,serif" font-size="14.00">class = USA</text>
</g>
<!-- 20&#45;&gt;30 -->
<g id="edge30" class="edge">
<title>20&#45;&gt;30</title>
<path fill="none" stroke="black" d="M430.53,-367.83C432.03,-360.13 433.81,-350.97 435.47,-342.42"/>
<polygon fill="black" stroke="black" points="438.95,-342.9 437.42,-332.41 432.08,-341.56 438.95,-342.9"/>
</g>
<!-- 22 -->
<g id="node23" class="node">
<title>22</title>
<polygon fill="none" stroke="black" points="211.5,-257 112.5,-257 112.5,-221 211.5,-221 211.5,-257"/>
<text text-anchor="middle" x="162" y="-235.3" font-family="Times,serif" font-size="14.00">class = Canada</text>
</g>
<!-- 21&#45;&gt;22 -->
<g id="edge22" class="edge">
<title>21&#45;&gt;22</title>
<path fill="none" stroke="black" d="M256.95,-293.83C240.06,-284.25 219.19,-272.42 201.32,-262.29"/>
<polygon fill="black" stroke="black" points="202.71,-259.06 192.29,-257.17 199.26,-265.15 202.71,-259.06"/>
</g>
<!-- 23 -->
<g id="node24" class="node">
<title>23</title>
<polygon fill="none" stroke="black" points="348.5,-258 229.5,-258 229.5,-220 348.5,-220 348.5,-258"/>
<text text-anchor="middle" x="289" y="-242.8" font-family="Times,serif" font-size="14.00">latitude &lt;= 44.168</text>
<text text-anchor="middle" x="289" y="-227.8" font-family="Times,serif" font-size="14.00">class = Canada</text>
</g>
<!-- 21&#45;&gt;23 -->
<g id="edge23" class="edge">
<title>21&#45;&gt;23</title>
<path fill="none" stroke="black" d="M289,-293.83C289,-286.13 289,-276.97 289,-268.42"/>
<polygon fill="black" stroke="black" points="292.5,-268.41 289,-258.41 285.5,-268.41 292.5,-268.41"/>
</g>
<!-- 24 -->
<g id="node25" class="node">
<title>24</title>
<polygon fill="none" stroke="black" points="231.5,-184 104.5,-184 104.5,-146 231.5,-146 231.5,-184"/>
<text text-anchor="middle" x="168" y="-168.8" font-family="Times,serif" font-size="14.00">longitude &lt;= &#45;79.03</text>
<text text-anchor="middle" x="168" y="-153.8" font-family="Times,serif" font-size="14.00">class = USA</text>
</g>
<!-- 23&#45;&gt;24 -->
<g id="edge24" class="edge">
<title>23&#45;&gt;24</title>
<path fill="none" stroke="black" d="M258.47,-219.83C242.99,-210.62 224.01,-199.33 207.44,-189.47"/>
<polygon fill="black" stroke="black" points="208.91,-186.27 198.52,-184.16 205.33,-192.28 208.91,-186.27"/>
</g>
<!-- 29 -->
<g id="node30" class="node">
<title>29</title>
<polygon fill="none" stroke="black" points="348.5,-183 249.5,-183 249.5,-147 348.5,-147 348.5,-183"/>
<text text-anchor="middle" x="299" y="-161.3" font-family="Times,serif" font-size="14.00">class = Canada</text>
</g>
<!-- 23&#45;&gt;29 -->
<g id="edge29" class="edge">
<title>23&#45;&gt;29</title>
<path fill="none" stroke="black" d="M291.52,-219.83C292.64,-211.81 293.97,-202.2 295.2,-193.34"/>
<polygon fill="black" stroke="black" points="298.67,-193.8 296.58,-183.42 291.74,-192.84 298.67,-193.8"/>
</g>
<!-- 25 -->
<g id="node26" class="node">
<title>25</title>
<polygon fill="none" stroke="black" points="151,-109 65,-109 65,-73 151,-73 151,-109"/>
<text text-anchor="middle" x="108" y="-87.3" font-family="Times,serif" font-size="14.00">class = USA</text>
</g>
<!-- 24&#45;&gt;25 -->
<g id="edge25" class="edge">
<title>24&#45;&gt;25</title>
<path fill="none" stroke="black" d="M152.86,-145.83C145.66,-137.2 136.94,-126.73 129.11,-117.33"/>
<polygon fill="black" stroke="black" points="131.61,-114.86 122.51,-109.42 126.23,-119.34 131.61,-114.86"/>
</g>
<!-- 26 -->
<g id="node27" class="node">
<title>26</title>
<polygon fill="none" stroke="black" points="288.5,-110 169.5,-110 169.5,-72 288.5,-72 288.5,-110"/>
<text text-anchor="middle" x="229" y="-94.8" font-family="Times,serif" font-size="14.00">latitude &lt;= 43.988</text>
<text text-anchor="middle" x="229" y="-79.8" font-family="Times,serif" font-size="14.00">class = Canada</text>
</g>
<!-- 24&#45;&gt;26 -->
<g id="edge26" class="edge">
<title>24&#45;&gt;26</title>
<path fill="none" stroke="black" d="M183.39,-145.83C190.49,-137.45 199.05,-127.35 206.82,-118.17"/>
<polygon fill="black" stroke="black" points="209.61,-120.31 213.4,-110.41 204.27,-115.78 209.61,-120.31"/>
</g>
<!-- 27 -->
<g id="node28" class="node">
<title>27</title>
<polygon fill="none" stroke="black" points="222.5,-36 123.5,-36 123.5,0 222.5,0 222.5,-36"/>
<text text-anchor="middle" x="173" y="-14.3" font-family="Times,serif" font-size="14.00">class = Canada</text>
</g>
<!-- 26&#45;&gt;27 -->
<g id="edge27" class="edge">
<title>26&#45;&gt;27</title>
<path fill="none" stroke="black" d="M214.58,-71.72C207.93,-63.29 199.93,-53.15 192.73,-44.02"/>
<polygon fill="black" stroke="black" points="195.35,-41.69 186.41,-36 189.86,-46.02 195.35,-41.69"/>
</g>
<!-- 28 -->
<g id="node29" class="node">
<title>28</title>
<polygon fill="none" stroke="black" points="327,-36 241,-36 241,0 327,0 327,-36"/>
<text text-anchor="middle" x="284" y="-14.3" font-family="Times,serif" font-size="14.00">class = USA</text>
</g>
<!-- 26&#45;&gt;28 -->
<g id="edge28" class="edge">
<title>26&#45;&gt;28</title>
<path fill="none" stroke="black" d="M243.16,-71.72C249.69,-63.29 257.55,-53.15 264.62,-44.02"/>
<polygon fill="black" stroke="black" points="267.47,-46.05 270.83,-36 261.94,-41.77 267.47,-46.05"/>
</g>
<!-- 31 -->
<g id="node32" class="node">
<title>31</title>
<polygon fill="none" stroke="black" points="453,-257 367,-257 367,-221 453,-221 453,-257"/>
<text text-anchor="middle" x="410" y="-235.3" font-family="Times,serif" font-size="14.00">class = USA</text>
</g>
<!-- 30&#45;&gt;31 -->
<g id="edge31" class="edge">
<title>30&#45;&gt;31</title>
<path fill="none" stroke="black" d="M433.18,-293.83C429.65,-285.63 425.41,-275.78 421.52,-266.76"/>
<polygon fill="black" stroke="black" points="424.67,-265.22 417.5,-257.42 418.24,-267.99 424.67,-265.22"/>
</g>
<!-- 32 -->
<g id="node33" class="node">
<title>32</title>
<polygon fill="none" stroke="black" points="590.5,-258 471.5,-258 471.5,-220 590.5,-220 590.5,-258"/>
<text text-anchor="middle" x="531" y="-242.8" font-family="Times,serif" font-size="14.00">latitude &lt;= 44.706</text>
<text text-anchor="middle" x="531" y="-227.8" font-family="Times,serif" font-size="14.00">class = Canada</text>
</g>
<!-- 30&#45;&gt;32 -->
<g id="edge32" class="edge">
<title>30&#45;&gt;32</title>
<path fill="none" stroke="black" d="M463.71,-293.83C474.8,-284.96 488.3,-274.16 500.29,-264.57"/>
<polygon fill="black" stroke="black" points="502.67,-267.14 508.3,-258.16 498.3,-261.68 502.67,-267.14"/>
</g>
<!-- 33 -->
<g id="node34" class="node">
<title>33</title>
<polygon fill="none" stroke="black" points="467,-183 381,-183 381,-147 467,-147 467,-183"/>
<text text-anchor="middle" x="424" y="-161.3" font-family="Times,serif" font-size="14.00">class = USA</text>
</g>
<!-- 32&#45;&gt;33 -->
<g id="edge33" class="edge">
<title>32&#45;&gt;33</title>
<path fill="none" stroke="black" d="M504,-219.83C490.03,-210.43 472.83,-198.86 457.96,-188.85"/>
<polygon fill="black" stroke="black" points="459.77,-185.85 449.52,-183.17 455.86,-191.66 459.77,-185.85"/>
</g>
<!-- 34 -->
<g id="node35" class="node">
<title>34</title>
<polygon fill="none" stroke="black" points="584.5,-183 485.5,-183 485.5,-147 584.5,-147 584.5,-183"/>
<text text-anchor="middle" x="535" y="-161.3" font-family="Times,serif" font-size="14.00">class = Canada</text>
</g>
<!-- 32&#45;&gt;34 -->
<g id="edge34" class="edge">
<title>32&#45;&gt;34</title>
<path fill="none" stroke="black" d="M532.01,-219.83C532.45,-211.89 532.98,-202.41 533.47,-193.63"/>
<polygon fill="black" stroke="black" points="536.97,-193.6 534.03,-183.42 529.98,-193.21 536.97,-193.6"/>
</g>
<!-- 37 -->
<g id="node38" class="node">
<title>37</title>
<polygon fill="none" stroke="black" points="756,-480 622,-480 622,-442 756,-442 756,-480"/>
<text text-anchor="middle" x="689" y="-464.8" font-family="Times,serif" font-size="14.00">longitude &lt;= &#45;67.279</text>
<text text-anchor="middle" x="689" y="-449.8" font-family="Times,serif" font-size="14.00">class = USA</text>
</g>
<!-- 36&#45;&gt;37 -->
<g id="edge37" class="edge">
<title>36&#45;&gt;37</title>
<path fill="none" stroke="black" d="M689,-515.83C689,-508.13 689,-498.97 689,-490.42"/>
<polygon fill="black" stroke="black" points="692.5,-490.41 689,-480.41 685.5,-490.41 692.5,-490.41"/>
</g>
<!-- 54 -->
<g id="node55" class="node">
<title>54</title>
<polygon fill="none" stroke="black" points="873.5,-479 774.5,-479 774.5,-443 873.5,-443 873.5,-479"/>
<text text-anchor="middle" x="824" y="-457.3" font-family="Times,serif" font-size="14.00">class = Canada</text>
</g>
<!-- 36&#45;&gt;54 -->
<g id="edge54" class="edge">
<title>36&#45;&gt;54</title>
<path fill="none" stroke="black" d="M723.07,-515.83C741.19,-506.17 763.62,-494.2 782.72,-484.01"/>
<polygon fill="black" stroke="black" points="784.63,-486.97 791.8,-479.17 781.33,-480.79 784.63,-486.97"/>
</g>
<!-- 38 -->
<g id="node39" class="node">
<title>38</title>
<polygon fill="none" stroke="black" points="752.5,-406 625.5,-406 625.5,-368 752.5,-368 752.5,-406"/>
<text text-anchor="middle" x="689" y="-390.8" font-family="Times,serif" font-size="14.00">longitude &lt;= &#45;67.93</text>
<text text-anchor="middle" x="689" y="-375.8" font-family="Times,serif" font-size="14.00">class = Canada</text>
</g>
<!-- 37&#45;&gt;38 -->
<g id="edge38" class="edge">
<title>37&#45;&gt;38</title>
<path fill="none" stroke="black" d="M689,-441.83C689,-434.13 689,-424.97 689,-416.42"/>
<polygon fill="black" stroke="black" points="692.5,-416.41 689,-406.41 685.5,-416.41 692.5,-416.41"/>
</g>
<!-- 53 -->
<g id="node54" class="node">
<title>53</title>
<polygon fill="none" stroke="black" points="857,-405 771,-405 771,-369 857,-369 857,-405"/>
<text text-anchor="middle" x="814" y="-383.3" font-family="Times,serif" font-size="14.00">class = USA</text>
</g>
<!-- 37&#45;&gt;53 -->
<g id="edge53" class="edge">
<title>37&#45;&gt;53</title>
<path fill="none" stroke="black" d="M720.54,-441.83C737.17,-432.25 757.71,-420.42 775.3,-410.29"/>
<polygon fill="black" stroke="black" points="777.27,-413.2 784.19,-405.17 773.78,-407.13 777.27,-413.2"/>
</g>
<!-- 39 -->
<g id="node40" class="node">
<title>39</title>
<polygon fill="none" stroke="black" points="756,-332 622,-332 622,-294 756,-294 756,-332"/>
<text text-anchor="middle" x="689" y="-316.8" font-family="Times,serif" font-size="14.00">longitude &lt;= &#45;68.325</text>
<text text-anchor="middle" x="689" y="-301.8" font-family="Times,serif" font-size="14.00">class = USA</text>
</g>
<!-- 38&#45;&gt;39 -->
<g id="edge39" class="edge">
<title>38&#45;&gt;39</title>
<path fill="none" stroke="black" d="M689,-367.83C689,-360.13 689,-350.97 689,-342.42"/>
<polygon fill="black" stroke="black" points="692.5,-342.41 689,-332.41 685.5,-342.41 692.5,-342.41"/>
</g>
<!-- 48 -->
<g id="node49" class="node">
<title>48</title>
<polygon fill="none" stroke="black" points="991.5,-332 872.5,-332 872.5,-294 991.5,-294 991.5,-332"/>
<text text-anchor="middle" x="932" y="-316.8" font-family="Times,serif" font-size="14.00">latitude &lt;= 45.565</text>
<text text-anchor="middle" x="932" y="-301.8" font-family="Times,serif" font-size="14.00">class = Canada</text>
</g>
<!-- 38&#45;&gt;48 -->
<g id="edge48" class="edge">
<title>38&#45;&gt;48</title>
<path fill="none" stroke="black" d="M750.01,-367.92C784.19,-357.8 826.95,-345.13 862.43,-334.61"/>
<polygon fill="black" stroke="black" points="863.64,-337.91 872.23,-331.71 861.65,-331.19 863.64,-337.91"/>
</g>
<!-- 40 -->
<g id="node41" class="node">
<title>40</title>
<polygon fill="none" stroke="black" points="743,-258 609,-258 609,-220 743,-220 743,-258"/>
<text text-anchor="middle" x="676" y="-242.8" font-family="Times,serif" font-size="14.00">longitude &lt;= &#45;68.915</text>
<text text-anchor="middle" x="676" y="-227.8" font-family="Times,serif" font-size="14.00">class = Canada</text>
</g>
<!-- 39&#45;&gt;40 -->
<g id="edge40" class="edge">
<title>39&#45;&gt;40</title>
<path fill="none" stroke="black" d="M685.72,-293.83C684.33,-286.13 682.68,-276.97 681.13,-268.42"/>
<polygon fill="black" stroke="black" points="684.55,-267.63 679.32,-258.41 677.66,-268.88 684.55,-267.63"/>
</g>
<!-- 47 -->
<g id="node48" class="node">
<title>47</title>
<polygon fill="none" stroke="black" points="847,-257 761,-257 761,-221 847,-221 847,-257"/>
<text text-anchor="middle" x="804" y="-235.3" font-family="Times,serif" font-size="14.00">class = USA</text>
</g>
<!-- 39&#45;&gt;47 -->
<g id="edge47" class="edge">
<title>39&#45;&gt;47</title>
<path fill="none" stroke="black" d="M718.02,-293.83C733.18,-284.34 751.87,-272.64 767.95,-262.57"/>
<polygon fill="black" stroke="black" points="769.95,-265.44 776.57,-257.17 766.24,-259.51 769.95,-265.44"/>
</g>
<!-- 41 -->
<g id="node42" class="node">
<title>41</title>
<polygon fill="none" stroke="black" points="706,-183 620,-183 620,-147 706,-147 706,-183"/>
<text text-anchor="middle" x="663" y="-161.3" font-family="Times,serif" font-size="14.00">class = USA</text>
</g>
<!-- 40&#45;&gt;41 -->
<g id="edge41" class="edge">
<title>40&#45;&gt;41</title>
<path fill="none" stroke="black" d="M672.72,-219.83C671.27,-211.81 669.54,-202.2 667.94,-193.34"/>
<polygon fill="black" stroke="black" points="671.37,-192.64 666.14,-183.42 664.48,-193.88 671.37,-192.64"/>
</g>
<!-- 42 -->
<g id="node43" class="node">
<title>42</title>
<polygon fill="none" stroke="black" points="858,-184 724,-184 724,-146 858,-146 858,-184"/>
<text text-anchor="middle" x="791" y="-168.8" font-family="Times,serif" font-size="14.00">longitude &lt;= &#45;68.597</text>
<text text-anchor="middle" x="791" y="-153.8" font-family="Times,serif" font-size="14.00">class = Canada</text>
</g>
<!-- 40&#45;&gt;42 -->
<g id="edge42" class="edge">
<title>40&#45;&gt;42</title>
<path fill="none" stroke="black" d="M705.02,-219.83C719.73,-210.62 737.76,-199.33 753.51,-189.47"/>
<polygon fill="black" stroke="black" points="755.37,-192.44 761.99,-184.16 751.66,-186.5 755.37,-192.44"/>
</g>
<!-- 43 -->
<g id="node44" class="node">
<title>43</title>
<polygon fill="none" stroke="black" points="776.5,-109 677.5,-109 677.5,-73 776.5,-73 776.5,-109"/>
<text text-anchor="middle" x="727" y="-87.3" font-family="Times,serif" font-size="14.00">class = Canada</text>
</g>
<!-- 42&#45;&gt;43 -->
<g id="edge43" class="edge">
<title>42&#45;&gt;43</title>
<path fill="none" stroke="black" d="M774.85,-145.83C767.1,-137.11 757.68,-126.52 749.26,-117.05"/>
<polygon fill="black" stroke="black" points="751.74,-114.57 742.48,-109.42 746.51,-119.22 751.74,-114.57"/>
</g>
<!-- 44 -->
<g id="node45" class="node">
<title>44</title>
<polygon fill="none" stroke="black" points="913.5,-110 794.5,-110 794.5,-72 913.5,-72 913.5,-110"/>
<text text-anchor="middle" x="854" y="-94.8" font-family="Times,serif" font-size="14.00">latitude &lt;= 47.312</text>
<text text-anchor="middle" x="854" y="-79.8" font-family="Times,serif" font-size="14.00">class = Canada</text>
</g>
<!-- 42&#45;&gt;44 -->
<g id="edge44" class="edge">
<title>42&#45;&gt;44</title>
<path fill="none" stroke="black" d="M806.9,-145.83C814.23,-137.45 823.07,-127.35 831.1,-118.17"/>
<polygon fill="black" stroke="black" points="833.94,-120.24 837.89,-110.41 828.67,-115.63 833.94,-120.24"/>
</g>
<!-- 45 -->
<g id="node46" class="node">
<title>45</title>
<polygon fill="none" stroke="black" points="841,-36 755,-36 755,0 841,0 841,-36"/>
<text text-anchor="middle" x="798" y="-14.3" font-family="Times,serif" font-size="14.00">class = USA</text>
</g>
<!-- 44&#45;&gt;45 -->
<g id="edge45" class="edge">
<title>44&#45;&gt;45</title>
<path fill="none" stroke="black" d="M839.58,-71.72C832.93,-63.29 824.93,-53.15 817.73,-44.02"/>
<polygon fill="black" stroke="black" points="820.35,-41.69 811.41,-36 814.86,-46.02 820.35,-41.69"/>
</g>
<!-- 46 -->
<g id="node47" class="node">
<title>46</title>
<polygon fill="none" stroke="black" points="958.5,-36 859.5,-36 859.5,0 958.5,0 958.5,-36"/>
<text text-anchor="middle" x="909" y="-14.3" font-family="Times,serif" font-size="14.00">class = Canada</text>
</g>
<!-- 44&#45;&gt;46 -->
<g id="edge46" class="edge">
<title>44&#45;&gt;46</title>
<path fill="none" stroke="black" d="M868.16,-71.72C874.69,-63.29 882.55,-53.15 889.62,-44.02"/>
<polygon fill="black" stroke="black" points="892.47,-46.05 895.83,-36 886.94,-41.77 892.47,-46.05"/>
</g>
<!-- 49 -->
<g id="node50" class="node">
<title>49</title>
<polygon fill="none" stroke="black" points="999,-258 865,-258 865,-220 999,-220 999,-258"/>
<text text-anchor="middle" x="932" y="-242.8" font-family="Times,serif" font-size="14.00">longitude &lt;= &#45;67.355</text>
<text text-anchor="middle" x="932" y="-227.8" font-family="Times,serif" font-size="14.00">class = Canada</text>
</g>
<!-- 48&#45;&gt;49 -->
<g id="edge49" class="edge">
<title>48&#45;&gt;49</title>
<path fill="none" stroke="black" d="M932,-293.83C932,-286.13 932,-276.97 932,-268.42"/>
<polygon fill="black" stroke="black" points="935.5,-268.41 932,-258.41 928.5,-268.41 935.5,-268.41"/>
</g>
<!-- 52 -->
<g id="node53" class="node">
<title>52</title>
<polygon fill="none" stroke="black" points="1116.5,-257 1017.5,-257 1017.5,-221 1116.5,-221 1116.5,-257"/>
<text text-anchor="middle" x="1067" y="-235.3" font-family="Times,serif" font-size="14.00">class = Canada</text>
</g>
<!-- 48&#45;&gt;52 -->
<g id="edge52" class="edge">
<title>48&#45;&gt;52</title>
<path fill="none" stroke="black" d="M966.07,-293.83C984.19,-284.17 1006.62,-272.2 1025.72,-262.01"/>
<polygon fill="black" stroke="black" points="1027.63,-264.97 1034.8,-257.17 1024.33,-258.79 1027.63,-264.97"/>
</g>
<!-- 50 -->
<g id="node51" class="node">
<title>50</title>
<polygon fill="none" stroke="black" points="970,-183 884,-183 884,-147 970,-147 970,-183"/>
<text text-anchor="middle" x="927" y="-161.3" font-family="Times,serif" font-size="14.00">class = USA</text>
</g>
<!-- 49&#45;&gt;50 -->
<g id="edge50" class="edge">
<title>49&#45;&gt;50</title>
<path fill="none" stroke="black" d="M930.74,-219.83C930.19,-211.89 929.53,-202.41 928.92,-193.63"/>
<polygon fill="black" stroke="black" points="932.39,-193.15 928.21,-183.42 925.41,-193.64 932.39,-193.15"/>
</g>
<!-- 51 -->
<g id="node52" class="node">
<title>51</title>
<polygon fill="none" stroke="black" points="1087.5,-183 988.5,-183 988.5,-147 1087.5,-147 1087.5,-183"/>
<text text-anchor="middle" x="1038" y="-161.3" font-family="Times,serif" font-size="14.00">class = Canada</text>
</g>
<!-- 49&#45;&gt;51 -->
<g id="edge51" class="edge">
<title>49&#45;&gt;51</title>
<path fill="none" stroke="black" d="M958.75,-219.83C972.59,-210.43 989.63,-198.86 1004.36,-188.85"/>
<polygon fill="black" stroke="black" points="1006.41,-191.69 1012.72,-183.17 1002.48,-185.9 1006.41,-191.69"/>
</g>
</g>
</svg>
