<?xml version="1.0" encoding="UTF-8" standalone="no"?>
<!DOCTYPE svg PUBLIC "-//W3C//DTD SVG 1.1//EN"
 "http://www.w3.org/Graphics/SVG/1.1/DTD/svg11.dtd">
<!-- Generated by graphviz version 2.44.1 (20200629.0846)
 -->
<!-- Title: Tree Pages: 1 -->
<svg width="1929pt" height="636pt"
 viewBox="0.00 0.00 1929.00 636.00" xmlns="http://www.w3.org/2000/svg" xmlns:xlink="http://www.w3.org/1999/xlink">
<g id="graph0" class="graph" transform="scale(1 1) rotate(0) translate(4 632)">
<title>Tree</title>
<polygon fill="white" stroke="transparent" points="-4,4 -4,-632 1925,-632 1925,4 -4,4"/>
<!-- 0 -->
<g id="node1" class="node">
<title>0</title>
<polygon fill="none" stroke="black" points="631,-628 539,-628 539,-590 631,-590 631,-628"/>
<text text-anchor="middle" x="585" y="-612.8" font-family="Times,serif" font-size="14.00">lat &lt;= 37.682</text>
<text text-anchor="middle" x="585" y="-597.8" font-family="Times,serif" font-size="14.00">class = blue</text>
</g>
<!-- 1 -->
<g id="node2" class="node">
<title>1</title>
<polygon fill="none" stroke="black" points="363.5,-554 256.5,-554 256.5,-516 363.5,-516 363.5,-554"/>
<text text-anchor="middle" x="310" y="-538.8" font-family="Times,serif" font-size="14.00">lon &lt;= &#45;114.063</text>
<text text-anchor="middle" x="310" y="-523.8" font-family="Times,serif" font-size="14.00">class = red</text>
</g>
<!-- 0&#45;&gt;1 -->
<g id="edge1" class="edge">
<title>0&#45;&gt;1</title>
<path fill="none" stroke="black" d="M538.97,-595.95C493.67,-584.09 424.14,-565.88 373.58,-552.65"/>
<polygon fill="black" stroke="black" points="374.29,-549.21 363.73,-550.07 372.52,-555.99 374.29,-549.21"/>
<text text-anchor="middle" x="376.36" y="-567.95" font-family="Times,serif" font-size="14.00">True</text>
</g>
<!-- 24 -->
<g id="node25" class="node">
<title>24</title>
<polygon fill="none" stroke="black" points="967,-554 867,-554 867,-516 967,-516 967,-554"/>
<text text-anchor="middle" x="917" y="-538.8" font-family="Times,serif" font-size="14.00">lon &lt;= &#45;96.061</text>
<text text-anchor="middle" x="917" y="-523.8" font-family="Times,serif" font-size="14.00">class = blue</text>
</g>
<!-- 0&#45;&gt;24 -->
<g id="edge24" class="edge">
<title>0&#45;&gt;24</title>
<path fill="none" stroke="black" d="M631.16,-597.99C690.02,-585.22 791.91,-563.13 856.81,-549.05"/>
<polygon fill="black" stroke="black" points="857.86,-552.41 866.89,-546.87 856.38,-545.57 857.86,-552.41"/>
<text text-anchor="middle" x="853.36" y="-564.19" font-family="Times,serif" font-size="14.00">False</text>
</g>
<!-- 2 -->
<g id="node3" class="node">
<title>2</title>
<polygon fill="none" stroke="black" points="246,-479 164,-479 164,-443 246,-443 246,-479"/>
<text text-anchor="middle" x="205" y="-457.3" font-family="Times,serif" font-size="14.00">class = blue</text>
</g>
<!-- 1&#45;&gt;2 -->
<g id="edge2" class="edge">
<title>1&#45;&gt;2</title>
<path fill="none" stroke="black" d="M283.5,-515.83C269.79,-506.43 252.91,-494.86 238.33,-484.85"/>
<polygon fill="black" stroke="black" points="240.27,-481.94 230.04,-479.17 236.31,-487.71 240.27,-481.94"/>
</g>
<!-- 3 -->
<g id="node4" class="node">
<title>3</title>
<polygon fill="none" stroke="black" points="356,-480 264,-480 264,-442 356,-442 356,-480"/>
<text text-anchor="middle" x="310" y="-464.8" font-family="Times,serif" font-size="14.00">lat &lt;= 29.595</text>
<text text-anchor="middle" x="310" y="-449.8" font-family="Times,serif" font-size="14.00">class = red</text>
</g>
<!-- 1&#45;&gt;3 -->
<g id="edge3" class="edge">
<title>1&#45;&gt;3</title>
<path fill="none" stroke="black" d="M310,-515.83C310,-508.13 310,-498.97 310,-490.42"/>
<polygon fill="black" stroke="black" points="313.5,-490.41 310,-480.41 306.5,-490.41 313.5,-490.41"/>
</g>
<!-- 4 -->
<g id="node5" class="node">
<title>4</title>
<polygon fill="none" stroke="black" points="185,-406 85,-406 85,-368 185,-368 185,-406"/>
<text text-anchor="middle" x="135" y="-390.8" font-family="Times,serif" font-size="14.00">lon &lt;= &#45;90.074</text>
<text text-anchor="middle" x="135" y="-375.8" font-family="Times,serif" font-size="14.00">class = blue</text>
</g>
<!-- 3&#45;&gt;4 -->
<g id="edge4" class="edge">
<title>3&#45;&gt;4</title>
<path fill="none" stroke="black" d="M265.84,-441.83C242.23,-432.12 212.98,-420.08 188.13,-409.86"/>
<polygon fill="black" stroke="black" points="189.42,-406.61 178.84,-406.04 186.76,-413.08 189.42,-406.61"/>
</g>
<!-- 7 -->
<g id="node8" class="node">
<title>7</title>
<polygon fill="none" stroke="black" points="356,-406 264,-406 264,-368 356,-368 356,-406"/>
<text text-anchor="middle" x="310" y="-390.8" font-family="Times,serif" font-size="14.00">lat &lt;= 36.522</text>
<text text-anchor="middle" x="310" y="-375.8" font-family="Times,serif" font-size="14.00">class = red</text>
</g>
<!-- 3&#45;&gt;7 -->
<g id="edge7" class="edge">
<title>3&#45;&gt;7</title>
<path fill="none" stroke="black" d="M310,-441.83C310,-434.13 310,-424.97 310,-416.42"/>
<polygon fill="black" stroke="black" points="313.5,-416.41 310,-406.41 306.5,-416.41 313.5,-416.41"/>
</g>
<!-- 5 -->
<g id="node6" class="node">
<title>5</title>
<polygon fill="none" stroke="black" points="76,-331 0,-331 0,-295 76,-295 76,-331"/>
<text text-anchor="middle" x="38" y="-309.3" font-family="Times,serif" font-size="14.00">class = red</text>
</g>
<!-- 4&#45;&gt;5 -->
<g id="edge5" class="edge">
<title>4&#45;&gt;5</title>
<path fill="none" stroke="black" d="M110.52,-367.83C97.97,-358.52 82.55,-347.07 69.16,-337.13"/>
<polygon fill="black" stroke="black" points="71.25,-334.32 61.13,-331.17 67.08,-339.94 71.25,-334.32"/>
</g>
<!-- 6 -->
<g id="node7" class="node">
<title>6</title>
<polygon fill="none" stroke="black" points="176,-331 94,-331 94,-295 176,-295 176,-331"/>
<text text-anchor="middle" x="135" y="-309.3" font-family="Times,serif" font-size="14.00">class = blue</text>
</g>
<!-- 4&#45;&gt;6 -->
<g id="edge6" class="edge">
<title>4&#45;&gt;6</title>
<path fill="none" stroke="black" d="M135,-367.83C135,-359.89 135,-350.41 135,-341.63"/>
<polygon fill="black" stroke="black" points="138.5,-341.42 135,-331.42 131.5,-341.42 138.5,-341.42"/>
</g>
<!-- 8 -->
<g id="node9" class="node">
<title>8</title>
<polygon fill="none" stroke="black" points="301.5,-332 194.5,-332 194.5,-294 301.5,-294 301.5,-332"/>
<text text-anchor="middle" x="248" y="-316.8" font-family="Times,serif" font-size="14.00">lon &lt;= &#45;102.257</text>
<text text-anchor="middle" x="248" y="-301.8" font-family="Times,serif" font-size="14.00">class = red</text>
</g>
<!-- 7&#45;&gt;8 -->
<g id="edge8" class="edge">
<title>7&#45;&gt;8</title>
<path fill="none" stroke="black" d="M294.35,-367.83C287.14,-359.45 278.44,-349.35 270.54,-340.17"/>
<polygon fill="black" stroke="black" points="273.03,-337.71 263.86,-332.41 267.73,-342.27 273.03,-337.71"/>
</g>
<!-- 15 -->
<g id="node16" class="node">
<title>15</title>
<polygon fill="none" stroke="black" points="420,-332 320,-332 320,-294 420,-294 420,-332"/>
<text text-anchor="middle" x="370" y="-316.8" font-family="Times,serif" font-size="14.00">lon &lt;= &#45;82.415</text>
<text text-anchor="middle" x="370" y="-301.8" font-family="Times,serif" font-size="14.00">class = red</text>
</g>
<!-- 7&#45;&gt;15 -->
<g id="edge15" class="edge">
<title>7&#45;&gt;15</title>
<path fill="none" stroke="black" d="M325.14,-367.83C332.12,-359.45 340.54,-349.35 348.19,-340.17"/>
<polygon fill="black" stroke="black" points="350.94,-342.34 354.66,-332.41 345.56,-337.85 350.94,-342.34"/>
</g>
<!-- 9 -->
<g id="node10" class="node">
<title>9</title>
<polygon fill="none" stroke="black" points="191.5,-258 84.5,-258 84.5,-220 191.5,-220 191.5,-258"/>
<text text-anchor="middle" x="138" y="-242.8" font-family="Times,serif" font-size="14.00">lon &lt;= &#45;107.589</text>
<text text-anchor="middle" x="138" y="-227.8" font-family="Times,serif" font-size="14.00">class = red</text>
</g>
<!-- 8&#45;&gt;9 -->
<g id="edge9" class="edge">
<title>8&#45;&gt;9</title>
<path fill="none" stroke="black" d="M220.24,-293.83C206.3,-284.71 189.24,-273.54 174.28,-263.74"/>
<polygon fill="black" stroke="black" points="176.03,-260.71 165.75,-258.16 172.2,-266.57 176.03,-260.71"/>
</g>
<!-- 14 -->
<g id="node15" class="node">
<title>14</title>
<polygon fill="none" stroke="black" points="286,-257 210,-257 210,-221 286,-221 286,-257"/>
<text text-anchor="middle" x="248" y="-235.3" font-family="Times,serif" font-size="14.00">class = red</text>
</g>
<!-- 8&#45;&gt;14 -->
<g id="edge14" class="edge">
<title>8&#45;&gt;14</title>
<path fill="none" stroke="black" d="M248,-293.83C248,-285.89 248,-276.41 248,-267.63"/>
<polygon fill="black" stroke="black" points="251.5,-267.42 248,-257.42 244.5,-267.42 251.5,-267.42"/>
</g>
<!-- 10 -->
<g id="node11" class="node">
<title>10</title>
<polygon fill="none" stroke="black" points="79,-183 3,-183 3,-147 79,-147 79,-183"/>
<text text-anchor="middle" x="41" y="-161.3" font-family="Times,serif" font-size="14.00">class = red</text>
</g>
<!-- 9&#45;&gt;10 -->
<g id="edge10" class="edge">
<title>9&#45;&gt;10</title>
<path fill="none" stroke="black" d="M113.52,-219.83C100.97,-210.52 85.55,-199.07 72.16,-189.13"/>
<polygon fill="black" stroke="black" points="74.25,-186.32 64.13,-183.17 70.08,-191.94 74.25,-186.32"/>
</g>
<!-- 11 -->
<g id="node12" class="node">
<title>11</title>
<polygon fill="none" stroke="black" points="189,-184 97,-184 97,-146 189,-146 189,-184"/>
<text text-anchor="middle" x="143" y="-168.8" font-family="Times,serif" font-size="14.00">lat &lt;= 31.788</text>
<text text-anchor="middle" x="143" y="-153.8" font-family="Times,serif" font-size="14.00">class = blue</text>
</g>
<!-- 9&#45;&gt;11 -->
<g id="edge11" class="edge">
<title>9&#45;&gt;11</title>
<path fill="none" stroke="black" d="M139.26,-219.83C139.8,-212.13 140.43,-202.97 141.03,-194.42"/>
<polygon fill="black" stroke="black" points="144.52,-194.63 141.72,-184.41 137.54,-194.15 144.52,-194.63"/>
</g>
<!-- 12 -->
<g id="node13" class="node">
<title>12</title>
<polygon fill="none" stroke="black" points="133,-109 57,-109 57,-73 133,-73 133,-109"/>
<text text-anchor="middle" x="95" y="-87.3" font-family="Times,serif" font-size="14.00">class = red</text>
</g>
<!-- 11&#45;&gt;12 -->
<g id="edge12" class="edge">
<title>11&#45;&gt;12</title>
<path fill="none" stroke="black" d="M130.89,-145.83C125.25,-137.37 118.43,-127.15 112.27,-117.9"/>
<polygon fill="black" stroke="black" points="115.07,-115.8 106.61,-109.42 109.25,-119.68 115.07,-115.8"/>
</g>
<!-- 13 -->
<g id="node14" class="node">
<title>13</title>
<polygon fill="none" stroke="black" points="233,-109 151,-109 151,-73 233,-73 233,-109"/>
<text text-anchor="middle" x="192" y="-87.3" font-family="Times,serif" font-size="14.00">class = blue</text>
</g>
<!-- 11&#45;&gt;13 -->
<g id="edge13" class="edge">
<title>11&#45;&gt;13</title>
<path fill="none" stroke="black" d="M155.36,-145.83C161.12,-137.37 168.08,-127.15 174.37,-117.9"/>
<polygon fill="black" stroke="black" points="177.41,-119.65 180.15,-109.42 171.63,-115.72 177.41,-119.65"/>
</g>
<!-- 16 -->
<g id="node17" class="node">
<title>16</title>
<polygon fill="none" stroke="black" points="396,-258 304,-258 304,-220 396,-220 396,-258"/>
<text text-anchor="middle" x="350" y="-242.8" font-family="Times,serif" font-size="14.00">lat &lt;= 36.633</text>
<text text-anchor="middle" x="350" y="-227.8" font-family="Times,serif" font-size="14.00">class = red</text>
</g>
<!-- 15&#45;&gt;16 -->
<g id="edge16" class="edge">
<title>15&#45;&gt;16</title>
<path fill="none" stroke="black" d="M364.95,-293.83C362.79,-286.05 360.21,-276.77 357.82,-268.13"/>
<polygon fill="black" stroke="black" points="361.16,-267.11 355.11,-258.41 354.42,-268.99 361.16,-267.11"/>
</g>
<!-- 19 -->
<g id="node20" class="node">
<title>19</title>
<polygon fill="none" stroke="black" points="514,-258 414,-258 414,-220 514,-220 514,-258"/>
<text text-anchor="middle" x="464" y="-242.8" font-family="Times,serif" font-size="14.00">lon &lt;= &#45;80.706</text>
<text text-anchor="middle" x="464" y="-227.8" font-family="Times,serif" font-size="14.00">class = blue</text>
</g>
<!-- 15&#45;&gt;19 -->
<g id="edge19" class="edge">
<title>15&#45;&gt;19</title>
<path fill="none" stroke="black" d="M393.72,-293.83C405.41,-284.88 419.67,-273.96 432.28,-264.3"/>
<polygon fill="black" stroke="black" points="434.48,-267.02 440.29,-258.16 430.22,-261.47 434.48,-267.02"/>
</g>
<!-- 17 -->
<g id="node18" class="node">
<title>17</title>
<polygon fill="none" stroke="black" points="294,-183 212,-183 212,-147 294,-147 294,-183"/>
<text text-anchor="middle" x="253" y="-161.3" font-family="Times,serif" font-size="14.00">class = blue</text>
</g>
<!-- 16&#45;&gt;17 -->
<g id="edge17" class="edge">
<title>16&#45;&gt;17</title>
<path fill="none" stroke="black" d="M325.52,-219.83C312.97,-210.52 297.55,-199.07 284.16,-189.13"/>
<polygon fill="black" stroke="black" points="286.25,-186.32 276.13,-183.17 282.08,-191.94 286.25,-186.32"/>
</g>
<!-- 18 -->
<g id="node19" class="node">
<title>18</title>
<polygon fill="none" stroke="black" points="388,-183 312,-183 312,-147 388,-147 388,-183"/>
<text text-anchor="middle" x="350" y="-161.3" font-family="Times,serif" font-size="14.00">class = red</text>
</g>
<!-- 16&#45;&gt;18 -->
<g id="edge18" class="edge">
<title>16&#45;&gt;18</title>
<path fill="none" stroke="black" d="M350,-219.83C350,-211.89 350,-202.41 350,-193.63"/>
<polygon fill="black" stroke="black" points="353.5,-193.42 350,-183.42 346.5,-193.42 353.5,-193.42"/>
</g>
<!-- 20 -->
<g id="node21" class="node">
<title>20</title>
<polygon fill="none" stroke="black" points="491.5,-184 406.5,-184 406.5,-146 491.5,-146 491.5,-184"/>
<text text-anchor="middle" x="449" y="-168.8" font-family="Times,serif" font-size="14.00">lat &lt;= 37.15</text>
<text text-anchor="middle" x="449" y="-153.8" font-family="Times,serif" font-size="14.00">class = blue</text>
</g>
<!-- 19&#45;&gt;20 -->
<g id="edge20" class="edge">
<title>19&#45;&gt;20</title>
<path fill="none" stroke="black" d="M460.21,-219.83C458.61,-212.13 456.7,-202.97 454.92,-194.42"/>
<polygon fill="black" stroke="black" points="458.3,-193.49 452.84,-184.41 451.45,-194.92 458.3,-193.49"/>
</g>
<!-- 23 -->
<g id="node24" class="node">
<title>23</title>
<polygon fill="none" stroke="black" points="592,-183 510,-183 510,-147 592,-147 592,-183"/>
<text text-anchor="middle" x="551" y="-161.3" font-family="Times,serif" font-size="14.00">class = blue</text>
</g>
<!-- 19&#45;&gt;23 -->
<g id="edge23" class="edge">
<title>19&#45;&gt;23</title>
<path fill="none" stroke="black" d="M485.95,-219.83C497,-210.69 510.52,-199.5 522.37,-189.7"/>
<polygon fill="black" stroke="black" points="524.78,-192.24 530.25,-183.17 520.32,-186.85 524.78,-192.24"/>
</g>
<!-- 21 -->
<g id="node22" class="node">
<title>21</title>
<polygon fill="none" stroke="black" points="442,-109 360,-109 360,-73 442,-73 442,-109"/>
<text text-anchor="middle" x="401" y="-87.3" font-family="Times,serif" font-size="14.00">class = blue</text>
</g>
<!-- 20&#45;&gt;21 -->
<g id="edge21" class="edge">
<title>20&#45;&gt;21</title>
<path fill="none" stroke="black" d="M436.89,-145.83C431.25,-137.37 424.43,-127.15 418.27,-117.9"/>
<polygon fill="black" stroke="black" points="421.07,-115.8 412.61,-109.42 415.25,-119.68 421.07,-115.8"/>
</g>
<!-- 22 -->
<g id="node23" class="node">
<title>22</title>
<polygon fill="none" stroke="black" points="536,-109 460,-109 460,-73 536,-73 536,-109"/>
<text text-anchor="middle" x="498" y="-87.3" font-family="Times,serif" font-size="14.00">class = red</text>
</g>
<!-- 20&#45;&gt;22 -->
<g id="edge22" class="edge">
<title>20&#45;&gt;22</title>
<path fill="none" stroke="black" d="M461.36,-145.83C467.12,-137.37 474.08,-127.15 480.37,-117.9"/>
<polygon fill="black" stroke="black" points="483.41,-119.65 486.15,-109.42 477.63,-115.72 483.41,-119.65"/>
</g>
<!-- 25 -->
<g id="node26" class="node">
<title>25</title>
<polygon fill="none" stroke="black" points="970.5,-480 863.5,-480 863.5,-442 970.5,-442 970.5,-480"/>
<text text-anchor="middle" x="917" y="-464.8" font-family="Times,serif" font-size="14.00">lon &lt;= &#45;104.089</text>
<text text-anchor="middle" x="917" y="-449.8" font-family="Times,serif" font-size="14.00">class = red</text>
</g>
<!-- 24&#45;&gt;25 -->
<g id="edge25" class="edge">
<title>24&#45;&gt;25</title>
<path fill="none" stroke="black" d="M917,-515.83C917,-508.13 917,-498.97 917,-490.42"/>
<polygon fill="black" stroke="black" points="920.5,-490.41 917,-480.41 913.5,-490.41 920.5,-490.41"/>
</g>
<!-- 42 -->
<g id="node43" class="node">
<title>42</title>
<polygon fill="none" stroke="black" points="1530,-480 1438,-480 1438,-442 1530,-442 1530,-480"/>
<text text-anchor="middle" x="1484" y="-464.8" font-family="Times,serif" font-size="14.00">lat &lt;= 39.759</text>
<text text-anchor="middle" x="1484" y="-449.8" font-family="Times,serif" font-size="14.00">class = blue</text>
</g>
<!-- 24&#45;&gt;42 -->
<g id="edge42" class="edge">
<title>24&#45;&gt;42</title>
<path fill="none" stroke="black" d="M967.32,-527.61C1072.97,-514.19 1317.26,-483.17 1427.83,-469.13"/>
<polygon fill="black" stroke="black" points="1428.31,-472.6 1437.79,-467.87 1427.43,-465.66 1428.31,-472.6"/>
</g>
<!-- 26 -->
<g id="node27" class="node">
<title>26</title>
<polygon fill="none" stroke="black" points="906,-406 814,-406 814,-368 906,-368 906,-406"/>
<text text-anchor="middle" x="860" y="-390.8" font-family="Times,serif" font-size="14.00">lat &lt;= 41.895</text>
<text text-anchor="middle" x="860" y="-375.8" font-family="Times,serif" font-size="14.00">class = blue</text>
</g>
<!-- 25&#45;&gt;26 -->
<g id="edge26" class="edge">
<title>25&#45;&gt;26</title>
<path fill="none" stroke="black" d="M902.62,-441.83C896.05,-433.54 888.15,-423.56 880.94,-414.45"/>
<polygon fill="black" stroke="black" points="883.53,-412.08 874.58,-406.41 878.04,-416.43 883.53,-412.08"/>
</g>
<!-- 37 -->
<g id="node38" class="node">
<title>37</title>
<polygon fill="none" stroke="black" points="1024,-406 924,-406 924,-368 1024,-368 1024,-406"/>
<text text-anchor="middle" x="974" y="-390.8" font-family="Times,serif" font-size="14.00">lon &lt;= &#45;96.557</text>
<text text-anchor="middle" x="974" y="-375.8" font-family="Times,serif" font-size="14.00">class = red</text>
</g>
<!-- 25&#45;&gt;37 -->
<g id="edge37" class="edge">
<title>25&#45;&gt;37</title>
<path fill="none" stroke="black" d="M931.38,-441.83C937.95,-433.54 945.85,-423.56 953.06,-414.45"/>
<polygon fill="black" stroke="black" points="955.96,-416.43 959.42,-406.41 950.47,-412.08 955.96,-416.43"/>
</g>
<!-- 27 -->
<g id="node28" class="node">
<title>27</title>
<polygon fill="none" stroke="black" points="803.5,-332 718.5,-332 718.5,-294 803.5,-294 803.5,-332"/>
<text text-anchor="middle" x="761" y="-316.8" font-family="Times,serif" font-size="14.00">lat &lt;= 38.44</text>
<text text-anchor="middle" x="761" y="-301.8" font-family="Times,serif" font-size="14.00">class = blue</text>
</g>
<!-- 26&#45;&gt;27 -->
<g id="edge27" class="edge">
<title>26&#45;&gt;27</title>
<path fill="none" stroke="black" d="M835.02,-367.83C822.71,-358.88 807.69,-347.96 794.41,-338.3"/>
<polygon fill="black" stroke="black" points="796.12,-335.21 785.97,-332.16 792,-340.88 796.12,-335.21"/>
</g>
<!-- 32 -->
<g id="node33" class="node">
<title>32</title>
<polygon fill="none" stroke="black" points="906.5,-332 821.5,-332 821.5,-294 906.5,-294 906.5,-332"/>
<text text-anchor="middle" x="864" y="-316.8" font-family="Times,serif" font-size="14.00">lat &lt;= 45.33</text>
<text text-anchor="middle" x="864" y="-301.8" font-family="Times,serif" font-size="14.00">class = red</text>
</g>
<!-- 26&#45;&gt;32 -->
<g id="edge32" class="edge">
<title>26&#45;&gt;32</title>
<path fill="none" stroke="black" d="M861.01,-367.83C861.44,-360.13 861.95,-350.97 862.42,-342.42"/>
<polygon fill="black" stroke="black" points="865.92,-342.59 862.98,-332.41 858.93,-342.2 865.92,-342.59"/>
</g>
<!-- 28 -->
<g id="node29" class="node">
<title>28</title>
<polygon fill="none" stroke="black" points="704.5,-258 597.5,-258 597.5,-220 704.5,-220 704.5,-258"/>
<text text-anchor="middle" x="651" y="-242.8" font-family="Times,serif" font-size="14.00">lon &lt;= &#45;115.526</text>
<text text-anchor="middle" x="651" y="-227.8" font-family="Times,serif" font-size="14.00">class = blue</text>
</g>
<!-- 27&#45;&gt;28 -->
<g id="edge28" class="edge">
<title>27&#45;&gt;28</title>
<path fill="none" stroke="black" d="M733.24,-293.83C719.3,-284.71 702.24,-273.54 687.28,-263.74"/>
<polygon fill="black" stroke="black" points="689.03,-260.71 678.75,-258.16 685.2,-266.57 689.03,-260.71"/>
</g>
<!-- 31 -->
<g id="node32" class="node">
<title>31</title>
<polygon fill="none" stroke="black" points="805,-257 723,-257 723,-221 805,-221 805,-257"/>
<text text-anchor="middle" x="764" y="-235.3" font-family="Times,serif" font-size="14.00">class = blue</text>
</g>
<!-- 27&#45;&gt;31 -->
<g id="edge31" class="edge">
<title>27&#45;&gt;31</title>
<path fill="none" stroke="black" d="M761.76,-293.83C762.09,-285.89 762.48,-276.41 762.85,-267.63"/>
<polygon fill="black" stroke="black" points="766.35,-267.55 763.27,-257.42 759.36,-267.26 766.35,-267.55"/>
</g>
<!-- 29 -->
<g id="node30" class="node">
<title>29</title>
<polygon fill="none" stroke="black" points="692,-183 610,-183 610,-147 692,-147 692,-183"/>
<text text-anchor="middle" x="651" y="-161.3" font-family="Times,serif" font-size="14.00">class = blue</text>
</g>
<!-- 28&#45;&gt;29 -->
<g id="edge29" class="edge">
<title>28&#45;&gt;29</title>
<path fill="none" stroke="black" d="M651,-219.83C651,-211.89 651,-202.41 651,-193.63"/>
<polygon fill="black" stroke="black" points="654.5,-193.42 651,-183.42 647.5,-193.42 654.5,-193.42"/>
</g>
<!-- 30 -->
<g id="node31" class="node">
<title>30</title>
<polygon fill="none" stroke="black" points="786,-183 710,-183 710,-147 786,-147 786,-183"/>
<text text-anchor="middle" x="748" y="-161.3" font-family="Times,serif" font-size="14.00">class = red</text>
</g>
<!-- 28&#45;&gt;30 -->
<g id="edge30" class="edge">
<title>28&#45;&gt;30</title>
<path fill="none" stroke="black" d="M675.48,-219.83C688.03,-210.52 703.45,-199.07 716.84,-189.13"/>
<polygon fill="black" stroke="black" points="718.92,-191.94 724.87,-183.17 714.75,-186.32 718.92,-191.94"/>
</g>
<!-- 33 -->
<g id="node34" class="node">
<title>33</title>
<polygon fill="none" stroke="black" points="899,-257 823,-257 823,-221 899,-221 899,-257"/>
<text text-anchor="middle" x="861" y="-235.3" font-family="Times,serif" font-size="14.00">class = red</text>
</g>
<!-- 32&#45;&gt;33 -->
<g id="edge33" class="edge">
<title>32&#45;&gt;33</title>
<path fill="none" stroke="black" d="M863.24,-293.83C862.91,-285.89 862.52,-276.41 862.15,-267.63"/>
<polygon fill="black" stroke="black" points="865.64,-267.26 861.73,-257.42 858.65,-267.55 865.64,-267.26"/>
</g>
<!-- 34 -->
<g id="node35" class="node">
<title>34</title>
<polygon fill="none" stroke="black" points="1009,-258 917,-258 917,-220 1009,-220 1009,-258"/>
<text text-anchor="middle" x="963" y="-242.8" font-family="Times,serif" font-size="14.00">lat &lt;= 50.907</text>
<text text-anchor="middle" x="963" y="-227.8" font-family="Times,serif" font-size="14.00">class = blue</text>
</g>
<!-- 32&#45;&gt;34 -->
<g id="edge34" class="edge">
<title>32&#45;&gt;34</title>
<path fill="none" stroke="black" d="M888.98,-293.83C901.29,-284.88 916.31,-273.96 929.59,-264.3"/>
<polygon fill="black" stroke="black" points="932,-266.88 938.03,-258.16 927.88,-261.21 932,-266.88"/>
</g>
<!-- 35 -->
<g id="node36" class="node">
<title>35</title>
<polygon fill="none" stroke="black" points="975,-183 893,-183 893,-147 975,-147 975,-183"/>
<text text-anchor="middle" x="934" y="-161.3" font-family="Times,serif" font-size="14.00">class = blue</text>
</g>
<!-- 34&#45;&gt;35 -->
<g id="edge35" class="edge">
<title>34&#45;&gt;35</title>
<path fill="none" stroke="black" d="M955.68,-219.83C952.38,-211.63 948.41,-201.78 944.78,-192.76"/>
<polygon fill="black" stroke="black" points="948,-191.39 941.02,-183.42 941.51,-194 948,-191.39"/>
</g>
<!-- 36 -->
<g id="node37" class="node">
<title>36</title>
<polygon fill="none" stroke="black" points="1069,-183 993,-183 993,-147 1069,-147 1069,-183"/>
<text text-anchor="middle" x="1031" y="-161.3" font-family="Times,serif" font-size="14.00">class = red</text>
</g>
<!-- 34&#45;&gt;36 -->
<g id="edge36" class="edge">
<title>34&#45;&gt;36</title>
<path fill="none" stroke="black" d="M980.16,-219.83C988.48,-211.02 998.6,-200.31 1007.61,-190.76"/>
<polygon fill="black" stroke="black" points="1010.23,-193.09 1014.55,-183.42 1005.14,-188.28 1010.23,-193.09"/>
</g>
<!-- 38 -->
<g id="node39" class="node">
<title>38</title>
<polygon fill="none" stroke="black" points="1005,-331 929,-331 929,-295 1005,-295 1005,-331"/>
<text text-anchor="middle" x="967" y="-309.3" font-family="Times,serif" font-size="14.00">class = red</text>
</g>
<!-- 37&#45;&gt;38 -->
<g id="edge38" class="edge">
<title>37&#45;&gt;38</title>
<path fill="none" stroke="black" d="M972.23,-367.83C971.46,-359.89 970.54,-350.41 969.69,-341.63"/>
<polygon fill="black" stroke="black" points="973.14,-341.03 968.69,-331.42 966.18,-341.71 973.14,-341.03"/>
</g>
<!-- 39 -->
<g id="node40" class="node">
<title>39</title>
<polygon fill="none" stroke="black" points="1115,-332 1023,-332 1023,-294 1115,-294 1115,-332"/>
<text text-anchor="middle" x="1069" y="-316.8" font-family="Times,serif" font-size="14.00">lat &lt;= 42.007</text>
<text text-anchor="middle" x="1069" y="-301.8" font-family="Times,serif" font-size="14.00">class = blue</text>
</g>
<!-- 37&#45;&gt;39 -->
<g id="edge39" class="edge">
<title>37&#45;&gt;39</title>
<path fill="none" stroke="black" d="M997.97,-367.83C1009.79,-358.88 1024.2,-347.96 1036.94,-338.3"/>
<polygon fill="black" stroke="black" points="1039.18,-340.99 1045.04,-332.16 1034.95,-335.41 1039.18,-340.99"/>
</g>
<!-- 40 -->
<g id="node41" class="node">
<title>40</title>
<polygon fill="none" stroke="black" points="1103,-257 1027,-257 1027,-221 1103,-221 1103,-257"/>
<text text-anchor="middle" x="1065" y="-235.3" font-family="Times,serif" font-size="14.00">class = red</text>
</g>
<!-- 39&#45;&gt;40 -->
<g id="edge40" class="edge">
<title>39&#45;&gt;40</title>
<path fill="none" stroke="black" d="M1067.99,-293.83C1067.55,-285.89 1067.02,-276.41 1066.53,-267.63"/>
<polygon fill="black" stroke="black" points="1070.02,-267.21 1065.97,-257.42 1063.03,-267.6 1070.02,-267.21"/>
</g>
<!-- 41 -->
<g id="node42" class="node">
<title>41</title>
<polygon fill="none" stroke="black" points="1203,-257 1121,-257 1121,-221 1203,-221 1203,-257"/>
<text text-anchor="middle" x="1162" y="-235.3" font-family="Times,serif" font-size="14.00">class = blue</text>
</g>
<!-- 39&#45;&gt;41 -->
<g id="edge41" class="edge">
<title>39&#45;&gt;41</title>
<path fill="none" stroke="black" d="M1092.47,-293.83C1104.39,-284.6 1119,-273.29 1131.76,-263.41"/>
<polygon fill="black" stroke="black" points="1134.06,-266.06 1139.82,-257.17 1129.77,-260.53 1134.06,-266.06"/>
</g>
<!-- 43 -->
<g id="node44" class="node">
<title>43</title>
<polygon fill="none" stroke="black" points="1534,-406 1434,-406 1434,-368 1534,-368 1534,-406"/>
<text text-anchor="middle" x="1484" y="-390.8" font-family="Times,serif" font-size="14.00">lon &lt;= &#45;79.773</text>
<text text-anchor="middle" x="1484" y="-375.8" font-family="Times,serif" font-size="14.00">class = blue</text>
</g>
<!-- 42&#45;&gt;43 -->
<g id="edge43" class="edge">
<title>42&#45;&gt;43</title>
<path fill="none" stroke="black" d="M1484,-441.83C1484,-434.13 1484,-424.97 1484,-416.42"/>
<polygon fill="black" stroke="black" points="1487.5,-416.41 1484,-406.41 1480.5,-416.41 1487.5,-416.41"/>
</g>
<!-- 62 -->
<g id="node63" class="node">
<title>62</title>
<polygon fill="none" stroke="black" points="1821,-406 1721,-406 1721,-368 1821,-368 1821,-406"/>
<text text-anchor="middle" x="1771" y="-390.8" font-family="Times,serif" font-size="14.00">lon &lt;= &#45;84.905</text>
<text text-anchor="middle" x="1771" y="-375.8" font-family="Times,serif" font-size="14.00">class = blue</text>
</g>
<!-- 42&#45;&gt;62 -->
<g id="edge62" class="edge">
<title>42&#45;&gt;62</title>
<path fill="none" stroke="black" d="M1530.11,-448.43C1579.19,-436.12 1657.04,-416.59 1710.89,-403.08"/>
<polygon fill="black" stroke="black" points="1711.81,-406.46 1720.66,-400.63 1710.11,-399.67 1711.81,-406.46"/>
</g>
<!-- 44 -->
<g id="node45" class="node">
<title>44</title>
<polygon fill="none" stroke="black" points="1466,-332 1366,-332 1366,-294 1466,-294 1466,-332"/>
<text text-anchor="middle" x="1416" y="-316.8" font-family="Times,serif" font-size="14.00">lon &lt;= &#45;87.643</text>
<text text-anchor="middle" x="1416" y="-301.8" font-family="Times,serif" font-size="14.00">class = red</text>
</g>
<!-- 43&#45;&gt;44 -->
<g id="edge44" class="edge">
<title>43&#45;&gt;44</title>
<path fill="none" stroke="black" d="M1466.84,-367.83C1458.85,-359.37 1449.2,-349.15 1440.46,-339.9"/>
<polygon fill="black" stroke="black" points="1442.8,-337.28 1433.39,-332.41 1437.71,-342.09 1442.8,-337.28"/>
</g>
<!-- 57 -->
<g id="node58" class="node">
<title>57</title>
<polygon fill="none" stroke="black" points="1603,-332 1503,-332 1503,-294 1603,-294 1603,-332"/>
<text text-anchor="middle" x="1553" y="-316.8" font-family="Times,serif" font-size="14.00">lon &lt;= &#45;78.395</text>
<text text-anchor="middle" x="1553" y="-301.8" font-family="Times,serif" font-size="14.00">class = blue</text>
</g>
<!-- 43&#45;&gt;57 -->
<g id="edge57" class="edge">
<title>43&#45;&gt;57</title>
<path fill="none" stroke="black" d="M1501.41,-367.83C1509.52,-359.37 1519.32,-349.15 1528.18,-339.9"/>
<polygon fill="black" stroke="black" points="1530.96,-342.05 1535.35,-332.41 1525.91,-337.21 1530.96,-342.05"/>
</g>
<!-- 45 -->
<g id="node46" class="node">
<title>45</title>
<polygon fill="none" stroke="black" points="1314.5,-258 1221.5,-258 1221.5,-220 1314.5,-220 1314.5,-258"/>
<text text-anchor="middle" x="1268" y="-242.8" font-family="Times,serif" font-size="14.00">lon &lt;= &#45;90.12</text>
<text text-anchor="middle" x="1268" y="-227.8" font-family="Times,serif" font-size="14.00">class = blue</text>
</g>
<!-- 44&#45;&gt;45 -->
<g id="edge45" class="edge">
<title>44&#45;&gt;45</title>
<path fill="none" stroke="black" d="M1378.65,-293.83C1359.12,-284.33 1335.04,-272.61 1314.33,-262.54"/>
<polygon fill="black" stroke="black" points="1315.6,-259.27 1305.08,-258.04 1312.54,-265.56 1315.6,-259.27"/>
</g>
<!-- 52 -->
<g id="node53" class="node">
<title>52</title>
<polygon fill="none" stroke="black" points="1462,-258 1370,-258 1370,-220 1462,-220 1462,-258"/>
<text text-anchor="middle" x="1416" y="-242.8" font-family="Times,serif" font-size="14.00">lat &lt;= 38.562</text>
<text text-anchor="middle" x="1416" y="-227.8" font-family="Times,serif" font-size="14.00">class = red</text>
</g>
<!-- 44&#45;&gt;52 -->
<g id="edge52" class="edge">
<title>44&#45;&gt;52</title>
<path fill="none" stroke="black" d="M1416,-293.83C1416,-286.13 1416,-276.97 1416,-268.42"/>
<polygon fill="black" stroke="black" points="1419.5,-268.41 1416,-258.41 1412.5,-268.41 1419.5,-268.41"/>
</g>
<!-- 46 -->
<g id="node47" class="node">
<title>46</title>
<polygon fill="none" stroke="black" points="1194,-184 1094,-184 1094,-146 1194,-146 1194,-184"/>
<text text-anchor="middle" x="1144" y="-168.8" font-family="Times,serif" font-size="14.00">lon &lt;= &#45;90.841</text>
<text text-anchor="middle" x="1144" y="-153.8" font-family="Times,serif" font-size="14.00">class = red</text>
</g>
<!-- 45&#45;&gt;46 -->
<g id="edge46" class="edge">
<title>45&#45;&gt;46</title>
<path fill="none" stroke="black" d="M1236.71,-219.83C1220.7,-210.54 1201.04,-199.12 1183.95,-189.2"/>
<polygon fill="black" stroke="black" points="1185.69,-186.16 1175.28,-184.16 1182.17,-192.21 1185.69,-186.16"/>
</g>
<!-- 51 -->
<g id="node52" class="node">
<title>51</title>
<polygon fill="none" stroke="black" points="1294,-183 1212,-183 1212,-147 1294,-147 1294,-183"/>
<text text-anchor="middle" x="1253" y="-161.3" font-family="Times,serif" font-size="14.00">class = blue</text>
</g>
<!-- 45&#45;&gt;51 -->
<g id="edge51" class="edge">
<title>45&#45;&gt;51</title>
<path fill="none" stroke="black" d="M1264.21,-219.83C1262.54,-211.81 1260.54,-202.2 1258.7,-193.34"/>
<polygon fill="black" stroke="black" points="1262.09,-192.49 1256.63,-183.42 1255.24,-193.92 1262.09,-192.49"/>
</g>
<!-- 47 -->
<g id="node48" class="node">
<title>47</title>
<polygon fill="none" stroke="black" points="1133,-109 1057,-109 1057,-73 1133,-73 1133,-109"/>
<text text-anchor="middle" x="1095" y="-87.3" font-family="Times,serif" font-size="14.00">class = red</text>
</g>
<!-- 46&#45;&gt;47 -->
<g id="edge47" class="edge">
<title>46&#45;&gt;47</title>
<path fill="none" stroke="black" d="M1131.64,-145.83C1125.88,-137.37 1118.92,-127.15 1112.63,-117.9"/>
<polygon fill="black" stroke="black" points="1115.37,-115.72 1106.85,-109.42 1109.59,-119.65 1115.37,-115.72"/>
</g>
<!-- 48 -->
<g id="node49" class="node">
<title>48</title>
<polygon fill="none" stroke="black" points="1236.5,-110 1151.5,-110 1151.5,-72 1236.5,-72 1236.5,-110"/>
<text text-anchor="middle" x="1194" y="-94.8" font-family="Times,serif" font-size="14.00">lat &lt;= 38.85</text>
<text text-anchor="middle" x="1194" y="-79.8" font-family="Times,serif" font-size="14.00">class = blue</text>
</g>
<!-- 46&#45;&gt;48 -->
<g id="edge48" class="edge">
<title>46&#45;&gt;48</title>
<path fill="none" stroke="black" d="M1156.62,-145.83C1162.32,-137.62 1169.17,-127.76 1175.44,-118.73"/>
<polygon fill="black" stroke="black" points="1178.38,-120.62 1181.21,-110.41 1172.63,-116.63 1178.38,-120.62"/>
</g>
<!-- 49 -->
<g id="node50" class="node">
<title>49</title>
<polygon fill="none" stroke="black" points="1184,-36 1108,-36 1108,0 1184,0 1184,-36"/>
<text text-anchor="middle" x="1146" y="-14.3" font-family="Times,serif" font-size="14.00">class = red</text>
</g>
<!-- 48&#45;&gt;49 -->
<g id="edge49" class="edge">
<title>48&#45;&gt;49</title>
<path fill="none" stroke="black" d="M1181.64,-71.72C1176,-63.37 1169.22,-53.35 1163.1,-44.3"/>
<polygon fill="black" stroke="black" points="1166,-42.33 1157.5,-36 1160.2,-46.25 1166,-42.33"/>
</g>
<!-- 50 -->
<g id="node51" class="node">
<title>50</title>
<polygon fill="none" stroke="black" points="1284,-36 1202,-36 1202,0 1284,0 1284,-36"/>
<text text-anchor="middle" x="1243" y="-14.3" font-family="Times,serif" font-size="14.00">class = blue</text>
</g>
<!-- 48&#45;&gt;50 -->
<g id="edge50" class="edge">
<title>48&#45;&gt;50</title>
<path fill="none" stroke="black" d="M1206.62,-71.72C1212.38,-63.37 1219.29,-53.35 1225.54,-44.3"/>
<polygon fill="black" stroke="black" points="1228.47,-46.22 1231.27,-36 1222.7,-42.25 1228.47,-46.22"/>
</g>
<!-- 53 -->
<g id="node54" class="node">
<title>53</title>
<polygon fill="none" stroke="black" points="1404,-184 1312,-184 1312,-146 1404,-146 1404,-184"/>
<text text-anchor="middle" x="1358" y="-168.8" font-family="Times,serif" font-size="14.00">lat &lt;= 38.324</text>
<text text-anchor="middle" x="1358" y="-153.8" font-family="Times,serif" font-size="14.00">class = red</text>
</g>
<!-- 52&#45;&gt;53 -->
<g id="edge53" class="edge">
<title>52&#45;&gt;53</title>
<path fill="none" stroke="black" d="M1401.36,-219.83C1394.68,-211.54 1386.64,-201.56 1379.31,-192.45"/>
<polygon fill="black" stroke="black" points="1381.83,-190.01 1372.83,-184.41 1376.38,-194.4 1381.83,-190.01"/>
</g>
<!-- 56 -->
<g id="node57" class="node">
<title>56</title>
<polygon fill="none" stroke="black" points="1498,-183 1422,-183 1422,-147 1498,-147 1498,-183"/>
<text text-anchor="middle" x="1460" y="-161.3" font-family="Times,serif" font-size="14.00">class = red</text>
</g>
<!-- 52&#45;&gt;56 -->
<g id="edge56" class="edge">
<title>52&#45;&gt;56</title>
<path fill="none" stroke="black" d="M1427.1,-219.83C1432.22,-211.46 1438.39,-201.36 1444,-192.19"/>
<polygon fill="black" stroke="black" points="1447.13,-193.78 1449.36,-183.42 1441.15,-190.13 1447.13,-193.78"/>
</g>
<!-- 54 -->
<g id="node55" class="node">
<title>54</title>
<polygon fill="none" stroke="black" points="1388,-109 1312,-109 1312,-73 1388,-73 1388,-109"/>
<text text-anchor="middle" x="1350" y="-87.3" font-family="Times,serif" font-size="14.00">class = red</text>
</g>
<!-- 53&#45;&gt;54 -->
<g id="edge54" class="edge">
<title>53&#45;&gt;54</title>
<path fill="none" stroke="black" d="M1355.98,-145.83C1355.1,-137.89 1354.05,-128.41 1353.07,-119.63"/>
<polygon fill="black" stroke="black" points="1356.52,-118.97 1351.94,-109.42 1349.56,-119.74 1356.52,-118.97"/>
</g>
<!-- 55 -->
<g id="node56" class="node">
<title>55</title>
<polygon fill="none" stroke="black" points="1488,-109 1406,-109 1406,-73 1488,-73 1488,-109"/>
<text text-anchor="middle" x="1447" y="-87.3" font-family="Times,serif" font-size="14.00">class = blue</text>
</g>
<!-- 53&#45;&gt;55 -->
<g id="edge55" class="edge">
<title>53&#45;&gt;55</title>
<path fill="none" stroke="black" d="M1380.46,-145.83C1391.76,-136.69 1405.59,-125.5 1417.71,-115.7"/>
<polygon fill="black" stroke="black" points="1420.2,-118.18 1425.77,-109.17 1415.8,-112.74 1420.2,-118.18"/>
</g>
<!-- 58 -->
<g id="node59" class="node">
<title>58</title>
<polygon fill="none" stroke="black" points="1603,-258 1503,-258 1503,-220 1603,-220 1603,-258"/>
<text text-anchor="middle" x="1553" y="-242.8" font-family="Times,serif" font-size="14.00">lon &lt;= &#45;78.878</text>
<text text-anchor="middle" x="1553" y="-227.8" font-family="Times,serif" font-size="14.00">class = blue</text>
</g>
<!-- 57&#45;&gt;58 -->
<g id="edge58" class="edge">
<title>57&#45;&gt;58</title>
<path fill="none" stroke="black" d="M1553,-293.83C1553,-286.13 1553,-276.97 1553,-268.42"/>
<polygon fill="black" stroke="black" points="1556.5,-268.41 1553,-258.41 1549.5,-268.41 1556.5,-268.41"/>
</g>
<!-- 61 -->
<g id="node62" class="node">
<title>61</title>
<polygon fill="none" stroke="black" points="1703,-257 1621,-257 1621,-221 1703,-221 1703,-257"/>
<text text-anchor="middle" x="1662" y="-235.3" font-family="Times,serif" font-size="14.00">class = blue</text>
</g>
<!-- 57&#45;&gt;61 -->
<g id="edge61" class="edge">
<title>57&#45;&gt;61</title>
<path fill="none" stroke="black" d="M1580.51,-293.83C1594.74,-284.43 1612.26,-272.86 1627.41,-262.85"/>
<polygon fill="black" stroke="black" points="1629.59,-265.6 1636,-257.17 1625.73,-259.76 1629.59,-265.6"/>
</g>
<!-- 59 -->
<g id="node60" class="node">
<title>59</title>
<polygon fill="none" stroke="black" points="1598,-183 1516,-183 1516,-147 1598,-147 1598,-183"/>
<text text-anchor="middle" x="1557" y="-161.3" font-family="Times,serif" font-size="14.00">class = blue</text>
</g>
<!-- 58&#45;&gt;59 -->
<g id="edge59" class="edge">
<title>58&#45;&gt;59</title>
<path fill="none" stroke="black" d="M1554.01,-219.83C1554.45,-211.89 1554.98,-202.41 1555.47,-193.63"/>
<polygon fill="black" stroke="black" points="1558.97,-193.6 1556.03,-183.42 1551.98,-193.21 1558.97,-193.6"/>
</g>
<!-- 60 -->
<g id="node61" class="node">
<title>60</title>
<polygon fill="none" stroke="black" points="1692,-183 1616,-183 1616,-147 1692,-147 1692,-183"/>
<text text-anchor="middle" x="1654" y="-161.3" font-family="Times,serif" font-size="14.00">class = red</text>
</g>
<!-- 58&#45;&gt;60 -->
<g id="edge60" class="edge">
<title>58&#45;&gt;60</title>
<path fill="none" stroke="black" d="M1578.49,-219.83C1591.55,-210.52 1607.61,-199.07 1621.55,-189.13"/>
<polygon fill="black" stroke="black" points="1623.8,-191.83 1629.91,-183.17 1619.74,-186.13 1623.8,-191.83"/>
</g>
<!-- 63 -->
<g id="node64" class="node">
<title>63</title>
<polygon fill="none" stroke="black" points="1817,-332 1725,-332 1725,-294 1817,-294 1817,-332"/>
<text text-anchor="middle" x="1771" y="-316.8" font-family="Times,serif" font-size="14.00">lat &lt;= 41.739</text>
<text text-anchor="middle" x="1771" y="-301.8" font-family="Times,serif" font-size="14.00">class = blue</text>
</g>
<!-- 62&#45;&gt;63 -->
<g id="edge63" class="edge">
<title>62&#45;&gt;63</title>
<path fill="none" stroke="black" d="M1771,-367.83C1771,-360.13 1771,-350.97 1771,-342.42"/>
<polygon fill="black" stroke="black" points="1774.5,-342.41 1771,-332.41 1767.5,-342.41 1774.5,-342.41"/>
</g>
<!-- 72 -->
<g id="node73" class="node">
<title>72</title>
<polygon fill="none" stroke="black" points="1917,-331 1835,-331 1835,-295 1917,-295 1917,-331"/>
<text text-anchor="middle" x="1876" y="-309.3" font-family="Times,serif" font-size="14.00">class = blue</text>
</g>
<!-- 62&#45;&gt;72 -->
<g id="edge72" class="edge">
<title>62&#45;&gt;72</title>
<path fill="none" stroke="black" d="M1797.5,-367.83C1811.21,-358.43 1828.09,-346.86 1842.67,-336.85"/>
<polygon fill="black" stroke="black" points="1844.69,-339.71 1850.96,-331.17 1840.73,-333.94 1844.69,-339.71"/>
</g>
<!-- 64 -->
<g id="node65" class="node">
<title>64</title>
<polygon fill="none" stroke="black" points="1821,-258 1721,-258 1721,-220 1821,-220 1821,-258"/>
<text text-anchor="middle" x="1771" y="-242.8" font-family="Times,serif" font-size="14.00">lon &lt;= &#45;87.697</text>
<text text-anchor="middle" x="1771" y="-227.8" font-family="Times,serif" font-size="14.00">class = blue</text>
</g>
<!-- 63&#45;&gt;64 -->
<g id="edge64" class="edge">
<title>63&#45;&gt;64</title>
<path fill="none" stroke="black" d="M1771,-293.83C1771,-286.13 1771,-276.97 1771,-268.42"/>
<polygon fill="black" stroke="black" points="1774.5,-268.41 1771,-258.41 1767.5,-268.41 1774.5,-268.41"/>
</g>
<!-- 71 -->
<g id="node72" class="node">
<title>71</title>
<polygon fill="none" stroke="black" points="1921,-257 1839,-257 1839,-221 1921,-221 1921,-257"/>
<text text-anchor="middle" x="1880" y="-235.3" font-family="Times,serif" font-size="14.00">class = blue</text>
</g>
<!-- 63&#45;&gt;71 -->
<g id="edge71" class="edge">
<title>63&#45;&gt;71</title>
<path fill="none" stroke="black" d="M1798.51,-293.83C1812.74,-284.43 1830.26,-272.86 1845.41,-262.85"/>
<polygon fill="black" stroke="black" points="1847.59,-265.6 1854,-257.17 1843.73,-259.76 1847.59,-265.6"/>
</g>
<!-- 65 -->
<g id="node66" class="node">
<title>65</title>
<polygon fill="none" stroke="black" points="1817,-184 1717,-184 1717,-146 1817,-146 1817,-184"/>
<text text-anchor="middle" x="1767" y="-168.8" font-family="Times,serif" font-size="14.00">lon &lt;= &#45;91.379</text>
<text text-anchor="middle" x="1767" y="-153.8" font-family="Times,serif" font-size="14.00">class = blue</text>
</g>
<!-- 64&#45;&gt;65 -->
<g id="edge65" class="edge">
<title>64&#45;&gt;65</title>
<path fill="none" stroke="black" d="M1769.99,-219.83C1769.56,-212.13 1769.05,-202.97 1768.58,-194.42"/>
<polygon fill="black" stroke="black" points="1772.07,-194.2 1768.02,-184.41 1765.08,-194.59 1772.07,-194.2"/>
</g>
<!-- 70 -->
<g id="node71" class="node">
<title>70</title>
<polygon fill="none" stroke="black" points="1911,-183 1835,-183 1835,-147 1911,-147 1911,-183"/>
<text text-anchor="middle" x="1873" y="-161.3" font-family="Times,serif" font-size="14.00">class = red</text>
</g>
<!-- 64&#45;&gt;70 -->
<g id="edge70" class="edge">
<title>64&#45;&gt;70</title>
<path fill="none" stroke="black" d="M1796.74,-219.83C1809.93,-210.52 1826.15,-199.07 1840.23,-189.13"/>
<polygon fill="black" stroke="black" points="1842.52,-191.8 1848.67,-183.17 1838.49,-186.08 1842.52,-191.8"/>
</g>
<!-- 66 -->
<g id="node67" class="node">
<title>66</title>
<polygon fill="none" stroke="black" points="1762,-110 1662,-110 1662,-72 1762,-72 1762,-110"/>
<text text-anchor="middle" x="1712" y="-94.8" font-family="Times,serif" font-size="14.00">lon &lt;= &#45;95.317</text>
<text text-anchor="middle" x="1712" y="-79.8" font-family="Times,serif" font-size="14.00">class = red</text>
</g>
<!-- 65&#45;&gt;66 -->
<g id="edge66" class="edge">
<title>65&#45;&gt;66</title>
<path fill="none" stroke="black" d="M1753.12,-145.83C1746.79,-137.54 1739.16,-127.56 1732.21,-118.45"/>
<polygon fill="black" stroke="black" points="1734.92,-116.24 1726.07,-110.41 1729.35,-120.48 1734.92,-116.24"/>
</g>
<!-- 69 -->
<g id="node70" class="node">
<title>69</title>
<polygon fill="none" stroke="black" points="1862,-109 1780,-109 1780,-73 1862,-73 1862,-109"/>
<text text-anchor="middle" x="1821" y="-87.3" font-family="Times,serif" font-size="14.00">class = blue</text>
</g>
<!-- 65&#45;&gt;69 -->
<g id="edge69" class="edge">
<title>65&#45;&gt;69</title>
<path fill="none" stroke="black" d="M1780.63,-145.83C1787.04,-137.28 1794.79,-126.94 1801.79,-117.62"/>
<polygon fill="black" stroke="black" points="1804.74,-119.52 1807.94,-109.42 1799.14,-115.32 1804.74,-119.52"/>
</g>
<!-- 67 -->
<g id="node68" class="node">
<title>67</title>
<polygon fill="none" stroke="black" points="1704,-36 1622,-36 1622,0 1704,0 1704,-36"/>
<text text-anchor="middle" x="1663" y="-14.3" font-family="Times,serif" font-size="14.00">class = blue</text>
</g>
<!-- 66&#45;&gt;67 -->
<g id="edge67" class="edge">
<title>66&#45;&gt;67</title>
<path fill="none" stroke="black" d="M1699.38,-71.72C1693.62,-63.37 1686.71,-53.35 1680.46,-44.3"/>
<polygon fill="black" stroke="black" points="1683.3,-42.25 1674.73,-36 1677.53,-46.22 1683.3,-42.25"/>
</g>
<!-- 68 -->
<g id="node69" class="node">
<title>68</title>
<polygon fill="none" stroke="black" points="1798,-36 1722,-36 1722,0 1798,0 1798,-36"/>
<text text-anchor="middle" x="1760" y="-14.3" font-family="Times,serif" font-size="14.00">class = red</text>
</g>
<!-- 66&#45;&gt;68 -->
<g id="edge68" class="edge">
<title>66&#45;&gt;68</title>
<path fill="none" stroke="black" d="M1724.36,-71.72C1730,-63.37 1736.78,-53.35 1742.9,-44.3"/>
<polygon fill="black" stroke="black" points="1745.8,-46.25 1748.5,-36 1740,-42.33 1745.8,-46.25"/>
</g>
</g>
</svg>
