<?xml version="1.0" encoding="UTF-8" standalone="no"?>
<!DOCTYPE svg PUBLIC "-//W3C//DTD SVG 1.1//EN"
 "http://www.w3.org/Graphics/SVG/1.1/DTD/svg11.dtd">
<!-- Generated by graphviz version 2.44.1 (20200629.0846)
 -->
<!-- Title: Tree Pages: 1 -->
<svg width="455pt" height="414pt"
 viewBox="0.00 0.00 455.00 414.00" xmlns="http://www.w3.org/2000/svg" xmlns:xlink="http://www.w3.org/1999/xlink">
<g id="graph0" class="graph" transform="scale(1 1) rotate(0) translate(4 410)">
<title>Tree</title>
<polygon fill="white" stroke="transparent" points="-4,4 -4,-410 451,-410 451,4 -4,4"/>
<!-- 0 -->
<g id="node1" class="node">
<title>0</title>
<polygon fill="none" stroke="black" points="192.5,-406 85.5,-406 85.5,-368 192.5,-368 192.5,-406"/>
<text text-anchor="middle" x="139" y="-390.8" font-family="Times,serif" font-size="14.00">lon &lt;= &#45;102.165</text>
<text text-anchor="middle" x="139" y="-375.8" font-family="Times,serif" font-size="14.00">class = red</text>
</g>
<!-- 1 -->
<g id="node2" class="node">
<title>1</title>
<polygon fill="none" stroke="black" points="126,-331 44,-331 44,-295 126,-295 126,-331"/>
<text text-anchor="middle" x="85" y="-309.3" font-family="Times,serif" font-size="14.00">class = blue</text>
</g>
<!-- 0&#45;&gt;1 -->
<g id="edge1" class="edge">
<title>0&#45;&gt;1</title>
<path fill="none" stroke="black" d="M125.37,-367.83C118.96,-359.28 111.21,-348.94 104.21,-339.62"/>
<polygon fill="black" stroke="black" points="106.86,-337.32 98.06,-331.42 101.26,-341.52 106.86,-337.32"/>
<text text-anchor="middle" x="94.53" y="-352.47" font-family="Times,serif" font-size="14.00">True</text>
</g>
<!-- 2 -->
<g id="node3" class="node">
<title>2</title>
<polygon fill="none" stroke="black" points="244,-332 144,-332 144,-294 244,-294 244,-332"/>
<text text-anchor="middle" x="194" y="-316.8" font-family="Times,serif" font-size="14.00">lon &lt;= &#45;82.517</text>
<text text-anchor="middle" x="194" y="-301.8" font-family="Times,serif" font-size="14.00">class = red</text>
</g>
<!-- 0&#45;&gt;2 -->
<g id="edge2" class="edge">
<title>0&#45;&gt;2</title>
<path fill="none" stroke="black" d="M152.88,-367.83C159.21,-359.54 166.84,-349.56 173.79,-340.45"/>
<polygon fill="black" stroke="black" points="176.65,-342.48 179.93,-332.41 171.08,-338.24 176.65,-342.48"/>
<text text-anchor="middle" x="183.25" y="-353.49" font-family="Times,serif" font-size="14.00">False</text>
</g>
<!-- 3 -->
<g id="node4" class="node">
<title>3</title>
<polygon fill="none" stroke="black" points="183,-258 91,-258 91,-220 183,-220 183,-258"/>
<text text-anchor="middle" x="137" y="-242.8" font-family="Times,serif" font-size="14.00">lat &lt;= 41.113</text>
<text text-anchor="middle" x="137" y="-227.8" font-family="Times,serif" font-size="14.00">class = red</text>
</g>
<!-- 2&#45;&gt;3 -->
<g id="edge3" class="edge">
<title>2&#45;&gt;3</title>
<path fill="none" stroke="black" d="M179.62,-293.83C173.05,-285.54 165.15,-275.56 157.94,-266.45"/>
<polygon fill="black" stroke="black" points="160.53,-264.08 151.58,-258.41 155.04,-268.43 160.53,-264.08"/>
</g>
<!-- 10 -->
<g id="node11" class="node">
<title>10</title>
<polygon fill="none" stroke="black" points="301,-258 201,-258 201,-220 301,-220 301,-258"/>
<text text-anchor="middle" x="251" y="-242.8" font-family="Times,serif" font-size="14.00">lon &lt;= &#45;81.529</text>
<text text-anchor="middle" x="251" y="-227.8" font-family="Times,serif" font-size="14.00">class = blue</text>
</g>
<!-- 2&#45;&gt;10 -->
<g id="edge10" class="edge">
<title>2&#45;&gt;10</title>
<path fill="none" stroke="black" d="M208.38,-293.83C214.95,-285.54 222.85,-275.56 230.06,-266.45"/>
<polygon fill="black" stroke="black" points="232.96,-268.43 236.42,-258.41 227.47,-264.08 232.96,-268.43"/>
</g>
<!-- 4 -->
<g id="node5" class="node">
<title>4</title>
<polygon fill="none" stroke="black" points="76,-183 0,-183 0,-147 76,-147 76,-183"/>
<text text-anchor="middle" x="38" y="-161.3" font-family="Times,serif" font-size="14.00">class = red</text>
</g>
<!-- 3&#45;&gt;4 -->
<g id="edge4" class="edge">
<title>3&#45;&gt;4</title>
<path fill="none" stroke="black" d="M112.02,-219.83C99.21,-210.52 83.47,-199.07 69.81,-189.13"/>
<polygon fill="black" stroke="black" points="71.76,-186.22 61.61,-183.17 67.64,-191.88 71.76,-186.22"/>
</g>
<!-- 5 -->
<g id="node6" class="node">
<title>5</title>
<polygon fill="none" stroke="black" points="186,-184 94,-184 94,-146 186,-146 186,-184"/>
<text text-anchor="middle" x="140" y="-168.8" font-family="Times,serif" font-size="14.00">lat &lt;= 41.532</text>
<text text-anchor="middle" x="140" y="-153.8" font-family="Times,serif" font-size="14.00">class = blue</text>
</g>
<!-- 3&#45;&gt;5 -->
<g id="edge5" class="edge">
<title>3&#45;&gt;5</title>
<path fill="none" stroke="black" d="M137.76,-219.83C138.08,-212.13 138.46,-202.97 138.82,-194.42"/>
<polygon fill="black" stroke="black" points="142.31,-194.55 139.23,-184.41 135.32,-194.26 142.31,-194.55"/>
</g>
<!-- 6 -->
<g id="node7" class="node">
<title>6</title>
<polygon fill="none" stroke="black" points="109,-109 27,-109 27,-73 109,-73 109,-109"/>
<text text-anchor="middle" x="68" y="-87.3" font-family="Times,serif" font-size="14.00">class = blue</text>
</g>
<!-- 5&#45;&gt;6 -->
<g id="edge6" class="edge">
<title>5&#45;&gt;6</title>
<path fill="none" stroke="black" d="M121.83,-145.83C113.02,-137.02 102.31,-126.31 92.76,-116.76"/>
<polygon fill="black" stroke="black" points="94.96,-114.01 85.42,-109.42 90.01,-118.96 94.96,-114.01"/>
</g>
<!-- 7 -->
<g id="node8" class="node">
<title>7</title>
<polygon fill="none" stroke="black" points="219,-110 127,-110 127,-72 219,-72 219,-110"/>
<text text-anchor="middle" x="173" y="-94.8" font-family="Times,serif" font-size="14.00">lat &lt;= 42.165</text>
<text text-anchor="middle" x="173" y="-79.8" font-family="Times,serif" font-size="14.00">class = blue</text>
</g>
<!-- 5&#45;&gt;7 -->
<g id="edge7" class="edge">
<title>5&#45;&gt;7</title>
<path fill="none" stroke="black" d="M148.33,-145.83C151.97,-137.88 156.33,-128.37 160.36,-119.57"/>
<polygon fill="black" stroke="black" points="163.58,-120.96 164.56,-110.41 157.21,-118.05 163.58,-120.96"/>
</g>
<!-- 8 -->
<g id="node9" class="node">
<title>8</title>
<polygon fill="none" stroke="black" points="162,-36 86,-36 86,0 162,0 162,-36"/>
<text text-anchor="middle" x="124" y="-14.3" font-family="Times,serif" font-size="14.00">class = red</text>
</g>
<!-- 7&#45;&gt;8 -->
<g id="edge8" class="edge">
<title>7&#45;&gt;8</title>
<path fill="none" stroke="black" d="M160.38,-71.72C154.62,-63.37 147.71,-53.35 141.46,-44.3"/>
<polygon fill="black" stroke="black" points="144.3,-42.25 135.73,-36 138.53,-46.22 144.3,-42.25"/>
</g>
<!-- 9 -->
<g id="node10" class="node">
<title>9</title>
<polygon fill="none" stroke="black" points="262,-36 180,-36 180,0 262,0 262,-36"/>
<text text-anchor="middle" x="221" y="-14.3" font-family="Times,serif" font-size="14.00">class = blue</text>
</g>
<!-- 7&#45;&gt;9 -->
<g id="edge9" class="edge">
<title>7&#45;&gt;9</title>
<path fill="none" stroke="black" d="M185.36,-71.72C191,-63.37 197.78,-53.35 203.9,-44.3"/>
<polygon fill="black" stroke="black" points="206.8,-46.25 209.5,-36 201,-42.33 206.8,-46.25"/>
</g>
<!-- 11 -->
<g id="node12" class="node">
<title>11</title>
<polygon fill="none" stroke="black" points="290,-183 208,-183 208,-147 290,-147 290,-183"/>
<text text-anchor="middle" x="249" y="-161.3" font-family="Times,serif" font-size="14.00">class = blue</text>
</g>
<!-- 10&#45;&gt;11 -->
<g id="edge11" class="edge">
<title>10&#45;&gt;11</title>
<path fill="none" stroke="black" d="M250.5,-219.83C250.27,-211.89 250.01,-202.41 249.77,-193.63"/>
<polygon fill="black" stroke="black" points="253.26,-193.32 249.48,-183.42 246.26,-193.51 253.26,-193.32"/>
</g>
<!-- 12 -->
<g id="node13" class="node">
<title>12</title>
<polygon fill="none" stroke="black" points="408,-184 308,-184 308,-146 408,-146 408,-184"/>
<text text-anchor="middle" x="358" y="-168.8" font-family="Times,serif" font-size="14.00">lon &lt;= &#45;79.166</text>
<text text-anchor="middle" x="358" y="-153.8" font-family="Times,serif" font-size="14.00">class = red</text>
</g>
<!-- 10&#45;&gt;12 -->
<g id="edge12" class="edge">
<title>10&#45;&gt;12</title>
<path fill="none" stroke="black" d="M278,-219.83C291.43,-210.79 307.85,-199.75 322.3,-190.02"/>
<polygon fill="black" stroke="black" points="324.67,-192.65 331.01,-184.16 320.76,-186.84 324.67,-192.65"/>
</g>
<!-- 13 -->
<g id="node14" class="node">
<title>13</title>
<polygon fill="none" stroke="black" points="347,-109 271,-109 271,-73 347,-73 347,-109"/>
<text text-anchor="middle" x="309" y="-87.3" font-family="Times,serif" font-size="14.00">class = red</text>
</g>
<!-- 12&#45;&gt;13 -->
<g id="edge13" class="edge">
<title>12&#45;&gt;13</title>
<path fill="none" stroke="black" d="M345.64,-145.83C339.88,-137.37 332.92,-127.15 326.63,-117.9"/>
<polygon fill="black" stroke="black" points="329.37,-115.72 320.85,-109.42 323.59,-119.65 329.37,-115.72"/>
</g>
<!-- 14 -->
<g id="node15" class="node">
<title>14</title>
<polygon fill="none" stroke="black" points="447,-109 365,-109 365,-73 447,-73 447,-109"/>
<text text-anchor="middle" x="406" y="-87.3" font-family="Times,serif" font-size="14.00">class = blue</text>
</g>
<!-- 12&#45;&gt;14 -->
<g id="edge14" class="edge">
<title>12&#45;&gt;14</title>
<path fill="none" stroke="black" d="M370.11,-145.83C375.75,-137.37 382.57,-127.15 388.73,-117.9"/>
<polygon fill="black" stroke="black" points="391.75,-119.68 394.39,-109.42 385.93,-115.8 391.75,-119.68"/>
</g>
</g>
</svg>
