<?xml version="1.0" encoding="UTF-8" standalone="no"?>
<!DOCTYPE svg PUBLIC "-//W3C//DTD SVG 1.1//EN"
 "http://www.w3.org/Graphics/SVG/1.1/DTD/svg11.dtd">
<!-- Generated by graphviz version 2.44.1 (20200629.0846)
 -->
<!-- Title: Tree Pages: 1 -->
<svg width="1131pt" height="932pt"
 viewBox="0.00 0.00 1130.50 932.00" xmlns="http://www.w3.org/2000/svg" xmlns:xlink="http://www.w3.org/1999/xlink">
<g id="graph0" class="graph" transform="scale(1 1) rotate(0) translate(4 928)">
<title>Tree</title>
<polygon fill="white" stroke="transparent" points="-4,4 -4,-928 1126.5,-928 1126.5,4 -4,4"/>
<!-- 0 -->
<g id="node1" class="node">
<title>0</title>
<polygon fill="none" stroke="black" points="285.5,-924 180.5,-924 180.5,-886 285.5,-886 285.5,-924"/>
<text text-anchor="middle" x="233" y="-908.8" font-family="Times,serif" font-size="14.00">latitude &lt;= 42.9</text>
<text text-anchor="middle" x="233" y="-893.8" font-family="Times,serif" font-size="14.00">class = Canada</text>
</g>
<!-- 1 -->
<g id="node2" class="node">
<title>1</title>
<polygon fill="none" stroke="black" points="218.5,-850 99.5,-850 99.5,-812 218.5,-812 218.5,-850"/>
<text text-anchor="middle" x="159" y="-834.8" font-family="Times,serif" font-size="14.00">latitude &lt;= 42.096</text>
<text text-anchor="middle" x="159" y="-819.8" font-family="Times,serif" font-size="14.00">class = USA</text>
</g>
<!-- 0&#45;&gt;1 -->
<g id="edge1" class="edge">
<title>0&#45;&gt;1</title>
<path fill="none" stroke="black" d="M214.33,-885.83C205.48,-877.22 194.75,-866.79 185.11,-857.4"/>
<polygon fill="black" stroke="black" points="187.28,-854.63 177.67,-850.16 182.39,-859.64 187.28,-854.63"/>
<text text-anchor="middle" x="178.01" y="-871.46" font-family="Times,serif" font-size="14.00">True</text>
</g>
<!-- 6 -->
<g id="node7" class="node">
<title>6</title>
<polygon fill="none" stroke="black" points="377,-850 237,-850 237,-812 377,-812 377,-850"/>
<text text-anchor="middle" x="307" y="-834.8" font-family="Times,serif" font-size="14.00">longitude &lt;= &#45;130.017</text>
<text text-anchor="middle" x="307" y="-819.8" font-family="Times,serif" font-size="14.00">class = Canada</text>
</g>
<!-- 0&#45;&gt;6 -->
<g id="edge6" class="edge">
<title>0&#45;&gt;6</title>
<path fill="none" stroke="black" d="M251.67,-885.83C260.52,-877.22 271.25,-866.79 280.89,-857.4"/>
<polygon fill="black" stroke="black" points="283.61,-859.64 288.33,-850.16 278.72,-854.63 283.61,-859.64"/>
<text text-anchor="middle" x="287.99" y="-871.46" font-family="Times,serif" font-size="14.00">False</text>
</g>
<!-- 2 -->
<g id="node3" class="node">
<title>2</title>
<polygon fill="none" stroke="black" points="86,-775 0,-775 0,-739 86,-739 86,-775"/>
<text text-anchor="middle" x="43" y="-753.3" font-family="Times,serif" font-size="14.00">class = USA</text>
</g>
<!-- 1&#45;&gt;2 -->
<g id="edge2" class="edge">
<title>1&#45;&gt;2</title>
<path fill="none" stroke="black" d="M129.73,-811.83C114.44,-802.34 95.58,-790.64 79.37,-780.57"/>
<polygon fill="black" stroke="black" points="81.01,-777.47 70.67,-775.17 77.32,-783.42 81.01,-777.47"/>
</g>
<!-- 3 -->
<g id="node4" class="node">
<title>3</title>
<polygon fill="none" stroke="black" points="223.5,-776 104.5,-776 104.5,-738 223.5,-738 223.5,-776"/>
<text text-anchor="middle" x="164" y="-760.8" font-family="Times,serif" font-size="14.00">latitude &lt;= 42.324</text>
<text text-anchor="middle" x="164" y="-745.8" font-family="Times,serif" font-size="14.00">class = USA</text>
</g>
<!-- 1&#45;&gt;3 -->
<g id="edge3" class="edge">
<title>1&#45;&gt;3</title>
<path fill="none" stroke="black" d="M160.26,-811.83C160.8,-804.13 161.43,-794.97 162.03,-786.42"/>
<polygon fill="black" stroke="black" points="165.52,-786.63 162.72,-776.41 158.54,-786.15 165.52,-786.63"/>
</g>
<!-- 4 -->
<g id="node5" class="node">
<title>4</title>
<polygon fill="none" stroke="black" points="206.5,-701 107.5,-701 107.5,-665 206.5,-665 206.5,-701"/>
<text text-anchor="middle" x="157" y="-679.3" font-family="Times,serif" font-size="14.00">class = Canada</text>
</g>
<!-- 3&#45;&gt;4 -->
<g id="edge4" class="edge">
<title>3&#45;&gt;4</title>
<path fill="none" stroke="black" d="M162.23,-737.83C161.46,-729.89 160.54,-720.41 159.69,-711.63"/>
<polygon fill="black" stroke="black" points="163.14,-711.03 158.69,-701.42 156.18,-711.71 163.14,-711.03"/>
</g>
<!-- 5 -->
<g id="node6" class="node">
<title>5</title>
<polygon fill="none" stroke="black" points="311,-701 225,-701 225,-665 311,-665 311,-701"/>
<text text-anchor="middle" x="268" y="-679.3" font-family="Times,serif" font-size="14.00">class = USA</text>
</g>
<!-- 3&#45;&gt;5 -->
<g id="edge5" class="edge">
<title>3&#45;&gt;5</title>
<path fill="none" stroke="black" d="M190.24,-737.83C203.7,-728.52 220.23,-717.07 234.59,-707.13"/>
<polygon fill="black" stroke="black" points="236.97,-709.74 243.2,-701.17 232.98,-703.99 236.97,-709.74"/>
</g>
<!-- 7 -->
<g id="node8" class="node">
<title>7</title>
<polygon fill="none" stroke="black" points="341,-775 255,-775 255,-739 341,-739 341,-775"/>
<text text-anchor="middle" x="298" y="-753.3" font-family="Times,serif" font-size="14.00">class = USA</text>
</g>
<!-- 6&#45;&gt;7 -->
<g id="edge7" class="edge">
<title>6&#45;&gt;7</title>
<path fill="none" stroke="black" d="M304.73,-811.83C303.74,-803.89 302.55,-794.41 301.45,-785.63"/>
<polygon fill="black" stroke="black" points="304.89,-784.91 300.18,-775.42 297.94,-785.77 304.89,-784.91"/>
</g>
<!-- 8 -->
<g id="node9" class="node">
<title>8</title>
<polygon fill="none" stroke="black" points="464.5,-776 359.5,-776 359.5,-738 464.5,-738 464.5,-776"/>
<text text-anchor="middle" x="412" y="-760.8" font-family="Times,serif" font-size="14.00">latitude &lt;= 49.0</text>
<text text-anchor="middle" x="412" y="-745.8" font-family="Times,serif" font-size="14.00">class = Canada</text>
</g>
<!-- 6&#45;&gt;8 -->
<g id="edge8" class="edge">
<title>6&#45;&gt;8</title>
<path fill="none" stroke="black" d="M333.5,-811.83C346.68,-802.79 362.78,-791.75 376.97,-782.02"/>
<polygon fill="black" stroke="black" points="379.24,-784.7 385.51,-776.16 375.29,-778.93 379.24,-784.7"/>
</g>
<!-- 9 -->
<g id="node10" class="node">
<title>9</title>
<polygon fill="none" stroke="black" points="474,-702 340,-702 340,-664 474,-664 474,-702"/>
<text text-anchor="middle" x="407" y="-686.8" font-family="Times,serif" font-size="14.00">longitude &lt;= &#45;94.582</text>
<text text-anchor="middle" x="407" y="-671.8" font-family="Times,serif" font-size="14.00">class = Canada</text>
</g>
<!-- 8&#45;&gt;9 -->
<g id="edge9" class="edge">
<title>8&#45;&gt;9</title>
<path fill="none" stroke="black" d="M410.74,-737.83C410.2,-730.13 409.57,-720.97 408.97,-712.42"/>
<polygon fill="black" stroke="black" points="412.46,-712.15 408.28,-702.41 405.48,-712.63 412.46,-712.15"/>
</g>
<!-- 54 -->
<g id="node55" class="node">
<title>54</title>
<polygon fill="none" stroke="black" points="591.5,-701 492.5,-701 492.5,-665 591.5,-665 591.5,-701"/>
<text text-anchor="middle" x="542" y="-679.3" font-family="Times,serif" font-size="14.00">class = Canada</text>
</g>
<!-- 8&#45;&gt;54 -->
<g id="edge54" class="edge">
<title>8&#45;&gt;54</title>
<path fill="none" stroke="black" d="M444.8,-737.83C462.18,-728.21 483.66,-716.31 502,-706.15"/>
<polygon fill="black" stroke="black" points="503.94,-709.08 511,-701.17 500.55,-702.95 503.94,-709.08"/>
</g>
<!-- 10 -->
<g id="node11" class="node">
<title>10</title>
<polygon fill="none" stroke="black" points="400,-628 260,-628 260,-590 400,-590 400,-628"/>
<text text-anchor="middle" x="330" y="-612.8" font-family="Times,serif" font-size="14.00">longitude &lt;= &#45;123.222</text>
<text text-anchor="middle" x="330" y="-597.8" font-family="Times,serif" font-size="14.00">class = USA</text>
</g>
<!-- 9&#45;&gt;10 -->
<g id="edge10" class="edge">
<title>9&#45;&gt;10</title>
<path fill="none" stroke="black" d="M387.57,-663.83C378.27,-655.13 366.98,-644.58 356.87,-635.13"/>
<polygon fill="black" stroke="black" points="359.12,-632.44 349.42,-628.16 354.34,-637.55 359.12,-632.44"/>
</g>
<!-- 13 -->
<g id="node14" class="node">
<title>13</title>
<polygon fill="none" stroke="black" points="552,-628 418,-628 418,-590 552,-590 552,-628"/>
<text text-anchor="middle" x="485" y="-612.8" font-family="Times,serif" font-size="14.00">longitude &lt;= &#45;69.246</text>
<text text-anchor="middle" x="485" y="-597.8" font-family="Times,serif" font-size="14.00">class = Canada</text>
</g>
<!-- 9&#45;&gt;13 -->
<g id="edge13" class="edge">
<title>9&#45;&gt;13</title>
<path fill="none" stroke="black" d="M426.68,-663.83C436.11,-655.13 447.54,-644.58 457.78,-635.13"/>
<polygon fill="black" stroke="black" points="460.35,-637.52 465.32,-628.16 455.6,-632.37 460.35,-637.52"/>
</g>
<!-- 11 -->
<g id="node12" class="node">
<title>11</title>
<polygon fill="none" stroke="black" points="277.5,-553 178.5,-553 178.5,-517 277.5,-517 277.5,-553"/>
<text text-anchor="middle" x="228" y="-531.3" font-family="Times,serif" font-size="14.00">class = Canada</text>
</g>
<!-- 10&#45;&gt;11 -->
<g id="edge11" class="edge">
<title>10&#45;&gt;11</title>
<path fill="none" stroke="black" d="M304.26,-589.83C291.07,-580.52 274.85,-569.07 260.77,-559.13"/>
<polygon fill="black" stroke="black" points="262.51,-556.08 252.33,-553.17 258.48,-561.8 262.51,-556.08"/>
</g>
<!-- 12 -->
<g id="node13" class="node">
<title>12</title>
<polygon fill="none" stroke="black" points="382,-553 296,-553 296,-517 382,-517 382,-553"/>
<text text-anchor="middle" x="339" y="-531.3" font-family="Times,serif" font-size="14.00">class = USA</text>
</g>
<!-- 10&#45;&gt;12 -->
<g id="edge12" class="edge">
<title>10&#45;&gt;12</title>
<path fill="none" stroke="black" d="M332.27,-589.83C333.26,-581.89 334.45,-572.41 335.55,-563.63"/>
<polygon fill="black" stroke="black" points="339.06,-563.77 336.82,-553.42 332.11,-562.91 339.06,-563.77"/>
</g>
<!-- 14 -->
<g id="node15" class="node">
<title>14</title>
<polygon fill="none" stroke="black" points="536.5,-554 417.5,-554 417.5,-516 536.5,-516 536.5,-554"/>
<text text-anchor="middle" x="477" y="-538.8" font-family="Times,serif" font-size="14.00">latitude &lt;= 43.093</text>
<text text-anchor="middle" x="477" y="-523.8" font-family="Times,serif" font-size="14.00">class = Canada</text>
</g>
<!-- 13&#45;&gt;14 -->
<g id="edge14" class="edge">
<title>13&#45;&gt;14</title>
<path fill="none" stroke="black" d="M482.98,-589.83C482.13,-582.13 481.11,-572.97 480.16,-564.42"/>
<polygon fill="black" stroke="black" points="483.63,-563.97 479.05,-554.41 476.67,-564.74 483.63,-563.97"/>
</g>
<!-- 37 -->
<g id="node38" class="node">
<title>37</title>
<polygon fill="none" stroke="black" points="730,-554 596,-554 596,-516 730,-516 730,-554"/>
<text text-anchor="middle" x="663" y="-538.8" font-family="Times,serif" font-size="14.00">longitude &lt;= &#45;66.952</text>
<text text-anchor="middle" x="663" y="-523.8" font-family="Times,serif" font-size="14.00">class = Canada</text>
</g>
<!-- 13&#45;&gt;37 -->
<g id="edge37" class="edge">
<title>13&#45;&gt;37</title>
<path fill="none" stroke="black" d="M529.92,-589.83C553.93,-580.12 583.68,-568.08 608.96,-557.86"/>
<polygon fill="black" stroke="black" points="610.45,-561.03 618.41,-554.04 607.82,-554.54 610.45,-561.03"/>
</g>
<!-- 15 -->
<g id="node16" class="node">
<title>15</title>
<polygon fill="none" stroke="black" points="357.5,-480 238.5,-480 238.5,-442 357.5,-442 357.5,-480"/>
<text text-anchor="middle" x="298" y="-464.8" font-family="Times,serif" font-size="14.00">latitude &lt;= 43.014</text>
<text text-anchor="middle" x="298" y="-449.8" font-family="Times,serif" font-size="14.00">class = Canada</text>
</g>
<!-- 14&#45;&gt;15 -->
<g id="edge15" class="edge">
<title>14&#45;&gt;15</title>
<path fill="none" stroke="black" d="M431.83,-515.83C407.68,-506.12 377.76,-494.08 352.34,-483.86"/>
<polygon fill="black" stroke="black" points="353.43,-480.52 342.84,-480.04 350.82,-487.02 353.43,-480.52"/>
</g>
<!-- 20 -->
<g id="node21" class="node">
<title>20</title>
<polygon fill="none" stroke="black" points="536.5,-480 417.5,-480 417.5,-442 536.5,-442 536.5,-480"/>
<text text-anchor="middle" x="477" y="-464.8" font-family="Times,serif" font-size="14.00">latitude &lt;= 44.992</text>
<text text-anchor="middle" x="477" y="-449.8" font-family="Times,serif" font-size="14.00">class = Canada</text>
</g>
<!-- 14&#45;&gt;20 -->
<g id="edge20" class="edge">
<title>14&#45;&gt;20</title>
<path fill="none" stroke="black" d="M477,-515.83C477,-508.13 477,-498.97 477,-490.42"/>
<polygon fill="black" stroke="black" points="480.5,-490.41 477,-480.41 473.5,-490.41 480.5,-490.41"/>
</g>
<!-- 16 -->
<g id="node17" class="node">
<title>16</title>
<polygon fill="none" stroke="black" points="227,-406 93,-406 93,-368 227,-368 227,-406"/>
<text text-anchor="middle" x="160" y="-390.8" font-family="Times,serif" font-size="14.00">longitude &lt;= &#45;81.845</text>
<text text-anchor="middle" x="160" y="-375.8" font-family="Times,serif" font-size="14.00">class = Canada</text>
</g>
<!-- 15&#45;&gt;16 -->
<g id="edge16" class="edge">
<title>15&#45;&gt;16</title>
<path fill="none" stroke="black" d="M263.18,-441.83C245.2,-432.45 223.08,-420.91 203.94,-410.92"/>
<polygon fill="black" stroke="black" points="205.3,-407.69 194.81,-406.16 202.06,-413.89 205.3,-407.69"/>
</g>
<!-- 19 -->
<g id="node20" class="node">
<title>19</title>
<polygon fill="none" stroke="black" points="341,-405 255,-405 255,-369 341,-369 341,-405"/>
<text text-anchor="middle" x="298" y="-383.3" font-family="Times,serif" font-size="14.00">class = USA</text>
</g>
<!-- 15&#45;&gt;19 -->
<g id="edge19" class="edge">
<title>15&#45;&gt;19</title>
<path fill="none" stroke="black" d="M298,-441.83C298,-433.89 298,-424.41 298,-415.63"/>
<polygon fill="black" stroke="black" points="301.5,-415.42 298,-405.42 294.5,-415.42 301.5,-415.42"/>
</g>
<!-- 17 -->
<g id="node18" class="node">
<title>17</title>
<polygon fill="none" stroke="black" points="92,-331 6,-331 6,-295 92,-295 92,-331"/>
<text text-anchor="middle" x="49" y="-309.3" font-family="Times,serif" font-size="14.00">class = USA</text>
</g>
<!-- 16&#45;&gt;17 -->
<g id="edge17" class="edge">
<title>16&#45;&gt;17</title>
<path fill="none" stroke="black" d="M131.99,-367.83C117.49,-358.43 99.65,-346.86 84.23,-336.85"/>
<polygon fill="black" stroke="black" points="85.77,-333.68 75.47,-331.17 81.96,-339.55 85.77,-333.68"/>
</g>
<!-- 18 -->
<g id="node19" class="node">
<title>18</title>
<polygon fill="none" stroke="black" points="209.5,-331 110.5,-331 110.5,-295 209.5,-295 209.5,-331"/>
<text text-anchor="middle" x="160" y="-309.3" font-family="Times,serif" font-size="14.00">class = Canada</text>
</g>
<!-- 16&#45;&gt;18 -->
<g id="edge18" class="edge">
<title>16&#45;&gt;18</title>
<path fill="none" stroke="black" d="M160,-367.83C160,-359.89 160,-350.41 160,-341.63"/>
<polygon fill="black" stroke="black" points="163.5,-341.42 160,-331.42 156.5,-341.42 163.5,-341.42"/>
</g>
<!-- 21 -->
<g id="node22" class="node">
<title>21</title>
<polygon fill="none" stroke="black" points="479.5,-406 360.5,-406 360.5,-368 479.5,-368 479.5,-406"/>
<text text-anchor="middle" x="420" y="-390.8" font-family="Times,serif" font-size="14.00">latitude &lt;= 44.542</text>
<text text-anchor="middle" x="420" y="-375.8" font-family="Times,serif" font-size="14.00">class = Canada</text>
</g>
<!-- 20&#45;&gt;21 -->
<g id="edge21" class="edge">
<title>20&#45;&gt;21</title>
<path fill="none" stroke="black" d="M462.62,-441.83C456.05,-433.54 448.15,-423.56 440.94,-414.45"/>
<polygon fill="black" stroke="black" points="443.53,-412.08 434.58,-406.41 438.04,-416.43 443.53,-412.08"/>
</g>
<!-- 36 -->
<g id="node37" class="node">
<title>36</title>
<polygon fill="none" stroke="black" points="596.5,-405 497.5,-405 497.5,-369 596.5,-369 596.5,-405"/>
<text text-anchor="middle" x="547" y="-383.3" font-family="Times,serif" font-size="14.00">class = Canada</text>
</g>
<!-- 20&#45;&gt;36 -->
<g id="edge36" class="edge">
<title>20&#45;&gt;36</title>
<path fill="none" stroke="black" d="M494.66,-441.83C503.23,-433.02 513.65,-422.31 522.93,-412.76"/>
<polygon fill="black" stroke="black" points="525.6,-415.03 530.07,-405.42 520.59,-410.15 525.6,-415.03"/>
</g>
<!-- 22 -->
<g id="node23" class="node">
<title>22</title>
<polygon fill="none" stroke="black" points="362,-332 228,-332 228,-294 362,-294 362,-332"/>
<text text-anchor="middle" x="295" y="-316.8" font-family="Times,serif" font-size="14.00">longitude &lt;= &#45;79.076</text>
<text text-anchor="middle" x="295" y="-301.8" font-family="Times,serif" font-size="14.00">class = Canada</text>
</g>
<!-- 21&#45;&gt;22 -->
<g id="edge22" class="edge">
<title>21&#45;&gt;22</title>
<path fill="none" stroke="black" d="M388.46,-367.83C372.32,-358.54 352.5,-347.12 335.27,-337.2"/>
<polygon fill="black" stroke="black" points="336.94,-334.12 326.53,-332.16 333.45,-340.19 336.94,-334.12"/>
</g>
<!-- 31 -->
<g id="node32" class="node">
<title>31</title>
<polygon fill="none" stroke="black" points="499.5,-332 380.5,-332 380.5,-294 499.5,-294 499.5,-332"/>
<text text-anchor="middle" x="440" y="-316.8" font-family="Times,serif" font-size="14.00">latitude &lt;= 44.706</text>
<text text-anchor="middle" x="440" y="-301.8" font-family="Times,serif" font-size="14.00">class = USA</text>
</g>
<!-- 21&#45;&gt;31 -->
<g id="edge31" class="edge">
<title>21&#45;&gt;31</title>
<path fill="none" stroke="black" d="M425.05,-367.83C427.21,-360.05 429.79,-350.77 432.18,-342.13"/>
<polygon fill="black" stroke="black" points="435.58,-342.99 434.89,-332.41 428.84,-341.11 435.58,-342.99"/>
</g>
<!-- 23 -->
<g id="node24" class="node">
<title>23</title>
<polygon fill="none" stroke="black" points="217.5,-257 118.5,-257 118.5,-221 217.5,-221 217.5,-257"/>
<text text-anchor="middle" x="168" y="-235.3" font-family="Times,serif" font-size="14.00">class = Canada</text>
</g>
<!-- 22&#45;&gt;23 -->
<g id="edge23" class="edge">
<title>22&#45;&gt;23</title>
<path fill="none" stroke="black" d="M262.95,-293.83C246.06,-284.25 225.19,-272.42 207.32,-262.29"/>
<polygon fill="black" stroke="black" points="208.71,-259.06 198.29,-257.17 205.26,-265.15 208.71,-259.06"/>
</g>
<!-- 24 -->
<g id="node25" class="node">
<title>24</title>
<polygon fill="none" stroke="black" points="354.5,-258 235.5,-258 235.5,-220 354.5,-220 354.5,-258"/>
<text text-anchor="middle" x="295" y="-242.8" font-family="Times,serif" font-size="14.00">latitude &lt;= 44.168</text>
<text text-anchor="middle" x="295" y="-227.8" font-family="Times,serif" font-size="14.00">class = Canada</text>
</g>
<!-- 22&#45;&gt;24 -->
<g id="edge24" class="edge">
<title>22&#45;&gt;24</title>
<path fill="none" stroke="black" d="M295,-293.83C295,-286.13 295,-276.97 295,-268.42"/>
<polygon fill="black" stroke="black" points="298.5,-268.41 295,-258.41 291.5,-268.41 298.5,-268.41"/>
</g>
<!-- 25 -->
<g id="node26" class="node">
<title>25</title>
<polygon fill="none" stroke="black" points="240.5,-184 121.5,-184 121.5,-146 240.5,-146 240.5,-184"/>
<text text-anchor="middle" x="181" y="-168.8" font-family="Times,serif" font-size="14.00">latitude &lt;= 43.511</text>
<text text-anchor="middle" x="181" y="-153.8" font-family="Times,serif" font-size="14.00">class = USA</text>
</g>
<!-- 24&#45;&gt;25 -->
<g id="edge25" class="edge">
<title>24&#45;&gt;25</title>
<path fill="none" stroke="black" d="M266.23,-219.83C251.79,-210.71 234.1,-199.54 218.6,-189.74"/>
<polygon fill="black" stroke="black" points="220.08,-186.54 209.76,-184.16 216.34,-192.46 220.08,-186.54"/>
</g>
<!-- 30 -->
<g id="node31" class="node">
<title>30</title>
<polygon fill="none" stroke="black" points="357.5,-183 258.5,-183 258.5,-147 357.5,-147 357.5,-183"/>
<text text-anchor="middle" x="308" y="-161.3" font-family="Times,serif" font-size="14.00">class = Canada</text>
</g>
<!-- 24&#45;&gt;30 -->
<g id="edge30" class="edge">
<title>24&#45;&gt;30</title>
<path fill="none" stroke="black" d="M298.28,-219.83C299.73,-211.81 301.46,-202.2 303.06,-193.34"/>
<polygon fill="black" stroke="black" points="306.52,-193.88 304.86,-183.42 299.63,-192.64 306.52,-193.88"/>
</g>
<!-- 26 -->
<g id="node27" class="node">
<title>26</title>
<polygon fill="none" stroke="black" points="164,-109 78,-109 78,-73 164,-73 164,-109"/>
<text text-anchor="middle" x="121" y="-87.3" font-family="Times,serif" font-size="14.00">class = USA</text>
</g>
<!-- 25&#45;&gt;26 -->
<g id="edge26" class="edge">
<title>25&#45;&gt;26</title>
<path fill="none" stroke="black" d="M165.86,-145.83C158.66,-137.2 149.94,-126.73 142.11,-117.33"/>
<polygon fill="black" stroke="black" points="144.61,-114.86 135.51,-109.42 139.23,-119.34 144.61,-114.86"/>
</g>
<!-- 27 -->
<g id="node28" class="node">
<title>27</title>
<polygon fill="none" stroke="black" points="301.5,-110 182.5,-110 182.5,-72 301.5,-72 301.5,-110"/>
<text text-anchor="middle" x="242" y="-94.8" font-family="Times,serif" font-size="14.00">latitude &lt;= 43.988</text>
<text text-anchor="middle" x="242" y="-79.8" font-family="Times,serif" font-size="14.00">class = Canada</text>
</g>
<!-- 25&#45;&gt;27 -->
<g id="edge27" class="edge">
<title>25&#45;&gt;27</title>
<path fill="none" stroke="black" d="M196.39,-145.83C203.49,-137.45 212.05,-127.35 219.82,-118.17"/>
<polygon fill="black" stroke="black" points="222.61,-120.31 226.4,-110.41 217.27,-115.78 222.61,-120.31"/>
</g>
<!-- 28 -->
<g id="node29" class="node">
<title>28</title>
<polygon fill="none" stroke="black" points="235.5,-36 136.5,-36 136.5,0 235.5,0 235.5,-36"/>
<text text-anchor="middle" x="186" y="-14.3" font-family="Times,serif" font-size="14.00">class = Canada</text>
</g>
<!-- 27&#45;&gt;28 -->
<g id="edge28" class="edge">
<title>27&#45;&gt;28</title>
<path fill="none" stroke="black" d="M227.58,-71.72C220.93,-63.29 212.93,-53.15 205.73,-44.02"/>
<polygon fill="black" stroke="black" points="208.35,-41.69 199.41,-36 202.86,-46.02 208.35,-41.69"/>
</g>
<!-- 29 -->
<g id="node30" class="node">
<title>29</title>
<polygon fill="none" stroke="black" points="340,-36 254,-36 254,0 340,0 340,-36"/>
<text text-anchor="middle" x="297" y="-14.3" font-family="Times,serif" font-size="14.00">class = USA</text>
</g>
<!-- 27&#45;&gt;29 -->
<g id="edge29" class="edge">
<title>27&#45;&gt;29</title>
<path fill="none" stroke="black" d="M256.16,-71.72C262.69,-63.29 270.55,-53.15 277.62,-44.02"/>
<polygon fill="black" stroke="black" points="280.47,-46.05 283.83,-36 274.94,-41.77 280.47,-46.05"/>
</g>
<!-- 32 -->
<g id="node33" class="node">
<title>32</title>
<polygon fill="none" stroke="black" points="459,-257 373,-257 373,-221 459,-221 459,-257"/>
<text text-anchor="middle" x="416" y="-235.3" font-family="Times,serif" font-size="14.00">class = USA</text>
</g>
<!-- 31&#45;&gt;32 -->
<g id="edge32" class="edge">
<title>31&#45;&gt;32</title>
<path fill="none" stroke="black" d="M433.94,-293.83C431.24,-285.72 428,-275.99 425.02,-267.05"/>
<polygon fill="black" stroke="black" points="428.29,-265.8 421.81,-257.42 421.65,-268.01 428.29,-265.8"/>
</g>
<!-- 33 -->
<g id="node34" class="node">
<title>33</title>
<polygon fill="none" stroke="black" points="611,-258 477,-258 477,-220 611,-220 611,-258"/>
<text text-anchor="middle" x="544" y="-242.8" font-family="Times,serif" font-size="14.00">longitude &lt;= &#45;84.392</text>
<text text-anchor="middle" x="544" y="-227.8" font-family="Times,serif" font-size="14.00">class = Canada</text>
</g>
<!-- 31&#45;&gt;33 -->
<g id="edge33" class="edge">
<title>31&#45;&gt;33</title>
<path fill="none" stroke="black" d="M466.24,-293.83C479.3,-284.79 495.25,-273.75 509.3,-264.02"/>
<polygon fill="black" stroke="black" points="511.54,-266.73 517.76,-258.16 507.55,-260.98 511.54,-266.73"/>
</g>
<!-- 34 -->
<g id="node35" class="node">
<title>34</title>
<polygon fill="none" stroke="black" points="478,-183 392,-183 392,-147 478,-147 478,-183"/>
<text text-anchor="middle" x="435" y="-161.3" font-family="Times,serif" font-size="14.00">class = USA</text>
</g>
<!-- 33&#45;&gt;34 -->
<g id="edge34" class="edge">
<title>33&#45;&gt;34</title>
<path fill="none" stroke="black" d="M516.49,-219.83C502.26,-210.43 484.74,-198.86 469.59,-188.85"/>
<polygon fill="black" stroke="black" points="471.27,-185.76 461,-183.17 467.41,-191.6 471.27,-185.76"/>
</g>
<!-- 35 -->
<g id="node36" class="node">
<title>35</title>
<polygon fill="none" stroke="black" points="595.5,-183 496.5,-183 496.5,-147 595.5,-147 595.5,-183"/>
<text text-anchor="middle" x="546" y="-161.3" font-family="Times,serif" font-size="14.00">class = Canada</text>
</g>
<!-- 33&#45;&gt;35 -->
<g id="edge35" class="edge">
<title>33&#45;&gt;35</title>
<path fill="none" stroke="black" d="M544.5,-219.83C544.73,-211.89 544.99,-202.41 545.23,-193.63"/>
<polygon fill="black" stroke="black" points="548.74,-193.51 545.52,-183.42 541.74,-193.32 548.74,-193.51"/>
</g>
<!-- 38 -->
<g id="node39" class="node">
<title>38</title>
<polygon fill="none" stroke="black" points="722.5,-480 603.5,-480 603.5,-442 722.5,-442 722.5,-480"/>
<text text-anchor="middle" x="663" y="-464.8" font-family="Times,serif" font-size="14.00">latitude &lt;= 45.195</text>
<text text-anchor="middle" x="663" y="-449.8" font-family="Times,serif" font-size="14.00">class = USA</text>
</g>
<!-- 37&#45;&gt;38 -->
<g id="edge38" class="edge">
<title>37&#45;&gt;38</title>
<path fill="none" stroke="black" d="M663,-515.83C663,-508.13 663,-498.97 663,-490.42"/>
<polygon fill="black" stroke="black" points="666.5,-490.41 663,-480.41 659.5,-490.41 666.5,-490.41"/>
</g>
<!-- 53 -->
<g id="node54" class="node">
<title>53</title>
<polygon fill="none" stroke="black" points="839.5,-479 740.5,-479 740.5,-443 839.5,-443 839.5,-479"/>
<text text-anchor="middle" x="790" y="-457.3" font-family="Times,serif" font-size="14.00">class = Canada</text>
</g>
<!-- 37&#45;&gt;53 -->
<g id="edge53" class="edge">
<title>37&#45;&gt;53</title>
<path fill="none" stroke="black" d="M695.05,-515.83C711.94,-506.25 732.81,-494.42 750.68,-484.29"/>
<polygon fill="black" stroke="black" points="752.74,-487.15 759.71,-479.17 749.29,-481.06 752.74,-487.15"/>
</g>
<!-- 39 -->
<g id="node40" class="node">
<title>39</title>
<polygon fill="none" stroke="black" points="706,-405 620,-405 620,-369 706,-369 706,-405"/>
<text text-anchor="middle" x="663" y="-383.3" font-family="Times,serif" font-size="14.00">class = USA</text>
</g>
<!-- 38&#45;&gt;39 -->
<g id="edge39" class="edge">
<title>38&#45;&gt;39</title>
<path fill="none" stroke="black" d="M663,-441.83C663,-433.89 663,-424.41 663,-415.63"/>
<polygon fill="black" stroke="black" points="666.5,-415.42 663,-405.42 659.5,-415.42 666.5,-415.42"/>
</g>
<!-- 40 -->
<g id="node41" class="node">
<title>40</title>
<polygon fill="none" stroke="black" points="854.5,-406 727.5,-406 727.5,-368 854.5,-368 854.5,-406"/>
<text text-anchor="middle" x="791" y="-390.8" font-family="Times,serif" font-size="14.00">longitude &lt;= &#45;67.93</text>
<text text-anchor="middle" x="791" y="-375.8" font-family="Times,serif" font-size="14.00">class = Canada</text>
</g>
<!-- 38&#45;&gt;40 -->
<g id="edge40" class="edge">
<title>38&#45;&gt;40</title>
<path fill="none" stroke="black" d="M695.3,-441.83C711.82,-432.54 732.12,-421.12 749.76,-411.2"/>
<polygon fill="black" stroke="black" points="751.71,-414.12 758.71,-406.16 748.28,-408.01 751.71,-414.12"/>
</g>
<!-- 41 -->
<g id="node42" class="node">
<title>41</title>
<polygon fill="none" stroke="black" points="858,-332 724,-332 724,-294 858,-294 858,-332"/>
<text text-anchor="middle" x="791" y="-316.8" font-family="Times,serif" font-size="14.00">longitude &lt;= &#45;68.325</text>
<text text-anchor="middle" x="791" y="-301.8" font-family="Times,serif" font-size="14.00">class = USA</text>
</g>
<!-- 40&#45;&gt;41 -->
<g id="edge41" class="edge">
<title>40&#45;&gt;41</title>
<path fill="none" stroke="black" d="M791,-367.83C791,-360.13 791,-350.97 791,-342.42"/>
<polygon fill="black" stroke="black" points="794.5,-342.41 791,-332.41 787.5,-342.41 794.5,-342.41"/>
</g>
<!-- 48 -->
<g id="node49" class="node">
<title>48</title>
<polygon fill="none" stroke="black" points="997.5,-332 878.5,-332 878.5,-294 997.5,-294 997.5,-332"/>
<text text-anchor="middle" x="938" y="-316.8" font-family="Times,serif" font-size="14.00">latitude &lt;= 45.565</text>
<text text-anchor="middle" x="938" y="-301.8" font-family="Times,serif" font-size="14.00">class = Canada</text>
</g>
<!-- 40&#45;&gt;48 -->
<g id="edge48" class="edge">
<title>40&#45;&gt;48</title>
<path fill="none" stroke="black" d="M828.09,-367.83C847.49,-358.33 871.42,-346.61 891.99,-336.54"/>
<polygon fill="black" stroke="black" points="893.73,-339.58 901.17,-332.04 890.65,-333.29 893.73,-339.58"/>
</g>
<!-- 42 -->
<g id="node43" class="node">
<title>42</title>
<polygon fill="none" stroke="black" points="748.5,-258 629.5,-258 629.5,-220 748.5,-220 748.5,-258"/>
<text text-anchor="middle" x="689" y="-242.8" font-family="Times,serif" font-size="14.00">latitude &lt;= 47.256</text>
<text text-anchor="middle" x="689" y="-227.8" font-family="Times,serif" font-size="14.00">class = Canada</text>
</g>
<!-- 41&#45;&gt;42 -->
<g id="edge42" class="edge">
<title>41&#45;&gt;42</title>
<path fill="none" stroke="black" d="M765.26,-293.83C752.46,-284.79 736.81,-273.75 723.03,-264.02"/>
<polygon fill="black" stroke="black" points="724.92,-261.07 714.73,-258.16 720.88,-266.79 724.92,-261.07"/>
</g>
<!-- 47 -->
<g id="node48" class="node">
<title>47</title>
<polygon fill="none" stroke="black" points="853,-257 767,-257 767,-221 853,-221 853,-257"/>
<text text-anchor="middle" x="810" y="-235.3" font-family="Times,serif" font-size="14.00">class = USA</text>
</g>
<!-- 41&#45;&gt;47 -->
<g id="edge47" class="edge">
<title>41&#45;&gt;47</title>
<path fill="none" stroke="black" d="M795.79,-293.83C797.91,-285.81 800.45,-276.2 802.79,-267.34"/>
<polygon fill="black" stroke="black" points="806.24,-267.98 805.4,-257.42 799.47,-266.19 806.24,-267.98"/>
</g>
<!-- 43 -->
<g id="node44" class="node">
<title>43</title>
<polygon fill="none" stroke="black" points="719.5,-183 620.5,-183 620.5,-147 719.5,-147 719.5,-183"/>
<text text-anchor="middle" x="670" y="-161.3" font-family="Times,serif" font-size="14.00">class = Canada</text>
</g>
<!-- 42&#45;&gt;43 -->
<g id="edge43" class="edge">
<title>42&#45;&gt;43</title>
<path fill="none" stroke="black" d="M684.21,-219.83C682.09,-211.81 679.55,-202.2 677.21,-193.34"/>
<polygon fill="black" stroke="black" points="680.53,-192.19 674.6,-183.42 673.76,-193.98 680.53,-192.19"/>
</g>
<!-- 44 -->
<g id="node45" class="node">
<title>44</title>
<polygon fill="none" stroke="black" points="872,-184 738,-184 738,-146 872,-146 872,-184"/>
<text text-anchor="middle" x="805" y="-168.8" font-family="Times,serif" font-size="14.00">longitude &lt;= &#45;68.459</text>
<text text-anchor="middle" x="805" y="-153.8" font-family="Times,serif" font-size="14.00">class = USA</text>
</g>
<!-- 42&#45;&gt;44 -->
<g id="edge44" class="edge">
<title>42&#45;&gt;44</title>
<path fill="none" stroke="black" d="M718.27,-219.83C733.11,-210.62 751.3,-199.33 767.19,-189.47"/>
<polygon fill="black" stroke="black" points="769.09,-192.41 775.74,-184.16 765.4,-186.46 769.09,-192.41"/>
</g>
<!-- 45 -->
<g id="node46" class="node">
<title>45</title>
<polygon fill="none" stroke="black" points="792,-109 706,-109 706,-73 792,-73 792,-109"/>
<text text-anchor="middle" x="749" y="-87.3" font-family="Times,serif" font-size="14.00">class = USA</text>
</g>
<!-- 44&#45;&gt;45 -->
<g id="edge45" class="edge">
<title>44&#45;&gt;45</title>
<path fill="none" stroke="black" d="M790.87,-145.83C784.15,-137.2 776.01,-126.73 768.7,-117.33"/>
<polygon fill="black" stroke="black" points="771.45,-115.16 762.55,-109.42 765.92,-119.46 771.45,-115.16"/>
</g>
<!-- 46 -->
<g id="node47" class="node">
<title>46</title>
<polygon fill="none" stroke="black" points="909.5,-109 810.5,-109 810.5,-73 909.5,-73 909.5,-109"/>
<text text-anchor="middle" x="860" y="-87.3" font-family="Times,serif" font-size="14.00">class = Canada</text>
</g>
<!-- 44&#45;&gt;46 -->
<g id="edge46" class="edge">
<title>44&#45;&gt;46</title>
<path fill="none" stroke="black" d="M818.88,-145.83C825.41,-137.28 833.31,-126.94 840.43,-117.62"/>
<polygon fill="black" stroke="black" points="843.41,-119.49 846.69,-109.42 837.84,-115.24 843.41,-119.49"/>
</g>
<!-- 49 -->
<g id="node50" class="node">
<title>49</title>
<polygon fill="none" stroke="black" points="1005,-258 871,-258 871,-220 1005,-220 1005,-258"/>
<text text-anchor="middle" x="938" y="-242.8" font-family="Times,serif" font-size="14.00">longitude &lt;= &#45;67.355</text>
<text text-anchor="middle" x="938" y="-227.8" font-family="Times,serif" font-size="14.00">class = Canada</text>
</g>
<!-- 48&#45;&gt;49 -->
<g id="edge49" class="edge">
<title>48&#45;&gt;49</title>
<path fill="none" stroke="black" d="M938,-293.83C938,-286.13 938,-276.97 938,-268.42"/>
<polygon fill="black" stroke="black" points="941.5,-268.41 938,-258.41 934.5,-268.41 941.5,-268.41"/>
</g>
<!-- 52 -->
<g id="node53" class="node">
<title>52</title>
<polygon fill="none" stroke="black" points="1122.5,-257 1023.5,-257 1023.5,-221 1122.5,-221 1122.5,-257"/>
<text text-anchor="middle" x="1073" y="-235.3" font-family="Times,serif" font-size="14.00">class = Canada</text>
</g>
<!-- 48&#45;&gt;52 -->
<g id="edge52" class="edge">
<title>48&#45;&gt;52</title>
<path fill="none" stroke="black" d="M972.07,-293.83C990.19,-284.17 1012.62,-272.2 1031.72,-262.01"/>
<polygon fill="black" stroke="black" points="1033.63,-264.97 1040.8,-257.17 1030.33,-258.79 1033.63,-264.97"/>
</g>
<!-- 50 -->
<g id="node51" class="node">
<title>50</title>
<polygon fill="none" stroke="black" points="979,-183 893,-183 893,-147 979,-147 979,-183"/>
<text text-anchor="middle" x="936" y="-161.3" font-family="Times,serif" font-size="14.00">class = USA</text>
</g>
<!-- 49&#45;&gt;50 -->
<g id="edge50" class="edge">
<title>49&#45;&gt;50</title>
<path fill="none" stroke="black" d="M937.5,-219.83C937.27,-211.89 937.01,-202.41 936.77,-193.63"/>
<polygon fill="black" stroke="black" points="940.26,-193.32 936.48,-183.42 933.26,-193.51 940.26,-193.32"/>
</g>
<!-- 51 -->
<g id="node52" class="node">
<title>51</title>
<polygon fill="none" stroke="black" points="1096.5,-183 997.5,-183 997.5,-147 1096.5,-147 1096.5,-183"/>
<text text-anchor="middle" x="1047" y="-161.3" font-family="Times,serif" font-size="14.00">class = Canada</text>
</g>
<!-- 49&#45;&gt;51 -->
<g id="edge51" class="edge">
<title>49&#45;&gt;51</title>
<path fill="none" stroke="black" d="M965.51,-219.83C979.74,-210.43 997.26,-198.86 1012.41,-188.85"/>
<polygon fill="black" stroke="black" points="1014.59,-191.6 1021,-183.17 1010.73,-185.76 1014.59,-191.6"/>
</g>
</g>
</svg>
