<?xml version="1.0" encoding="UTF-8" standalone="no"?>
<!DOCTYPE svg PUBLIC "-//W3C//DTD SVG 1.1//EN"
 "http://www.w3.org/Graphics/SVG/1.1/DTD/svg11.dtd">
<!-- Generated by graphviz version 2.44.1 (20200629.0846)
 -->
<!-- Title: Tree Pages: 1 -->
<svg width="1951pt" height="636pt"
 viewBox="0.00 0.00 1951.00 636.00" xmlns="http://www.w3.org/2000/svg" xmlns:xlink="http://www.w3.org/1999/xlink">
<g id="graph0" class="graph" transform="scale(1 1) rotate(0) translate(4 632)">
<title>Tree</title>
<polygon fill="white" stroke="transparent" points="-4,4 -4,-632 1947,-632 1947,4 -4,4"/>
<!-- 0 -->
<g id="node1" class="node">
<title>0</title>
<polygon fill="none" stroke="black" points="642,-628 550,-628 550,-590 642,-590 642,-628"/>
<text text-anchor="middle" x="596" y="-612.8" font-family="Times,serif" font-size="14.00">lat &lt;= 37.682</text>
<text text-anchor="middle" x="596" y="-597.8" font-family="Times,serif" font-size="14.00">class = blue</text>
</g>
<!-- 1 -->
<g id="node2" class="node">
<title>1</title>
<polygon fill="none" stroke="black" points="363.5,-554 256.5,-554 256.5,-516 363.5,-516 363.5,-554"/>
<text text-anchor="middle" x="310" y="-538.8" font-family="Times,serif" font-size="14.00">lon &lt;= &#45;114.063</text>
<text text-anchor="middle" x="310" y="-523.8" font-family="Times,serif" font-size="14.00">class = red</text>
</g>
<!-- 0&#45;&gt;1 -->
<g id="edge1" class="edge">
<title>0&#45;&gt;1</title>
<path fill="none" stroke="black" d="M549.73,-596.35C501.81,-584.29 426.6,-565.35 373.21,-551.91"/>
<polygon fill="black" stroke="black" points="374.06,-548.52 363.51,-549.47 372.35,-555.31 374.06,-548.52"/>
<text text-anchor="middle" x="376.33" y="-567.23" font-family="Times,serif" font-size="14.00">True</text>
</g>
<!-- 24 -->
<g id="node25" class="node">
<title>24</title>
<polygon fill="none" stroke="black" points="989,-554 889,-554 889,-516 989,-516 989,-554"/>
<text text-anchor="middle" x="939" y="-538.8" font-family="Times,serif" font-size="14.00">lon &lt;= &#45;96.061</text>
<text text-anchor="middle" x="939" y="-523.8" font-family="Times,serif" font-size="14.00">class = blue</text>
</g>
<!-- 0&#45;&gt;24 -->
<g id="edge24" class="edge">
<title>0&#45;&gt;24</title>
<path fill="none" stroke="black" d="M642.26,-598.29C703.4,-585.46 811.22,-562.82 878.69,-548.66"/>
<polygon fill="black" stroke="black" points="879.68,-552.03 888.75,-546.55 878.24,-545.18 879.68,-552.03"/>
<text text-anchor="middle" x="875.08" y="-563.78" font-family="Times,serif" font-size="14.00">False</text>
</g>
<!-- 2 -->
<g id="node3" class="node">
<title>2</title>
<polygon fill="none" stroke="black" points="246,-479 164,-479 164,-443 246,-443 246,-479"/>
<text text-anchor="middle" x="205" y="-457.3" font-family="Times,serif" font-size="14.00">class = blue</text>
</g>
<!-- 1&#45;&gt;2 -->
<g id="edge2" class="edge">
<title>1&#45;&gt;2</title>
<path fill="none" stroke="black" d="M283.5,-515.83C269.79,-506.43 252.91,-494.86 238.33,-484.85"/>
<polygon fill="black" stroke="black" points="240.27,-481.94 230.04,-479.17 236.31,-487.71 240.27,-481.94"/>
</g>
<!-- 3 -->
<g id="node4" class="node">
<title>3</title>
<polygon fill="none" stroke="black" points="356,-480 264,-480 264,-442 356,-442 356,-480"/>
<text text-anchor="middle" x="310" y="-464.8" font-family="Times,serif" font-size="14.00">lat &lt;= 29.595</text>
<text text-anchor="middle" x="310" y="-449.8" font-family="Times,serif" font-size="14.00">class = red</text>
</g>
<!-- 1&#45;&gt;3 -->
<g id="edge3" class="edge">
<title>1&#45;&gt;3</title>
<path fill="none" stroke="black" d="M310,-515.83C310,-508.13 310,-498.97 310,-490.42"/>
<polygon fill="black" stroke="black" points="313.5,-490.41 310,-480.41 306.5,-490.41 313.5,-490.41"/>
</g>
<!-- 4 -->
<g id="node5" class="node">
<title>4</title>
<polygon fill="none" stroke="black" points="185,-406 85,-406 85,-368 185,-368 185,-406"/>
<text text-anchor="middle" x="135" y="-390.8" font-family="Times,serif" font-size="14.00">lon &lt;= &#45;90.074</text>
<text text-anchor="middle" x="135" y="-375.8" font-family="Times,serif" font-size="14.00">class = blue</text>
</g>
<!-- 3&#45;&gt;4 -->
<g id="edge4" class="edge">
<title>3&#45;&gt;4</title>
<path fill="none" stroke="black" d="M265.84,-441.83C242.23,-432.12 212.98,-420.08 188.13,-409.86"/>
<polygon fill="black" stroke="black" points="189.42,-406.61 178.84,-406.04 186.76,-413.08 189.42,-406.61"/>
</g>
<!-- 7 -->
<g id="node8" class="node">
<title>7</title>
<polygon fill="none" stroke="black" points="356,-406 264,-406 264,-368 356,-368 356,-406"/>
<text text-anchor="middle" x="310" y="-390.8" font-family="Times,serif" font-size="14.00">lat &lt;= 36.522</text>
<text text-anchor="middle" x="310" y="-375.8" font-family="Times,serif" font-size="14.00">class = red</text>
</g>
<!-- 3&#45;&gt;7 -->
<g id="edge7" class="edge">
<title>3&#45;&gt;7</title>
<path fill="none" stroke="black" d="M310,-441.83C310,-434.13 310,-424.97 310,-416.42"/>
<polygon fill="black" stroke="black" points="313.5,-416.41 310,-406.41 306.5,-416.41 313.5,-416.41"/>
</g>
<!-- 5 -->
<g id="node6" class="node">
<title>5</title>
<polygon fill="none" stroke="black" points="76,-331 0,-331 0,-295 76,-295 76,-331"/>
<text text-anchor="middle" x="38" y="-309.3" font-family="Times,serif" font-size="14.00">class = red</text>
</g>
<!-- 4&#45;&gt;5 -->
<g id="edge5" class="edge">
<title>4&#45;&gt;5</title>
<path fill="none" stroke="black" d="M110.52,-367.83C97.97,-358.52 82.55,-347.07 69.16,-337.13"/>
<polygon fill="black" stroke="black" points="71.25,-334.32 61.13,-331.17 67.08,-339.94 71.25,-334.32"/>
</g>
<!-- 6 -->
<g id="node7" class="node">
<title>6</title>
<polygon fill="none" stroke="black" points="176,-331 94,-331 94,-295 176,-295 176,-331"/>
<text text-anchor="middle" x="135" y="-309.3" font-family="Times,serif" font-size="14.00">class = blue</text>
</g>
<!-- 4&#45;&gt;6 -->
<g id="edge6" class="edge">
<title>4&#45;&gt;6</title>
<path fill="none" stroke="black" d="M135,-367.83C135,-359.89 135,-350.41 135,-341.63"/>
<polygon fill="black" stroke="black" points="138.5,-341.42 135,-331.42 131.5,-341.42 138.5,-341.42"/>
</g>
<!-- 8 -->
<g id="node9" class="node">
<title>8</title>
<polygon fill="none" stroke="black" points="301.5,-332 194.5,-332 194.5,-294 301.5,-294 301.5,-332"/>
<text text-anchor="middle" x="248" y="-316.8" font-family="Times,serif" font-size="14.00">lon &lt;= &#45;102.257</text>
<text text-anchor="middle" x="248" y="-301.8" font-family="Times,serif" font-size="14.00">class = red</text>
</g>
<!-- 7&#45;&gt;8 -->
<g id="edge8" class="edge">
<title>7&#45;&gt;8</title>
<path fill="none" stroke="black" d="M294.35,-367.83C287.14,-359.45 278.44,-349.35 270.54,-340.17"/>
<polygon fill="black" stroke="black" points="273.03,-337.71 263.86,-332.41 267.73,-342.27 273.03,-337.71"/>
</g>
<!-- 15 -->
<g id="node16" class="node">
<title>15</title>
<polygon fill="none" stroke="black" points="420,-332 320,-332 320,-294 420,-294 420,-332"/>
<text text-anchor="middle" x="370" y="-316.8" font-family="Times,serif" font-size="14.00">lon &lt;= &#45;82.415</text>
<text text-anchor="middle" x="370" y="-301.8" font-family="Times,serif" font-size="14.00">class = red</text>
</g>
<!-- 7&#45;&gt;15 -->
<g id="edge15" class="edge">
<title>7&#45;&gt;15</title>
<path fill="none" stroke="black" d="M325.14,-367.83C332.12,-359.45 340.54,-349.35 348.19,-340.17"/>
<polygon fill="black" stroke="black" points="350.94,-342.34 354.66,-332.41 345.56,-337.85 350.94,-342.34"/>
</g>
<!-- 9 -->
<g id="node10" class="node">
<title>9</title>
<polygon fill="none" stroke="black" points="191.5,-258 84.5,-258 84.5,-220 191.5,-220 191.5,-258"/>
<text text-anchor="middle" x="138" y="-242.8" font-family="Times,serif" font-size="14.00">lon &lt;= &#45;107.589</text>
<text text-anchor="middle" x="138" y="-227.8" font-family="Times,serif" font-size="14.00">class = red</text>
</g>
<!-- 8&#45;&gt;9 -->
<g id="edge9" class="edge">
<title>8&#45;&gt;9</title>
<path fill="none" stroke="black" d="M220.24,-293.83C206.3,-284.71 189.24,-273.54 174.28,-263.74"/>
<polygon fill="black" stroke="black" points="176.03,-260.71 165.75,-258.16 172.2,-266.57 176.03,-260.71"/>
</g>
<!-- 14 -->
<g id="node15" class="node">
<title>14</title>
<polygon fill="none" stroke="black" points="286,-257 210,-257 210,-221 286,-221 286,-257"/>
<text text-anchor="middle" x="248" y="-235.3" font-family="Times,serif" font-size="14.00">class = red</text>
</g>
<!-- 8&#45;&gt;14 -->
<g id="edge14" class="edge">
<title>8&#45;&gt;14</title>
<path fill="none" stroke="black" d="M248,-293.83C248,-285.89 248,-276.41 248,-267.63"/>
<polygon fill="black" stroke="black" points="251.5,-267.42 248,-257.42 244.5,-267.42 251.5,-267.42"/>
</g>
<!-- 10 -->
<g id="node11" class="node">
<title>10</title>
<polygon fill="none" stroke="black" points="83,-183 7,-183 7,-147 83,-147 83,-183"/>
<text text-anchor="middle" x="45" y="-161.3" font-family="Times,serif" font-size="14.00">class = red</text>
</g>
<!-- 9&#45;&gt;10 -->
<g id="edge10" class="edge">
<title>9&#45;&gt;10</title>
<path fill="none" stroke="black" d="M114.53,-219.83C102.61,-210.6 88,-199.29 75.24,-189.41"/>
<polygon fill="black" stroke="black" points="77.23,-186.53 67.18,-183.17 72.94,-192.06 77.23,-186.53"/>
</g>
<!-- 11 -->
<g id="node12" class="node">
<title>11</title>
<polygon fill="none" stroke="black" points="193,-184 101,-184 101,-146 193,-146 193,-184"/>
<text text-anchor="middle" x="147" y="-168.8" font-family="Times,serif" font-size="14.00">lat &lt;= 31.788</text>
<text text-anchor="middle" x="147" y="-153.8" font-family="Times,serif" font-size="14.00">class = blue</text>
</g>
<!-- 9&#45;&gt;11 -->
<g id="edge11" class="edge">
<title>9&#45;&gt;11</title>
<path fill="none" stroke="black" d="M140.27,-219.83C141.23,-212.13 142.38,-202.97 143.45,-194.42"/>
<polygon fill="black" stroke="black" points="146.93,-194.77 144.7,-184.41 139.98,-193.9 146.93,-194.77"/>
</g>
<!-- 12 -->
<g id="node13" class="node">
<title>12</title>
<polygon fill="none" stroke="black" points="137,-109 61,-109 61,-73 137,-73 137,-109"/>
<text text-anchor="middle" x="99" y="-87.3" font-family="Times,serif" font-size="14.00">class = red</text>
</g>
<!-- 11&#45;&gt;12 -->
<g id="edge12" class="edge">
<title>11&#45;&gt;12</title>
<path fill="none" stroke="black" d="M134.89,-145.83C129.25,-137.37 122.43,-127.15 116.27,-117.9"/>
<polygon fill="black" stroke="black" points="119.07,-115.8 110.61,-109.42 113.25,-119.68 119.07,-115.8"/>
</g>
<!-- 13 -->
<g id="node14" class="node">
<title>13</title>
<polygon fill="none" stroke="black" points="237,-109 155,-109 155,-73 237,-73 237,-109"/>
<text text-anchor="middle" x="196" y="-87.3" font-family="Times,serif" font-size="14.00">class = blue</text>
</g>
<!-- 11&#45;&gt;13 -->
<g id="edge13" class="edge">
<title>11&#45;&gt;13</title>
<path fill="none" stroke="black" d="M159.36,-145.83C165.12,-137.37 172.08,-127.15 178.37,-117.9"/>
<polygon fill="black" stroke="black" points="181.41,-119.65 184.15,-109.42 175.63,-115.72 181.41,-119.65"/>
</g>
<!-- 16 -->
<g id="node17" class="node">
<title>16</title>
<polygon fill="none" stroke="black" points="411.5,-258 304.5,-258 304.5,-220 411.5,-220 411.5,-258"/>
<text text-anchor="middle" x="358" y="-242.8" font-family="Times,serif" font-size="14.00">lon &lt;= &#45;100.922</text>
<text text-anchor="middle" x="358" y="-227.8" font-family="Times,serif" font-size="14.00">class = red</text>
</g>
<!-- 15&#45;&gt;16 -->
<g id="edge16" class="edge">
<title>15&#45;&gt;16</title>
<path fill="none" stroke="black" d="M366.97,-293.83C365.69,-286.13 364.16,-276.97 362.74,-268.42"/>
<polygon fill="black" stroke="black" points="366.17,-267.7 361.07,-258.41 359.26,-268.85 366.17,-267.7"/>
</g>
<!-- 19 -->
<g id="node20" class="node">
<title>19</title>
<polygon fill="none" stroke="black" points="530,-258 430,-258 430,-220 530,-220 530,-258"/>
<text text-anchor="middle" x="480" y="-242.8" font-family="Times,serif" font-size="14.00">lon &lt;= &#45;80.706</text>
<text text-anchor="middle" x="480" y="-227.8" font-family="Times,serif" font-size="14.00">class = blue</text>
</g>
<!-- 15&#45;&gt;19 -->
<g id="edge19" class="edge">
<title>15&#45;&gt;19</title>
<path fill="none" stroke="black" d="M397.76,-293.83C411.7,-284.71 428.76,-273.54 443.72,-263.74"/>
<polygon fill="black" stroke="black" points="445.8,-266.57 452.25,-258.16 441.97,-260.71 445.8,-266.57"/>
</g>
<!-- 17 -->
<g id="node18" class="node">
<title>17</title>
<polygon fill="none" stroke="black" points="302,-183 220,-183 220,-147 302,-147 302,-183"/>
<text text-anchor="middle" x="261" y="-161.3" font-family="Times,serif" font-size="14.00">class = blue</text>
</g>
<!-- 16&#45;&gt;17 -->
<g id="edge17" class="edge">
<title>16&#45;&gt;17</title>
<path fill="none" stroke="black" d="M333.52,-219.83C320.97,-210.52 305.55,-199.07 292.16,-189.13"/>
<polygon fill="black" stroke="black" points="294.25,-186.32 284.13,-183.17 290.08,-191.94 294.25,-186.32"/>
</g>
<!-- 18 -->
<g id="node19" class="node">
<title>18</title>
<polygon fill="none" stroke="black" points="396,-183 320,-183 320,-147 396,-147 396,-183"/>
<text text-anchor="middle" x="358" y="-161.3" font-family="Times,serif" font-size="14.00">class = red</text>
</g>
<!-- 16&#45;&gt;18 -->
<g id="edge18" class="edge">
<title>16&#45;&gt;18</title>
<path fill="none" stroke="black" d="M358,-219.83C358,-211.89 358,-202.41 358,-193.63"/>
<polygon fill="black" stroke="black" points="361.5,-193.42 358,-183.42 354.5,-193.42 361.5,-193.42"/>
</g>
<!-- 20 -->
<g id="node21" class="node">
<title>20</title>
<polygon fill="none" stroke="black" points="514,-184 414,-184 414,-146 514,-146 514,-184"/>
<text text-anchor="middle" x="464" y="-168.8" font-family="Times,serif" font-size="14.00">lon &lt;= &#45;81.939</text>
<text text-anchor="middle" x="464" y="-153.8" font-family="Times,serif" font-size="14.00">class = blue</text>
</g>
<!-- 19&#45;&gt;20 -->
<g id="edge20" class="edge">
<title>19&#45;&gt;20</title>
<path fill="none" stroke="black" d="M475.96,-219.83C474.25,-212.13 472.22,-202.97 470.31,-194.42"/>
<polygon fill="black" stroke="black" points="473.68,-193.42 468.09,-184.41 466.84,-194.93 473.68,-193.42"/>
</g>
<!-- 23 -->
<g id="node24" class="node">
<title>23</title>
<polygon fill="none" stroke="black" points="614,-183 532,-183 532,-147 614,-147 614,-183"/>
<text text-anchor="middle" x="573" y="-161.3" font-family="Times,serif" font-size="14.00">class = blue</text>
</g>
<!-- 19&#45;&gt;23 -->
<g id="edge23" class="edge">
<title>19&#45;&gt;23</title>
<path fill="none" stroke="black" d="M503.47,-219.83C515.39,-210.6 530,-199.29 542.76,-189.41"/>
<polygon fill="black" stroke="black" points="545.06,-192.06 550.82,-183.17 540.77,-186.53 545.06,-192.06"/>
</g>
<!-- 21 -->
<g id="node22" class="node">
<title>21</title>
<polygon fill="none" stroke="black" points="457,-109 375,-109 375,-73 457,-73 457,-109"/>
<text text-anchor="middle" x="416" y="-87.3" font-family="Times,serif" font-size="14.00">class = blue</text>
</g>
<!-- 20&#45;&gt;21 -->
<g id="edge21" class="edge">
<title>20&#45;&gt;21</title>
<path fill="none" stroke="black" d="M451.89,-145.83C446.25,-137.37 439.43,-127.15 433.27,-117.9"/>
<polygon fill="black" stroke="black" points="436.07,-115.8 427.61,-109.42 430.25,-119.68 436.07,-115.8"/>
</g>
<!-- 22 -->
<g id="node23" class="node">
<title>22</title>
<polygon fill="none" stroke="black" points="551,-109 475,-109 475,-73 551,-73 551,-109"/>
<text text-anchor="middle" x="513" y="-87.3" font-family="Times,serif" font-size="14.00">class = red</text>
</g>
<!-- 20&#45;&gt;22 -->
<g id="edge22" class="edge">
<title>20&#45;&gt;22</title>
<path fill="none" stroke="black" d="M476.36,-145.83C482.12,-137.37 489.08,-127.15 495.37,-117.9"/>
<polygon fill="black" stroke="black" points="498.41,-119.65 501.15,-109.42 492.63,-115.72 498.41,-119.65"/>
</g>
<!-- 25 -->
<g id="node26" class="node">
<title>25</title>
<polygon fill="none" stroke="black" points="992.5,-480 885.5,-480 885.5,-442 992.5,-442 992.5,-480"/>
<text text-anchor="middle" x="939" y="-464.8" font-family="Times,serif" font-size="14.00">lon &lt;= &#45;104.089</text>
<text text-anchor="middle" x="939" y="-449.8" font-family="Times,serif" font-size="14.00">class = red</text>
</g>
<!-- 24&#45;&gt;25 -->
<g id="edge25" class="edge">
<title>24&#45;&gt;25</title>
<path fill="none" stroke="black" d="M939,-515.83C939,-508.13 939,-498.97 939,-490.42"/>
<polygon fill="black" stroke="black" points="942.5,-490.41 939,-480.41 935.5,-490.41 942.5,-490.41"/>
</g>
<!-- 42 -->
<g id="node43" class="node">
<title>42</title>
<polygon fill="none" stroke="black" points="1552,-480 1460,-480 1460,-442 1552,-442 1552,-480"/>
<text text-anchor="middle" x="1506" y="-464.8" font-family="Times,serif" font-size="14.00">lat &lt;= 39.759</text>
<text text-anchor="middle" x="1506" y="-449.8" font-family="Times,serif" font-size="14.00">class = blue</text>
</g>
<!-- 24&#45;&gt;42 -->
<g id="edge42" class="edge">
<title>24&#45;&gt;42</title>
<path fill="none" stroke="black" d="M989.32,-527.61C1094.97,-514.19 1339.26,-483.17 1449.83,-469.13"/>
<polygon fill="black" stroke="black" points="1450.31,-472.6 1459.79,-467.87 1449.43,-465.66 1450.31,-472.6"/>
</g>
<!-- 26 -->
<g id="node27" class="node">
<title>26</title>
<polygon fill="none" stroke="black" points="928,-406 836,-406 836,-368 928,-368 928,-406"/>
<text text-anchor="middle" x="882" y="-390.8" font-family="Times,serif" font-size="14.00">lat &lt;= 41.895</text>
<text text-anchor="middle" x="882" y="-375.8" font-family="Times,serif" font-size="14.00">class = blue</text>
</g>
<!-- 25&#45;&gt;26 -->
<g id="edge26" class="edge">
<title>25&#45;&gt;26</title>
<path fill="none" stroke="black" d="M924.62,-441.83C918.05,-433.54 910.15,-423.56 902.94,-414.45"/>
<polygon fill="black" stroke="black" points="905.53,-412.08 896.58,-406.41 900.04,-416.43 905.53,-412.08"/>
</g>
<!-- 37 -->
<g id="node38" class="node">
<title>37</title>
<polygon fill="none" stroke="black" points="1046,-406 946,-406 946,-368 1046,-368 1046,-406"/>
<text text-anchor="middle" x="996" y="-390.8" font-family="Times,serif" font-size="14.00">lon &lt;= &#45;96.557</text>
<text text-anchor="middle" x="996" y="-375.8" font-family="Times,serif" font-size="14.00">class = red</text>
</g>
<!-- 25&#45;&gt;37 -->
<g id="edge37" class="edge">
<title>25&#45;&gt;37</title>
<path fill="none" stroke="black" d="M953.38,-441.83C959.95,-433.54 967.85,-423.56 975.06,-414.45"/>
<polygon fill="black" stroke="black" points="977.96,-416.43 981.42,-406.41 972.47,-412.08 977.96,-416.43"/>
</g>
<!-- 27 -->
<g id="node28" class="node">
<title>27</title>
<polygon fill="none" stroke="black" points="825.5,-332 740.5,-332 740.5,-294 825.5,-294 825.5,-332"/>
<text text-anchor="middle" x="783" y="-316.8" font-family="Times,serif" font-size="14.00">lat &lt;= 38.44</text>
<text text-anchor="middle" x="783" y="-301.8" font-family="Times,serif" font-size="14.00">class = blue</text>
</g>
<!-- 26&#45;&gt;27 -->
<g id="edge27" class="edge">
<title>26&#45;&gt;27</title>
<path fill="none" stroke="black" d="M857.02,-367.83C844.71,-358.88 829.69,-347.96 816.41,-338.3"/>
<polygon fill="black" stroke="black" points="818.12,-335.21 807.97,-332.16 814,-340.88 818.12,-335.21"/>
</g>
<!-- 32 -->
<g id="node33" class="node">
<title>32</title>
<polygon fill="none" stroke="black" points="928.5,-332 843.5,-332 843.5,-294 928.5,-294 928.5,-332"/>
<text text-anchor="middle" x="886" y="-316.8" font-family="Times,serif" font-size="14.00">lat &lt;= 45.33</text>
<text text-anchor="middle" x="886" y="-301.8" font-family="Times,serif" font-size="14.00">class = red</text>
</g>
<!-- 26&#45;&gt;32 -->
<g id="edge32" class="edge">
<title>26&#45;&gt;32</title>
<path fill="none" stroke="black" d="M883.01,-367.83C883.44,-360.13 883.95,-350.97 884.42,-342.42"/>
<polygon fill="black" stroke="black" points="887.92,-342.59 884.98,-332.41 880.93,-342.2 887.92,-342.59"/>
</g>
<!-- 28 -->
<g id="node29" class="node">
<title>28</title>
<polygon fill="none" stroke="black" points="726.5,-258 619.5,-258 619.5,-220 726.5,-220 726.5,-258"/>
<text text-anchor="middle" x="673" y="-242.8" font-family="Times,serif" font-size="14.00">lon &lt;= &#45;115.526</text>
<text text-anchor="middle" x="673" y="-227.8" font-family="Times,serif" font-size="14.00">class = blue</text>
</g>
<!-- 27&#45;&gt;28 -->
<g id="edge28" class="edge">
<title>27&#45;&gt;28</title>
<path fill="none" stroke="black" d="M755.24,-293.83C741.3,-284.71 724.24,-273.54 709.28,-263.74"/>
<polygon fill="black" stroke="black" points="711.03,-260.71 700.75,-258.16 707.2,-266.57 711.03,-260.71"/>
</g>
<!-- 31 -->
<g id="node32" class="node">
<title>31</title>
<polygon fill="none" stroke="black" points="827,-257 745,-257 745,-221 827,-221 827,-257"/>
<text text-anchor="middle" x="786" y="-235.3" font-family="Times,serif" font-size="14.00">class = blue</text>
</g>
<!-- 27&#45;&gt;31 -->
<g id="edge31" class="edge">
<title>27&#45;&gt;31</title>
<path fill="none" stroke="black" d="M783.76,-293.83C784.09,-285.89 784.48,-276.41 784.85,-267.63"/>
<polygon fill="black" stroke="black" points="788.35,-267.55 785.27,-257.42 781.36,-267.26 788.35,-267.55"/>
</g>
<!-- 29 -->
<g id="node30" class="node">
<title>29</title>
<polygon fill="none" stroke="black" points="714,-183 632,-183 632,-147 714,-147 714,-183"/>
<text text-anchor="middle" x="673" y="-161.3" font-family="Times,serif" font-size="14.00">class = blue</text>
</g>
<!-- 28&#45;&gt;29 -->
<g id="edge29" class="edge">
<title>28&#45;&gt;29</title>
<path fill="none" stroke="black" d="M673,-219.83C673,-211.89 673,-202.41 673,-193.63"/>
<polygon fill="black" stroke="black" points="676.5,-193.42 673,-183.42 669.5,-193.42 676.5,-193.42"/>
</g>
<!-- 30 -->
<g id="node31" class="node">
<title>30</title>
<polygon fill="none" stroke="black" points="808,-183 732,-183 732,-147 808,-147 808,-183"/>
<text text-anchor="middle" x="770" y="-161.3" font-family="Times,serif" font-size="14.00">class = red</text>
</g>
<!-- 28&#45;&gt;30 -->
<g id="edge30" class="edge">
<title>28&#45;&gt;30</title>
<path fill="none" stroke="black" d="M697.48,-219.83C710.03,-210.52 725.45,-199.07 738.84,-189.13"/>
<polygon fill="black" stroke="black" points="740.92,-191.94 746.87,-183.17 736.75,-186.32 740.92,-191.94"/>
</g>
<!-- 33 -->
<g id="node34" class="node">
<title>33</title>
<polygon fill="none" stroke="black" points="921,-257 845,-257 845,-221 921,-221 921,-257"/>
<text text-anchor="middle" x="883" y="-235.3" font-family="Times,serif" font-size="14.00">class = red</text>
</g>
<!-- 32&#45;&gt;33 -->
<g id="edge33" class="edge">
<title>32&#45;&gt;33</title>
<path fill="none" stroke="black" d="M885.24,-293.83C884.91,-285.89 884.52,-276.41 884.15,-267.63"/>
<polygon fill="black" stroke="black" points="887.64,-267.26 883.73,-257.42 880.65,-267.55 887.64,-267.26"/>
</g>
<!-- 34 -->
<g id="node35" class="node">
<title>34</title>
<polygon fill="none" stroke="black" points="1031,-258 939,-258 939,-220 1031,-220 1031,-258"/>
<text text-anchor="middle" x="985" y="-242.8" font-family="Times,serif" font-size="14.00">lat &lt;= 50.907</text>
<text text-anchor="middle" x="985" y="-227.8" font-family="Times,serif" font-size="14.00">class = blue</text>
</g>
<!-- 32&#45;&gt;34 -->
<g id="edge34" class="edge">
<title>32&#45;&gt;34</title>
<path fill="none" stroke="black" d="M910.98,-293.83C923.29,-284.88 938.31,-273.96 951.59,-264.3"/>
<polygon fill="black" stroke="black" points="954,-266.88 960.03,-258.16 949.88,-261.21 954,-266.88"/>
</g>
<!-- 35 -->
<g id="node36" class="node">
<title>35</title>
<polygon fill="none" stroke="black" points="997,-183 915,-183 915,-147 997,-147 997,-183"/>
<text text-anchor="middle" x="956" y="-161.3" font-family="Times,serif" font-size="14.00">class = blue</text>
</g>
<!-- 34&#45;&gt;35 -->
<g id="edge35" class="edge">
<title>34&#45;&gt;35</title>
<path fill="none" stroke="black" d="M977.68,-219.83C974.38,-211.63 970.41,-201.78 966.78,-192.76"/>
<polygon fill="black" stroke="black" points="970,-191.39 963.02,-183.42 963.51,-194 970,-191.39"/>
</g>
<!-- 36 -->
<g id="node37" class="node">
<title>36</title>
<polygon fill="none" stroke="black" points="1091,-183 1015,-183 1015,-147 1091,-147 1091,-183"/>
<text text-anchor="middle" x="1053" y="-161.3" font-family="Times,serif" font-size="14.00">class = red</text>
</g>
<!-- 34&#45;&gt;36 -->
<g id="edge36" class="edge">
<title>34&#45;&gt;36</title>
<path fill="none" stroke="black" d="M1002.16,-219.83C1010.48,-211.02 1020.6,-200.31 1029.61,-190.76"/>
<polygon fill="black" stroke="black" points="1032.23,-193.09 1036.55,-183.42 1027.14,-188.28 1032.23,-193.09"/>
</g>
<!-- 38 -->
<g id="node39" class="node">
<title>38</title>
<polygon fill="none" stroke="black" points="1027,-331 951,-331 951,-295 1027,-295 1027,-331"/>
<text text-anchor="middle" x="989" y="-309.3" font-family="Times,serif" font-size="14.00">class = red</text>
</g>
<!-- 37&#45;&gt;38 -->
<g id="edge38" class="edge">
<title>37&#45;&gt;38</title>
<path fill="none" stroke="black" d="M994.23,-367.83C993.46,-359.89 992.54,-350.41 991.69,-341.63"/>
<polygon fill="black" stroke="black" points="995.14,-341.03 990.69,-331.42 988.18,-341.71 995.14,-341.03"/>
</g>
<!-- 39 -->
<g id="node40" class="node">
<title>39</title>
<polygon fill="none" stroke="black" points="1137,-332 1045,-332 1045,-294 1137,-294 1137,-332"/>
<text text-anchor="middle" x="1091" y="-316.8" font-family="Times,serif" font-size="14.00">lat &lt;= 42.007</text>
<text text-anchor="middle" x="1091" y="-301.8" font-family="Times,serif" font-size="14.00">class = blue</text>
</g>
<!-- 37&#45;&gt;39 -->
<g id="edge39" class="edge">
<title>37&#45;&gt;39</title>
<path fill="none" stroke="black" d="M1019.97,-367.83C1031.79,-358.88 1046.2,-347.96 1058.94,-338.3"/>
<polygon fill="black" stroke="black" points="1061.18,-340.99 1067.04,-332.16 1056.95,-335.41 1061.18,-340.99"/>
</g>
<!-- 40 -->
<g id="node41" class="node">
<title>40</title>
<polygon fill="none" stroke="black" points="1125,-257 1049,-257 1049,-221 1125,-221 1125,-257"/>
<text text-anchor="middle" x="1087" y="-235.3" font-family="Times,serif" font-size="14.00">class = red</text>
</g>
<!-- 39&#45;&gt;40 -->
<g id="edge40" class="edge">
<title>39&#45;&gt;40</title>
<path fill="none" stroke="black" d="M1089.99,-293.83C1089.55,-285.89 1089.02,-276.41 1088.53,-267.63"/>
<polygon fill="black" stroke="black" points="1092.02,-267.21 1087.97,-257.42 1085.03,-267.6 1092.02,-267.21"/>
</g>
<!-- 41 -->
<g id="node42" class="node">
<title>41</title>
<polygon fill="none" stroke="black" points="1225,-257 1143,-257 1143,-221 1225,-221 1225,-257"/>
<text text-anchor="middle" x="1184" y="-235.3" font-family="Times,serif" font-size="14.00">class = blue</text>
</g>
<!-- 39&#45;&gt;41 -->
<g id="edge41" class="edge">
<title>39&#45;&gt;41</title>
<path fill="none" stroke="black" d="M1114.47,-293.83C1126.39,-284.6 1141,-273.29 1153.76,-263.41"/>
<polygon fill="black" stroke="black" points="1156.06,-266.06 1161.82,-257.17 1151.77,-260.53 1156.06,-266.06"/>
</g>
<!-- 43 -->
<g id="node44" class="node">
<title>43</title>
<polygon fill="none" stroke="black" points="1556,-406 1456,-406 1456,-368 1556,-368 1556,-406"/>
<text text-anchor="middle" x="1506" y="-390.8" font-family="Times,serif" font-size="14.00">lon &lt;= &#45;79.773</text>
<text text-anchor="middle" x="1506" y="-375.8" font-family="Times,serif" font-size="14.00">class = blue</text>
</g>
<!-- 42&#45;&gt;43 -->
<g id="edge43" class="edge">
<title>42&#45;&gt;43</title>
<path fill="none" stroke="black" d="M1506,-441.83C1506,-434.13 1506,-424.97 1506,-416.42"/>
<polygon fill="black" stroke="black" points="1509.5,-416.41 1506,-406.41 1502.5,-416.41 1509.5,-416.41"/>
</g>
<!-- 62 -->
<g id="node63" class="node">
<title>62</title>
<polygon fill="none" stroke="black" points="1843,-406 1743,-406 1743,-368 1843,-368 1843,-406"/>
<text text-anchor="middle" x="1793" y="-390.8" font-family="Times,serif" font-size="14.00">lon &lt;= &#45;84.905</text>
<text text-anchor="middle" x="1793" y="-375.8" font-family="Times,serif" font-size="14.00">class = blue</text>
</g>
<!-- 42&#45;&gt;62 -->
<g id="edge62" class="edge">
<title>42&#45;&gt;62</title>
<path fill="none" stroke="black" d="M1552.11,-448.43C1601.19,-436.12 1679.04,-416.59 1732.89,-403.08"/>
<polygon fill="black" stroke="black" points="1733.81,-406.46 1742.66,-400.63 1732.11,-399.67 1733.81,-406.46"/>
</g>
<!-- 44 -->
<g id="node45" class="node">
<title>44</title>
<polygon fill="none" stroke="black" points="1488,-332 1388,-332 1388,-294 1488,-294 1488,-332"/>
<text text-anchor="middle" x="1438" y="-316.8" font-family="Times,serif" font-size="14.00">lon &lt;= &#45;87.643</text>
<text text-anchor="middle" x="1438" y="-301.8" font-family="Times,serif" font-size="14.00">class = red</text>
</g>
<!-- 43&#45;&gt;44 -->
<g id="edge44" class="edge">
<title>43&#45;&gt;44</title>
<path fill="none" stroke="black" d="M1488.84,-367.83C1480.85,-359.37 1471.2,-349.15 1462.46,-339.9"/>
<polygon fill="black" stroke="black" points="1464.8,-337.28 1455.39,-332.41 1459.71,-342.09 1464.8,-337.28"/>
</g>
<!-- 57 -->
<g id="node58" class="node">
<title>57</title>
<polygon fill="none" stroke="black" points="1625,-332 1525,-332 1525,-294 1625,-294 1625,-332"/>
<text text-anchor="middle" x="1575" y="-316.8" font-family="Times,serif" font-size="14.00">lon &lt;= &#45;78.395</text>
<text text-anchor="middle" x="1575" y="-301.8" font-family="Times,serif" font-size="14.00">class = blue</text>
</g>
<!-- 43&#45;&gt;57 -->
<g id="edge57" class="edge">
<title>43&#45;&gt;57</title>
<path fill="none" stroke="black" d="M1523.41,-367.83C1531.52,-359.37 1541.32,-349.15 1550.18,-339.9"/>
<polygon fill="black" stroke="black" points="1552.96,-342.05 1557.35,-332.41 1547.91,-337.21 1552.96,-342.05"/>
</g>
<!-- 45 -->
<g id="node46" class="node">
<title>45</title>
<polygon fill="none" stroke="black" points="1336.5,-258 1243.5,-258 1243.5,-220 1336.5,-220 1336.5,-258"/>
<text text-anchor="middle" x="1290" y="-242.8" font-family="Times,serif" font-size="14.00">lon &lt;= &#45;90.12</text>
<text text-anchor="middle" x="1290" y="-227.8" font-family="Times,serif" font-size="14.00">class = blue</text>
</g>
<!-- 44&#45;&gt;45 -->
<g id="edge45" class="edge">
<title>44&#45;&gt;45</title>
<path fill="none" stroke="black" d="M1400.65,-293.83C1381.12,-284.33 1357.04,-272.61 1336.33,-262.54"/>
<polygon fill="black" stroke="black" points="1337.6,-259.27 1327.08,-258.04 1334.54,-265.56 1337.6,-259.27"/>
</g>
<!-- 52 -->
<g id="node53" class="node">
<title>52</title>
<polygon fill="none" stroke="black" points="1484,-258 1392,-258 1392,-220 1484,-220 1484,-258"/>
<text text-anchor="middle" x="1438" y="-242.8" font-family="Times,serif" font-size="14.00">lat &lt;= 38.562</text>
<text text-anchor="middle" x="1438" y="-227.8" font-family="Times,serif" font-size="14.00">class = red</text>
</g>
<!-- 44&#45;&gt;52 -->
<g id="edge52" class="edge">
<title>44&#45;&gt;52</title>
<path fill="none" stroke="black" d="M1438,-293.83C1438,-286.13 1438,-276.97 1438,-268.42"/>
<polygon fill="black" stroke="black" points="1441.5,-268.41 1438,-258.41 1434.5,-268.41 1441.5,-268.41"/>
</g>
<!-- 46 -->
<g id="node47" class="node">
<title>46</title>
<polygon fill="none" stroke="black" points="1216,-184 1116,-184 1116,-146 1216,-146 1216,-184"/>
<text text-anchor="middle" x="1166" y="-168.8" font-family="Times,serif" font-size="14.00">lon &lt;= &#45;90.841</text>
<text text-anchor="middle" x="1166" y="-153.8" font-family="Times,serif" font-size="14.00">class = red</text>
</g>
<!-- 45&#45;&gt;46 -->
<g id="edge46" class="edge">
<title>45&#45;&gt;46</title>
<path fill="none" stroke="black" d="M1258.71,-219.83C1242.7,-210.54 1223.04,-199.12 1205.95,-189.2"/>
<polygon fill="black" stroke="black" points="1207.69,-186.16 1197.28,-184.16 1204.17,-192.21 1207.69,-186.16"/>
</g>
<!-- 51 -->
<g id="node52" class="node">
<title>51</title>
<polygon fill="none" stroke="black" points="1316,-183 1234,-183 1234,-147 1316,-147 1316,-183"/>
<text text-anchor="middle" x="1275" y="-161.3" font-family="Times,serif" font-size="14.00">class = blue</text>
</g>
<!-- 45&#45;&gt;51 -->
<g id="edge51" class="edge">
<title>45&#45;&gt;51</title>
<path fill="none" stroke="black" d="M1286.21,-219.83C1284.54,-211.81 1282.54,-202.2 1280.7,-193.34"/>
<polygon fill="black" stroke="black" points="1284.09,-192.49 1278.63,-183.42 1277.24,-193.92 1284.09,-192.49"/>
</g>
<!-- 47 -->
<g id="node48" class="node">
<title>47</title>
<polygon fill="none" stroke="black" points="1151,-109 1075,-109 1075,-73 1151,-73 1151,-109"/>
<text text-anchor="middle" x="1113" y="-87.3" font-family="Times,serif" font-size="14.00">class = red</text>
</g>
<!-- 46&#45;&gt;47 -->
<g id="edge47" class="edge">
<title>46&#45;&gt;47</title>
<path fill="none" stroke="black" d="M1152.63,-145.83C1146.33,-137.28 1138.72,-126.94 1131.86,-117.62"/>
<polygon fill="black" stroke="black" points="1134.57,-115.4 1125.82,-109.42 1128.93,-119.55 1134.57,-115.4"/>
</g>
<!-- 48 -->
<g id="node49" class="node">
<title>48</title>
<polygon fill="none" stroke="black" points="1269,-110 1169,-110 1169,-72 1269,-72 1269,-110"/>
<text text-anchor="middle" x="1219" y="-94.8" font-family="Times,serif" font-size="14.00">lon &lt;= &#45;90.327</text>
<text text-anchor="middle" x="1219" y="-79.8" font-family="Times,serif" font-size="14.00">class = blue</text>
</g>
<!-- 46&#45;&gt;48 -->
<g id="edge48" class="edge">
<title>46&#45;&gt;48</title>
<path fill="none" stroke="black" d="M1179.37,-145.83C1185.42,-137.62 1192.68,-127.76 1199.32,-118.73"/>
<polygon fill="black" stroke="black" points="1202.34,-120.54 1205.45,-110.41 1196.7,-116.39 1202.34,-120.54"/>
</g>
<!-- 49 -->
<g id="node50" class="node">
<title>49</title>
<polygon fill="none" stroke="black" points="1212,-36 1130,-36 1130,0 1212,0 1212,-36"/>
<text text-anchor="middle" x="1171" y="-14.3" font-family="Times,serif" font-size="14.00">class = blue</text>
</g>
<!-- 48&#45;&gt;49 -->
<g id="edge49" class="edge">
<title>48&#45;&gt;49</title>
<path fill="none" stroke="black" d="M1206.64,-71.72C1201,-63.37 1194.22,-53.35 1188.1,-44.3"/>
<polygon fill="black" stroke="black" points="1191,-42.33 1182.5,-36 1185.2,-46.25 1191,-42.33"/>
</g>
<!-- 50 -->
<g id="node51" class="node">
<title>50</title>
<polygon fill="none" stroke="black" points="1306,-36 1230,-36 1230,0 1306,0 1306,-36"/>
<text text-anchor="middle" x="1268" y="-14.3" font-family="Times,serif" font-size="14.00">class = red</text>
</g>
<!-- 48&#45;&gt;50 -->
<g id="edge50" class="edge">
<title>48&#45;&gt;50</title>
<path fill="none" stroke="black" d="M1231.62,-71.72C1237.38,-63.37 1244.29,-53.35 1250.54,-44.3"/>
<polygon fill="black" stroke="black" points="1253.47,-46.22 1256.27,-36 1247.7,-42.25 1253.47,-46.22"/>
</g>
<!-- 53 -->
<g id="node54" class="node">
<title>53</title>
<polygon fill="none" stroke="black" points="1426,-184 1334,-184 1334,-146 1426,-146 1426,-184"/>
<text text-anchor="middle" x="1380" y="-168.8" font-family="Times,serif" font-size="14.00">lat &lt;= 38.324</text>
<text text-anchor="middle" x="1380" y="-153.8" font-family="Times,serif" font-size="14.00">class = red</text>
</g>
<!-- 52&#45;&gt;53 -->
<g id="edge53" class="edge">
<title>52&#45;&gt;53</title>
<path fill="none" stroke="black" d="M1423.36,-219.83C1416.68,-211.54 1408.64,-201.56 1401.31,-192.45"/>
<polygon fill="black" stroke="black" points="1403.83,-190.01 1394.83,-184.41 1398.38,-194.4 1403.83,-190.01"/>
</g>
<!-- 56 -->
<g id="node57" class="node">
<title>56</title>
<polygon fill="none" stroke="black" points="1520,-183 1444,-183 1444,-147 1520,-147 1520,-183"/>
<text text-anchor="middle" x="1482" y="-161.3" font-family="Times,serif" font-size="14.00">class = red</text>
</g>
<!-- 52&#45;&gt;56 -->
<g id="edge56" class="edge">
<title>52&#45;&gt;56</title>
<path fill="none" stroke="black" d="M1449.1,-219.83C1454.22,-211.46 1460.39,-201.36 1466,-192.19"/>
<polygon fill="black" stroke="black" points="1469.13,-193.78 1471.36,-183.42 1463.15,-190.13 1469.13,-193.78"/>
</g>
<!-- 54 -->
<g id="node55" class="node">
<title>54</title>
<polygon fill="none" stroke="black" points="1417,-109 1341,-109 1341,-73 1417,-73 1417,-109"/>
<text text-anchor="middle" x="1379" y="-87.3" font-family="Times,serif" font-size="14.00">class = red</text>
</g>
<!-- 53&#45;&gt;54 -->
<g id="edge54" class="edge">
<title>53&#45;&gt;54</title>
<path fill="none" stroke="black" d="M1379.75,-145.83C1379.64,-137.89 1379.51,-128.41 1379.38,-119.63"/>
<polygon fill="black" stroke="black" points="1382.88,-119.37 1379.24,-109.42 1375.88,-119.47 1382.88,-119.37"/>
</g>
<!-- 55 -->
<g id="node56" class="node">
<title>55</title>
<polygon fill="none" stroke="black" points="1517,-109 1435,-109 1435,-73 1517,-73 1517,-109"/>
<text text-anchor="middle" x="1476" y="-87.3" font-family="Times,serif" font-size="14.00">class = blue</text>
</g>
<!-- 53&#45;&gt;55 -->
<g id="edge55" class="edge">
<title>53&#45;&gt;55</title>
<path fill="none" stroke="black" d="M1404.22,-145.83C1416.53,-136.6 1431.62,-125.29 1444.78,-115.41"/>
<polygon fill="black" stroke="black" points="1447.2,-117.97 1453.1,-109.17 1443,-112.37 1447.2,-117.97"/>
</g>
<!-- 58 -->
<g id="node59" class="node">
<title>58</title>
<polygon fill="none" stroke="black" points="1625,-258 1525,-258 1525,-220 1625,-220 1625,-258"/>
<text text-anchor="middle" x="1575" y="-242.8" font-family="Times,serif" font-size="14.00">lon &lt;= &#45;78.878</text>
<text text-anchor="middle" x="1575" y="-227.8" font-family="Times,serif" font-size="14.00">class = blue</text>
</g>
<!-- 57&#45;&gt;58 -->
<g id="edge58" class="edge">
<title>57&#45;&gt;58</title>
<path fill="none" stroke="black" d="M1575,-293.83C1575,-286.13 1575,-276.97 1575,-268.42"/>
<polygon fill="black" stroke="black" points="1578.5,-268.41 1575,-258.41 1571.5,-268.41 1578.5,-268.41"/>
</g>
<!-- 61 -->
<g id="node62" class="node">
<title>61</title>
<polygon fill="none" stroke="black" points="1725,-257 1643,-257 1643,-221 1725,-221 1725,-257"/>
<text text-anchor="middle" x="1684" y="-235.3" font-family="Times,serif" font-size="14.00">class = blue</text>
</g>
<!-- 57&#45;&gt;61 -->
<g id="edge61" class="edge">
<title>57&#45;&gt;61</title>
<path fill="none" stroke="black" d="M1602.51,-293.83C1616.74,-284.43 1634.26,-272.86 1649.41,-262.85"/>
<polygon fill="black" stroke="black" points="1651.59,-265.6 1658,-257.17 1647.73,-259.76 1651.59,-265.6"/>
</g>
<!-- 59 -->
<g id="node60" class="node">
<title>59</title>
<polygon fill="none" stroke="black" points="1620,-183 1538,-183 1538,-147 1620,-147 1620,-183"/>
<text text-anchor="middle" x="1579" y="-161.3" font-family="Times,serif" font-size="14.00">class = blue</text>
</g>
<!-- 58&#45;&gt;59 -->
<g id="edge59" class="edge">
<title>58&#45;&gt;59</title>
<path fill="none" stroke="black" d="M1576.01,-219.83C1576.45,-211.89 1576.98,-202.41 1577.47,-193.63"/>
<polygon fill="black" stroke="black" points="1580.97,-193.6 1578.03,-183.42 1573.98,-193.21 1580.97,-193.6"/>
</g>
<!-- 60 -->
<g id="node61" class="node">
<title>60</title>
<polygon fill="none" stroke="black" points="1714,-183 1638,-183 1638,-147 1714,-147 1714,-183"/>
<text text-anchor="middle" x="1676" y="-161.3" font-family="Times,serif" font-size="14.00">class = red</text>
</g>
<!-- 58&#45;&gt;60 -->
<g id="edge60" class="edge">
<title>58&#45;&gt;60</title>
<path fill="none" stroke="black" d="M1600.49,-219.83C1613.55,-210.52 1629.61,-199.07 1643.55,-189.13"/>
<polygon fill="black" stroke="black" points="1645.8,-191.83 1651.91,-183.17 1641.74,-186.13 1645.8,-191.83"/>
</g>
<!-- 63 -->
<g id="node64" class="node">
<title>63</title>
<polygon fill="none" stroke="black" points="1839,-332 1747,-332 1747,-294 1839,-294 1839,-332"/>
<text text-anchor="middle" x="1793" y="-316.8" font-family="Times,serif" font-size="14.00">lat &lt;= 41.739</text>
<text text-anchor="middle" x="1793" y="-301.8" font-family="Times,serif" font-size="14.00">class = blue</text>
</g>
<!-- 62&#45;&gt;63 -->
<g id="edge63" class="edge">
<title>62&#45;&gt;63</title>
<path fill="none" stroke="black" d="M1793,-367.83C1793,-360.13 1793,-350.97 1793,-342.42"/>
<polygon fill="black" stroke="black" points="1796.5,-342.41 1793,-332.41 1789.5,-342.41 1796.5,-342.41"/>
</g>
<!-- 72 -->
<g id="node73" class="node">
<title>72</title>
<polygon fill="none" stroke="black" points="1939,-331 1857,-331 1857,-295 1939,-295 1939,-331"/>
<text text-anchor="middle" x="1898" y="-309.3" font-family="Times,serif" font-size="14.00">class = blue</text>
</g>
<!-- 62&#45;&gt;72 -->
<g id="edge72" class="edge">
<title>62&#45;&gt;72</title>
<path fill="none" stroke="black" d="M1819.5,-367.83C1833.21,-358.43 1850.09,-346.86 1864.67,-336.85"/>
<polygon fill="black" stroke="black" points="1866.69,-339.71 1872.96,-331.17 1862.73,-333.94 1866.69,-339.71"/>
</g>
<!-- 64 -->
<g id="node65" class="node">
<title>64</title>
<polygon fill="none" stroke="black" points="1843,-258 1743,-258 1743,-220 1843,-220 1843,-258"/>
<text text-anchor="middle" x="1793" y="-242.8" font-family="Times,serif" font-size="14.00">lon &lt;= &#45;87.697</text>
<text text-anchor="middle" x="1793" y="-227.8" font-family="Times,serif" font-size="14.00">class = blue</text>
</g>
<!-- 63&#45;&gt;64 -->
<g id="edge64" class="edge">
<title>63&#45;&gt;64</title>
<path fill="none" stroke="black" d="M1793,-293.83C1793,-286.13 1793,-276.97 1793,-268.42"/>
<polygon fill="black" stroke="black" points="1796.5,-268.41 1793,-258.41 1789.5,-268.41 1796.5,-268.41"/>
</g>
<!-- 71 -->
<g id="node72" class="node">
<title>71</title>
<polygon fill="none" stroke="black" points="1943,-257 1861,-257 1861,-221 1943,-221 1943,-257"/>
<text text-anchor="middle" x="1902" y="-235.3" font-family="Times,serif" font-size="14.00">class = blue</text>
</g>
<!-- 63&#45;&gt;71 -->
<g id="edge71" class="edge">
<title>63&#45;&gt;71</title>
<path fill="none" stroke="black" d="M1820.51,-293.83C1834.74,-284.43 1852.26,-272.86 1867.41,-262.85"/>
<polygon fill="black" stroke="black" points="1869.59,-265.6 1876,-257.17 1865.73,-259.76 1869.59,-265.6"/>
</g>
<!-- 65 -->
<g id="node66" class="node">
<title>65</title>
<polygon fill="none" stroke="black" points="1839,-184 1739,-184 1739,-146 1839,-146 1839,-184"/>
<text text-anchor="middle" x="1789" y="-168.8" font-family="Times,serif" font-size="14.00">lon &lt;= &#45;91.379</text>
<text text-anchor="middle" x="1789" y="-153.8" font-family="Times,serif" font-size="14.00">class = blue</text>
</g>
<!-- 64&#45;&gt;65 -->
<g id="edge65" class="edge">
<title>64&#45;&gt;65</title>
<path fill="none" stroke="black" d="M1791.99,-219.83C1791.56,-212.13 1791.05,-202.97 1790.58,-194.42"/>
<polygon fill="black" stroke="black" points="1794.07,-194.2 1790.02,-184.41 1787.08,-194.59 1794.07,-194.2"/>
</g>
<!-- 70 -->
<g id="node71" class="node">
<title>70</title>
<polygon fill="none" stroke="black" points="1933,-183 1857,-183 1857,-147 1933,-147 1933,-183"/>
<text text-anchor="middle" x="1895" y="-161.3" font-family="Times,serif" font-size="14.00">class = red</text>
</g>
<!-- 64&#45;&gt;70 -->
<g id="edge70" class="edge">
<title>64&#45;&gt;70</title>
<path fill="none" stroke="black" d="M1818.74,-219.83C1831.93,-210.52 1848.15,-199.07 1862.23,-189.13"/>
<polygon fill="black" stroke="black" points="1864.52,-191.8 1870.67,-183.17 1860.49,-186.08 1864.52,-191.8"/>
</g>
<!-- 66 -->
<g id="node67" class="node">
<title>66</title>
<polygon fill="none" stroke="black" points="1782,-110 1690,-110 1690,-72 1782,-72 1782,-110"/>
<text text-anchor="middle" x="1736" y="-94.8" font-family="Times,serif" font-size="14.00">lat &lt;= 40.775</text>
<text text-anchor="middle" x="1736" y="-79.8" font-family="Times,serif" font-size="14.00">class = red</text>
</g>
<!-- 65&#45;&gt;66 -->
<g id="edge66" class="edge">
<title>65&#45;&gt;66</title>
<path fill="none" stroke="black" d="M1775.63,-145.83C1769.58,-137.62 1762.32,-127.76 1755.68,-118.73"/>
<polygon fill="black" stroke="black" points="1758.3,-116.39 1749.55,-110.41 1752.66,-120.54 1758.3,-116.39"/>
</g>
<!-- 69 -->
<g id="node70" class="node">
<title>69</title>
<polygon fill="none" stroke="black" points="1882,-109 1800,-109 1800,-73 1882,-73 1882,-109"/>
<text text-anchor="middle" x="1841" y="-87.3" font-family="Times,serif" font-size="14.00">class = blue</text>
</g>
<!-- 65&#45;&gt;69 -->
<g id="edge69" class="edge">
<title>65&#45;&gt;69</title>
<path fill="none" stroke="black" d="M1802.12,-145.83C1808.3,-137.28 1815.76,-126.94 1822.5,-117.62"/>
<polygon fill="black" stroke="black" points="1825.4,-119.57 1828.42,-109.42 1819.73,-115.48 1825.4,-119.57"/>
</g>
<!-- 67 -->
<g id="node68" class="node">
<title>67</title>
<polygon fill="none" stroke="black" points="1725,-36 1649,-36 1649,0 1725,0 1725,-36"/>
<text text-anchor="middle" x="1687" y="-14.3" font-family="Times,serif" font-size="14.00">class = red</text>
</g>
<!-- 66&#45;&gt;67 -->
<g id="edge67" class="edge">
<title>66&#45;&gt;67</title>
<path fill="none" stroke="black" d="M1723.38,-71.72C1717.62,-63.37 1710.71,-53.35 1704.46,-44.3"/>
<polygon fill="black" stroke="black" points="1707.3,-42.25 1698.73,-36 1701.53,-46.22 1707.3,-42.25"/>
</g>
<!-- 68 -->
<g id="node69" class="node">
<title>68</title>
<polygon fill="none" stroke="black" points="1825,-36 1743,-36 1743,0 1825,0 1825,-36"/>
<text text-anchor="middle" x="1784" y="-14.3" font-family="Times,serif" font-size="14.00">class = blue</text>
</g>
<!-- 66&#45;&gt;68 -->
<g id="edge68" class="edge">
<title>66&#45;&gt;68</title>
<path fill="none" stroke="black" d="M1748.36,-71.72C1754,-63.37 1760.78,-53.35 1766.9,-44.3"/>
<polygon fill="black" stroke="black" points="1769.8,-46.25 1772.5,-36 1764,-42.33 1769.8,-46.25"/>
</g>
</g>
</svg>
