<?xml version="1.0" encoding="UTF-8" standalone="no"?>
<!DOCTYPE svg PUBLIC "-//W3C//DTD SVG 1.1//EN"
 "http://www.w3.org/Graphics/SVG/1.1/DTD/svg11.dtd">
<!-- Generated by graphviz version 2.44.1 (20200629.0846)
 -->
<!-- Title: Tree Pages: 1 -->
<svg width="392pt" height="192pt"
 viewBox="0.00 0.00 392.00 192.00" xmlns="http://www.w3.org/2000/svg" xmlns:xlink="http://www.w3.org/1999/xlink">
<g id="graph0" class="graph" transform="scale(1 1) rotate(0) translate(4 188)">
<title>Tree</title>
<polygon fill="white" stroke="transparent" points="-4,4 -4,-188 388,-188 388,4 -4,4"/>
<!-- 0 -->
<g id="node1" class="node">
<title>0</title>
<polygon fill="none" stroke="black" points="238,-184 146,-184 146,-146 238,-146 238,-184"/>
<text text-anchor="middle" x="192" y="-168.8" font-family="Times,serif" font-size="14.00">lat &lt;= 37.682</text>
<text text-anchor="middle" x="192" y="-153.8" font-family="Times,serif" font-size="14.00">class = blue</text>
</g>
<!-- 1 -->
<g id="node2" class="node">
<title>1</title>
<polygon fill="none" stroke="black" points="184.5,-110 77.5,-110 77.5,-72 184.5,-72 184.5,-110"/>
<text text-anchor="middle" x="131" y="-94.8" font-family="Times,serif" font-size="14.00">lon &lt;= &#45;114.063</text>
<text text-anchor="middle" x="131" y="-79.8" font-family="Times,serif" font-size="14.00">class = red</text>
</g>
<!-- 0&#45;&gt;1 -->
<g id="edge1" class="edge">
<title>0&#45;&gt;1</title>
<path fill="none" stroke="black" d="M176.61,-145.83C169.51,-137.45 160.95,-127.35 153.18,-118.17"/>
<polygon fill="black" stroke="black" points="155.73,-115.78 146.6,-110.41 150.39,-120.31 155.73,-115.78"/>
<text text-anchor="middle" x="144.54" y="-131.63" font-family="Times,serif" font-size="14.00">True</text>
</g>
<!-- 4 -->
<g id="node5" class="node">
<title>4</title>
<polygon fill="none" stroke="black" points="303,-110 203,-110 203,-72 303,-72 303,-110"/>
<text text-anchor="middle" x="253" y="-94.8" font-family="Times,serif" font-size="14.00">lon &lt;= &#45;96.061</text>
<text text-anchor="middle" x="253" y="-79.8" font-family="Times,serif" font-size="14.00">class = blue</text>
</g>
<!-- 0&#45;&gt;4 -->
<g id="edge4" class="edge">
<title>0&#45;&gt;4</title>
<path fill="none" stroke="black" d="M207.39,-145.83C214.49,-137.45 223.05,-127.35 230.82,-118.17"/>
<polygon fill="black" stroke="black" points="233.61,-120.31 237.4,-110.41 228.27,-115.78 233.61,-120.31"/>
<text text-anchor="middle" x="239.46" y="-131.63" font-family="Times,serif" font-size="14.00">False</text>
</g>
<!-- 2 -->
<g id="node3" class="node">
<title>2</title>
<polygon fill="none" stroke="black" points="82,-36 0,-36 0,0 82,0 82,-36"/>
<text text-anchor="middle" x="41" y="-14.3" font-family="Times,serif" font-size="14.00">class = blue</text>
</g>
<!-- 1&#45;&gt;2 -->
<g id="edge2" class="edge">
<title>1&#45;&gt;2</title>
<path fill="none" stroke="black" d="M107.82,-71.72C96.48,-62.77 82.7,-51.9 70.61,-42.36"/>
<polygon fill="black" stroke="black" points="72.57,-39.45 62.55,-36 68.24,-44.94 72.57,-39.45"/>
</g>
<!-- 3 -->
<g id="node4" class="node">
<title>3</title>
<polygon fill="none" stroke="black" points="176,-36 100,-36 100,0 176,0 176,-36"/>
<text text-anchor="middle" x="138" y="-14.3" font-family="Times,serif" font-size="14.00">class = red</text>
</g>
<!-- 1&#45;&gt;3 -->
<g id="edge3" class="edge">
<title>1&#45;&gt;3</title>
<path fill="none" stroke="black" d="M132.8,-71.72C133.57,-63.89 134.49,-54.59 135.34,-45.99"/>
<polygon fill="black" stroke="black" points="138.83,-46.3 136.32,-36 131.86,-45.61 138.83,-46.3"/>
</g>
<!-- 5 -->
<g id="node6" class="node">
<title>5</title>
<polygon fill="none" stroke="black" points="284,-36 208,-36 208,0 284,0 284,-36"/>
<text text-anchor="middle" x="246" y="-14.3" font-family="Times,serif" font-size="14.00">class = red</text>
</g>
<!-- 4&#45;&gt;5 -->
<g id="edge5" class="edge">
<title>4&#45;&gt;5</title>
<path fill="none" stroke="black" d="M251.2,-71.72C250.43,-63.89 249.51,-54.59 248.66,-45.99"/>
<polygon fill="black" stroke="black" points="252.14,-45.61 247.68,-36 245.17,-46.3 252.14,-45.61"/>
</g>
<!-- 6 -->
<g id="node7" class="node">
<title>6</title>
<polygon fill="none" stroke="black" points="384,-36 302,-36 302,0 384,0 384,-36"/>
<text text-anchor="middle" x="343" y="-14.3" font-family="Times,serif" font-size="14.00">class = blue</text>
</g>
<!-- 4&#45;&gt;6 -->
<g id="edge6" class="edge">
<title>4&#45;&gt;6</title>
<path fill="none" stroke="black" d="M276.18,-71.72C287.52,-62.77 301.3,-51.9 313.39,-42.36"/>
<polygon fill="black" stroke="black" points="315.76,-44.94 321.45,-36 311.43,-39.45 315.76,-44.94"/>
</g>
</g>
</svg>
