<?xml version="1.0" encoding="UTF-8" standalone="no"?>
<!DOCTYPE svg PUBLIC "-//W3C//DTD SVG 1.1//EN"
 "http://www.w3.org/Graphics/SVG/1.1/DTD/svg11.dtd">
<!-- Generated by graphviz version 2.44.1 (20200629.0846)
 -->
<!-- Title: Tree Pages: 1 -->
<svg width="1097pt" height="932pt"
 viewBox="0.00 0.00 1096.50 932.00" xmlns="http://www.w3.org/2000/svg" xmlns:xlink="http://www.w3.org/1999/xlink">
<g id="graph0" class="graph" transform="scale(1 1) rotate(0) translate(4 928)">
<title>Tree</title>
<polygon fill="white" stroke="transparent" points="-4,4 -4,-928 1092.5,-928 1092.5,4 -4,4"/>
<!-- 0 -->
<g id="node1" class="node">
<title>0</title>
<polygon fill="none" stroke="black" points="373.5,-924 268.5,-924 268.5,-886 373.5,-886 373.5,-924"/>
<text text-anchor="middle" x="321" y="-908.8" font-family="Times,serif" font-size="14.00">latitude &lt;= 42.9</text>
<text text-anchor="middle" x="321" y="-893.8" font-family="Times,serif" font-size="14.00">class = Canada</text>
</g>
<!-- 1 -->
<g id="node2" class="node">
<title>1</title>
<polygon fill="none" stroke="black" points="312.5,-850 193.5,-850 193.5,-812 312.5,-812 312.5,-850"/>
<text text-anchor="middle" x="253" y="-834.8" font-family="Times,serif" font-size="14.00">latitude &lt;= 42.096</text>
<text text-anchor="middle" x="253" y="-819.8" font-family="Times,serif" font-size="14.00">class = USA</text>
</g>
<!-- 0&#45;&gt;1 -->
<g id="edge1" class="edge">
<title>0&#45;&gt;1</title>
<path fill="none" stroke="black" d="M303.84,-885.83C295.85,-877.37 286.2,-867.15 277.46,-857.9"/>
<polygon fill="black" stroke="black" points="279.8,-855.28 270.39,-850.41 274.71,-860.09 279.8,-855.28"/>
<text text-anchor="middle" x="269.68" y="-871.7" font-family="Times,serif" font-size="14.00">True</text>
</g>
<!-- 6 -->
<g id="node7" class="node">
<title>6</title>
<polygon fill="none" stroke="black" points="449.5,-850 330.5,-850 330.5,-812 449.5,-812 449.5,-850"/>
<text text-anchor="middle" x="390" y="-834.8" font-family="Times,serif" font-size="14.00">latitude &lt;= 55.958</text>
<text text-anchor="middle" x="390" y="-819.8" font-family="Times,serif" font-size="14.00">class = Canada</text>
</g>
<!-- 0&#45;&gt;6 -->
<g id="edge6" class="edge">
<title>0&#45;&gt;6</title>
<path fill="none" stroke="black" d="M338.41,-885.83C346.52,-877.37 356.32,-867.15 365.18,-857.9"/>
<polygon fill="black" stroke="black" points="367.96,-860.05 372.35,-850.41 362.91,-855.21 367.96,-860.05"/>
<text text-anchor="middle" x="372.89" y="-871.71" font-family="Times,serif" font-size="14.00">False</text>
</g>
<!-- 2 -->
<g id="node3" class="node">
<title>2</title>
<polygon fill="none" stroke="black" points="177,-775 91,-775 91,-739 177,-739 177,-775"/>
<text text-anchor="middle" x="134" y="-753.3" font-family="Times,serif" font-size="14.00">class = USA</text>
</g>
<!-- 1&#45;&gt;2 -->
<g id="edge2" class="edge">
<title>1&#45;&gt;2</title>
<path fill="none" stroke="black" d="M222.97,-811.83C207.29,-802.34 187.94,-790.64 171.31,-780.57"/>
<polygon fill="black" stroke="black" points="172.75,-777.35 162.38,-775.17 169.12,-783.34 172.75,-777.35"/>
</g>
<!-- 3 -->
<g id="node4" class="node">
<title>3</title>
<polygon fill="none" stroke="black" points="314.5,-776 195.5,-776 195.5,-738 314.5,-738 314.5,-776"/>
<text text-anchor="middle" x="255" y="-760.8" font-family="Times,serif" font-size="14.00">latitude &lt;= 42.324</text>
<text text-anchor="middle" x="255" y="-745.8" font-family="Times,serif" font-size="14.00">class = USA</text>
</g>
<!-- 1&#45;&gt;3 -->
<g id="edge3" class="edge">
<title>1&#45;&gt;3</title>
<path fill="none" stroke="black" d="M253.5,-811.83C253.72,-804.13 253.97,-794.97 254.21,-786.42"/>
<polygon fill="black" stroke="black" points="257.71,-786.51 254.49,-776.41 250.71,-786.31 257.71,-786.51"/>
</g>
<!-- 4 -->
<g id="node5" class="node">
<title>4</title>
<polygon fill="none" stroke="black" points="194.5,-701 95.5,-701 95.5,-665 194.5,-665 194.5,-701"/>
<text text-anchor="middle" x="145" y="-679.3" font-family="Times,serif" font-size="14.00">class = Canada</text>
</g>
<!-- 3&#45;&gt;4 -->
<g id="edge4" class="edge">
<title>3&#45;&gt;4</title>
<path fill="none" stroke="black" d="M227.24,-737.83C212.88,-728.43 195.2,-716.86 179.91,-706.85"/>
<polygon fill="black" stroke="black" points="181.52,-703.72 171.23,-701.17 177.68,-709.58 181.52,-703.72"/>
</g>
<!-- 5 -->
<g id="node6" class="node">
<title>5</title>
<polygon fill="none" stroke="black" points="299,-701 213,-701 213,-665 299,-665 299,-701"/>
<text text-anchor="middle" x="256" y="-679.3" font-family="Times,serif" font-size="14.00">class = USA</text>
</g>
<!-- 3&#45;&gt;5 -->
<g id="edge5" class="edge">
<title>3&#45;&gt;5</title>
<path fill="none" stroke="black" d="M255.25,-737.83C255.36,-729.89 255.49,-720.41 255.62,-711.63"/>
<polygon fill="black" stroke="black" points="259.12,-711.47 255.76,-701.42 252.12,-711.37 259.12,-711.47"/>
</g>
<!-- 7 -->
<g id="node8" class="node">
<title>7</title>
<polygon fill="none" stroke="black" points="441.5,-776 336.5,-776 336.5,-738 441.5,-738 441.5,-776"/>
<text text-anchor="middle" x="389" y="-760.8" font-family="Times,serif" font-size="14.00">latitude &lt;= 49.0</text>
<text text-anchor="middle" x="389" y="-745.8" font-family="Times,serif" font-size="14.00">class = Canada</text>
</g>
<!-- 6&#45;&gt;7 -->
<g id="edge7" class="edge">
<title>6&#45;&gt;7</title>
<path fill="none" stroke="black" d="M389.75,-811.83C389.64,-804.13 389.51,-794.97 389.39,-786.42"/>
<polygon fill="black" stroke="black" points="392.89,-786.36 389.26,-776.41 385.9,-786.46 392.89,-786.36"/>
</g>
<!-- 54 -->
<g id="node55" class="node">
<title>54</title>
<polygon fill="none" stroke="black" points="546,-775 460,-775 460,-739 546,-739 546,-775"/>
<text text-anchor="middle" x="503" y="-753.3" font-family="Times,serif" font-size="14.00">class = USA</text>
</g>
<!-- 6&#45;&gt;54 -->
<g id="edge54" class="edge">
<title>6&#45;&gt;54</title>
<path fill="none" stroke="black" d="M418.51,-811.83C433.41,-802.34 451.78,-790.64 467.58,-780.57"/>
<polygon fill="black" stroke="black" points="469.5,-783.5 476.05,-775.17 465.74,-777.59 469.5,-783.5"/>
</g>
<!-- 8 -->
<g id="node9" class="node">
<title>8</title>
<polygon fill="none" stroke="black" points="455,-702 321,-702 321,-664 455,-664 455,-702"/>
<text text-anchor="middle" x="388" y="-686.8" font-family="Times,serif" font-size="14.00">longitude &lt;= &#45;94.582</text>
<text text-anchor="middle" x="388" y="-671.8" font-family="Times,serif" font-size="14.00">class = Canada</text>
</g>
<!-- 7&#45;&gt;8 -->
<g id="edge8" class="edge">
<title>7&#45;&gt;8</title>
<path fill="none" stroke="black" d="M388.75,-737.83C388.64,-730.13 388.51,-720.97 388.39,-712.42"/>
<polygon fill="black" stroke="black" points="391.89,-712.36 388.26,-702.41 384.9,-712.46 391.89,-712.36"/>
</g>
<!-- 53 -->
<g id="node54" class="node">
<title>53</title>
<polygon fill="none" stroke="black" points="572.5,-701 473.5,-701 473.5,-665 572.5,-665 572.5,-701"/>
<text text-anchor="middle" x="523" y="-679.3" font-family="Times,serif" font-size="14.00">class = Canada</text>
</g>
<!-- 7&#45;&gt;53 -->
<g id="edge53" class="edge">
<title>7&#45;&gt;53</title>
<path fill="none" stroke="black" d="M422.81,-737.83C440.8,-728.17 463.06,-716.2 482.03,-706.01"/>
<polygon fill="black" stroke="black" points="483.89,-708.99 491.04,-701.17 480.58,-702.82 483.89,-708.99"/>
</g>
<!-- 9 -->
<g id="node10" class="node">
<title>9</title>
<polygon fill="none" stroke="black" points="381,-628 241,-628 241,-590 381,-590 381,-628"/>
<text text-anchor="middle" x="311" y="-612.8" font-family="Times,serif" font-size="14.00">longitude &lt;= &#45;123.222</text>
<text text-anchor="middle" x="311" y="-597.8" font-family="Times,serif" font-size="14.00">class = USA</text>
</g>
<!-- 8&#45;&gt;9 -->
<g id="edge9" class="edge">
<title>8&#45;&gt;9</title>
<path fill="none" stroke="black" d="M368.57,-663.83C359.27,-655.13 347.98,-644.58 337.87,-635.13"/>
<polygon fill="black" stroke="black" points="340.12,-632.44 330.42,-628.16 335.34,-637.55 340.12,-632.44"/>
</g>
<!-- 12 -->
<g id="node13" class="node">
<title>12</title>
<polygon fill="none" stroke="black" points="533,-628 399,-628 399,-590 533,-590 533,-628"/>
<text text-anchor="middle" x="466" y="-612.8" font-family="Times,serif" font-size="14.00">longitude &lt;= &#45;69.246</text>
<text text-anchor="middle" x="466" y="-597.8" font-family="Times,serif" font-size="14.00">class = Canada</text>
</g>
<!-- 8&#45;&gt;12 -->
<g id="edge12" class="edge">
<title>8&#45;&gt;12</title>
<path fill="none" stroke="black" d="M407.68,-663.83C417.11,-655.13 428.54,-644.58 438.78,-635.13"/>
<polygon fill="black" stroke="black" points="441.35,-637.52 446.32,-628.16 436.6,-632.37 441.35,-637.52"/>
</g>
<!-- 10 -->
<g id="node11" class="node">
<title>10</title>
<polygon fill="none" stroke="black" points="258.5,-553 159.5,-553 159.5,-517 258.5,-517 258.5,-553"/>
<text text-anchor="middle" x="209" y="-531.3" font-family="Times,serif" font-size="14.00">class = Canada</text>
</g>
<!-- 9&#45;&gt;10 -->
<g id="edge10" class="edge">
<title>9&#45;&gt;10</title>
<path fill="none" stroke="black" d="M285.26,-589.83C272.07,-580.52 255.85,-569.07 241.77,-559.13"/>
<polygon fill="black" stroke="black" points="243.51,-556.08 233.33,-553.17 239.48,-561.8 243.51,-556.08"/>
</g>
<!-- 11 -->
<g id="node12" class="node">
<title>11</title>
<polygon fill="none" stroke="black" points="363,-553 277,-553 277,-517 363,-517 363,-553"/>
<text text-anchor="middle" x="320" y="-531.3" font-family="Times,serif" font-size="14.00">class = USA</text>
</g>
<!-- 9&#45;&gt;11 -->
<g id="edge11" class="edge">
<title>9&#45;&gt;11</title>
<path fill="none" stroke="black" d="M313.27,-589.83C314.26,-581.89 315.45,-572.41 316.55,-563.63"/>
<polygon fill="black" stroke="black" points="320.06,-563.77 317.82,-553.42 313.11,-562.91 320.06,-563.77"/>
</g>
<!-- 13 -->
<g id="node14" class="node">
<title>13</title>
<polygon fill="none" stroke="black" points="517.5,-554 398.5,-554 398.5,-516 517.5,-516 517.5,-554"/>
<text text-anchor="middle" x="458" y="-538.8" font-family="Times,serif" font-size="14.00">latitude &lt;= 43.093</text>
<text text-anchor="middle" x="458" y="-523.8" font-family="Times,serif" font-size="14.00">class = Canada</text>
</g>
<!-- 12&#45;&gt;13 -->
<g id="edge13" class="edge">
<title>12&#45;&gt;13</title>
<path fill="none" stroke="black" d="M463.98,-589.83C463.13,-582.13 462.11,-572.97 461.16,-564.42"/>
<polygon fill="black" stroke="black" points="464.63,-563.97 460.05,-554.41 457.67,-564.74 464.63,-563.97"/>
</g>
<!-- 36 -->
<g id="node37" class="node">
<title>36</title>
<polygon fill="none" stroke="black" points="708,-554 574,-554 574,-516 708,-516 708,-554"/>
<text text-anchor="middle" x="641" y="-538.8" font-family="Times,serif" font-size="14.00">longitude &lt;= &#45;66.952</text>
<text text-anchor="middle" x="641" y="-523.8" font-family="Times,serif" font-size="14.00">class = Canada</text>
</g>
<!-- 12&#45;&gt;36 -->
<g id="edge36" class="edge">
<title>12&#45;&gt;36</title>
<path fill="none" stroke="black" d="M510.16,-589.83C533.77,-580.12 563.02,-568.08 587.87,-557.86"/>
<polygon fill="black" stroke="black" points="589.24,-561.08 597.16,-554.04 586.58,-554.61 589.24,-561.08"/>
</g>
<!-- 14 -->
<g id="node15" class="node">
<title>14</title>
<polygon fill="none" stroke="black" points="341.5,-480 222.5,-480 222.5,-442 341.5,-442 341.5,-480"/>
<text text-anchor="middle" x="282" y="-464.8" font-family="Times,serif" font-size="14.00">latitude &lt;= 43.014</text>
<text text-anchor="middle" x="282" y="-449.8" font-family="Times,serif" font-size="14.00">class = Canada</text>
</g>
<!-- 13&#45;&gt;14 -->
<g id="edge14" class="edge">
<title>13&#45;&gt;14</title>
<path fill="none" stroke="black" d="M413.59,-515.83C389.84,-506.12 360.43,-494.08 335.43,-483.86"/>
<polygon fill="black" stroke="black" points="336.67,-480.58 326.09,-480.04 334.02,-487.06 336.67,-480.58"/>
</g>
<!-- 19 -->
<g id="node20" class="node">
<title>19</title>
<polygon fill="none" stroke="black" points="517.5,-480 398.5,-480 398.5,-442 517.5,-442 517.5,-480"/>
<text text-anchor="middle" x="458" y="-464.8" font-family="Times,serif" font-size="14.00">latitude &lt;= 44.992</text>
<text text-anchor="middle" x="458" y="-449.8" font-family="Times,serif" font-size="14.00">class = Canada</text>
</g>
<!-- 13&#45;&gt;19 -->
<g id="edge19" class="edge">
<title>13&#45;&gt;19</title>
<path fill="none" stroke="black" d="M458,-515.83C458,-508.13 458,-498.97 458,-490.42"/>
<polygon fill="black" stroke="black" points="461.5,-490.41 458,-480.41 454.5,-490.41 461.5,-490.41"/>
</g>
<!-- 15 -->
<g id="node16" class="node">
<title>15</title>
<polygon fill="none" stroke="black" points="221,-406 87,-406 87,-368 221,-368 221,-406"/>
<text text-anchor="middle" x="154" y="-390.8" font-family="Times,serif" font-size="14.00">longitude &lt;= &#45;81.845</text>
<text text-anchor="middle" x="154" y="-375.8" font-family="Times,serif" font-size="14.00">class = Canada</text>
</g>
<!-- 14&#45;&gt;15 -->
<g id="edge15" class="edge">
<title>14&#45;&gt;15</title>
<path fill="none" stroke="black" d="M249.7,-441.83C233.18,-432.54 212.88,-421.12 195.24,-411.2"/>
<polygon fill="black" stroke="black" points="196.72,-408.01 186.29,-406.16 193.29,-414.12 196.72,-408.01"/>
</g>
<!-- 18 -->
<g id="node19" class="node">
<title>18</title>
<polygon fill="none" stroke="black" points="325,-405 239,-405 239,-369 325,-369 325,-405"/>
<text text-anchor="middle" x="282" y="-383.3" font-family="Times,serif" font-size="14.00">class = USA</text>
</g>
<!-- 14&#45;&gt;18 -->
<g id="edge18" class="edge">
<title>14&#45;&gt;18</title>
<path fill="none" stroke="black" d="M282,-441.83C282,-433.89 282,-424.41 282,-415.63"/>
<polygon fill="black" stroke="black" points="285.5,-415.42 282,-405.42 278.5,-415.42 285.5,-415.42"/>
</g>
<!-- 16 -->
<g id="node17" class="node">
<title>16</title>
<polygon fill="none" stroke="black" points="86,-331 0,-331 0,-295 86,-295 86,-331"/>
<text text-anchor="middle" x="43" y="-309.3" font-family="Times,serif" font-size="14.00">class = USA</text>
</g>
<!-- 15&#45;&gt;16 -->
<g id="edge16" class="edge">
<title>15&#45;&gt;16</title>
<path fill="none" stroke="black" d="M125.99,-367.83C111.49,-358.43 93.65,-346.86 78.23,-336.85"/>
<polygon fill="black" stroke="black" points="79.77,-333.68 69.47,-331.17 75.96,-339.55 79.77,-333.68"/>
</g>
<!-- 17 -->
<g id="node18" class="node">
<title>17</title>
<polygon fill="none" stroke="black" points="203.5,-331 104.5,-331 104.5,-295 203.5,-295 203.5,-331"/>
<text text-anchor="middle" x="154" y="-309.3" font-family="Times,serif" font-size="14.00">class = Canada</text>
</g>
<!-- 15&#45;&gt;17 -->
<g id="edge17" class="edge">
<title>15&#45;&gt;17</title>
<path fill="none" stroke="black" d="M154,-367.83C154,-359.89 154,-350.41 154,-341.63"/>
<polygon fill="black" stroke="black" points="157.5,-341.42 154,-331.42 150.5,-341.42 157.5,-341.42"/>
</g>
<!-- 20 -->
<g id="node21" class="node">
<title>20</title>
<polygon fill="none" stroke="black" points="462.5,-406 343.5,-406 343.5,-368 462.5,-368 462.5,-406"/>
<text text-anchor="middle" x="403" y="-390.8" font-family="Times,serif" font-size="14.00">latitude &lt;= 44.542</text>
<text text-anchor="middle" x="403" y="-375.8" font-family="Times,serif" font-size="14.00">class = Canada</text>
</g>
<!-- 19&#45;&gt;20 -->
<g id="edge20" class="edge">
<title>19&#45;&gt;20</title>
<path fill="none" stroke="black" d="M444.12,-441.83C437.79,-433.54 430.16,-423.56 423.21,-414.45"/>
<polygon fill="black" stroke="black" points="425.92,-412.24 417.07,-406.41 420.35,-416.48 425.92,-412.24"/>
</g>
<!-- 35 -->
<g id="node36" class="node">
<title>35</title>
<polygon fill="none" stroke="black" points="579.5,-405 480.5,-405 480.5,-369 579.5,-369 579.5,-405"/>
<text text-anchor="middle" x="530" y="-383.3" font-family="Times,serif" font-size="14.00">class = Canada</text>
</g>
<!-- 19&#45;&gt;35 -->
<g id="edge35" class="edge">
<title>19&#45;&gt;35</title>
<path fill="none" stroke="black" d="M476.17,-441.83C484.98,-433.02 495.69,-422.31 505.24,-412.76"/>
<polygon fill="black" stroke="black" points="507.99,-414.96 512.58,-405.42 503.04,-410.01 507.99,-414.96"/>
</g>
<!-- 21 -->
<g id="node22" class="node">
<title>21</title>
<polygon fill="none" stroke="black" points="356,-332 222,-332 222,-294 356,-294 356,-332"/>
<text text-anchor="middle" x="289" y="-316.8" font-family="Times,serif" font-size="14.00">longitude &lt;= &#45;79.076</text>
<text text-anchor="middle" x="289" y="-301.8" font-family="Times,serif" font-size="14.00">class = Canada</text>
</g>
<!-- 20&#45;&gt;21 -->
<g id="edge21" class="edge">
<title>20&#45;&gt;21</title>
<path fill="none" stroke="black" d="M374.23,-367.83C359.79,-358.71 342.1,-347.54 326.6,-337.74"/>
<polygon fill="black" stroke="black" points="328.08,-334.54 317.76,-332.16 324.34,-340.46 328.08,-334.54"/>
</g>
<!-- 30 -->
<g id="node31" class="node">
<title>30</title>
<polygon fill="none" stroke="black" points="493.5,-332 374.5,-332 374.5,-294 493.5,-294 493.5,-332"/>
<text text-anchor="middle" x="434" y="-316.8" font-family="Times,serif" font-size="14.00">latitude &lt;= 44.706</text>
<text text-anchor="middle" x="434" y="-301.8" font-family="Times,serif" font-size="14.00">class = USA</text>
</g>
<!-- 20&#45;&gt;30 -->
<g id="edge30" class="edge">
<title>20&#45;&gt;30</title>
<path fill="none" stroke="black" d="M410.82,-367.83C414.21,-359.96 418.25,-350.57 422.01,-341.85"/>
<polygon fill="black" stroke="black" points="425.33,-342.98 426.07,-332.41 418.9,-340.21 425.33,-342.98"/>
</g>
<!-- 22 -->
<g id="node23" class="node">
<title>22</title>
<polygon fill="none" stroke="black" points="211.5,-257 112.5,-257 112.5,-221 211.5,-221 211.5,-257"/>
<text text-anchor="middle" x="162" y="-235.3" font-family="Times,serif" font-size="14.00">class = Canada</text>
</g>
<!-- 21&#45;&gt;22 -->
<g id="edge22" class="edge">
<title>21&#45;&gt;22</title>
<path fill="none" stroke="black" d="M256.95,-293.83C240.06,-284.25 219.19,-272.42 201.32,-262.29"/>
<polygon fill="black" stroke="black" points="202.71,-259.06 192.29,-257.17 199.26,-265.15 202.71,-259.06"/>
</g>
<!-- 23 -->
<g id="node24" class="node">
<title>23</title>
<polygon fill="none" stroke="black" points="348.5,-258 229.5,-258 229.5,-220 348.5,-220 348.5,-258"/>
<text text-anchor="middle" x="289" y="-242.8" font-family="Times,serif" font-size="14.00">latitude &lt;= 44.168</text>
<text text-anchor="middle" x="289" y="-227.8" font-family="Times,serif" font-size="14.00">class = Canada</text>
</g>
<!-- 21&#45;&gt;23 -->
<g id="edge23" class="edge">
<title>21&#45;&gt;23</title>
<path fill="none" stroke="black" d="M289,-293.83C289,-286.13 289,-276.97 289,-268.42"/>
<polygon fill="black" stroke="black" points="292.5,-268.41 289,-258.41 285.5,-268.41 292.5,-268.41"/>
</g>
<!-- 24 -->
<g id="node25" class="node">
<title>24</title>
<polygon fill="none" stroke="black" points="228.5,-184 101.5,-184 101.5,-146 228.5,-146 228.5,-184"/>
<text text-anchor="middle" x="165" y="-168.8" font-family="Times,serif" font-size="14.00">longitude &lt;= &#45;79.03</text>
<text text-anchor="middle" x="165" y="-153.8" font-family="Times,serif" font-size="14.00">class = USA</text>
</g>
<!-- 23&#45;&gt;24 -->
<g id="edge24" class="edge">
<title>23&#45;&gt;24</title>
<path fill="none" stroke="black" d="M257.71,-219.83C241.7,-210.54 222.04,-199.12 204.95,-189.2"/>
<polygon fill="black" stroke="black" points="206.69,-186.16 196.28,-184.16 203.17,-192.21 206.69,-186.16"/>
</g>
<!-- 29 -->
<g id="node30" class="node">
<title>29</title>
<polygon fill="none" stroke="black" points="345.5,-183 246.5,-183 246.5,-147 345.5,-147 345.5,-183"/>
<text text-anchor="middle" x="296" y="-161.3" font-family="Times,serif" font-size="14.00">class = Canada</text>
</g>
<!-- 23&#45;&gt;29 -->
<g id="edge29" class="edge">
<title>23&#45;&gt;29</title>
<path fill="none" stroke="black" d="M290.77,-219.83C291.54,-211.89 292.46,-202.41 293.31,-193.63"/>
<polygon fill="black" stroke="black" points="296.82,-193.71 294.31,-183.42 289.86,-193.03 296.82,-193.71"/>
</g>
<!-- 25 -->
<g id="node26" class="node">
<title>25</title>
<polygon fill="none" stroke="black" points="144,-109 58,-109 58,-73 144,-73 144,-109"/>
<text text-anchor="middle" x="101" y="-87.3" font-family="Times,serif" font-size="14.00">class = USA</text>
</g>
<!-- 24&#45;&gt;25 -->
<g id="edge25" class="edge">
<title>24&#45;&gt;25</title>
<path fill="none" stroke="black" d="M148.85,-145.83C141.1,-137.11 131.68,-126.52 123.26,-117.05"/>
<polygon fill="black" stroke="black" points="125.74,-114.57 116.48,-109.42 120.51,-119.22 125.74,-114.57"/>
</g>
<!-- 26 -->
<g id="node27" class="node">
<title>26</title>
<polygon fill="none" stroke="black" points="296,-110 162,-110 162,-72 296,-72 296,-110"/>
<text text-anchor="middle" x="229" y="-94.8" font-family="Times,serif" font-size="14.00">longitude &lt;= &#45;77.678</text>
<text text-anchor="middle" x="229" y="-79.8" font-family="Times,serif" font-size="14.00">class = Canada</text>
</g>
<!-- 24&#45;&gt;26 -->
<g id="edge26" class="edge">
<title>24&#45;&gt;26</title>
<path fill="none" stroke="black" d="M181.15,-145.83C188.67,-137.37 197.76,-127.15 205.98,-117.9"/>
<polygon fill="black" stroke="black" points="208.6,-120.21 212.63,-110.41 203.37,-115.56 208.6,-120.21"/>
</g>
<!-- 27 -->
<g id="node28" class="node">
<title>27</title>
<polygon fill="none" stroke="black" points="222.5,-36 123.5,-36 123.5,0 222.5,0 222.5,-36"/>
<text text-anchor="middle" x="173" y="-14.3" font-family="Times,serif" font-size="14.00">class = Canada</text>
</g>
<!-- 26&#45;&gt;27 -->
<g id="edge27" class="edge">
<title>26&#45;&gt;27</title>
<path fill="none" stroke="black" d="M214.58,-71.72C207.93,-63.29 199.93,-53.15 192.73,-44.02"/>
<polygon fill="black" stroke="black" points="195.35,-41.69 186.41,-36 189.86,-46.02 195.35,-41.69"/>
</g>
<!-- 28 -->
<g id="node29" class="node">
<title>28</title>
<polygon fill="none" stroke="black" points="327,-36 241,-36 241,0 327,0 327,-36"/>
<text text-anchor="middle" x="284" y="-14.3" font-family="Times,serif" font-size="14.00">class = USA</text>
</g>
<!-- 26&#45;&gt;28 -->
<g id="edge28" class="edge">
<title>26&#45;&gt;28</title>
<path fill="none" stroke="black" d="M243.16,-71.72C249.69,-63.29 257.55,-53.15 264.62,-44.02"/>
<polygon fill="black" stroke="black" points="267.47,-46.05 270.83,-36 261.94,-41.77 267.47,-46.05"/>
</g>
<!-- 31 -->
<g id="node32" class="node">
<title>31</title>
<polygon fill="none" stroke="black" points="453,-257 367,-257 367,-221 453,-221 453,-257"/>
<text text-anchor="middle" x="410" y="-235.3" font-family="Times,serif" font-size="14.00">class = USA</text>
</g>
<!-- 30&#45;&gt;31 -->
<g id="edge31" class="edge">
<title>30&#45;&gt;31</title>
<path fill="none" stroke="black" d="M427.94,-293.83C425.24,-285.72 422,-275.99 419.02,-267.05"/>
<polygon fill="black" stroke="black" points="422.29,-265.8 415.81,-257.42 415.65,-268.01 422.29,-265.8"/>
</g>
<!-- 32 -->
<g id="node33" class="node">
<title>32</title>
<polygon fill="none" stroke="black" points="590.5,-258 471.5,-258 471.5,-220 590.5,-220 590.5,-258"/>
<text text-anchor="middle" x="531" y="-242.8" font-family="Times,serif" font-size="14.00">latitude &lt;= 44.848</text>
<text text-anchor="middle" x="531" y="-227.8" font-family="Times,serif" font-size="14.00">class = Canada</text>
</g>
<!-- 30&#45;&gt;32 -->
<g id="edge32" class="edge">
<title>30&#45;&gt;32</title>
<path fill="none" stroke="black" d="M458.48,-293.83C470.54,-284.88 485.25,-273.96 498.27,-264.3"/>
<polygon fill="black" stroke="black" points="500.59,-266.93 506.53,-258.16 496.41,-261.31 500.59,-266.93"/>
</g>
<!-- 33 -->
<g id="node34" class="node">
<title>33</title>
<polygon fill="none" stroke="black" points="469.5,-183 370.5,-183 370.5,-147 469.5,-147 469.5,-183"/>
<text text-anchor="middle" x="420" y="-161.3" font-family="Times,serif" font-size="14.00">class = Canada</text>
</g>
<!-- 32&#45;&gt;33 -->
<g id="edge33" class="edge">
<title>32&#45;&gt;33</title>
<path fill="none" stroke="black" d="M502.99,-219.83C488.49,-210.43 470.65,-198.86 455.23,-188.85"/>
<polygon fill="black" stroke="black" points="456.77,-185.68 446.47,-183.17 452.96,-191.55 456.77,-185.68"/>
</g>
<!-- 34 -->
<g id="node35" class="node">
<title>34</title>
<polygon fill="none" stroke="black" points="574,-183 488,-183 488,-147 574,-147 574,-183"/>
<text text-anchor="middle" x="531" y="-161.3" font-family="Times,serif" font-size="14.00">class = USA</text>
</g>
<!-- 32&#45;&gt;34 -->
<g id="edge34" class="edge">
<title>32&#45;&gt;34</title>
<path fill="none" stroke="black" d="M531,-219.83C531,-211.89 531,-202.41 531,-193.63"/>
<polygon fill="black" stroke="black" points="534.5,-193.42 531,-183.42 527.5,-193.42 534.5,-193.42"/>
</g>
<!-- 37 -->
<g id="node38" class="node">
<title>37</title>
<polygon fill="none" stroke="black" points="700.5,-480 581.5,-480 581.5,-442 700.5,-442 700.5,-480"/>
<text text-anchor="middle" x="641" y="-464.8" font-family="Times,serif" font-size="14.00">latitude &lt;= 45.195</text>
<text text-anchor="middle" x="641" y="-449.8" font-family="Times,serif" font-size="14.00">class = USA</text>
</g>
<!-- 36&#45;&gt;37 -->
<g id="edge37" class="edge">
<title>36&#45;&gt;37</title>
<path fill="none" stroke="black" d="M641,-515.83C641,-508.13 641,-498.97 641,-490.42"/>
<polygon fill="black" stroke="black" points="644.5,-490.41 641,-480.41 637.5,-490.41 644.5,-490.41"/>
</g>
<!-- 52 -->
<g id="node53" class="node">
<title>52</title>
<polygon fill="none" stroke="black" points="817.5,-479 718.5,-479 718.5,-443 817.5,-443 817.5,-479"/>
<text text-anchor="middle" x="768" y="-457.3" font-family="Times,serif" font-size="14.00">class = Canada</text>
</g>
<!-- 36&#45;&gt;52 -->
<g id="edge52" class="edge">
<title>36&#45;&gt;52</title>
<path fill="none" stroke="black" d="M673.05,-515.83C689.94,-506.25 710.81,-494.42 728.68,-484.29"/>
<polygon fill="black" stroke="black" points="730.74,-487.15 737.71,-479.17 727.29,-481.06 730.74,-487.15"/>
</g>
<!-- 38 -->
<g id="node39" class="node">
<title>38</title>
<polygon fill="none" stroke="black" points="684,-405 598,-405 598,-369 684,-369 684,-405"/>
<text text-anchor="middle" x="641" y="-383.3" font-family="Times,serif" font-size="14.00">class = USA</text>
</g>
<!-- 37&#45;&gt;38 -->
<g id="edge38" class="edge">
<title>37&#45;&gt;38</title>
<path fill="none" stroke="black" d="M641,-441.83C641,-433.89 641,-424.41 641,-415.63"/>
<polygon fill="black" stroke="black" points="644.5,-415.42 641,-405.42 637.5,-415.42 644.5,-415.42"/>
</g>
<!-- 39 -->
<g id="node40" class="node">
<title>39</title>
<polygon fill="none" stroke="black" points="829.5,-406 702.5,-406 702.5,-368 829.5,-368 829.5,-406"/>
<text text-anchor="middle" x="766" y="-390.8" font-family="Times,serif" font-size="14.00">longitude &lt;= &#45;67.93</text>
<text text-anchor="middle" x="766" y="-375.8" font-family="Times,serif" font-size="14.00">class = Canada</text>
</g>
<!-- 37&#45;&gt;39 -->
<g id="edge39" class="edge">
<title>37&#45;&gt;39</title>
<path fill="none" stroke="black" d="M672.54,-441.83C688.68,-432.54 708.5,-421.12 725.73,-411.2"/>
<polygon fill="black" stroke="black" points="727.55,-414.19 734.47,-406.16 724.06,-408.12 727.55,-414.19"/>
</g>
<!-- 40 -->
<g id="node41" class="node">
<title>40</title>
<polygon fill="none" stroke="black" points="833,-332 699,-332 699,-294 833,-294 833,-332"/>
<text text-anchor="middle" x="766" y="-316.8" font-family="Times,serif" font-size="14.00">longitude &lt;= &#45;68.325</text>
<text text-anchor="middle" x="766" y="-301.8" font-family="Times,serif" font-size="14.00">class = USA</text>
</g>
<!-- 39&#45;&gt;40 -->
<g id="edge40" class="edge">
<title>39&#45;&gt;40</title>
<path fill="none" stroke="black" d="M766,-367.83C766,-360.13 766,-350.97 766,-342.42"/>
<polygon fill="black" stroke="black" points="769.5,-342.41 766,-332.41 762.5,-342.41 769.5,-342.41"/>
</g>
<!-- 47 -->
<g id="node48" class="node">
<title>47</title>
<polygon fill="none" stroke="black" points="971.5,-332 852.5,-332 852.5,-294 971.5,-294 971.5,-332"/>
<text text-anchor="middle" x="912" y="-316.8" font-family="Times,serif" font-size="14.00">latitude &lt;= 45.565</text>
<text text-anchor="middle" x="912" y="-301.8" font-family="Times,serif" font-size="14.00">class = Canada</text>
</g>
<!-- 39&#45;&gt;47 -->
<g id="edge47" class="edge">
<title>39&#45;&gt;47</title>
<path fill="none" stroke="black" d="M802.84,-367.83C822.11,-358.33 845.87,-346.61 866.3,-336.54"/>
<polygon fill="black" stroke="black" points="868,-339.6 875.42,-332.04 864.91,-333.32 868,-339.6"/>
</g>
<!-- 41 -->
<g id="node42" class="node">
<title>41</title>
<polygon fill="none" stroke="black" points="728.5,-258 609.5,-258 609.5,-220 728.5,-220 728.5,-258"/>
<text text-anchor="middle" x="669" y="-242.8" font-family="Times,serif" font-size="14.00">latitude &lt;= 47.256</text>
<text text-anchor="middle" x="669" y="-227.8" font-family="Times,serif" font-size="14.00">class = Canada</text>
</g>
<!-- 40&#45;&gt;41 -->
<g id="edge41" class="edge">
<title>40&#45;&gt;41</title>
<path fill="none" stroke="black" d="M741.52,-293.83C729.46,-284.88 714.75,-273.96 701.73,-264.3"/>
<polygon fill="black" stroke="black" points="703.59,-261.31 693.47,-258.16 699.41,-266.93 703.59,-261.31"/>
</g>
<!-- 46 -->
<g id="node47" class="node">
<title>46</title>
<polygon fill="none" stroke="black" points="833,-257 747,-257 747,-221 833,-221 833,-257"/>
<text text-anchor="middle" x="790" y="-235.3" font-family="Times,serif" font-size="14.00">class = USA</text>
</g>
<!-- 40&#45;&gt;46 -->
<g id="edge46" class="edge">
<title>40&#45;&gt;46</title>
<path fill="none" stroke="black" d="M772.06,-293.83C774.76,-285.72 778,-275.99 780.98,-267.05"/>
<polygon fill="black" stroke="black" points="784.35,-268.01 784.19,-257.42 777.71,-265.8 784.35,-268.01"/>
</g>
<!-- 42 -->
<g id="node43" class="node">
<title>42</title>
<polygon fill="none" stroke="black" points="691.5,-183 592.5,-183 592.5,-147 691.5,-147 691.5,-183"/>
<text text-anchor="middle" x="642" y="-161.3" font-family="Times,serif" font-size="14.00">class = Canada</text>
</g>
<!-- 41&#45;&gt;42 -->
<g id="edge42" class="edge">
<title>41&#45;&gt;42</title>
<path fill="none" stroke="black" d="M662.19,-219.83C659.14,-211.72 655.5,-201.99 652.14,-193.05"/>
<polygon fill="black" stroke="black" points="655.32,-191.55 648.53,-183.42 648.77,-194.01 655.32,-191.55"/>
</g>
<!-- 43 -->
<g id="node44" class="node">
<title>43</title>
<polygon fill="none" stroke="black" points="844,-184 710,-184 710,-146 844,-146 844,-184"/>
<text text-anchor="middle" x="777" y="-168.8" font-family="Times,serif" font-size="14.00">longitude &lt;= &#45;68.459</text>
<text text-anchor="middle" x="777" y="-153.8" font-family="Times,serif" font-size="14.00">class = USA</text>
</g>
<!-- 41&#45;&gt;43 -->
<g id="edge43" class="edge">
<title>41&#45;&gt;43</title>
<path fill="none" stroke="black" d="M696.25,-219.83C709.94,-210.71 726.69,-199.54 741.38,-189.74"/>
<polygon fill="black" stroke="black" points="743.38,-192.62 749.76,-184.16 739.49,-186.8 743.38,-192.62"/>
</g>
<!-- 44 -->
<g id="node45" class="node">
<title>44</title>
<polygon fill="none" stroke="black" points="764,-109 678,-109 678,-73 764,-73 764,-109"/>
<text text-anchor="middle" x="721" y="-87.3" font-family="Times,serif" font-size="14.00">class = USA</text>
</g>
<!-- 43&#45;&gt;44 -->
<g id="edge44" class="edge">
<title>43&#45;&gt;44</title>
<path fill="none" stroke="black" d="M762.87,-145.83C756.15,-137.2 748.01,-126.73 740.7,-117.33"/>
<polygon fill="black" stroke="black" points="743.45,-115.16 734.55,-109.42 737.92,-119.46 743.45,-115.16"/>
</g>
<!-- 45 -->
<g id="node46" class="node">
<title>45</title>
<polygon fill="none" stroke="black" points="881.5,-109 782.5,-109 782.5,-73 881.5,-73 881.5,-109"/>
<text text-anchor="middle" x="832" y="-87.3" font-family="Times,serif" font-size="14.00">class = Canada</text>
</g>
<!-- 43&#45;&gt;45 -->
<g id="edge45" class="edge">
<title>43&#45;&gt;45</title>
<path fill="none" stroke="black" d="M790.88,-145.83C797.41,-137.28 805.31,-126.94 812.43,-117.62"/>
<polygon fill="black" stroke="black" points="815.41,-119.49 818.69,-109.42 809.84,-115.24 815.41,-119.49"/>
</g>
<!-- 48 -->
<g id="node49" class="node">
<title>48</title>
<polygon fill="none" stroke="black" points="971.5,-258 852.5,-258 852.5,-220 971.5,-220 971.5,-258"/>
<text text-anchor="middle" x="912" y="-242.8" font-family="Times,serif" font-size="14.00">latitude &lt;= 45.382</text>
<text text-anchor="middle" x="912" y="-227.8" font-family="Times,serif" font-size="14.00">class = Canada</text>
</g>
<!-- 47&#45;&gt;48 -->
<g id="edge48" class="edge">
<title>47&#45;&gt;48</title>
<path fill="none" stroke="black" d="M912,-293.83C912,-286.13 912,-276.97 912,-268.42"/>
<polygon fill="black" stroke="black" points="915.5,-268.41 912,-258.41 908.5,-268.41 915.5,-268.41"/>
</g>
<!-- 51 -->
<g id="node52" class="node">
<title>51</title>
<polygon fill="none" stroke="black" points="1088.5,-257 989.5,-257 989.5,-221 1088.5,-221 1088.5,-257"/>
<text text-anchor="middle" x="1039" y="-235.3" font-family="Times,serif" font-size="14.00">class = Canada</text>
</g>
<!-- 47&#45;&gt;51 -->
<g id="edge51" class="edge">
<title>47&#45;&gt;51</title>
<path fill="none" stroke="black" d="M944.05,-293.83C960.94,-284.25 981.81,-272.42 999.68,-262.29"/>
<polygon fill="black" stroke="black" points="1001.74,-265.15 1008.71,-257.17 998.29,-259.06 1001.74,-265.15"/>
</g>
<!-- 49 -->
<g id="node50" class="node">
<title>49</title>
<polygon fill="none" stroke="black" points="961.5,-183 862.5,-183 862.5,-147 961.5,-147 961.5,-183"/>
<text text-anchor="middle" x="912" y="-161.3" font-family="Times,serif" font-size="14.00">class = Canada</text>
</g>
<!-- 48&#45;&gt;49 -->
<g id="edge49" class="edge">
<title>48&#45;&gt;49</title>
<path fill="none" stroke="black" d="M912,-219.83C912,-211.89 912,-202.41 912,-193.63"/>
<polygon fill="black" stroke="black" points="915.5,-193.42 912,-183.42 908.5,-193.42 915.5,-193.42"/>
</g>
<!-- 50 -->
<g id="node51" class="node">
<title>50</title>
<polygon fill="none" stroke="black" points="1066,-183 980,-183 980,-147 1066,-147 1066,-183"/>
<text text-anchor="middle" x="1023" y="-161.3" font-family="Times,serif" font-size="14.00">class = USA</text>
</g>
<!-- 48&#45;&gt;50 -->
<g id="edge50" class="edge">
<title>48&#45;&gt;50</title>
<path fill="none" stroke="black" d="M940.01,-219.83C954.51,-210.43 972.35,-198.86 987.77,-188.85"/>
<polygon fill="black" stroke="black" points="990.04,-191.55 996.53,-183.17 986.23,-185.68 990.04,-191.55"/>
</g>
</g>
</svg>
