<?xml version="1.0" encoding="UTF-8" standalone="no"?>
<!DOCTYPE svg PUBLIC "-//W3C//DTD SVG 1.1//EN"
 "http://www.w3.org/Graphics/SVG/1.1/DTD/svg11.dtd">
<!-- Generated by graphviz version 2.44.1 (20200629.0846)
 -->
<!-- Title: Tree Pages: 1 -->
<svg width="384pt" height="266pt"
 viewBox="0.00 0.00 384.00 266.00" xmlns="http://www.w3.org/2000/svg" xmlns:xlink="http://www.w3.org/1999/xlink">
<g id="graph0" class="graph" transform="scale(1 1) rotate(0) translate(4 262)">
<title>Tree</title>
<polygon fill="white" stroke="transparent" points="-4,4 -4,-262 380,-262 380,4 -4,4"/>
<!-- 0 -->
<g id="node1" class="node">
<title>0</title>
<polygon fill="none" stroke="black" points="184.5,-258 77.5,-258 77.5,-220 184.5,-220 184.5,-258"/>
<text text-anchor="middle" x="131" y="-242.8" font-family="Times,serif" font-size="14.00">lon &lt;= &#45;102.165</text>
<text text-anchor="middle" x="131" y="-227.8" font-family="Times,serif" font-size="14.00">class = red</text>
</g>
<!-- 1 -->
<g id="node2" class="node">
<title>1</title>
<polygon fill="none" stroke="black" points="118,-183 36,-183 36,-147 118,-147 118,-183"/>
<text text-anchor="middle" x="77" y="-161.3" font-family="Times,serif" font-size="14.00">class = blue</text>
</g>
<!-- 0&#45;&gt;1 -->
<g id="edge1" class="edge">
<title>0&#45;&gt;1</title>
<path fill="none" stroke="black" d="M117.37,-219.83C110.96,-211.28 103.21,-200.94 96.21,-191.62"/>
<polygon fill="black" stroke="black" points="98.86,-189.32 90.06,-183.42 93.26,-193.52 98.86,-189.32"/>
<text text-anchor="middle" x="86.53" y="-204.47" font-family="Times,serif" font-size="14.00">True</text>
</g>
<!-- 2 -->
<g id="node3" class="node">
<title>2</title>
<polygon fill="none" stroke="black" points="236,-184 136,-184 136,-146 236,-146 236,-184"/>
<text text-anchor="middle" x="186" y="-168.8" font-family="Times,serif" font-size="14.00">lon &lt;= &#45;82.517</text>
<text text-anchor="middle" x="186" y="-153.8" font-family="Times,serif" font-size="14.00">class = red</text>
</g>
<!-- 0&#45;&gt;2 -->
<g id="edge2" class="edge">
<title>0&#45;&gt;2</title>
<path fill="none" stroke="black" d="M144.88,-219.83C151.21,-211.54 158.84,-201.56 165.79,-192.45"/>
<polygon fill="black" stroke="black" points="168.65,-194.48 171.93,-184.41 163.08,-190.24 168.65,-194.48"/>
<text text-anchor="middle" x="175.25" y="-205.49" font-family="Times,serif" font-size="14.00">False</text>
</g>
<!-- 3 -->
<g id="node4" class="node">
<title>3</title>
<polygon fill="none" stroke="black" points="177,-110 85,-110 85,-72 177,-72 177,-110"/>
<text text-anchor="middle" x="131" y="-94.8" font-family="Times,serif" font-size="14.00">lat &lt;= 41.113</text>
<text text-anchor="middle" x="131" y="-79.8" font-family="Times,serif" font-size="14.00">class = red</text>
</g>
<!-- 2&#45;&gt;3 -->
<g id="edge3" class="edge">
<title>2&#45;&gt;3</title>
<path fill="none" stroke="black" d="M172.12,-145.83C165.79,-137.54 158.16,-127.56 151.21,-118.45"/>
<polygon fill="black" stroke="black" points="153.92,-116.24 145.07,-110.41 148.35,-120.48 153.92,-116.24"/>
</g>
<!-- 6 -->
<g id="node7" class="node">
<title>6</title>
<polygon fill="none" stroke="black" points="287,-110 195,-110 195,-72 287,-72 287,-110"/>
<text text-anchor="middle" x="241" y="-94.8" font-family="Times,serif" font-size="14.00">lat &lt;= 35.763</text>
<text text-anchor="middle" x="241" y="-79.8" font-family="Times,serif" font-size="14.00">class = blue</text>
</g>
<!-- 2&#45;&gt;6 -->
<g id="edge6" class="edge">
<title>2&#45;&gt;6</title>
<path fill="none" stroke="black" d="M199.88,-145.83C206.21,-137.54 213.84,-127.56 220.79,-118.45"/>
<polygon fill="black" stroke="black" points="223.65,-120.48 226.93,-110.41 218.08,-116.24 223.65,-120.48"/>
</g>
<!-- 4 -->
<g id="node5" class="node">
<title>4</title>
<polygon fill="none" stroke="black" points="76,-36 0,-36 0,0 76,0 76,-36"/>
<text text-anchor="middle" x="38" y="-14.3" font-family="Times,serif" font-size="14.00">class = red</text>
</g>
<!-- 3&#45;&gt;4 -->
<g id="edge4" class="edge">
<title>3&#45;&gt;4</title>
<path fill="none" stroke="black" d="M107.05,-71.72C95.22,-62.68 80.82,-51.69 68.23,-42.08"/>
<polygon fill="black" stroke="black" points="70.34,-39.29 60.27,-36 66.1,-44.85 70.34,-39.29"/>
</g>
<!-- 5 -->
<g id="node6" class="node">
<title>5</title>
<polygon fill="none" stroke="black" points="176,-36 94,-36 94,0 176,0 176,-36"/>
<text text-anchor="middle" x="135" y="-14.3" font-family="Times,serif" font-size="14.00">class = blue</text>
</g>
<!-- 3&#45;&gt;5 -->
<g id="edge5" class="edge">
<title>3&#45;&gt;5</title>
<path fill="none" stroke="black" d="M132.03,-71.72C132.47,-63.89 133,-54.59 133.48,-45.99"/>
<polygon fill="black" stroke="black" points="136.97,-46.18 134.04,-36 129.99,-45.79 136.97,-46.18"/>
</g>
<!-- 7 -->
<g id="node8" class="node">
<title>7</title>
<polygon fill="none" stroke="black" points="276,-36 200,-36 200,0 276,0 276,-36"/>
<text text-anchor="middle" x="238" y="-14.3" font-family="Times,serif" font-size="14.00">class = red</text>
</g>
<!-- 6&#45;&gt;7 -->
<g id="edge7" class="edge">
<title>6&#45;&gt;7</title>
<path fill="none" stroke="black" d="M240.23,-71.72C239.9,-63.97 239.51,-54.79 239.15,-46.27"/>
<polygon fill="black" stroke="black" points="242.64,-45.85 238.72,-36 235.64,-46.14 242.64,-45.85"/>
</g>
<!-- 8 -->
<g id="node9" class="node">
<title>8</title>
<polygon fill="none" stroke="black" points="376,-36 294,-36 294,0 376,0 376,-36"/>
<text text-anchor="middle" x="335" y="-14.3" font-family="Times,serif" font-size="14.00">class = blue</text>
</g>
<!-- 6&#45;&gt;8 -->
<g id="edge8" class="edge">
<title>6&#45;&gt;8</title>
<path fill="none" stroke="black" d="M265.21,-71.72C277.17,-62.68 291.72,-51.69 304.44,-42.08"/>
<polygon fill="black" stroke="black" points="306.62,-44.82 312.49,-36 302.4,-39.24 306.62,-44.82"/>
</g>
</g>
</svg>
