<?xml version="1.0" encoding="UTF-8" standalone="no"?>
<!DOCTYPE svg PUBLIC "-//W3C//DTD SVG 1.1//EN"
 "http://www.w3.org/Graphics/SVG/1.1/DTD/svg11.dtd">
<!-- Generated by graphviz version 2.44.1 (20200629.0846)
 -->
<!-- Title: Tree Pages: 1 -->
<svg width="461pt" height="414pt"
 viewBox="0.00 0.00 461.00 414.00" xmlns="http://www.w3.org/2000/svg" xmlns:xlink="http://www.w3.org/1999/xlink">
<g id="graph0" class="graph" transform="scale(1 1) rotate(0) translate(4 410)">
<title>Tree</title>
<polygon fill="white" stroke="transparent" points="-4,4 -4,-410 457,-410 457,4 -4,4"/>
<!-- 0 -->
<g id="node1" class="node">
<title>0</title>
<polygon fill="none" stroke="black" points="197.5,-406 90.5,-406 90.5,-368 197.5,-368 197.5,-406"/>
<text text-anchor="middle" x="144" y="-390.8" font-family="Times,serif" font-size="14.00">lon &lt;= &#45;102.165</text>
<text text-anchor="middle" x="144" y="-375.8" font-family="Times,serif" font-size="14.00">class = red</text>
</g>
<!-- 1 -->
<g id="node2" class="node">
<title>1</title>
<polygon fill="none" stroke="black" points="131,-331 49,-331 49,-295 131,-295 131,-331"/>
<text text-anchor="middle" x="90" y="-309.3" font-family="Times,serif" font-size="14.00">class = blue</text>
</g>
<!-- 0&#45;&gt;1 -->
<g id="edge1" class="edge">
<title>0&#45;&gt;1</title>
<path fill="none" stroke="black" d="M130.37,-367.83C123.96,-359.28 116.21,-348.94 109.21,-339.62"/>
<polygon fill="black" stroke="black" points="111.86,-337.32 103.06,-331.42 106.26,-341.52 111.86,-337.32"/>
<text text-anchor="middle" x="99.53" y="-352.47" font-family="Times,serif" font-size="14.00">True</text>
</g>
<!-- 2 -->
<g id="node3" class="node">
<title>2</title>
<polygon fill="none" stroke="black" points="249,-332 149,-332 149,-294 249,-294 249,-332"/>
<text text-anchor="middle" x="199" y="-316.8" font-family="Times,serif" font-size="14.00">lon &lt;= &#45;82.517</text>
<text text-anchor="middle" x="199" y="-301.8" font-family="Times,serif" font-size="14.00">class = red</text>
</g>
<!-- 0&#45;&gt;2 -->
<g id="edge2" class="edge">
<title>0&#45;&gt;2</title>
<path fill="none" stroke="black" d="M157.88,-367.83C164.21,-359.54 171.84,-349.56 178.79,-340.45"/>
<polygon fill="black" stroke="black" points="181.65,-342.48 184.93,-332.41 176.08,-338.24 181.65,-342.48"/>
<text text-anchor="middle" x="188.25" y="-353.49" font-family="Times,serif" font-size="14.00">False</text>
</g>
<!-- 3 -->
<g id="node4" class="node">
<title>3</title>
<polygon fill="none" stroke="black" points="188,-258 96,-258 96,-220 188,-220 188,-258"/>
<text text-anchor="middle" x="142" y="-242.8" font-family="Times,serif" font-size="14.00">lat &lt;= 41.113</text>
<text text-anchor="middle" x="142" y="-227.8" font-family="Times,serif" font-size="14.00">class = red</text>
</g>
<!-- 2&#45;&gt;3 -->
<g id="edge3" class="edge">
<title>2&#45;&gt;3</title>
<path fill="none" stroke="black" d="M184.62,-293.83C178.05,-285.54 170.15,-275.56 162.94,-266.45"/>
<polygon fill="black" stroke="black" points="165.53,-264.08 156.58,-258.41 160.04,-268.43 165.53,-264.08"/>
</g>
<!-- 10 -->
<g id="node11" class="node">
<title>10</title>
<polygon fill="none" stroke="black" points="306,-258 206,-258 206,-220 306,-220 306,-258"/>
<text text-anchor="middle" x="256" y="-242.8" font-family="Times,serif" font-size="14.00">lon &lt;= &#45;81.529</text>
<text text-anchor="middle" x="256" y="-227.8" font-family="Times,serif" font-size="14.00">class = blue</text>
</g>
<!-- 2&#45;&gt;10 -->
<g id="edge10" class="edge">
<title>2&#45;&gt;10</title>
<path fill="none" stroke="black" d="M213.38,-293.83C219.95,-285.54 227.85,-275.56 235.06,-266.45"/>
<polygon fill="black" stroke="black" points="237.96,-268.43 241.42,-258.41 232.47,-264.08 237.96,-268.43"/>
</g>
<!-- 4 -->
<g id="node5" class="node">
<title>4</title>
<polygon fill="none" stroke="black" points="76,-183 0,-183 0,-147 76,-147 76,-183"/>
<text text-anchor="middle" x="38" y="-161.3" font-family="Times,serif" font-size="14.00">class = red</text>
</g>
<!-- 3&#45;&gt;4 -->
<g id="edge4" class="edge">
<title>3&#45;&gt;4</title>
<path fill="none" stroke="black" d="M115.76,-219.83C102.3,-210.52 85.77,-199.07 71.41,-189.13"/>
<polygon fill="black" stroke="black" points="73.02,-185.99 62.8,-183.17 69.03,-191.74 73.02,-185.99"/>
</g>
<!-- 5 -->
<g id="node6" class="node">
<title>5</title>
<polygon fill="none" stroke="black" points="194,-184 94,-184 94,-146 194,-146 194,-184"/>
<text text-anchor="middle" x="144" y="-168.8" font-family="Times,serif" font-size="14.00">lon &lt;= &#45;91.035</text>
<text text-anchor="middle" x="144" y="-153.8" font-family="Times,serif" font-size="14.00">class = blue</text>
</g>
<!-- 3&#45;&gt;5 -->
<g id="edge5" class="edge">
<title>3&#45;&gt;5</title>
<path fill="none" stroke="black" d="M142.5,-219.83C142.72,-212.13 142.97,-202.97 143.21,-194.42"/>
<polygon fill="black" stroke="black" points="146.71,-194.51 143.49,-184.41 139.71,-194.31 146.71,-194.51"/>
</g>
<!-- 6 -->
<g id="node7" class="node">
<title>6</title>
<polygon fill="none" stroke="black" points="108,-109 26,-109 26,-73 108,-73 108,-109"/>
<text text-anchor="middle" x="67" y="-87.3" font-family="Times,serif" font-size="14.00">class = blue</text>
</g>
<!-- 5&#45;&gt;6 -->
<g id="edge6" class="edge">
<title>5&#45;&gt;6</title>
<path fill="none" stroke="black" d="M124.57,-145.83C114.98,-136.87 103.29,-125.93 92.95,-116.26"/>
<polygon fill="black" stroke="black" points="95.06,-113.44 85.36,-109.17 90.28,-118.56 95.06,-113.44"/>
</g>
<!-- 7 -->
<g id="node8" class="node">
<title>7</title>
<polygon fill="none" stroke="black" points="226,-110 126,-110 126,-72 226,-72 226,-110"/>
<text text-anchor="middle" x="176" y="-94.8" font-family="Times,serif" font-size="14.00">lon &lt;= &#45;84.774</text>
<text text-anchor="middle" x="176" y="-79.8" font-family="Times,serif" font-size="14.00">class = blue</text>
</g>
<!-- 5&#45;&gt;7 -->
<g id="edge7" class="edge">
<title>5&#45;&gt;7</title>
<path fill="none" stroke="black" d="M152.07,-145.83C155.61,-137.88 159.84,-128.37 163.75,-119.57"/>
<polygon fill="black" stroke="black" points="166.95,-120.97 167.82,-110.41 160.56,-118.13 166.95,-120.97"/>
</g>
<!-- 8 -->
<g id="node9" class="node">
<title>8</title>
<polygon fill="none" stroke="black" points="165,-36 89,-36 89,0 165,0 165,-36"/>
<text text-anchor="middle" x="127" y="-14.3" font-family="Times,serif" font-size="14.00">class = red</text>
</g>
<!-- 7&#45;&gt;8 -->
<g id="edge8" class="edge">
<title>7&#45;&gt;8</title>
<path fill="none" stroke="black" d="M163.38,-71.72C157.62,-63.37 150.71,-53.35 144.46,-44.3"/>
<polygon fill="black" stroke="black" points="147.3,-42.25 138.73,-36 141.53,-46.22 147.3,-42.25"/>
</g>
<!-- 9 -->
<g id="node10" class="node">
<title>9</title>
<polygon fill="none" stroke="black" points="265,-36 183,-36 183,0 265,0 265,-36"/>
<text text-anchor="middle" x="224" y="-14.3" font-family="Times,serif" font-size="14.00">class = blue</text>
</g>
<!-- 7&#45;&gt;9 -->
<g id="edge9" class="edge">
<title>7&#45;&gt;9</title>
<path fill="none" stroke="black" d="M188.36,-71.72C194,-63.37 200.78,-53.35 206.9,-44.3"/>
<polygon fill="black" stroke="black" points="209.8,-46.25 212.5,-36 204,-42.33 209.8,-46.25"/>
</g>
<!-- 11 -->
<g id="node12" class="node">
<title>11</title>
<polygon fill="none" stroke="black" points="296,-183 214,-183 214,-147 296,-147 296,-183"/>
<text text-anchor="middle" x="255" y="-161.3" font-family="Times,serif" font-size="14.00">class = blue</text>
</g>
<!-- 10&#45;&gt;11 -->
<g id="edge11" class="edge">
<title>10&#45;&gt;11</title>
<path fill="none" stroke="black" d="M255.75,-219.83C255.64,-211.89 255.51,-202.41 255.38,-193.63"/>
<polygon fill="black" stroke="black" points="258.88,-193.37 255.24,-183.42 251.88,-193.47 258.88,-193.37"/>
</g>
<!-- 12 -->
<g id="node13" class="node">
<title>12</title>
<polygon fill="none" stroke="black" points="414,-184 314,-184 314,-146 414,-146 414,-184"/>
<text text-anchor="middle" x="364" y="-168.8" font-family="Times,serif" font-size="14.00">lon &lt;= &#45;79.166</text>
<text text-anchor="middle" x="364" y="-153.8" font-family="Times,serif" font-size="14.00">class = red</text>
</g>
<!-- 10&#45;&gt;12 -->
<g id="edge12" class="edge">
<title>10&#45;&gt;12</title>
<path fill="none" stroke="black" d="M283.25,-219.83C296.94,-210.71 313.69,-199.54 328.38,-189.74"/>
<polygon fill="black" stroke="black" points="330.38,-192.62 336.76,-184.16 326.49,-186.8 330.38,-192.62"/>
</g>
<!-- 13 -->
<g id="node14" class="node">
<title>13</title>
<polygon fill="none" stroke="black" points="353,-109 277,-109 277,-73 353,-73 353,-109"/>
<text text-anchor="middle" x="315" y="-87.3" font-family="Times,serif" font-size="14.00">class = red</text>
</g>
<!-- 12&#45;&gt;13 -->
<g id="edge13" class="edge">
<title>12&#45;&gt;13</title>
<path fill="none" stroke="black" d="M351.64,-145.83C345.88,-137.37 338.92,-127.15 332.63,-117.9"/>
<polygon fill="black" stroke="black" points="335.37,-115.72 326.85,-109.42 329.59,-119.65 335.37,-115.72"/>
</g>
<!-- 14 -->
<g id="node15" class="node">
<title>14</title>
<polygon fill="none" stroke="black" points="453,-109 371,-109 371,-73 453,-73 453,-109"/>
<text text-anchor="middle" x="412" y="-87.3" font-family="Times,serif" font-size="14.00">class = blue</text>
</g>
<!-- 12&#45;&gt;14 -->
<g id="edge14" class="edge">
<title>12&#45;&gt;14</title>
<path fill="none" stroke="black" d="M376.11,-145.83C381.75,-137.37 388.57,-127.15 394.73,-117.9"/>
<polygon fill="black" stroke="black" points="397.75,-119.68 400.39,-109.42 391.93,-115.8 397.75,-119.68"/>
</g>
</g>
</svg>
