<?xml version="1.0" encoding="UTF-8" standalone="no"?>
<!DOCTYPE svg PUBLIC "-//W3C//DTD SVG 1.1//EN"
 "http://www.w3.org/Graphics/SVG/1.1/DTD/svg11.dtd">
<!-- Generated by graphviz version 2.44.1 (20200629.0846)
 -->
<!-- Title: Tree Pages: 1 -->
<svg width="420pt" height="414pt"
 viewBox="0.00 0.00 420.00 414.00" xmlns="http://www.w3.org/2000/svg" xmlns:xlink="http://www.w3.org/1999/xlink">
<g id="graph0" class="graph" transform="scale(1 1) rotate(0) translate(4 410)">
<title>Tree</title>
<polygon fill="white" stroke="transparent" points="-4,4 -4,-410 416,-410 416,4 -4,4"/>
<!-- 0 -->
<g id="node1" class="node">
<title>0</title>
<polygon fill="none" stroke="black" points="201.5,-406 94.5,-406 94.5,-368 201.5,-368 201.5,-406"/>
<text text-anchor="middle" x="148" y="-390.8" font-family="Times,serif" font-size="14.00">lon &lt;= &#45;102.165</text>
<text text-anchor="middle" x="148" y="-375.8" font-family="Times,serif" font-size="14.00">class = red</text>
</g>
<!-- 1 -->
<g id="node2" class="node">
<title>1</title>
<polygon fill="none" stroke="black" points="135,-331 53,-331 53,-295 135,-295 135,-331"/>
<text text-anchor="middle" x="94" y="-309.3" font-family="Times,serif" font-size="14.00">class = blue</text>
</g>
<!-- 0&#45;&gt;1 -->
<g id="edge1" class="edge">
<title>0&#45;&gt;1</title>
<path fill="none" stroke="black" d="M134.37,-367.83C127.96,-359.28 120.21,-348.94 113.21,-339.62"/>
<polygon fill="black" stroke="black" points="115.86,-337.32 107.06,-331.42 110.26,-341.52 115.86,-337.32"/>
<text text-anchor="middle" x="103.53" y="-352.47" font-family="Times,serif" font-size="14.00">True</text>
</g>
<!-- 2 -->
<g id="node3" class="node">
<title>2</title>
<polygon fill="none" stroke="black" points="253,-332 153,-332 153,-294 253,-294 253,-332"/>
<text text-anchor="middle" x="203" y="-316.8" font-family="Times,serif" font-size="14.00">lon &lt;= &#45;82.517</text>
<text text-anchor="middle" x="203" y="-301.8" font-family="Times,serif" font-size="14.00">class = red</text>
</g>
<!-- 0&#45;&gt;2 -->
<g id="edge2" class="edge">
<title>0&#45;&gt;2</title>
<path fill="none" stroke="black" d="M161.88,-367.83C168.21,-359.54 175.84,-349.56 182.79,-340.45"/>
<polygon fill="black" stroke="black" points="185.65,-342.48 188.93,-332.41 180.08,-338.24 185.65,-342.48"/>
<text text-anchor="middle" x="192.25" y="-353.49" font-family="Times,serif" font-size="14.00">False</text>
</g>
<!-- 3 -->
<g id="node4" class="node">
<title>3</title>
<polygon fill="none" stroke="black" points="190,-258 98,-258 98,-220 190,-220 190,-258"/>
<text text-anchor="middle" x="144" y="-242.8" font-family="Times,serif" font-size="14.00">lat &lt;= 41.113</text>
<text text-anchor="middle" x="144" y="-227.8" font-family="Times,serif" font-size="14.00">class = red</text>
</g>
<!-- 2&#45;&gt;3 -->
<g id="edge3" class="edge">
<title>2&#45;&gt;3</title>
<path fill="none" stroke="black" d="M188.11,-293.83C181.25,-285.45 172.97,-275.35 165.45,-266.17"/>
<polygon fill="black" stroke="black" points="168.13,-263.93 159.09,-258.41 162.72,-268.37 168.13,-263.93"/>
</g>
<!-- 10 -->
<g id="node11" class="node">
<title>10</title>
<polygon fill="none" stroke="black" points="308,-258 216,-258 216,-220 308,-220 308,-258"/>
<text text-anchor="middle" x="262" y="-242.8" font-family="Times,serif" font-size="14.00">lat &lt;= 35.763</text>
<text text-anchor="middle" x="262" y="-227.8" font-family="Times,serif" font-size="14.00">class = blue</text>
</g>
<!-- 2&#45;&gt;10 -->
<g id="edge10" class="edge">
<title>2&#45;&gt;10</title>
<path fill="none" stroke="black" d="M217.89,-293.83C224.75,-285.45 233.03,-275.35 240.55,-266.17"/>
<polygon fill="black" stroke="black" points="243.28,-268.37 246.91,-258.41 237.87,-263.93 243.28,-268.37"/>
</g>
<!-- 4 -->
<g id="node5" class="node">
<title>4</title>
<polygon fill="none" stroke="black" points="76,-183 0,-183 0,-147 76,-147 76,-183"/>
<text text-anchor="middle" x="38" y="-161.3" font-family="Times,serif" font-size="14.00">class = red</text>
</g>
<!-- 3&#45;&gt;4 -->
<g id="edge4" class="edge">
<title>3&#45;&gt;4</title>
<path fill="none" stroke="black" d="M117.25,-219.83C103.41,-210.43 86.37,-198.86 71.64,-188.85"/>
<polygon fill="black" stroke="black" points="73.52,-185.9 63.28,-183.17 69.59,-191.69 73.52,-185.9"/>
</g>
<!-- 5 -->
<g id="node6" class="node">
<title>5</title>
<polygon fill="none" stroke="black" points="194,-184 94,-184 94,-146 194,-146 194,-184"/>
<text text-anchor="middle" x="144" y="-168.8" font-family="Times,serif" font-size="14.00">lon &lt;= &#45;91.035</text>
<text text-anchor="middle" x="144" y="-153.8" font-family="Times,serif" font-size="14.00">class = blue</text>
</g>
<!-- 3&#45;&gt;5 -->
<g id="edge5" class="edge">
<title>3&#45;&gt;5</title>
<path fill="none" stroke="black" d="M144,-219.83C144,-212.13 144,-202.97 144,-194.42"/>
<polygon fill="black" stroke="black" points="147.5,-194.41 144,-184.41 140.5,-194.41 147.5,-194.41"/>
</g>
<!-- 6 -->
<g id="node7" class="node">
<title>6</title>
<polygon fill="none" stroke="black" points="83,-109 1,-109 1,-73 83,-73 83,-109"/>
<text text-anchor="middle" x="42" y="-87.3" font-family="Times,serif" font-size="14.00">class = blue</text>
</g>
<!-- 5&#45;&gt;6 -->
<g id="edge6" class="edge">
<title>5&#45;&gt;6</title>
<path fill="none" stroke="black" d="M118.26,-145.83C105.07,-136.52 88.85,-125.07 74.77,-115.13"/>
<polygon fill="black" stroke="black" points="76.51,-112.08 66.33,-109.17 72.48,-117.8 76.51,-112.08"/>
</g>
<!-- 7 -->
<g id="node8" class="node">
<title>7</title>
<polygon fill="none" stroke="black" points="193,-110 101,-110 101,-72 193,-72 193,-110"/>
<text text-anchor="middle" x="147" y="-94.8" font-family="Times,serif" font-size="14.00">lat &lt;= 42.165</text>
<text text-anchor="middle" x="147" y="-79.8" font-family="Times,serif" font-size="14.00">class = blue</text>
</g>
<!-- 5&#45;&gt;7 -->
<g id="edge7" class="edge">
<title>5&#45;&gt;7</title>
<path fill="none" stroke="black" d="M144.76,-145.83C145.08,-138.13 145.46,-128.97 145.82,-120.42"/>
<polygon fill="black" stroke="black" points="149.31,-120.55 146.23,-110.41 142.32,-120.26 149.31,-120.55"/>
</g>
<!-- 8 -->
<g id="node9" class="node">
<title>8</title>
<polygon fill="none" stroke="black" points="136,-36 60,-36 60,0 136,0 136,-36"/>
<text text-anchor="middle" x="98" y="-14.3" font-family="Times,serif" font-size="14.00">class = red</text>
</g>
<!-- 7&#45;&gt;8 -->
<g id="edge8" class="edge">
<title>7&#45;&gt;8</title>
<path fill="none" stroke="black" d="M134.38,-71.72C128.62,-63.37 121.71,-53.35 115.46,-44.3"/>
<polygon fill="black" stroke="black" points="118.3,-42.25 109.73,-36 112.53,-46.22 118.3,-42.25"/>
</g>
<!-- 9 -->
<g id="node10" class="node">
<title>9</title>
<polygon fill="none" stroke="black" points="236,-36 154,-36 154,0 236,0 236,-36"/>
<text text-anchor="middle" x="195" y="-14.3" font-family="Times,serif" font-size="14.00">class = blue</text>
</g>
<!-- 7&#45;&gt;9 -->
<g id="edge9" class="edge">
<title>7&#45;&gt;9</title>
<path fill="none" stroke="black" d="M159.36,-71.72C165,-63.37 171.78,-53.35 177.9,-44.3"/>
<polygon fill="black" stroke="black" points="180.8,-46.25 183.5,-36 175,-42.33 180.8,-46.25"/>
</g>
<!-- 11 -->
<g id="node12" class="node">
<title>11</title>
<polygon fill="none" stroke="black" points="312,-184 212,-184 212,-146 312,-146 312,-184"/>
<text text-anchor="middle" x="262" y="-168.8" font-family="Times,serif" font-size="14.00">lon &lt;= &#45;81.529</text>
<text text-anchor="middle" x="262" y="-153.8" font-family="Times,serif" font-size="14.00">class = red</text>
</g>
<!-- 10&#45;&gt;11 -->
<g id="edge11" class="edge">
<title>10&#45;&gt;11</title>
<path fill="none" stroke="black" d="M262,-219.83C262,-212.13 262,-202.97 262,-194.42"/>
<polygon fill="black" stroke="black" points="265.5,-194.41 262,-184.41 258.5,-194.41 265.5,-194.41"/>
</g>
<!-- 14 -->
<g id="node15" class="node">
<title>14</title>
<polygon fill="none" stroke="black" points="412,-183 330,-183 330,-147 412,-147 412,-183"/>
<text text-anchor="middle" x="371" y="-161.3" font-family="Times,serif" font-size="14.00">class = blue</text>
</g>
<!-- 10&#45;&gt;14 -->
<g id="edge14" class="edge">
<title>10&#45;&gt;14</title>
<path fill="none" stroke="black" d="M289.51,-219.83C303.74,-210.43 321.26,-198.86 336.41,-188.85"/>
<polygon fill="black" stroke="black" points="338.59,-191.6 345,-183.17 334.73,-185.76 338.59,-191.6"/>
</g>
<!-- 12 -->
<g id="node13" class="node">
<title>12</title>
<polygon fill="none" stroke="black" points="299,-109 217,-109 217,-73 299,-73 299,-109"/>
<text text-anchor="middle" x="258" y="-87.3" font-family="Times,serif" font-size="14.00">class = blue</text>
</g>
<!-- 11&#45;&gt;12 -->
<g id="edge12" class="edge">
<title>11&#45;&gt;12</title>
<path fill="none" stroke="black" d="M260.99,-145.83C260.55,-137.89 260.02,-128.41 259.53,-119.63"/>
<polygon fill="black" stroke="black" points="263.02,-119.21 258.97,-109.42 256.03,-119.6 263.02,-119.21"/>
</g>
<!-- 13 -->
<g id="node14" class="node">
<title>13</title>
<polygon fill="none" stroke="black" points="393,-109 317,-109 317,-73 393,-73 393,-109"/>
<text text-anchor="middle" x="355" y="-87.3" font-family="Times,serif" font-size="14.00">class = red</text>
</g>
<!-- 11&#45;&gt;13 -->
<g id="edge13" class="edge">
<title>11&#45;&gt;13</title>
<path fill="none" stroke="black" d="M285.47,-145.83C297.39,-136.6 312,-125.29 324.76,-115.41"/>
<polygon fill="black" stroke="black" points="327.06,-118.06 332.82,-109.17 322.77,-112.53 327.06,-118.06"/>
</g>
</g>
</svg>
