<?xml version="1.0" encoding="UTF-8" standalone="no"?>
<!DOCTYPE svg PUBLIC "-//W3C//DTD SVG 1.1//EN"
 "http://www.w3.org/Graphics/SVG/1.1/DTD/svg11.dtd">
<!-- Generated by graphviz version 2.44.1 (20200629.0846)
 -->
<!-- Title: Tree Pages: 1 -->
<svg width="269pt" height="269pt"
 viewBox="0.00 0.00 269.00 269.00" xmlns="http://www.w3.org/2000/svg" xmlns:xlink="http://www.w3.org/1999/xlink">
<g id="graph0" class="graph" transform="scale(1 1) rotate(0) translate(4 265)">
<title>Tree</title>
<polygon fill="white" stroke="transparent" points="-4,4 -4,-265 265,-265 265,4 -4,4"/>
<!-- 0 -->
<g id="node1" class="node">
<title>0</title>
<polygon fill="none" stroke="black" points="149,-261 57,-261 57,-193 149,-193 149,-261"/>
<text text-anchor="middle" x="103" y="-245.8" font-family="Times,serif" font-size="14.00">lat &lt;= 39.121</text>
<text text-anchor="middle" x="103" y="-230.8" font-family="Times,serif" font-size="14.00">samples = 6</text>
<text text-anchor="middle" x="103" y="-215.8" font-family="Times,serif" font-size="14.00">value = [3, 3]</text>
<text text-anchor="middle" x="103" y="-200.8" font-family="Times,serif" font-size="14.00">class = blue</text>
</g>
<!-- 1 -->
<g id="node2" class="node">
<title>1</title>
<polygon fill="none" stroke="black" points="92,-149.5 0,-149.5 0,-96.5 92,-96.5 92,-149.5"/>
<text text-anchor="middle" x="46" y="-134.3" font-family="Times,serif" font-size="14.00">samples = 1</text>
<text text-anchor="middle" x="46" y="-119.3" font-family="Times,serif" font-size="14.00">value = [0, 1]</text>
<text text-anchor="middle" x="46" y="-104.3" font-family="Times,serif" font-size="14.00">class = red</text>
</g>
<!-- 0&#45;&gt;1 -->
<g id="edge1" class="edge">
<title>0&#45;&gt;1</title>
<path fill="none" stroke="black" d="M84.49,-192.88C78.35,-181.89 71.49,-169.62 65.29,-158.52"/>
<polygon fill="black" stroke="black" points="68.19,-156.54 60.26,-149.52 62.08,-159.96 68.19,-156.54"/>
<text text-anchor="middle" x="53.45" y="-169.88" font-family="Times,serif" font-size="14.00">True</text>
</g>
<!-- 2 -->
<g id="node3" class="node">
<title>2</title>
<polygon fill="none" stroke="black" points="210,-157 110,-157 110,-89 210,-89 210,-157"/>
<text text-anchor="middle" x="160" y="-141.8" font-family="Times,serif" font-size="14.00">lon &lt;= &#45;97.826</text>
<text text-anchor="middle" x="160" y="-126.8" font-family="Times,serif" font-size="14.00">samples = 5</text>
<text text-anchor="middle" x="160" y="-111.8" font-family="Times,serif" font-size="14.00">value = [3, 2]</text>
<text text-anchor="middle" x="160" y="-96.8" font-family="Times,serif" font-size="14.00">class = blue</text>
</g>
<!-- 0&#45;&gt;2 -->
<g id="edge2" class="edge">
<title>0&#45;&gt;2</title>
<path fill="none" stroke="black" d="M121.51,-192.88C126.28,-184.33 131.49,-175.01 136.49,-166.07"/>
<polygon fill="black" stroke="black" points="139.57,-167.74 141.39,-157.3 133.46,-164.32 139.57,-167.74"/>
<text text-anchor="middle" x="148.2" y="-177.65" font-family="Times,serif" font-size="14.00">False</text>
</g>
<!-- 3 -->
<g id="node4" class="node">
<title>3</title>
<polygon fill="none" stroke="black" points="151,-53 59,-53 59,0 151,0 151,-53"/>
<text text-anchor="middle" x="105" y="-37.8" font-family="Times,serif" font-size="14.00">samples = 3</text>
<text text-anchor="middle" x="105" y="-22.8" font-family="Times,serif" font-size="14.00">value = [1, 2]</text>
<text text-anchor="middle" x="105" y="-7.8" font-family="Times,serif" font-size="14.00">class = red</text>
</g>
<!-- 2&#45;&gt;3 -->
<g id="edge3" class="edge">
<title>2&#45;&gt;3</title>
<path fill="none" stroke="black" d="M140.76,-88.95C135.71,-80.26 130.24,-70.86 125.13,-62.09"/>
<polygon fill="black" stroke="black" points="128.03,-60.12 119.98,-53.24 121.98,-63.64 128.03,-60.12"/>
</g>
<!-- 4 -->
<g id="node5" class="node">
<title>4</title>
<polygon fill="none" stroke="black" points="261,-53 169,-53 169,0 261,0 261,-53"/>
<text text-anchor="middle" x="215" y="-37.8" font-family="Times,serif" font-size="14.00">samples = 2</text>
<text text-anchor="middle" x="215" y="-22.8" font-family="Times,serif" font-size="14.00">value = [2, 0]</text>
<text text-anchor="middle" x="215" y="-7.8" font-family="Times,serif" font-size="14.00">class = blue</text>
</g>
<!-- 2&#45;&gt;4 -->
<g id="edge4" class="edge">
<title>2&#45;&gt;4</title>
<path fill="none" stroke="black" d="M179.24,-88.95C184.29,-80.26 189.76,-70.86 194.87,-62.09"/>
<polygon fill="black" stroke="black" points="198.02,-63.64 200.02,-53.24 191.97,-60.12 198.02,-63.64"/>
</g>
</g>
</svg>
